<svg width="131" height="131" viewBox="0 0 131 131" fill="none" xmlns="http://www.w3.org/2000/svg">
<g clip-path="url(#clip0_3381_184203)">
<path d="M0 8C0 3.58172 3.58172 0 8 0H123C127.418 0 131 3.58172 131 8V123C131 127.418 127.418 131 123 131H8C3.58172 131 0 127.418 0 123V8Z" fill="#ADB1FF"/>
<path d="M20.4001 104.898C26.71 98.9386 36.5119 96.3051 50.197 95.7837C56.3715 114.608 65.0501 110.479 83.1488 95.7837C103.375 94.9287 113.6 95.4481 122.411 104.898C129.937 113.105 132.392 121.182 133.628 141.355H6.72861C7.77517 128.43 14.0902 110.857 20.4001 104.898Z" fill="#454887"/>
<path d="M107.471 123.456C107.432 123.334 107.349 123.227 107.237 123.162C107.124 123.097 106.992 123.078 106.867 123.109C106.743 123.141 106.636 123.221 106.568 123.331C106.5 123.442 106.478 123.575 106.502 123.701C106.557 123.999 106.608 124.279 106.662 124.576C107.61 129.423 107.846 134.179 106.566 138.84C106.472 139.222 106.425 139.617 106.427 140.026C106.426 140.334 106.456 140.637 106.507 140.965C106.526 141.08 106.559 141.195 106.622 141.29C106.685 141.386 106.773 141.455 106.875 141.485C106.977 141.515 107.088 141.505 107.193 141.458C107.298 141.412 107.388 141.334 107.466 141.248C107.688 140.994 107.875 140.745 108.035 140.47C108.25 140.107 108.409 139.721 108.508 139.319C109.882 134.403 109.284 128.994 107.741 124.314C107.651 124.022 107.564 123.747 107.471 123.456Z" fill="black"/>
<path d="M30.0814 123.456C30.1209 123.334 30.2031 123.227 30.3156 123.162C30.4279 123.097 30.5604 123.078 30.6849 123.109C30.8094 123.141 30.9168 123.221 30.9846 123.331C31.0525 123.442 31.0744 123.575 31.0508 123.701C30.9952 123.999 30.9444 124.279 30.8907 124.576C29.9422 129.423 29.706 134.179 30.9861 138.84C31.0804 139.222 31.127 139.617 31.1253 140.026C31.1259 140.334 31.0966 140.637 31.0457 140.965C31.0268 141.08 30.9934 141.195 30.9302 141.29C30.8671 141.386 30.7796 141.455 30.6776 141.485C30.5756 141.515 30.4647 141.505 30.3597 141.458C30.2547 141.412 30.1646 141.334 30.0865 141.248C29.8646 140.994 29.6774 140.745 29.5171 140.47C29.302 140.107 29.1435 139.721 29.0442 139.319C27.67 134.403 28.268 128.994 29.8118 124.314C29.9012 124.022 29.9883 123.747 30.0814 123.456Z" fill="black"/>
<path d="M81.5827 60.7457L79.4827 51.2808C79.6399 78.9623 76.4024 91.7079 49.6826 91.2436C51.0279 97.5205 45.4849 98.4899 44.4333 102.415C43.3816 106.34 47.5972 124.453 68.2798 116.741C88.9623 109.029 87.5511 100.709 86.1489 99.3063C84.7467 97.9041 82.813 97.4064 81.5827 95.8008C81.5827 95.8008 80.1805 81.0776 80.5311 76.871C80.8816 72.6644 81.94 73.3655 86.1434 72.3139C90.3467 71.2622 98.8518 63.5501 95.6135 57.9412C92.3753 52.3324 84.7467 54.4357 81.5827 60.7457Z" fill="#FCA58C"/>
<path d="M74.5808 85.453C79.8373 80.1966 79.8391 69.3279 79.8391 53.5528C79.8391 37.7778 61.6104 22.4778 48.9906 25.8593C36.3707 29.2408 30.8232 35.3862 32.1641 59.8628C33.3016 81.0003 40.2268 91.062 48.9906 92.8146C57.7544 94.5672 69.3244 90.7094 74.5808 85.453Z" fill="#FAA48B"/>
<path d="M72.2194 83.2954C72.2999 83.196 72.4134 83.1257 72.5409 83.1037C72.6682 83.0817 72.7982 83.1093 72.9033 83.1812C73.0084 83.2531 73.0813 83.3642 73.1069 83.4909C73.1326 83.6176 73.1082 83.749 73.0448 83.8599C72.8198 84.2513 72.5944 84.6287 72.3546 85.009C70.4153 88.2075 67.3516 91.1464 63.5648 92.3186C59.3374 93.6876 54.9976 93.596 50.8001 93.2626C50.3639 93.2247 49.9282 93.1824 49.4787 93.1354C49.3511 93.1217 49.2304 93.0637 49.1431 92.9678C49.0559 92.8719 49.0093 92.747 49.0137 92.6192C49.0181 92.4914 49.0731 92.3699 49.1667 92.2802C49.2602 92.1905 49.3847 92.1409 49.5128 92.136C49.9604 92.1196 50.3932 92.1016 50.8251 92.0822C54.9828 91.8768 59.16 91.6545 62.9312 90.4216C66.2847 89.3665 69.0396 87.1135 71.3868 84.299C71.6685 83.9682 71.9417 83.6389 72.2194 83.2954Z" fill="black"/>
<path d="M49.419 59.075C48.3125 62.4277 45.0245 66.7871 45.3063 67.8387C45.9086 70.0867 47.1037 70.5354 50.4706 70.2926" stroke="black" stroke-linecap="round"/>
<ellipse cx="2.10331" cy="3.15496" rx="2.10331" ry="3.15496" transform="matrix(-1 0 0 1 61.363 56.2344)" fill="black"/>
<ellipse cx="2.10331" cy="3.15496" rx="2.10331" ry="3.15496" transform="matrix(-1 0 0 1 40.3299 56.2344)" fill="black"/>
<path d="M64.5176 52.0287C61.6785 49.6824 59.9277 49.3675 56.4549 50.2759" stroke="black" stroke-linecap="round"/>
<path d="M43.134 50.6786C39.8063 49.0999 38.0318 49.2237 34.8876 50.9558" stroke="black" stroke-linecap="round"/>
<path d="M55.1046 75.2C51.2109 78.2076 49.256 79.0069 45.2892 76.559" stroke="black" stroke-linecap="round"/>
<path d="M38.968 33.1012C34.7135 32.5137 32.3188 55.1854 32.3188 56.9381C32.3188 58.6909 32.0887 58.569 28.4515 51.6804C24.8143 44.7919 24.6412 41.1617 28.4515 35.2045C26.9235 24.8272 29.698 22.1762 38.968 21.1824C42.9107 11.5485 46.4392 10.0949 55.7945 14.522C62.7183 8.05062 66.9351 8.95155 74.7243 14.522C82.8714 11.2929 86.109 13.6613 90.4991 22.2341C99.2157 23.3773 100.534 26.521 98.5618 35.2045C104.364 41.4545 104.395 45.4817 99.6135 53.4332C101.385 55.3091 101.851 56.4342 101.016 58.6915C92.6284 78.6213 84.9459 74.5353 80.6949 74.8163C76.4439 75.0973 100.194 67.4112 95.0675 59.0414C92.2743 57.2881 84.3637 55.5297 81.7466 66.0525H78.9422C76.6968 59.2121 76.0051 58.5282 77.1782 51.6804C75.0749 48.762 74.5392 46.756 74.0232 42.9166C68.4067 43.403 65.3565 41.8584 62.8055 36.2562C57.6018 38.8943 54.6918 38.1652 50.1857 33.1012C46.0589 38.9163 43.5652 38.1589 38.968 33.1012Z" fill="black" stroke="black"/>
<path d="M110.855 103.247C110.526 86.8329 103.629 82.6258 80.6937 79.7598C80.6937 79.7598 81.0573 93.4313 79.6555 95.8851C78.2537 98.339 59.6737 111.66 56.5191 112.011C53.3645 112.361 47.4048 103.247 47.4048 103.247L49.8464 92.7302L43.8871 90.6269C37.5027 94.963 30.2275 97.6379 30.5783 103.247C30.9291 108.856 50.5601 123.228 56.5191 123.579C62.4781 123.929 110.855 103.247 110.855 103.247Z" fill="#454887"/>
<path d="M80.7557 79.2636C80.7144 79.5944 80.6731 79.9251 80.6317 80.2559C84.4279 80.7913 88.1912 81.3905 91.8718 82.2372C96.9801 83.4531 102.259 85.0672 105.697 88.8265C109.143 92.5839 109.826 98.0634 109.915 103.266L110.485 102.383C103.431 105.34 96.2332 108.307 89.1004 111.19C78.3682 115.344 67.2054 120.46 56.5765 122.603C47.0247 119.553 35.9268 111.866 31.487 103.19C31.5134 97.3631 39.4266 95.0308 44.3667 91.3331L43.6029 91.4319C45.5917 92.1264 47.5806 92.8206 49.5696 93.5146L49.0361 92.542C48.2347 96.0504 47.434 99.559 46.634 103.068L46.557 103.394L46.7425 103.68C47.9775 105.508 49.2927 107.253 50.7629 108.912C52.3333 110.445 53.5487 112.52 56.6004 112.743C65.7934 108.523 73.0169 103.083 80.172 96.1802C80.9403 94.4296 80.9144 92.8808 81.0716 91.2674C81.3196 87.4136 81.2925 83.5749 81.1936 79.7465C80.8603 79.7553 80.5271 79.7642 80.1939 79.7731C80.2456 83.5668 80.2257 87.4069 79.9388 91.1824C79.7977 92.7027 79.6713 94.4513 79.1391 95.5901C72.7143 101.637 64.3081 107.672 56.4378 111.279C53.2678 110.548 50.3814 106.093 48.067 102.814L48.1755 103.426C49.0033 99.9234 49.8304 96.4209 50.6568 92.9183L50.8232 92.1899L50.1233 91.9457C48.1393 91.2375 46.1553 90.5296 44.1712 89.8219L43.7612 89.6787L43.4074 89.9207C40.8025 91.6849 37.9806 93.1709 35.2583 94.9868C32.6825 96.7241 29.3917 99.3442 29.6696 103.304C31.707 109.749 36.812 112.699 41.1652 116.363C45.8322 119.678 50.2332 123.276 56.4617 124.554C68.6078 122.249 78.8848 117.228 89.8493 113.044C96.997 110.155 104.183 107.15 111.224 104.111L111.81 103.857L111.794 103.228C111.639 97.8974 110.9 91.9314 106.913 87.7046C102.925 83.5417 97.3689 82.0781 92.1518 80.9529C88.3855 80.185 84.5827 79.6875 80.7557 79.2636ZM80.6317 80.2559L80.7557 79.2636L80.1751 79.1999L80.1939 79.7731L81.1936 79.7465L80.6317 80.2559Z" fill="#5B69AF"/>
<rect x="45.5137" y="115.165" width="2.80441" height="19.6176" rx="1.40221" transform="rotate(8.88565 45.5137 115.165)" fill="#5B69AF"/>
<rect x="66.3223" y="116.557" width="2.80441" height="21.0331" rx="1.40221" transform="rotate(-14.2882 66.3223 116.557)" fill="#5B69AF"/>
</g>
<defs>
<clipPath id="clip0_3381_184203">
<path d="M0 8C0 3.58172 3.58172 0 8 0H123C127.418 0 131 3.58172 131 8V123C131 127.418 127.418 131 123 131H8C3.58172 131 0 127.418 0 123V8Z" fill="white"/>
</clipPath>
</defs>
</svg>
