<svg width="131" height="131" viewBox="0 0 131 131" fill="none" xmlns="http://www.w3.org/2000/svg">
<g clip-path="url(#clip0_3381_184517)">
<path d="M131 -0.454834H0V131.455H131V-0.454834Z" fill="#FFC7BC"/>
<path d="M94.0022 50.6088C96.0919 54.361 93.0233 60.7313 90.1878 63.3182C89.9781 63.5046 88.9371 64.2271 88.6496 64.398C87.0726 65.3535 85.3791 65.6021 83.5845 65.843C83.6778 69.0747 83.7166 72.3142 83.8331 75.5459C83.9264 78.2416 83.8953 81.046 84.1516 83.7262C84.3692 85.948 85.0217 90.345 87.4844 91.114C86.3191 93.3359 84.5401 95.4334 82.8776 97.3056C82.6834 97.5231 82.5902 97.7484 82.5591 97.7795C82.5125 97.8338 82.4503 97.8805 82.4037 97.9348C82.3571 97.9892 82.295 98.0358 82.2484 98.0902C79.0399 101.563 75.3654 105.338 71.5355 108.112C67.659 110.916 63.5572 113.744 58.8495 115.212C58.3601 115.165 55.8819 112.726 55.3303 112.229C55.1594 112.074 54.8798 112.004 54.7788 111.91L54.6234 111.755C54.569 111.701 54.5224 111.646 54.468 111.6L54.3127 111.444C53.0541 110.232 51.648 108.718 50.5061 107.389C48.9834 105.626 45.6818 102.402 44.5476 100.623C44.4854 100.11 46.0469 101.167 46.3421 101.221C57.187 103.342 67.5813 96.1947 73.501 87.6648C79.0011 79.7409 80.7723 70.2322 82.0852 60.8322C82.6523 56.7693 82.3493 47.2917 88.3777 47.2761C90.2655 47.2761 93.1088 48.9774 94.0177 50.6088H94.0022Z" fill="#B86749"/>
<path d="M32.6928 37.2703C32.9258 36.5401 33.2132 35.8176 33.3375 35.0641L33.7182 35.0408C47.0801 38.9017 61.0557 41.209 75.0313 40.774C75.5674 40.7584 76.3675 40.3156 76.6627 40.875C76.7948 41.1235 77.2143 43.2832 77.292 43.7415C77.4784 44.8524 77.5406 46.0022 77.6493 47.1209H70.1838C70.0206 45.5827 68.7233 44.464 67.5036 43.6794C62.7648 40.6497 54.701 40.5564 51.1897 45.5283C49.0455 43.9979 46.6684 43.8037 44.3844 45.2098C41.6887 41.1158 36.0643 39.8961 31.5818 41.5586C31.8693 40.1136 32.2499 38.6765 32.6928 37.2703Z" fill="#B86749"/>
<path d="M31.5042 59.2472C33.6094 60.327 36.6547 60.6455 38.8532 59.8687L41.1138 58.7112C40.6633 60.4669 40.974 62.6343 42.7452 63.5121C43.0171 63.6442 43.4755 63.5121 43.491 63.7918C40.0573 64.39 36.9887 66.5263 35.4583 69.6804C35.0466 69.7114 33.5317 68.1189 33.2909 67.7149C32.6151 66.5963 32.3742 65.0348 32.0557 63.7918C31.8071 61.7487 31.6518 60.8786 31.5042 59.2394V59.2472Z" fill="#B86749"/>
<path d="M91.4619 18.2061C96.3327 24.8016 96.7678 32.6245 95.7268 40.5018C95.6491 41.1 95.618 41.8768 95.2762 42.3507C96.1618 34.2248 96.5813 26.1533 91.8037 19.0451L91.4619 18.2061Z" fill="#5C5C5C"/>
<path d="M68.1095 6.29673C62.9978 5.6364 57.7773 5.55872 52.7277 6.724L47.616 8.36316C53.357 5.43442 60.1079 5.18583 66.4237 5.83062C66.8043 5.86946 67.7676 6.06367 68.1017 6.29673H68.1095Z" fill="#5C5C5C"/>
<path d="M33.4851 97.6316C31.877 98.8823 29.7251 99.4883 27.9694 100.444C27.7597 100.56 27.4722 101.221 27.1304 100.809C29.1969 99.6126 31.2555 98.5017 33.4851 97.6316Z" fill="#161A1E"/>
<path d="M77.1677 8.51855C80.7879 9.78483 84.377 11.4784 87.3368 13.9177C87.2591 14.244 86.9639 13.8555 86.8784 13.7934C83.6389 11.3929 81.3472 10.4452 77.6339 8.92252C77.393 8.82153 77.0745 8.93806 77.1677 8.51855Z" fill="#5C5C5C"/>
<path d="M117.199 105.097H116.88L117.036 104.942C117.09 104.988 117.137 105.05 117.191 105.097H117.199Z" fill="#161A1E"/>
<path d="M40.9507 13.4438C41.0517 13.335 41.1682 13.234 41.2692 13.1252C41.2847 13.335 41.1993 13.4748 41.0284 13.5991L40.9507 13.4438Z" fill="#5C5C5C"/>
<path d="M88.7662 15.1922C88.7118 15.1612 88.5486 15.2155 88.4476 15.1922C88.4166 15.0136 88.6108 15.0446 88.603 15.0369L88.7584 15.1922H88.7662Z" fill="#5C5C5C"/>
<path d="M89.877 16.3029C89.6983 16.7068 89.6051 16.0543 89.5585 15.9844C89.6672 16.0854 89.7605 16.2019 89.877 16.3029Z" fill="#5C5C5C"/>
<path d="M19.9834 106.208C20.0378 106.154 20.0922 106.107 20.1388 106.053L19.9834 106.208Z" fill="#161A1E"/>
<path d="M117.991 105.89L117.673 105.571C117.782 105.68 117.883 105.773 117.991 105.89Z" fill="#161A1E"/>
<path d="M20.302 105.89L20.939 105.253C20.737 105.447 20.504 105.688 20.302 105.89Z" fill="#161A1E"/>
<path d="M41.7431 12.6517C41.9684 12.4264 42.1393 12.2399 42.3801 12.0146L41.7431 12.6517Z" fill="#161A1E"/>
<path d="M82.8853 97.313C82.9164 97.6548 82.963 97.8723 82.5668 97.7869C82.5978 97.7558 82.6911 97.5305 82.8853 97.313Z" fill="#161A1E"/>
<path d="M54.4524 111.608C54.3981 111.553 54.3437 111.499 54.2971 111.452L54.4524 111.608Z" fill="#161A1E"/>
<path d="M54.771 111.926C54.7166 111.872 54.67 111.817 54.6156 111.771L54.771 111.926Z" fill="#161A1E"/>
<path d="M82.2484 98.1058C82.3027 98.0514 82.3571 98.0048 82.4037 97.9504L82.2484 98.1058Z" fill="#161A1E"/>
<path d="M70.3469 48.395L75.6528 48.8688L77.8047 48.7057C77.828 52.4579 77.3541 56.249 76.1034 59.7914C73.9515 65.882 68.6068 71.3588 61.9414 72.0424C60.9625 68.0649 57.2336 65.4547 53.4659 64.3982C52.9376 64.2506 50.708 63.9087 50.5837 63.8233C50.3041 63.6213 50.4905 62.8134 49.4107 62.4172C47.3909 61.6792 45.1302 63.1785 43.1958 62.2774C41.9917 61.718 42.1082 60.3274 42.2636 59.1622C42.4501 57.7794 43.3901 56.6374 43.8872 55.3867C44.8195 53.0561 45.1458 49.9254 45.4021 47.5093C45.472 46.849 44.9593 46.515 45.9226 45.9789C47.1656 45.2875 49.5894 45.7148 50.3973 46.9733C50.8556 47.6958 50.3662 48.193 50.3274 48.9543C49.9467 56.2645 53.4659 62.2074 61.5063 61.3995C68.1717 60.7314 69.9973 54.066 70.3469 48.4027V48.395Z" fill="#B86749"/>
<path d="M53.3881 45.1012C53.6289 44.907 55.4701 44.7594 55.9673 44.7361C59.0747 44.5729 62.3142 45.008 65.4138 45.2099C65.1808 44.8759 65.0099 44.6273 64.9011 44.2156C64.8623 44.068 64.6214 43.8271 65.0176 43.9437C67.5813 44.6817 68.8631 46.6627 68.7543 49.2651C68.4746 55.6509 65.3594 61.2287 58.1036 59.7604C52.9608 58.7195 51.2751 53.5301 51.9354 48.8146C52.0752 47.7891 52.5569 45.7771 53.3881 45.109V45.1012ZM57.9016 47.9367C55.8041 48.364 55.8973 53.7398 58.3211 53.5767C60.7449 53.4135 60.6828 47.3696 57.9016 47.9367Z" fill="#B86749"/>
<path d="M31.442 57.1496C30.9992 53.7003 30.5331 50.4764 30.7817 46.9572C30.805 46.631 31.0458 45.9318 31.1002 45.5278C31.2012 44.7743 31.2555 44.5956 31.4187 43.943C33.7259 43.8964 36.0099 43.9586 38.3094 44.1217C39.2494 44.5257 42.0383 44.3703 42.6132 45.0617C44.1591 46.9029 43.3978 51.1523 42.7763 53.3197C41.7042 57.0486 39.3038 59.0529 35.3107 59.0373C33.3608 59.0373 32.5995 58.5324 31.442 57.1573V57.1496ZM37.4082 47.3068C35.6448 47.703 35.5205 52.0922 37.1286 52.605C40.1272 53.5605 40.5545 46.5999 37.4082 47.3068Z" fill="#B86749"/>
<path d="M44.097 69.5564C46.5596 69.3078 52.5724 69.9215 54.7709 71.0169C55.6566 71.4597 56.7053 73.4096 56.4878 74.3108C56.3402 74.9089 55.0895 75.8955 54.5379 76.183C52.9919 76.9909 51.6868 76.9987 50.1797 76.0898C49.9311 75.9422 49.768 75.5926 49.5272 75.4683C48.929 75.1731 46.1867 75.1032 45.5186 75.2585C45.1146 75.3517 44.9049 75.7246 44.5631 75.8955C43.4444 76.4316 42.1082 76.1908 41.1915 75.3906C40.9895 75.2119 40.2515 74.3574 40.1971 74.1632C40.0884 73.7747 40.1117 71.6462 40.236 71.25C40.5623 70.2167 43.1259 69.6574 44.1047 69.5564H44.097ZM53.4969 71.7394C49.7913 72.0423 46.0779 71.8792 42.3801 71.584C42.6132 72.0579 42.7841 72.5939 43.3279 72.7804C45.8604 73.0056 49.131 73.5106 51.6324 73.1299C52.4481 73.0056 53.1939 72.524 53.4969 71.7471V71.7394Z" fill="#B86749"/>
<path d="M57.9017 47.9367C60.6751 47.3696 60.7217 53.4135 58.3212 53.5767C55.9207 53.7398 55.8042 48.364 57.9017 47.9367Z" fill="black"/>
<path d="M37.4082 47.3074C40.5545 46.6004 40.1194 53.561 37.1285 52.6055C35.5205 52.0928 35.6448 47.7036 37.4082 47.3074Z" fill="black"/>
<path d="M53.4969 71.7393C53.1862 72.5239 52.4482 72.9978 51.6325 73.1221C49.131 73.5028 45.8604 72.9978 43.3279 72.7725C42.7841 72.5861 42.6132 72.0501 42.3801 71.5762C46.078 71.8714 49.7913 72.0423 53.4969 71.7315V71.7393Z" fill="#161A1E"/>
<path d="M131.33 152.905C131.33 152.905 128.961 109.704 113.385 102.27C97.8087 94.8351 96.7522 94.2447 87.4843 91.114C87.4843 91.114 73.866 110.178 58.8417 115.228C58.8417 115.228 45.0214 102.938 40.1117 94.47C40.1117 94.47 20.8224 101.71 16.7672 110.566C12.51 119.881 7.3595 143.979 6 152.905H131.322H131.33Z" fill="#30363B"/>
<path d="M76.2589 142.418L58.4689 122.406L40.9197 142.736L76.2589 142.418Z" fill="#606060"/>
<path d="M58.0726 142.736L64.3806 129.056L76.2587 142.418L58.0726 142.736Z" fill="#161A1E"/>
<path d="M51.3995 130.594L61.452 135.402L58.0727 142.736H40.9197L51.3995 130.594Z" fill="#64696C"/>
<path d="M36.8178 19.4802L34.1221 26.3087C35.5282 26.2311 36.9188 26.1767 38.3249 26.1534C53.6522 25.9048 63.9689 34.4579 77.1676 39.8882C79.9488 41.0301 83.2193 42.0944 86.0937 43.0344C88.9681 43.9744 91.8502 44.8911 94.7945 45.5281C94.577 47.2294 94.6469 48.9851 94.0021 50.6088C93.0932 48.9696 90.2499 47.2683 88.3621 47.276C82.3337 47.2916 82.6367 56.7692 82.0696 60.8322C80.7567 70.2321 78.9777 79.7408 73.4853 87.6647C67.5657 96.1946 57.1714 103.342 46.3265 101.221C46.0313 101.166 43.7007 100.397 42.5898 99.8691C40.6943 98.968 37.1985 95.9538 37.1363 95.6353C33.8191 92.2093 31.9702 87.253 31.2866 82.5841C30.3699 76.3071 31.5507 70.0457 32.0557 63.7842C32.3742 65.035 32.615 66.5887 33.2909 67.7073C33.5317 68.1113 35.0466 69.6961 35.4583 69.6728C36.9887 66.5187 40.0573 64.3824 43.491 63.7842C43.4754 63.5123 43.0171 63.6366 42.7452 63.5045C40.974 62.6267 40.6555 60.4593 41.1138 58.7036L38.8532 59.8611C36.6547 60.6302 34.3241 60.7389 32.2188 59.6591C29.1192 58.0666 27.5421 54.1745 27.2936 50.8418C27.2236 49.894 27.4955 47.7422 27.3013 47.0508C27.2547 46.8876 26.8274 46.9498 26.641 46.7322C26.4157 46.4759 26.4002 44.6503 26.641 44.4794C26.9517 44.2619 27.4256 44.5804 27.6121 44.4871C27.7053 44.4405 28.6608 43.2131 29.0415 42.9101C29.7329 42.3663 30.7506 41.8536 31.5663 41.5429C36.0409 39.8804 41.6731 41.1001 44.3688 45.1941C46.6528 43.788 49.03 43.9822 51.1741 45.5126C54.6855 40.5407 62.7492 40.6339 67.488 43.6637C68.7077 44.4405 70.005 45.567 70.1682 47.1051H77.6338C77.525 45.9865 77.4628 44.8367 77.2764 43.7258C77.1987 43.2675 76.7792 41.1078 76.6471 40.8592C76.3519 40.2921 75.5518 40.7427 75.0157 40.7582C61.0401 41.1933 47.0645 38.886 33.7026 35.025L33.3219 35.0484C33.1899 35.8097 32.9024 36.5321 32.6772 37.2546C28.1481 37.2702 23.6113 37.1614 19.1133 36.6021C17.1401 36.3535 11.0262 35.5145 9.98523 33.8209C8.94424 32.1274 10.7155 30.0842 12.1371 29.1909C16.9458 26.1534 27.3091 26.0834 32.9258 26.2932C33.2287 26.301 33.5006 26.4097 33.7881 26.4641C34.5805 24.0636 35.6292 21.7098 36.81 19.4724L36.8178 19.4802ZM31.4187 43.9433C31.4187 43.9433 31.3177 43.4695 31.4187 43.3063C31.1079 42.9723 29.2745 44.6813 29.1968 45.2873C29.1502 45.6136 29.2202 45.4971 29.4299 45.5281C29.9426 45.598 30.5719 45.4815 31.1001 45.5281C31.0458 45.9321 30.8049 46.639 30.7816 46.9575L28.7152 46.7944C28.5443 50.9117 28.4821 54.2444 31.574 57.2819C32.8248 58.5094 33.353 59.0221 35.3107 59.0299C39.3037 59.0454 41.7042 57.0333 42.7763 53.3122C43.3978 51.1448 44.1591 46.8954 42.6131 45.0542C42.0383 44.3706 39.2494 44.5182 38.3094 44.1142C36.0099 43.9511 33.7259 43.889 31.4187 43.9356V43.9433ZM53.3881 45.1009C52.5569 45.7612 52.0752 47.781 51.9354 48.8065C51.2751 53.522 52.9608 58.7113 58.1036 59.7523C65.3594 61.2284 68.4746 55.6428 68.7543 49.257C68.8708 46.6546 67.5812 44.6814 65.0176 43.9356C64.6214 43.819 64.8623 44.0599 64.9011 44.2075C65.0099 44.6114 65.1808 44.8678 65.4138 45.2018C62.3142 44.9999 59.0747 44.5648 55.9673 44.728C55.4779 44.7513 53.6367 44.8989 53.3881 45.0931V45.1009ZM70.3469 48.3947C69.9973 54.058 68.1717 60.7234 61.5062 61.3915C53.4736 62.1994 49.9544 56.2487 50.3273 48.9463C50.3661 48.1927 50.8556 47.6878 50.3972 46.9653C49.5971 45.7068 47.1733 45.2795 45.9225 45.9709C44.9515 46.507 45.472 46.8332 45.402 47.5013C45.1457 49.9174 44.8272 53.0403 43.8872 55.3786C43.39 56.6294 42.45 57.7791 42.2635 59.1542C42.1082 60.3194 41.9839 61.71 43.1958 62.2693C45.1301 63.1705 47.3908 61.6712 49.4106 62.4092C50.4982 62.8054 50.3118 63.6133 50.5837 63.8153C50.7002 63.9007 52.9298 64.2426 53.4658 64.3902C57.2335 65.4545 60.9624 68.0569 61.9413 72.0344C68.5989 71.3585 73.9515 65.8817 76.1033 59.7834C77.3541 56.241 77.8357 52.4577 77.8047 48.6977L75.6528 48.8608L70.3469 48.387V48.3947ZM44.0969 69.5562C43.1259 69.6572 40.5545 70.2166 40.2282 71.2498C40.1039 71.646 40.0806 73.7746 40.1893 74.163C40.2437 74.365 40.9817 75.2117 41.1837 75.3904C42.1082 76.1906 43.4366 76.4314 44.5553 75.8954C44.8971 75.7322 45.0991 75.3516 45.5108 75.2584C46.1789 75.103 48.9212 75.1807 49.5194 75.4681C49.7602 75.5846 49.9233 75.9342 50.1719 76.0896C51.6868 76.9985 52.9841 76.9907 54.5301 76.1828C55.0817 75.8954 56.3324 74.9088 56.48 74.3106C56.6975 73.4094 55.6488 71.4518 54.7631 71.0167C52.5646 69.9214 46.544 69.3077 44.0892 69.5562H44.0969Z" fill="black"/>
<path d="M68.1095 6.2967C68.428 6.33554 68.7388 6.40546 69.065 6.45207C71.8928 6.87157 74.3244 7.58628 77.0045 8.5185C77.0511 8.53404 77.1133 8.50296 77.1599 8.5185C77.0667 8.938 77.3774 8.82147 77.626 8.92246C81.3394 10.4529 83.6311 11.4006 86.8706 13.7933C86.956 13.8555 87.2512 14.2517 87.3289 13.9176C87.593 14.1352 88.5563 14.7955 88.603 15.0285C88.603 15.0363 88.4165 15.0052 88.4476 15.1839C88.5408 15.2072 88.7039 15.1528 88.7661 15.1839C89.1079 15.3626 89.3487 15.6656 89.5585 15.9763C89.6051 16.0462 89.6983 16.6988 89.877 16.2948C90.514 16.8464 90.9724 17.53 91.4618 18.1981L91.8036 19.0371C96.5812 26.1453 96.154 34.2169 95.2761 42.3428C95.1518 43.4614 94.9343 44.4636 94.8023 45.5201C91.858 44.8831 88.9603 43.9586 86.1015 43.0264C83.2427 42.0942 79.9566 41.0299 77.1754 39.8801C63.9844 34.4421 53.66 25.8967 38.3327 26.1453C36.9188 26.1686 35.5282 26.223 34.1299 26.3007L36.8256 19.4722C37.9209 17.3902 39.397 15.1995 40.9584 13.436L41.0361 13.5914C41.1993 13.4748 41.2925 13.3272 41.2769 13.1175C41.4401 12.9388 41.5877 12.8067 41.7508 12.6436L42.3879 12.0066C44.1746 10.3441 45.5419 9.41965 47.6316 8.35536L52.7433 6.7162C57.7851 5.55868 63.0134 5.6286 68.1251 6.28893L68.1095 6.2967Z" fill="#5C5C5C"/>
<path d="M77.0045 8.51872C74.3244 7.58649 71.8928 6.87178 69.0651 6.45228C69.8497 6.57658 70.2847 5.93956 71.0616 5.8308C73.1436 5.54336 76.2044 6.40567 77.0045 8.51872Z" fill="black"/>
<path d="M105.748 152.905C105.5 152.905 105.29 152.711 105.274 152.462C105.266 152.291 104.171 135.379 104.373 123.773C104.373 123.509 104.591 123.299 104.855 123.307C105.119 123.307 105.329 123.532 105.321 123.788C105.127 135.356 106.206 152.229 106.222 152.4C106.238 152.664 106.043 152.889 105.779 152.905C105.771 152.905 105.756 152.905 105.748 152.905Z" fill="black"/>
<path d="M27.6199 152.905C27.6199 152.905 27.6044 152.905 27.5966 152.905C27.3325 152.889 27.1305 152.664 27.146 152.4C27.1538 152.213 28.1715 133.515 30.0592 122.693C30.1059 122.437 30.3545 122.258 30.6108 122.305C30.8672 122.351 31.0459 122.6 30.9992 122.856C29.1193 133.623 28.1093 152.26 28.1016 152.446C28.086 152.703 27.8763 152.897 27.6277 152.897L27.6199 152.905Z" fill="black"/>
</g>
<defs>
<clipPath id="clip0_3381_184517">
<rect width="131" height="131" rx="8" fill="white"/>
</clipPath>
</defs>
</svg>
