<svg width="131" height="132" viewBox="0 0 131 132" fill="none" xmlns="http://www.w3.org/2000/svg">
<g clip-path="url(#clip0_3381_186046)">
<path d="M0 0.045166H131V131.955H0V0.045166Z" fill="#FEE8EA"/>
<path d="M8.4668 146.85H35.2567C35.4039 144.09 35.4848 141.323 35.6247 138.563C35.713 136.767 35.9264 134.898 35.9927 133.102C36.1399 129.01 35.8087 124.359 36.1693 120.34C36.2282 119.7 36.6992 119.008 37.185 119.693C37.3616 119.943 37.288 125.006 37.2733 125.816C37.1776 131.019 36.8391 136.282 36.5373 141.485C36.4343 143.266 36.449 145.077 36.3533 146.858H105.779C105.742 145.614 105.83 144.355 105.786 143.112C105.536 136.031 104.888 128.782 103.357 121.849C103.225 121.245 102.18 118.971 103.159 118.802C103.615 118.721 103.954 119.715 104.057 120.061C104.69 122.202 105.22 125.235 105.573 127.472C106.581 133.868 106.772 140.403 106.868 146.858H122C120.631 138.423 119.225 129.93 117.025 121.672C114.456 112.024 112.3 105.65 103.166 100.542C97.2267 97.2229 90.6544 95.1768 84.2734 92.9174C85.2669 99.3131 77.1785 102.051 72.159 102.397C63.2978 103.015 50.7345 100.042 47.4593 90.7241C38.105 95.4418 22.8995 98.6875 16.9527 107.873C13.5598 113.113 12.3602 121.518 11.2488 127.678C10.1375 133.838 9.18072 140.447 8.45945 146.85H8.4668Z" fill="#002F2F"/>
<path d="M105.779 146.85H106.875C106.772 140.396 106.588 133.86 105.58 127.465C105.227 125.227 104.69 122.202 104.064 120.053C103.961 119.707 103.622 118.714 103.166 118.795C102.187 118.964 103.232 121.246 103.365 121.842C104.896 128.775 105.543 136.017 105.794 143.104C105.838 144.348 105.749 145.607 105.786 146.85H105.779Z" fill="#010101"/>
<path d="M36.3533 146.851C36.449 145.07 36.4343 143.259 36.5373 141.478C36.8391 136.282 37.1776 131.012 37.2733 125.809C37.288 124.999 37.3616 119.936 37.185 119.685C36.6992 118.994 36.2282 119.685 36.1693 120.333C35.8087 124.352 36.1473 129.003 35.9927 133.095C35.9265 134.891 35.713 136.76 35.6247 138.556C35.4922 141.316 35.4039 144.083 35.2567 146.843H36.3533V146.851Z" fill="#010101"/>
<path d="M97.2121 61.5717C97.5359 56.7436 97.5727 51.8199 96.822 47.0213C88.3066 44.6587 80.0341 40.8979 73.3367 35.0615C72.9981 34.7671 71.3201 32.7726 70.9742 33.1479C70.5988 37.6595 68.5454 42.5833 65.3291 45.8216C62.3558 48.8171 56.7034 50.3185 58.1533 55.5293C58.9261 58.2892 60.8323 61.1448 59.3824 64.1182C58.6243 65.6711 56.5267 67.0769 56.0704 68.6445C55.2167 71.5738 58.4182 72.1993 58.7347 74.9887C59.088 78.1387 55.5847 79.5445 56.8432 82.3486C57.1597 83.0551 58.7936 83.8942 58.1386 84.3578C57.0567 85.1232 55.0916 82.6871 54.7162 81.7451C53.5607 78.8306 56.3722 77.9474 55.9895 75.7394C55.6068 73.5315 52.523 72.4864 52.2212 70.0282C51.7208 65.8919 54.9812 64.8321 55.0474 61.6379C55.0695 60.4824 54.6132 59.1871 54.1863 58.1273C53.5828 57.8844 51.5809 59.4153 51.3012 59.2018C50.1457 54.9993 44.2873 52.2173 41.1741 56.1033C39.6064 58.061 39.8346 60.0777 40.4087 62.3371C40.497 62.6757 40.7693 62.9112 40.1731 62.845C40.9238 64.3022 41.7702 65.8551 42.7564 67.2756C43.0361 67.6804 43.2937 68.1956 43.8163 68.3133C43.8825 65.5166 47.2312 64.1624 49.2184 66.1937C50.2929 67.2903 50.2046 68.9904 49.6453 70.3226C50.1163 70.2195 50.7787 70.4845 51.2865 70.1386C51.3748 71.3456 51.7576 72.6925 51.8312 73.8774C51.8753 74.6355 51.6545 75.2242 51.6545 75.791C51.6324 80.0376 51.9268 88.4793 47.4668 90.7315C50.7419 100.049 63.3052 103.022 72.1664 102.404C77.1859 102.051 85.2744 99.3131 84.2808 92.9247C81.7637 92.0342 81.7269 91.5705 81.7269 88.9136C76.1702 89.966 70.2455 88.5456 65.3218 85.9108C64.9023 85.69 63.5701 85.0202 63.3346 84.8068C62.7385 84.2621 62.9519 83.3642 63.732 83.4746C64.1589 83.5335 66.8158 85.1453 67.5739 85.4839C72.3872 87.6182 76.5529 88.0378 81.7269 87.8243C82.7205 87.7802 85.3406 86.4627 86.2679 85.896C91.8541 82.5031 94.7097 76.1148 96.1228 69.9619L96.3068 69.7779C96.3215 69.7191 96.2921 69.6528 96.3068 69.594C96.5791 68.2765 96.6895 66.915 96.8514 65.5828C97.0133 64.2507 97.1237 62.9112 97.2194 61.5717H97.2121ZM71.1949 48.8686C72.034 48.9569 75.4931 49.7886 74.345 51.0103C73.7562 51.6359 72.0413 50.5466 71.0551 50.4583C70.5105 50.4068 69.826 50.4289 69.2814 50.5025C68.4571 50.6129 66.9336 51.5402 66.411 51.2826C65.8885 51.025 65.9621 50.4951 66.308 50.0756C67.1397 49.0673 69.9585 48.7361 71.1949 48.8686ZM86.1428 51.1354C85.0241 50.0167 87.9166 49.082 88.7409 48.9937C89.8522 48.8833 93.7897 49.0011 93.9443 50.5466C94.0988 52.0922 92.2589 50.9146 91.7142 50.7601C90.1171 50.3038 89.4327 50.451 87.8797 50.8631C87.3498 51.0029 86.6948 51.68 86.1428 51.1354ZM88.3434 55.0729C90.6691 52.8208 92.9065 57.8329 90.7427 59.7538C88.3949 61.8367 86.29 57.0675 88.3434 55.0729ZM70.8417 54.4989C73.5059 55.0582 73.0717 60.6885 70.1572 60.1144C67.9345 59.6729 68.1332 53.9322 70.8417 54.4989ZM83.0664 55.934C83.3755 56.0224 84.612 60.1145 84.9137 60.8431C85.8558 63.0952 88.5201 66.2084 85.1272 67.9895C84.2734 68.4385 80.6597 68.8874 80.1593 68.1441C79.2319 66.7604 81.9992 67.4302 82.5291 67.4081C83.7435 67.3566 85.6424 66.7457 85.6792 65.2811C85.6865 64.9131 83.9349 61.6011 83.6331 60.8431C83.2357 59.8421 82.4261 57.8623 82.2936 56.8761C82.2274 56.3756 82.5144 55.7795 83.059 55.934H83.0664ZM72.1223 71.0733C72.2916 71.1248 73.7047 72.4054 74.161 72.6851C76.7516 74.2895 80.1372 74.7679 83.0811 73.9436C83.7067 73.767 85.5172 72.5453 85.3774 73.8553C85.2523 75.055 80.9836 75.6143 79.99 75.607C78.047 75.5922 74.9926 74.7385 73.3514 73.664C73.0055 73.4358 71.4525 72.1257 71.3642 71.8166C71.1949 71.2426 71.5261 70.8893 72.1149 71.0659L72.1223 71.0733Z" fill="#9C5638"/>
<path d="M40.1806 62.8451C40.7694 62.9113 40.5044 62.6758 40.4161 62.3372C39.842 60.0777 39.6139 58.0611 41.1815 56.1034C44.2874 52.2101 50.1458 54.9994 51.3087 59.2019C51.5884 59.4154 53.5976 57.8771 54.1938 58.1274C54.6133 59.1872 55.077 60.4825 55.0549 61.638C54.9886 64.8322 51.7282 65.892 52.2287 70.0283C52.5231 72.4865 55.6289 73.6346 55.9969 75.7395C56.3797 77.9475 53.5755 78.8307 54.7237 81.7452C55.099 82.6872 57.0641 85.1234 58.146 84.3579C58.801 83.8942 57.1745 83.0552 56.8507 82.3487C55.5995 79.5446 59.0954 78.1315 58.7422 74.9888C58.4331 72.1994 55.2315 71.5665 56.0779 68.6446C56.5342 67.077 58.6318 65.6786 59.3898 64.1183C60.8324 61.1449 58.9262 58.2893 58.1607 55.5294C56.7035 50.3186 62.3632 48.8172 65.3366 45.8217C68.5455 42.5834 70.5989 37.667 70.9816 33.148C71.3349 32.7727 73.0056 34.7672 73.3441 35.0616C80.0342 40.8979 88.3141 44.6588 96.8294 47.0214C97.5801 51.82 97.5433 56.7437 97.2195 61.5718C104.425 54.6903 103.91 44.1731 100.406 35.5179C97.8893 29.2988 93.9223 24.1469 88.2478 20.5259C81.5725 16.2719 73.7857 15.9554 66.0726 16.5515C64.0854 5.15111 47.327 3.41418 41.682 12.8642C39.3784 16.7134 39.1355 22.5719 41.8586 26.2813C42.3665 26.9657 43.0804 27.4736 43.6177 28.136C38.9294 33.5381 36.2504 40.6256 36.3535 47.8236C36.4344 53.4539 37.6488 57.9066 40.188 62.8451H40.1806Z" fill="#010101"/>
<path d="M43.8236 68.3134C43.7795 70.1092 44.9055 71.537 46.7381 71.5959C48.5707 71.6548 48.9387 70.4772 49.6526 70.3227C50.212 68.9979 50.3003 67.2978 49.2258 66.1938C47.2386 64.1625 43.8899 65.5167 43.8236 68.3134Z" fill="#FCB20C"/>
<path d="M81.7271 88.9064C81.7271 88.5384 81.7271 88.1777 81.7271 87.8097C76.5531 88.0232 72.3874 87.611 67.574 85.4693C66.816 85.1307 64.1591 83.5189 63.7322 83.4601C62.9447 83.3497 62.7312 84.2402 63.3348 84.7922C63.5703 85.0056 64.9098 85.6754 65.3219 85.8962C70.2457 88.531 76.1704 89.9514 81.7271 88.899V88.9064Z" fill="#010101"/>
<path d="M49.6528 70.3154C48.9389 70.4773 48.6518 71.6475 46.7383 71.5886C47.305 72.5969 48.5488 73.6715 49.4688 74.4148C50.0723 74.9006 50.8966 75.6513 51.6547 75.7764C51.6547 75.2097 51.8828 74.6283 51.8313 73.8628C51.7577 72.6779 51.375 71.331 51.2867 70.124C50.7788 70.4699 50.1164 70.205 49.6454 70.308L49.6528 70.3154Z" fill="#010101"/>
<path d="M96.3068 69.5868C97.8744 69.0569 98.029 66.5987 96.8514 65.5757C96.6895 66.9078 96.5791 68.2694 96.3068 69.5868Z" fill="#FCB20C"/>
<path d="M96.1226 69.9547C96.1226 69.9547 96.2772 69.9032 96.3066 69.7708L96.1226 69.9547Z" fill="#FCB20C"/>
<path d="M83.0663 55.9343C82.5217 55.7797 82.2346 56.3759 82.3009 56.8764C82.4334 57.8626 83.2356 59.8424 83.6404 60.8433C83.9421 61.594 85.6938 64.9133 85.6864 65.2813C85.6423 66.7533 83.7508 67.3642 82.5364 67.4083C82.0065 67.4304 79.2392 66.7607 80.1665 68.1443C80.667 68.8877 84.2807 68.4387 85.1344 67.9898C88.5273 66.2087 85.8557 63.0955 84.921 60.8433C84.6192 60.1147 83.3828 56.03 83.0737 55.9343H83.0663Z" fill="#010101"/>
<path d="M88.3434 55.0729C86.29 57.0601 88.4023 61.8293 90.7428 59.7538C92.9065 57.8402 90.6618 52.8208 88.3434 55.0729Z" fill="#010101"/>
<path d="M72.1224 71.0734C71.5337 70.9041 71.2025 71.25 71.3717 71.8241C71.4601 72.1332 73.013 73.4432 73.3589 73.6714C75.0001 74.7386 78.0471 75.5997 79.9975 75.6144C80.9911 75.6144 85.2598 75.0624 85.3849 73.8627C85.5247 72.5527 83.7142 73.7744 83.0886 73.9511C80.1447 74.7754 76.7592 74.2896 74.1685 72.6925C73.7195 72.4129 72.2991 71.1249 72.1298 71.0807L72.1224 71.0734Z" fill="#010101"/>
<path d="M70.8416 54.499C68.1406 53.9249 67.9345 59.673 70.1572 60.1146C73.0717 60.6886 73.4985 55.0657 70.8416 54.499Z" fill="#010101"/>
<path d="M71.195 48.8688C69.9659 48.7437 67.1397 49.0675 66.3081 50.0758C65.9695 50.488 65.9033 51.0252 66.4111 51.2828C66.9189 51.5404 68.4571 50.6205 69.2814 50.5027C69.8261 50.4291 70.5105 50.407 71.0552 50.4585C72.0414 50.5469 73.7562 51.6361 74.345 51.0105C75.4932 49.7814 72.034 48.9498 71.195 48.8688Z" fill="#010101"/>
<path d="M86.1427 51.1355C86.6947 51.6875 87.3424 51.0104 87.8797 50.8632C89.4326 50.4511 90.1097 50.3039 91.7141 50.7602C92.2588 50.9147 94.0987 52.0702 93.9442 50.5467C93.7896 49.0233 89.8595 48.8761 88.7408 48.9938C87.9165 49.0748 85.024 50.0168 86.1427 51.1355Z" fill="#010101"/>
</g>
<defs>
<clipPath id="clip0_3381_186046">
<rect width="131" height="131" rx="8" transform="matrix(-1 0 0 1 131 0.5)" fill="white"/>
</clipPath>
</defs>
</svg>
