<svg width="131" height="131" viewBox="0 0 131 131" fill="none" xmlns="http://www.w3.org/2000/svg">
<g clip-path="url(#clip0_3381_184920)">
<rect width="131" height="131" rx="8" transform="matrix(-1 0 0 1 131 0)" fill="#D4FFDC"/>
<path d="M5.46 149.06H31.7886L31.6447 136.107C31.2887 131.237 31.2509 126.261 29.9708 121.512C29.8041 120.906 28.7892 118.489 29.0391 118.133C29.5315 117.444 29.8799 118.467 30.0162 118.807C31.7508 123.223 31.9629 128.177 32.387 132.858C32.4703 138.251 32.6976 143.659 32.6748 149.06H106.2L105.753 141C105.215 135.221 104.601 129.457 103.639 123.738C103.359 122.064 102.587 119.603 102.503 118.065C102.458 117.24 103.041 116.884 103.367 117.512C103.549 117.861 103.829 119.633 103.942 120.186C105.889 129.601 106.631 139.463 107.093 149.06H121C119.591 139.955 118.023 130.525 115.274 121.724C112.577 113.127 109.767 107.378 101.723 102.727C97.0876 100.046 92.2703 98.705 87.2712 96.9856C86.8849 101.939 83.1128 105.522 78.6894 107.264C70.4333 110.514 58.2839 108.627 50.8913 103.848C47.0132 101.348 43.3851 97.3719 41.855 92.9863C32.1295 97.3416 19.8438 99.167 13.5419 108.824C7.80049 117.626 6.39923 134.941 5.61907 145.424C5.52818 146.621 5.65694 147.848 5.46758 149.045L5.46 149.06Z" fill="#0F724A"/>
<path d="M106.2 149.06H107.086C106.624 139.455 105.881 129.601 103.935 120.186C103.821 119.633 103.533 117.861 103.359 117.512C103.041 116.891 102.45 117.24 102.496 118.065C102.587 119.603 103.352 122.065 103.632 123.738C104.594 129.457 105.207 135.229 105.745 141.001L106.192 149.06H106.2Z" fill="#0D0C0C"/>
<path d="M31.7962 149.06H32.6824C32.6976 143.652 32.4779 138.244 32.3946 132.858C31.9704 128.177 31.7583 123.223 30.0238 118.808C29.895 118.474 29.5466 117.444 29.0467 118.133C28.7892 118.489 29.8117 120.906 29.9784 121.512C31.2584 126.261 31.2963 131.237 31.6523 136.108L31.7962 149.06Z" fill="#0D0C0C"/>
<path d="M97.1785 48.7673C96.8982 45.6239 96.6558 42.632 95.8075 39.5644C94.8759 36.2165 93.2928 32.399 90.5281 30.1873C87.915 30.4448 85.3245 30.9977 82.7114 31.2628C80.6284 31.4749 77.7047 31.74 75.6596 31.6037C70.5999 31.2628 66.5097 30.2403 61.1546 30.4145C59.1474 30.4827 53.459 30.8538 51.8078 31.7249C47.6646 33.8987 49.9672 42.1169 49.8384 45.7375C49.8006 46.7904 49.5279 48.184 49.3688 49.2672C48.9068 52.403 48.0585 55.4933 47.9145 58.6822C47.5737 58.7655 47.6722 58.6216 47.5737 58.4928C47.0662 57.8338 46.6875 56.9173 46.1346 56.2432C43.9304 53.5316 39.9614 52.2364 36.9695 54.539C34.932 56.1069 35.0229 60.0077 35.538 62.2649C36.8029 67.8775 41.1733 71.0436 46.892 71.0285L49.2173 76.5426C48.8765 79.9587 49.5733 88.5329 46.4375 90.6386C46.8693 92.0171 48.0584 93.3957 49.028 94.4864C53.8226 99.8642 60.1699 102.621 67.3732 102.917C73.0237 103.144 80.4466 101.281 82.5372 95.3726C82.2569 95.259 80.8329 94.6455 80.7496 94.5318C80.2951 92.9033 79.4392 91.1461 79.2802 89.457C71.6452 91.5854 64.4267 88.139 58.2385 83.9883C57.7461 83.5414 58.0567 82.7991 58.7232 83.0036C64.957 87.0635 71.6224 90.4341 79.2877 88.4193C96.2923 83.9428 98.504 63.4162 97.1861 48.7748L97.1785 48.7673ZM67.3277 47.1842C68.0246 47.2524 70.918 47.775 70.3348 48.9188C70.1606 49.252 69.7819 49.2293 69.4637 49.2066C67.4035 49.04 66.237 47.9189 63.7905 48.7446C63.2906 48.9112 59.7306 51.2441 60.6017 49.2596C61.4727 47.2751 65.5705 47.0176 67.3277 47.1918V47.1842ZM89.6647 47.4721C90.6418 47.5857 92.7626 48.1916 92.7475 49.4338C92.7323 50.8048 90.8993 49.4187 90.1494 49.2066C89.2481 48.9491 88.4225 48.8506 87.4832 48.9188C86.794 48.9642 83.9308 50.0398 84.8852 48.3886C85.5366 47.26 88.5361 47.3509 89.6571 47.4796L89.6647 47.4721ZM87.7635 53.5391C90.1494 53.6603 90.3691 59.3866 87.7862 59.4169C85.2033 59.4472 85.1503 53.4104 87.7635 53.5391ZM67.3959 58.9246C67.252 59.0685 66.9717 59.2275 66.7748 59.2654C63.336 59.8562 63.8359 53.8043 66.3809 53.5316C68.5775 53.2968 68.6533 57.7202 67.3959 58.9246ZM80.3557 56.1826C80.9314 56.3417 80.7041 57.2885 80.8178 57.796C81.454 60.6212 82.8704 61.3787 83.9384 63.5525C85.8775 67.4988 81.098 68.9682 78.0531 68.4001C77.023 68.2108 76.9851 67.2034 78.1667 67.2413C79.4089 67.2867 80.1967 67.4155 81.4919 67.0216C85.2564 65.8854 82.1206 63.1662 81.0829 61.3787C80.6966 60.7197 80.3027 59.8714 80.0603 59.1442C79.871 58.561 78.9923 55.7887 80.3557 56.175V56.1826ZM39.363 57.9626C39.4918 57.8869 39.9538 57.9247 40.1356 57.955C41.4914 58.1595 43.3623 60.3107 43.9986 61.4923C44.2788 62.0073 45.2181 63.7343 44.5136 64.0903C43.9531 64.3781 43.6047 62.6209 43.4078 62.227C42.923 61.2575 41.6657 59.682 40.7113 59.1518C40.3098 58.9321 39.5221 58.7882 39.3252 58.6064C39.1282 58.4246 39.257 58.0232 39.3555 57.9626H39.363ZM68.373 71.5738C68.7517 71.6874 70.4863 73.1417 71.1907 73.4977C74.0235 74.9217 78.2425 75.4671 81.2419 74.3233C81.8933 74.0734 83.2794 72.9827 83.7718 73.3386C84.4459 73.8234 83.4006 74.4369 82.9613 74.7172C79.7725 76.7699 74.3719 76.1942 71.0392 74.6793C70.4711 74.4218 67.8655 72.869 67.661 72.4297C67.3808 71.8162 67.6913 71.3693 68.3654 71.5738H68.373Z" fill="#F9B598"/>
<path d="M97.1786 48.7672C97.6331 49.0626 97.4134 48.8581 97.4664 48.54C98.1178 45.0936 97.8603 39.943 97.2771 36.4588C96.7469 33.2472 95.5501 29.869 93.6186 27.2483C95.5501 24.0595 96.512 20.1738 96.7241 16.4472C96.7544 15.8943 96.7923 12.4479 96.656 12.2283C96.5726 12.0919 96.406 12.0086 96.2772 12.1601L89.4754 17.2652C89.377 16.4472 90.6873 6.31264 90.1344 6.32021L78.591 12.3873C78.1214 12.4479 78.5228 12.0843 78.5228 12.0162V7.13068C78.5228 7.07008 78.2653 6.06268 78.2123 6.03239C78.0911 5.94907 77.7805 6.04753 77.6291 6.09298C76.1748 6.5323 73.2359 8.74402 71.668 9.59993C69.8123 10.6149 67.8505 11.4632 65.9493 12.3873C65.866 10.6679 66.4492 8.84249 66.2447 7.13068C66.222 6.92617 66.3205 6.86557 66.0402 6.92617C64.8056 7.19884 62.1545 8.97126 60.9881 9.72112C58.4128 11.3799 55.9663 13.2659 53.5955 15.1974C53.2622 15.258 53.391 15.0535 53.3758 14.8338C53.3076 14.0082 53.6258 13.2205 53.5197 12.3949C50.2173 13.2432 46.9906 15.8109 44.7183 18.3105C42.4459 20.8101 41.0068 24.0519 39.1965 26.9908C34.9473 33.8986 33.6369 41.5033 35.076 49.5473C35.379 51.2592 35.8032 53.2134 36.9545 54.5465C39.9464 52.2438 43.9154 53.5391 46.1195 56.2507C46.6724 56.9324 47.0512 57.8489 47.5587 58.5003C47.6571 58.6215 47.5587 58.773 47.8995 58.6897C48.0434 55.5008 48.8917 52.4105 49.3538 49.2747C49.5128 48.1991 49.7855 46.7978 49.8234 45.745C49.9522 42.1244 47.6495 33.9138 51.7927 31.7323C53.4364 30.8689 59.1248 30.4901 61.1396 30.422C66.4947 30.2478 70.5849 31.2703 75.6446 31.6112C77.6896 31.7475 80.6209 31.4824 82.6963 31.2703C85.3095 30.9976 87.8999 30.4447 90.5131 30.1947C93.2778 32.4065 94.8608 36.224 95.7925 39.5719C96.6484 42.6471 96.8832 45.6314 97.1634 48.7748L97.1786 48.7672Z" fill="#070707"/>
<path d="M42.4459 92.6987L44.3622 96.1829C50.293 105.522 63.7603 109.491 74.2735 107.598C79.9392 106.575 86.0669 103.053 86.3774 96.698C85.1504 96.2738 83.7188 95.8421 82.5296 95.3649C80.4391 101.273 73.0162 103.136 67.3657 102.909C60.1624 102.614 53.8075 99.8565 49.0205 94.4787C48.0509 93.3879 46.8693 92.0094 46.43 90.6309C45.5287 91.2368 43.476 92.2215 42.4383 92.6987H42.4459Z" fill="#0F724A"/>
<path d="M42.4458 92.6985C42.2338 92.797 42.0217 92.9181 41.855 92.9939C43.3851 97.3795 47.0208 101.356 50.8913 103.856C58.2839 108.627 70.4333 110.513 78.6894 107.272C83.1128 105.53 86.8849 101.947 87.2712 96.9932C86.9758 96.8947 86.6804 96.7962 86.385 96.6978C86.0744 103.053 79.9467 106.582 74.2811 107.597C63.7678 109.491 50.3005 105.522 44.3697 96.1827L42.4534 92.6985H42.4458Z" fill="#0D0C0C"/>
<path d="M79.2802 88.4115C71.6149 90.4263 64.9494 87.0633 58.7157 82.9958C58.0492 82.7913 57.7386 83.5336 58.2309 83.9805C64.4192 88.1313 71.6452 91.5701 79.2726 89.4492C79.2423 89.1084 79.2954 88.7524 79.2726 88.4115H79.2802Z" fill="#0D0C0C"/>
<path d="M80.3557 56.1825C78.9923 55.7962 79.8634 58.5685 80.0603 59.1517C80.3027 59.8788 80.6966 60.7196 81.0829 61.3861C82.1206 63.1737 85.2564 65.8929 81.4919 67.0291C80.2042 67.4154 79.4089 67.2866 78.1667 67.2487C76.9245 67.2109 77.023 68.2183 78.0531 68.4076C81.098 68.9757 85.8775 67.4987 83.9384 63.56C82.8704 61.3861 81.454 60.6287 80.8178 57.8034C80.7042 57.296 80.9238 56.3492 80.3557 56.1901V56.1825Z" fill="#0D0C0C"/>
<path d="M68.373 71.5734C67.6989 71.3689 67.3807 71.8158 67.6686 72.4293C67.8731 72.8686 70.4711 74.4138 71.0468 74.6789C74.3795 76.1938 79.7801 76.7695 82.9689 74.7168C83.4082 74.4365 84.4459 73.8154 83.7793 73.3382C83.287 72.9823 81.9009 74.073 81.2495 74.3229C78.2576 75.4667 74.0311 74.9213 71.1983 73.4973C70.4938 73.1413 68.7669 71.687 68.3806 71.5734H68.373Z" fill="#0D0C0C"/>
<path d="M87.7635 53.5389C85.1579 53.4101 85.0821 59.4469 87.7862 59.4166C90.4903 59.3863 90.1418 53.6601 87.7635 53.5389Z" fill="#0D0C0C"/>
<path d="M67.3959 58.924C68.6532 57.7121 68.5699 53.2962 66.3809 53.531C63.8435 53.8037 63.336 59.8556 66.7748 59.2648C66.9717 59.2269 67.252 59.0679 67.3959 58.924Z" fill="#0D0C0C"/>
<path d="M67.3277 47.184C65.578 47.0022 61.4348 47.3582 60.6016 49.2518C59.7306 51.2439 63.2905 48.9034 63.7905 48.7367C66.237 47.9111 67.4034 49.0321 69.4637 49.1988C69.7818 49.2215 70.1605 49.2518 70.3347 48.9109C70.918 47.7672 68.0245 47.2522 67.3277 47.1764V47.184Z" fill="#0D0C0C"/>
<path d="M89.6647 47.472C88.5437 47.3432 85.5367 47.2599 84.8929 48.3809C83.9385 50.0322 86.8016 48.9566 87.4909 48.9111C88.4301 48.843 89.2557 48.9414 90.1571 49.199C90.907 49.411 92.74 50.8047 92.7551 49.4262C92.7627 48.1916 90.6494 47.578 89.6723 47.4644L89.6647 47.472Z" fill="#0D0C0C"/>
<path d="M39.3631 57.9623C39.2646 58.0229 39.1434 58.4319 39.3328 58.6061C39.5222 58.7803 40.3175 58.9242 40.7189 59.1515C41.6733 59.6741 42.9307 61.2572 43.4154 62.2267C43.6123 62.6206 43.9608 64.3778 44.5213 64.09C45.2257 63.734 44.2789 61.9994 44.0062 61.492C43.37 60.3179 41.4991 58.1668 40.1433 57.9547C39.9615 57.9244 39.4919 57.8866 39.3707 57.9623H39.3631Z" fill="#0D0C0C"/>
</g>
<defs>
<clipPath id="clip0_3381_184920">
<rect width="131" height="131" rx="8" transform="matrix(-1 0 0 1 131 0)" fill="white"/>
</clipPath>
</defs>
</svg>
