<svg width="131" height="132" viewBox="0 0 131 132" fill="none" xmlns="http://www.w3.org/2000/svg">
<g clip-path="url(#clip0_3381_185613)">
<path d="M0 8.5C0 4.08172 3.58172 0.5 8 0.5H123C127.418 0.5 131 4.08172 131 8.5V123.5C131 127.918 127.418 131.5 123 131.5H8C3.58172 131.5 0 127.918 0 123.5V8.5Z" fill="#FFCDD6"/>
<path d="M27.1948 36.7692C25.4758 47.3303 25.4106 52.1656 30.9606 53.8868L77.1782 50.8056L78.5476 75.7973L79.2323 97.7079C84.3037 103.778 88.6972 105.492 98.7464 106.267C105.709 101.138 107.85 96.9718 107.305 86.4103L97.377 40.8774C91.3433 22.978 81.9846 15.7056 65.8806 13.8315C48.4346 11.8013 35.7543 19.0525 27.1948 36.7692Z" fill="black"/>
<path d="M23.0906 110.718C32.6764 104.555 43.6317 102.843 43.6317 102.843L84.0293 100.789C96.4482 105.31 103.886 106.952 111.075 113.799C118.265 120.646 122.73 129.855 125.796 152.485H7C8.96775 131.634 13.5047 116.88 23.0906 110.718Z" fill="#9D5965"/>
<path d="M24.456 89.4917C25.8232 95.3117 29.4391 100.821 35.4113 105.24L43.2854 103.186L52.5289 93.9423L31.3031 62.1035C28.5626 72.4191 23.0888 83.6717 24.456 89.4917Z" fill="black"/>
<path d="M79.4187 63.0851L77.3678 53.8416C77.5214 80.8756 74.3596 93.3231 48.2647 92.8697C49.5786 98.9998 44.1652 99.9465 43.1382 103.78C42.1111 107.613 46.2281 125.302 66.4269 117.771C86.6257 110.239 85.2475 102.113 83.8781 100.744C82.5087 99.3744 80.6202 98.8884 79.4187 97.3203C79.4187 97.3203 78.0493 82.9415 78.3917 78.8333C78.734 74.7251 79.7676 75.4098 83.8727 74.3827C87.9778 73.3556 96.2839 65.8239 93.1214 60.3462C89.9589 54.8686 82.5087 56.9227 79.4187 63.0851Z" fill="#FCA58C"/>
<path d="M72.5805 87.2151C77.714 82.0816 77.7158 71.4671 77.7158 56.061C77.7158 40.6549 59.9135 25.7128 47.5888 29.0152C35.2641 32.3176 29.8464 38.3193 31.1559 62.2234C32.2668 82.8665 39.03 92.6929 47.5888 94.4045C56.1476 96.1161 67.4471 92.3486 72.5805 87.2151Z" fill="#FAA48B"/>
<path d="M69.4291 85.7858C69.5097 85.6867 69.6232 85.6165 69.7505 85.5946C69.8778 85.5726 70.0077 85.6002 70.1127 85.6721C70.2177 85.7439 70.2905 85.8549 70.3162 85.9815C70.3419 86.1082 70.3176 86.2394 70.2545 86.3504C70.0353 86.7332 69.8158 87.1024 69.582 87.4743C67.6929 90.6025 64.6973 93.4807 60.9939 94.6268C56.8601 95.9654 52.6199 95.8723 48.5201 95.5404C48.0941 95.5027 47.6685 95.4606 47.2294 95.414C47.102 95.4001 46.9814 95.3421 46.8942 95.2462C46.8071 95.1504 46.7606 95.0255 46.7649 94.8978C46.7693 94.7701 46.8242 94.6487 46.9177 94.5591C47.0112 94.4694 47.1356 94.4197 47.2636 94.4146C47.7008 94.3979 48.1234 94.3796 48.5451 94.3599C52.6051 94.153 56.6827 93.9323 60.3603 92.7298C63.6304 91.7008 66.3172 89.5085 68.6143 86.7643C68.8899 86.4418 69.1572 86.1208 69.4291 85.7858Z" fill="black"/>
<circle cx="4.10823" cy="4.10823" r="4.10823" transform="matrix(-1 0 0 1 91.4099 68.2656)" fill="#FFC83C"/>
<path d="M48.6919 64.1575C47.6113 67.4318 44.4002 71.6892 44.6754 72.7163C45.2637 74.9117 46.4308 75.3499 49.719 75.1127" stroke="black" stroke-linecap="round"/>
<ellipse cx="2.05411" cy="3.08117" rx="2.05411" ry="3.08117" transform="matrix(-1 0 0 1 59.6719 58.6799)" fill="black"/>
<ellipse cx="2.05411" cy="3.08117" rx="2.05411" ry="3.08117" transform="matrix(-1 0 0 1 39.1306 58.6799)" fill="black"/>
<path d="M62.7524 54.5719C59.9797 52.2805 58.2699 51.9729 54.8783 52.8601" stroke="black" stroke-linecap="round"/>
<path d="M41.8692 53.2534C38.6194 51.7116 36.8864 51.8326 33.8158 53.5241" stroke="black" stroke-linecap="round"/>
<path d="M55.614 78.5364C50.1817 81.5669 47.4543 82.3723 41.9199 79.9058" stroke="black" stroke-linecap="round"/>
<circle cx="36.7848" cy="60.3917" r="8.74352" stroke="black"/>
<circle cx="60.0648" cy="60.3917" r="8.74352" stroke="black"/>
<path d="M45.6858 59.3663C47.8538 58.7507 49.0697 58.7086 51.1634 59.3663" stroke="black"/>
<path d="M68.9658 60.3918L79.2364 57.9954" stroke="black"/>
<path d="M30.6223 52.1751L31.307 34.0304L53.2176 24.4446L63.6075 32.0264L67.254 25.4716L84.3716 39.8504L79.9211 62.1033C70.5607 54.2541 66.4426 48.8579 60.0646 38.3946C50.3465 45.9543 43.037 49.7506 30.6223 52.1751Z" fill="black"/>
</g>
<defs>
<clipPath id="clip0_3381_185613">
<path d="M0 8.5C0 4.08172 3.58172 0.5 8 0.5H123C127.418 0.5 131 4.08172 131 8.5V123.5C131 127.918 127.418 131.5 123 131.5H8C3.58172 131.5 0 127.918 0 123.5V8.5Z" fill="white"/>
</clipPath>
</defs>
</svg>
