<svg width="246" height="246" viewBox="0 0 246 246" fill="none" xmlns="http://www.w3.org/2000/svg">
<path d="M58.9623 226.22C54.231 224.339 50.9389 220.577 51.0047 213.823V213.193V210.907C51.0047 209.713 51.0047 208.509 51.0047 207.314V206.467C51.0047 205.282 50.9953 204.106 51.0047 202.931C51.0235 201.811 51.0894 200.316 51.3715 198.66L51.428 198.341C51.6255 197.155 51.9547 195.161 53.0176 193.073C52.9894 192.97 52.6037 191.324 52.6037 191.324L52.726 189.847C53.4033 181.927 57.3444 177.177 62.0004 174.214L61.1163 141.979L38.156 147.632L35.6163 142.007C34.4876 142.243 33.246 142.393 31.9479 142.393C23.7646 142.393 21.3096 135.969 16.6254 130.626C12.4397 125.848 7.52028 120.74 8.03761 113.874C8.43267 108.616 12.2515 104.816 15.4026 103.151C16.2774 102.69 17.1427 102.342 17.9516 102.078L14.7912 94.5253L65.9886 86.0692L65.9134 85.091C65.4713 79.2686 65.2832 73.1735 65.2926 65.3382C65.2926 63.6075 65.255 61.8673 65.2267 60.1178C65.1515 56.5247 65.0762 52.7998 65.302 49.0092C65.6594 42.8764 70.8704 36.3203 78.0661 36.3203C79.1101 36.3203 80.1542 36.4614 81.1607 36.7436C81.9226 36.9506 82.6186 37.2233 83.2582 37.5431C84.5375 37.0446 85.9766 36.7436 87.5945 36.7436C88.6385 36.7436 89.6826 36.8847 90.6985 37.1575C93.2099 37.8347 96.0129 39.415 97.7813 42.914C97.8659 42.914 97.9506 42.914 98.0352 42.914C103.02 42.914 106.83 45.3126 109.05 49.8463C109.464 50.7023 109.774 51.53 109.99 52.3389C110.066 52.0662 110.15 51.784 110.235 51.5018C110.762 49.7617 111.326 48.0404 111.881 46.319L112.173 45.4161C113.734 40.6189 116.321 34.0911 120.619 30.893C127.655 25.6538 129.376 33.4797 133.318 37.4491C134.098 38.2392 135.283 39.415 136.299 41.1175C136.403 41.2586 136.516 41.3902 136.619 41.5219C136.948 41.9452 137.287 42.3685 137.588 42.7917C138.848 44.5695 140.005 46.3755 141.021 47.9651C141.106 48.1062 141.19 48.2379 141.285 48.379C141.821 47.1562 142.329 45.9616 142.789 44.7858C141.755 41.964 141.134 39.0011 140.993 36.2075C140.635 28.993 143.09 23.6315 147.906 21.1013C149.731 20.1418 151.669 19.6527 153.644 19.6527C155.469 19.6527 157.849 20.0666 160.266 21.6468C162.016 20.4428 164.903 18.4582 168.666 17.9973C169.145 17.9408 169.625 17.9126 170.095 17.9126C172.024 17.9126 178.504 18.5428 180.781 26.7073C181.054 27.6761 181.213 28.6262 181.298 29.5668C184.665 30.9683 187.487 33.9782 188.428 37.4397C188.898 39.161 188.87 40.7412 188.588 42.1145C190.798 42.4531 192.313 43.2526 193.14 43.6947C193.225 43.7418 193.319 43.7888 193.432 43.8452C196.828 45.4161 198.85 47.8616 200.186 49.4795C200.402 49.7429 200.618 50.0062 200.853 50.2602C203.628 53.383 205.171 56.6563 205.829 60.8703C205.886 61.2277 205.933 61.5946 205.989 61.9614C206.036 62.2906 206.093 62.7421 206.13 62.902C206.262 63.3629 206.469 64.1154 206.582 65.0936C206.901 67.9625 206.252 70.5492 205.81 71.8848L205.792 71.9601C205.547 72.8349 204.964 74.8948 203.29 76.8042C202.575 77.632 201.86 78.1775 201.314 78.5726L200.919 78.8736C199.715 79.7954 198.238 80.9335 196.32 81.9023C204.051 81.3286 215.075 81.084 215.602 81.0746L226.193 80.8395L225.337 89.6718C226.871 90.2173 228.3 90.8852 229.561 91.6659C242.692 99.7363 240.688 131.717 222.224 131.717C221.914 131.717 221.594 131.717 221.274 131.689L220.823 136.326L211.548 135.536C210.354 135.432 207.983 135.273 206.676 135.273C206.601 135.273 206.525 135.273 206.459 135.273C206.412 135.273 206.356 135.282 206.309 135.291L206.854 137.681L210.307 163.303L201.408 164.356C201.691 166.708 201.897 169.182 201.907 171.712V172.079C201.907 174.261 201.926 175.982 202.189 177.732C202.255 178.183 202.33 178.625 202.396 179.077C202.603 180.347 202.819 181.72 202.97 183.187C206.779 183.752 211.717 185.21 215.649 188.822C218.603 191.54 220.202 194.399 220.982 198.406C221.735 202.225 221.453 205.79 220.136 208.988C217.465 215.469 213.251 217.35 209.159 218.705C206.497 219.589 204.098 219.711 202.349 219.796C201.691 219.833 201.126 219.852 200.703 219.918C198.69 220.2 196.705 220.332 194.664 220.332C178.091 220.332 161.611 222.618 145.019 223.568C134.531 224.16 124.259 227.048 113.715 226.973C113.715 226.973 113.452 226.973 113.395 226.973C111.495 227.34 109.765 227.377 108.25 227.377C106.623 227.377 104.911 227.481 103.096 227.584C101.092 227.697 99.0229 227.819 96.8407 227.819H96.4832C94.8654 227.81 93.2381 227.81 91.6203 227.81H83.4746H71.1432C70.56 227.81 69.9674 227.81 69.3748 227.829C65.6312 227.885 61.9722 227.452 58.9058 226.23L58.9623 226.22Z" fill="#E4C7FF"/>
<path d="M144.238 68.7066C144.238 67.8224 144.671 66.9382 144.925 66.1011C145.555 64.0788 146.053 62.0658 146.815 60.0812C148.396 55.9801 150.38 52.0389 151.913 47.9191C152.196 47.1478 152.91 46.273 152.798 45.4358C152.675 44.5517 151.885 43.4794 151.556 42.614C150.86 40.761 150.38 38.6635 150.277 36.6788C150.192 34.9104 150.333 31.3267 152.177 30.3579C153.908 29.4455 155.262 30.3579 156.353 31.75C157.341 33.001 158.244 34.7975 158.573 36.359C158.77 37.309 158.752 38.2778 158.912 39.2278C158.996 39.6887 159.194 40.1496 159.194 40.6105C158.968 38.955 160.341 37.0738 161.103 35.7099C162.223 33.7158 163.37 31.797 165.289 30.4707C166.559 29.596 168.139 28.4578 169.719 28.2697C171.027 28.1098 171.309 29.0692 171.619 30.1697C172.438 33.0856 170.97 36.7916 169.324 39.1714C168.101 40.9397 166.653 42.5294 165.195 44.0814C165.637 43.0655 166.935 42.52 167.8 41.9274C169.493 40.7704 171.008 39.7828 173.058 39.463C174.394 39.256 175.861 38.861 177.216 39.0679C177.921 39.1714 179.059 40.1308 179.248 40.8363C179.436 41.5417 178.504 42.5482 178.138 43.0561C177.235 44.3259 175.861 45.6334 174.507 46.3953C172.729 47.3923 171.083 48.5869 169.324 49.6028C168.553 50.0448 168.148 50.6374 167.217 50.5434C168.148 50.628 169.136 50.2141 170.095 50.2236C172.137 50.2424 175.024 50.7409 174.968 53.4781C174.93 55.4063 172.212 56.7796 170.961 57.8707C167.198 61.1629 164.301 65.104 161.771 69.3932C159.561 73.1462 156.861 76.9839 154.077 80.3137C152.647 82.035 150.07 83.8128 149.505 86.0138" fill="#B47BFF"/>
<path d="M144.943 68.706C145 67.7842 145.404 66.9471 145.677 66.0723C145.988 65.0659 146.27 64.0594 146.571 63.053C147.154 61.1153 147.888 59.2529 148.678 57.3905C150.173 53.8914 151.669 50.383 153.183 46.9027C153.757 45.5764 153.324 44.5512 152.694 43.3472C151.819 41.6823 151.33 39.7635 151.095 37.8916C150.841 35.8787 150.521 31.1851 153.268 30.7524C155.149 30.4514 156.541 33.0851 157.19 34.4866C157.651 35.4931 157.924 36.5089 158.037 37.6095C158.14 38.6253 158.404 39.6224 158.498 40.6288C158.582 41.5224 159.974 41.5412 159.909 40.6288C159.805 39.2085 160.605 37.9857 161.301 36.8099C161.959 35.7094 162.552 34.5619 163.295 33.5178C164.113 32.3703 165.101 31.4767 166.267 30.6866C167.142 30.094 169.202 28.4855 170.293 29.1063C171.196 29.6237 171.196 31.5896 171.139 32.4925C171.055 33.9411 170.584 35.3614 169.973 36.6688C168.731 39.3214 166.681 41.4942 164.706 43.6106L165.816 44.4665C166.333 43.4977 167.443 43.0462 168.327 42.463C169.258 41.8422 170.189 41.2026 171.224 40.7605C172.39 40.262 173.66 40.0833 174.902 39.8857C175.946 39.7258 178.185 39.4719 178.495 40.9768C178.646 41.7293 177.3 43.0932 176.83 43.62C175.946 44.6076 174.93 45.3695 173.792 46.0373C172.654 46.7052 171.582 47.42 170.472 48.1255C169.888 48.4923 169.286 48.8309 168.713 49.2072C168.224 49.5364 167.857 49.8844 167.227 49.875C166.314 49.8656 166.314 51.2671 167.227 51.2859C168.788 51.3236 170.227 50.7968 171.807 51.1166C173.049 51.3612 174.375 52.029 174.281 53.5152C174.187 54.9073 172.541 55.8573 171.544 56.591C170.321 57.494 169.211 58.538 168.158 59.6386C163.041 64.9812 159.909 71.7724 155.412 77.6042C154.227 79.1374 152.986 80.5483 151.612 81.9028C150.455 83.0504 149.327 84.2731 148.847 85.8722C148.584 86.747 149.947 87.1138 150.211 86.2484C150.728 84.5083 152.233 83.2761 153.484 82.0439C154.773 80.7647 155.873 79.3161 156.974 77.8676C159.523 74.519 161.602 70.9165 163.887 67.3892C166.041 64.0688 168.572 60.7579 171.666 58.2559C173.576 56.7039 176.576 55.086 175.466 52.1325C174.996 50.8815 173.811 50.1666 172.569 49.8468C171.93 49.6775 171.262 49.6022 170.603 49.574C169.465 49.5176 168.374 49.9126 167.236 49.8844V51.2953C168.684 51.3142 170.03 50.082 171.186 49.3483C172.71 48.3794 174.356 47.5047 175.814 46.4418C177.028 45.5576 178.006 44.4665 178.899 43.2719C179.586 42.3595 180.367 41.3343 179.718 40.1867C178.156 37.4307 174.243 38.3431 171.779 39.0674C170.321 39.5001 169.023 40.2996 167.772 41.1367C166.634 41.8986 165.27 42.4912 164.602 43.7516C164.235 44.4383 165.138 45.2096 165.712 44.6076C168.177 41.9833 170.632 39.2555 171.854 35.8129C172.409 34.2515 172.72 32.5396 172.485 30.8841C172.334 29.793 171.986 28.2504 170.867 27.7519C169.54 27.1687 167.828 28.0717 166.709 28.7301C165.242 29.5955 163.84 30.6019 162.759 31.9282C161.705 33.2168 160.934 34.6748 160.087 36.1045C159.269 37.4872 158.375 38.9639 158.498 40.6382H159.909C159.824 39.6882 159.551 38.7852 159.466 37.8258C159.372 36.7911 159.222 35.8035 158.855 34.8253C158.253 33.2262 157.35 31.5519 156.052 30.4044C154.952 29.4261 153.569 29.0217 152.177 29.6237C150.869 30.188 150.22 31.4579 149.9 32.7841C149.11 36.0386 149.684 39.7635 150.888 42.8298C151.199 43.6106 151.735 44.316 151.979 45.1155C152.29 46.1502 151.452 47.2037 151.086 48.1631C150.239 50.3641 149.289 52.5181 148.339 54.6815C147.342 56.9578 146.307 59.2529 145.545 61.6232C145.132 62.9119 144.784 64.2099 144.388 65.4986C144.059 66.5709 143.608 67.5867 143.542 68.7249C143.485 69.6278 144.896 69.6278 144.953 68.7249L144.943 68.706Z" fill="#050505"/>
<path d="M75.9685 93.9711C75.9779 94.3285 75.8556 94.6295 75.611 94.8647C75.2912 93.9241 75.5076 92.7013 75.517 91.723C75.5452 89.5878 75.3289 87.4621 75.1689 85.3269C74.6892 78.9683 74.567 72.6662 74.5764 66.2889C74.5764 61.0685 74.2566 55.7164 74.567 50.4961C74.6704 48.7559 76.467 46.1787 78.5269 46.743C80.1824 47.2039 80.5869 50.0163 80.8596 51.4555C81.0666 52.5278 80.6809 57.0145 81.9601 57.56C82.2611 56.4219 81.9225 55.1521 82.1107 53.9857C82.2611 53.0827 82.628 52.2268 83.0513 51.4273C83.9354 49.7342 85.685 46.5079 88.1117 47.1663C90.1811 47.7307 90.0588 51.5966 90.04 53.252C90.0212 54.5313 89.8425 55.7164 89.6355 56.9675C89.5415 57.5694 89.2405 58.6323 89.6355 59.1497C90.9524 56.2432 94.0376 53.3555 97.4144 53.2614C99.0887 53.2144 99.7095 53.3179 100.49 54.9169C101.28 56.5254 100.866 57.6917 100.302 59.3096C98.8723 63.4012 95.2228 66.5429 91.8366 69.0919C90.6608 69.9761 88.5068 71.1425 89.137 72.939C89.3063 73.4187 89.786 73.7762 89.9647 74.3311C90.7172 76.7297 92.0717 80.0971 92.1564 80.6897" fill="#B47BFF"/>
<path d="M75.2631 93.9704L75.1126 94.3655L76.2884 94.6759C76.025 93.7071 76.1943 92.71 76.2225 91.7224C76.2507 90.4996 76.1755 89.2862 76.0814 88.0634C75.9027 85.599 75.7052 83.144 75.5735 80.6796C75.3289 75.8072 75.2725 70.9443 75.2725 66.0625C75.2725 61.1807 75.0091 56.5811 75.1973 51.8405C75.2631 50.2508 75.6299 47.7676 77.6146 47.4008C79.4112 47.0716 79.7968 49.7147 80.0414 50.9563C80.2954 52.2826 80.2013 53.6276 80.3142 54.9727C80.4082 56.0544 80.5211 57.5876 81.5934 58.1708C81.9696 58.3777 82.534 58.2084 82.6281 57.7475C82.9009 56.4307 82.5622 55.095 82.8538 53.7875C83.089 52.7246 83.6439 51.737 84.1801 50.7964C84.8291 49.6583 86.9455 46.4508 88.5069 48.2567C89.5228 49.4325 89.344 51.6335 89.3158 53.0727C89.297 54.4083 89.1183 55.7158 88.8925 57.0326C88.742 57.8886 88.5727 58.7069 88.996 59.5064C89.2312 59.9485 89.9837 59.9862 90.2188 59.5064C91.5451 56.7222 94.16 54.1356 97.3863 53.9663C97.8848 53.938 98.5432 53.8816 98.9947 54.1262C99.6343 54.4742 100.011 55.49 100.133 56.1391C100.443 57.7005 99.4932 59.6475 98.7501 60.9738C97.1323 63.8615 94.5644 66.1001 91.9683 68.0848C90.4163 69.2794 87.5381 70.775 88.4693 73.2017C88.7515 73.9354 89.25 74.5092 89.5133 75.2805C89.7767 76.0518 90.0401 76.8137 90.3223 77.5756C90.7079 78.6385 91.2347 79.7484 91.451 80.8677C91.6203 81.7613 92.9842 81.385 92.8149 80.4915C92.5985 79.3721 92.0718 78.2716 91.6862 77.1993C91.1594 75.732 90.7267 74.3211 89.9554 72.976C89.0618 71.4052 91.451 70.2388 92.4669 69.4675C93.8119 68.4517 95.1288 67.3888 96.3516 66.213C98.7878 63.8615 101.13 60.7481 101.572 57.2866C101.741 55.9415 101.29 54.4272 100.359 53.4207C99.5403 52.5365 98.3551 52.4801 97.2264 52.5553C93.5862 52.7905 90.5292 55.6123 89.0148 58.7916H90.2376C89.946 58.2366 90.2941 57.3148 90.3787 56.7411C90.501 55.998 90.6045 55.2549 90.6703 54.5024C90.7644 53.3925 90.7832 52.2543 90.7079 51.1444C90.6045 49.4325 90.2376 47.0245 88.2906 46.479C86.0895 45.8676 84.3776 47.8147 83.3335 49.4701C82.741 50.4107 82.186 51.4266 81.8003 52.4707C81.1795 54.1167 81.6216 55.697 81.283 57.3619L82.3177 56.9386C81.4053 56.4401 81.6687 53.7593 81.6498 52.8845C81.6216 51.5865 81.4335 50.3261 81.0667 49.0751C80.6716 47.73 79.9567 46.2532 78.433 45.9899C76.9092 45.7265 75.5547 46.7518 74.7552 47.9652C73.6358 49.6488 73.7769 51.69 73.7487 53.6276C73.7017 56.346 73.7675 59.055 73.824 61.7733C73.9274 67.1442 73.8616 72.5151 74.0591 77.886C74.172 80.9712 74.3695 84.0564 74.6141 87.1416C74.7269 88.5807 74.8304 90.0293 74.821 91.4778C74.8116 92.6818 74.6141 93.8576 74.9433 95.0333C75.075 95.5036 75.7804 95.767 76.119 95.3437C76.4859 94.8922 76.627 94.5442 76.6834 93.9516C76.7681 93.0486 75.3572 93.058 75.2725 93.9516L75.2631 93.9704Z" fill="#050505"/>
<path d="M224.538 100.602C225.61 101.26 227.172 102.681 225.977 103.791C225.45 104.28 223.889 104.948 223.193 105.108C222.497 105.267 221.349 104.863 221.048 105.653C222.027 106.434 223.635 106.048 224.82 106.377C226.382 106.801 228.197 107.553 228.366 109.378C228.507 110.968 227.407 112.153 225.958 112.698C224.792 113.14 221.632 112.868 221.067 113.949C222.977 114.73 225.309 114.692 226.4 116.752C226.993 117.881 227.313 119.659 226.692 120.797C225.131 123.619 221.933 123.515 219.195 122.819C217.794 122.462 216.496 121.85 215.141 121.39C213.787 120.929 211.558 121.079 210.448 120.082C208.519 118.351 209.037 113.714 209.093 111.419C209.168 108.108 208.698 103.734 210.598 100.818C213.204 96.8302 221.208 98.5515 224.547 100.593L224.538 100.602Z" fill="#B47BFF"/>
<path d="M224.181 101.213C224.754 101.58 226.156 102.493 225.479 103.292C225.074 103.772 224.105 104.073 223.541 104.27C222.459 104.637 221.114 104.101 220.446 105.296C220.249 105.644 220.381 106.039 220.7 106.265C222.027 107.168 223.701 106.744 225.168 107.215C226.748 107.722 228.526 109.068 227.285 110.883C225.686 113.234 221.961 111.334 220.465 113.601C220.192 114.015 220.493 114.485 220.888 114.636C222.572 115.285 224.848 115.351 225.798 117.119C226.965 119.292 226.034 121.747 223.616 122.377C221.613 122.895 219.402 122.255 217.53 121.559C216.543 121.192 215.574 120.741 214.539 120.534C213.571 120.345 212.508 120.336 211.586 119.96C209.808 119.226 209.733 116.734 209.705 115.097C209.676 113.357 209.817 111.617 209.808 109.867C209.789 106.377 209.413 100.884 213.542 99.5298C216.881 98.4387 221.246 99.4639 224.19 101.223C224.971 101.693 225.686 100.47 224.905 100C221.688 98.0718 217.06 97.0372 213.401 98.0906C208.425 99.5298 208.369 105.258 208.397 109.528C208.407 111.767 208.162 114.025 208.35 116.254C208.501 118.088 208.962 120.251 210.777 121.126C211.84 121.634 213.034 121.653 214.163 121.879C215.583 122.161 216.891 122.857 218.264 123.29C220.362 123.948 222.873 124.334 224.952 123.384C227.557 122.18 228.319 119.386 227.228 116.837C226.146 114.297 223.55 114.147 221.274 113.272L221.697 114.307C222.045 113.789 223.296 113.789 223.833 113.733C224.519 113.658 225.243 113.639 225.911 113.46C227.473 113.037 228.874 111.739 229.072 110.093C229.279 108.39 228.253 107.055 226.777 106.34C226.052 105.992 225.262 105.719 224.463 105.597C223.447 105.456 222.318 105.653 221.434 105.051L221.688 106.02C221.867 105.691 222.789 105.869 223.099 105.841C223.522 105.794 223.927 105.653 224.322 105.503C225.112 105.192 226.015 104.835 226.607 104.195C228.047 102.624 226.25 100.865 224.924 100.009C224.162 99.5204 223.447 100.734 224.209 101.232L224.181 101.213Z" fill="#050505"/>
<path d="M28.2607 131.595C28.3172 131.811 28.3924 132.018 28.4959 132.225C29.8127 134.859 33.9044 133.871 35.9925 132.978C37.6856 132.263 39.3599 131.247 40.9401 130.306C41.7961 129.789 42.6332 129.262 43.508 128.783C44.1194 128.444 44.6179 128.002 45.1917 127.626C45.6432 127.325 46.1135 127.287 46.0665 126.695C46.0289 126.29 45.9066 125.876 45.8501 125.472C45.5021 123.177 45.1447 120.75 44.4486 118.539C44.2323 117.853 43.8278 117.307 43.4986 116.677C43.0095 115.718 42.7743 114.636 42.3793 113.639C42.0407 112.802 41.7115 111.692 41.0812 111.024C40.7802 110.704 40.2347 110.554 39.8208 110.46C38.5886 110.187 37.2059 110.356 35.9643 110.356C34.3088 110.356 32.6816 110.413 31.0261 110.554C28.731 110.751 26.3889 110.732 24.122 111.222C22.6265 111.541 21.0462 111.701 19.6635 112.425C18.6477 112.962 17.3873 114.307 17.2932 115.529C17.2556 115.99 17.4813 116.536 17.6977 116.94C18.2714 118.022 19.3437 118.041 20.3596 118.445C20.7264 118.586 21.0368 118.831 21.4225 118.925C22.0715 119.094 22.7958 119.038 23.4542 119.01C24.3102 118.982 25.1567 118.887 26.0127 118.85C26.3795 118.831 26.7463 118.822 27.1132 118.822C27.179 118.822 27.734 118.897 27.828 118.85C26.0409 119.649 22.4383 122.358 23.172 124.747C23.3507 125.34 23.5577 125.716 24.1597 125.914C24.931 126.168 25.7587 126.196 26.5582 126.215C27.7434 126.243 28.9568 126.281 30.1419 126.234C30.7157 126.215 31.186 126.168 31.7222 125.933C31.4776 125.782 31.3553 126.064 31.2142 126.224C30.6593 126.826 29.935 127.221 29.3706 127.814C28.4488 128.792 27.9315 130.278 28.2701 131.605L28.2607 131.595Z" fill="#B47BFF"/>
<path d="M27.5741 131.783C29.0603 136.533 35.2495 134.257 38.2877 132.648C39.6892 131.905 41.0342 131.068 42.3887 130.25C43.6679 129.479 45.1259 128.764 46.264 127.795C47.1388 127.052 46.6121 125.838 46.4616 124.87C46.1982 123.214 45.9536 121.559 45.5586 119.931C45.2294 118.586 44.712 117.523 44.1006 116.31C43.4234 114.965 43.1036 113.441 42.5016 112.058C42.0783 111.09 41.561 110.271 40.5263 109.914C39.0684 109.406 37.4505 109.613 35.9455 109.632C32.5781 109.669 29.1543 109.81 25.8152 110.215C23.2849 110.516 20.0304 110.845 18.1021 112.679C17.218 113.526 16.3902 114.777 16.616 116.056C16.8511 117.373 17.7165 118.276 18.9487 118.709C19.5977 118.934 20.2091 119.188 20.8487 119.442C21.6765 119.771 22.5606 119.734 23.4354 119.696C24.8745 119.63 26.3889 119.668 27.8092 119.536L27.4518 118.219C25.2508 119.254 21.9963 121.681 22.3819 124.475C22.6077 126.13 23.7834 126.676 25.326 126.835C26.4642 126.958 27.6305 126.939 28.7781 126.939C29.8316 126.939 30.885 126.958 31.8821 126.591C32.6534 126.309 32.4841 125.302 31.694 125.208C31.0732 125.133 30.838 125.566 30.4336 125.951C29.8222 126.544 29.0979 126.958 28.5617 127.626C27.6117 128.811 27.2637 130.288 27.5553 131.774C27.734 132.667 29.0979 132.291 28.9192 131.397C28.684 130.212 29.1167 129.018 29.9632 128.171C30.2925 127.842 30.6781 127.579 31.0355 127.287C31.2143 127.136 31.393 126.995 31.5529 126.826C31.6281 126.76 31.694 126.694 31.7504 126.61C31.8633 126.487 31.8445 126.487 31.694 126.61C31.6281 126.149 31.5717 125.688 31.5058 125.227C30.0573 125.763 28.2701 125.537 26.7558 125.49C25.4577 125.453 23.426 125.509 23.8022 123.656C24.1973 121.747 26.5112 120.204 28.1573 119.433C28.7781 119.141 28.4865 118.05 27.7998 118.116C27.0003 118.191 26.1538 118.097 25.3448 118.154C23.9527 118.248 22.3443 118.558 21.0369 117.975C20.2938 117.636 19.165 117.505 18.5725 116.95C17.3591 115.802 18.3185 114.278 19.3438 113.441C20.2561 112.698 21.4507 112.435 22.57 112.209C23.9245 111.936 25.279 111.654 26.6617 111.532C29.1355 111.306 31.6469 111.127 34.1301 111.061C35.3718 111.024 36.6228 111.005 37.8644 110.996C39.3035 110.986 40.4793 111.052 41.1283 112.454C41.561 113.385 41.862 114.372 42.1912 115.341C42.5392 116.376 43.0754 117.251 43.5363 118.229C44.5991 120.468 44.7214 123.233 45.1353 125.641C45.1729 125.848 45.3234 126.281 45.2952 126.459C45.2294 126.845 45.4457 126.487 45.0789 126.845C44.7496 127.174 44.2041 127.447 43.809 127.72C42.765 128.435 41.6362 129.037 40.5545 129.686C38.457 130.946 36.303 132.31 33.9044 132.912C32.1172 133.363 29.587 133.57 28.9098 131.397C28.637 130.532 27.2731 130.899 27.5459 131.774L27.5741 131.783Z" fill="#050505"/>
<path d="M105.861 112.802C105.654 111.466 116.34 65.8936 116.669 64.6237C117.496 61.4539 118.174 58.3028 119.114 55.1612C119.716 53.1859 120.365 51.2294 121.005 49.2636C121.588 47.467 121.917 46.0279 122.453 44.2219C122.707 43.3659 123.488 41.0144 123.488 41.0144C123.488 41.0144 124.918 42.6887 125.087 42.8956C125.887 43.8833 127.392 45.6516 128.144 46.9308C128.614 47.721 129.264 48.417 129.8 49.1695C130.91 50.7403 137.785 60.5227 139.281 62.7895C144.492 70.7095 149.552 78.7235 154.378 86.8786C156.325 90.1613 158.394 93.3029 160.435 96.5198C162.458 99.7085 164.273 101.609 165.458 105.173C161.301 107.186 157.369 109.754 153.146 111.654C147.54 114.166 141.473 115.689 135.34 116.103C129.16 116.527 122.67 117.59 116.499 117.373" fill="#B47BFF"/>
<path d="M106.567 112.802C106.529 112.463 106.567 112.567 106.632 112.219C106.717 111.701 106.821 111.193 106.915 110.676C107.253 108.964 107.62 107.262 107.987 105.559C109.087 100.499 110.235 95.4477 111.392 90.3966C113.301 82.0346 115.211 73.6631 117.214 65.3199C118.117 61.5575 119.02 57.7762 120.177 54.0796C121.522 49.7904 122.736 45.4636 124.156 41.2026L122.98 41.513C127.702 47.0344 131.747 53.1296 135.885 59.0931C142.31 68.3393 148.217 77.9523 153.992 87.6218C155.93 90.8669 157.98 94.0462 160.04 97.216C161.771 99.8779 163.727 102.314 164.772 105.352L165.091 104.553C161.31 106.396 157.755 108.654 153.964 110.479C150.173 112.303 146.223 113.601 142.15 114.448C138.077 115.295 133.741 115.483 129.517 115.906C125.294 116.329 120.845 116.79 116.49 116.658C115.578 116.63 115.587 118.041 116.49 118.069C121.005 118.201 125.492 117.721 129.969 117.27C134.164 116.847 138.378 116.668 142.526 115.802C146.674 114.937 150.54 113.648 154.284 111.88C158.225 110.027 161.893 107.676 165.806 105.766C166.07 105.634 166.229 105.249 166.126 104.967C165.214 102.314 163.699 100.094 162.128 97.8086C160.294 95.1373 158.592 92.3719 156.87 89.6253C153.23 83.7935 149.778 77.8582 146.091 72.0453C141.388 64.6239 136.45 57.4 131.389 50.2231C129.038 46.8839 126.62 43.62 123.968 40.5066C123.601 40.0739 122.943 40.3561 122.792 40.817C121.56 44.523 120.544 48.2948 119.349 52.0103C118.014 56.1489 116.979 60.3535 115.935 64.5674C115.258 67.3046 114.637 70.0512 113.997 72.7978C111.58 83.1539 109.172 93.5194 106.896 103.913C106.454 105.945 106.002 107.977 105.598 110.018C105.428 110.845 105.052 111.937 105.146 112.793C105.24 113.648 106.661 113.696 106.557 112.793L106.567 112.802Z" fill="#050505"/>
<path d="M172.936 100.442C171.45 103.725 166.531 105.54 163.699 107.497C160.642 109.604 154.971 114.673 150.898 112.162C148.894 110.93 147.653 106.697 147.013 104.599C145.8 100.602 146.392 96.1622 147.088 92.1458C148.48 84.113 152.459 77.0396 157.275 70.6058C160.398 66.4295 163.972 62.6577 168.167 59.5348C173.011 55.9229 178.288 53.1105 184.355 52.4144C186.942 52.1134 188.72 52.2545 190.958 53.8253C192.811 55.1234 194.072 57.014 195.003 59.0551C196.517 62.3943 199.001 68.2543 196.113 71.5558C195.972 71.7157 195.774 71.838 195.605 71.9603C194.373 72.9009 193.197 73.8603 191.786 74.5376C190.253 75.2807 188.823 76.2024 187.281 76.9455C186.274 77.4346 185.258 77.8955 184.28 78.4505C183.302 79.0149 182.455 79.805 181.533 80.4634C180.028 81.5263 178.307 82.6738 177.169 84.1224C175.927 85.7026 174.291 87.3863 173.519 89.2581C173.134 90.1893 172.626 91.0829 172.344 92.0517C172.08 92.9735 172.184 94.0176 172.08 94.9676" fill="#B47BFF"/>
<path d="M172.325 100.085C171.271 102.258 169.07 103.546 167.048 104.703C165.27 105.719 163.54 106.726 161.884 107.939C159.137 109.952 153.372 114.58 150.343 110.667C149.007 108.946 148.377 106.679 147.765 104.619C146.91 101.75 146.91 98.7964 147.248 95.8429C147.925 89.8794 149.722 84.2546 152.628 79.006C158.103 69.1107 166.314 59.7328 176.868 55.1615C179.473 54.0327 182.276 53.2614 185.117 53.0263C187.958 52.7911 190.366 53.76 192.256 55.9234C193.893 57.7952 194.89 60.269 195.718 62.5829C196.47 64.7181 197.195 67.2671 196.47 69.5058C195.953 71.0766 194.542 71.942 193.244 72.8355C191.852 73.795 190.29 74.5004 188.823 75.3282C187.356 76.1559 185.785 76.8143 184.308 77.6327C182.973 78.3758 181.825 79.401 180.583 80.2758C178.091 82.0347 176.144 84.0947 174.328 86.5402C173.397 87.8007 172.767 89.1928 172.146 90.6225C171.516 92.0804 171.516 93.4067 171.394 94.9587C171.318 95.8617 172.729 95.8617 172.805 94.9587C172.88 94.0557 172.805 93.1151 173.04 92.2309C173.247 91.4314 173.66 90.6977 173.99 89.9547C174.686 88.4121 175.617 87.1234 176.699 85.8254C177.611 84.7249 178.467 83.662 179.577 82.7684C180.762 81.809 182.051 80.9718 183.255 80.0406C184.609 78.9871 186.124 78.3005 187.657 77.5574C189.19 76.8049 190.657 75.9302 192.162 75.1495C194.382 73.9925 197.035 72.4123 197.834 69.9008C198.596 67.5211 197.975 64.831 197.195 62.5453C196.404 60.222 195.417 57.7952 193.949 55.8105C192.482 53.8258 190.187 52.0387 187.582 51.6812C184.976 51.3238 181.816 51.9916 179.219 52.81C167.481 56.5254 158.291 66.5993 152.205 76.9272C148.998 82.3639 146.91 88.1769 146.025 94.432C145.254 99.8969 145.743 105.456 148.471 110.366C149.675 112.539 151.575 113.818 154.124 113.526C156.673 113.235 159.072 111.711 161.16 110.234C163.248 108.757 165.27 107.365 167.481 106.105C169.795 104.797 172.344 103.302 173.548 100.819C173.943 100.01 172.729 99.2855 172.325 100.104V100.085Z" fill="#050505"/>
<path d="M187.421 52.5937C185.935 52.556 185.324 55.1897 185.333 56.2432C185.352 58.7076 185.042 61.1626 186.396 63.3542C187.055 64.4171 187.28 65.1884 188.287 66.7781C188.908 67.7469 189.651 67.935 190.328 68.8098C191.005 69.6846 194.833 72.1395 195.718 71.3212" fill="#B47BFF"/>
<path d="M187.421 51.8879C185.371 51.982 184.684 54.5499 184.628 56.243C184.571 57.9361 184.524 59.5633 184.825 61.1718C185.089 62.5733 185.832 63.6926 186.462 64.9436C187.092 66.1946 187.704 67.4362 188.795 68.3392C189.566 68.9788 190.187 69.7219 191.005 70.3145C192.077 71.0858 194.711 72.9764 196.085 71.9418C196.799 71.3962 196.094 70.1734 195.37 70.719C195.003 71.0011 194.1 70.4838 193.761 70.3239C193.018 69.9665 192.303 69.5338 191.635 69.0447C191.024 68.5932 190.582 68.0006 189.999 67.5115C189.021 66.7026 188.447 65.7431 187.873 64.6238C187.412 63.7208 186.791 62.8178 186.462 61.8584C186.029 60.6262 186.011 59.3094 186.02 58.0113C186.02 57.0707 185.954 56.1019 186.18 55.1801C186.321 54.5781 186.641 53.3459 187.421 53.3083C188.324 53.2706 188.334 51.8597 187.421 51.8973V51.8879Z" fill="#050505"/>
<path d="M175.655 61.5856C176.003 61.6608 176.238 61.9524 176.567 61.4068C176.407 61.2752 176.162 61.1623 176.04 61.0776C176.012 61.3692 176.003 61.4727 176.191 61.2281" fill="#B47BFF"/>
<path d="M175.372 62.6107C175.457 62.6295 175.541 62.6577 175.626 62.6954C175.664 62.7142 175.701 62.7236 175.739 62.733C175.758 62.733 175.777 62.7424 175.795 62.7424C175.899 62.7612 176.012 62.78 176.125 62.7894C176.143 62.7894 176.162 62.7894 176.181 62.7894C176.275 62.7894 176.388 62.7706 176.482 62.7518C176.491 62.7518 176.501 62.7518 176.51 62.7518C176.633 62.7236 176.764 62.6672 176.868 62.5919C176.981 62.5167 177.103 62.432 177.188 62.3285C177.291 62.2063 177.385 62.084 177.47 61.9523L177.573 61.6983C177.62 61.5572 177.62 61.4161 177.592 61.2751C177.592 61.181 177.564 61.0869 177.517 61.0117C177.47 60.88 177.404 60.7671 177.3 60.6731C177.14 60.5508 176.99 60.4285 176.811 60.325C176.727 60.278 176.642 60.231 176.557 60.1745C176.388 60.0805 176.219 60.0334 176.021 60.0334C175.833 60.0334 175.654 60.0805 175.485 60.1745C175.325 60.2686 175.203 60.3909 175.109 60.5508C175.015 60.7201 174.968 60.8894 174.968 61.0869C174.968 61.1528 174.949 61.2186 174.949 61.2845C174.949 61.2939 174.949 61.3127 174.949 61.3221C174.949 61.3879 174.977 61.5384 174.986 61.6137C174.986 61.6137 174.986 61.6137 174.986 61.6231C174.986 61.6231 174.986 61.6231 174.986 61.6325C174.986 61.6513 175.081 61.8676 175.099 61.8865C175.146 61.9711 175.203 62.0464 175.269 62.1122C175.269 62.1122 175.476 62.2721 175.485 62.2815C175.523 62.3097 175.56 62.3191 175.617 62.3379C175.786 62.4132 175.701 62.385 175.889 62.4132C175.833 62.4132 175.993 62.432 176.031 62.432L176.313 62.3944C176.36 62.385 176.379 62.3662 176.444 62.3379C176.51 62.3097 176.538 62.3003 176.586 62.2721C176.633 62.2439 176.764 62.1404 176.802 62.1028C176.802 62.1028 176.802 62.1028 176.811 62.0934C176.811 62.0934 176.83 62.0746 176.839 62.0652C176.924 61.9711 176.999 61.8676 177.075 61.7642C177.15 61.6419 177.197 61.5102 177.197 61.3691C177.225 61.228 177.225 61.0869 177.178 60.9458C177.15 60.8047 177.084 60.6919 176.99 60.5884C176.915 60.4755 176.821 60.3815 176.689 60.3156L176.435 60.2122C176.247 60.1651 176.059 60.1651 175.871 60.2122L175.617 60.3156C175.457 60.4097 175.335 60.532 175.24 60.6919H175.231C175.287 60.6354 175.344 60.5602 175.4 60.4943C175.372 60.532 175.344 60.5696 175.306 60.5978L175.523 60.4285C175.523 60.4285 175.504 60.4379 175.494 60.4473L175.748 60.3438L176.031 60.3062L176.313 60.3438C176.397 60.3815 176.482 60.4097 176.567 60.4473L176.783 60.6166C176.839 60.6825 176.896 60.7577 176.952 60.833C176.952 60.833 176.952 60.833 176.952 60.8236L177.056 61.0775C177.056 61.0775 177.056 61.0587 177.056 61.0493L177.093 61.3315C177.093 61.2468 177.093 61.1716 177.112 61.0869L175.523 61.9993C175.692 62.1122 175.88 62.1969 176.04 62.3191L175.824 62.1498H175.833C175.777 61.7265 175.72 61.3033 175.664 60.88C175.636 60.9176 175.607 60.9647 175.579 61.0023L175.748 60.7859C175.748 60.7859 175.673 60.8706 175.626 60.9082L175.842 60.7389C175.842 60.7389 175.786 60.7765 175.748 60.7953L176.002 60.6919C176.002 60.6919 175.955 60.7107 175.927 60.7107L176.209 60.6731C176.209 60.6731 176.143 60.6731 176.115 60.6731L176.397 60.7107C176.237 60.6919 176.096 60.5978 175.946 60.5696C175.805 60.5226 175.664 60.5226 175.523 60.5508C175.382 60.5508 175.25 60.5978 175.128 60.6731C175.005 60.7389 174.902 60.833 174.827 60.9458C174.733 61.0493 174.667 61.1716 174.638 61.3033L174.601 61.5855C174.601 61.7736 174.648 61.9523 174.742 62.1216L174.911 62.3379C175.043 62.4696 175.203 62.5637 175.382 62.6107H175.372Z" fill="#050505"/>
<path d="M157.877 70.4648C158.94 71.001 160.896 71.7441 162.053 72.0545C163.982 72.5624 165.976 72.3837 167.951 72.4025C169.926 72.4213 171.629 72.2896 173.529 71.9416C174.516 71.7629 175.871 71.603 177.301 71.1515" fill="#B47BFF"/>
<path d="M157.52 71.0767C158.771 71.6881 160.097 72.2054 161.432 72.6099C163.201 73.1366 165.016 73.1272 166.841 73.1084C170.415 73.0708 174.037 72.8639 177.489 71.8198C178.354 71.5564 177.987 70.1925 177.112 70.4559C173.905 71.4247 170.538 71.6599 167.208 71.6881C165.468 71.6975 163.718 71.7822 162.025 71.3118C160.727 70.945 159.438 70.4465 158.225 69.8539C157.416 69.4588 156.692 70.6722 157.51 71.0767H157.52Z" fill="#050505"/>
<path d="M121.663 215.911C123.168 215.864 124.626 215.413 126.15 215.403C128.539 215.385 134.691 215.968 136.309 213.71C137.616 211.885 137.278 207.643 137.372 205.48C137.588 200.363 137.024 195.255 136.93 190.148C136.835 185.398 137.597 180.798 137.597 176.067C137.597 170.649 137.757 165.194 137.4 159.794C134.653 160.594 130.947 159.983 127.975 160.237C122.755 160.688 115.794 160.904 110.969 162.786C111.458 164.582 111.138 166.858 111.006 168.834C110.611 174.675 110.376 180.497 110.075 186.338C109.633 194.86 109.558 203.251 110.386 211.726C110.687 214.773 110.028 215.686 113.085 216.015C115.897 216.325 118.842 215.996 121.663 215.902V215.911Z" fill="#B47BFF"/>
<path d="M121.663 216.617C123.714 216.504 125.68 216.09 127.749 216.137C129.423 216.174 131.107 216.193 132.772 215.977C134.155 215.789 135.725 215.45 136.694 214.368C137.738 213.202 137.898 211.377 138.002 209.891C138.312 205.113 138.114 200.269 137.861 195.49C137.71 192.725 137.569 189.95 137.682 187.175C137.795 184.382 138.105 181.598 138.237 178.804C138.547 172.521 138.519 166.078 138.114 159.794C138.086 159.343 137.691 158.985 137.221 159.117C134.945 159.728 132.555 159.484 130.223 159.465C128.05 159.446 125.877 159.691 123.704 159.86C119.368 160.199 114.881 160.547 110.78 162.108C110.414 162.249 110.188 162.578 110.291 162.974C110.799 165.109 110.395 167.366 110.254 169.52C110.094 171.9 109.971 174.28 109.849 176.659C109.605 181.504 109.322 186.348 109.153 191.201C108.993 195.961 108.984 200.73 109.219 205.489C109.332 207.775 109.567 210.051 109.727 212.337C109.793 213.324 109.661 214.538 110.188 215.431C110.846 216.551 112.379 216.654 113.527 216.758C116.236 216.993 118.954 216.701 121.663 216.607C122.566 216.579 122.576 215.168 121.663 215.196C119.481 215.271 117.289 215.469 115.098 215.431C114.176 215.413 111.806 215.638 111.326 214.557C111.147 214.152 111.204 213.597 111.175 213.164C111.128 212.224 111.034 211.283 110.95 210.343C110.762 208.113 110.62 205.884 110.545 203.655C110.216 194.653 110.79 185.652 111.251 176.669C111.373 174.214 111.514 171.759 111.674 169.304C111.824 167.075 112.172 164.808 111.646 162.607L111.157 163.472C115.38 161.873 119.989 161.563 124.447 161.224C126.564 161.064 128.68 160.857 130.806 160.895C133.073 160.932 135.377 161.073 137.588 160.481L136.694 159.804C137.033 165.071 136.901 170.338 136.892 175.615C136.882 180.779 136.092 185.915 136.243 191.088C136.393 196.149 136.704 201.162 136.647 206.223C136.628 208.038 136.741 209.919 136.346 211.707C135.979 213.4 135.086 214.086 133.43 214.444C131.653 214.829 129.8 214.773 127.994 214.735C127.241 214.716 126.489 214.679 125.736 214.716C124.363 214.792 123.027 215.14 121.663 215.215C120.76 215.262 120.751 216.673 121.663 216.626V216.617Z" fill="#050505"/>
<path d="M184.026 210.879C183.555 210.832 183.095 210.775 182.634 210.709C179.831 210.333 178.457 209.458 177.15 206.853C175.88 204.323 175.344 201.153 174.648 198.434C173.058 192.198 172.945 185.539 172.4 179.133C171.864 172.859 171.713 166.538 170.735 160.321C170.189 156.859 169.71 153.323 168.929 149.908C168.543 148.206 167.104 145.13 168.167 143.437C169.456 141.386 173.942 140.295 176.143 139.421C179.323 138.141 183.057 137.53 185.926 135.649C187.892 137.746 188.23 143.249 188.832 146.042C189.876 150.971 190.309 155.872 191.146 160.819C191.814 164.751 192.407 168.674 192.416 172.662C192.425 175.248 192.416 177.496 192.802 180.064C193.159 182.463 193.639 184.833 193.658 187.269C193.676 189.122 193.836 191.079 194.495 192.828C194.73 193.468 194.307 193.75 195.313 193.675C195.906 193.628 196.376 193.252 197.006 193.214C201.013 192.951 206.177 193.882 209.206 196.666C211.473 198.745 213.138 202.818 210.448 205.094C207.503 207.587 204.23 209.167 200.486 210.013C195.172 211.208 189.491 211.462 184.045 210.879H184.026Z" fill="#B47BFF"/>
<path d="M184.026 210.173C181.486 209.891 179.417 209.449 178.072 207.088C176.595 204.511 176.125 201.473 175.419 198.623C173.811 192.076 173.613 185.37 173.068 178.682C172.513 171.9 172.174 165.137 171.149 158.402C170.669 155.261 170.312 152.015 169.399 148.959C169.07 147.858 168.656 146.757 168.525 145.61C168.365 144.246 168.882 143.399 170.001 142.685C172.108 141.33 174.705 140.691 177.037 139.835C180.141 138.696 183.443 138.057 186.274 136.27L185.418 136.157C187.205 138.179 187.384 141.622 187.779 144.171C188.343 147.773 189.058 151.348 189.557 154.96C190.149 159.258 190.996 163.538 191.429 167.865C191.833 171.834 191.494 175.851 192.04 179.811C192.341 181.993 192.792 184.156 192.905 186.367C192.999 188.22 192.971 190.063 193.432 191.879C193.648 192.725 193.733 194.202 194.768 194.381C195.436 194.493 196.009 194.192 196.63 194.023C197.458 193.797 198.427 193.873 199.283 193.91C202.49 194.061 206.083 194.879 208.548 197.071C209.667 198.068 210.57 199.403 210.927 200.861C211.36 202.592 210.815 203.9 209.451 204.991C202.5 210.55 192.52 211.067 184.007 210.183C183.104 210.089 183.114 211.5 184.007 211.594C188.268 212.036 192.557 211.989 196.799 211.396C200.647 210.86 204.409 209.901 207.758 207.878C210.401 206.279 213.016 204.36 212.385 200.927C211.821 197.889 209.451 195.528 206.742 194.249C203.807 192.857 200.195 192.198 196.959 192.528C196.593 192.565 196.254 192.659 195.906 192.782C195.746 192.838 195.567 192.885 195.417 192.951L195.182 192.97C194.843 192.941 194.862 193.036 195.238 193.252C195.106 192.452 194.796 191.709 194.636 190.91C194.194 188.746 194.373 186.517 194.109 184.335C193.837 182.106 193.366 179.905 193.206 177.666C193.056 175.55 193.131 173.424 193.056 171.298C192.896 166.802 192.012 162.39 191.363 157.951C190.695 153.408 189.933 148.893 189.199 144.368C188.71 141.34 188.513 137.577 186.387 135.169C186.189 134.943 185.785 134.896 185.531 135.056C182.7 136.853 179.37 137.436 176.275 138.612C174.102 139.44 171.798 140.042 169.757 141.18C168.91 141.65 168.036 142.252 167.528 143.099C166.897 144.143 167.001 145.403 167.227 146.551C167.452 147.698 167.876 148.761 168.167 149.871C168.628 151.649 168.92 153.492 169.221 155.298C169.842 159.098 170.434 162.898 170.773 166.736C171.102 170.414 171.281 174.092 171.572 177.769C172.127 184.88 172.344 192.057 174.055 199.008C174.846 202.225 175.382 205.809 177.338 208.584C178.956 210.879 181.402 211.302 184.026 211.594C184.929 211.697 184.92 210.286 184.026 210.183V210.173Z" fill="#050505"/>
<path d="M150.305 202.093C149.722 203.184 149.712 204.464 150.352 205.536C154.989 204.887 166.756 204.341 168.732 199.309C169.635 196.995 168.844 192.8 168.732 190.345C168.506 185.755 168.412 181.146 168.242 176.556C167.97 169.275 167.866 161.976 167.415 154.734C160.906 154.818 153.983 156.558 147.671 158.261C147.417 160.895 147.22 164.403 147.342 167.037C147.417 168.758 147.859 170.404 147.85 172.163C147.822 176.311 147.38 180.817 147.944 184.955C148.273 187.373 148.339 189.63 148.339 192.076C148.339 192.885 148.273 193.722 148.33 194.531C148.386 195.34 148.762 195.885 148.856 196.657" fill="#B47BFF"/>
<path d="M149.693 201.736C149.035 203.138 149.007 204.511 149.74 205.884C149.9 206.185 150.23 206.251 150.54 206.204C153.616 205.781 156.71 205.546 159.758 204.934C162.806 204.323 166.126 203.523 168.252 201.294C170.763 198.651 169.766 194.428 169.493 191.173C169.023 185.548 169.051 179.858 168.863 174.214C168.647 167.714 168.515 161.215 168.111 154.715C168.092 154.339 167.81 154 167.405 154.01C160.623 154.132 153.992 155.806 147.474 157.565C147.154 157.65 146.984 157.932 146.956 158.242C146.683 161.149 146.467 164.102 146.627 167.018C146.721 168.74 147.116 170.423 147.135 172.145C147.154 173.828 147.05 175.521 146.994 177.205C146.947 178.908 146.909 180.62 146.994 182.331C147.079 184.025 147.351 185.699 147.483 187.392C147.615 189.085 147.652 190.778 147.624 192.471C147.615 193.28 147.539 194.099 147.671 194.907C147.775 195.566 148.047 196.177 148.17 196.836C148.33 197.729 149.693 197.353 149.534 196.459C149.383 195.66 149.063 194.926 149.016 194.108C148.969 193.355 149.044 192.584 149.044 191.832C149.044 190.129 148.997 188.417 148.847 186.724C148.546 183.376 148.32 180.13 148.424 176.763C148.48 175.155 148.574 173.537 148.546 171.928C148.518 170.32 148.132 168.664 148.047 167.018C147.887 164.102 148.104 161.149 148.377 158.242L147.859 158.92C154.255 157.198 160.755 155.543 167.415 155.421L166.709 154.715C167.377 165.654 167.48 176.622 167.913 187.571C167.998 189.781 168.195 191.954 168.374 194.155C168.506 195.867 168.75 198.011 167.828 199.554C166.352 202.037 162.693 202.865 160.087 203.429C156.814 204.135 153.484 204.379 150.173 204.84L150.973 205.16C150.502 204.267 150.493 203.354 150.926 202.432C151.311 201.614 150.098 200.899 149.703 201.717L149.693 201.736Z" fill="#050505"/>
<path d="M81.4053 142.158L80.982 142.196C80.7845 152.054 80.6058 161.939 79.4677 171.769C79.0162 173.998 80.9914 179.689 77.3231 179.444C70.2497 180.996 62.706 182.906 61.9629 191.578C64.2674 201.539 85.5158 198.539 93.0689 196.733C95.3546 176.293 95.4674 155.515 96.7373 135.01" fill="#B47BFF"/>
<path d="M81.4052 141.452L80.9819 141.49C80.5962 141.528 80.2858 141.782 80.2764 142.196C80.173 147.284 80.0789 152.373 79.8531 157.452C79.6368 162.353 79.1289 167.206 78.715 172.088C78.6115 173.33 78.8373 174.59 78.8843 175.832C78.9219 176.716 79.0536 178.315 78.0001 178.682C77.4076 178.889 76.6175 178.87 75.9778 179.011C75.1125 179.209 74.2471 179.415 73.3912 179.641C71.9332 180.027 70.5035 180.488 69.1208 181.09C66.3742 182.275 63.8722 184.119 62.5177 186.846C61.8405 188.201 61.1726 190.026 61.2573 191.568C61.3137 192.565 61.9533 193.685 62.5271 194.465C65.4618 198.463 71.3783 199.131 75.9402 199.281C81.7156 199.469 87.632 198.745 93.2474 197.409C93.5767 197.334 93.7272 197.033 93.7648 196.732C95.5425 180.742 96.0128 164.648 96.7277 148.582C96.9252 144.058 97.151 139.524 97.4332 135.009C97.4896 134.106 96.0787 134.106 96.0222 135.009C95.0346 151.065 94.7524 167.15 93.5861 183.197C93.2568 187.721 92.8524 192.236 92.3539 196.742L92.8712 196.064C88.1211 197.193 83.2017 197.823 78.32 197.898C73.7768 197.974 67.5688 197.833 64.1826 194.277C63.5336 193.6 62.8751 192.64 62.7152 191.69C62.4613 190.185 63.3737 188.097 64.1355 186.837C65.7158 184.25 68.4718 182.745 71.256 181.776C72.7327 181.259 74.2471 180.873 75.7709 180.516C76.8714 180.262 78.414 180.347 79.2982 179.547C80.9537 178.061 80.1824 175.079 80.0977 173.17C80.0131 171.185 80.4551 169.144 80.6244 167.159C80.869 164.394 81.0477 161.619 81.1794 158.844C81.4522 153.304 81.5557 147.745 81.6685 142.205L80.9631 142.91L81.3863 142.873C82.2799 142.788 82.2893 141.377 81.3863 141.462L81.4052 141.452Z" fill="#050505"/>
<path d="M102.061 139.157C99.6906 150.821 101.318 162.719 100.34 174.477C99.7471 181.55 97.5554 189.875 100.622 196.487C102.654 197.701 104.648 195.688 106.802 196.017C112.474 195.349 118.606 195.443 123.911 193.346C132.96 187.636 122.717 177.967 115.098 179.923C114.834 165.889 115.784 151.583 118.183 137.756" fill="#B47BFF"/>
<path d="M101.384 138.97C99.6247 147.84 100.057 156.879 99.9821 165.862C99.9445 170.095 99.7188 174.299 99.192 178.494C98.6935 182.426 98.0915 186.414 98.4113 190.383C98.5618 192.227 98.9004 194.061 99.5683 195.792C99.8316 196.469 99.9727 196.987 100.669 197.297C101.318 197.589 102.023 197.636 102.729 197.532C103.566 197.41 104.347 197.09 105.155 196.874C106.087 196.629 107.074 196.695 108.024 196.591C110.094 196.385 112.172 196.253 114.251 196.055C116.33 195.858 118.239 195.623 120.196 195.199C121.964 194.814 123.817 194.4 125.266 193.271C127.203 191.766 128.492 189.556 128.097 187.044C127.213 181.429 120.074 178.024 114.928 179.247L115.822 179.924C115.568 165.871 116.49 151.8 118.879 137.935C119.03 137.051 117.675 136.665 117.515 137.559C115.107 151.536 114.157 165.739 114.411 179.914C114.411 180.385 114.853 180.705 115.305 180.592C119.556 179.576 125.303 182.247 126.573 186.63C127.26 189.02 125.896 191.277 123.874 192.537C122.397 193.45 120.309 193.751 118.616 194.061C116.763 194.39 114.891 194.579 113.01 194.738C111.128 194.898 109.416 195.021 107.629 195.209C106.905 195.284 106.171 195.228 105.456 195.35C104.742 195.472 104.046 195.745 103.331 195.942C102.39 196.206 101.468 196.403 100.951 195.406C100.584 194.701 100.405 193.807 100.236 193.036C99.8598 191.324 99.7376 189.575 99.7564 187.825C99.7846 184.364 100.321 180.93 100.744 177.507C101.205 173.782 101.374 170.047 101.412 166.304C101.515 157.293 101.007 148.225 102.766 139.327C102.945 138.443 101.581 138.057 101.402 138.951L101.384 138.97Z" fill="#050505"/>
<path d="M172.024 148.94C171.732 147.614 170.509 146.777 169.597 145.798C168.431 144.547 167.565 143.767 165.976 143.908C165.026 143.992 164.16 143.578 163.22 143.654C162.119 143.748 161.639 144.82 161.103 145.723C158.921 149.438 159.316 154.997 159.401 159.117C159.448 161.45 159.824 163.501 160.275 165.777C160.83 168.58 161.056 171.383 161.31 174.224C161.752 179.03 162.467 183.818 162.74 188.643C162.843 190.543 163.718 193.233 161.131 193.647C158.281 194.099 155.648 194.475 152.882 195.472C150.145 196.46 147.953 197.25 146.1 199.545C144.737 201.238 143.128 203.373 143.156 205.593C143.185 208.142 143.664 209.967 145.245 212.017C147.276 214.651 151.763 215.554 154.942 215.78C158.018 215.996 161.028 214.406 164.038 213.889C168.111 213.184 172.137 212.205 176.219 211.519C177.639 211.284 179.417 211.293 179.878 209.939C180.282 208.744 179.906 206.355 179.727 205.17C177.978 193.638 177.517 181.937 176.087 170.329C175.212 163.181 173.557 155.976 172.005 148.949L172.024 148.94Z" fill="#B47BFF"/>
<path d="M172.71 148.752C172.334 147.435 171.403 146.589 170.462 145.657C169.569 144.773 168.722 143.72 167.462 143.344C166.831 143.155 166.229 143.24 165.58 143.212C164.724 143.174 163.906 142.845 163.041 142.977C161.79 143.174 161.169 144.218 160.586 145.234C159.165 147.717 158.751 150.549 158.648 153.37C158.545 156.371 158.582 159.484 158.996 162.457C159.25 164.3 159.683 166.116 159.955 167.959C160.228 169.803 160.407 171.835 160.586 173.772C160.924 177.525 161.432 181.269 161.78 185.022C161.931 186.602 161.997 188.192 162.166 189.763C162.269 190.675 162.608 192.227 161.611 192.763C160.962 193.111 159.993 193.102 159.278 193.215C158.319 193.375 157.359 193.535 156.4 193.741C154.726 194.099 153.108 194.616 151.499 195.218C148.781 196.234 146.702 197.589 144.925 199.902C143.993 201.116 143.1 202.433 142.686 203.919C142.319 205.245 142.432 206.703 142.686 208.048C143.147 210.616 144.689 213.024 146.966 214.35C149.242 215.677 151.847 216.175 154.387 216.41C157.717 216.721 160.661 215.263 163.85 214.614C167.659 213.842 171.469 213.062 175.297 212.375C177.488 211.98 180.423 212.093 180.743 209.28C180.884 208.011 180.696 206.713 180.508 205.461C180.235 203.608 179.972 201.765 179.746 199.902C178.805 192.199 178.288 184.458 177.526 176.735C176.774 169.154 175.551 161.714 173.933 154.264C173.528 152.42 173.124 150.577 172.72 148.743C172.522 147.858 171.168 148.235 171.356 149.119C172.87 155.995 174.46 162.88 175.353 169.869C176.247 176.886 176.745 183.94 177.394 190.976C177.705 194.343 178.043 197.701 178.476 201.05C178.674 202.564 178.881 204.069 179.106 205.574C179.285 206.75 179.652 208.312 179.285 209.497C178.928 210.672 177.366 210.625 176.341 210.776C174.582 211.039 172.832 211.406 171.083 211.764C167.772 212.441 164.358 212.911 161.122 213.88C159.626 214.322 158.121 214.849 156.569 215.018C155.196 215.169 153.776 214.99 152.421 214.745C150.032 214.313 147.37 213.523 145.799 211.538C144.087 209.365 143.222 206.016 144.388 203.411C145.555 200.805 147.699 198.454 150.286 197.241C153.108 195.914 156.174 195.162 159.241 194.654C160.351 194.466 161.752 194.485 162.674 193.76C163.389 193.196 163.643 192.34 163.69 191.456C163.737 190.515 163.539 189.575 163.464 188.643C163.342 186.913 163.21 185.182 163.031 183.461C162.683 180.084 162.26 176.716 161.959 173.34C161.79 171.496 161.62 169.652 161.357 167.818C161.094 165.984 160.661 164.15 160.398 162.297C159.965 159.212 159.937 155.938 160.097 152.834C160.181 151.235 160.379 149.627 160.858 148.094C161.225 146.927 162.147 144.341 163.633 144.378C164.423 144.397 165.195 144.623 165.985 144.632C166.972 144.642 167.593 144.858 168.336 145.526C169.399 146.485 170.961 147.746 171.356 149.138C171.6 150.012 172.964 149.636 172.72 148.761L172.71 148.752Z" fill="#050505"/>
<path d="M125.859 74.8395C125.859 74.3316 125.812 73.5885 125.812 73.0806C125.812 72.5726 125.605 70.3998 125.699 70.1741C125.962 70.1082 127.354 69.9389 127.599 69.8919C127.843 69.8449 130.835 69.6755 130.835 69.6755C130.835 69.6755 131.004 70.6256 131.023 71.0112C131.051 71.5756 131.154 71.9894 131.192 72.5538C131.23 73.0806 131.361 73.7766 131.361 74.3127" fill="#B47BFF"/>
<path d="M126.564 74.8386C126.564 73.9638 126.526 73.0796 126.47 72.2049C126.442 71.8004 126.414 71.396 126.395 70.9821C126.395 70.8128 126.376 70.6529 126.376 70.4836C126.376 70.4271 126.385 70.3519 126.376 70.2954C126.367 70.2202 126.329 70.4836 126.376 70.3519L125.887 70.841C126.113 70.7846 126.357 70.7563 126.583 70.7281C126.611 70.7281 126.874 70.6905 126.715 70.7093C126.78 70.7093 126.846 70.6905 126.903 70.6811C127.081 70.6529 127.26 70.6341 127.439 70.6058C127.542 70.587 127.646 70.5776 127.749 70.5588C127.9 70.5306 127.514 70.5776 127.702 70.5588C127.89 70.54 128.069 70.5306 128.257 70.5118C129.113 70.4553 129.96 70.3989 130.816 70.3519L130.138 69.8345C130.176 70.0509 130.214 70.2672 130.251 70.493C130.251 70.5212 130.289 70.794 130.27 70.6435C130.279 70.7187 130.289 70.8034 130.298 70.8786C130.317 71.0762 130.327 71.2737 130.345 71.4712C130.458 72.393 130.628 73.343 130.637 74.2742C130.646 75.2054 132.057 75.1866 132.048 74.2742C132.038 73.3148 131.841 72.3178 131.747 71.3771C131.681 70.7375 131.615 70.0979 131.502 69.4583C131.455 69.1667 131.107 68.9221 130.825 68.941C129.696 69.0068 128.539 69.0068 127.429 69.1761C127.345 69.1855 127.26 69.2043 127.175 69.2137C127.091 69.2231 126.997 69.242 126.912 69.2514C127.072 69.2326 126.743 69.2702 126.696 69.2796C126.32 69.3266 125.915 69.3454 125.539 69.4489C124.993 69.5994 124.965 70.1261 124.974 70.587C124.974 70.9821 125.012 71.3771 125.04 71.7816C125.106 72.7881 125.153 73.7945 125.163 74.801C125.163 75.704 126.573 75.7134 126.573 74.801L126.564 74.8386Z" fill="#050505"/>
<path d="M122.322 70.8319C122.632 71.0671 122.792 71.6409 122.322 71.8008C121.917 71.9419 121.466 71.5374 121.56 71.1141C121.654 70.6909 122.491 70.4463 122.529 71.0577C122.548 71.3775 122.105 71.7537 121.889 71.3775" fill="#B47BFF"/>
<path d="M121.823 71.3302C121.87 71.3678 121.918 71.4148 121.955 71.4618L121.842 71.3208C121.88 71.3772 121.918 71.4336 121.946 71.4995L121.87 71.3302C121.899 71.3866 121.908 71.4524 121.918 71.5089L121.889 71.3208C121.889 71.3208 121.889 71.4148 121.889 71.4618L121.918 71.2737C121.918 71.2737 121.899 71.349 121.889 71.3866L121.965 71.2173C121.965 71.2173 121.936 71.2643 121.918 71.2925L122.03 71.1514C122.03 71.1514 121.983 71.1985 121.955 71.2267L122.096 71.1138C122.096 71.1138 122.03 71.1609 121.983 71.1797L122.153 71.1044C122.153 71.1044 122.059 71.1326 122.012 71.142L122.2 71.1138C122.2 71.1138 122.106 71.1138 122.059 71.1138L122.247 71.142C122.2 71.142 122.153 71.1232 122.106 71.1044L122.275 71.1797C122.228 71.1609 122.181 71.1326 122.134 71.095L122.275 71.2079C122.228 71.1703 122.19 71.1326 122.153 71.0856L122.266 71.2267C122.266 71.2267 122.209 71.142 122.19 71.095L122.266 71.2643C122.247 71.2173 122.228 71.1703 122.228 71.1138L122.256 71.3019C122.256 71.2549 122.256 71.2079 122.256 71.1609L122.228 71.349C122.228 71.349 122.247 71.2737 122.256 71.2361L122.181 71.4054C122.181 71.4054 122.219 71.3302 122.247 71.3019L122.134 71.443C122.134 71.443 122.2 71.3678 122.237 71.3396L122.096 71.4524C122.143 71.4148 122.2 71.3866 122.256 71.3584L122.087 71.4336C122.143 71.4148 122.2 71.396 122.256 71.3866L122.068 71.4148C122.068 71.4148 122.162 71.4148 122.209 71.4148L122.021 71.3866C122.021 71.3866 122.096 71.4054 122.124 71.4148L121.955 71.3396C121.955 71.3396 122.002 71.3678 122.03 71.3866L121.889 71.2737C121.889 71.2737 121.927 71.3113 121.946 71.3302L121.833 71.1891C121.833 71.1891 121.861 71.2361 121.88 71.2643L121.805 71.095C121.805 71.095 121.833 71.1797 121.833 71.2173L121.805 71.0292C121.805 71.0292 121.805 71.1044 121.805 71.1514L121.833 70.9633C121.833 70.9633 121.814 71.0386 121.805 71.0668L121.88 70.8975C121.88 70.8975 121.833 70.9821 121.805 71.0292L121.918 70.8881C121.918 70.8881 121.861 70.9539 121.833 70.9727L121.974 70.8599C121.974 70.8599 121.918 70.8975 121.88 70.9163L122.049 70.841C122.049 70.841 121.993 70.8599 121.965 70.8693L122.153 70.841C122.153 70.841 122.115 70.841 122.096 70.841L122.284 70.8693C122.284 70.8693 122.237 70.8693 122.219 70.8504L122.388 70.9257C122.388 70.9257 122.35 70.9069 122.331 70.8975L122.472 71.0104C122.472 71.0104 122.435 70.9727 122.416 70.9539L122.529 71.095C122.529 71.095 122.51 71.0668 122.501 71.048C122.407 70.8975 122.256 70.7752 122.077 70.7282C121.983 70.7 121.889 70.6905 121.795 70.7188C121.701 70.7188 121.617 70.747 121.532 70.8034C121.381 70.8975 121.25 71.048 121.212 71.2267C121.174 71.4054 121.184 71.6029 121.287 71.7723C121.419 71.9886 121.645 72.1955 121.899 72.252C122.087 72.2896 122.171 72.2896 122.36 72.252C122.463 72.2332 122.557 72.1861 122.642 72.1391C122.999 71.9322 123.244 71.5277 123.244 71.1138C123.244 70.7282 123.056 70.3613 122.726 70.1638C122.463 70.0039 122.115 69.9851 121.823 70.0603C121.701 70.098 121.579 70.145 121.466 70.2108C121.353 70.2767 121.25 70.3519 121.165 70.446C121.033 70.5965 120.958 70.7188 120.892 70.9163C120.826 71.1232 120.836 71.3584 120.883 71.5653C120.93 71.7722 121.052 71.9604 121.184 72.1203C121.212 72.1579 121.25 72.1955 121.297 72.2237C121.381 72.2896 121.466 72.3648 121.56 72.4025C121.758 72.4965 121.965 72.5718 122.19 72.553C122.294 72.553 122.407 72.5341 122.51 72.4965C122.614 72.4589 122.717 72.4213 122.802 72.3648C122.886 72.3084 122.971 72.252 123.037 72.1673C123.159 72.0168 123.206 71.9416 123.272 71.7534C123.347 71.5465 123.319 71.3396 123.291 71.1326C123.291 71.0856 123.272 71.0386 123.253 70.9915C123.216 70.8975 123.178 70.794 123.121 70.7094C123.046 70.5777 122.943 70.446 122.821 70.3519C122.755 70.2861 122.679 70.2391 122.595 70.2014C122.51 70.1544 122.416 70.1356 122.322 70.145C122.228 70.145 122.134 70.1638 122.049 70.2014C121.965 70.2297 121.889 70.2767 121.823 70.3519C121.701 70.4836 121.607 70.6623 121.617 70.8504L121.645 71.0386C121.682 71.1609 121.739 71.2643 121.823 71.349V71.3302Z" fill="#050505"/>
<path d="M134.813 69.6186C134.832 68.8755 136.28 69.2329 135.932 69.9478C135.754 70.3241 134.926 70.5968 134.766 70.0325C134.681 69.7127 135.076 69.374 135.359 69.2988C135.707 69.2047 135.961 69.4869 136.017 69.8255C136.158 70.5592 135.02 70.3899 135.133 69.8255" fill="#B47BFF"/>
<path d="M135.519 69.6185C135.519 69.6185 135.519 69.5809 135.519 69.5621L135.49 69.7502C135.49 69.7502 135.509 69.6749 135.519 69.6373L135.443 69.8066C135.443 69.8066 135.472 69.7502 135.49 69.7314L135.378 69.8725C135.378 69.8725 135.425 69.8254 135.443 69.8066L135.302 69.9195C135.302 69.9195 135.359 69.8819 135.396 69.8631L135.227 69.9383C135.227 69.9383 135.321 69.9101 135.368 69.9007L135.18 69.9289C135.246 69.9289 135.321 69.9289 135.387 69.9289L135.199 69.9007C135.274 69.9101 135.349 69.9289 135.415 69.9571L135.246 69.8819C135.312 69.9101 135.368 69.9383 135.415 69.9759L135.274 69.8631C135.274 69.8631 135.349 69.9289 135.378 69.9665L135.265 69.8254C135.265 69.8254 135.312 69.8913 135.321 69.9289L135.246 69.7596C135.246 69.7596 135.265 69.8254 135.274 69.8631L135.246 69.6749C135.246 69.6749 135.246 69.7502 135.246 69.7784L135.274 69.5903C135.274 69.5903 135.255 69.6749 135.236 69.7126L135.312 69.5432C135.312 69.5432 135.265 69.6279 135.236 69.6655L135.349 69.5244C135.349 69.5244 135.274 69.6091 135.227 69.6467L135.368 69.5338C135.302 69.5809 135.227 69.6279 135.152 69.6561L135.321 69.5809C135.246 69.6091 135.18 69.6279 135.105 69.6467L135.293 69.6185C135.236 69.6185 135.171 69.6279 135.114 69.6185L135.302 69.6467C135.302 69.6467 135.218 69.6279 135.18 69.6185L135.349 69.6937C135.349 69.6937 135.283 69.6561 135.255 69.6373L135.396 69.7502C135.396 69.7502 135.349 69.7126 135.331 69.6843L135.443 69.8254C135.443 69.8254 135.406 69.7596 135.387 69.7314L135.462 69.9007C135.462 69.9007 135.434 69.8254 135.434 69.7878L135.462 69.9759C135.462 69.9759 135.462 69.9195 135.462 69.8819L135.434 70.07C135.434 70.07 135.453 69.9853 135.472 69.9477L135.396 70.117C135.415 70.07 135.443 70.023 135.481 69.9759L135.368 70.117C135.415 70.0512 135.481 69.9947 135.537 69.9477L135.396 70.0606C135.462 70.0042 135.537 69.9571 135.622 69.9289L135.453 70.0042C135.5 69.9853 135.556 69.9665 135.603 69.9665L135.415 69.9947C135.415 69.9947 135.49 69.9947 135.528 69.9947L135.34 69.9665C135.34 69.9665 135.425 69.9853 135.462 69.9947L135.293 69.9195C135.293 69.9195 135.368 69.9571 135.396 69.9853L135.255 69.8725C135.255 69.8725 135.321 69.9383 135.359 69.9759L135.246 69.8348C135.283 69.8913 135.321 69.9477 135.349 70.0136L135.274 69.8442C135.302 69.9101 135.321 69.9759 135.331 70.0512L135.302 69.8631C135.302 69.8631 135.302 69.9571 135.302 70.0042L135.331 69.816C135.331 69.816 135.321 69.8819 135.302 69.9101L135.378 69.7408C135.378 69.7408 135.349 69.7972 135.331 69.816L135.443 69.6749C135.443 69.6749 135.406 69.7126 135.387 69.7314L135.528 69.6185C135.528 69.6185 135.472 69.6561 135.443 69.6655L135.613 69.5903C135.613 69.5903 135.537 69.6185 135.49 69.6185L135.679 69.5903C135.632 69.5903 135.584 69.5903 135.528 69.5903L135.716 69.6185C135.66 69.6185 135.613 69.5997 135.566 69.5809L135.735 69.6561C135.735 69.6561 135.65 69.6185 135.613 69.5903L135.754 69.7032C135.754 69.7032 135.697 69.6561 135.679 69.6279L135.791 69.769C135.791 69.769 135.754 69.7126 135.744 69.6843L135.82 69.8537C135.82 69.8537 135.801 69.7972 135.801 69.769L135.829 69.9571C135.829 69.9571 135.829 69.8913 135.829 69.8631L135.801 70.0512C135.801 70.0512 135.801 70.0324 135.801 70.023C135.838 69.8348 135.829 69.6467 135.726 69.4774C135.641 69.3269 135.472 69.1952 135.302 69.1576C135.124 69.12 134.917 69.1294 134.757 69.2329C134.606 69.3269 134.465 69.4774 134.437 69.6561C134.399 69.8537 134.399 69.9759 134.437 70.1641C134.437 70.1829 134.446 70.2111 134.456 70.2299C134.484 70.3051 134.512 70.3898 134.559 70.4556C134.663 70.6344 134.823 70.7943 135.011 70.8789C135.105 70.926 135.208 70.973 135.312 70.9918C135.415 71.0106 135.528 71.0294 135.632 71.0294C135.838 71.0294 136.064 70.973 136.233 70.8601C136.45 70.7096 136.638 70.4933 136.685 70.2205C136.723 70.0136 136.713 69.8913 136.685 69.6843C136.666 69.5432 136.6 69.4116 136.544 69.2799C136.525 69.2423 136.506 69.2046 136.478 69.167C136.422 69.0918 136.365 69.0071 136.299 68.9413C136.158 68.8002 135.998 68.7061 135.81 68.6403C135.716 68.612 135.613 68.6026 135.519 68.5932C135.415 68.5932 135.312 68.6026 135.218 68.6215C135.086 68.6497 134.954 68.7061 134.832 68.7719C134.71 68.8378 134.587 68.9319 134.484 69.0259C134.38 69.12 134.286 69.2423 134.211 69.3645C134.108 69.5338 134.051 69.7314 134.051 69.9289C134.051 70.023 134.061 70.1264 134.089 70.2111C134.117 70.2957 134.155 70.3992 134.192 70.4745C134.211 70.5027 134.221 70.5309 134.239 70.5591C134.286 70.625 134.343 70.7002 134.409 70.7566C134.55 70.8789 134.681 70.9542 134.86 71.0106C135.086 71.0859 135.359 71.067 135.584 71.0106C135.707 70.9824 135.82 70.926 135.932 70.8789C135.998 70.8507 136.055 70.8131 136.102 70.7755C136.196 70.7096 136.29 70.6344 136.365 70.5497C136.487 70.3992 136.553 70.2863 136.629 70.1076C136.704 69.9007 136.713 69.6467 136.647 69.4398C136.629 69.3645 136.591 69.2893 136.553 69.214C136.544 69.1952 136.534 69.167 136.516 69.1482C136.459 69.0635 136.393 68.9695 136.309 68.9036C136.017 68.6497 135.641 68.4898 135.246 68.5086C135.03 68.5086 134.813 68.565 134.625 68.6779C134.39 68.819 134.23 69.0353 134.145 69.2893C134.108 69.3928 134.098 69.515 134.089 69.6279C134.089 69.8066 134.174 70.0041 134.296 70.1264C134.418 70.2487 134.616 70.3428 134.794 70.3334C134.973 70.324 135.171 70.2675 135.293 70.1264C135.415 69.9853 135.49 69.8254 135.5 69.6279L135.519 69.6185Z" fill="#050505"/>
<path d="M126.066 78.8938C126.066 79.4111 126.047 79.872 126.188 80.3705C126.31 80.8126 126.479 81.1889 126.752 81.5651C127.091 82.0354 127.589 82.5716 128.201 82.7032C128.652 82.7973 129.085 82.9196 129.555 82.9196C129.931 82.9196 130.148 82.8349 130.477 82.675C130.74 82.5527 131.013 82.4681 131.258 82.3082C131.427 82.1953 131.625 82.0918 131.747 81.9225C131.963 81.6215 132.085 81.3111 132.189 80.9631C132.368 80.3517 132.443 79.7591 132.433 79.1195C132.433 78.8373 132.33 78.5928 132.33 78.3106C132.33 78.1413 132.358 77.9814 132.311 77.8121C132.292 77.718 132.217 77.6616 132.236 77.5581V77.6239" fill="#B47BFF"/>
<path d="M125.36 78.893C125.36 79.9183 125.473 80.906 126.056 81.7901C126.31 82.1664 126.602 82.5332 126.95 82.8154C127.354 83.1446 127.778 83.3233 128.286 83.4362C128.793 83.5491 129.292 83.6525 129.8 83.6055C130.308 83.5585 130.759 83.3045 131.22 83.107C131.681 82.9095 132.095 82.6367 132.377 82.2322C132.659 81.8278 132.819 81.3386 132.932 80.8683C133.073 80.2946 133.167 79.6549 133.12 79.0624C133.101 78.7708 133.017 78.498 133.026 78.2158C133.026 78.0465 133.026 77.896 132.998 77.7267C132.998 77.6797 132.979 77.642 132.97 77.595C132.951 77.5574 132.942 77.5198 132.923 77.4821C132.866 77.341 132.876 77.3693 132.923 77.5668C132.904 77.1905 132.612 76.8613 132.217 76.8613C131.841 76.8613 131.502 77.1811 131.512 77.5668V77.6326C131.549 78.5356 132.96 78.545 132.923 77.6326V77.5668H131.512C131.521 77.7643 131.596 77.8772 131.634 78.0559C131.606 77.9242 131.615 78.1029 131.615 78.1217C131.578 78.4039 131.662 78.6955 131.7 78.9683C131.766 79.448 131.7 79.9747 131.587 80.4451C131.502 80.7931 131.399 81.3104 131.117 81.555C130.806 81.8372 130.261 82.0347 129.875 82.1664C129.461 82.3075 128.963 82.157 128.549 82.0629C128.135 81.9688 127.853 81.7901 127.561 81.4609C127.288 81.1599 127.072 80.8213 126.94 80.4356C126.762 79.9277 126.762 79.4386 126.762 78.9025C126.762 77.9901 125.351 77.9901 125.351 78.9025L125.36 78.893Z" fill="#050505"/>
<path d="M124.965 96.8674C126.931 107.355 116.152 111.851 107.554 112.425C98.7409 113.723 78.5084 113.638 78.5272 101.298C72.9306 96.4159 77.2103 86.6524 83.155 83.7929C96.8033 79.4097 124.072 76.8794 124.965 96.8674Z" fill="#B47BFF"/>
<path d="M124.278 97.0555C125.181 102.154 122.642 106.32 118.24 108.775C114.298 110.967 109.878 111.531 105.466 111.974C101.487 112.378 97.4332 112.397 93.4639 111.908C89.4945 111.419 85.337 110.487 82.3082 107.92C80.9537 106.781 79.9473 105.314 79.5052 103.593C79.3923 103.151 79.3077 102.699 79.2701 102.238C79.2324 101.834 79.3359 101.298 79.129 100.931C78.8656 100.46 78.273 100.084 77.9438 99.6327C77.5393 99.0872 77.2289 98.4758 77.0126 97.8362C75.423 93.1331 78.5552 87.4142 82.5434 84.9216C84.0954 83.9528 86.1271 83.6236 87.886 83.2003C89.8237 82.7394 91.7896 82.3631 93.7649 82.0715C97.9318 81.4601 102.193 81.225 106.397 81.5918C110.602 81.9587 115.098 83.0122 118.606 85.58C122.115 88.1479 124.024 92.4089 124.25 96.8579C124.297 97.7609 125.708 97.7703 125.661 96.8579C125.445 92.597 123.977 88.4865 120.779 85.5518C117.75 82.7676 113.734 81.3191 109.736 80.623C101.12 79.118 91.8366 80.3596 83.5404 82.9275C78.8468 84.376 75.4888 90.0573 75.2254 94.751C75.1502 96.002 75.3101 97.3 75.7428 98.4758C75.9403 99.0119 76.1848 99.5199 76.4953 99.9996C76.8339 100.536 77.3606 100.959 77.6898 101.486C77.8591 101.749 77.8497 102.313 77.9156 102.793C77.9814 103.301 78.0849 103.8 78.226 104.279C78.4893 105.164 78.8844 106.019 79.4017 106.791C81.7062 110.224 85.892 111.851 89.7767 112.707C94.1975 113.676 98.8159 113.836 103.321 113.554C111.712 113.027 124.598 111.099 125.811 100.658C125.971 99.3223 125.868 97.9961 125.633 96.6792C125.473 95.7856 124.118 96.1619 124.269 97.0555H124.278Z" fill="#050505"/>
<path d="M197.495 140.286L194.504 127.24C194.504 127.24 202.443 127.212 205.575 126.816C207.475 126.675 212.244 127.08 212.244 127.08L215.696 91.3931C215.696 91.3931 201.389 91.7129 194.184 92.4371C188.324 93.0297 179.153 93.5565 173.227 93.7258C172.165 95.1085 170.979 96.7263 168.722 98.711C150.239 113.958 102.512 112.19 82.4209 100.517C76.9841 97.5635 76.1 94.8357 76.1 94.8357L27.9031 102.793C27.9031 102.793 32.973 114.918 33.321 115.858C35.2775 121.239 37.629 123.299 38.4567 126.619C39.6889 129.431 43.3479 137.549 43.3479 137.549L70.033 130.974L71.0771 168.909C71.0771 168.909 89.6918 166.51 99.0979 166.473C113.376 166.52 127.438 164.77 141.548 162.804C159.937 160.678 199.602 155.994 199.602 155.994L197.486 140.277L197.495 140.286Z" fill="#FEFEFE"/>
<path d="M198.182 140.098C197.185 135.752 196.188 131.407 195.191 127.052L194.513 127.945C200.449 127.917 206.337 127.287 212.263 127.795C212.667 127.832 212.931 127.437 212.968 127.089C213.975 116.648 214.991 106.208 215.997 95.7669C216.138 94.3089 216.279 92.8604 216.42 91.4024C216.458 91.0262 216.072 90.6876 215.715 90.697C207.381 90.8851 199.104 91.3648 190.798 92.042C187.562 92.3054 184.317 92.5123 181.082 92.6911C179.558 92.7757 178.034 92.851 176.51 92.9074C175.786 92.9356 175.062 92.9638 174.337 92.9921C173.82 93.0109 173.18 92.898 172.748 93.2366C172.353 93.5376 172.042 94.1678 171.732 94.5535C171.262 95.1461 170.772 95.7198 170.255 96.2748C169.324 97.2718 168.317 98.203 167.217 99.0214C165.552 100.254 163.755 101.316 161.902 102.238C153.145 106.593 143.053 108.221 133.374 108.804C122.848 109.434 112.163 108.757 101.835 106.603C97.2919 105.653 92.7958 104.42 88.4878 102.68C86.6254 101.928 84.8194 101.062 83.0699 100.084C80.9159 98.8709 78.5926 97.4976 77.2005 95.3906C77.0406 95.1461 76.8054 94.7134 76.7866 94.6663C76.6549 94.2807 76.3163 94.1114 75.9213 94.1772C70.4751 95.0802 65.029 95.9738 59.5735 96.8768C50.9386 98.3065 42.3038 99.7268 33.669 101.157C31.6843 101.486 29.6997 101.815 27.715 102.135C27.3669 102.191 27.0848 102.68 27.2259 103C28.8625 106.922 30.5086 110.835 32.117 114.767C33.2269 117.476 34.3651 120.091 35.8418 122.631C37.3092 125.142 38.2404 127.908 39.4256 130.56C40.5261 133.015 41.6266 135.461 42.7271 137.906C42.8588 138.188 43.2444 138.301 43.5266 138.226C51.3055 136.307 59.0843 134.398 66.8632 132.479C67.9825 132.206 69.0924 131.933 70.2118 131.651L69.3182 130.974C69.6192 142.073 69.9296 153.182 70.2306 164.281C70.2682 165.824 70.3152 167.366 70.3529 168.909C70.3623 169.257 70.6727 169.661 71.0583 169.614C77.699 168.758 84.3679 168.043 91.0369 167.554C96.3513 167.159 101.656 167.244 106.971 167.028C113.988 166.745 120.986 166.106 127.956 165.278C137.87 164.112 147.775 162.785 157.689 161.619C166.559 160.584 175.438 159.54 184.308 158.487C189.397 157.885 194.485 157.283 199.574 156.681C200.072 156.624 200.317 156.276 200.251 155.787C199.546 150.548 198.84 145.309 198.135 140.07C198.013 139.176 196.658 139.552 196.771 140.446C197.476 145.685 198.182 150.924 198.887 156.163L199.565 155.27C186.697 156.794 173.829 158.308 160.962 159.813C151.631 160.904 142.319 162.033 133.007 163.227C126.046 164.121 119.058 164.892 112.05 165.334C106.181 165.711 100.311 165.579 94.4513 165.899C86.6254 166.322 78.8183 167.187 71.0489 168.184L71.7544 168.89C71.4534 157.791 71.143 146.682 70.842 135.583C70.8043 134.04 70.7573 132.498 70.7197 130.955C70.7103 130.485 70.2776 130.165 69.8261 130.278C62.0473 132.197 54.2684 134.106 46.4896 136.025C45.3702 136.298 44.2603 136.571 43.141 136.853L43.9405 137.173C43.0281 135.15 42.1157 133.128 41.2127 131.106C40.6107 129.77 40.0182 128.444 39.4256 127.108C38.833 125.772 38.485 124.484 37.8077 123.223C36.9518 121.634 35.9735 120.119 35.1834 118.492C34.6096 117.316 34.1676 116.093 33.6784 114.889C32.7566 112.623 31.816 110.365 30.866 108.108C30.1041 106.273 29.3328 104.439 28.5709 102.596L28.0818 103.461C33.5279 102.558 38.9741 101.664 44.4296 100.761C53.0644 99.3318 61.6992 97.9114 70.334 96.4817C72.3187 96.1525 74.3034 95.8233 76.2881 95.5035L75.4227 95.0144C76.147 97.1684 78.4421 98.8521 80.2387 100.028C82.9664 101.824 85.9952 103.216 89.0334 104.383C95.6647 106.932 102.691 108.409 109.717 109.33C117.543 110.365 125.482 110.657 133.364 110.186C140.72 109.744 148.123 108.663 155.158 106.415C158.592 105.314 161.968 103.922 165.082 102.088C168.6 100.009 171.365 97.3095 173.839 94.0643L173.227 94.4124C185.85 94.0455 198.408 92.6158 211.031 92.2114C212.583 92.1643 214.135 92.1173 215.687 92.0797L214.981 91.3742C213.975 101.815 212.959 112.256 211.952 122.697C211.811 124.154 211.67 125.603 211.529 127.061L212.235 126.356C206.309 125.848 200.42 126.478 194.485 126.506C194.015 126.506 193.705 126.958 193.808 127.4C194.805 131.745 195.802 136.091 196.799 140.446C197.006 141.33 198.361 140.954 198.163 140.07L198.182 140.098Z" fill="#060606"/>
<path d="M175.297 55.1987C172.748 56.3839 169.964 57.2304 167.321 58.1711C165.75 58.7354 164 59.0082 162.486 59.7137C161.489 60.1746 160.539 60.5978 159.608 61.1904C158.498 61.8959 157.491 63.6078 157.858 65.0093C157.99 65.5172 158.517 65.9499 158.874 66.3073C159.081 66.5143 159.269 66.7118 159.523 66.8717C159.815 67.0598 161.235 67.7277 161.508 67.944" fill="#B47BFF"/>
<path d="M174.949 54.5874C172.428 55.7444 169.766 56.5815 167.142 57.4845C165.919 57.9078 164.64 58.1711 163.408 58.5944C162.175 59.0177 160.953 59.5915 159.824 60.2405C158.15 61.1999 156.457 63.3539 157.265 65.4044C157.952 67.1257 159.786 67.5866 161.16 68.5461C161.903 69.0634 162.608 67.85 161.874 67.3233C161.357 66.9658 160.765 66.7307 160.21 66.4297C159.561 66.0817 158.582 65.2916 158.507 64.5203C158.263 62.1687 161.169 61.0588 162.853 60.3063C163.897 59.8454 164.997 59.5821 166.098 59.2717C167.198 58.9612 168.233 58.5756 169.296 58.2182C171.45 57.4845 173.594 56.7414 175.664 55.7914C176.492 55.4151 175.767 54.1924 174.949 54.5686V54.5874Z" fill="#050505"/>
<path d="M71.0399 219.336C67.4185 219.336 63.8536 219.656 60.2417 219.439C60.0253 217.775 60.2605 215.809 60.2605 214.125C60.2605 212.159 60.2605 210.184 60.2605 208.218C60.2605 206.816 60.2416 205.424 60.2605 204.032C60.2793 203.092 60.3263 202.142 60.4956 201.21C60.6931 200.082 60.8342 198.793 61.5303 197.815C61.8689 197.335 62.3956 197.297 62.913 197.156C63.3174 197.043 63.7219 197.109 64.1452 197.109C64.7096 197.109 65.0952 197.015 65.6502 196.912C66.3274 196.79 67.0329 196.893 67.7195 196.808C68.6413 196.695 69.4126 196.601 70.3438 196.62C72.225 196.648 74.0874 196.376 75.9781 196.376C79.7123 196.385 83.4465 196.376 87.1713 196.376C91.4699 196.376 95.8061 196.564 100.095 196.188C101.017 196.103 101.93 196.188 102.861 196.15C103.792 196.112 104.62 195.915 105.513 195.877C107.253 195.811 108.984 196.037 110.696 195.698C111.646 195.51 112.69 195.642 113.659 195.642C114.035 195.642 115.22 195.435 115.54 195.651C115.926 195.915 115.982 196.846 116.029 197.269C116.283 199.339 116.415 201.417 116.594 203.496C116.744 205.246 116.688 206.91 116.998 208.632C117.562 211.717 117.958 215.263 117.807 218.405C114.995 219.195 111.082 218.884 108.147 218.884C104.225 218.884 100.349 219.355 96.4364 219.327C92.0813 219.298 87.7263 219.327 83.3619 219.327C79.2514 219.327 75.1409 219.327 71.0305 219.327L71.0399 219.336Z" fill="#050505"/>
<path d="M71.0397 218.63C67.4372 218.639 63.8441 218.931 60.2415 218.733L60.947 219.439C60.7777 217.934 60.9094 216.429 60.947 214.924C60.994 213.296 60.9658 211.66 60.9658 210.032C60.9658 206.816 60.74 203.523 61.3514 200.344C61.4643 199.742 61.5772 198.98 61.944 198.463C62.5554 197.598 63.6371 197.852 64.5401 197.786C65.9698 197.682 67.409 197.504 68.8387 197.372C71.9615 197.09 75.169 197.071 78.3107 197.071C81.7251 197.071 85.1395 197.043 88.5539 197.071C91.9683 197.099 95.3357 197.193 98.7125 196.977C102.089 196.76 105.259 196.619 108.542 196.582C109.981 196.563 111.373 196.281 112.812 196.318C113.33 196.328 113.819 196.318 114.336 196.29C114.505 196.281 115.06 196.168 115.201 196.271C115.286 196.337 115.305 197.052 115.324 197.165C115.803 200.683 115.756 204.257 116.18 207.775C116.603 211.349 117.261 214.783 117.12 218.404L117.638 217.727C114.27 218.611 110.696 218.131 107.263 218.197C103.34 218.263 99.4462 218.648 95.5238 218.63C87.3687 218.592 79.2042 218.63 71.0491 218.63C70.1367 218.63 70.1367 220.041 71.0491 220.041C79.3641 220.041 87.6791 220.012 95.9847 220.041C100.048 220.059 104.093 219.598 108.156 219.598C111.43 219.598 114.797 219.928 118.004 219.091C118.315 219.006 118.512 218.724 118.522 218.413C118.663 214.886 118.117 211.5 117.619 208.02C117.384 206.373 117.402 204.699 117.271 203.053C117.111 201.125 116.97 199.197 116.744 197.268C116.659 196.535 116.631 195.481 115.907 195.039C115.531 194.813 115.041 194.832 114.628 194.851C113.875 194.889 113.151 194.907 112.389 194.889C110.809 194.86 109.266 195.19 107.686 195.161C105.748 195.133 103.867 195.425 101.939 195.434C98.2516 195.434 94.5738 195.726 90.8678 195.688C87.1618 195.651 83.4276 195.66 79.7122 195.66C76.2131 195.66 72.6952 195.698 69.2055 195.933C67.6441 196.036 66.0921 196.234 64.5401 196.375C63.3267 196.488 61.9158 196.262 61.0316 197.306C60.0722 198.425 59.9217 200.203 59.7336 201.595C59.4796 203.467 59.5455 205.386 59.5549 207.267C59.5549 209.393 59.5549 211.528 59.5549 213.654C59.5549 215.573 59.3291 217.51 59.5361 219.429C59.5831 219.824 59.8277 220.116 60.2415 220.135C63.8441 220.323 67.4372 220.041 71.0397 220.031C71.9521 220.031 71.9521 218.62 71.0397 218.62V218.63Z" fill="#060606"/>
<path d="M103.886 91.299C105.062 90.3772 106.84 90.7817 107.583 91.2144L103.886 91.299Z" fill="#B47BFF"/>
<path d="M104.243 91.9012C104.384 91.7884 104.535 91.7037 104.695 91.6191C104.798 91.5626 104.676 91.6285 104.666 91.6191C104.666 91.6191 104.779 91.5814 104.789 91.572C104.873 91.5438 104.958 91.5156 105.033 91.4968C105.109 91.478 105.184 91.4686 105.259 91.4497C105.428 91.4215 105.099 91.4592 105.278 91.4497C105.315 91.4497 105.344 91.4497 105.381 91.4497C105.551 91.4403 105.72 91.4403 105.889 91.4497C105.964 91.4497 106.04 91.4592 106.115 91.4686C106.209 91.4686 105.964 91.4403 106.096 91.4686C106.134 91.4686 106.171 91.478 106.218 91.4874C106.36 91.5156 106.501 91.5438 106.642 91.5908C106.773 91.6285 106.905 91.6943 107.037 91.7225C107.018 91.7225 106.886 91.6567 106.971 91.6943C106.999 91.7037 107.027 91.7225 107.056 91.7319C107.112 91.7602 107.168 91.7884 107.215 91.8166C107.535 91.9953 108.006 91.9012 108.184 91.5626C108.363 91.224 108.269 90.7913 107.93 90.5938C107.319 90.2458 106.595 90.0765 105.889 90.0294C105.071 89.9824 104.187 90.1705 103.519 90.6784C103.227 90.9042 103.039 91.2993 103.265 91.6473C103.453 91.9389 103.914 92.1364 104.234 91.9012H104.243Z" fill="#050505"/>
<path d="M91.9307 91.986C94.8372 89.3147 97.7436 91.2523 98.2045 92.7573C98.3174 93.1336 98.4209 93.538 98.4303 93.9331C98.4491 94.789 98.3738 95.598 98.1669 96.4257C97.9788 97.1782 97.8471 98.2411 98.2892 98.9277C98.7595 99.6614 99.6343 100.009 100.462 100.009C101.393 100.009 102.465 99.4921 102.964 98.6832C103.463 97.8742 103.726 97.545 103.566 96.595C103.481 96.0965 103.331 94.6291 103.152 94.1494C102.992 93.7356 103.03 93.3593 103.02 92.9172C103.011 91.9014 103.792 90.8573 104.864 90.8009" fill="#B47BFF"/>
<path d="M92.4292 92.4846C93.7836 91.29 95.853 90.8385 97.1698 92.3623C98.4867 93.8861 97.151 96.2094 97.2921 97.9871C97.4614 100.038 99.5684 101.11 101.45 100.574C103.331 100.038 104.525 98.2599 104.243 96.4069C104.13 95.6262 104.074 94.8173 103.858 94.0554C103.613 93.1712 103.632 91.638 104.864 91.5157C105.758 91.4217 105.767 90.0107 104.864 90.1048C102.672 90.3306 101.967 92.541 102.503 94.4316C102.71 95.1653 102.776 95.946 102.87 96.6985C102.992 97.5827 102.447 98.4951 101.685 98.956C100.876 99.4357 99.6813 99.4827 99.0134 98.7302C98.308 97.9401 98.8911 96.6232 99.0134 95.7203C99.2956 93.8108 99.0887 91.8826 97.405 90.7162C95.4485 89.3617 93.0876 90.0202 91.4227 91.4875C90.7361 92.0895 91.7425 93.0865 92.4197 92.4846H92.4292Z" fill="#050505"/>
<path d="M104.62 101.007C105.156 100.546 105.852 100.48 106.313 99.9249C106.651 99.511 106.83 98.9937 106.934 98.4951L107.037 98.4763" fill="#B47BFF"/>
<path d="M105.118 101.505C105.231 101.411 104.977 101.599 105.099 101.514C105.127 101.496 105.165 101.467 105.193 101.449C105.25 101.411 105.315 101.373 105.372 101.345C105.504 101.279 105.626 101.213 105.758 101.148C106.068 100.997 106.35 100.837 106.614 100.611C107.168 100.132 107.46 99.3697 107.611 98.6737L107.121 99.1628L107.225 99.144C107.582 99.0688 107.827 98.6267 107.714 98.2786C107.592 97.893 107.234 97.7049 106.849 97.7895L106.745 97.8083C106.519 97.8554 106.303 98.0811 106.256 98.2974C106.228 98.4479 106.19 98.5984 106.143 98.7489C106.124 98.8242 106.096 98.8994 106.068 98.9747C106.03 99.0782 106.059 98.9935 106.087 98.9465C106.068 98.9841 106.049 99.0217 106.03 99.0593C105.993 99.1346 105.955 99.2004 105.917 99.2663C105.88 99.3321 105.823 99.398 105.786 99.4638C105.814 99.4168 105.87 99.3509 105.805 99.4356C105.776 99.4638 105.748 99.492 105.72 99.5202C105.701 99.5391 105.673 99.5673 105.645 99.5861C105.598 99.6331 105.513 99.6613 105.673 99.5767C105.551 99.6425 105.447 99.7272 105.325 99.793C105.203 99.8589 105.08 99.9153 104.949 99.9717C104.648 100.113 104.375 100.282 104.121 100.498C103.839 100.734 103.858 101.251 104.121 101.496C104.422 101.768 104.817 101.749 105.118 101.496V101.505Z" fill="#050505"/>
<path d="M94.9877 168.495C94.0847 168.495 93.1159 168.401 92.2317 168.589C91.15 168.815 90.0495 168.899 88.9584 169.135C87.7921 169.388 86.5693 169.454 85.4311 169.774C84.4811 170.037 83.4652 170.15 82.5434 170.508C81.6217 170.865 80.982 171.411 80.0132 171.43L79.9756 167.883L94.9689 166.745L94.9877 168.514V168.495Z" fill="#050505"/>
<path d="M94.9879 167.79C94.2918 167.79 93.6052 167.734 92.9091 167.79C92.2131 167.847 91.6111 167.997 90.962 168.091C89.6828 168.289 88.4224 168.533 87.1432 168.722C85.8639 168.91 84.6317 169.201 83.3901 169.502C82.8258 169.643 82.2802 169.822 81.7535 170.067C81.1797 170.33 80.653 170.669 80.0133 170.706L80.7188 171.412C80.7094 170.227 80.6906 169.041 80.6812 167.866L79.9757 168.571C84.3402 168.242 88.714 167.903 93.0784 167.574C93.7086 167.527 94.3388 167.48 94.969 167.433L94.2636 166.727L94.2824 168.496C94.2918 169.399 95.7027 169.408 95.6933 168.496L95.6745 166.727C95.6745 166.37 95.3547 165.994 94.969 166.022C90.6046 166.351 86.2308 166.69 81.8663 167.019C81.2361 167.066 80.6059 167.113 79.9757 167.16C79.5995 167.188 79.2703 167.461 79.2703 167.866C79.2797 169.051 79.2985 170.236 79.3079 171.412C79.3079 171.779 79.6277 172.136 80.0133 172.117C81.2173 172.042 82.1203 171.336 83.2396 171.007C84.4436 170.65 85.7228 170.368 86.9645 170.17C88.2061 169.973 89.5041 169.719 90.7833 169.53C91.4418 169.436 92.1002 169.286 92.768 169.211C93.5017 169.126 94.2448 169.192 94.9785 169.201C95.8909 169.201 95.8909 167.8 94.9785 167.79H94.9879Z" fill="#060606"/>
<path d="M115.079 168.128C114.74 167.686 113.207 167.95 112.709 167.95C112.21 167.95 111.73 167.95 111.251 167.95C110.498 167.94 109.793 168.194 109.05 168.279C107.535 168.458 106.03 168.749 104.507 168.956C103.792 169.06 102.992 169.088 102.334 169.408C101.854 169.643 101.403 169.953 100.838 169.963V166.586L114.816 166.153L115.079 168.128Z" fill="#050505"/>
<path d="M115.578 167.63C114.938 166.99 113.875 167.169 113.057 167.225C112.492 167.263 111.928 167.244 111.364 167.244C110.63 167.244 109.943 167.423 109.219 167.545C107.723 167.799 106.209 168.006 104.713 168.222C104.064 168.316 103.397 168.354 102.766 168.514C102.136 168.674 101.515 169.201 100.829 169.257L101.534 169.962C101.534 168.834 101.534 167.714 101.525 166.586L100.819 167.291C104.892 167.169 108.965 167.047 113.028 166.915C113.621 166.896 114.214 166.877 114.806 166.858L114.129 166.341C114.214 167 114.308 167.658 114.392 168.316C114.515 169.21 115.869 168.834 115.756 167.94C115.672 167.282 115.578 166.623 115.493 165.965C115.455 165.673 115.088 165.438 114.816 165.448C110.743 165.57 106.67 165.692 102.607 165.824C102.014 165.843 101.421 165.861 100.829 165.88C100.453 165.89 100.123 166.191 100.123 166.586C100.123 167.714 100.123 168.834 100.133 169.962C100.133 170.32 100.452 170.696 100.838 170.668C101.459 170.621 101.929 170.386 102.484 170.122C103.039 169.859 103.651 169.774 104.281 169.69C105.626 169.52 106.952 169.266 108.288 169.078C109.623 168.89 110.874 168.655 112.21 168.655C112.709 168.655 114.298 168.363 114.571 168.627C115.22 169.266 116.217 168.269 115.568 167.63H115.578Z" fill="#060606"/>
<path d="M137.729 166.125C137.202 166.135 136.506 166.426 135.998 166.577C135.425 166.746 134.841 166.868 134.249 167.028C132.424 167.517 130.533 167.762 128.69 168.223C125.971 168.9 123.234 169.512 120.553 170.367C118.804 170.922 116.951 171.252 115.258 171.967L115.079 166.238L137.616 163.764L137.72 166.125H137.729Z" fill="#050505"/>
<path d="M137.729 165.419C135.933 165.617 134.136 166.379 132.358 166.745C130.383 167.159 128.417 167.564 126.461 168.043C124.504 168.523 122.651 168.984 120.77 169.558C118.889 170.132 116.913 170.536 115.07 171.289L115.963 171.966C115.907 170.056 115.841 168.147 115.785 166.237L115.079 166.943C121.645 166.219 128.21 165.504 134.785 164.78C135.735 164.676 136.676 164.573 137.626 164.469L136.92 163.764L137.024 166.125C137.061 167.028 138.472 167.037 138.435 166.125L138.331 163.764C138.312 163.416 138.021 163.011 137.626 163.058C131.06 163.782 124.495 164.497 117.92 165.222C116.97 165.325 116.029 165.429 115.079 165.532C114.712 165.57 114.364 165.824 114.374 166.237C114.43 168.147 114.496 170.056 114.552 171.966C114.562 172.38 115.004 172.831 115.446 172.643C117.158 171.947 118.973 171.58 120.742 171.044C122.623 170.47 124.513 169.972 126.423 169.501C128.332 169.031 130.326 168.589 132.302 168.194C133.252 168.006 134.192 167.771 135.133 167.526C135.98 167.31 136.854 166.924 137.72 166.83C138.585 166.736 138.623 165.316 137.72 165.419H137.729Z" fill="#060606"/>
<path d="M159.636 165.758C158.94 165.918 158.234 166.144 157.538 166.294C157.247 166.351 156.983 166.369 156.682 166.445C156.278 166.548 155.77 166.661 155.347 166.68C154.058 166.736 152.741 166.981 151.462 167.178C150.427 167.338 147.417 167.62 147.53 167.62L147.483 162.296L159.561 160.951L159.636 165.767V165.758Z" fill="#050505"/>
<path d="M159.448 165.072C158.178 165.373 156.927 165.768 155.638 165.937C154.227 166.125 152.807 166.257 151.396 166.473C149.985 166.69 148.687 166.708 147.342 166.934C146.627 167.056 146.721 168.119 147.342 168.298C147.784 168.43 148.236 168.072 148.236 167.621C148.217 165.843 148.208 164.075 148.189 162.297L147.483 163.002C151.011 162.607 154.538 162.222 158.065 161.827L159.561 161.657L158.855 160.952C158.884 162.56 158.912 164.159 158.931 165.768C158.949 166.671 160.36 166.68 160.341 165.768C160.313 164.159 160.285 162.56 160.266 160.952C160.266 160.604 159.946 160.199 159.561 160.246C156.033 160.641 152.506 161.027 148.979 161.422L147.483 161.592C147.107 161.629 146.778 161.883 146.778 162.297C146.797 164.075 146.806 165.843 146.825 167.621L147.718 166.944V168.307C147.483 168.345 147.624 168.317 147.756 168.307C147.888 168.298 148.019 168.279 148.151 168.27C148.527 168.232 148.904 168.195 149.28 168.157C150.108 168.072 150.945 167.978 151.772 167.856C152.469 167.752 153.155 167.63 153.851 167.536C154.547 167.442 155.234 167.442 155.921 167.339C157.247 167.141 158.526 166.765 159.834 166.454C160.718 166.248 160.341 164.884 159.457 165.091L159.448 165.072Z" fill="#060606"/>
<path d="M174.469 161.497C173.51 161.497 172.616 161.507 171.676 161.695C171.111 161.808 170.556 161.986 169.983 162.09C169.446 162.193 168.891 162.174 168.337 162.259C166.982 162.485 165.59 162.654 164.217 162.748C163.351 162.805 162.458 163.021 161.611 163.228C161.235 163.322 160.877 163.331 160.501 163.416C160.219 163.482 159.974 163.651 159.683 163.698L159.608 160.848L174.027 159.099L174.45 161.507L174.469 161.497Z" fill="#050505"/>
<path d="M174.469 160.792C173.209 160.792 171.996 160.876 170.763 161.177C169.531 161.478 168.177 161.601 166.879 161.77C165.581 161.939 164.358 161.967 163.116 162.174C161.875 162.381 160.699 162.692 159.504 163.012L160.398 163.689C160.37 162.739 160.351 161.789 160.323 160.839L159.617 161.544C163.822 161.036 168.026 160.519 172.231 160.011C172.833 159.936 173.435 159.861 174.037 159.795L173.359 159.277L173.783 161.685C173.943 162.579 175.297 162.203 175.147 161.309L174.723 158.901C174.676 158.628 174.328 158.346 174.046 158.384C169.842 158.892 165.637 159.409 161.433 159.917C160.831 159.992 160.229 160.067 159.627 160.133C159.26 160.18 158.912 160.415 158.921 160.839C158.949 161.789 158.968 162.739 158.996 163.689C159.006 164.15 159.438 164.488 159.89 164.366C161.037 164.065 162.185 163.764 163.37 163.557C164.555 163.35 165.844 163.322 167.076 163.153C168.308 162.983 169.503 162.927 170.66 162.654C171.939 162.353 173.143 162.193 174.469 162.193C175.382 162.193 175.382 160.782 174.469 160.782V160.792Z" fill="#060606"/>
<path d="M190.648 158.986C190.177 158.986 189.848 159.089 189.397 159.155C188.879 159.23 188.306 159.155 187.779 159.155C187.252 159.155 186.914 159.24 186.424 159.353C185.757 159.512 185.042 159.569 184.364 159.635C182.455 159.832 180.564 160.312 178.655 160.604C177.921 160.716 177.244 160.782 176.52 160.961C176.285 161.017 175.203 161.253 174.836 161.337L174.592 159.334L190.478 157.321L190.657 158.986H190.648Z" fill="#050505"/>
<path d="M190.648 158.28C189.952 158.308 189.284 158.487 188.588 158.468C187.892 158.45 187.215 158.45 186.509 158.591C185.042 158.901 183.537 158.986 182.06 159.249C179.586 159.691 177.094 160.077 174.639 160.641L175.532 161.318C175.448 160.651 175.372 159.983 175.288 159.315L174.582 160.02C179.219 159.437 183.857 158.845 188.503 158.261C189.162 158.177 189.82 158.092 190.469 158.017L189.764 157.311C189.82 157.866 189.877 158.421 189.942 158.976C190.036 159.87 191.447 159.879 191.353 158.976C191.297 158.421 191.24 157.866 191.175 157.311C191.137 156.973 190.874 156.559 190.469 156.606C185.832 157.189 181.195 157.782 176.548 158.365C175.89 158.45 175.231 158.534 174.582 158.609C174.244 158.657 173.83 158.901 173.877 159.315C173.961 159.983 174.037 160.651 174.121 161.318C174.178 161.779 174.526 162.109 175.015 161.996C177.376 161.46 179.756 161.102 182.135 160.66C183.612 160.387 185.126 160.321 186.603 160.011C187.29 159.86 187.882 159.851 188.588 159.87C189.293 159.889 189.952 159.71 190.648 159.682C191.551 159.644 191.56 158.233 190.648 158.271V158.28Z" fill="#060606"/>
<path d="M164.931 118.003C170.274 117.627 176.68 117.316 176.256 117.25C176.51 118.746 176.67 122.988 176.708 123.957C176.783 126.243 176.698 129.45 175.607 131.491C173.5 135.432 166.888 136.025 163.201 136.063C160.369 136.091 156.005 136.016 154.274 133.241C152.243 129.977 152.393 125.575 152.29 121.878C152.261 120.891 152.073 119.367 152.694 118.53C154.82 118.502 164.028 118.078 164.941 118.012L164.931 118.003Z" fill="#FEFEFE"/>
<path d="M164.931 118.708C167.64 118.52 170.359 118.36 173.068 118.201C173.924 118.153 174.78 118.106 175.626 118.031C175.965 118.003 176.529 118.05 176.774 117.749C177.103 117.335 177.009 116.743 176.463 116.573H176.445C175.88 116.395 175.495 116.94 175.579 117.439C175.984 120.044 176.049 122.819 176.021 125.453C176.002 127.334 175.899 129.441 174.996 131.134C174.253 132.517 172.889 133.42 171.469 134.003C168.797 135.103 165.797 135.338 162.937 135.357C159.796 135.376 155.996 135.263 154.425 132.065C153.39 129.958 153.164 127.541 153.07 125.227C153.023 124.108 153.023 122.988 152.986 121.869C152.948 120.891 152.76 119.753 153.296 118.878L152.685 119.226C156.758 119.16 160.859 118.981 164.931 118.708C165.834 118.652 165.844 117.241 164.931 117.298C161.329 117.542 157.708 117.655 154.096 117.777C153.531 117.796 152.647 117.655 152.186 118.022C151.293 118.737 151.518 120.618 151.556 121.587C151.669 124.512 151.556 127.484 152.299 130.334C152.948 132.855 154.199 134.99 156.711 135.959C158.893 136.796 161.348 136.806 163.652 136.759C167.734 136.665 173.181 136.119 175.786 132.517C177.526 130.118 177.498 126.666 177.404 123.835C177.329 121.587 177.282 119.292 176.934 117.062L176.068 117.928H176.087C175.984 117.542 175.88 117.147 175.777 116.752C176.002 116.47 176.256 116.611 175.777 116.611C175.504 116.611 175.222 116.649 174.949 116.667C174.046 116.724 173.143 116.78 172.249 116.837C169.804 116.987 167.368 117.128 164.922 117.298C164.019 117.363 164.019 118.774 164.922 118.708H164.931Z" fill="#060606"/>
</svg>

