<svg version="1.1" id="layer" xmlns="http://www.w3.org/2000/svg" xmlns:xlink="http://www.w3.org/1999/xlink" x="0px" y="0px" viewBox="292.4 -54.6 599.9 209.2" style="enable-background:new 292.4 -54.6 599.9 209.2;" xml:space="preserve">
 <style type="text/css">
  .st0{fill:#EE2E24;}
 </style>
 <g>
  <path class="st0" d="M788.4,154.6c57.3,0,103.9-46.9,103.9-104.6S845.7-54.6,788.4-54.6C731.1-54.6,684.5-7.7,684.5,50
		C684.5,107.6,731.1,154.6,788.4,154.6z M788.4,12.7c20.4,0,37.1,16.7,37.1,37.3s-16.6,37.3-37.1,37.3c-20.4,0-37-16.7-37-37.3
		C751.4,29.4,768,12.6,788.4,12.7L788.4,12.7z M396.3,154.6c57.3,0,103.9-46.9,103.9-104.6S453.6-54.6,396.3-54.6
		C339-54.7,292.4-7.8,292.4,50C292.4,107.6,339,154.6,396.3,154.6z M396.3,12.7c20.4,0,37.1,16.7,37.1,37.3s-16.6,37.3-37.1,37.3
		c-20.4,0-37-16.7-37-37.3C359.3,29.4,375.9,12.6,396.3,12.7L396.3,12.7z M592.3,10.3l-31.9-63.6h-74.7l69.8,139.1v65.5h73.7V85.8
		L699-53.3h-74.7L592.3,10.3L592.3,10.3z">
  </path>
 </g>
</svg>