<svg version="1.1" id="Layer_1" xmlns:x="ns_extend;" xmlns:i="ns_ai;" xmlns:graph="ns_graphs;" xmlns="http://www.w3.org/2000/svg" xmlns:xlink="http://www.w3.org/1999/xlink" x="0px" y="0px" viewBox="0 0 37.2 36.8" style="enable-background:new 0 0 37.2 36.8;" xml:space="preserve">
 <style type="text/css">
  .st0{fill:#D2AB67;}
 </style>
 <metadata>
  <sfw xmlns="ns_sfw;">
   <slices>
   </slices>
   <sliceSourceBounds bottomLeftOrigin="true" height="36.8" width="37.2" x="177.2" y="-188.3">
   </sliceSourceBounds>
  </sfw>
 </metadata>
 <g>
  <g>
   <path class="st0" d="M29.7,34.2c-1.3,1-2.9,1.1-4.2,0.5c0,0-0.4-0.1-0.7-0.5c-0.3-0.4-7.5-8.6-7.5-8.6l0,0
			c2.2,0.4,4.6-0.7,5.9-2.6c1.3-1.9,1.2-4.5,0-6.4c-1.4-2-4.2-2.7-6.5-2.4c-4,0.6-6.9,4.2-7.8,8c-0.9,4.3-0.3,8.4,1.2,12.3
			c0.3,0.8,0.8,1.7,1.3,2.4c-4.2-1.9-7.9-5.3-9.9-10c-2.2-5-2.1-11.3,0.4-16.4c2-3.9,5.6-7.5,10-9.1C16.7-0.7,23-0.3,27.5,2.3
			c5.5,2.8,9.7,9.7,9.7,15.9C37.3,24.6,34.6,30.4,29.7,34.2">
   </path>
   <path class="st0" d="M14.3,36.6c-2.1-2.3-3.7-5.2-2.5-8.2c1.1-2.3,2.1-4.7,2.6-7.4c0.2,2.8,1.9,5.3,2.7,8c0.3,1.3,0.3,2.6-0.2,4
			c-0.5,1.5-1.4,2.7-2.5,3.8L14.3,36.6z">
   </path>
  </g>
 </g>
</svg>