<svg xmlns="http://www.w3.org/2000/svg" viewBox="0 0 16 11" fill="currentColor"><path fill-rule="evenodd" clip-rule="evenodd" d="M10.6903 0.689119L9.87096 0.863373L9.94507 1.27412C10.0508 1.859 10.64 3.02853 11.1024 3.57105C11.3192 3.82558 11.7405 4.18608 12.0385 4.37232L12.5805 4.71078H6.74724H0.914062V5.45302V6.19526L6.8779 6.19537L12.8417 6.19549L12.334 6.43243C11.7481 6.70591 11.0173 7.41435 10.5688 8.14369C10.192 8.75666 9.81114 9.95223 9.95366 10.0751C10.0102 10.124 10.4235 10.2395 10.8719 10.3319L11.6872 10.5L11.758 10.089C11.9191 9.15324 11.9742 8.96631 12.2561 8.3989C12.764 7.37621 14.3397 6.31436 15.359 6.30773C15.8534 6.30442 15.9452 6.15974 15.906 5.44514L15.8691 4.77325L15.3568 4.69126C13.3488 4.36981 12.1004 3.06245 11.7502 0.913959C11.7118 0.678499 11.6419 0.492255 11.5951 0.500248C11.5481 0.508241 11.141 0.593199 10.6903 0.689119Z" fill="currentColor"/></svg>