<svg width="599" height="610" viewBox="0 0 599 610" fill="none" xmlns="http://www.w3.org/2000/svg">
<path d="M496.502 225.74C510.542 258.469 516.202 294.181 512.968 329.648C509.735 365.114 497.711 399.214 477.983 428.864C458.256 458.514 431.448 482.778 399.984 499.462C368.52 516.145 333.394 524.721 297.782 524.414C262.17 524.107 227.196 514.926 196.025 497.703C164.854 480.48 138.468 455.757 119.255 425.771C100.042 395.785 88.6071 361.482 85.9857 325.966C83.3644 290.449 89.6388 254.839 104.242 222.358L114.211 226.84C100.354 257.664 94.3993 291.457 96.8869 325.161C99.3745 358.865 110.226 391.418 128.458 419.874C146.691 448.329 171.731 471.791 201.311 488.135C230.892 504.48 264.081 513.192 297.876 513.483C331.671 513.775 365.005 505.636 394.863 489.804C424.722 473.972 450.162 450.946 468.883 422.809C487.603 394.672 499.014 362.312 502.083 328.655C505.151 294.999 499.78 261.108 486.456 230.05L496.502 225.74Z" fill="black"/>
<path d="M238.612 205.813L165.392 279.033L97.5078 211.148L298.231 10.4247L314.467 26.4965L314.486 26.5147L500.319 211.782L432.443 279.659L359.326 206.542L346.971 194.187V211.66V511.75C331.115 515.613 298.591 522.337 250.968 511.684V210.93V193.457L238.612 205.813Z" stroke="black" stroke-width="14.475"/>
</svg>
