<svg class="mt-32" viewBox="0 0 46 52" fill="none" xmlns="http://www.w3.org/2000/svg"><path fill-rule="evenodd" clip-rule="evenodd" d="M27.7578 39.832C31.8565 39.2282 35.8741 37.4838 38.4658 34.1395C41.0967 30.7444 41.907 26.2496 41.3089 22.0569C40.7722 18.3015 39.1945 15.167 36.9718 12.5488C29.7176 9.02598 21.5666 6.1478 13.73 9.11152C5.34053 12.2841 1.22722 22.2025 5.09293 30.3217C9.03647 38.6041 19.3001 41.0775 27.7578 39.832ZM8.19615 10.1981C15.8562 4.00507 25.4612 5.862 33.8946 9.54561C30.1988 6.52264 25.5895 4.39675 21.0667 2.91707C20.4608 2.71902 20.6979 1.6644 21.3369 1.80774C27.6011 3.21463 33.8718 6.54679 38.0464 11.5348C39.2379 12.153 40.3938 12.788 41.4986 13.4201C42.1204 13.776 41.5306 14.8667 40.8865 14.5312C40.5376 14.3499 40.1851 14.1673 39.8308 13.9846C40.8676 15.6267 41.6918 17.4111 42.2405 19.3343C44.8653 28.5439 40.6777 38.0334 31.2873 40.9035C22.6661 43.5387 10.8573 41.7573 5.22363 34.1869C-0.317018 26.7408 0.937631 16.0671 8.19615 10.1981Z" fill="#FFD200"/><path d="M22.2707 23.2491C24.0907 23.4891 25.5407 23.9391 26.6207 24.5991C27.7007 25.2591 28.2407 26.1391 28.2407 27.2391C28.2407 28.3191 27.6007 29.3891 26.3207 30.4491C25.0607 31.5091 23.5207 32.3391 21.7007 32.9391C19.9007 33.5391 18.0707 33.8391 16.2107 33.8391C14.3707 33.8391 13.4507 33.4991 13.4507 32.8191C13.4507 32.6391 14.0407 32.4091 15.2207 32.1291C16.4207 31.8291 17.7307 31.5191 19.1507 31.1991C20.5707 30.8591 21.8707 30.3291 23.0507 29.6091C24.2507 28.8691 24.8507 28.0191 24.8507 27.0591C24.8507 26.5391 24.4907 26.1191 23.7707 25.7991C23.0507 25.4591 22.2507 25.2191 21.3707 25.0791C19.0507 24.7391 17.8907 24.3391 17.8907 23.8791C17.8907 23.7191 17.9207 23.5991 17.9807 23.5191C18.1407 23.2391 18.6507 22.8491 19.5107 22.3491C20.3707 21.8491 21.2407 21.3591 22.1207 20.8791C23.0207 20.3991 23.8407 19.7691 24.5807 18.9891C25.3207 18.2091 25.6907 17.4191 25.6907 16.6191C25.6907 15.6791 25.1807 15.2091 24.1607 15.2091C23.3407 15.2091 22.3007 15.5391 21.0407 16.1991C19.7807 16.8391 19.0607 17.1591 18.8807 17.1591C18.7207 17.1591 18.4107 16.9491 17.9507 16.5291C17.4907 16.0891 17.2607 15.7591 17.2607 15.5391C17.2607 14.9391 18.0707 14.3191 19.6907 13.6791C21.3307 13.0391 22.7807 12.7191 24.0407 12.7191C25.3007 12.7191 26.3607 13.1491 27.2207 14.0091C28.1007 14.8691 28.5407 15.8591 28.5407 16.9791C28.5407 18.0791 27.9107 19.2091 26.6507 20.3691C25.3907 21.5091 23.9307 22.4691 22.2707 23.2491Z" fill="#0D0C23"/></svg>