<svg class="mt-32" viewBox="0 0 43 41" fill="none" xmlns="http://www.w3.org/2000/svg"><path fill-rule="evenodd" clip-rule="evenodd" d="M22.7523 32.8734C22.4912 33.0884 22.2071 33.1806 21.9 33.1499C21.47 33.1192 21.1168 32.8734 20.8403 32.4126C20.5639 31.9518 20.395 31.4603 20.3336 30.938C20.18 29.9857 20.0725 29.0488 20.0111 28.1272C19.9497 27.2056 19.9036 26.2686 19.8729 25.3163C18.9822 25.562 18.0761 25.8001 17.1547 26.0305C16.2333 26.2609 15.3273 26.4836 14.4366 26.6987C13.7609 26.8523 13.185 26.8216 12.709 26.6065C12.2329 26.3915 11.8567 26.0766 11.5802 25.6619C11.3038 25.2472 11.1272 24.7864 11.0504 24.2795C10.9736 23.7726 10.9813 23.3041 11.0735 22.874C11.9642 20.6929 13.0314 18.5732 14.2753 16.515C15.5192 14.4568 16.9704 12.3832 18.629 10.2942C18.9054 10.0484 19.3277 9.84107 19.8959 9.67211C20.4641 9.50315 20.9478 9.52619 21.3471 9.74123C21.4085 9.80267 21.4546 9.84107 21.4853 9.85643C21.516 9.87179 21.5468 9.91019 21.5775 9.97163C21.6082 9.87947 21.6543 9.71051 21.7157 9.46475C21.8693 9.09611 22.0842 8.79659 22.3607 8.56619C22.6371 8.33579 22.9442 8.26667 23.2821 8.35883C23.8042 8.51243 24.1651 8.75051 24.3647 9.07307C24.5644 9.39563 24.6488 9.78731 24.6181 10.2481C24.2495 11.9992 23.9347 13.7886 23.6737 15.6164C23.4126 17.4443 23.2053 19.4027 23.0517 21.4916C23.9731 21.2766 24.9252 21.0846 25.9081 20.9156C26.8909 20.7467 27.9198 20.5854 28.9948 20.4318C29.1791 20.4011 29.3864 20.4011 29.6167 20.4318C29.8471 20.4625 30.0774 20.5086 30.3078 20.57C30.5381 20.6315 30.7224 20.7236 30.8606 20.8465C30.9988 20.9694 31.0679 21.123 31.0679 21.3073C31.0679 21.7374 30.8222 22.1368 30.3308 22.5054C29.8394 22.874 29.3019 23.1198 28.7184 23.2427C27.7355 23.427 26.7681 23.6267 25.8159 23.8417C24.8638 24.0568 23.9117 24.2872 22.9596 24.5329C22.9289 25.7003 22.9212 26.8984 22.9365 28.1272C22.9519 29.356 23.0057 30.6462 23.0978 31.9979C23.1285 32.3665 23.0133 32.6584 22.7523 32.8734ZM16.8098 17.7822C15.6273 19.7636 14.6368 21.8296 13.8383 23.98C14.7904 23.7035 15.7655 23.4193 16.7637 23.1275C17.7619 22.8356 18.7985 22.5515 19.8735 22.275C19.9963 18.7115 20.457 15.0865 21.2556 11.4001C21.1942 11.523 21.1174 11.6382 21.0252 11.7457C20.9331 11.8532 20.8563 11.9531 20.7949 12.0452C19.3206 13.8884 17.9923 15.8008 16.8098 17.7822Z" fill="#0D0C23"/><path fill-rule="evenodd" clip-rule="evenodd" d="M24.3199 37.2291C20.3938 38.5524 16.0224 38.8224 12.1951 37.0194C8.31005 35.1891 5.54792 31.5521 4.17776 27.5448C2.95137 23.955 2.93439 20.4458 3.72645 17.1036L4.26152 16.4028C9.02733 10.2221 14.8501 4.37158 22.8749 3.48715C31.79 2.50443 39.9568 9.47393 40.1978 18.4636C40.4434 27.634 32.4211 34.4984 24.3199 37.2291ZM28.2984 1.94222C18.6623 -0.0975214 10.947 5.91852 5.10474 13.0301C7.02564 8.65844 10.1676 4.67124 13.5258 1.29909C13.9758 0.847504 13.2859 0.0154621 12.7816 0.43335C7.83871 4.5314 3.76394 10.3478 2.30835 16.6878C1.52734 17.7796 0.785649 18.8703 0.0881606 19.9352C-0.304344 20.5347 0.716299 21.2387 1.13785 20.6472L1.83038 19.6809C1.65192 21.6148 1.7275 23.579 2.11158 25.5417C3.95304 34.9394 11.9914 41.493 21.661 39.7863C30.5387 38.2195 40.2519 31.2701 41.8353 21.9665C43.3923 12.8161 37.4297 3.87555 28.2984 1.94222Z" fill="#FFDD00"/></svg>