<svg width="120" height="120" viewBox="0 0 120 120" fill="none" xmlns="http://www.w3.org/2000/svg">
<ellipse cx="60" cy="109.5" rx="60" ry="10.5" fill="#FCF6F0"/>
<path d="M98.9652 12.7768L27.1625 13.1939C22.7624 13.2194 19.209 16.7936 19.209 21.1937V81C19.209 84.3137 21.8953 87 25.209 87H97.0001C101.418 87 105 83.4183 105 79V18.7767C105 15.4493 102.292 12.7574 98.9652 12.7768Z" fill="#6E55CC"/>
<path d="M94.7544 8.31897H21C17.6863 8.31897 15 11.0053 15 14.319V76.3889C15 79.7027 17.6863 82.3889 21 82.3889H94.7544C98.0681 82.3889 100.754 79.7027 100.754 76.389V14.319C100.754 11.0053 98.0681 8.31897 94.7544 8.31897Z" fill="#FBFBFB"/>
<path d="M83.6048 14.8949V7.45013C83.6048 6.09696 82.5079 5 81.1547 5C79.8015 5 78.7046 6.09696 78.7046 7.45013V14.8949C78.7046 16.248 79.8015 17.345 81.1547 17.345C82.5079 17.345 83.6048 16.248 83.6048 14.8949Z" fill="#6C4DE9"/>
<path d="M37.0517 14.8949V7.45013C37.0517 6.09696 35.9548 5 34.6016 5C33.2484 5 32.1515 6.09696 32.1515 7.45013V14.8949C32.1515 16.248 33.2484 17.345 34.6016 17.345C35.9548 17.345 37.0517 16.248 37.0517 14.8949Z" fill="#6C4DE9"/>
<path d="M85.7297 28.0718H74.1287C71.9195 28.0718 70.1287 29.8626 70.1287 32.0718V43.8238C70.1287 46.0329 71.9195 47.8238 74.1287 47.8238H85.7297C87.9388 47.8238 89.7297 46.0329 89.7297 43.8238V32.0718C89.7297 29.8626 87.9388 28.0718 85.7297 28.0718Z" fill="#C6EFFF"/>
<path d="M84.6667 34.2734L83.7267 33.3334L80 37.06L76.2734 33.3334L75.3334 34.2734L79.06 38L75.3334 41.7267L76.2734 42.6667L80 38.94L83.7267 42.6667L84.6667 41.7267L80.94 38L84.6667 34.2734Z" fill="#778ACE"/>
<path d="M41.6293 28.0718H30.0283C27.8192 28.0718 26.0283 29.8626 26.0283 32.0718V43.8238C26.0283 46.0329 27.8192 47.8238 30.0283 47.8238H41.6293C43.8385 47.8238 45.6293 46.0329 45.6293 43.8238V32.0718C45.6293 29.8626 43.8385 28.0718 41.6293 28.0718Z" fill="#C6EFFF"/>
<path d="M40.6667 34.2734L39.7267 33.3334L36 37.06L32.2734 33.3334L31.3334 34.2734L35.06 38L31.3334 41.7267L32.2734 42.6667L36 38.94L39.7267 42.6667L40.6667 41.7267L36.94 38L40.6667 34.2734Z" fill="#778ACE"/>
<path d="M63.631 28.0718H52.03C49.8209 28.0718 48.03 29.8626 48.03 32.0718V43.8238C48.03 46.0329 49.8209 47.8238 52.03 47.8238H63.631C65.8402 47.8238 67.631 46.0329 67.631 43.8238V32.0718C67.631 29.8626 65.8402 28.0718 63.631 28.0718Z" fill="#C6EFFF"/>
<path d="M62.6667 34.2734L61.7267 33.3334L58 37.06L54.2734 33.3334L53.3334 34.2734L57.06 38L53.3334 41.7267L54.2734 42.6667L58 38.94L61.7267 42.6667L62.6667 41.7267L58.94 38L62.6667 34.2734Z" fill="#778ACE"/>
<path d="M85.7258 50.2917H74.1248C71.9156 50.2917 70.1248 52.0826 70.1248 54.2917V66.0437C70.1248 68.2529 71.9156 70.0437 74.1248 70.0437H85.7258C87.9349 70.0437 89.7258 68.2529 89.7258 66.0437V54.2917C89.7258 52.0826 87.9349 50.2917 85.7258 50.2917Z" fill="#C6EFFF"/>
<path d="M84.6667 56.2734L83.7267 55.3334L80 59.06L76.2734 55.3334L75.3334 56.2734L79.06 60L75.3334 63.7267L76.2734 64.6667L80 60.94L83.7267 64.6667L84.6667 63.7267L80.94 60L84.6667 56.2734Z" fill="#778ACE"/>
<path d="M63.6791 50.2917H52.0781C49.869 50.2917 48.0781 52.0826 48.0781 54.2917V66.0437C48.0781 68.2529 49.869 70.0437 52.0781 70.0437H63.6791C65.8883 70.0437 67.6791 68.2529 67.6791 66.0437V54.2917C67.6791 52.0826 65.8883 50.2917 63.6791 50.2917Z" fill="#C6EFFF"/>
<path d="M62.6667 56.2734L61.7267 55.3334L58 59.06L54.2734 55.3334L53.3334 56.2734L57.06 60L53.3334 63.7267L54.2734 64.6667L58 60.94L61.7267 64.6667L62.6667 63.7267L58.94 60L62.6667 56.2734Z" fill="#778ACE"/>
<path d="M41.6293 50.2917H30.0283C27.8192 50.2917 26.0283 52.0826 26.0283 54.2917V66.0437C26.0283 68.2529 27.8192 70.0437 30.0283 70.0437H41.6293C43.8385 70.0437 45.6293 68.2529 45.6293 66.0437V54.2917C45.6293 52.0826 43.8385 50.2917 41.6293 50.2917Z" fill="#C6EFFF"/>
<path d="M40.6667 56.2734L39.7267 55.3334L36 59.06L32.2734 55.3334L31.3334 56.2734L35.06 60L31.3334 63.7267L32.2734 64.6667L36 60.94L39.7267 64.6667L40.6667 63.7267L36.94 60L40.6667 56.2734Z" fill="#778ACE"/>
</svg>
