<svg width="260" height="184" viewBox="0 0 260 184" fill="none" xmlns="http://www.w3.org/2000/svg">
<mask id="mask0" mask-type="alpha" maskUnits="userSpaceOnUse" x="0" y="9" width="260" height="184">
<path d="M0 25C0 16.1634 7.16344 9 16 9H244C252.837 9 260 16.1634 260 25V177C260 185.837 252.837 184 244 193H16C7.16344 184 0 185.837 0 177V25Z" fill="white"/>
</mask>
<g mask="url(#mask0)">
<circle cx="212.808" cy="165.184" r="2.80845" fill="#F5C038"/>
<circle cx="89.8084" cy="23.5008" r="2.80845" fill="#F5C038"/>
<circle cx="158.701" cy="16.7349" r="4" transform="rotate(-18.5391 158.701 16.7349)" fill="#FFF1CC"/>
<circle cx="8.03941" cy="14.5777" r="2.80845" fill="#FFE5A4"/>
<circle cx="242.424" cy="181.962" r="2.80845" fill="#FFF1CC"/>
<circle cx="224.808" cy="104.808" r="2.80845" fill="#FFF1CC"/>
<rect x="232.615" y="119.037" width="8.30769" height="8.30769" rx="1" transform="rotate(-36 232.615 119.037)" fill="#FFE5A4"/>
<rect x="221.161" y="26.2574" width="6" height="6" rx="1" transform="rotate(-120 221.161 26.2574)" fill="#FFE5A4"/>
<rect x="55.9229" y="10.2606" width="13.5316" height="13.5316" rx="1" transform="rotate(-45 55.9229 10.2606)" fill="#FFF1CC"/>
</g>
<circle cx="192.566" cy="48.2578" r="10.5" transform="rotate(21 192.566 48.2578)" fill="#FFE5A4"/>
<path d="M189.289 51.1512C189.664 50.9889 189.832 50.5499 189.662 50.1781L187.976 46.4964L191.693 44.8885C192.068 44.7261 192.237 44.2871 192.066 43.9154C191.901 43.5546 191.478 43.392 191.113 43.5496L187.02 45.3206C186.477 45.5558 186.233 46.1919 186.479 46.7305L188.336 50.7855C188.501 51.1463 188.925 51.3088 189.289 51.1512ZM193.063 52.6002C192.893 52.2285 184.062 51.7895 184.437 51.6271L197.153 50.0191L195.467 46.3374C195.297 45.9657 195.466 45.5267 195.841 45.3643C196.205 45.2067 196.629 45.3693 196.794 45.7301L198.651 49.785C198.897 50.3236 198.653 50.9597 198.109 51.195L194.016 52.966C193.652 53.1235 184.229 52.961 184.063 52.6002Z" fill="white"/>
<circle cx="234.703" cy="146.628" r="9" transform="rotate(21 234.703 146.628)" fill="#FFF1CC"/>
<path d="M231.894 149.108C232.215 148.968 232.36 148.592 232.214 148.273L230.769 145.118L233.954 143.739C234.276 143.6 234.421 143.224 234.275 142.905C234.133 142.596 233.77 142.457 233.458 142.592L229.95 144.11C229.484 144.312 229.274 144.857 229.486 145.318L231.077 148.794C231.219 149.103 231.582 149.243 231.894 149.108ZM235.129 150.35C234.983 150.031 235.128 149.655 235.449 149.515L238.635 148.137L237.19 144.981C237.044 144.663 237.188 144.287 237.51 144.147C237.822 144.012 238.185 144.152 238.327 144.461L239.918 147.937C240.13 148.398 239.92 148.943 239.454 149.145L235.946 150.663C235.634 150.798 235.271 150.659 235.129 150.35Z" fill="#F5C038"/>
<path d="M237.618 67.9046C237.873 67.5127 237.755 66.9876 237.356 66.7425L233.426 64.3233L235.943 60.4548C236.198 60.0628 236.08 59.5378 235.682 59.2927C235.297 59.0561 234.795 59.1691 234.548 59.5474L231.777 63.8071C231.406 64.3765 231.578 65.1394 232.156 65.4955L236.484 68.1593C236.869 68.3959 237.371 68.2829 237.618 67.9046ZM244.082 66.4515C243.684 66.2064 243.566 65.6813 243.821 65.2894L246.338 61.4209L242.407 59.0017C242.009 58.7566 241.891 58.2315 242.146 57.8396C242.392 57.4613 242.895 57.3483 243.279 57.5848L247.607 60.2487C248.186 60.6048 248.357 61.3676 247.987 61.9371L245.215 66.1968C244.969 66.575 244.466 66.6881 244.082 66.4515Z" fill="#F5C038"/>
<rect width="1.74918" height="9.96437" rx="0.874588" transform="matrix(0.991989 0.126321 -0.128899 0.991658 239.756 57.7546)" fill="#F5C038"/>
</svg>
