<svg width="70" height="70" viewBox="0 0 70 70" fill="none" xmlns="http://www.w3.org/2000/svg">
<path d="M4.89585 31.4773C7.70368 35.0023 15.6027 29.3606 19.8651 30.5771C26.005 32.3279 28.7457 39.7167 34.0195 35.9318C42.9572 29.5176 43.3413 12.7949 34.0196 7.00005C25.41 1.6473 20.4494 14.8054 15.9999 17.9995C7.0616 24.4161 2.49992 26.5005 4.89585 31.4773Z" fill="#FFF0E9"/>
<path d="M30.658 35.309L26.5611 38.5613L25.9704 39.0316C25.928 39.0741 25.8944 39.1246 25.8714 39.1802C25.8484 39.2358 25.8366 39.2954 25.8366 39.3556C25.8366 39.4158 25.8484 39.4754 25.8714 39.531C25.8944 39.5865 25.928 39.6371 25.9704 39.6796L29.6761 42.6242L30.207 43.0445C30.2943 43.127 30.4097 43.1729 30.5297 43.1729C30.6496 43.1729 30.7651 43.127 30.8524 43.0445C30.8948 43.0019 30.9285 42.9514 30.9515 42.8958C30.9744 42.8402 30.9862 42.7807 30.9862 42.7205C30.9862 42.6603 30.9744 42.6007 30.9515 42.5451C30.9285 42.4895 30.8948 42.439 30.8524 42.3965L27.1467 39.4544L26.6159 39.0316V39.6796L30.7129 36.4273L31.3035 35.9569C31.3878 35.8709 31.435 35.755 31.435 35.6342C31.435 35.5135 31.3878 35.3976 31.3035 35.3115C31.2167 35.2279 31.1011 35.1812 30.9808 35.1812C30.8605 35.1812 30.7448 35.2279 30.658 35.3115V35.309Z" fill="white"/>
<path d="M41.0709 35.8719L45.1679 39.1241L45.7585 39.5945V38.9465L42.0528 41.8911L41.522 42.3139C41.4371 42.3997 41.3894 42.5157 41.3894 42.6366C41.3894 42.7576 41.4371 42.8736 41.522 42.9594C41.6088 43.043 41.7244 43.0897 41.8447 43.0897C41.965 43.0897 42.0807 43.043 42.1675 42.9594L45.8732 40.0173L46.404 39.5945C46.4464 39.552 46.4801 39.5015 46.503 39.4459C46.526 39.3903 46.5378 39.3307 46.5378 39.2705C46.5378 39.2103 46.526 39.1507 46.503 39.0951C46.4801 39.0396 46.4464 38.989 46.404 38.9465L42.307 35.6942L41.7164 35.2239C41.629 35.1414 41.5136 35.0955 41.3937 35.0955C41.2737 35.0955 41.1583 35.1414 41.0709 35.2239C40.9865 35.3104 40.9391 35.4267 40.9391 35.5479C40.9391 35.669 40.9865 35.7853 41.0709 35.8719Z" fill="white"/>
<path d="M36.8527 35.2167L35.0933 41.6913L34.8441 42.6195C34.6895 43.1899 35.5692 43.4325 35.7238 42.8696L37.4832 36.3951L37.7324 35.4644C37.7487 35.4064 37.7536 35.3458 37.7466 35.2859C37.7396 35.226 37.7209 35.1681 37.6916 35.1155C37.6624 35.0629 37.6231 35.0166 37.576 34.9792C37.5289 34.9419 37.4749 34.9142 37.4171 34.8977C37.3594 34.8813 37.2989 34.8765 37.2393 34.8835C37.1797 34.8905 37.122 34.9092 37.0696 34.9386C37.0172 34.968 36.9711 35.0075 36.9338 35.0548C36.8966 35.1021 36.869 35.1562 36.8527 35.2142V35.2167Z" fill="white"/>
<path d="M17.4785 30.9207L51.5124 29.3491L52.3415 47.3046C52.3925 48.408 51.5393 49.3438 50.4359 49.3948L20.3978 50.7818C19.2944 50.8328 18.3586 49.9796 18.3076 48.8762L17.4785 30.9207Z" fill="#FF693D"/>
<path d="M35.8298 51.1411L36.0609 56.1644" stroke="#333333" stroke-width="2.6"/>
<rect x="17.0161" y="24.7041" width="35.1553" height="26.5303" rx="2.9" transform="rotate(-2.63335 17.0161 24.7041)" stroke="#333333" stroke-width="2.2"/>
<path d="M36.6538 36.0748L36.6538 36.0748L36.6517 36.0784L32.3549 43.5266C32.1379 43.8913 32.2801 44.3727 32.6287 44.5837L32.642 44.5917L32.6563 44.5981C32.7811 44.6538 32.8999 44.6912 33.0562 44.684C33.3162 44.6721 33.5451 44.5449 33.6857 44.3101L33.6858 44.3101L33.6879 44.3065L37.9856 36.8566L37.9857 36.8567L37.9894 36.8499C38.1945 36.4674 38.0637 36.0147 37.7108 35.8012L37.711 35.801L37.7005 35.7953C37.318 35.5881 36.866 35.7207 36.6538 36.0748ZM25.1185 40.0696C24.8297 40.3877 24.8512 40.8553 25.1679 41.1456L28.9359 44.5984C29.0909 44.7405 29.2863 44.8114 29.4836 44.8024C29.6809 44.7933 29.869 44.7047 30.0103 44.549C30.299 44.2309 30.2775 43.7632 29.9608 43.473L26.753 40.5336L29.6774 37.3121C29.9662 36.994 29.9447 36.5263 29.6279 36.2361C29.3105 35.9452 28.843 35.9667 28.5536 36.2855L25.1185 40.0696ZM43.5865 39.8513L40.6621 43.0728C40.3733 43.3909 40.3949 43.8585 40.7116 44.1488C40.8666 44.2908 41.062 44.3618 41.2593 44.3527C41.4566 44.3437 41.6446 44.2551 41.7859 44.0994L45.2211 40.3153C45.5099 39.9972 45.4884 39.5295 45.1716 39.2393L41.4036 35.7865C41.0862 35.4956 40.6187 35.5171 40.3293 35.8359C40.0405 36.154 40.062 36.6216 40.3788 36.9119L43.5865 39.8513Z" fill="white" stroke="white" stroke-width="0.5"/>
<path d="M29.5859 57.0996L42.5029 56.5055" stroke="#333333" stroke-width="2.2" stroke-linecap="round"/>
</svg>
