<svg class="css-4bextp" fill="none" xmlns="http://www.w3.org/2000/svg" viewBox="0 0 24 24"><g filter="url(#filter0_i_2074_384546)"><path d="M10.8235 1.67924C11.5515 1.25892 12.4485 1.25892 13.1765 1.67924L20.3498 5.82076C21.0778 6.24108 21.5263 7.01785 21.5263 7.85847V16.1415C21.5263 16.9822 21.0778 17.7589 20.3498 18.1792L13.1765 22.3208C12.4485 22.7411 11.5515 22.7411 10.8235 22.3208L3.65019 18.1792C2.92219 17.7589 2.47372 16.9822 2.47372 16.1415V7.85847C2.47372 7.01785 2.92219 6.24108 3.65019 5.82076L10.8235 1.67924Z" fill="url(#paint0_linear_2074_384546)"/></g><path d="M13.4265 1.24622C12.5438 0.736594 11.4562 0.736594 10.5735 1.24622L3.40019 5.38775C2.51749 5.89738 1.97372 6.83921 1.97372 7.85847V16.1415C1.97372 17.1608 2.51749 18.1026 3.40019 18.6122L10.5735 22.7538C11.4562 23.2634 12.5438 23.2634 13.4265 22.7538L20.5998 18.6122C21.4825 18.1026 22.0263 17.1608 22.0263 16.1415V7.85847C22.0263 6.83921 21.4825 5.89738 20.5998 5.38775L13.4265 1.24622Z" stroke="url(#paint1_linear_2074_384546)"/><path d="M7.79516 11.755L12.727 5.88566C13.0044 5.55561 13.5357 5.83704 13.4182 6.25174L12.3212 10.1226C12.2508 10.3711 12.4309 10.6201 12.6891 10.631L16.1084 10.7756C16.4337 10.7893 16.6071 11.1652 16.4064 11.4216L10.7883 18.5991C10.5137 18.95 9.95755 18.6571 10.0918 18.2323L11.7235 13.0702C11.8029 12.8191 11.6222 12.5613 11.3591 12.5502L8.08437 12.4118C7.75267 12.3977 7.58156 12.0092 7.79516 11.755Z" fill="url(#paint2_linear_2074_384546)"/><mask id="mask0_2074_384546" maskUnits="userSpaceOnUse" x="2" y="1" width="20" height="22"><path d="M10.825 1.67839C11.5521 1.2586 12.4479 1.2586 13.175 1.67839L20.3513 5.82161C21.0784 6.2414 21.5263 7.0172 21.5263 7.85677V16.1432C21.5263 16.9828 21.0784 17.7586 20.3513 18.1784L13.175 22.3216C12.4479 22.7414 11.5521 22.7414 10.825 22.3216L3.64872 18.1784C2.92163 17.7586 2.47372 16.9828 2.47372 16.1432V7.85677C2.47372 7.0172 2.92163 6.2414 3.64872 5.82161L10.825 1.67839Z" fill="url(#paint3_linear_2074_384546)"/></mask><g mask="url(#mask0_2074_384546)"><g opacity="0.33"><rect width="31.0802" height="5.59303" transform="matrix(0.869265 -0.494346 0.494992 0.868897 -1.54688 19.8501)" fill="white"/></g><g opacity="0.4"><rect width="31.0802" height="1.28991" transform="matrix(0.869265 -0.494346 0.494992 0.868897 -1.52344 27.5083)" fill="url(#paint4_linear_2074_384546)"/></g></g><rect width="1.06692" height="2.50101" rx="0.450876" transform="matrix(0.912255 0.409623 -0.396227 0.918153 15.4336 4.54443)" fill="url(#paint5_linear_2074_384546)"/><rect width="1.0254" height="1.44099" rx="0.450876" transform="matrix(0.53189 0.846813 -0.839016 0.544107 17.2695 7.92847)" fill="url(#paint6_linear_2074_384546)"/><rect width="1.57749" height="1.58545" rx="0.450876" transform="matrix(0.806011 0.591901 -0.58019 0.814481 15.6992 14.5115)" fill="url(#paint7_linear_2074_384546)"/><rect width="1.17674" height="1.18268" rx="0.450876" transform="matrix(0.806011 0.591901 -0.58019 0.814481 7.81641 6.35986)" fill="url(#paint8_linear_2074_384546)"/><rect width="1.22757" height="2.4962" rx="0.450876" transform="matrix(-0.259028 -0.96587 0.970013 -0.243054 5.40625 16.0483)" fill="url(#paint9_linear_2074_384546)"/><defs><filter id="filter0_i_2074_384546" x="1.47266" y="0.364014" width="21.0547" height="23.272" filterUnits="userSpaceOnUse" color-interpolation-filters="sRGB"><feFlood flood-opacity="0" result="BackgroundImageFix"/><feBlend mode="normal" in="SourceGraphic" in2="BackgroundImageFix" result="shape"/><feColorMatrix in="SourceAlpha" type="matrix" values="0 0 0 0 0 0 0 0 0 0 0 0 0 0 0 0 0 0 127 0" result="hardAlpha"/><feOffset/><feGaussianBlur stdDeviation="1.225"/><feComposite in2="hardAlpha" operator="arithmetic" k2="-1" k3="1"/><feColorMatrix type="matrix" values="0 0 0 0 0.933333 0 0 0 0 0.543643 0 0 0 0 0 0 0 0 1 0"/><feBlend mode="normal" in2="shape" result="effect1_innerShadow_2074_384546"/></filter><linearGradient id="paint0_linear_2074_384546" x1="2.15324" y1="1.98913" x2="20.5339" y2="20.5339" gradientUnits="userSpaceOnUse"><stop stop-color="#FCCF5A"/><stop offset="0.961078" stop-color="#FF9E2F"/></linearGradient><linearGradient id="paint1_linear_2074_384546" x1="3.52083" y1="4.4375" x2="19.7917" y2="19.5625" gradientUnits="userSpaceOnUse"><stop stop-color="#FFCE6F"/><stop offset="1" stop-color="#E0870B"/></linearGradient><linearGradient id="paint2_linear_2074_384546" x1="14.0882" y1="4.50401" x2="13.4139" y2="26.6194" gradientUnits="userSpaceOnUse"><stop stop-color="white"/><stop offset="1" stop-color="#FFEAA2"/></linearGradient><linearGradient id="paint3_linear_2074_384546" x1="-0.0312498" y1="-0.71875" x2="20.5937" y2="24.7188" gradientUnits="userSpaceOnUse"><stop stop-color="#A9CDFF"/><stop offset="1" stop-color="#0755C2"/></linearGradient><linearGradient id="paint4_linear_2074_384546" x1="26.5825" y1="1.19198" x2="10.3479" y2="1.63067" gradientUnits="userSpaceOnUse"><stop stop-color="white" stop-opacity="0"/><stop offset="0.509424" stop-color="white"/><stop offset="1" stop-color="white" stop-opacity="0"/></linearGradient><linearGradient id="paint5_linear_2074_384546" x1="0.533459" y1="0" x2="0.533459" y2="2.50101" gradientUnits="userSpaceOnUse"><stop stop-color="white"/><stop offset="1" stop-color="#FECC57"/></linearGradient><linearGradient id="paint6_linear_2074_384546" x1="0.512701" y1="0" x2="0.512701" y2="1.44099" gradientUnits="userSpaceOnUse"><stop stop-color="white"/><stop offset="1" stop-color="#FECC57"/></linearGradient><linearGradient id="paint7_linear_2074_384546" x1="2.21486" y1="0.831573" x2="-0.281831" y2="0.734215" gradientUnits="userSpaceOnUse"><stop stop-color="white"/><stop offset="1" stop-color="#FECC57"/></linearGradient><linearGradient id="paint8_linear_2074_384546" x1="-0.583703" y1="0.596246" x2="1.21926" y2="0.566474" gradientUnits="userSpaceOnUse"><stop stop-color="white"/><stop offset="1" stop-color="#FECC57"/></linearGradient><linearGradient id="paint9_linear_2074_384546" x1="0.631198" y1="-0.25227" x2="0.387653" y2="2.77532" gradientUnits="userSpaceOnUse"><stop stop-color="white"/><stop offset="1" stop-color="#FECC57"/></linearGradient></defs></svg>