<svg xmlns="http://www.w3.org/2000/svg" viewBox="0 0 140 136" fill="none"><mask id="mask0_95_1131" style="mask-type:alpha" maskUnits="userSpaceOnUse" x="0" y="0" width="140" height="136"><rect width="140" height="136" rx="12" transform="matrix(1 0 0 -1 0 136)" fill="#FFF5D9"/></mask><g mask="url(#mask0_95_1131)"><path d="M39.6555 75.5066L58.246 95.1997L39.9801 128.252L21.3639 108.606L39.6555 75.5066Z" fill="#B36810"/><path d="M39.6556 75.5063L14.9054 71.2479L-3.36046 104.3L21.364 108.605L39.6556 75.5063Z" fill="#C47212"/><path d="M15.2557 123.947L-3.33474 104.254L14.9312 71.2014L33.5474 90.848L15.2557 123.947Z" fill="#E69632"/><path opacity="0.15" d="M12.3842 75.8101L7.08448 85.4L23.4172 102.691L31.0004 95.4566L33.5473 90.8479L14.9875 73.2987L12.3842 75.8101Z" fill="black"/><path d="M15.2558 123.947L40.0059 128.206L58.2718 95.153L33.5474 90.8481L15.2558 123.947Z" fill="#D77D14"/><path opacity="0.15" d="M33.5472 90.8481L31.0775 95.3171L29.0892 104.853L50.8367 108.607L55.8276 99.5755L56.7832 94.8774L33.5472 90.8481Z" fill="black"/><path d="M30.7762 103.78L55.5007 108.085L58.2718 95.153L33.5474 90.8481L30.7762 103.78Z" fill="#E69632"/><path d="M23.3865 100.547L4.79604 80.8539L14.9311 71.2016L33.5473 90.8481L23.3865 100.547Z" fill="#FFAE55"/><rect x="40.5505" y="50.7134" width="30.8486" height="30.8486" rx="8" transform="rotate(26.6504 40.5505 50.7134)" fill="white"/><g filter="url(#filter0_d_95_1131)"><path d="M53.6408 77.5643L39.1747 70.3043L42.7596 63.1611C43.2006 62.2824 44.2812 61.9336 45.174 62.3816L56.4078 68.0195C57.3007 68.4676 57.6667 69.5424 57.2257 70.4211L53.6408 77.5643Z" fill="#F5C038"/><path d="M53.3467 81.89L35.8573 73.1127C35.3539 72.86 35.5211 71.9191 36.1179 71.645L39.2116 70.2249L53.6576 77.4748L54.3677 80.804C54.5047 81.4463 53.8501 82.1426 53.3467 81.89Z" fill="#F5C038"/><path d="M52.0015 76.0692L41.3312 70.7141C40.8955 70.4954 40.7176 69.971 40.9324 69.543L43.7848 63.8594C44 63.4305 44.5273 63.261 44.9622 63.4793L55.6325 68.8343C56.0682 69.053 56.2461 69.5774 56.0313 70.0054L53.1793 75.6882C52.9641 76.117 52.4373 76.2878 52.0015 76.0692Z" fill="white"/><path d="M45.7962 70.4445C45.7084 70.4004 45.6337 70.3301 45.585 70.2368L44.6005 68.3552C44.483 68.1311 44.4791 67.8732 44.5878 67.6478C44.6973 67.4229 44.9033 67.2671 45.1518 67.2213L47.2861 66.8272C47.5444 66.7796 47.7953 66.9482 47.8466 67.2047C47.8979 67.4611 47.7309 67.7075 47.4726 67.7551L45.5413 68.1122L46.4305 69.8115C46.5525 70.0444 46.4623 70.3283 46.2287 70.4461C46.0878 70.5165 45.9276 70.5104 45.7962 70.4445Z" fill="#F5C038"/><path d="M49.5504 72.3285C49.419 72.2626 49.3184 72.1377 49.2915 71.9832C49.2464 71.7254 49.4201 71.4835 49.6797 71.4421L51.5736 71.1395L50.7058 69.3776C50.5895 69.1421 50.6873 68.861 50.9236 68.7488C51.1598 68.6367 51.445 68.7371 51.5612 68.9726L52.5207 70.9194C52.6325 71.146 52.6307 71.4043 52.5158 71.6265C52.4009 71.8488 52.1909 71.9993 51.9419 72.0394L49.845 72.3747C49.7392 72.3905 49.6373 72.3721 49.5504 72.3285Z" fill="#F5C038"/><path d="M46.7622 71.8951C46.7259 71.8768 46.6908 71.8537 46.6583 71.8254C46.4605 71.6507 46.4413 71.3524 46.6152 71.1586L49.6533 67.7705C49.8272 67.5767 50.1272 67.5611 50.3259 67.7363C50.5238 67.911 50.543 68.2093 50.3691 68.403L47.331 71.7912C47.1857 71.9523 46.9513 71.9899 46.7622 71.8951Z" fill="#F5C038"/><rect x="39.4504" y="71.3105" width="6.22842" height="1.03807" rx="0.519035" transform="rotate(26.6504 39.4504 71.3105)" fill="#FCD46D"/><rect x="45.9456" y="74.5703" width="2.59517" height="1.03807" rx="0.519035" transform="rotate(26.6504 45.9456 74.5703)" fill="#FCD46D"/><rect x="49.1929" y="76.2" width="4.15228" height="1.03807" rx="0.519035" transform="rotate(26.6504 49.1929 76.2)" fill="#FCD46D"/></g><rect x="78" y="89.6152" width="36.1339" height="36.1339" rx="8" transform="rotate(-22.8814 78 89.6152)" fill="white"/><g filter="url(#filter1_d_95_1131)"><path d="M89.0616 99.8418C88.4638 98.4254 89.1275 96.7925 90.5439 96.1947L95.1621 94.2457C96.5785 93.6479 98.2114 94.3116 98.8092 95.728L100.758 100.346C101.356 101.763 100.692 103.395 99.2759 103.993L92.093 107.025L89.0616 99.8418Z" fill="#EE723C"/><path d="M109.099 87.7969C108.501 86.3804 106.868 85.7168 105.452 86.3146L101.443 88.0065C100.027 88.6042 99.3629 90.2371 99.9607 91.6535L101.91 96.2717C102.507 97.6881 104.14 98.3518 105.557 97.754L112.13 94.9797L109.099 87.7969Z" fill="#4C91FF"/><path d="M109.097 87.7978C108.499 86.3814 106.866 85.7178 105.45 86.3155L101.441 88.0074C100.025 88.6052 99.3609 90.2381 99.9587 91.6545L101.908 96.2727C102.506 97.6891 104.138 98.3527 105.555 97.755L112.128 94.9807L109.097 87.7978Z" fill="#F8986E"/><path d="M109.147 97.9092C108.55 96.4927 106.917 95.8291 105.5 96.4269L100.416 98.5725C98.9998 99.1703 98.3361 100.803 98.9339 102.22L101.306 107.841C101.904 109.258 103.537 109.921 104.953 109.323L112.602 106.095L109.147 97.9092Z" fill="white"/><path d="M106.207 93.4177C106.447 93.3163 106.615 93.17 106.712 92.9791C106.787 92.8299 106.807 92.673 106.773 92.51C106.755 92.4267 106.804 92.3412 106.886 92.3068L107.769 91.9339C107.871 91.891 107.988 91.9404 108.017 92.0425C108.093 92.3034 108.104 92.5716 108.051 92.8453C107.986 93.1849 107.831 93.4928 107.584 93.7692C107.337 94.0453 107.028 94.2623 106.656 94.4195C105.958 94.7138 105.319 94.732 104.736 94.4746C104.153 94.2171 103.702 93.7124 103.384 92.9593L103.35 92.877C103.044 92.1528 103.001 91.4911 103.218 90.8908C103.435 90.2904 103.892 89.8439 104.59 89.5496C105.199 89.2924 105.759 89.2527 106.268 89.4321C106.722 89.592 107.069 89.9001 107.309 90.3563C107.358 90.4491 107.312 90.5649 107.212 90.6071L106.335 90.9771C106.249 91.0134 106.147 90.9873 106.1 90.9102C105.996 90.7408 105.859 90.6206 105.687 90.5489C105.472 90.4594 105.241 90.4668 104.995 90.5707C104.692 90.6987 104.508 90.9023 104.443 91.1806C104.378 91.4588 104.446 91.8381 104.648 92.3159L104.703 92.4465C104.908 92.931 105.131 93.2464 105.374 93.3933C105.617 93.5415 105.894 93.5495 106.207 93.4177Z" fill="white"/><path d="M96.5122 102.091C96.5011 102.079 96.4896 102.066 96.4782 102.053C96.4057 101.969 96.2752 101.985 96.2226 102.082C96.0674 102.367 95.8234 102.58 95.4903 102.72C95.0925 102.888 94.7142 102.911 94.3542 102.788C93.9945 102.665 93.7397 102.426 93.5902 102.072C93.4064 101.636 93.4245 101.234 93.6445 100.866C93.8646 100.499 94.2759 100.186 94.877 99.9295L95.2325 99.7794C95.312 99.7459 95.3486 99.6539 95.3147 99.5735L95.2766 99.4832C95.1963 99.293 95.0842 99.1614 94.9399 99.0877C94.7956 99.0141 94.6199 99.0217 94.4124 99.1093C94.2298 99.1863 94.1056 99.2907 94.0393 99.4235C93.9908 99.5212 93.9771 99.6248 94 99.7345C94.0151 99.8076 93.9764 99.8805 93.9091 99.9089L93.109 100.247C93.0206 100.284 92.9197 100.232 92.8956 100.138C92.8482 99.9522 92.8474 99.759 92.8927 99.5587C92.952 99.2951 93.0899 99.0495 93.3063 98.8221C93.5227 98.5946 93.7956 98.4114 94.1255 98.2722C94.6258 98.061 95.076 98.0209 95.4774 98.1512C95.8789 98.2816 96.1768 98.578 96.3713 99.0388L97.1235 100.821C97.2907 101.21 97.4692 101.483 97.6586 101.638L97.686 101.703L96.6847 102.126C96.6258 102.151 96.5569 102.138 96.5122 102.091ZM95.3719 101.78C95.5321 101.712 95.6641 101.614 95.7688 101.485C95.8629 101.368 95.9205 101.243 95.9406 101.11C95.9447 101.082 95.9402 101.054 95.9289 101.027L95.709 100.506C95.675 100.425 95.5835 100.388 95.5041 100.421L95.2427 100.531C94.7002 100.76 94.4915 101.072 94.6172 101.467L94.6407 101.533C94.6985 101.67 94.7933 101.763 94.9257 101.812C95.058 101.86 95.2067 101.85 95.3719 101.78Z" fill="white"/><path d="M104.401 106.176L102.285 101.163C102.243 101.063 102.296 100.945 102.404 100.9L104.235 100.127C104.937 99.8309 105.523 99.7309 105.991 99.8274C106.46 99.9238 106.796 100.214 106.999 100.696C107.11 100.96 107.136 101.222 107.074 101.484C107.042 101.621 106.989 101.749 106.915 101.869C106.837 101.994 106.909 102.15 107.057 102.163C107.226 102.179 107.383 102.226 107.53 102.303C107.79 102.44 107.983 102.66 108.111 102.963C108.329 103.48 108.316 103.946 108.074 104.362C107.831 104.778 107.382 105.126 106.727 105.409L104.672 106.276C104.565 106.32 104.443 106.277 104.401 106.176ZM104.274 102.55C104.317 102.65 104.438 102.694 104.546 102.649L105.233 102.359C105.83 102.095 106.037 101.745 105.853 101.31C105.75 101.066 105.6 100.923 105.402 100.88C105.205 100.838 104.942 100.885 104.613 101.024L103.974 101.294C103.866 101.339 103.813 101.457 103.855 101.557L104.274 102.55ZM104.758 103.695L105.217 104.784C105.26 104.884 105.381 104.928 105.489 104.883L106.315 104.534C106.596 104.416 106.789 104.261 106.894 104.07C106.999 103.879 107.005 103.674 106.913 103.455C106.705 102.963 106.325 102.829 105.774 103.053L104.876 103.432C104.769 103.477 104.715 103.595 104.758 103.695Z" fill="#EE723C"/></g><rect x="89.4043" y="23" width="38" height="38" rx="8" transform="rotate(17.4646 89.4043 23)" fill="white"/><g filter="url(#filter2_d_95_1131)"><path d="M91.2416 39.4324C91.6725 38.063 93.1318 37.3021 94.5012 37.733L113.373 43.6703C114.742 44.1011 115.503 45.5605 115.072 46.9299L112.67 54.5646C112.239 55.934 110.78 56.6948 109.41 56.264L90.539 50.3266C89.1696 49.8958 88.4088 48.4364 88.8396 47.0671L91.2416 39.4324Z" fill="#7554F6"/><path d="M103.899 44.0293C104.115 43.3446 104.844 42.9642 105.529 43.1796L112.215 45.2832C112.9 45.4986 113.28 46.2283 113.065 46.9129L111.015 53.4289C110.799 54.1136 110.07 54.4941 109.385 54.2786L102.699 52.1751C102.014 51.9597 101.634 51.23 101.849 50.5453L103.899 44.0293Z" fill="#BAA9FF"/><path d="M92.899 40.5686C93.1144 39.8839 93.8441 39.5035 94.5288 39.7189L101.215 41.8225C101.9 42.0379 102.28 42.7676 102.065 43.4523L100.015 49.9683C99.7991 50.6529 99.0694 51.0334 98.3847 50.8179L91.6986 48.7144C91.014 48.499 90.6335 47.7693 90.849 47.0846L92.899 40.5686Z" fill="white"/><path d="M109.627 48.4466C109.573 48.6178 109.391 48.7129 109.22 48.659L105.807 47.5852C105.636 47.5314 105.541 47.349 105.594 47.1778L105.692 46.8668C105.746 46.6956 105.929 46.6005 106.1 46.6544L109.513 47.7282C109.684 47.782 109.779 47.9645 109.725 48.1356L109.627 48.4466ZM109.09 50.1544C109.036 50.3256 108.854 50.4207 108.683 50.3669L105.27 49.2931C105.098 49.2392 105.003 49.0568 105.057 48.8856L105.155 48.5747C105.209 48.4035 105.391 48.3084 105.562 48.3622L108.975 49.436C109.147 49.4899 109.242 49.6723 109.188 49.8435L109.09 50.1544Z" fill="white"/><path d="M93.3595 44.0868C93.411 43.9154 93.5951 43.8198 93.7692 43.874L95.6978 44.4748L96.2983 42.5854C96.3526 42.4148 96.5382 42.3221 96.7114 42.379L97.3058 42.5742C97.4769 42.6303 97.5714 42.8114 97.5176 42.9797L96.9177 44.8559L98.838 45.4539C99.0097 45.5074 99.1071 45.6867 99.0563 45.8558L98.8795 46.4443C98.828 46.6157 98.6439 46.7113 98.4698 46.657L96.5412 46.0562L95.9407 47.9456C95.8865 48.1162 95.7008 48.209 95.5276 48.1521L94.9322 47.9566C94.7615 47.9005 94.667 47.7201 94.7201 47.552L95.3141 45.6729L93.401 45.0771C93.2293 45.0236 93.1319 44.8444 93.1827 44.6753L93.3595 44.0868Z" fill="#7554F6"/></g><path d="M10.9841 22.7747C9.33601 18.6753 11.3232 14.016 15.4226 12.368L36.2769 3.98402C40.3763 2.33596 45.0356 4.32316 46.6836 8.42256L55.0676 29.2769C56.7156 33.3763 54.7284 38.0355 50.629 39.6836L29.7747 48.0675C25.6753 49.7156 21.0161 47.7284 19.368 43.629L10.9841 22.7747Z" fill="white"/><g filter="url(#filter3_d_95_1131)"><path d="M32.115 16.3078L26.8826 18.4114L29.654 25.3049L34.8864 23.2014L32.115 16.3078Z" fill="#18C5AA"/><path d="M36.8189 35.6462C40.7883 34.0504 42.6945 29.4941 41.0765 25.4695C39.4585 21.4448 34.929 19.4759 30.9595 21.0717C26.9901 22.6675 25.0839 27.2238 26.7019 31.2484C28.3199 35.2731 32.8494 37.242 36.8189 35.6462Z" fill="#18C5AA"/><path d="M28.2208 30.6379C29.497 33.8125 33.0692 35.3653 36.2002 34.1065C39.3313 32.8478 40.8346 29.2545 39.5583 26.0799C39.4638 25.8449 39.3563 25.6187 39.2382 25.4016C38.801 25.2526 35.8204 24.4098 32.985 27.9649C31.3494 30.0164 29.4215 30.1901 27.9783 29.9079C28.0438 30.1534 28.1238 30.3967 28.2208 30.6379Z" fill="#7FF1DF"/><path d="M39.5582 26.0803C40.8345 29.2549 39.3312 32.8481 36.2001 34.1069C33.0691 35.3657 29.4969 33.8129 28.2207 30.6383C28.1262 30.4033 28.0472 30.1656 27.9822 29.9271C28.1946 29.517 29.7624 26.8456 34.2696 27.4488C37.478 27.8781 38.6242 27.0696 39.2279 25.3856C39.3506 25.6081 39.4613 25.8391 39.5582 26.0803Z" fill="white"/><path d="M33.0337 16.9344L26.5152 19.5549C26.12 19.7138 25.6701 19.5182 25.509 19.1175L25.4249 18.9084C25.2638 18.5077 25.4532 18.0551 25.8484 17.8962L32.3658 15.276C32.761 15.1172 33.2109 15.3127 33.372 15.7134L33.4561 15.9226C33.6178 16.3219 33.4279 16.7759 33.0337 16.9344Z" fill="#18C5AA"/><path d="M31.1633 26.3528C31.8412 26.0803 32.1668 25.3021 31.8904 24.6148C31.6141 23.9274 30.8405 23.5911 30.1626 23.8637C29.4846 24.1362 29.1591 24.9144 29.4354 25.6018C29.7117 26.2891 30.4853 26.6254 31.1633 26.3528Z" fill="#7FF1E0"/><path d="M32.3024 21.6118C32.793 21.4146 33.029 20.8525 32.8296 20.3565C32.6302 19.8605 32.0708 19.6182 31.5802 19.8155C31.0896 20.0127 30.8536 20.5747 31.053 21.0708C31.2524 21.5668 31.8118 21.809 32.3024 21.6118Z" fill="#7FF1E0"/></g><circle cx="132" cy="88" r="2" fill="#FBD487"/><circle cx="60.5" cy="118.5" r="2.5" fill="#FBD487"/><circle cx="14" cy="54" r="3" fill="#FBD487"/><rect x="64" y="37.7666" width="6.40778" height="6.40778" rx="1" transform="rotate(-36 64 37.7666)" fill="#FBD487"/><rect x="73" y="75.8291" width="5.00599" height="5.00599" rx="1" transform="rotate(-9.53452 73 75.8291)" fill="#FBD487"/></g><defs><filter id="filter0_d_95_1131" x="15.5596" y="46.1863" width="61.853" height="59.7568" filterUnits="userSpaceOnUse" color-interpolation-filters="sRGB"><feFlood flood-opacity="0" result="BackgroundImageFix"/><feColorMatrix in="SourceAlpha" type="matrix" values="0 0 0 0 0 0 0 0 0 0 0 0 0 0 0 0 0 0 127 0" result="hardAlpha"/><feOffset dy="4"/><feGaussianBlur stdDeviation="10"/><feComposite in2="hardAlpha" operator="out"/><feColorMatrix type="matrix" values="0 0 0 0 0.960784 0 0 0 0 0.752941 0 0 0 0 0.219608 0 0 0 0.45 0"/><feBlend mode="normal" in2="BackgroundImageFix" result="effect1_dropShadow_95_1131"/><feBlend mode="normal" in="SourceGraphic" in2="effect1_dropShadow_95_1131" result="shape"/></filter><filter id="filter1_d_95_1131" x="68.8418" y="70.0947" width="63.7605" height="63.4485" filterUnits="userSpaceOnUse" color-interpolation-filters="sRGB"><feFlood flood-opacity="0" result="BackgroundImageFix"/><feColorMatrix in="SourceAlpha" type="matrix" values="0 0 0 0 0 0 0 0 0 0 0 0 0 0 0 0 0 0 127 0" result="hardAlpha"/><feOffset dy="4"/><feGaussianBlur stdDeviation="10"/><feComposite in2="hardAlpha" operator="out"/><feColorMatrix type="matrix" values="0 0 0 0 0.933333 0 0 0 0 0.447059 0 0 0 0 0.235294 0 0 0 0.3 0"/><feBlend mode="normal" in2="BackgroundImageFix" result="effect1_dropShadow_95_1131"/><feBlend mode="normal" in="SourceGraphic" in2="effect1_dropShadow_95_1131" result="shape"/></filter><filter id="filter2_d_95_1131" x="78.719" y="31.6125" width="46.4736" height="38.772" filterUnits="userSpaceOnUse" color-interpolation-filters="sRGB"><feFlood flood-opacity="0" result="BackgroundImageFix"/><feColorMatrix in="SourceAlpha" type="matrix" values="0 0 0 0 0 0 0 0 0 0 0 0 0 0 0 0 0 0 127 0" result="hardAlpha"/><feOffset dy="4"/><feGaussianBlur stdDeviation="5"/><feComposite in2="hardAlpha" operator="out"/><feColorMatrix type="matrix" values="0 0 0 0 0.458824 0 0 0 0 0.329412 0 0 0 0 0.964706 0 0 0 0.3 0"/><feBlend mode="normal" in2="BackgroundImageFix" result="effect1_dropShadow_95_1131"/><feBlend mode="normal" in="SourceGraphic" in2="effect1_dropShadow_95_1131" result="shape"/></filter><filter id="filter3_d_95_1131" x="13.1799" y="6.2832" width="40.6604" height="45.3545" filterUnits="userSpaceOnUse" color-interpolation-filters="sRGB"><feFlood flood-opacity="0" result="BackgroundImageFix"/><feColorMatrix in="SourceAlpha" type="matrix" values="0 0 0 0 0 0 0 0 0 0 0 0 0 0 0 0 0 0 127 0" result="hardAlpha"/><feOffset dy="3.25"/><feGaussianBlur stdDeviation="6.09375"/><feColorMatrix type="matrix" values="0 0 0 0 0.0941176 0 0 0 0 0.772549 0 0 0 0 0.666667 0 0 0 0.35 0"/><feBlend mode="normal" in2="BackgroundImageFix" result="effect1_dropShadow_95_1131"/><feBlend mode="normal" in="SourceGraphic" in2="effect1_dropShadow_95_1131" result="shape"/></filter></defs></svg>