<svg width="106" height="106" viewBox="0 0 106 106" fill="none" xmlns="http://www.w3.org/2000/svg">
<g clip-path="url(#clip0_2532:3927)">
<path d="M50.7197 27.3931L53.7675 25.3667L62.2526 37.2392L59.4955 38.4721L52.6775 34.1975L50.7197 27.3931Z" fill="#29D780"/>
<path d="M27.1371 47.2859C27.1371 47.2859 22.3538 51.953 22.4564 53.1731C22.559 54.3932 19.6608 52.3583 19.7634 54.086C19.866 55.8138 20.4217 59.4144 21.999 58.6508C23.0398 58.093 23.93 57.2924 24.5937 56.3172C24.5937 56.3172 33.1429 55.1014 32.9848 53.8813C32.8266 52.6612 27.1371 47.2859 27.1371 47.2859Z" fill="#29D780"/>
<path d="M76.03 36.3776C74.7818 36.1088 73.8671 37.0644 72.7343 37.3033C70.4516 37.7854 68.2502 37.2777 66.0189 37.2137C64.2663 32.0645 60.8466 28.5493 57.9655 23.3958C55.7898 21.3225 55.6444 18.9719 56.4908 16.617C58.2006 11.8689 61.2655 8.3152 66.5318 7.28281C66.745 7.26802 66.9457 7.17709 67.0972 7.02667C67.2488 6.87625 67.3409 6.6764 67.3568 6.46371C77.9664 5.72141 84.763 15.1751 84.2116 23.3574C83.8611 28.5322 81.6896 32.9817 76.8165 35.6267C76.5219 35.8408 76.2573 36.0933 76.03 36.3776ZM79.9498 27.7856C79.9498 26.6978 79.8942 26.0152 79.0521 25.8702C78.5093 25.7763 77.7014 25.5417 77.5218 26.2413C76.8977 28.7242 75.5598 30.8615 74.4142 33.0969C74.1577 33.5961 74.6279 33.9118 74.8673 34.2146C74.9403 34.298 75.0304 34.3648 75.1314 34.4105C75.2324 34.4563 75.342 34.4799 75.4529 34.4799C75.5639 34.4799 75.6735 34.4563 75.7745 34.4105C75.8755 34.3648 75.9655 34.298 76.0386 34.2146C78.0476 32.3461 79.1932 29.9699 79.9498 27.7856ZM80.0011 21.8131C80.1165 20.7381 79.454 20.3413 78.5606 20.3456C77.4663 20.3456 77.3466 21.1988 77.368 22.052C77.3893 22.9052 77.9023 23.7841 78.7059 23.7371C79.6036 23.6518 80.1251 22.8071 80.0011 21.796V21.8131Z" fill="#FAC704"/>
<path d="M52.9941 21.9071C52.8958 23.1187 54.5842 24.2534 52.8958 25.4949C51.4648 26.1237 49.8654 26.2617 48.3476 25.8874C45.2912 24.9403 43.4403 26.1433 42.5726 29.2149C42.4358 29.697 42.7094 30.2814 41.6707 30.2942C37.6226 30.3454 37.037 30.9981 36.7591 35.1448C36.7591 35.4349 36.6993 35.725 36.6651 35.998C32.9633 35.6268 32.1426 36.0833 31.1551 39.2871C30.9457 39.9697 30.7277 39.9143 30.142 39.8972C27.6927 39.8289 25.8674 41.7231 26.4317 44.1164C26.8292 45.8527 26.3077 46.8253 25.0595 47.8407C23.6057 48.9744 22.4861 50.4794 21.8194 52.1963C21.6484 52.6485 21.4432 52.9898 20.9175 52.9941C18.9939 52.9941 18.5365 54.2057 18.8101 55.7841C19.0153 56.9744 18.451 57.738 17.7414 58.4931C16.0596 60.2487 14.9725 62.487 14.6338 64.8922C14.3712 66.3953 13.7753 67.8208 12.8898 69.0645C11.3594 71.3895 7.08484 70.0542 6.47784 66.3811C4.37474 54.1118 8.33302 43.5746 16.66 34.6499C25.1621 25.5247 35.9512 21.2842 48.3476 20.9387C49.9536 20.8633 51.5525 21.1965 52.9941 21.9071Z" fill="#8D4EF5"/>
<path d="M8.16633 73.2664C8.16633 73.2664 10.0087 78.4583 12.8684 80.9454C15.7281 83.4325 12.3768 67.9082 12.3768 67.9082C12.3768 67.9082 9.3846 57.0937 7.01646 58.1303C4.13538 59.4016 8.16633 73.2664 8.16633 73.2664Z" fill="#8D4EF5"/>
<path d="M52.9939 21.9069C54.0925 21.5059 53.9172 20.7679 53.7719 19.7995C52.8357 13.6947 59.9401 5.76832 66.1255 5.92189C66.6085 5.92189 67.1856 5.74698 67.3651 6.46368C67.3492 6.67637 67.257 6.87622 67.1055 7.02664C66.954 7.17706 66.7533 7.26799 66.5401 7.28278C61.2738 8.31517 58.2046 11.8688 56.4991 16.617C55.6441 18.9719 55.798 21.3097 57.9738 23.3958C61.5345 27.6619 64.2746 32.0645 66.0272 37.2137C65.745 37.8323 65.1936 37.6702 64.6978 37.6787C62.4109 32.9177 59.9059 28.2933 56.576 24.1466C56.0118 23.4427 55.0714 22.6876 54.3447 23.238C53.4556 23.912 56.8026 28.3061 57.307 28.9076C59.1194 31.9195 60.9019 34.7564 62.0347 36.0576C62.8896 37.043 63.6633 37.764 63.8514 38.0968C64.6507 39.5387 63.2102 39.5515 62.6417 38.9158C62.3809 38.6215 61.8423 38.3485 61.4918 38.9158C61.09 39.5515 61.7526 39.7947 62.0432 40.1488C63.3983 41.7955 64.608 43.5104 65.1295 45.6307C66.9462 52.883 63.8086 61.1208 57.3925 65.3357C55.8835 66.3297 55.6057 67.2086 56.1101 68.8979C57.3925 73.292 58.521 77.7501 59.6452 82.1954C60.5941 85.9367 61.4533 89.6951 62.3553 93.4493C60.6967 94.9339 59.7221 94.6992 59.0767 92.3145C57.7473 87.3829 56.5119 82.4257 55.4219 77.4344C54.7037 74.2178 53.742 71.048 53.5154 67.6352C52.0065 68.0191 50.5659 68.4543 49.0955 68.7444C48.0482 68.9491 46.8427 68.8638 46.5777 67.6267C46.3127 66.3895 47.4839 66.0866 48.3901 65.8221C52.4681 64.619 56.0844 62.7206 59.0254 59.5424C63.7061 54.4871 64.1079 47.0726 59.8076 41.7229C58.5723 40.1829 57.5378 38.4807 56.0289 37.1625C55.4048 36.6164 54.9004 36.1941 53.9343 36.6975C51.8611 37.7683 49.6982 38.6513 47.578 39.6368C46.4965 40.1402 45.2098 40.8313 45.5262 42.1154C45.8083 43.2886 49.3348 42.542 50.1214 42.4226C53.2162 41.885 55.2295 43.2246 55.7852 46.2194C55.969 47.2219 55.9605 48.0581 54.5328 48.233C47.6635 49.0862 45.0859 51.5307 43.9189 58.2199C43.9098 58.5072 43.8726 58.793 43.8078 59.0731C43.594 59.5936 43.4402 60.3914 42.7776 60.3146C42.0082 60.2292 41.9227 59.5083 41.9483 58.766C42.0418 56.4321 42.5423 54.1324 43.4273 51.9701C43.642 51.7667 43.7832 51.4982 43.8291 51.2065C43.9659 50.7372 43.1495 51.3174 42.8588 51.552C42.2652 51.6599 41.6625 51.7099 41.0592 51.7013C39.3494 51.3814 39.0972 51.471 38.9219 53.7789C38.8022 55.5323 36.9257 55.8437 35.25 55.4299C34.5704 55.2593 33.9976 54.9009 33.1897 55.2422C31.8132 55.8224 31.1934 56.2874 31.9073 58.0365C33.4632 61.812 36.2503 63.7488 40.0846 64.5124C40.6574 64.6276 41.2387 64.7086 41.7944 64.8196C42.3501 64.9305 43.0084 64.9475 43.0212 65.7752C43.0212 66.4791 42.5681 66.8374 42.0039 67.055C40.8241 67.4816 39.6144 67.7546 38.3534 67.3365C37.5327 67.0592 36.6991 66.8118 35.6689 66.4833C36.3614 74.5889 35.7886 82.5238 35.4637 90.4673C35.4705 91.1989 35.4277 91.93 35.3355 92.6558C34.9679 94.7121 34.3737 95.0192 32.4245 94.2556C32.4245 93.4024 32.3775 92.5108 32.3647 91.6362C32.2492 83.1467 33.1127 74.6998 33.3863 66.2231C33.4119 65.468 33.5316 64.8238 32.8819 64.2522C31.078 62.6652 30.3641 60.5577 30.0948 58.2498C30.0478 57.8232 30.1932 57.3539 29.7315 57.0723C29.2698 56.7908 24.7815 57.7848 24.5037 58.2498C23.6188 59.7472 22.4048 59.9306 20.96 59.1841C20.3359 58.8641 19.7888 58.5868 19.2502 59.3078C17.8909 61.1337 16.6427 62.9937 17.0573 65.4424C16.9633 65.4424 16.9761 65.4424 17.0317 65.404C17.9507 65.1608 18.8612 64.8835 19.7845 64.6702C24.2044 63.6506 28.0687 65.2163 29.2741 68.4884C30.4796 71.7605 28.4748 76.1674 25.1662 77.6818C22.174 79.0512 18.6133 77.7458 16.7538 74.542C16.0271 73.292 15.3945 71.9823 14.6165 70.5319C14.2484 71.0781 13.9171 71.6482 13.6248 72.2383C13.2306 73.1082 12.9117 74.0102 12.6716 74.9345C12.2142 77.1102 10.3932 78.7739 10.3291 76.803C10.265 74.67 11.4832 71.095 13.0135 68.7742C13.7938 67.6622 14.2831 66.3732 14.437 65.0243C14.8389 62.5621 15.986 60.2815 17.7241 58.4887C18.4337 57.7336 19.0065 56.9699 18.7928 55.7797C18.5192 54.2013 18.9766 53.0025 20.9002 52.9897C21.4259 52.9897 21.6311 52.6441 21.8021 52.1919C22.4688 50.475 23.5884 48.9699 25.0423 47.8362C26.2904 46.8209 26.812 45.8482 26.4144 44.1119C25.863 41.7187 27.6754 39.8245 30.1248 39.8928C30.7275 39.8928 30.9284 39.9653 31.1378 39.2827C32.1253 36.0789 32.946 35.6224 36.6478 35.9936C36.682 35.7035 36.7248 35.4134 36.7419 35.1404C37.0197 30.9937 37.5968 30.341 41.6534 30.2898C42.6921 30.2898 42.4185 29.6926 42.5553 29.2105C43.4102 26.1389 45.274 24.9444 48.3303 25.8829C49.7922 26.3309 50.7925 25.9128 52.015 25.371C53.2376 24.8292 51.1815 24.232 52.9939 21.9069ZM27.2351 70.5404C27.2351 68.6974 26.4529 67.4987 24.6063 66.9953C23.1885 66.601 21.6951 66.5629 20.259 66.8843C16.2665 67.7845 16.0998 68.2282 18.2585 71.752C18.562 72.2468 18.8526 72.7545 19.1775 73.2408C20.3402 74.9942 21.9004 75.9199 24.042 75.3141C25.8801 74.7894 27.248 72.6649 27.2266 70.5447L27.2351 70.5404ZM35.0406 38.0541C33.0571 38.0882 32.4972 39.3126 32.9503 40.5711C34.2327 44.1674 35.9425 46.5778 39.8751 49.0777C41.7004 49.8669 42.7391 49.0222 42.4014 47.0684C42.1321 45.4899 37.6566 38.4338 35.0406 38.0541ZM28.3294 44.0565C29.2441 47.6168 31.5177 50.679 34.6644 52.5887C35.2714 52.9812 36.0451 53.4931 36.6735 53.0153C37.3018 52.5375 36.9 51.6117 36.6735 50.9718C35.5321 47.8405 33.3393 45.3534 31.3858 42.734C31.1454 42.4004 30.8018 42.1549 30.4078 42.0354C30.0139 41.9159 29.5915 41.929 29.2057 42.0728C28.385 42.4183 28.4021 43.2203 28.3294 44.0565ZM44.2994 30.469C44.5459 31.3283 44.9535 32.1332 45.5005 32.8409C46.8812 34.8076 49.0826 36.898 50.2368 36.2154C50.6642 35.9637 51.1857 35.8613 51.6388 35.6438C51.9423 35.4987 52.4211 35.3153 52.1219 34.8759C50.7155 32.7983 50.6942 31.8341 48.2063 28.4767C47.3044 27.8453 46.2699 27.6235 45.3253 28.1738C44.543 28.6132 44.2609 29.5049 44.2994 30.469ZM42.7348 42.1709C43.4188 40.3493 43.936 39.0865 45.5988 38.165C46.24 37.8067 46.0263 38.6386 45.6544 38.165C44.6712 36.8212 42.3758 31.6336 39.7683 32.3845C38.6355 32.9945 38.5671 34.2914 38.6184 35.4603C38.7338 38.5575 40.7386 39.8245 42.7348 42.1709ZM51.5192 28.1226C51.6761 28.3762 51.8188 28.6383 51.9466 28.9076C52.6306 30.5031 53.5539 31.6976 54.0625 33.6686C54.1181 34.0653 54.0198 34.2573 54.3703 34.253C56.14 34.2146 57.4053 35.776 58.5723 36.7103C58.8672 36.9449 59.2989 37.4654 59.4058 37.4398C59.6423 37.3197 59.8609 37.1675 60.0555 36.9876C60.3077 36.7828 60.5471 36.642 60.6155 36.4628C60.4145 36.1403 60.1947 35.8297 59.9572 35.5328C58.1961 32.7641 56.4008 30.6823 54.6097 27.9349C54.3489 27.5339 53.6522 26.4589 53.4427 26.5143C52.6858 26.9023 52.0233 27.4513 51.5021 28.1226H51.5192ZM26.8761 55.2294C27.2704 55.1956 27.6628 55.1415 28.0516 55.0673C31.8218 54.2397 31.8688 54.1287 29.8384 51.0742C27.5429 47.6229 26.7008 47.6613 24.5763 51.4112C24.5037 51.5392 24.4609 51.6843 24.3925 51.8122C23.1101 54.3378 23.6829 55.2635 26.8761 55.2294ZM43.8975 43.9584C44.0984 44.7689 44.0258 45.6861 44.8935 45.9378C45.3494 46.0903 45.8464 46.0635 46.2833 45.8629C46.7201 45.6624 47.0639 45.3032 47.2446 44.8585L43.8975 43.9584ZM20.5069 54.807C20.2205 55.319 21.1267 56.7396 21.8192 57.307C21.8825 57.3732 21.9597 57.4244 22.0454 57.457C22.131 57.4896 22.2228 57.5027 22.3142 57.4953C22.4055 57.4879 22.4941 57.4603 22.5733 57.4145C22.6526 57.3686 22.7207 57.3056 22.7725 57.2302C22.8804 57.0837 22.9387 56.9065 22.9387 56.7246C22.9387 56.5428 22.8804 56.3656 22.7725 56.2191C22.298 55.3958 21.4388 53.5997 20.5069 54.807Z" fill="#100E12"/>
<path d="M64.5392 37.7535C64.6378 37.7043 64.7466 37.6782 64.8567 37.6831C64.9342 37.6866 65.0121 37.6913 65.0893 37.6938C65.7722 37.7161 66.4629 37.224 67.1441 37.2769C68.9939 37.4206 70.8358 37.7041 72.734 37.3033C72.9023 37.2678 72.4816 37.3565 73.2716 37.3814C74.2601 37.4124 77.0744 38.649 77.7658 39.3561C78.3184 39.9212 77.6905 38.8615 77.9416 39.2854C81.7235 45.6677 83.5261 53.057 83.0743 60.5108C82.3689 73.8296 77.4446 85.0707 65.5484 92.3487C63.6975 93.4835 62.0339 92.1327 61.5341 90.0199C60.9153 87.404 60.2977 84.7891 59.6366 82.1826C58.5124 77.7373 57.4053 73.2792 56.1015 68.8852C55.6014 67.1787 55.8792 66.3255 57.3839 65.323C63.7958 61.1081 66.9376 52.8703 65.1209 45.6179C64.5866 43.4849 63.4111 41.7784 62.0347 40.136C61.744 39.7819 61.0814 39.5387 61.4832 38.9031C61.8338 38.3485 62.3382 38.4466 62.8383 38.9031C63.1464 39.1843 63.6378 39.1093 63.8578 38.8287C64.1158 38.4997 64.1651 37.9402 64.5392 37.7535Z" fill="#8244FD"/>
<path d="M17.0017 65.148C16.5742 62.6907 17.8908 61.1421 19.2501 59.3162C19.7887 58.5953 20.3359 58.8896 20.9599 59.1925C22.4048 59.9391 23.6188 59.7556 24.5036 58.2582C24.7814 57.7847 29.3211 56.812 29.7699 57.0808C30.2187 57.3496 30.0862 57.8487 30.1333 58.2582C30.4026 60.5662 31.1164 62.6737 32.9203 64.2606C33.57 64.8323 33.4503 65.4765 33.4247 66.2316C33.1511 74.7083 32.2877 83.1552 32.4031 91.6447C32.4031 92.5192 32.4458 93.3895 32.4629 94.2641C23.1785 91.4484 15.9245 85.9452 10.6624 77.8354C10.4786 77.5495 12.3723 78.3942 12.7484 74.9515C12.8468 74.0172 13.2956 73.1341 13.6504 72.2596C13.9427 71.6694 14.274 71.0994 14.6421 70.5531C15.4115 72.0079 16.0442 73.3133 16.7794 74.5633C18.6388 77.7671 22.1868 79.0725 25.1918 77.7031C28.5004 76.1929 30.488 71.7306 29.2997 68.5097C28.1114 65.2888 24.23 63.6719 19.8101 64.6915C18.8868 64.9048 17.9763 65.1821 17.0572 65.4253L17.0017 65.148Z" fill="#8D4EF5"/>
<path d="M27.2307 70.5405C27.2307 72.6735 25.88 74.8066 24.0333 75.3185C21.896 75.9243 20.3315 74.9985 19.1688 73.2452C18.844 72.7588 18.5533 72.2512 18.2498 71.7563C16.1125 68.2325 16.2578 67.7889 20.2503 66.8887C21.6864 66.5672 23.1799 66.6053 24.5976 66.9996C26.4442 67.503 27.2393 68.7018 27.2307 70.5405Z" fill="#8D4EF5"/>
<path d="M89.7555 31.9792C92.5981 32.5679 93.53 32.6703 95.1842 33.2249C96.0391 33.5107 96.8941 34.0439 96.6932 35.0891C96.4581 36.2453 95.4108 36.369 94.4191 36.3391C92.6593 36.2534 90.9344 35.8183 89.3451 35.0593C88.3705 34.6327 87.071 34.2914 87.4899 32.8068C87.8789 31.416 89.0715 31.8896 89.7555 31.9792Z" fill="#FF5D29"/>
<path d="M94.0302 25.755C94.9151 25.755 95.7187 25.7124 96.5138 25.755C97.2447 25.802 98.0868 25.9001 98.0868 26.8813C98.0868 27.7345 97.4285 28.1995 96.6848 28.3403C94.244 28.8096 91.7861 29.0954 89.3196 28.5195C88.7682 28.3872 88.1014 28.3702 88.0714 27.5681C88.0415 26.8344 88.61 26.5656 89.1529 26.3694C90.7602 25.7934 92.4743 26.0579 94.0302 25.755Z" fill="#FF5D29"/>
<path d="M90.2513 41.7186C90.2513 42.3244 90.183 42.9046 89.5973 43.2331C88.9219 43.6085 88.3492 43.3312 87.8106 42.879C86.5524 41.7726 85.4303 40.521 84.4678 39.1504C84.2314 38.868 84.0929 38.5168 84.0728 38.1493C84.0528 37.7818 84.1524 37.4177 84.3567 37.1113C84.6858 36.578 85.233 36.6846 85.7374 36.7102C87.7336 36.9193 90.277 39.7221 90.2513 41.7186Z" fill="#FF5D29"/>
<path d="M73.5122 84C70.7619 86.9476 67.4287 89.2937 63.7234 90.8897C62.441 91.4614 61.8468 91.1329 61.539 89.8573C60.355 84.9513 58.1963 76.5044 56.9096 71.624L54.9006 75.1478C56.0419 80.4548 57.3756 85.7107 58.7947 90.9324C59.188 92.3871 58.6622 92.6388 57.5637 92.8862C50.7972 94.2955 43.812 94.2955 37.0456 92.8862C35.6478 92.6047 35.4511 92.1055 35.5152 90.6551C35.7503 85.5358 36.0325 80.2373 36.0367 75.1009L33.0445 74.1666C32.7624 78.9788 32.305 84.7593 32.3136 89.5843C32.3136 91.2054 31.8092 91.4486 30.39 90.8641C27.8041 89.829 25.2895 88.6248 22.8624 87.2593C21.7938 86.6449 20.9431 86.6663 20.2036 87.6859C20.2421 88.8377 20.926 89.452 21.875 90.0279C31.6553 95.9621 42.2691 97.9416 53.507 96.3844C61.2013 95.3179 68.1476 92.3914 73.4908 86.4786C74.427 85.4462 75.6922 84.4863 75.4486 82.7884C74.4868 82.7201 74.0422 83.4198 73.5122 84Z" fill="#100E12"/>
<path d="M66.0186 37.2137C66.0186 37.2137 76.7051 41.3646 82.1509 30.4178L80.1889 30.2258L75.8758 35.6694L66.0186 37.2137Z" fill="#FAC704"/>
<path d="M17.5146 61.8589C17.5146 61.8589 16.3049 63.8981 16.4288 65.8776C16.4288 65.8776 18.7499 64.6958 20.37 64.5593L17.5146 61.8589Z" fill="#8D4EF5"/>
<path d="M53.4769 45.4728C53.4769 45.4728 44.7268 46.9531 42.5425 54.4316L40.3325 51.5989C40.3325 51.5989 44.7268 52.0597 44.3549 48.3567C44.3489 48.3223 44.35 48.2871 44.3584 48.2531C44.3667 48.2192 44.382 48.1874 44.4033 48.1598C44.4246 48.1321 44.4514 48.1091 44.4821 48.0924C44.5128 48.0756 44.5466 48.0654 44.5815 48.0623C45.6843 47.9941 49.8136 47.4992 48.9373 43.9072C48.9373 43.9072 51.2499 43.6811 52.0321 44.0095C52.8144 44.338 53.4769 45.4728 53.4769 45.4728Z" fill="white"/>
<path d="M44.979 31.9409L47.3942 36.5142C47.4924 36.7029 47.6578 36.8483 47.8579 36.9217C48.0579 36.9951 48.2783 36.9912 48.4756 36.9109L51.6388 35.6311L44.979 31.9409Z" fill="white"/>
</g>
<defs>
<clipPath id="clip0_2532:3927">
<rect width="92.1818" height="91" fill="white" transform="translate(5.90918 5.90918)"/>
</clipPath>
</defs>
</svg>
