<svg width="32" height="32" viewBox="0 0 32 32" fill="none" xmlns="http://www.w3.org/2000/svg">
 <title>header-icons</title>
    <desc>Created with Sketch.</desc>
    <style>
    st0 {
            display: none;
        }
        g {display: none;}
        g:target g{display: inline;}
        g:target {display: inline;}
    </style>


    <g id="contact-us"><path d="M22.9695 2.53638C21.1613 2.49671 19.382 2.99513 17.8575 3.96838C16.3775 4.76838 13.5455 6.53639 13.0575 9.20839C12.8895 10.0084 13.3295 11.0644 14.6575 12.8244C18.4015 17.6884 20.2575 15.3524 21.1775 14.1844C22.0975 13.0164 25.1135 11.6084 27.4495 13.4644C28.1935 14.0484 28.5215 14.0884 28.9615 13.9604C30.2175 13.5924 30.8575 10.3524 30.0415 7.84839C29.4989 6.37633 28.543 5.09213 27.2886 4.14989C26.0342 3.20765 24.5345 2.6474 22.9695 2.53638Z" fill="#FCF0EA"/>
<path d="M19.4173 7.16846L26.1213 13.8725C26.4432 14.1954 26.6243 14.6325 26.6253 15.0885V16.9925H4.52932V15.0885C4.52806 14.8624 4.57199 14.6384 4.65854 14.4296C4.74509 14.2207 4.87252 14.0313 5.03332 13.8725L11.7293 7.16846H19.4173Z" fill="#B35138"/>
<path d="M22.8732 6.37598H8.24125C7.71106 6.37598 7.28125 6.80578 7.28125 7.33598V20.864C7.28125 21.3942 7.71106 21.824 8.24125 21.824H22.8732C23.4034 21.824 23.8332 21.3942 23.8332 20.864V7.33598C23.8332 6.80578 23.4034 6.37598 22.8732 6.37598Z" fill="white" stroke="#0E2C38" stroke-width="0.8" stroke-linecap="round" stroke-linejoin="round"/>
<path d="M4.5293 21.7925V15.2085H6.1293C6.32432 15.2092 6.51558 15.2622 6.68306 15.3621C6.85054 15.4621 6.98809 15.6052 7.0813 15.7765L8.9213 19.1685C9.0145 19.3398 9.15205 19.4829 9.31953 19.5828C9.48701 19.6828 9.67827 19.7358 9.8733 19.7365H21.1693C21.3645 19.7367 21.5561 19.684 21.7237 19.584C21.8914 19.4839 22.0288 19.3404 22.1213 19.1685L23.9693 15.7765C24.0618 15.6046 24.1992 15.461 24.3669 15.361C24.5345 15.261 24.7261 15.2083 24.9213 15.2085H26.5213V27.2085C26.5213 27.6647 26.3401 28.1022 26.0175 28.4247C25.695 28.7473 25.2575 28.9285 24.8013 28.9285H6.2493C5.79313 28.9285 5.35564 28.7473 5.03307 28.4247C4.71051 28.1022 4.5293 27.6647 4.5293 27.2085V21.7925Z" fill="#EE724B"/>
<path d="M19.9773 13.4479C19.9791 13.7933 19.936 14.1375 19.8493 14.4719C19.7738 14.7858 19.638 15.0819 19.4493 15.3439C19.2644 15.5928 19.0267 15.7976 18.7533 15.9439C18.4372 16.0981 18.089 16.1749 17.7373 16.1679C17.4887 16.1665 17.2432 16.112 17.0173 16.0079C16.7886 15.9089 16.592 15.7482 16.4493 15.5439C16.2842 15.7344 16.0717 15.8779 15.8333 15.9599C15.5924 16.0346 15.3416 16.0724 15.0893 16.0719C14.8641 16.0759 14.6405 16.0323 14.4333 15.9439C14.2314 15.8592 14.0489 15.734 13.8973 15.5759C13.7449 15.4152 13.623 15.2282 13.5373 15.0239C13.4555 14.8122 13.4147 14.5869 13.4173 14.3599C13.4197 14.0041 13.4763 13.6507 13.5853 13.3119C13.6948 12.962 13.8655 12.6343 14.0893 12.3439C14.3071 12.0568 14.5789 11.8149 14.8893 11.6319C15.2014 11.4471 15.5587 11.353 15.9213 11.3599C16.1992 11.3528 16.4744 11.4161 16.7213 11.5439C16.771 11.4823 16.8346 11.4334 16.907 11.4014C16.9794 11.3694 17.0583 11.3552 17.1373 11.3599C17.2874 11.3569 17.434 11.4049 17.5533 11.4959C17.6148 11.5369 17.6648 11.593 17.6984 11.6589C17.732 11.7247 17.7482 11.7981 17.7453 11.8719C17.7399 12.0514 17.7238 12.2303 17.6973 12.4079C17.6573 12.6559 17.6173 12.9199 17.5773 13.2079C17.5373 13.4959 17.4893 13.7519 17.4413 14.0079C17.3933 14.2639 17.3613 14.4639 17.3373 14.5919C17.3216 14.6666 17.3267 14.7441 17.3521 14.8161C17.3775 14.8881 17.4222 14.9516 17.4813 14.9999C17.5977 15.0916 17.7412 15.1422 17.8893 15.1439C18.0715 15.1533 18.2499 15.09 18.3853 14.9679C18.5131 14.8462 18.6139 14.699 18.6813 14.5359C18.7535 14.3591 18.8019 14.1735 18.8253 13.9839C18.8352 13.8107 18.8352 13.6371 18.8253 13.4639C18.8328 13.0347 18.7567 12.6081 18.6013 12.2079C18.4619 11.8416 18.2465 11.509 17.9693 11.2319C17.6913 10.9578 17.3625 10.7404 17.0013 10.5919C16.6015 10.4346 16.175 10.3558 15.7453 10.3599C15.2902 10.3582 14.8392 10.4451 14.4173 10.6159C14.019 10.7741 13.655 11.0077 13.3453 11.3039C13.0339 11.6032 12.7862 11.9624 12.6173 12.3599C12.4386 12.7796 12.3487 13.2318 12.3533 13.6879C12.3494 14.1534 12.4449 14.6143 12.6333 15.0399C12.9951 15.8579 13.6606 16.5034 14.4893 16.8399C14.9221 17.0114 15.3838 17.0983 15.8493 17.0959C16.0893 17.0959 16.2893 17.0959 16.4573 17.0959C16.6192 17.0925 16.7802 17.071 16.9373 17.0319C17.0893 16.9981 17.2369 16.9471 17.3773 16.8799C17.5595 16.7987 17.7359 16.7051 17.9053 16.5999C17.9817 16.56 18.0672 16.5407 18.1533 16.5439C18.2193 16.5407 18.2851 16.5536 18.3451 16.5815C18.405 16.6094 18.4572 16.6514 18.4973 16.7039C18.5768 16.8069 18.6191 16.9338 18.6173 17.0639C18.6106 17.142 18.5889 17.2181 18.5533 17.2879C18.5169 17.3733 18.4623 17.4497 18.3933 17.5119C18.2247 17.6455 18.0356 17.7508 17.8333 17.8239C17.6121 17.9058 17.3847 17.97 17.1533 18.0159C16.9105 18.0646 16.6646 18.0967 16.4173 18.1119C16.1693 18.1119 15.9293 18.1119 15.7053 18.1119C15.105 18.1149 14.5099 18.0008 13.9533 17.7759C12.8878 17.3478 12.0282 16.5254 11.5533 15.4799C11.3108 14.9263 11.1855 14.3284 11.1855 13.7239C11.1855 13.1195 11.3108 12.5216 11.5533 11.9679C12.0114 10.8978 12.8742 10.0523 13.9533 9.61591C14.5123 9.38963 15.1103 9.27546 15.7133 9.27991C16.29 9.27584 16.8623 9.37892 17.4013 9.58391C17.908 9.76923 18.3708 10.0576 18.7605 10.4307C19.1501 10.8039 19.4582 11.2537 19.6653 11.7519C19.8838 12.2901 19.9899 12.8672 19.9773 13.4479ZM16.4573 12.5279C16.3145 12.4207 16.1399 12.3644 15.9613 12.3679C15.7493 12.3639 15.5417 12.4284 15.3693 12.5519C15.2074 12.6794 15.0715 12.8369 14.9693 13.0159C14.8613 13.2055 14.783 13.4105 14.7373 13.6239C14.6916 13.8234 14.6674 14.0272 14.6653 14.2319C14.6575 14.3197 14.6575 14.4081 14.6653 14.4959C14.6867 14.5886 14.7218 14.6776 14.7693 14.7599C14.8098 14.8338 14.8675 14.8969 14.9373 14.9439C15.0137 14.9998 15.1068 15.028 15.2013 15.0239C15.3151 15.0242 15.4274 14.9976 15.5289 14.9461C15.6304 14.8947 15.7183 14.8199 15.7853 14.7279C15.9398 14.5167 16.0587 14.2816 16.1373 14.0319C16.2236 13.7711 16.2878 13.5035 16.3293 13.2319L16.4573 12.5279Z" fill="#0E2C38" stroke="white" stroke-width="0.4" stroke-miterlimit="10"/>
<path d="M5.81826 10.7683C5.81826 10.7683 4.17026 9.30434 3.61826 10.7683C3.55426 10.9523 3.41026 11.2803 3.61826 11.5683C3.67705 11.6436 3.75234 11.7044 3.83834 11.7461C3.92433 11.7877 4.01874 11.809 4.11427 11.8083C4.37027 11.8083 4.65026 11.6403 4.66626 11.4403C4.66988 11.3657 4.64725 11.2921 4.60227 11.2323C4.3508 11.0092 4.0566 10.8396 3.73755 10.7337C3.41849 10.6278 3.08123 10.5879 2.74627 10.6163C0.546268 10.6163 2.19427 13.3603 2.19427 13.3603" stroke="#7F5BE8" stroke-width="0.8" stroke-linecap="round" stroke-linejoin="round"/>
<path d="M5.84956 5.44903L3.60156 3.45703" stroke="#F6CB46" stroke-width="0.8" stroke-linecap="round" stroke-linejoin="round"/>
<path d="M7.45117 5.03239L7.81917 2.40039" stroke="#F6CB46" stroke-width="0.8" stroke-linecap="round" stroke-linejoin="round"/>
<path d="M5.7867 7.05664L2.9707 7.50464" stroke="#F6CB46" stroke-width="0.8" stroke-linecap="round" stroke-linejoin="round"/></g>
    <g id="bat"><path d="M12.4222 19.4291C10.7062 19.0954 9.16442 18.1632 8.07174 16.7987C6.97906 15.4341 6.40649 13.7258 6.4561 11.9783C6.59442 7.36772 7.8485 1.83499 13.0954 1.83499C13.0954 1.83499 16.5072 1.29094 21.0809 4.48148C22.674 5.62038 24.4349 6.50393 26.3001 7.1003C27.5739 7.46892 28.7017 8.22412 29.5277 9.26151C30.3536 10.2989 30.8369 11.5672 30.9108 12.8912C30.9639 14.0214 30.7224 15.146 30.2099 16.1547C29.6975 17.1634 28.9317 18.0217 27.9876 18.6453C27.9876 18.6453 23.4324 21.6329 12.4222 19.4291Z" fill="#FDF0CF"/>
<path d="M2.38086 4.89551V8.501" stroke="#7F5BE8" stroke-width="0.8" stroke-miterlimit="10" stroke-linecap="round"/>
<path d="M4.18948 6.70215H0.583984" stroke="#7F5BE8" stroke-width="0.8" stroke-miterlimit="10" stroke-linecap="round"/>
<path d="M18 23.4557L18.088 26.0078L24.792 22.6477L24.528 20.2397L18 23.4557Z" fill="white"/>
<path d="M2.40014 20.2086L11.3705 17.3471C12.302 17.072 13.2827 17.0061 14.2427 17.1542L29.3325 19.2977C29.4334 19.3162 29.526 19.3658 29.5974 19.4395C29.6688 19.5132 29.7154 19.6074 29.7308 19.7088C29.7461 19.8103 29.7294 19.914 29.683 20.0055C29.6366 20.097 29.5628 20.1718 29.4718 20.2194L20.7052 25.0421C20.6036 25.0961 20.52 25.1787 20.4648 25.2796C20.4096 25.3806 20.3851 25.4954 20.3944 25.6101L20.5015 27.0355C20.5086 27.1383 20.542 27.2376 20.5985 27.3238C20.6551 27.41 20.7329 27.4801 20.8244 27.5275C20.9159 27.5749 21.0181 27.5979 21.1211 27.5943C21.2241 27.5907 21.3245 27.5607 21.4125 27.5071L29.3647 22.9737C29.5856 22.8592 29.8394 22.825 30.0827 22.8772C30.164 22.9001 30.2387 22.9422 30.3002 23C30.3618 23.0579 30.4085 23.1297 30.4364 23.2095C30.6293 23.7668 30.147 24.2812 29.6433 24.6134L21.7662 29.2968C20.9252 29.7991 19.92 29.9493 18.969 29.7148L2.74309 25.5672C2.42951 25.4873 2.14988 25.3087 1.94537 25.0579C1.74087 24.8071 1.62228 24.4973 1.60707 24.174L1.52133 21.634C1.5066 21.3355 1.58269 21.0394 1.73958 20.785C1.89646 20.5305 2.12677 20.3296 2.40014 20.2086Z" fill="#F6CB46"/>
<path d="M12.4414 10.1773C12.4414 10.1773 13.4834 8.92317 12.4414 8.69264C11.7959 8.55432 6.12489 12.9621 4.65871 14.0778C4.52962 14.17 4.65871 14.3913 4.79703 14.4006L22.8614 15.0829C24.1524 15.1567 24.1155 15.2766 25.2681 13.7459C26.3194 12.3535 27.389 10.3617 28.265 10.6936C29.473 11.1547 28.4402 12.7315 28.4402 12.7315" stroke="black" stroke-width="0.8" stroke-miterlimit="10" stroke-linecap="round"/>
<path d="M10.0889 19.8784L7.3225 19.5557C6.81875 19.4978 6.34666 19.2805 5.97509 18.9355C5.60352 18.5905 5.3519 18.1357 5.25695 17.6377L4.64835 14.5301C4.64558 14.5165 4.6459 14.5026 4.64927 14.4891C4.65265 14.4757 4.659 14.4632 4.66785 14.4526C4.67671 14.442 4.68784 14.4335 4.70043 14.4277C4.71301 14.422 4.72673 14.4192 4.74056 14.4195L12.8276 14.8529L12.7169 17.6192C12.7011 17.9431 12.6194 18.2603 12.477 18.5516C12.3345 18.8429 12.1343 19.1022 11.8884 19.3136C11.6425 19.5249 11.3561 19.684 11.0467 19.7811C10.7374 19.8783 10.4114 19.9113 10.0889 19.8784Z" stroke="black" stroke-width="0.8" stroke-miterlimit="10"/>
<path d="M21.0634 21.0859L17.9005 20.717C17.3196 20.6481 16.7754 20.3967 16.3463 19.999C15.9172 19.6014 15.6252 19.078 15.5122 18.5039L14.793 14.8154L24.3 15.2673L24.1709 18.4394C24.1573 18.8231 24.0639 19.1997 23.8967 19.5453C23.7295 19.891 23.4923 20.198 23.2 20.4469C22.9077 20.6959 22.5667 20.8812 22.1989 20.9912C21.8311 21.1012 21.4444 21.1334 21.0634 21.0859V21.0859Z" stroke="black" stroke-width="0.8" stroke-miterlimit="10"/></g>
    <g id="spcc"><path d="M34.1197 27.1545C26.0361 24.3394 29.599 36.2622 23.2901 33.6127C6.50834 26.57 24.9812 17.2321 31.409 19.254C39.2716 21.7247 37.532 28.3435 34.1197 27.1545Z" fill="#FFF0E9"/>
<path d="M12.3441 14.23H24.6253C24.6253 14.23 25.0356 16.6675 27.0481 16.3827V24.0199C27.0481 24.0199 24.8715 23.9388 24.9133 26.1329H12.1884C12.1884 26.1329 12.1482 23.4105 9.51953 24.1011V16.5052C9.51953 16.5052 12.098 16.8712 12.3441 14.23Z" fill="#FF693D"/>
<path d="M30.2732 9.4308C30.2346 9.43111 30.1963 9.4232 30.161 9.40761C30.1254 9.39329 30.093 9.37211 30.0658 9.3453C30.0385 9.31848 30.017 9.28658 30.0023 9.25144C29.9877 9.2163 29.9803 9.17863 29.9805 9.14062C29.9807 9.10261 29.9886 9.06503 30.0036 9.03006L30.7085 7.35093C30.7385 7.28 30.7957 7.22375 30.8676 7.19456C30.9395 7.16537 31.0202 7.16563 31.0919 7.19527C31.1636 7.22492 31.2205 7.28152 31.25 7.35264C31.2796 7.42375 31.2793 7.50355 31.2493 7.57448L30.5444 9.25195C30.522 9.30485 30.4843 9.35004 30.4361 9.38185C30.3878 9.41366 30.3312 9.43069 30.2732 9.4308Z" fill="#FFBD00"/>
<path d="M34.2561 12.5988H34.2444L32.4026 12.5276C32.3641 12.526 32.3263 12.517 32.2914 12.5011C32.2564 12.4851 32.225 12.4625 32.1988 12.4345C32.1727 12.4065 32.1524 12.3737 32.1391 12.338C32.1258 12.3022 32.1198 12.2642 32.1213 12.2262C32.1229 12.1881 32.132 12.1507 32.1481 12.1162C32.1643 12.0816 32.1871 12.0505 32.2154 12.0247C32.2726 11.9725 32.3483 11.9449 32.426 11.948L34.2678 12.0192C34.3455 12.0207 34.4194 12.0527 34.4733 12.1082C34.5271 12.1636 34.5565 12.2379 34.555 12.3148C34.5534 12.3916 34.521 12.4647 34.465 12.518C34.4089 12.5713 34.3338 12.6003 34.2561 12.5988Z" fill="#FFBD00"/>
<path d="M31.5796 10.8137C31.5175 10.8134 31.4571 10.7936 31.4072 10.7571C31.3572 10.7206 31.3202 10.6694 31.3016 10.6108C31.2829 10.5522 31.2836 10.4893 31.3035 10.4311C31.3234 10.3729 31.3614 10.3225 31.4122 10.2871L32.9091 9.23557C32.9724 9.20056 33.0466 9.19003 33.1173 9.20601C33.188 9.22199 33.2502 9.26334 33.2919 9.32206C33.3335 9.38078 33.3517 9.4527 33.3428 9.5239C33.334 9.5951 33.2987 9.66053 33.2439 9.70751L31.737 10.759C31.6912 10.7922 31.6364 10.8112 31.5796 10.8137Z" fill="#FFBD00"/>
<path d="M6.83472 10.4959C6.7573 10.4959 6.68303 10.4656 6.62813 10.4116C6.57323 10.3576 6.54215 10.2843 6.54171 10.2078L6.52833 6.28979C6.5281 6.25181 6.53547 6.21417 6.55001 6.17902C6.56455 6.14387 6.58599 6.11191 6.61306 6.08498C6.64014 6.05805 6.67232 6.03668 6.70778 6.02209C6.74323 6.00751 6.78126 6 6.81966 6C6.89694 6.00043 6.97097 6.03087 7.02578 6.08477C7.08059 6.13866 7.11179 6.2117 7.11266 6.28814L7.12605 10.2061C7.12605 10.2827 7.09541 10.3561 7.04082 10.4104C6.98624 10.4647 6.91214 10.4955 6.83472 10.4959Z" fill="#00202B"/>
<path d="M4.65434 8.56478C4.57663 8.56478 4.5021 8.53425 4.44715 8.4799C4.3922 8.42556 4.36133 8.35185 4.36133 8.27499C4.36133 8.19814 4.3922 8.12443 4.44715 8.07008C4.5021 8.01574 4.57663 7.9852 4.65434 7.9852L8.67273 7.96533C8.75044 7.96533 8.82498 7.99586 8.87993 8.05021C8.93488 8.10455 8.96573 8.17827 8.96573 8.25512C8.96573 8.33198 8.93488 8.40569 8.87993 8.46003C8.82498 8.51438 8.75044 8.54491 8.67273 8.54491L4.65434 8.56478Z" fill="#00202B"/>
<path d="M4.14022 13.3639C3.91497 13.3642 3.69467 13.2985 3.50722 13.1749C3.31976 13.0514 3.17357 12.8757 3.08714 12.6699C3.00071 12.4642 2.97793 12.2377 3.02168 12.0192C3.06542 11.8007 3.17371 11.5999 3.33287 11.4422C3.49204 11.2846 3.6949 11.1772 3.9158 11.1336C4.13671 11.09 4.36573 11.1122 4.57386 11.1974C4.782 11.2826 4.95992 11.4269 5.0851 11.6121C5.21027 11.7973 5.2771 12.0151 5.2771 12.2379C5.27665 12.5361 5.15678 12.822 4.94372 13.033C4.73066 13.2441 4.44175 13.363 4.14022 13.3639ZM4.14022 11.6931C4.0308 11.6927 3.92374 11.7245 3.83262 11.7845C3.7415 11.8444 3.67042 11.9297 3.6284 12.0296C3.58637 12.1295 3.57529 12.2396 3.59655 12.3457C3.61782 12.4519 3.67049 12.5494 3.74786 12.6259C3.82523 12.7024 3.92382 12.7545 4.03116 12.7756C4.13849 12.7966 4.24973 12.7856 4.35076 12.7441C4.45179 12.7025 4.53807 12.6322 4.59866 12.5421C4.65924 12.452 4.69141 12.3461 4.69108 12.2379C4.69064 12.0935 4.63246 11.9552 4.52925 11.8531C4.42604 11.751 4.28618 11.6935 4.14022 11.6931Z" fill="#68D787"/>
<path d="M29.5903 28.4991H7.11914V11.5571H29.5903V28.4991ZM7.70516 27.9129H29.0077V12.1367H7.70516V27.9129Z" fill="#00202B"/>
<path d="M23.9997 21.5278H12.8721V22.1074H23.9997V21.5278Z" fill="white"/>
<path d="M22.1012 18.6069H14.1816V19.1865H22.1012V18.6069Z" fill="white"/></g>
    <g id="tssc">
<path d="M5.99957 26.2125H5.94818L3.26019 25.7698C3.17889 25.7565 3.10623 25.7119 3.05821 25.6458C3.01019 25.5797 2.99074 25.4974 3.00413 25.4171C3.01753 25.3368 3.06267 25.2651 3.12963 25.2176C3.19659 25.1702 3.27988 25.151 3.36118 25.1642L6.05097 25.607C6.12871 25.6186 6.19906 25.659 6.2478 25.72C6.29654 25.7809 6.32002 25.8578 6.31349 25.9352C6.30696 26.0126 6.27091 26.0847 6.21263 26.1368C6.15435 26.1889 6.07819 26.2173 5.99957 26.216V26.2125Z" fill="#FECB04"/>
<path d="M8.78903 23.1902C8.7169 23.1903 8.64701 23.1655 8.59138 23.1201C8.53575 23.0748 8.49787 23.0117 8.48427 22.9417L7.9704 20.2974C7.9549 20.2175 7.97213 20.1349 8.01832 20.0676C8.0645 20.0003 8.13587 19.9539 8.2167 19.9386C8.29754 19.9233 8.38121 19.9403 8.44933 19.9859C8.51746 20.0315 8.56445 20.102 8.57996 20.1819L9.0938 22.8262C9.10151 22.8657 9.10127 22.9064 9.09306 22.9458C9.08485 22.9853 9.06885 23.0227 9.04597 23.056C9.0231 23.0894 8.99379 23.1179 8.95974 23.14C8.92568 23.1621 8.88754 23.1774 8.8475 23.185L8.78903 23.1902Z" fill="#FECB04"/>
<path d="M7.15296 24.4973C7.07765 24.4978 7.00488 24.4703 6.94918 24.4203L4.90615 22.6369C4.87491 22.6105 4.84932 22.5782 4.83085 22.5419C4.81239 22.5056 4.80141 22.466 4.79858 22.4254C4.79576 22.3849 4.80114 22.3442 4.81439 22.3057C4.82765 22.2673 4.84853 22.2318 4.8758 22.2014C4.90308 22.171 4.93621 22.1462 4.97327 22.1285C5.01033 22.1109 5.05056 22.1007 5.09165 22.0986C5.13273 22.0964 5.17385 22.1024 5.21258 22.1161C5.25131 22.1298 5.28689 22.151 5.31725 22.1784L7.35851 23.9547C7.38911 23.9813 7.4141 24.0135 7.43209 24.0496C7.45008 24.0857 7.46069 24.1249 7.46332 24.1651C7.46596 24.2052 7.46057 24.2455 7.44745 24.2836C7.43432 24.3216 7.41372 24.3568 7.38684 24.387C7.35814 24.4209 7.3224 24.4483 7.28204 24.4673C7.24169 24.4863 7.19767 24.4965 7.15296 24.4973Z" fill="#FECB04"/>
<path d="M34.6376 22.5407C24.7273 22.8767 33.6524 34.2189 25.7195 33.9966C4.63365 33.4051 20.5597 15.6664 28.3491 15.1659C37.8732 14.5534 38.8211 22.3989 34.6376 22.5407Z" fill="#DAEFDE"/>
<path d="M29.899 19.039H29.8565C29.8155 19.0339 29.776 19.0207 29.7404 19.0002C29.7047 18.9796 29.6737 18.9522 29.649 18.9195C29.6243 18.8868 29.6066 18.8496 29.5969 18.81C29.5872 18.7703 29.5857 18.7292 29.5924 18.689C29.6524 18.2575 29.6118 17.8181 29.4737 17.4045C29.3165 16.9201 28.9994 16.5018 28.5732 16.2163C28.147 15.9307 27.6362 15.7945 27.1224 15.8294C27.007 15.8333 26.8921 15.8456 26.7786 15.8661C26.8141 15.9572 26.8459 16.0517 26.8778 16.1479C27.3687 17.6967 26.7822 18.542 26.0699 18.815C25.3912 19.0758 24.6009 18.8378 24.344 18.29C24.1526 17.8857 24.2589 17.2697 24.624 16.6817C24.9353 16.1722 25.3887 15.7621 25.9299 15.5004C25.1059 14.0566 23.8036 14.1126 23.7486 14.1161C23.6684 14.1183 23.5905 14.0898 23.5311 14.0365C23.4718 13.9831 23.4356 13.9092 23.4304 13.8301C23.4251 13.751 23.4511 13.673 23.5028 13.6124C23.5546 13.5519 23.6281 13.5135 23.7079 13.5053C23.7274 13.5053 25.5011 13.4056 26.5199 15.2904C26.7105 15.2447 26.9052 15.2183 27.1011 15.2116C28.485 15.1644 29.6456 15.9432 30.062 17.2014C30.2312 17.7033 30.2803 18.237 30.2055 18.7608C30.1989 18.8366 30.1637 18.9072 30.107 18.9587C30.0503 19.0102 29.976 19.0389 29.899 19.039ZM26.1903 16.0639C25.7635 16.2795 25.4044 16.6063 25.152 17.0089C24.8791 17.4517 24.8206 17.8612 24.9057 18.038C25.012 18.262 25.4373 18.402 25.8448 18.248C26.4296 18.024 26.5943 17.3082 26.286 16.3352C26.2559 16.2547 26.224 16.1567 26.1992 16.0692L26.1903 16.0639Z" fill="#00202B"/>
<path d="M11.3026 24.9614C11.0728 25.1078 10.8727 25.2953 10.7126 25.5144C10.6352 25.6259 10.5938 25.758 10.5938 25.8933C10.5938 26.0285 10.6352 26.1606 10.7126 26.2722C10.8406 26.3997 11.004 26.4868 11.1821 26.5224C11.9697 26.7272 12.7768 26.8503 13.5902 26.8899C17.3287 27.1697 21.0868 27.0565 24.8011 26.5522C25.0351 26.5465 25.2591 26.4577 25.432 26.3019C25.6729 26.0184 25.5117 25.5879 25.3079 25.2781C24.5531 24.1353 23.3588 23.353 22.4108 22.366C21.8052 21.7367 21.296 21.0233 20.8994 20.2484C20.7417 19.9387 20.568 19.5887 20.2367 19.4784C20.1008 19.4404 19.9595 19.425 19.8185 19.4329C18.7553 19.4329 17.5717 19.2946 16.5245 19.4626C15.7218 19.5904 15.6155 20.1819 15.2115 20.8084C14.1712 22.413 12.8472 23.8197 11.3026 24.9614Z" fill="#68D787"/>
<g opacity="0.48">
<path opacity="0.48" d="M15.3912 22.2241C15.0503 22.7025 14.6608 23.1452 14.2288 23.5454C13.7563 24.0016 13.2714 24.442 12.7741 24.8667C12.646 24.9519 12.5526 25.0789 12.5101 25.2255C12.5061 25.3329 12.543 25.438 12.6135 25.5199C12.684 25.6018 12.783 25.6548 12.891 25.6682C13.1099 25.6881 13.3297 25.6404 13.52 25.5317C14.1275 25.2224 14.6901 24.8339 15.1927 24.3767C16.1275 23.5797 16.7934 22.5197 17.1011 21.3386C17.3497 20.3036 17.461 19.2412 17.4325 18.178C17.4325 17.9364 17.4112 17.4622 17.1365 17.3449C16.83 17.2172 16.5695 17.5689 16.527 17.8349C16.4154 18.5455 16.449 19.2665 16.3002 19.9788C16.1477 20.7784 15.8389 21.541 15.3912 22.2241Z" fill="white"/>
</g>
<path d="M18.8465 28.8253H18.6693C18.3539 28.8253 18.0368 28.8253 17.7196 28.8253H17.6133C15.9424 28.8008 14.2732 28.7186 12.6519 28.5821L12.5119 28.5698C11.6967 28.5196 10.8871 28.4025 10.0915 28.2198C8.90781 27.9188 8.26107 27.4603 8.11223 26.8198C7.93503 26.055 8.60837 25.4197 8.93263 25.1082L9.22675 24.8299C11.0288 23.1184 13.0718 21.1811 13.8975 18.8797C14.3122 17.7282 14.4008 16.4804 14.461 15.1958C14.5691 12.9995 14.6045 10.7577 14.5691 8.53333C14.5889 8.32744 14.5483 8.12028 14.4521 7.93656C14.3311 7.79472 14.1823 7.67862 14.0145 7.59529C13.7292 7.42028 13.3748 7.21553 13.2313 6.73076C13.1592 6.48875 13.1607 6.23114 13.2357 5.98999C13.3107 5.74883 13.4558 5.53478 13.653 5.37446C13.9914 5.11195 14.4114 5.06995 14.8101 5.0507C14.9607 5.04195 15.1166 5.03494 15.2708 5.02969C17.3971 4.94219 19.5535 5.0647 21.6373 5.18195C21.7992 5.18288 21.9596 5.21312 22.1104 5.2712C22.7146 5.52496 22.7767 6.32999 22.5871 6.78676C22.4099 7.20153 22.0555 7.54629 21.469 7.8368C21.4327 7.85307 21.3983 7.87301 21.3662 7.8963C21.3598 7.90206 21.355 7.90927 21.352 7.9173C21.3528 7.92662 21.3528 7.93598 21.352 7.9453C21.3479 7.96437 21.345 7.98366 21.3432 8.00306C21.3432 8.01531 21.3432 8.02056 21.3432 8.02931C21.3432 8.07831 21.3432 8.11506 21.3432 8.15356C21.3538 8.59808 21.3432 9.0286 21.3219 9.45736C21.3077 9.85288 21.2918 10.2624 21.3006 10.6649L21.391 14.7356C21.4158 15.8486 21.4406 16.9984 21.7454 18.0764C22.0998 19.2875 22.9432 20.159 23.8363 21.0848C24.0454 21.3001 24.2562 21.5171 24.46 21.7393C24.5044 21.7878 24.5318 21.8492 24.5379 21.9143C24.6443 22.1156 25.3247 22.7194 25.6206 22.9801C25.8598 23.1919 25.998 23.3161 26.0653 23.3931L27.9985 25.593C28.2023 25.824 28.5815 26.2563 28.4645 26.7708C28.3635 27.231 27.933 27.4708 27.6016 27.6196C25.5355 28.5523 23.2462 28.7063 21.2634 28.7781C20.8075 28.7944 20.3538 28.8067 19.9026 28.8148C19.5535 28.8236 19.1991 28.8253 18.8465 28.8253ZM17.7284 28.2058C18.0474 28.2058 18.361 28.2058 18.6729 28.2058H18.8501C19.2045 28.2058 19.5588 28.2058 19.9008 28.1971C20.3509 28.1901 20.8009 28.1784 21.251 28.1621C23.6378 28.0746 25.5905 27.8541 27.3553 27.056C27.6743 26.9143 27.8373 26.7813 27.8692 26.636C27.9117 26.4488 27.7363 26.216 27.5413 25.992L25.6082 23.7922C25.5621 23.7414 25.3867 23.5857 25.2166 23.4421C24.4086 22.7264 24.0453 22.3694 23.9532 22.0981C23.776 21.9021 23.5846 21.7078 23.3986 21.5153C22.4914 20.579 21.554 19.6095 21.1607 18.2549C20.8258 17.0999 20.8063 15.9081 20.7744 14.7548L20.684 10.6842C20.684 10.2659 20.684 9.84588 20.7053 9.44161C20.7265 9.03735 20.7372 8.60158 20.7265 8.17981C20.7265 8.13081 20.7265 8.07656 20.7265 8.02406C20.7251 8.00133 20.7251 7.97853 20.7265 7.9558C20.7307 7.90633 20.7384 7.8572 20.7496 7.8088C20.7544 7.78751 20.7603 7.76648 20.7673 7.7458C20.7761 7.7143 20.7886 7.68805 20.7956 7.6688V7.6583C20.8278 7.5887 20.8722 7.52529 20.9268 7.47104C20.998 7.39824 21.082 7.33893 21.1748 7.29603H21.1908C21.6338 7.07027 21.8996 6.82701 22.0183 6.554C22.1104 6.33175 22.0803 5.92048 21.8712 5.83123C21.7857 5.80486 21.6967 5.79129 21.6072 5.79097C19.5376 5.67372 17.3971 5.55471 15.2991 5.63872C15.1485 5.63872 14.9979 5.65097 14.8491 5.65972C14.5478 5.67547 14.2378 5.70347 14.0393 5.85572C13.9402 5.94032 13.8679 6.05137 13.8311 6.17555C13.7944 6.29972 13.7946 6.43174 13.832 6.55575C13.9029 6.79901 14.0641 6.90577 14.3388 7.06677C14.5796 7.19125 14.7915 7.36413 14.9607 7.57429C15.1357 7.85786 15.2174 8.18801 15.1946 8.51933C15.23 10.7577 15.1946 13.0117 15.0865 15.2221C15.0245 16.5521 14.9306 17.8472 14.4876 19.081C13.6123 21.5118 11.5125 23.5034 9.66088 25.2605L9.36851 25.5405C8.98046 25.9062 8.63493 26.2983 8.72176 26.6745C8.94856 27.6581 11.6738 27.8803 12.5686 27.9521L12.7104 27.9643C14.3051 28.1008 15.9636 28.1813 17.6328 28.2058C17.6646 28.2088 17.6966 28.2088 17.7284 28.2058Z" fill="#68D787"/>
</g>
    <g id="oto"><path d="M23.2054 29.332C20.8744 30.9397 17.2125 26.0202 14.4431 25.9485C10.4546 25.8448 7.44164 29.8041 5.00035 26.5098C0.862776 20.9267 3.4244 11.5597 10.0763 9.8161C17.6953 7.81525 13.6824 12.1867 17.8128 17.7698C21.9432 23.3529 28.8115 25.475 23.2054 29.332Z" fill="#FFF0CB"/>
<path d="M22.3881 10.6671H7.57129V8.39583C7.57167 8.08972 7.69103 7.79627 7.90321 7.57982C8.11538 7.36337 8.40305 7.2416 8.70311 7.24121H20.7992C21.2204 7.24198 21.6241 7.413 21.9219 7.7168C22.2197 8.0206 22.3873 8.43242 22.3881 8.86206V10.6671ZM7.9352 10.2914H22.0141V8.86206C22.0134 8.53204 21.8845 8.21576 21.6558 7.9824C21.427 7.74904 21.117 7.6176 20.7935 7.61683H8.69737C8.4951 7.61721 8.30125 7.69946 8.15835 7.84551C8.01546 7.99155 7.93519 8.18948 7.9352 8.39583V10.2914Z" fill="#00202B"/>
<path d="M8.80821 9.73291H21.1407C21.4683 9.73291 21.7824 9.86564 22.014 10.1019C22.2456 10.3382 22.3757 10.6586 22.3757 10.9928V18.1455C22.3757 18.3227 22.3067 18.4926 22.1839 18.6178C22.0611 18.7431 21.8946 18.8134 21.721 18.8134H8.22798C8.05433 18.8134 7.8878 18.7431 7.76501 18.6178C7.64222 18.4926 7.57324 18.3227 7.57324 18.1455V10.9928C7.57324 10.6586 7.70335 10.3382 7.93496 10.1019C8.16656 9.86564 8.48068 9.73291 8.80821 9.73291Z" fill="#FF693D"/>
<path d="M9.387 8.98332C9.57216 8.98332 9.72225 8.8302 9.72225 8.64132C9.72225 8.45243 9.57216 8.29932 9.387 8.29932C9.20185 8.29932 9.05176 8.45243 9.05176 8.64132C9.05176 8.8302 9.20185 8.98332 9.387 8.98332Z" fill="#FF693D"/>
<path d="M10.7727 8.96427C10.9579 8.96427 11.108 8.81115 11.108 8.62227C11.108 8.43339 10.9579 8.28027 10.7727 8.28027C10.5876 8.28027 10.4375 8.43339 10.4375 8.62227C10.4375 8.81115 10.5876 8.96427 10.7727 8.96427Z" fill="#FFBD00"/>
<path d="M12.0901 8.9716C12.2753 8.9716 12.4254 8.81848 12.4254 8.6296C12.4254 8.44072 12.2753 8.2876 12.0901 8.2876C11.905 8.2876 11.7549 8.44072 11.7549 8.6296C11.7549 8.81848 11.905 8.9716 12.0901 8.9716Z" fill="#68D787"/>
<path d="M15.0374 13.8413C14.786 13.8413 14.5403 13.7653 14.3314 13.6228C14.1224 13.4804 13.9595 13.2779 13.8633 13.041C13.7672 12.8041 13.742 12.5435 13.791 12.292C13.8401 12.0405 13.9611 11.8095 14.1388 11.6282C14.3165 11.4469 14.543 11.3235 14.7895 11.2734C15.036 11.2234 15.2915 11.2491 15.5237 11.3472C15.7559 11.4453 15.9544 11.6115 16.094 11.8247C16.2336 12.0379 16.3082 12.2885 16.3082 12.5449C16.3082 12.8887 16.1743 13.2185 15.936 13.4616C15.6976 13.7047 15.3744 13.8413 15.0374 13.8413ZM15.0374 11.6256C14.8592 11.6259 14.6851 11.6801 14.5371 11.7813C14.3891 11.8824 14.2738 12.0261 14.2059 12.1941C14.1379 12.3621 14.1202 12.5469 14.1552 12.7252C14.1901 12.9034 14.276 13.0671 14.4021 13.1955C14.5282 13.3239 14.6888 13.4113 14.8635 13.4467C15.0383 13.482 15.2194 13.4637 15.384 13.3941C15.5486 13.3245 15.6892 13.2067 15.7882 13.0555C15.8872 12.9044 15.94 12.7267 15.94 12.5449C15.94 12.4241 15.9166 12.3044 15.8712 12.1928C15.8259 12.0811 15.7594 11.9797 15.6755 11.8944C15.5917 11.809 15.4922 11.7413 15.3827 11.6952C15.2732 11.6491 15.1558 11.6254 15.0374 11.6256Z" fill="#00202B"/>
<path d="M12.0245 17.1986L11.6807 17.0641C11.7351 16.918 13.0517 13.4673 15.0374 13.4644C17.0432 13.4644 17.9186 16.8186 17.9544 16.9618L17.5976 17.0568C17.589 17.0247 16.7538 13.8414 15.0374 13.8414C13.3053 13.8429 12.0374 17.165 12.0245 17.1986Z" fill="#00202B"/>
<path d="M22.08 8.70401C22.8507 8.70401 23.4754 8.06667 23.4754 7.28047C23.4754 6.49427 22.8507 5.85693 22.08 5.85693C21.3093 5.85693 20.6846 6.49427 20.6846 7.28047C20.6846 8.06667 21.3093 8.70401 22.08 8.70401Z" fill="#68D787"/>
<path d="M17.2259 15.7954H29.5298C29.814 15.7954 30.0866 15.9106 30.2876 16.1156C30.4885 16.3206 30.6014 16.5987 30.6014 16.8886V18.8398H16.1543V16.8843C16.1554 16.5951 16.2688 16.3181 16.4697 16.1141C16.6705 15.91 16.9425 15.7954 17.2259 15.7954Z" fill="white"/>
<path d="M30.7884 19.0284H15.9717V16.8828C15.9721 16.543 16.1046 16.2172 16.3401 15.9769C16.5757 15.7366 16.895 15.6015 17.2281 15.6011H29.532C29.865 15.6018 30.1841 15.7371 30.4196 15.9773C30.6551 16.2176 30.7877 16.5431 30.7884 16.8828V19.0284ZM16.3399 18.6513H30.4188V16.8828C30.4184 16.643 30.3249 16.4131 30.1586 16.2436C29.9924 16.074 29.7671 15.9785 29.532 15.9781H17.2281C16.9928 15.9781 16.7671 16.0734 16.6006 16.243C16.434 16.4127 16.3403 16.6428 16.3399 16.8828V18.6513Z" fill="#00202B"/>
<path d="M16.5758 18.0928H30.1719C30.3319 18.0928 30.4853 18.1576 30.5984 18.273C30.7116 18.3884 30.7751 18.5449 30.7751 18.7081V26.3914C30.7751 26.5988 30.6943 26.7976 30.5506 26.9443C30.4069 27.0909 30.2119 27.1733 30.0086 27.1733H16.7391C16.5359 27.1733 16.3409 27.0909 16.1972 26.9443C16.0534 26.7976 15.9727 26.5988 15.9727 26.3914V18.7081C15.9727 18.5449 16.0362 18.3884 16.1493 18.273C16.2624 18.1576 16.4158 18.0928 16.5758 18.0928Z" fill="#FECB04"/>
<path d="M17.7864 17.3446C17.9716 17.3446 18.1217 17.1915 18.1217 17.0026C18.1217 16.8138 17.9716 16.6606 17.7864 16.6606C17.6013 16.6606 17.4512 16.8138 17.4512 17.0026C17.4512 17.1915 17.6013 17.3446 17.7864 17.3446Z" fill="#FF693D"/>
<path d="M19.1702 17.3256C19.3554 17.3256 19.5055 17.1725 19.5055 16.9836C19.5055 16.7947 19.3554 16.6416 19.1702 16.6416C18.9851 16.6416 18.835 16.7947 18.835 16.9836C18.835 17.1725 18.9851 17.3256 19.1702 17.3256Z" fill="#FFBD00"/>
<path d="M20.4886 17.3329C20.6737 17.3329 20.8238 17.1798 20.8238 16.9909C20.8238 16.802 20.6737 16.6489 20.4886 16.6489C20.3034 16.6489 20.1533 16.802 20.1533 16.9909C20.1533 17.1798 20.3034 17.3329 20.4886 17.3329Z" fill="#68D787"/>
<path d="M23.4368 22.2012C23.1855 22.2012 22.9398 22.1251 22.7308 21.9827C22.5218 21.8402 22.3589 21.6378 22.2627 21.4009C22.1666 21.164 22.1414 20.9033 22.1904 20.6519C22.2395 20.4004 22.3605 20.1694 22.5382 19.9881C22.7159 19.8068 22.9424 19.6833 23.1889 19.6333C23.4354 19.5833 23.6909 19.609 23.9231 19.7071C24.1553 19.8052 24.3538 19.9714 24.4934 20.1846C24.6331 20.3977 24.7076 20.6484 24.7076 20.9048C24.7072 21.2485 24.5732 21.578 24.335 21.821C24.0967 22.0641 23.7737 22.2008 23.4368 22.2012ZM23.4368 19.9855C23.2582 19.9852 23.0835 20.039 22.9348 20.14C22.7862 20.2411 22.6702 20.3849 22.6018 20.5532C22.5333 20.7215 22.5153 20.9068 22.5501 21.0855C22.5848 21.2643 22.6708 21.4285 22.7971 21.5573C22.9235 21.6862 23.0844 21.7739 23.2596 21.8094C23.4348 21.8449 23.6164 21.8265 23.7814 21.7566C23.9464 21.6868 24.0874 21.5685 24.1864 21.4169C24.2855 21.2652 24.3382 21.087 24.338 20.9048C24.338 20.661 24.243 20.4271 24.074 20.2547C23.905 20.0823 23.6758 19.9855 23.4368 19.9855Z" fill="#00202B"/>
<path d="M20.4244 25.5585L20.0791 25.424C20.135 25.2778 21.4516 21.8271 23.4373 21.8257C25.443 21.8257 26.317 25.1799 26.3542 25.3217L25.9975 25.4167C25.9889 25.3845 25.1536 22.2013 23.4373 22.2013C21.7023 22.2028 20.4373 25.5263 20.4244 25.5585Z" fill="#00202B"/>
<path d="M30.5048 17.352C31.2755 17.352 31.9002 16.7146 31.9002 15.9284C31.9002 15.1422 31.2755 14.5049 30.5048 14.5049C29.7341 14.5049 29.1094 15.1422 29.1094 15.9284C29.1094 16.7146 29.7341 17.352 30.5048 17.352Z" fill="#68D787"/>
<path d="M24.391 13.0944C24.391 13.0798 24.2248 11.8155 25.4842 10.9693C25.4485 10.8486 25.4236 10.7248 25.4097 10.5995C25.345 10.1295 25.4357 9.65096 25.6674 9.2394C25.8991 8.82783 26.2586 8.50674 26.6891 8.32684C27.0417 8.17642 27.4236 8.11091 27.8051 8.13537L27.7707 8.70683C27.477 8.68882 27.1832 8.73879 26.9111 8.85299C26.5932 8.98558 26.3278 9.22265 26.1571 9.52661C25.9863 9.83057 25.9199 10.184 25.9684 10.5308C25.9684 10.5834 25.9828 10.6361 25.9928 10.6858C26.0329 10.6668 26.0744 10.6492 26.116 10.6331C27.2177 10.183 27.871 10.5747 28.1131 11.0906C28.3553 11.6065 28.2091 12.1984 27.8123 12.4264C27.5257 12.5945 27.0587 12.5536 26.6074 12.3183C26.2438 12.131 25.9368 11.8466 25.7191 11.4954C24.8409 12.1385 24.9426 12.9701 24.9484 13.0154L24.391 13.0944ZM26.2091 11.2178C26.3755 11.468 26.5999 11.6723 26.8624 11.8126C27.2005 11.988 27.4541 11.9792 27.5358 11.9324C27.6604 11.8608 27.7192 11.5817 27.606 11.3478C27.4326 10.9766 26.9641 10.9094 26.3252 11.1739L26.2091 11.2178Z" fill="#FF693D"/>
<path d="M15.843 29.0149L15.2011 30.8695L15.1094 31.1355C15.0861 31.2239 15.0978 31.3181 15.142 31.3977C15.1863 31.4773 15.2595 31.5359 15.3458 31.5609C15.4322 31.5827 15.5235 31.5699 15.6008 31.525C15.6781 31.4801 15.7356 31.4066 15.7613 31.3197L16.4031 29.4665L16.4948 29.199C16.5182 29.1108 16.5064 29.0168 16.4621 28.9375C16.4179 28.8581 16.3447 28.7998 16.2584 28.7752C16.1723 28.7532 16.0811 28.7659 16.0038 28.8105C15.9265 28.8551 15.8689 28.9282 15.843 29.0149Z" fill="#FFBD00"/>
<path d="M14.125 26.0522L12.1981 26.0829H11.9202C11.8305 26.0829 11.7445 26.1193 11.6811 26.184C11.6177 26.2486 11.582 26.3364 11.582 26.4279C11.582 26.5193 11.6177 26.6071 11.6811 26.6718C11.7445 26.7364 11.8305 26.7728 11.9202 26.7728L13.8471 26.7421H14.125C14.2147 26.7421 14.3007 26.7058 14.3641 26.6411C14.4275 26.5764 14.4632 26.4886 14.4632 26.3972C14.4632 26.3057 14.4275 26.218 14.3641 26.1533C14.3007 26.0886 14.2147 26.0522 14.125 26.0522Z" fill="#FFBD00"/>
<path d="M14.7107 27.6703L13.1978 28.8995L12.9857 29.0705C12.9229 29.1356 12.8877 29.2232 12.8877 29.3146C12.8877 29.4059 12.9229 29.4936 12.9857 29.5586C13.0502 29.6214 13.1359 29.6564 13.225 29.6564C13.3141 29.6564 13.3998 29.6214 13.4642 29.5586L14.9772 28.3295L15.1892 28.1585C15.252 28.0934 15.2872 28.0058 15.2872 27.9144C15.2872 27.8231 15.252 27.7354 15.1892 27.6703C15.1244 27.6083 15.0388 27.5737 14.9499 27.5737C14.861 27.5737 14.7755 27.6083 14.7107 27.6703Z" fill="#FFBD00"/>
</g>
    <g id="fcbc"><path d="M38.2302 22.6771C38.2177 22.6771 37.0916 21.9366 37.2739 20.274C37.1465 20.2199 37.0245 20.1532 36.9094 20.0747C36.491 19.8073 36.1702 19.4024 35.9978 18.924C35.8255 18.4456 35.8114 17.9211 35.9578 17.4334C36.0747 17.0315 36.2794 16.6632 36.5559 16.3574L36.953 16.7447C36.7366 16.9891 36.5768 17.2818 36.4858 17.6003C36.3769 17.9705 36.3894 18.3679 36.5214 18.7299C36.6533 19.0919 36.8972 19.398 37.2147 19.5999C37.271 19.6378 37.3292 19.6724 37.3891 19.7036C37.4047 19.6464 37.4218 19.588 37.4405 19.5286C37.8205 18.2906 38.565 18.007 39.1366 18.1545C39.6817 18.2955 40.0711 18.8221 39.9886 19.3066C39.9278 19.6631 39.5867 20.0229 39.0977 20.2416C38.6949 20.425 38.2513 20.4889 37.8159 20.4264C37.7178 21.6692 38.5121 22.1862 38.5214 22.1926L38.2302 22.6771ZM37.9015 19.8673C38.2311 19.9067 38.5649 19.8565 38.8703 19.7215C39.2145 19.5594 39.417 19.3455 39.4419 19.2062C39.4699 19.0441 39.2768 18.7784 38.9933 18.7054C38.565 18.5953 38.1741 18.9663 37.9483 19.702C37.9337 19.7582 37.9182 19.8133 37.9015 19.8673Z" fill="#FF693D"/>
<path d="M38.5149 26.7135L28.0066 15.2375C28.0066 15.2375 20.266 12.8166 17.7039 18.4541C17.7039 18.4541 10.2047 11.6612 3.92188 17.7881L13.6202 27.5853L24.4789 26.4024C24.4789 26.4024 25.5131 28.8152 26.9288 28.5948C28.3446 28.3744 28.5938 26.5174 28.5938 26.5174L38.5149 26.7135Z" fill="#E8DFFF"/>
<path d="M38.5148 26.7134L28.5938 26.5108C28.5938 26.5108 29.6295 23.5486 33.2132 23.7674C34.7091 23.8724 36.1279 24.4967 37.2424 25.5402L38.5148 26.7134Z" fill="#8853F1"/>
<path d="M24.4789 26.3959L13.4209 27.5091C13.4209 27.5091 14.2121 24.0592 18.2257 23.821C19.9028 23.7347 21.5587 24.2406 22.9246 25.2567L24.4789 26.3959Z" fill="#8853F1"/>
<path d="M17.9699 18.153L17.5957 18.5654L26.7003 27.5077L27.0745 27.0952L17.9699 18.153Z" fill="#00202B"/>
<path d="M26.8291 28.9999C25.3028 28.9999 24.3014 27.3487 24.007 26.7913L13.2838 27.8721L13.2324 27.3082L24.3278 26.1885L24.4104 26.3683C24.4197 26.3894 25.376 28.4328 26.8307 28.4328H26.8805C28.0066 28.3971 28.547 26.7216 28.5517 26.7054L28.6124 26.5093H28.8102H38.3622V27.0765H29.0003C28.7962 27.5966 28.1452 28.9611 26.8977 28.9999H26.8291Z" fill="#00202B"/>
<path d="M27.94 25.0705L27.3965 25.017C27.4074 24.8906 27.7267 21.9382 32.6701 21.7275L32.6919 22.2947C28.2515 22.4778 27.9478 24.9652 27.94 25.0705Z" fill="#8853F1"/>
<path d="M25.6765 23.2394L25.2217 22.9267C25.2809 22.8343 26.7137 20.6581 30.9921 20.2627L31.0419 20.8266C27.0206 21.2026 25.6889 23.22 25.6765 23.2394Z" fill="#8853F1"/>
<path d="M24.0463 21.1846L23.6289 20.8184C23.7021 20.7293 25.4434 18.6389 30.0488 18.7621L30.0348 19.3292C27.7733 19.2693 26.2657 19.7781 25.3966 20.2156C24.4653 20.6872 24.0541 21.1798 24.0463 21.1846Z" fill="#8853F1"/>
<path d="M22.2129 19.4734L21.9014 19.0084C22.0073 18.9306 24.5693 17.0962 28.9707 17.4252L28.9318 17.9907C27.259 17.8509 25.5763 18.0626 23.9837 18.613C23.361 18.8211 22.766 19.1102 22.2129 19.4734Z" fill="#8853F1"/>
<path d="M13.5827 25.2791L13.0781 25.0636C13.0937 25.0263 14.6029 21.3722 19.7519 22.6913L19.6211 23.2422C14.9424 22.0431 13.6357 25.1543 13.5827 25.2791Z" fill="#8853F1"/>
<path d="M11.9205 23.1713L11.542 22.7629C11.6526 22.6511 14.3018 20.0617 18.7562 21.3791L18.6082 21.9252C14.4654 20.7001 11.9454 23.147 11.9205 23.1713Z" fill="#8853F1"/>
<path d="M9.31242 19.5756L9.04297 19.0813C9.15666 19.0149 11.8869 17.4398 16.0936 18.9079L15.9208 19.4459C11.9586 18.0621 9.33889 19.5594 9.31242 19.5756Z" fill="#8853F1"/>
<path d="M10.5393 21.3595L10.1748 20.9382C10.2574 20.8605 12.2571 19.0375 16.7972 19.8639L16.7022 20.4229C12.4238 19.6451 10.5579 21.3433 10.5393 21.3595Z" fill="#8853F1"/>
<path d="M3.61803 15.4562C3.54613 15.4558 3.47728 15.426 3.42629 15.3733C3.37531 15.3205 3.34629 15.2491 3.34547 15.1743L3.33301 11.2852C3.33281 11.248 3.33965 11.211 3.35316 11.1766C3.36667 11.1421 3.38657 11.1107 3.41174 11.0842C3.4369 11.0577 3.46683 11.0367 3.49982 11.0222C3.53281 11.0078 3.56822 11.0002 3.60401 11C3.67617 11.0004 3.74526 11.0304 3.79628 11.0835C3.84731 11.1366 3.87616 11.2085 3.87657 11.2836L3.88902 15.1726C3.88923 15.2098 3.88238 15.2466 3.86885 15.281C3.85532 15.3154 3.83539 15.3467 3.81021 15.3731C3.78502 15.3994 3.75508 15.4203 3.72209 15.4346C3.68911 15.4489 3.65375 15.4562 3.61803 15.4562Z" fill="#00202B"/>
<path d="M1.5626 13.5392C1.49031 13.5392 1.42098 13.5094 1.36987 13.4562C1.31875 13.403 1.29004 13.3309 1.29004 13.2557C1.29004 13.1804 1.31875 13.1083 1.36987 13.0551C1.42098 13.002 1.49031 12.9721 1.5626 12.9721L5.34569 12.9526C5.41798 12.9526 5.48731 12.9825 5.53842 13.0357C5.58953 13.0889 5.61825 13.161 5.61825 13.2362C5.61825 13.3114 5.58953 13.3836 5.53842 13.4367C5.48731 13.4899 5.41798 13.5198 5.34569 13.5198L1.56415 13.5392H1.5626Z" fill="#00202B"/>
<path d="M1.06998 18.3031C0.858362 18.3031 0.651492 18.2379 0.475534 18.1155C0.299576 17.9932 0.162431 17.8193 0.0814466 17.6159C0.000462185 17.4125 -0.0207251 17.1887 0.0205604 16.9727C0.0618459 16.7568 0.16375 16.5584 0.313389 16.4027C0.463029 16.247 0.653685 16.141 0.861242 16.0981C1.0688 16.0551 1.28393 16.0771 1.47945 16.1614C1.67496 16.2457 1.84207 16.3883 1.95964 16.5714C2.07721 16.7545 2.13997 16.9697 2.13997 17.1899C2.13955 17.485 2.02669 17.7679 1.82612 17.9766C1.62555 18.1853 1.35364 18.3027 1.06998 18.3031ZM1.06998 16.6438C0.966176 16.6438 0.864696 16.6758 0.778382 16.7358C0.692068 16.7959 0.624793 16.8811 0.585067 16.9809C0.545341 17.0807 0.534947 17.1905 0.555199 17.2964C0.575451 17.4024 0.625441 17.4997 0.698845 17.576C0.772249 17.6524 0.865771 17.7044 0.967586 17.7255C1.0694 17.7466 1.17494 17.7358 1.27084 17.6944C1.36675 17.6531 1.44872 17.5831 1.50639 17.4933C1.56407 17.4035 1.59485 17.2979 1.59485 17.1899C1.59485 17.0451 1.53955 16.9062 1.44112 16.8038C1.34269 16.7013 1.20919 16.6438 1.06998 16.6438Z" fill="#68D787"/></g>
    <g id="fcbt">
    <path d="M7.72645 20.0632C17.3406 26.3379 16.7398 9.83359 24.0953 15.3211C43.6435 29.8831 16.2932 35.8335 8.57688 31.1255C-0.863673 25.3573 3.66935 17.4209 7.72645 20.0632Z" fill="#FFF0CB"/>
<path d="M18.5128 26.0494C16.5036 26.0498 14.5394 25.4707 12.8686 24.3855C11.1978 23.3002 9.89552 21.7575 9.12636 19.9524C8.3572 18.1474 8.15575 16.161 8.5475 14.2446C8.93924 12.3282 9.90657 10.5678 11.3272 9.18607C12.7478 7.80432 14.5578 6.86328 16.5284 6.48195C18.499 6.10063 20.5416 6.29615 22.3979 7.04379C24.2542 7.79143 25.8408 9.0576 26.9571 10.6822C28.0734 12.3068 28.6693 14.2168 28.6693 16.1707C28.6662 18.7894 27.5952 21.3001 25.6912 23.152C23.7872 25.0039 21.2057 26.0459 18.5128 26.0494ZM18.4407 9.31934C17.0607 9.31934 15.7116 9.71732 14.5642 10.4629C13.4168 11.2086 12.5226 12.2684 11.9945 13.5083C11.4665 14.7482 11.3285 16.1125 11.5978 17.4287C11.8672 18.7449 12.5319 19.9539 13.5079 20.9027C14.4838 21.8515 15.7272 22.4976 17.0807 22.7591C18.4343 23.0207 19.8372 22.8861 21.112 22.3723C22.3869 21.8584 23.4764 20.9885 24.2428 19.8725C25.0092 18.7564 25.4181 17.4444 25.4177 16.1024C25.4157 14.3037 24.6798 12.5793 23.3718 11.3076C22.0637 10.0359 20.2903 9.32085 18.4407 9.31934Z" fill="#FFB933"/>
<path d="M25.3228 23.4794L27.1075 25.16L28.9644 23.3106L27.086 21.6508C26.9568 21.5364 26.805 21.4488 26.6398 21.3933C26.4747 21.3378 26.2996 21.3156 26.1253 21.3281C25.951 21.3405 25.7812 21.3873 25.6261 21.4656C25.471 21.5439 25.334 21.6521 25.2233 21.7836C25.018 22.0269 24.9143 22.3362 24.9328 22.6504C24.9512 22.9645 25.0904 23.2604 25.3228 23.4794Z" fill="#00202B"/>
<path d="M26.7754 25.7177C26.7754 25.7177 26.555 24.4924 27.4386 23.7621C28.0236 23.317 28.7522 23.0884 29.4944 23.1172L36.2355 29.6954L33.6725 32.3168L26.7754 25.7177Z" fill="#8853F1"/>
<path d="M35.7262 31.7022C36.43 30.9854 36.6747 30.1018 36.2727 29.7285C35.8707 29.3551 34.9742 29.6335 34.2704 30.3502C33.5666 31.0669 33.322 31.9506 33.724 32.3239C34.126 32.6972 35.0224 32.4189 35.7262 31.7022Z" fill="#00202B"/>
<path d="M35.3061 31.353C35.6736 30.9787 35.801 30.5169 35.5907 30.3216C35.3803 30.1263 34.9119 30.2713 34.5444 30.6456C34.1768 31.0198 34.0494 31.4816 34.2598 31.6769C34.4701 31.8723 34.9386 31.7272 35.3061 31.353Z" fill="#8853F1"/>
<path d="M7.37573 12.2995L5.76264 12.5594L5.52858 12.5973C5.48315 12.6094 5.44062 12.6301 5.40345 12.6582C5.36627 12.6863 5.33519 12.7213 5.31198 12.7611C5.28877 12.801 5.2739 12.8449 5.26823 12.8903C5.26255 12.9358 5.26618 12.9819 5.27891 13.026C5.30657 13.1136 5.36766 13.1875 5.44964 13.2327C5.53162 13.2779 5.62827 13.2908 5.71973 13.2688L7.33282 13.0089L7.56688 12.971C7.6121 12.9589 7.65442 12.9383 7.69144 12.9103C7.72846 12.8823 7.75945 12.8475 7.78264 12.8079C7.80582 12.7683 7.82075 12.7246 7.82657 12.6793C7.83239 12.6341 7.82898 12.5882 7.81655 12.5442C7.78888 12.4565 7.72788 12.3824 7.64598 12.3369C7.56407 12.2915 7.46743 12.2781 7.37573 12.2995Z" fill="#FFBD00"/>
<path d="M10.7035 7.728L9.89016 6.34142L9.77508 6.15173C9.72381 6.07898 9.64613 6.0278 9.55765 6.00848C9.46917 5.98916 9.37644 6.00313 9.29812 6.04758C9.21979 6.09203 9.16167 6.16367 9.13545 6.24809C9.10923 6.33251 9.11684 6.42346 9.15676 6.50265L9.97013 7.88923L10.0852 8.07892C10.1336 8.15809 10.212 8.21558 10.3036 8.239C10.3952 8.26242 10.4926 8.24989 10.5748 8.20411C10.6554 8.15638 10.7139 8.0801 10.7379 7.99131C10.7619 7.90252 10.7496 7.80813 10.7035 7.728Z" fill="#FFBD00"/>
<path d="M8.53191 9.41255L7.0183 8.79798L6.80374 8.71072C6.71218 8.68625 6.61438 8.69806 6.53176 8.74357C6.44913 8.78908 6.38842 8.86457 6.36292 8.95352C6.34081 9.04244 6.35431 9.13622 6.40067 9.21582C6.44703 9.29543 6.52279 9.35491 6.61259 9.3822L8.1262 9.99677L8.34075 10.084C8.43231 10.1085 8.53012 10.0967 8.61274 10.0512C8.69536 10.0057 8.75607 9.93018 8.78158 9.84124C8.80417 9.75229 8.79089 9.6583 8.74446 9.57858C8.69803 9.49886 8.62197 9.43945 8.53191 9.41255Z" fill="#FFBD00"/>
<path d="M29.6272 17.8554C29.5749 17.8554 29.5233 17.8436 29.4764 17.8212C29.4295 17.7987 29.3886 17.766 29.3567 17.7257C29.3248 17.6853 29.3029 17.6384 29.2927 17.5886C29.2824 17.5387 29.2841 17.4872 29.2975 17.4381C30.4932 13.0602 28.1584 10.9263 28.1272 10.9054C28.0919 10.8766 28.0629 10.8412 28.042 10.8012C28.0211 10.7613 28.0087 10.7176 28.0056 10.6729C28.0026 10.6282 28.0089 10.5833 28.0241 10.541C28.0393 10.4987 28.0632 10.4598 28.0944 10.4267C28.1255 10.3937 28.1632 10.3671 28.2051 10.3485C28.2471 10.33 28.2925 10.3199 28.3386 10.3189C28.3847 10.3179 28.4305 10.326 28.4733 10.3427C28.5161 10.3594 28.5549 10.3843 28.5875 10.416C28.6968 10.5128 31.25 12.8459 29.9529 17.6088C29.934 17.679 29.8919 17.7412 29.833 17.7858C29.7741 17.8304 29.7018 17.8548 29.6272 17.8554Z" fill="#00202B"/>
    </g>
    <g id="vsk">
<path d="M22.7839 33.6444C20.6456 35.2261 16.9231 30.9104 14.2839 30.9823C10.486 31.0821 7.81622 34.8507 5.32364 31.9589C1.11437 27.058 3.09784 18.3785 9.33131 16.4473C16.4791 14.2505 12.8767 18.4444 17.086 23.3393C21.2953 28.2343 27.9258 29.8499 22.7839 33.6444Z" fill="#FFF0CB"/>
<path d="M25.1788 21.0129C24.9093 21.3598 24.5872 21.6642 24.2237 21.9156C23.5042 22.4694 22.7826 23.02 22.059 23.5672C21.8553 23.719 21.837 23.7849 21.9062 24.0225C22.2158 25.059 22.5355 26.0915 22.8063 27.14C22.9172 27.5055 22.9291 27.893 22.841 28.2644C22.7879 28.4576 22.6943 28.6379 22.5664 28.7939C22.4384 28.9498 22.2788 29.0779 22.0976 29.1702C21.9165 29.2624 21.7178 29.3166 21.5141 29.3295C21.3104 29.3424 21.1062 29.3136 20.9145 29.245C20.4921 29.0857 20.0935 28.8714 19.7293 28.6079C19.2569 28.3023 18.7865 27.9888 18.316 27.6792C18.2 27.6013 17.6277 27.2658 17.2571 26.9842C16.3061 27.6193 15.2105 28.3483 14.4672 28.8276C14.114 29.0875 13.6991 29.2552 13.2617 29.3149C13.0656 29.3367 12.8671 29.3188 12.6784 29.2623C12.4897 29.2058 12.3148 29.112 12.1645 28.9865C12.0143 28.8611 11.8919 28.7068 11.805 28.5331C11.718 28.3594 11.6683 28.1701 11.659 27.9768C11.659 27.9129 11.659 27.849 11.659 27.7771C11.6831 27.3639 11.7653 26.9559 11.9034 26.5648C12.1477 25.7161 12.4003 24.8693 12.6467 24.0205C12.7179 23.7769 12.6955 23.711 12.4899 23.5572C11.6427 22.9181 10.7956 22.283 9.96878 21.618C9.69634 21.4126 9.46679 21.1576 9.29268 20.8671C9.18588 20.6878 9.12042 20.4877 9.1009 20.2809C9.08138 20.0742 9.10827 19.8657 9.1797 19.6702C9.25113 19.4747 9.36535 19.2969 9.51434 19.1494C9.66332 19.0018 9.84346 18.888 10.0421 18.8161C10.3633 18.6958 10.7025 18.6284 11.046 18.6163C12.0765 18.5584 13.1089 18.5345 14.1414 18.5085C14.4285 18.5085 14.4856 18.4606 14.5813 18.195C14.9458 17.1964 15.3062 16.1979 15.7054 15.1993C15.8315 14.8526 16.041 14.5409 16.3163 14.2906C16.4674 14.1595 16.6445 14.0604 16.8366 13.9996C17.0286 13.9388 17.2313 13.9176 17.4321 13.9373C17.6329 13.957 17.8274 14.0172 18.0033 14.1141C18.1792 14.2109 18.3329 14.3424 18.4545 14.5003C18.7006 14.8366 18.8917 15.2086 19.0206 15.6027C19.3648 16.4874 19.6906 17.3801 20.0124 18.2708C20.0303 18.3432 20.0745 18.4067 20.1367 18.4494C20.199 18.492 20.275 18.5109 20.3504 18.5025C21.387 18.5305 22.4255 18.5544 23.46 18.6104C23.8126 18.6156 24.162 18.677 24.4945 18.7921C24.7127 18.8661 24.9099 18.9898 25.0699 19.1531C25.2298 19.3163 25.3481 19.5144 25.4149 19.7312C25.4816 19.9479 25.495 20.1771 25.454 20.3999C25.413 20.6227 25.3186 20.8328 25.1788 21.0129Z" fill="#FECB04"/>
<path d="M28.8946 24.7851C28.8016 24.8448 28.7 24.8906 28.5933 24.9209C28.3754 24.9948 28.1575 25.0647 27.9396 25.1366C27.8785 25.1566 27.8662 25.1706 27.8642 25.2325C27.8479 25.5021 27.8377 25.7737 27.8113 26.0453C27.8069 26.1412 27.7767 26.2342 27.7237 26.3149C27.6947 26.3564 27.6572 26.3915 27.6137 26.418C27.5701 26.4445 27.5213 26.4618 27.4705 26.4687C27.4197 26.4757 27.368 26.4722 27.3187 26.4584C27.2694 26.4447 27.2235 26.4209 27.184 26.3888C27.0972 26.3171 27.0211 26.2337 26.958 26.1412C26.8704 26.0293 26.7869 25.9175 26.7014 25.8057C26.679 25.7777 26.5731 25.6519 26.4978 25.554C26.2188 25.6279 25.897 25.7098 25.6832 25.7637C25.5777 25.7959 25.4656 25.8014 25.3574 25.7797C25.309 25.7691 25.2633 25.7489 25.2232 25.7202C25.1831 25.6915 25.1495 25.6551 25.1245 25.6131C25.0995 25.5711 25.0835 25.5245 25.0777 25.4762C25.0719 25.4279 25.0763 25.3789 25.0906 25.3323C25.0944 25.3161 25.0992 25.3001 25.1049 25.2844C25.1453 25.1882 25.1994 25.0981 25.2657 25.0168L25.6588 24.4736C25.6954 24.4217 25.6954 24.4057 25.6588 24.3518C25.5122 24.1301 25.3635 23.9104 25.225 23.6867C25.1787 23.6151 25.1456 23.536 25.1273 23.4531C25.1172 23.4017 25.1187 23.3487 25.1316 23.298C25.1445 23.2472 25.1686 23.1998 25.2022 23.1591C25.2357 23.1184 25.2779 23.0854 25.3258 23.0623C25.3737 23.0393 25.4262 23.0268 25.4796 23.0257C25.5659 23.025 25.6519 23.0378 25.7341 23.0636C25.9846 23.1335 26.231 23.2134 26.4795 23.2913C26.5467 23.3133 26.565 23.3073 26.6098 23.2534C26.7808 23.0536 26.9519 22.836 27.1311 22.6342C27.1904 22.5623 27.2666 22.5054 27.3531 22.4685C27.4001 22.4499 27.4505 22.4411 27.5012 22.4425C27.5519 22.444 27.6017 22.4556 27.6476 22.4768C27.6935 22.498 27.7344 22.5282 27.7678 22.5656C27.8012 22.603 27.8264 22.6468 27.8418 22.6942C27.8726 22.7938 27.8863 22.8977 27.8825 23.0017C27.8825 23.2394 27.8825 23.479 27.8825 23.7167C27.8806 23.7353 27.8858 23.754 27.8971 23.7691C27.9084 23.7842 27.9249 23.7947 27.9436 23.7986C28.188 23.8904 28.4324 23.9803 28.6727 24.0782C28.7556 24.1089 28.8333 24.152 28.9028 24.206C28.9482 24.2402 28.9849 24.2844 29.0099 24.3351C29.0349 24.3857 29.0475 24.4413 29.0467 24.4976C29.0459 24.5538 29.0318 24.6091 29.0054 24.659C28.979 24.7089 28.9411 24.7521 28.8946 24.7851Z" fill="#FECB04"/>
<path d="M7.52492 29.267C7.04433 29.267 6.50671 28.9515 6.16256 28.4522C5.92947 28.1227 5.79734 27.7346 5.78175 27.3338C4.19131 27.6394 3.66591 28.626 3.64148 28.6759L3 28.3683C3.03258 28.3024 3.74127 26.9224 5.87543 26.6089C5.92753 26.445 5.99573 26.2865 6.07907 26.1356C6.51446 25.3692 7.22386 24.7881 8.07038 24.5045C8.9169 24.2209 9.84053 24.2549 10.663 24.5998L10.3718 25.2389C9.71457 24.9644 8.97717 24.9373 8.30083 25.1628C7.62449 25.3884 7.05674 25.8506 6.70628 26.4611L6.66148 26.547H6.78774C8.63273 26.547 8.87914 27.4177 8.8995 27.7912C8.89961 28.1422 8.77347 28.4821 8.54328 28.7509C8.31309 29.0198 7.99359 29.2004 7.641 29.261C7.60245 29.2651 7.5637 29.2671 7.52492 29.267ZM6.4945 27.2539C6.49923 27.5393 6.58915 27.817 6.75313 28.0528C7.00157 28.4123 7.36405 28.58 7.56769 28.5601C7.73974 28.5215 7.89403 28.4284 8.00668 28.2952C8.11933 28.162 8.18406 27.9961 8.19083 27.8231C8.17251 27.4596 7.64711 27.242 6.78978 27.24C6.68389 27.2539 6.58817 27.2539 6.4945 27.2539Z" fill="#FF693D"/>
<path d="M22.6837 16.3054C22.6132 16.3047 22.5446 16.2836 22.4863 16.2448C22.428 16.206 22.3826 16.1512 22.3559 16.0873C22.3292 16.0234 22.3222 15.9531 22.336 15.8854C22.3497 15.8176 22.3835 15.7553 22.4332 15.7063L33.2466 5.09965C33.3135 5.03397 33.4044 4.99707 33.4991 4.99707C33.5938 4.99707 33.6846 5.03397 33.7516 5.09965C33.8186 5.16533 33.8562 5.25441 33.8562 5.34729C33.8562 5.44017 33.8186 5.52925 33.7516 5.59493L22.9362 16.1996C22.9032 16.2326 22.864 16.259 22.8207 16.2772C22.7773 16.2953 22.7308 16.3049 22.6837 16.3054Z" fill="#FECB04"/>
<path d="M21.1075 14.1047C21.0595 14.1049 21.012 14.0953 20.9679 14.0768C20.9238 14.0583 20.884 14.0311 20.851 13.9969C20.7844 13.9314 20.7471 13.8427 20.7471 13.7503C20.7471 13.6578 20.7844 13.5691 20.851 13.5036L26.6914 8.01556C26.7244 7.98057 26.7643 7.95257 26.8087 7.93327C26.8531 7.91398 26.9011 7.90379 26.9497 7.90334C26.9983 7.90288 27.0464 7.91218 27.0912 7.93065C27.136 7.94912 27.1765 7.97637 27.2101 8.01074C27.2438 8.0451 27.2699 8.08585 27.2869 8.13048C27.3039 8.17511 27.3114 8.22268 27.309 8.27027C27.3066 8.31785 27.2942 8.36445 27.2728 8.40719C27.2513 8.44993 27.2212 8.48792 27.1842 8.51883L21.3438 14.0069C21.2807 14.068 21.1962 14.103 21.1075 14.1047Z" fill="#FECB04"/>
<path d="M27.16 16.1601C27.0895 16.1595 27.0207 16.1384 26.9624 16.0995C26.9041 16.0605 26.8589 16.0055 26.8325 15.9413C26.8061 15.8772 26.7997 15.8068 26.8142 15.7391C26.8286 15.6714 26.8632 15.6094 26.9136 15.561L32.754 10.0789C32.8224 10.0148 32.9139 9.97996 33.0084 9.98202C33.1029 9.98408 33.1927 10.0229 33.2581 10.0899C33.3234 10.1569 33.3589 10.2466 33.3568 10.3393C33.3547 10.432 33.3152 10.5201 33.2469 10.5842L27.4064 16.0702C27.3388 16.1295 27.2508 16.1616 27.16 16.1601Z" fill="#FECB04"/>
<path d="M35.7615 17.4679C35.6913 17.4665 35.6231 17.4449 35.5654 17.4056C35.5077 17.3664 35.4631 17.3113 35.4372 17.2473C35.4113 17.1833 35.4053 17.1132 35.4199 17.0459C35.4344 16.9785 35.469 16.9169 35.5192 16.8687L36.4009 16.0699C36.4346 16.0359 36.475 16.009 36.5196 15.9907C36.5642 15.9725 36.6121 15.9634 36.6605 15.9639C36.7088 15.9644 36.7565 15.9746 36.8007 15.9937C36.8449 16.0129 36.8847 16.0407 36.9176 16.0754C36.9505 16.1101 36.9759 16.151 36.9922 16.1957C37.0084 16.2403 37.0153 16.2877 37.0123 16.335C37.0093 16.3823 36.9965 16.4285 36.9747 16.4709C36.953 16.5132 36.9226 16.5507 36.8856 16.5812L36.0038 17.38C35.9371 17.438 35.8506 17.4693 35.7615 17.4679Z" fill="#FECB04"/>
<path d="M30.4383 22.3188C30.3679 22.3178 30.2994 22.2964 30.2414 22.2573C30.1834 22.2182 30.1385 22.1632 30.1124 22.0991C30.0863 22.035 30.0801 21.9648 30.0946 21.8973C30.1091 21.8297 30.1437 21.7679 30.1939 21.7196L33.7393 18.4903C33.773 18.4563 33.8134 18.4294 33.858 18.4111C33.9026 18.3929 33.9505 18.3838 33.9989 18.3843C34.0472 18.3848 34.0949 18.395 34.1391 18.4141C34.1833 18.4333 34.2231 18.4611 34.256 18.4958C34.2889 18.5305 34.3143 18.5714 34.3305 18.6161C34.3468 18.6607 34.3537 18.7081 34.3507 18.7554C34.3477 18.8027 34.3349 18.8489 34.3131 18.8913C34.2914 18.9336 34.261 18.9711 34.224 19.0016L30.6806 22.2309C30.6136 22.2884 30.5273 22.3197 30.4383 22.3188Z" fill="#FECB04"/>
<path d="M22.9648 20.5174L18.7209 20.4056C18.6521 20.4035 18.5854 20.3821 18.5287 20.3439C18.472 20.3056 18.4277 20.2522 18.4012 20.1899L16.9553 16.7769C16.9188 16.6913 16.9185 16.5951 16.9544 16.5093C16.9903 16.4235 17.0595 16.3553 17.1467 16.3195C17.234 16.2838 17.3321 16.2835 17.4195 16.3187C17.507 16.3539 17.5766 16.4217 17.6131 16.5072L18.9714 19.7126L22.9831 19.8184C23.0776 19.8184 23.1683 19.8553 23.2351 19.9208C23.3019 19.9864 23.3395 20.0752 23.3395 20.1679C23.3395 20.2606 23.3019 20.3495 23.2351 20.4151C23.1683 20.4806 23.0776 20.5174 22.9831 20.5174H22.9648Z" fill="white"/>
<path d="M11.6797 16.3636C11.392 16.364 11.1107 16.2807 10.8713 16.1242C10.6319 15.9678 10.4453 15.7452 10.3349 15.4847C10.2245 15.2242 10.1955 14.9374 10.2513 14.6607C10.3072 14.384 10.4455 14.1297 10.6488 13.9301C10.852 13.7304 11.1111 13.5944 11.3932 13.5393C11.6753 13.4841 11.9678 13.5122 12.2336 13.6201C12.4994 13.7279 12.7266 13.9107 12.8864 14.1452C13.0463 14.3798 13.1316 14.6555 13.1316 14.9376C13.1316 15.3155 12.9787 15.6779 12.7065 15.9452C12.4342 16.2126 12.0649 16.3631 11.6797 16.3636ZM11.6797 14.2127C11.5329 14.2123 11.3893 14.2547 11.2671 14.3344C11.1449 14.4141 11.0495 14.5276 10.9932 14.6605C10.9368 14.7934 10.922 14.9398 10.9505 15.081C10.9791 15.2222 11.0497 15.3519 11.1535 15.4537C11.2573 15.5555 11.3895 15.6247 11.5335 15.6527C11.6775 15.6807 11.8267 15.6661 11.9622 15.6109C12.0978 15.5556 12.2135 15.4621 12.2948 15.3423C12.3761 15.2224 12.4193 15.0816 12.4189 14.9376C12.4183 14.7455 12.3403 14.5615 12.2018 14.4256C12.0633 14.2898 11.8756 14.2132 11.6797 14.2127Z" fill="#68D787"/>
</g>
    <!-- <g id="our-initiatives"><path d="M3 21.212h-.052L.26 20.77a.311.311 0 0 1-.202-.124.304.304 0 0 1 .072-.428.314.314 0 0 1 .231-.054l2.69.443a.31.31 0 0 1 .197.113.304.304 0 0 1-.035.417.313.313 0 0 1-.213.079v-.004ZM5.789 18.19a.312.312 0 0 1-.305-.248l-.514-2.645a.304.304 0 0 1 .048-.23.31.31 0 0 1 .431-.081.306.306 0 0 1 .131.196l.514 2.644a.302.302 0 0 1-.134.314.314.314 0 0 1-.112.045l-.059.005ZM4.153 19.497a.301.301 0 0 1-.204-.076l-2.043-1.784a.308.308 0 0 1-.107-.211.303.303 0 0 1 .174-.297.312.312 0 0 1 .344.05l2.042 1.776a.306.306 0 0 1 .088.329.306.306 0 0 1-.06.103.312.312 0 0 1-.234.11Z" fill="#FECB04"/><path d="M31.638 17.54c-9.91.337-.986 11.679-8.919 11.457-21.085-.592-5.16-18.33 2.63-18.831 9.524-.613 10.472 7.233 6.289 7.375Z" fill="#E8DFFF"/><path d="M26.899 14.039h-.043a.31.31 0 0 1-.26-.23.3.3 0 0 1-.004-.12c.06-.432.02-.871-.118-1.285a2.278 2.278 0 0 0-.9-1.188 2.325 2.325 0 0 0-1.452-.387c-.115.004-.23.016-.343.037.035.091.067.186.099.282.49 1.549-.096 2.394-.808 2.667-.679.26-1.47.023-1.726-.525-.191-.404-.085-1.02.28-1.608.311-.51.765-.92 1.306-1.182-.824-1.444-2.126-1.388-2.181-1.384a.312.312 0 0 1-.218-.08.305.305 0 0 1 .177-.53c.02 0 1.793-.1 2.812 1.784.19-.045.385-.072.581-.079 1.384-.047 2.545.732 2.961 1.99.17.502.218 1.036.143 1.56a.303.303 0 0 1-.098.198.31.31 0 0 1-.208.08Zm-3.709-2.975a2.618 2.618 0 0 0-1.038.945c-.273.443-.331.852-.246 1.029.106.224.531.364.939.21.585-.224.75-.94.441-1.913a3.62 3.62 0 0 1-.087-.266l-.009-.005Z" fill="#FF693D"/><path d="M8.303 19.961c-.23.147-.43.334-.59.553a.664.664 0 0 0 0 .758.922.922 0 0 0 .47.25c.787.205 1.594.328 2.407.368a53.6 53.6 0 0 0 11.211-.338.978.978 0 0 0 .631-.25c.24-.284.08-.714-.124-1.024-.755-1.143-1.95-1.925-2.897-2.912a8.91 8.91 0 0 1-1.512-2.118c-.157-.31-.331-.66-.662-.77a1.286 1.286 0 0 0-.418-.045c-1.064 0-2.247-.139-3.294.03-.803.127-.91.719-1.314 1.345a15.968 15.968 0 0 1-3.908 4.153Z" fill="#8853F1"/><path opacity=".48" d="M12.391 17.224c-.34.478-.73.921-1.162 1.321-.473.456-.958.897-1.455 1.322a.648.648 0 0 0-.264.358.427.427 0 0 0 .104.295c.07.082.169.135.277.148.219.02.439-.028.629-.136a7.63 7.63 0 0 0 1.673-1.155 5.973 5.973 0 0 0 1.908-3.039c.249-1.035.36-2.097.331-3.16 0-.242-.02-.716-.296-.833-.306-.128-.566.224-.609.49-.112.71-.078 1.431-.227 2.144a6.223 6.223 0 0 1-.909 2.245Z" fill="#fff"/><path d="M15.847 23.825h-1.234a71.981 71.981 0 0 1-4.961-.243l-.14-.012a14.91 14.91 0 0 1-2.42-.35c-1.184-.301-1.83-.76-1.98-1.4-.177-.765.496-1.4.82-1.712l.295-.278c1.802-1.712 3.845-3.649 4.67-5.95.415-1.152.504-2.4.564-3.684.108-2.196.143-4.438.108-6.663.02-.206-.02-.413-.117-.596a1.384 1.384 0 0 0-.438-.342c-.285-.175-.64-.38-.783-.864a1.271 1.271 0 0 1 .422-1.357c.338-.262.758-.304 1.157-.323.15-.01.307-.016.46-.021 2.127-.088 4.284.035 6.367.152.162 0 .323.031.473.09.605.253.667 1.058.477 1.515-.177.415-.532.76-1.118 1.05a.576.576 0 0 0-.103.06.053.053 0 0 0-.014.02v.028a.49.49 0 0 0-.009.058v.151c.01.444 0 .875-.021 1.303-.014.396-.03.805-.021 1.208l.09 4.07c.025 1.114.05 2.263.354 3.341.355 1.211 1.198 2.083 2.091 3.009.21.215.42.432.624.654a.3.3 0 0 1 .078.175c.106.202.787.805 1.083 1.066.239.212.377.336.444.413l1.933 2.2c.204.231.583.663.466 1.178-.1.46-.531.7-.862.849-2.067.932-4.356 1.086-6.339 1.158a76.542 76.542 0 0 1-2.417.047Zm-1.119-.62H15.85c.354 0 .709 0 1.05-.008.45-.007.9-.019 1.351-.035 2.387-.087 4.34-.308 6.104-1.106.32-.142.482-.275.514-.42.043-.187-.133-.42-.328-.644l-1.933-2.2a6.503 6.503 0 0 0-.391-.35c-.808-.716-1.172-1.073-1.264-1.344-.177-.196-.368-.39-.554-.583-.908-.936-1.845-1.905-2.238-3.26-.335-1.155-.355-2.347-.387-3.5l-.09-4.07c0-.42 0-.84.021-1.243.022-.405.032-.84.022-1.262v-.156a.555.555 0 0 1 0-.068 1.044 1.044 0 0 1 .04-.21c.01-.032.022-.058.029-.077v-.01a.647.647 0 0 1 .13-.188.84.84 0 0 1 .249-.175h.016c.443-.226.709-.469.827-.742.092-.222.062-.634-.147-.723a.907.907 0 0 0-.264-.04C16.537.674 14.397.555 12.3.639c-.15 0-.301.012-.45.02-.301.016-.611.044-.81.197a.672.672 0 0 0-.207.7c.07.243.232.35.507.51.24.125.452.298.622.508.175.284.256.614.234.945a104.1 104.1 0 0 1-.109 6.703c-.062 1.33-.155 2.625-.598 3.859-.876 2.43-2.975 4.422-4.827 6.18l-.292.28c-.389.365-.734.757-.647 1.133.227.984 2.952 1.206 3.847 1.278l.141.012a70.103 70.103 0 0 0 5.018.242Z" fill="#8853F1"/></g> -->
    <g id="our-results"><path d="m29.754 11.805-1.305 2.164a.362.362 0 0 0 .011.388l1.312 1.926a.358.358 0 0 0 .288.152l2.44.016a.348.348 0 0 0 .316-.195.359.359 0 0 0-.03-.373L31.7 14.386a.359.359 0 0 1 .007-.43l1.202-1.548a.359.359 0 0 0-.088-.521.348.348 0 0 0-.185-.056l-2.883-.026Z" fill="#8853F1"/><path d="M21.315 29.61c-2.316 1.767-6.349-3.056-9.206-2.977-4.114.114-7.006 4.326-9.695 1.094-4.558-5.474-2.411-15.19 4.339-17.334 7.742-2.464 3.841 2.224 8.4 7.703 4.558 5.478 11.73 7.266 6.162 11.514Z" fill="#FFF0E9"/><path d="M5.905 26.568c-.016 0-1.493-.152-2.103-1.864a2.373 2.373 0 0 1-.44-.017 2.47 2.47 0 0 1-1.47-.679 2.523 2.523 0 0 1-.745-1.45 2.996 2.996 0 0 1 .095-1.356l.637.198a2.355 2.355 0 0 0-.072 1.053c.063.408.258.782.554 1.065.297.282.678.457 1.083.495.062 0 .124.013.182.014l-.024-.152c-.201-1.412.424-2.066 1.076-2.206.625-.135 1.28.194 1.429.72.108.388-.068.913-.46 1.38a2.685 2.685 0 0 1-1.18.809c.474 1.195 1.449 1.315 1.503 1.321l-.065.669Zm-.934-4.257c-.05 0-.101.004-.15.015-.47.102-.672.63-.556 1.45 0 .05.015.1.024.152.33-.124.624-.33.855-.599.293-.345.353-.644.323-.752-.038-.142-.251-.266-.496-.266Z" fill="#8853F1"/><path d="m6.621 7.12-2.914-.642-.417-.092c-.392-.085-.558.525-.165.609l2.915.64.416.093c.392.085.559-.525.165-.609ZM10.521 3.646l-.42-2.99-.06-.425a.319.319 0 0 0-.147-.19.312.312 0 0 0-.237-.03.327.327 0 0 0-.218.39l.42 2.99.058.424c.023.08.076.149.148.19a.312.312 0 0 0 .237.03.329.329 0 0 0 .22-.39ZM8.318 5.08 6.177 2.967l-.3-.297c-.29-.284-.732.163-.451.449l2.14 2.112.301.304c.288.284.732-.163.443-.447l.008-.008Z" fill="#FFBD00"/><path d="M15.602 24.234c5.166 0 9.354-4.23 9.354-9.45 0-5.219-4.188-9.45-9.354-9.45-5.166 0-9.354 4.231-9.354 9.45 0 5.22 4.188 9.45 9.354 9.45Z" fill="#C14A2F"/><path d="M17.78 24.305c5.165 0 9.353-4.23 9.353-9.45 0-5.219-4.188-9.45-9.353-9.45-5.166 0-9.354 4.231-9.354 9.45 0 5.22 4.188 9.45 9.354 9.45Z" fill="#FF693D"/><path d="M17.668 21.162a6.43 6.43 0 0 1-3.603-1.107 6.547 6.547 0 0 1-2.388-2.946 6.638 6.638 0 0 1-.369-3.792 6.589 6.589 0 0 1 1.776-3.36 6.462 6.462 0 0 1 3.32-1.797 6.414 6.414 0 0 1 3.748.374 6.504 6.504 0 0 1 2.91 2.418 6.62 6.62 0 0 1-.81 8.286 6.454 6.454 0 0 1-4.584 1.924Zm0-12.556a5.87 5.87 0 0 0-3.29 1.01 5.977 5.977 0 0 0-2.18 2.69 6.06 6.06 0 0 0-.337 3.461 6.015 6.015 0 0 0 1.62 3.069 5.9 5.9 0 0 0 3.032 1.64 5.856 5.856 0 0 0 3.42-.341 5.937 5.937 0 0 0 2.658-2.208 6.044 6.044 0 0 0-.738-7.564 5.891 5.891 0 0 0-4.185-1.757Z" fill="#fff"/><path d="M17.63 18.383c-.768 0-1.52-.23-2.158-.662a3.923 3.923 0 0 1-1.432-1.764 3.976 3.976 0 0 1-.221-2.273c.15-.763.52-1.463 1.063-2.013a3.871 3.871 0 0 1 1.99-1.076 3.842 3.842 0 0 1 2.245.224c.71.297 1.316.802 1.743 1.448a3.966 3.966 0 0 1-.484 4.963 3.865 3.865 0 0 1-2.745 1.153Zm0-7.29c-.656 0-1.297.198-1.843.567a3.35 3.35 0 0 0-1.222 1.507 3.397 3.397 0 0 0-.19 1.94c.129.652.445 1.25.91 1.72a3.282 3.282 0 0 0 3.617.728 3.327 3.327 0 0 0 1.488-1.236 3.387 3.387 0 0 0-.414-4.24 3.303 3.303 0 0 0-2.345-.985Z" fill="#fff"/><path d="M17.743 15.668c.782 0 1.416-.642 1.416-1.433 0-.79-.634-1.432-1.416-1.432-.781 0-1.415.641-1.415 1.432 0 .791.634 1.433 1.415 1.433Z" fill="#C14A2F"/><path d="M33.685 14.554H17.743a.313.313 0 0 1-.223-.093.321.321 0 0 1 0-.452c.06-.06.14-.093.223-.093h15.942c.084 0 .164.033.223.093a.322.322 0 0 1 0 .452.314.314 0 0 1-.223.093Z" fill="#00202B"/><path d="m26.495 5.358-.22 1.778a.254.254 0 0 0 .118.246l1.398.86a.247.247 0 0 0 .23.014l1.58-.704a.25.25 0 0 0 .154-.22.256.256 0 0 0-.132-.236l-1.13-.649a.25.25 0 0 1-.119-.28l.337-1.353a.255.255 0 0 0-.081-.253.248.248 0 0 0-.26-.039l-1.875.836Z" fill="#FECB04"/><path d="M19.433 10.76a.314.314 0 0 1-.303-.253.323.323 0 0 1 .174-.356l10.292-4.674a.312.312 0 0 1 .409.164.323.323 0 0 1-.151.418l-10.291 4.676a.324.324 0 0 1-.13.024Z" fill="#00202B"/></g>
    <g id="resources"><path d="M30.532 17.154c-9.67-.327-1.74 11.563-9.447 10.812C.605 25.969 17.29 9.37 24.904 9.39c9.312.027 9.708 7.902 5.628 7.764Z" fill="#DAEFDE"/><path d="M21.365 2.99a1.21 1.21 0 0 1 .865.373 1.235 1.235 0 0 1 .346.884c-.017 4.799-.035 9.598-.055 14.396a2.75 2.75 0 0 1-.685 1.74 2.697 2.697 0 0 1-1.633.886 6.162 6.162 0 0 1-.866.049l-11.819-.046c-.27.019-.543.005-.81-.042-.069-.018-.156 0-.2-.073.388.07.785.07 1.173 0a2.677 2.677 0 0 0 1.751-1.184c.28-.438.424-.95.41-1.471.009-3.932.024-7.862.044-11.793 0-.18-.046-.232-.225-.23-1.303 0-2.606 0-3.91-.013a.553.553 0 0 1-.253-.011.462.462 0 0 1 .3-.062l3.835.015c.246 0 .246 0 .247-.24 0-.643-.03-1.288.016-1.927.048-.703.493-1.286 1.244-1.284 3.409.006 6.817.017 10.225.033Z" fill="#68D787"/><path d="M9.663 6.475c.179 0 .227.05.226.231-.02 3.93-.035 7.86-.045 11.793a2.594 2.594 0 0 1-.41 1.47 2.674 2.674 0 0 1-1.751 1.185 3.35 3.35 0 0 1-1.174 0l-.085-.014a8.67 8.67 0 0 1-.829-.41l-.089-.066a.168.168 0 0 0-.138-.115l-.117-.111a.061.061 0 0 0-.054-.055l-.072-.084a.193.193 0 0 0-.11-.142l-.065-.088c-.02-.052-.022-.115-.09-.133l-.025-.051c.01-.04 0-.057-.042-.065l-.075-.157a.265.265 0 0 0-.093-.209l-.024-.088a.91.91 0 0 0-.096-.372l-.019-.157a.881.881 0 0 0 .011-.332l.04-10.771a.794.794 0 0 0-.009-.296c0-.03.011-.06.017-.088a.474.474 0 0 0 .102-.259l.073-.122c.037 0 .054-.022.048-.06.022-.03.045-.058.068-.087a.05.05 0 0 0 .051-.032.05.05 0 0 0 .004-.021l.084-.07c.039.009.057 0 .06-.048l.123-.072a.464.464 0 0 0 .257-.1l.085-.016c.083.023.17.027.254.01 1.304-.004 2.606.004 3.91.002Z" fill="#61BC76"/><path d="M5.596 20.725c.268.153.545.29.829.41-.311-.05-.6-.192-.83-.41ZM4.504 18.987a.95.95 0 0 1 .097.373.519.519 0 0 1-.097-.373ZM4.647 7.08a.49.49 0 0 1-.101.26.286.286 0 0 1 .1-.26ZM5.415 6.467a.464.464 0 0 1-.257.1.278.278 0 0 1 .257-.1ZM4.625 19.448a.26.26 0 0 1 .093.209.26.26 0 0 1-.093-.21ZM5.014 20.152a.19.19 0 0 1 .11.143.137.137 0 0 1-.11-.143ZM5.37 20.544a.166.166 0 0 1 .138.117.155.155 0 0 1-.139-.117ZM4.86 19.933c.068.016.07.079.09.13-.069-.012-.084-.07-.09-.13ZM4.765 6.898c0 .037-.01.056-.047.059-.006-.037.007-.06.047-.06ZM4.792 19.816c.035 0 .053.024.042.063-.042-.003-.056-.021-.042-.064ZM4.89 6.758a.05.05 0 0 1-.055.053c-.006-.042.011-.06.055-.053ZM5.037 6.642c0 .037-.022.054-.06.046 0-.04.021-.054.06-.046ZM5.191 20.38a.06.06 0 0 1 .055.054c-.036.003-.055-.01-.055-.054Z" fill="#6B91FD"/><path d="M20.002 7.71h-7.19a.256.256 0 0 1-.257-.155.264.264 0 0 1 .061-.296.259.259 0 0 1 .195-.069h7.191a.255.255 0 0 1 .257.156.262.262 0 0 1-.152.35.255.255 0 0 1-.105.015ZM19.905 10.845h-7.192a.262.262 0 0 1 0-.52h7.192a.262.262 0 0 1 0 .52ZM19.905 14.014h-7.192a.257.257 0 0 1-.182-.076.262.262 0 0 1 .182-.445h7.193c.068 0 .134.027.182.076a.262.262 0 0 1-.183.445ZM19.84 16.882h-7.19a.255.255 0 0 1-.257-.155.263.263 0 0 1 .151-.351.257.257 0 0 1 .105-.014h7.19a.257.257 0 0 1 .28.26.263.263 0 0 1-.174.246.256.256 0 0 1-.105.014Z" fill="#fff"/><path d="M4.602 4.692a.31.31 0 0 1-.22-.092.316.316 0 0 1-.09-.222L4.276.314c0-.083.033-.163.091-.222A.31.31 0 0 1 4.9.314l.014 4.064a.31.31 0 0 1-.303.314h-.008Z" fill="#00202B"/><path d="M2.394 2.689a.308.308 0 0 1-.339-.175.317.317 0 0 1 .204-.438.308.308 0 0 1 .135-.005l4.072-.02a.31.31 0 0 1 .253.308.316.316 0 0 1-.253.31l-4.073.02h.001Z" fill="#00202B"/><path d="M1.858 7.358a.863.863 0 0 0 .859-.867.863.863 0 0 0-.859-.867A.863.863 0 0 0 1 6.49c0 .48.384.867.858.867Z" stroke="#FF693D" stroke-width=".63" stroke-miterlimit="10"/></g>
    <g id="about-us"><path d="M2.724 12.907C12.974 14.373 7.82.387 15.936 2.077c21.567 4.492 3.116 19.78-7.513 18.885-9.932-.82-10.025-8.673-5.7-8.055Z" fill="#E8DFFF"/><path d="M1.495 10.85a.341.341 0 0 1-.315-.202 2.518 2.518 0 0 1-.172-1.165c.06-.637.317-1.24.737-1.719a2.738 2.738 0 0 1-.214-.41 2.64 2.64 0 0 1-.158-1.688 2.616 2.616 0 0 1 .9-1.431 3.037 3.037 0 0 1 1.256-.619.348.348 0 0 1 .365.141.357.357 0 0 1-.21.552 2.388 2.388 0 0 0-.976.48 1.948 1.948 0 0 0-.536 2.304c.023.06.05.118.08.174l.129-.106c1.155-.916 2.056-.693 2.528-.164.47.528.491 1.268.099 1.675-.29.302-.857.416-1.467.298a2.77 2.77 0 0 1-1.335-.655c-.817 1.054-.418 2.005-.398 2.052a.35.35 0 0 1-.17.464.362.362 0 0 1-.143.02Zm1.2-3.05c.282.236.619.397.978.469.461.086.76-.014.84-.097.121-.129.097-.477-.119-.718-.334-.376-.91-.284-1.58.248l-.12.099Z" fill="#FF693D"/><path d="M24.035 13.817c-.591-2.908-2.008-5.498-5.19-5.469-6.48.06-5.752 10.026-5.53 12.09 4.117-1.103 8.352-3.683 10.72-6.621ZM18.508 6.986c1.908 0 3.454-1.564 3.454-3.493C21.962 1.564 20.416 0 18.508 0c-1.909 0-3.455 1.564-3.455 3.493 0 1.93 1.546 3.493 3.454 3.493Z" fill="#8853F1"/><path d="M10.503 11.514a2.572 2.572 0 0 1-1.44-.442 2.615 2.615 0 0 1-.955-1.177 2.649 2.649 0 0 1 .562-2.857 2.566 2.566 0 0 1 2.826-.568 2.6 2.6 0 0 1 1.163.966 2.642 2.642 0 0 1-.324 3.309 2.583 2.583 0 0 1-1.832.769Zm0-4.484c-.364 0-.72.109-1.024.313-.302.205-.539.496-.678.836a1.882 1.882 0 0 0 .4 2.03 1.825 1.825 0 0 0 2.008.404c.336-.14.623-.38.826-.686a1.878 1.878 0 0 0-.23-2.351 1.834 1.834 0 0 0-1.302-.546Z" fill="#00202B"/><path d="m27.602 6.654 3.155-1.65.442-.23a.45.45 0 0 0 .16-.617.446.446 0 0 0-.61-.161l-3.155 1.648-.44.23a.45.45 0 0 0-.162.617.447.447 0 0 0 .61.163ZM26.457 12.779l2.617 2.41.376.347a.444.444 0 0 0 .76-.32.456.456 0 0 0-.13-.318l-2.617-2.41-.375-.347a.451.451 0 0 0-.63 0 .456.456 0 0 0 0 .638ZM27.541 9.849l3.527.293.514.043a.445.445 0 0 0 .298-.142.455.455 0 0 0-.298-.76l-3.527-.293-.514-.042a.447.447 0 0 0-.315.132.457.457 0 0 0-.132.318c.002.12.05.233.134.317a.453.453 0 0 0 .313.134Z" fill="#FFBD00"/><path d="M8.362 15.154c.629-.738 1.438-1.102 2.473-1.11a2.876 2.876 0 0 1 2.339 1.02c1.028 1.187 1.381 3.183 1.465 4.968 0 0 .722-.269.754-.269-.103-1.887-.514-3.874-1.655-5.198a3.65 3.65 0 0 0-1.29-.967 3.612 3.612 0 0 0-1.576-.313h-.043c-1.247.012-2.268.474-3.036 1.376-1.313 1.543-1.613 4.082-1.623 5.976.25.076.506.124.766.143-.014-1.798.21-4.196 1.426-5.626Z" fill="#00202B"/></g>
    <g id="careers"><path d="M13.675 20.92C12.49 11.377 2.62 19.377.848 11.67-3.738-8.26 19.19 6.722 20.357 14.2c1.424 9.147-6.18 10.746-6.682 6.72Z" fill="#FFF0CB"/><path d="M.932 8.307h-.23a.442.442 0 0 1-.379-.633.44.44 0 0 1 .43-.246c.485.027.97-.058 1.417-.247 1.066-.448 1.665-1.51 1.522-2.706-.01-.09-.026-.18-.046-.268-.071.033-.145.064-.22.094-1.782.723-2.842.11-3.24-.704C-.193 2.81.03 1.848.66 1.484c.473-.268 1.218-.206 1.95.157a3.646 3.646 0 0 1 1.459 1.314C5.511 1.928 5.344.573 5.328.505a.44.44 0 0 1 .699-.419.44.44 0 0 1 .174.29c0 .023.282 2.034-1.764 3.39.06.196.102.396.127.6.19 1.595-.617 3.017-2.057 3.616a4.043 4.043 0 0 1-1.575.325Zm.422-6.116a.538.538 0 0 0-.258.052c-.207.118-.306.574-.117.962.29.591 1.08.693 2.116.274.07-.029.138-.058.204-.088a2.9 2.9 0 0 0-1.088-.964 2.014 2.014 0 0 0-.857-.236Z" fill="#8853F1"/><path d="M26.863 4.21H9.08c-1.099 0-1.99.889-1.99 1.986v10.642c0 1.097.891 1.986 1.99 1.986h17.782c1.098 0 1.989-.89 1.989-1.986V6.196c0-1.097-.89-1.986-1.99-1.986Z" fill="#FECB04"/><path d="M22.147 4.53a.364.364 0 0 1-.364-.363V2.572a.629.629 0 0 0-.63-.63H14.62a.63.63 0 0 0-.63.63v1.594a.363.363 0 0 1-.622.257.363.363 0 0 1-.106-.257V2.572a1.356 1.356 0 0 1 1.357-1.356h6.534a1.36 1.36 0 0 1 1.358 1.356v1.594a.363.363 0 0 1-.364.365ZM27.792 21.602a4.215 4.215 0 0 1-3.891-2.594 4.195 4.195 0 0 1 .912-4.58 4.213 4.213 0 0 1 7.188 2.973 4.203 4.203 0 0 1-1.235 2.969 4.22 4.22 0 0 1-2.974 1.232Zm0-7.677a3.487 3.487 0 0 0-3.219 2.145 3.47 3.47 0 0 0 .754 3.788 3.484 3.484 0 0 0 3.796.755 3.481 3.481 0 0 0 2.15-3.212 3.478 3.478 0 0 0-1.02-2.456 3.49 3.49 0 0 0-2.461-1.02Z" fill="#00202B"/><path d="M27.919 19.64a.366.366 0 0 1-.364-.364v-4.034a.363.363 0 0 1 .62-.257c.069.068.107.16.107.257v4.034a.363.363 0 0 1-.363.364Z" fill="#00202B"/><path d="M30.16 17.586h-4.593a.364.364 0 0 1-.257-.62.364.364 0 0 1 .257-.106h4.593a.364.364 0 0 1 .257.62.364.364 0 0 1-.257.106Z" fill="#00202B"/><path d="M28.838 9.406H7.084v.654h21.754v-.654Z" fill="#FF693D"/><path d="M18.93 8.747a1.028 1.028 0 0 0-2.057 0v1.914a1.028 1.028 0 0 0 2.057 0V8.747Z" fill="#FF693D"/><path d="M5.965 15.535s3.78-.37 5.623.54c1.063.527 1.744 3.181 1.744 3.181l-5.368 2.145-2-5.866Z" fill="#fff"/></g>
    <g id="master-talks"><path d="M3.509 7.326c2.916-.39 4.089 5.945 6.651 7.33 3.683 1.993 8.315-.27 9.091 3.967 1.314 7.183-5.38 14.708-12.395 13.177-8.045-1.758-2.288-3.93-3.602-11.113-1.314-7.182-6.758-12.434.255-13.36Z" fill="#DAEFDE"/><path d="M3.234 30.266c-.012-.01-1.08-.962-.627-2.643a2.483 2.483 0 0 1-.333-.26c-.4-.351-.673-.828-.777-1.356a2.466 2.466 0 0 1 .202-1.557c.19-.398.469-.745.813-1.016l.39.508c-.266.21-.482.479-.63.787-.172.356-.223.76-.145 1.148.079.389.282.74.578.997.043.041.09.078.134.114.02-.046.044-.093.067-.139.612-1.226 1.457-1.388 2.042-1.134.585.254.895.872.725 1.37-.126.365-.552.677-1.11.826a2.525 2.525 0 0 1-1.361-.024c-.283 1.223.44 1.863.449 1.876l-.417.503Zm.176-2.985c.327.085.67.085.998 0 .417-.109.628-.31.665-.412.053-.155-.1-.438-.371-.555-.422-.185-.868.119-1.224.83-.035.05-.055.095-.078.137h.01Z" fill="#FF693D"/><path d="M12.565 27.04a8.28 8.28 0 0 1-5.898-2.492 8.586 8.586 0 0 1-2.446-6.006v-5.679a.294.294 0 0 1 .074-.219.286.286 0 0 1 .21-.092.281.281 0 0 1 .268.194.295.295 0 0 1 .015.117v5.68c0 2.1.819 4.114 2.278 5.599a7.708 7.708 0 0 0 5.499 2.32c2.063 0 4.04-.835 5.5-2.32a7.993 7.993 0 0 0 2.277-5.6v-6.12c0-.077.03-.151.084-.205a.282.282 0 0 1 .402 0 .293.293 0 0 1 .083.204v6.121a8.586 8.586 0 0 1-2.447 6.007 8.28 8.28 0 0 1-5.899 2.492Z" fill="#58A069"/><path d="M15.762 3.353 16.095.76l.048-.369a.396.396 0 0 0-.113-.276.382.382 0 0 0-.271-.115.389.389 0 0 0-.268.114.403.403 0 0 0-.118.27l-.333 2.593-.048.369c.001.103.042.202.114.275a.384.384 0 0 0 .27.116.39.39 0 0 0 .27-.117.404.404 0 0 0 .114-.274l.002.007ZM18.865 6.68l2.495-.58.357-.08a.386.386 0 0 0 .232-.185.398.398 0 0 0-.144-.534.379.379 0 0 0-.293-.037l-2.48.58-.358.08a.382.382 0 0 0-.232.185.399.399 0 0 0 .144.534.38.38 0 0 0 .293.037h-.014ZM17.557 4.838l1.635-2.015.232-.286a.395.395 0 0 0 0-.554.381.381 0 0 0-.543 0l-1.635 2.016-.233.287a.396.396 0 0 0 .01.543.38.38 0 0 0 .534.009Z" fill="#FFBD00"/><path d="M18.002 18.825v-8.033c0-3.4-2.526-6.155-5.642-6.155a5.358 5.358 0 0 0-2.181.477 5.445 5.445 0 0 0-1.81 1.327 6.423 6.423 0 0 0-1.653 4.351v8.033h11.286Z" fill="#68D787"/><path d="M12.36 24.648c3.018 0 5.488-2.585 5.634-5.837H6.724c.154 3.246 2.618 5.837 5.636 5.837Z" fill="#61BC76"/><path d="M17.684 15.849h-2.047a.282.282 0 0 1-.201-.085.292.292 0 0 1 0-.41.282.282 0 0 1 .2-.084h2.048c.075 0 .148.03.201.084a.293.293 0 0 1 0 .41.282.282 0 0 1-.201.085ZM11.474 15.849H7.02a.282.282 0 0 1-.201-.085.292.292 0 0 1 0-.41.282.282 0 0 1 .2-.084h4.454c.075 0 .148.03.2.084a.292.292 0 0 1 0 .41.282.282 0 0 1-.2.085ZM17.7 17.702h-2.047a.282.282 0 0 1-.202-.085.292.292 0 0 1 0-.41.282.282 0 0 1 .201-.084H17.7c.075 0 .147.03.2.085a.292.292 0 0 1 0 .41.282.282 0 0 1-.2.084ZM11.492 17.702H7.038a.282.282 0 0 1-.2-.085.292.292 0 0 1 0-.41.282.282 0 0 1 .2-.084h4.454c.075 0 .147.03.2.085a.292.292 0 0 1 0 .41.282.282 0 0 1-.2.084ZM17.684 11.64h-2.047a.282.282 0 0 1-.201-.086.292.292 0 0 1 0-.41.282.282 0 0 1 .2-.084h2.048c.075 0 .148.03.201.085a.292.292 0 0 1 0 .41.282.282 0 0 1-.201.084ZM11.474 11.64H7.02a.282.282 0 0 1-.201-.086.292.292 0 0 1 0-.41.282.282 0 0 1 .2-.084h4.454c.075 0 .148.03.2.085a.292.292 0 0 1 0 .41.282.282 0 0 1-.2.084ZM17.7 13.493h-2.047a.282.282 0 0 1-.202-.085.292.292 0 0 1 0-.41.282.282 0 0 1 .201-.084H17.7a.28.28 0 0 1 .2.085.29.29 0 0 1 .062.315.29.29 0 0 1-.154.157.279.279 0 0 1-.108.022ZM11.492 13.493H7.038a.282.282 0 0 1-.2-.085.292.292 0 0 1 0-.41.282.282 0 0 1 .2-.084h4.454a.28.28 0 0 1 .262.179.294.294 0 0 1-.061.315.283.283 0 0 1-.201.085ZM12.254 30.391a.278.278 0 0 1-.201-.084.288.288 0 0 1-.083-.205V26.75c0-.077.03-.15.083-.205a.282.282 0 0 1 .402 0 .292.292 0 0 1 .083.205v3.35c0 .077-.03.151-.083.205a.282.282 0 0 1-.2.085Z" fill="#58A069"/><path d="M14.876 29.988H9.518a.616.616 0 0 0-.61.622v.347c0 .343.273.621.61.621h5.358c.337 0 .61-.278.61-.621v-.347a.616.616 0 0 0-.61-.622Z" fill="#68D787"/></g>
    <g id="our-innovations"><path d="m3.23 14.72-2.788-.016a.443.443 0 0 1-.312-.754.443.443 0 0 1 .312-.13l2.789.016a.443.443 0 0 1 .313.754.443.443 0 0 1-.313.13ZM9.196 4.54a.444.444 0 0 1-.395-.242L7.323 1.406a.441.441 0 0 1 .533-.62.443.443 0 0 1 .257.22l1.477 2.89a.44.44 0 0 1-.394.643ZM15.429 3.686h-.05a.442.442 0 0 1-.391-.486L15.29.417a.44.44 0 0 1 .659-.36.442.442 0 0 1 .22.455l-.301 2.783a.441.441 0 0 1-.44.391ZM4.228 8.51a.443.443 0 0 1-.271-.093l-2.212-1.72a.441.441 0 1 1 .543-.698L4.5 7.72a.442.442 0 0 1-.272.79Z" fill="#8853F1"/><path d="M3.668 18.553C17.063 20.445 10.327 2.4 20.93 4.58c28.182 5.795 4.072 25.516-9.818 24.372-12.978-1.07-13.1-11.197-7.445-10.4Z" fill="#FFF0CB"/><path d="M22.392 22.719a.442.442 0 0 1-.44-.387c0-.022-.226-2.05 1.866-3.349a3.386 3.386 0 0 1-.112-.605c-.144-1.604.705-3.006 2.164-3.572a4.099 4.099 0 0 1 1.824-.265.443.443 0 0 1-.075.88c-.486-.04-.975.03-1.43.208-1.08.42-1.71 1.468-1.601 2.67.008.091.02.181.04.271.072-.03.146-.06.222-.088 1.807-.675 2.853-.03 3.227.798.36.788.117 1.756-.532 2.103-.474.256-1.226.174-1.95-.217a3.672 3.672 0 0 1-1.421-1.358c-1.474.989-1.345 2.351-1.338 2.419a.441.441 0 0 1-.387.489l-.057.003Zm2.559-3.327c.264.416.63.76 1.063.996.492.265.948.316 1.114.216.212-.112.316-.566.144-.96-.273-.602-1.063-.727-2.112-.334a6.29 6.29 0 0 0-.209.082Z" fill="#FF693D"/><path d="m10.398 19.239-.333-1.664a1.993 1.993 0 0 0-1.189-1.442c-1.246-.529-3.268-1.762-3.412-4.247-.208-3.606 2.572-6.173 7.992-6.728 5.42-.556 8.48 2.775 9.244 4.995.316.922.65 5.361-3.433 6.71a1.986 1.986 0 0 0-1.23 1.234l-.55 1.558s-5.351-1.316-7.09-.416Z" fill="#FECB04"/><path d="M17.77 20.311a.375.375 0 0 1-.192-.052 8.814 8.814 0 0 0-3.563-1.015 7.731 7.731 0 0 0-3.613.687.385.385 0 0 1-.543-.448.384.384 0 0 1 .18-.227c.066-.036 1.66-.881 4.01-.779a9.406 9.406 0 0 1 3.914 1.12.384.384 0 0 1-.193.714ZM17.78 22.241a.389.389 0 0 1-.193-.052 8.785 8.785 0 0 0-3.562-1.015 7.702 7.702 0 0 0-3.613.687.385.385 0 0 1-.55-.45.384.384 0 0 1 .187-.226c.066-.037 1.66-.879 4.01-.778a9.42 9.42 0 0 1 3.914 1.118.384.384 0 0 1-.193.716ZM17.781 24.133a.39.39 0 0 1-.193-.052 8.785 8.785 0 0 0-3.562-1.015c-2.138-.095-3.598.678-3.612.686a.384.384 0 0 1-.365-.675c.067-.037 1.66-.88 4.01-.778a9.44 9.44 0 0 1 3.916 1.118.385.385 0 0 1-.194.716ZM16.182 16.514a.367.367 0 0 1-.316-.54c2.136-3.88 2.762-6.624 1.716-7.515-.506-.432-1.384.158-1.64.349a5.179 5.179 0 0 0-1.057 1.053l.06.095c.412.667.607 1.444.56 2.226-.062.789-.399 1.34-.876 1.42-.306.053-.752-.062-1.128-.909-.355-.8-.09-1.853.49-2.802a3.922 3.922 0 0 0-1.73-1.104c-.308-.104-.715-.186-.896.015-.433.48-.167 2.565 1.873 6.98a.364.364 0 0 1-.457.48.365.365 0 0 1-.205-.175c-1.997-4.321-2.57-6.864-1.754-7.771.357-.398.921-.473 1.673-.22a4.782 4.782 0 0 1 1.926 1.177c.315-.398.68-.753 1.085-1.058.994-.738 1.924-.855 2.55-.315 1.738 1.482.114 5.396-1.55 8.418a.372.372 0 0 1-.324.196Zm-1.737-5.954c-.365.716-.474 1.408-.28 1.841.158.373.316.474.346.486.071-.028.276-.364.27-.982a3.026 3.026 0 0 0-.337-1.345Z" fill="#00202B"/></g>
    <g id="child-safety">
        <path d="M30.123 20.834c-11.894-3.137-9.456 14.72-18.343 10.523-18.213-8.6 4.143-23.7 13.572-21.518 11.538 2.669 9.791 12.315 4.771 10.995Z" fill="#FFF0E9"/><path d="M6.682 8.966s5.487-.53 6.724-2.197c0 0 1.537 1.782 6.809 2.239 0 0-.33 9.278-1.856 11.069-1.527 1.79-4.948 2.97-4.948 2.97s-3.299-1.383-4.621-2.482c-1.323-1.099-2.026-7.366-2.108-11.599Z" fill="#FF693D"/><path d="M14.562 16.08a2.579 2.579 0 0 1-.218-.638c-.039-.523.227-.86.464-1.316.268-.496.575-.97.92-1.417.233-.315.558-.646.71-1.011.03-.07.058-.398-.038-.456-.15-.095-.249-.07-.42.043-.21.14-1.429 1.269-1.65 1.438-1.062.823-1.986.366-2.17.263a2.633 2.633 0 0 1-.563-.456c-.139-.139-.34-.426-.461-.575-.883-1.1-1.299-.998-1.254-.688.092.64.933 2.034 1.411 3.288.862 2.258-.32 4.337.15 5.037.114.171.373.288.549.1a.777.777 0 0 0 .15-.296c.183-.554.36-1.112.552-1.663.045-.111.101-.217.169-.317.183-.295.508-.056.697.098.283.238.53.516.73.825.203.305.336.685.618.927a.358.358 0 0 0 .337.122c.82-.196-.205-2.196-.683-3.309Z" fill="#C14A2F"/><path d="M11.873 11.17a.828.828 0 0 0 .45.72.842.842 0 0 0 .762.072.998.998 0 0 0 .487-.372.991.991 0 0 0 .15-.935.963.963 0 0 0-.41-.523.743.743 0 0 0-.428-.114 1.185 1.185 0 0 0-.391.056.93.93 0 0 0-.332.222 1.25 1.25 0 0 0-.281.49.982.982 0 0 0-.007.384Z" fill="#C14A2F"/><path d="m13.596 25.645-.113-.048c-.175-.074-4.32-1.819-6.04-3.253C5.572 20.784 4.718 12.2 4.62 7.158v-.296l.293-.028a34.442 34.442 0 0 0 3.703-.605c2.496-.558 4.135-1.284 4.74-2.1l.24-.321.26.296c.018.02 2.017 2.21 8.563 2.777l.3.025-.01.296c0 .031-.111 3.04-.46 6.293-.475 4.414-1.15 7.163-2.009 8.169-2.001 2.348-6.337 3.86-6.52 3.924l-.123.057ZM5.26 7.435c.15 6.079 1.163 13.244 2.594 14.433 1.5 1.243 5.077 2.81 5.762 3.105.7-.257 4.415-1.684 6.13-3.697.533-.624 1.287-2.489 1.861-7.829.285-2.64.41-5.12.45-5.954-5.37-.516-7.696-2.09-8.423-2.713-.817.832-2.458 1.529-4.887 2.07a35.514 35.514 0 0 1-3.487.586Z" fill="#FF693D"/><path d="M17.616 16.724c-.015-.118.138-.233.3-.296a.425.425 0 0 1 .463.077c.22.219.421.455.6.707.22.271.387.579.6.855.088.111.162.24.244.36.083.12.179.112.246.011.18-.232.372-.454.578-.664.24-.287.5-.557.74-.846.173-.207.369-.393.552-.591.246-.268.475-.552.735-.808.259-.255.51-.548.78-.807.202-.19.398-.386.6-.574.351-.322.714-.63 1.085-.93.3-.25.628-.476.947-.708.272-.196.554-.377.846-.543.15-.089.3-.185.45-.265.28-.148.63-.089.772.23a.362.362 0 0 1-.042.334c-.179.295-.505.425-.75.647-.45.409-.889.829-1.315 1.26-.271.275-.53.567-.774.865-.244.3-.46.565-.692.846-.3.358-.555.74-.855 1.1-.17.206-.29.455-.45.667-.159.213-.3.42-.439.63-.118.174-.235.347-.35.521-.16.246-.32.49-.476.74-.111.177-.214.36-.322.54-.108.178-.22.366-.34.54a2.67 2.67 0 0 0-.15.28c-.115.201-.23.402-.343.605-.126.226-.223.483-.45.65-.325.243-.613.147-.808-.181a30.032 30.032 0 0 1-.733-1.336c-.087-.17-.175-.338-.252-.511-.09-.209-.198-.407-.274-.623-.076-.216-.171-.389-.244-.591-.042-.117-.095-.233-.125-.352-.063-.25-.165-.487-.226-.74a4.795 4.795 0 0 1-.128-1.099Z" fill="#68D787"/><path d="M5.042 5.917a.4.4 0 0 1-.28-.114.39.39 0 0 1-.116-.275L4.628.392A.386.386 0 0 1 4.87.03a.4.4 0 0 1 .43.084.39.39 0 0 1 .117.275l.018 5.136a.386.386 0 0 1-.243.362.4.4 0 0 1-.151.03Z" fill="#00202B"/><path d="M2.176 3.384a.4.4 0 0 1-.388-.235.386.386 0 0 1 .23-.522.4.4 0 0 1 .158-.023l5.27-.026c.105 0 .206.04.28.114a.388.388 0 0 1 0 .552.399.399 0 0 1-.28.114l-5.271.026h.001Z" fill="#00202B"/><path d="M1.492 9.676a1.514 1.514 0 0 1-.831-.253 1.483 1.483 0 0 1-.549-.665 1.46 1.46 0 0 1 .33-1.609 1.519 1.519 0 0 1 1.633-.317c.273.112.507.302.672.545.164.243.252.528.252.82a1.478 1.478 0 0 1-.445 1.046 1.519 1.519 0 0 1-1.062.433Zm0-2.191a.722.722 0 0 0-.66.435.696.696 0 0 0 .154.769.718.718 0 0 0 .78.153.699.699 0 0 0 .232-1.15.722.722 0 0 0-.506-.207Z" fill="#68D787"/> </g>
    <g id="help-india-learn">
<path d="M26.2326 7.62285C36.2926 2.55285 43.3626 18.7929 32.6626 22.1729C26.8426 24.0129 29.3126 32.9429 20.1826 33.6229C20.1826 33.6229 12.6226 34.9129 11.6026 26.7529C11.1926 23.4429 7.1726 20.9529 5.6026 19.8329C4.24522 18.8966 3.19586 17.5789 2.58713 16.0464C1.9784 14.5139 1.83763 12.8353 2.1826 11.2229L2.2726 10.8729C2.51341 9.96418 3.0055 9.1418 3.69242 8.50007C4.37933 7.85833 5.23324 7.42324 6.15617 7.24471C7.0791 7.06618 8.03366 7.15144 8.91034 7.49072C9.78702 7.82999 10.5503 8.40954 11.1126 9.16285C14.0326 12.8929 16.5826 12.5029 26.2326 7.62285Z" fill="#FDF0CF"/>
<path d="M13.77 16.0019C15.2394 16.0019 16.4307 14.8107 16.4307 13.3413C16.4307 11.8719 15.2394 10.6807 13.77 10.6807C12.3006 10.6807 11.1094 11.8719 11.1094 13.3413C11.1094 14.8107 12.3006 16.0019 13.77 16.0019Z" fill="#EE724B"/>
<path d="M19.7121 25.5194V23.1693C19.7431 21.4081 19.0868 19.7041 17.8824 18.4188C17.3558 17.8656 16.7153 17.4335 16.0052 17.1524C15.295 16.8712 14.5323 16.7477 13.7698 16.7905C10.6902 16.9121 9.11841 18.873 8.40428 20.1972C8.09155 20.7771 8.5432 21.3984 9.20204 21.3984H14.5C14.5 21.3984 17.8153 21.1549 19.7121 25.5194Z" fill="#EE724B"/>
<path d="M5 23.582C5 23.0297 5.44772 22.582 6 22.582H14.1486C15.4441 22.582 16.6866 23.0967 17.6027 24.0128C18.5188 24.9289 19.0334 26.1713 19.0334 27.4669H6C5.44771 27.4669 5 27.0191 5 26.4669V23.582Z" fill="#EE724B"/>
<path d="M25.6626 16.0019C27.132 16.0019 28.3232 14.8107 28.3232 13.3413C28.3232 11.8719 27.132 10.6807 25.6626 10.6807C24.1932 10.6807 23.002 11.8719 23.002 13.3413C23.002 14.8107 24.1932 16.0019 25.6626 16.0019Z" fill="#85D48E"/>
<path d="M19.7142 25.5194V23.1693C19.6792 21.4058 20.3395 19.6994 21.5523 18.4188C22.0789 17.8656 22.7195 17.4335 23.4296 17.1524C24.1397 16.8712 24.9024 16.7477 25.665 16.7905C26.9996 16.8599 28.2803 17.3398 29.3319 18.1645C30.0283 18.7108 30.6018 19.3906 31.0217 20.1592C31.3431 20.7475 30.8649 21.3984 30.1946 21.3984H24.9432C24.9432 21.3984 21.6111 21.1549 19.7142 25.5194Z" fill="#85D48E"/>
<path d="M34.4434 26.4751C34.4434 27.0274 33.9956 27.4751 33.4434 27.4751H20.4016C20.4016 26.1796 20.9162 24.9371 21.8323 24.021C22.7484 23.1049 23.9909 22.5903 25.2864 22.5903H33.4434C33.9956 22.5903 34.4434 23.038 34.4434 23.5903V26.4751Z" fill="#85D48E"/>
<path d="M4.95117 6.30273V10.9127" stroke="black" stroke-miterlimit="10" stroke-linecap="round"/>
<path d="M7.26234 8.60254H2.65234" stroke="black" stroke-miterlimit="10" stroke-linecap="round"/>
</g>
<g id="wave">
<path d="M19.0803 9.00012C21.0991 7.8635 23.4554 7.47892 25.7309 7.91461C28.0065 8.35031 30.054 9.57811 31.5103 11.3801C35.3303 16.1401 38.8503 22.8301 33.5103 27.3101C33.5103 27.3101 30.5103 30.8001 23.1603 31.5201C20.5744 31.7461 18.0383 32.3666 15.6403 33.3601C14.036 34.0846 12.2461 34.2918 10.5187 33.9532C8.79135 33.6145 7.21219 32.7467 6.00025 31.4701C4.98436 30.3658 4.27246 29.0168 3.93416 27.5549C3.59587 26.0931 3.64276 24.5684 4.07025 23.1301C4.07025 23.1301 6.06025 16.2301 19.0803 9.00012Z" fill="#FDF0CF"/>
<path d="M24.699 31.5426C24.2828 31.5417 23.8756 31.4211 23.526 31.1952C23.1764 30.9693 22.8991 30.6475 22.7274 30.2684L19.5331 23.1137L16.5972 30.2167C16.4309 30.6153 16.1486 30.9546 15.7869 31.1906C15.4252 31.4266 15.0009 31.5483 14.5691 31.54C14.1373 31.5316 13.718 31.3936 13.3657 31.1438C13.0134 30.894 12.7444 30.544 12.5936 30.1392L7.11783 15.2701C6.93409 14.7379 6.96622 14.1549 7.20732 13.6461C7.44841 13.1373 7.87928 12.7432 8.40754 12.5483C8.93579 12.3535 9.51936 12.3734 10.0331 12.6037C10.5469 12.8341 10.9499 13.2566 11.1558 13.7807L14.7289 23.4839L17.4754 16.8457C17.6361 16.4573 17.9066 16.1242 18.2537 15.8872C18.6008 15.6501 19.0096 15.5195 19.4298 15.5112C19.8498 15.5153 20.2601 15.6378 20.6135 15.8648C20.9668 16.0917 21.2489 16.4138 21.4273 16.7941L24.501 23.6819L28.1171 13.7979C28.3135 13.2613 28.715 12.8246 29.2333 12.5841C29.7516 12.3435 30.3442 12.3186 30.8808 12.515C31.4174 12.7114 31.8541 13.1129 32.0946 13.6312C32.3352 14.1495 32.3601 14.7421 32.1637 15.2788L26.7137 30.1306C26.5708 30.5289 26.3129 30.8757 25.9726 31.1271C25.6323 31.3785 25.225 31.5231 24.8023 31.5426H24.699Z" fill="#EE724B"/>
<path d="M16.416 11.4561L17.7678 14.2026" stroke="#7F5BE8" stroke-width="0.860978" stroke-miterlimit="10" stroke-linecap="round"/>
<path d="M13.5156 14.6675L16.4171 15.649" stroke="#7F5BE8" stroke-width="0.860978" stroke-miterlimit="10" stroke-linecap="round"/>
<path d="M20.6449 11L19.8184 13.9532" stroke="#7F5BE8" stroke-width="0.860978" stroke-miterlimit="10" stroke-linecap="round"/>
<path d="M33.4121 29.2186C32.422 27.0834 29.7357 28.0649 30.2351 30.4584C30.7344 32.8519 32.663 32.9208 32.818 32.1804C33.016 31.1558 29.5979 29.4597 28.7714 31.1472C28.5685 31.6491 28.5241 32.2011 28.6441 32.7291C28.7642 33.257 29.043 33.7355 29.443 34.1003" stroke="black" stroke-width="0.860978" stroke-miterlimit="10" stroke-linecap="round"/>
</g>
<g id="vip">
<rect width="40" height="40" fill="white"/>
<path d="M33.1231 24.8341C21.2286 21.6975 23.6666 39.5546 14.7799 35.3576C-3.43285 26.7566 18.9226 11.6576 28.3521 13.8389C39.8897 16.5082 38.143 26.1547 33.1231 24.8341Z" fill="#FDF0CF"/>
<path d="M9.68164 12.9661C9.68164 12.9661 15.1693 12.4367 16.4063 10.7686C16.4063 10.7686 17.9431 12.5506 23.2149 13.0075C23.2149 13.0075 22.885 22.2858 21.3587 24.0767C19.8323 25.8676 16.4108 27.0477 16.4108 27.0477C16.4108 27.0477 13.1122 25.6635 11.7897 24.5647C10.4673 23.4659 9.76411 17.1986 9.68164 12.9661Z" fill="#FF693D"/>
<path d="M16.5958 29.6448L16.4834 29.5975C16.3079 29.5235 12.1637 27.7785 10.4439 26.344C8.57121 24.7838 7.7166 16.2006 7.61914 11.1577V10.8619L7.91151 10.8338C9.15633 10.6996 10.3927 10.4977 11.6149 10.229C14.1114 9.67145 15.7501 8.94534 16.3559 8.12901L16.5943 7.80811L16.8552 8.10388C16.8732 8.12458 18.8718 10.3133 25.4181 10.8812L25.7179 10.9063L25.7074 11.2021C25.7074 11.2331 25.5965 14.2426 25.2471 17.4946C24.7733 21.9089 24.0971 24.6581 23.2395 25.6637C21.2378 28.0121 16.9017 29.525 16.7188 29.5886L16.5958 29.6448ZM8.26084 11.4357C8.41077 17.5138 9.42435 24.6788 10.8547 25.8678C12.3541 27.1115 15.9316 28.6776 16.6168 28.9734C17.317 28.7161 21.0324 27.289 22.7477 25.2763C23.28 24.6522 24.0341 22.7874 24.6084 17.4472C24.8933 14.8075 25.0177 12.3275 25.0582 11.4934C19.6875 10.9773 17.362 9.40231 16.6348 8.77971C15.8176 9.6123 14.1773 10.3088 11.7484 10.8501C10.5966 11.1031 9.43259 11.2985 8.26084 11.4357Z" fill="#003BD7"/>
<path d="M3.49023 6.97998L5.89023 9.59998" stroke="black" stroke-miterlimit="10" stroke-linecap="round"/>
<path d="M1.71094 11.7002L5.27094 11.8602" stroke="black" stroke-miterlimit="10" stroke-linecap="round"/>
<path d="M8.06055 5.10986L8.09055 8.65986" stroke="black" stroke-miterlimit="10" stroke-linecap="round"/>
<path d="M25.6908 30.78C26.4585 30.78 27.0808 30.1577 27.0808 29.39C27.0808 28.6223 26.4585 28 25.6908 28C24.9231 28 24.3008 28.6223 24.3008 29.39C24.3008 30.1577 24.9231 30.78 25.6908 30.78Z" stroke="#85D48E" stroke-miterlimit="10" stroke-linecap="round"/>
</g>
<g id="our-initiatives">
<path d="M26.9992 15.3001C38.2592 15.8601 36.3892 33.4701 25.4192 31.1301C19.4192 29.8601 17.1992 38.8501 8.90921 34.9301C8.90921 34.9301 1.68921 32.3201 4.82921 24.7201C6.10921 21.6401 3.82921 17.4901 3.02921 15.7201C2.30232 14.2353 2.03306 12.5681 2.25562 10.93C2.47819 9.29198 3.18253 7.75702 4.27921 6.52006L4.52921 6.26006C5.18708 5.57662 6.0258 5.09442 6.94744 4.86977C7.86909 4.64512 8.83562 4.68729 9.73419 4.99136C10.6328 5.29542 11.4263 5.84884 12.0221 6.58699C12.618 7.32514 12.9915 8.21757 13.0992 9.16006C13.8292 13.8701 16.2592 14.7601 26.9992 15.3001Z" fill="#E8DFFF"/>
<path d="M18.4406 30.6202C17.4406 28.0702 14.2806 28.9802 14.6506 31.8002C15.0206 34.6202 17.2506 34.8502 17.4906 33.9802C17.8106 32.8202 13.9906 30.5602 12.9006 32.4502C12.6185 33.0139 12.518 33.6512 12.6129 34.2744C12.7078 34.8976 12.9935 35.476 13.4306 35.9302" stroke="#FF693D" stroke-miterlimit="10" stroke-linecap="round"/>
<path d="M26.0708 7.10997L21.0008 7.79997C20.6608 5.68997 19.1308 4.16996 17.3908 4.39996L7.80078 5.65996V22L14.8908 21.14V21.64C14.8994 22.0565 14.9946 22.4668 15.1705 22.8445C15.3463 23.2222 15.599 23.5592 15.9122 23.8339C16.2255 24.1086 16.5926 24.315 16.99 24.44C17.3875 24.565 17.8067 24.6059 18.2208 24.56L26.4208 23.56C26.7416 23.5144 27.0352 23.3549 27.2482 23.1108C27.4612 22.8666 27.5792 22.554 27.5808 22.23V8.42997C27.5811 8.23991 27.5407 8.052 27.4623 7.87889C27.3838 7.70577 27.2692 7.55147 27.1261 7.42639C26.983 7.30131 26.8148 7.20834 26.6328 7.15376C26.4507 7.09918 26.2591 7.08424 26.0708 7.10997Z" fill="#8853F2"/>
<path d="M7.92969 4.62012V36.6601" stroke="black" stroke-miterlimit="10" stroke-linecap="round"/>
<path d="M7.93 5.5602C8.5817 5.5602 9.11 5.03189 9.11 4.3802C9.11 3.7285 8.5817 3.2002 7.93 3.2002C7.2783 3.2002 6.75 3.7285 6.75 4.3802C6.75 5.03189 7.2783 5.5602 7.93 5.5602Z" fill="black"/>
<path d="M21.0391 7.79979V20.6698L24.8591 7.27979L21.0391 7.79979Z" fill="#7447CF"/>
<path d="M32.0909 4.3999L29.1309 6.3599" stroke="#FECB01" stroke-miterlimit="10" stroke-linecap="round"/>
<path d="M27.7 1.91992L27 5.40992" stroke="#FECB01" stroke-miterlimit="10" stroke-linecap="round"/>
<path d="M33.2407 9.19018L29.7207 8.68018" stroke="#FECB01" stroke-miterlimit="10" stroke-linecap="round"/>
</g>
<g id="become-a-teacher">
<path d="M12.4222 19.4291C10.7062 19.0954 9.16442 18.1632 8.07174 16.7987C6.97906 15.4341 6.40649 13.7258 6.4561 11.9783C6.59442 7.36772 7.8485 1.83499 13.0954 1.83499C13.0954 1.83499 16.5072 1.29094 21.0809 4.48148C22.674 5.62038 24.4349 6.50393 26.3001 7.1003C27.5739 7.46892 28.7017 8.22412 29.5277 9.26151C30.3536 10.2989 30.8369 11.5672 30.9108 12.8912C30.9639 14.0214 30.7224 15.146 30.2099 16.1547C29.6975 17.1634 28.9317 18.0217 27.9876 18.6453C27.9876 18.6453 23.4324 21.6329 12.4222 19.4291Z" fill="#FDF0CF"/>
<path d="M2.38086 4.89551V8.501" stroke="#7F5BE8" stroke-width="0.8" stroke-miterlimit="10" stroke-linecap="round"/>
<path d="M4.18948 6.70215H0.583984" stroke="#7F5BE8" stroke-width="0.8" stroke-miterlimit="10" stroke-linecap="round"/>
<path d="M18 23.4557L18.088 26.0078L24.792 22.6477L24.528 20.2397L18 23.4557Z" fill="white"/>
<path d="M2.40014 20.2086L11.3705 17.3471C12.302 17.072 13.2827 17.0061 14.2427 17.1542L29.3325 19.2977C29.4334 19.3162 29.526 19.3658 29.5974 19.4395C29.6688 19.5132 29.7154 19.6074 29.7308 19.7088C29.7461 19.8103 29.7294 19.914 29.683 20.0055C29.6366 20.097 29.5628 20.1718 29.4718 20.2194L20.7052 25.0421C20.6036 25.0961 20.52 25.1787 20.4648 25.2796C20.4096 25.3806 20.3851 25.4954 20.3944 25.6101L20.5015 27.0355C20.5086 27.1383 20.542 27.2376 20.5985 27.3238C20.6551 27.41 20.7329 27.4801 20.8244 27.5275C20.9159 27.5749 21.0181 27.5979 21.1211 27.5943C21.2241 27.5907 21.3245 27.5607 21.4125 27.5071L29.3647 22.9737C29.5856 22.8592 29.8394 22.825 30.0827 22.8772C30.164 22.9001 30.2387 22.9422 30.3002 23C30.3618 23.0579 30.4085 23.1297 30.4364 23.2095C30.6293 23.7668 30.147 24.2812 29.6433 24.6134L21.7662 29.2968C20.9252 29.7991 19.92 29.9493 18.969 29.7148L2.74309 25.5672C2.42951 25.4873 2.14988 25.3087 1.94537 25.0579C1.74087 24.8071 1.62228 24.4973 1.60707 24.174L1.52133 21.634C1.5066 21.3355 1.58269 21.0394 1.73958 20.785C1.89646 20.5305 2.12677 20.3296 2.40014 20.2086Z" fill="#F6CB46"/>
<path d="M12.4414 10.1773C12.4414 10.1773 13.4834 8.92317 12.4414 8.69264C11.7959 8.55432 6.12489 12.9621 4.65871 14.0778C4.52962 14.17 4.65871 14.3913 4.79703 14.4006L22.8614 15.0829C24.1524 15.1567 24.1155 15.2766 25.2681 13.7459C26.3194 12.3535 27.389 10.3617 28.265 10.6936C29.473 11.1547 28.4402 12.7315 28.4402 12.7315" stroke="black" stroke-width="0.8" stroke-miterlimit="10" stroke-linecap="round"/>
<path d="M10.0889 19.8784L7.3225 19.5557C6.81875 19.4978 6.34666 19.2805 5.97509 18.9355C5.60352 18.5905 5.3519 18.1357 5.25695 17.6377L4.64835 14.5301C4.64558 14.5165 4.6459 14.5026 4.64927 14.4891C4.65265 14.4757 4.659 14.4632 4.66785 14.4526C4.67671 14.442 4.68784 14.4335 4.70043 14.4277C4.71301 14.422 4.72673 14.4192 4.74056 14.4195L12.8276 14.8529L12.7169 17.6192C12.7011 17.9431 12.6194 18.2603 12.477 18.5516C12.3345 18.8429 12.1343 19.1022 11.8884 19.3136C11.6425 19.5249 11.3561 19.684 11.0467 19.7811C10.7374 19.8783 10.4114 19.9113 10.0889 19.8784Z" stroke="black" stroke-width="0.8" stroke-miterlimit="10"/>
<path d="M21.0634 21.0859L17.9005 20.717C17.3196 20.6481 16.7754 20.3967 16.3463 19.999C15.9172 19.6014 15.6252 19.078 15.5122 18.5039L14.793 14.8154L24.3 15.2673L24.1709 18.4394C24.1573 18.8231 24.0639 19.1997 23.8967 19.5453C23.7295 19.891 23.4923 20.198 23.2 20.4469C22.9077 20.6959 22.5667 20.8812 22.1989 20.9912C21.8311 21.1012 21.4444 21.1334 21.0634 21.0859V21.0859Z" stroke="black" stroke-width="0.8" stroke-miterlimit="10"/>
</g>
</svg>
