<svg id="Highlighter" xmlns="http://www.w3.org/2000/svg" xmlns:xlink="http://www.w3.org/1999/xlink" width="321.31" height="12.798" viewBox="0 0 321.31 12.798">
  <defs>
    <style>
      .cls-1 {
        fill: url(#linear-gradient);
      }

      .cls-2 {
        fill: #0f8cff;
      }
    </style>
    <linearGradient id="linear-gradient" x1="-669.421" y1="-0.965" x2="-18.312" y2="-0.367" gradientUnits="objectBoundingBox">
      <stop offset="0" stop-color="#0f8cff"/>
      <stop offset="1" stop-color="#0041ca"/>
    </linearGradient>
  </defs>
  <g id="Group_17976" data-name="Group 17976" transform="matrix(1, -0.017, 0.017, 1, 0, 5.606)">
    <path id="Path_14911" data-name="Path 14911" class="cls-1" d="M-1753.907,4950.835c.474-.031.3.352.371.422C-1754.329,4951.166-1753.886,4950.735-1753.907,4950.835Z" transform="translate(2074.769 -4944.678)"/>
    <path id="Path_14912" data-name="Path 14912" class="cls-1" d="M-1762.545,4952.367l.137.158-1.151-.393Z" transform="translate(2075.586 -4947.146)"/>
    <path id="Path_14913" data-name="Path 14913" class="cls-1" d="M-1770.455,4952.31c.7-.647,2.652.127,3.958-.094l.216-.147.584.53A31.521,31.521,0,0,0-1770.455,4952.31Z" transform="translate(2076.177 -4947.143)"/>
    <path id="Path_14914" data-name="Path 14914" class="cls-1" d="M-1774.747,4951.043c.243-.253-.842-.227.911-.073a1.692,1.692,0,0,0-.165.063C-1774.159,4951.028-1774.376,4951.027-1774.747,4951.043Z" transform="translate(2076.553 -4944.496)"/>
    <path id="Path_14915" data-name="Path 14915" class="cls-1" d="M-1773.932,4950.756c.77.024-.507.21,0,0Z" transform="translate(2076.485 -4944.218)"/>
    <path id="Path_14916" data-name="Path 14916" class="cls-1" d="M-1777.858,4950.481l1.013.233c-.213.149-1.117.176-.782.288C-1778.668,4950.872-1778.453,4950.724-1777.858,4950.481Z" transform="translate(2076.853 -4944.115)"/>
    <path id="Path_14917" data-name="Path 14917" class="cls-1" d="M-1778.862,4951.422l.526.1C-1778.429,4951.583-1778.569,4951.6-1778.862,4951.422Z" transform="translate(2076.896 -4945.537)"/>
    <path id="Path_14918" data-name="Path 14918" class="cls-1" d="M-1777.172,4951.6l-1.115-.21c.148-.1.166-.316.512.076C-1777.865,4951.275-1777.646,4951.462-1777.172,4951.6Z" transform="translate(2076.847 -4945.409)"/>
    <path id="Path_14919" data-name="Path 14919" class="cls-1" d="M-1776.376,4951.784c.571-.139,1.307-.223.289-.455C-1774.145,4951.434-1774.435,4951.89-1776.376,4951.784Z" transform="translate(2076.683 -4945.687)"/>
    <path id="Path_14920" data-name="Path 14920" class="cls-1" d="M-1770.858,4953.2l.762-.185.657.224C-1769.766,4953.132-1770.907,4953.408-1770.858,4953.2Z" transform="translate(2076.211 -4948.715)"/>
    <path id="Path_14921" data-name="Path 14921" class="cls-1" d="M-1784.733,4951.272c-.063-.139.344-.368.421-.545l.749.165C-1783.949,4950.984-1784.681,4951.067-1784.733,4951.272Z" transform="translate(2077.399 -4944.609)"/>
    <path id="Path_14922" data-name="Path 14922" class="cls-1" d="M-1784.377,4951.572l-1.121-.246C-1784.495,4951.3-1784.313,4951.419-1784.377,4951.572Z" transform="translate(2077.464 -4945.452)"/>
    <path id="Path_14923" data-name="Path 14923" class="cls-1" d="M-1779.087,4951.821l1.84.513-2.2-.522Z" transform="translate(2076.946 -4946.664)"/>
    <path id="Path_14924" data-name="Path 14924" class="cls-1" d="M-1789.466,4950.551l.634.325-1.13-.493Z" transform="translate(2077.846 -4943.897)"/>
    <path id="Path_14925" data-name="Path 14925" class="cls-1" d="M-1792.732,4950.149c.469.269-.648.446-.152.614a7.447,7.447,0,0,1-2.022-.5A4.981,4.981,0,0,0-1792.732,4950.149Z" transform="translate(2078.269 -4943.571)"/>
    <path id="Path_14926" data-name="Path 14926" class="cls-1" d="M-1795.994,4950.692a8.551,8.551,0,0,1,1,.306A4.183,4.183,0,0,1-1795.994,4950.692Z" transform="translate(2078.362 -4944.301)"/>
    <path id="Path_14927" data-name="Path 14927" class="cls-1" d="M-1787.672,4951.1a1.3,1.3,0,0,1-.886.391l.444-.389Z" transform="translate(2077.726 -4945.174)"/>
    <path id="Path_14928" data-name="Path 14928" class="cls-1" d="M-1788.146,4951.51l-.016.011-.954.016Z" transform="translate(2077.774 -4945.59)"/>
    <path id="Path_14929" data-name="Path 14929" class="cls-1" d="M-1787.478,4951.563h-.111C-1787.546,4951.525-1787.521,4951.512-1787.478,4951.563Z" transform="translate(2077.643 -4945.635)"/>
    <path id="Path_14930" data-name="Path 14930" class="cls-1" d="M-1782.392,4952.8c-.658-.224-2.031-.467-.7-.791C-1782.62,4952.277-1783.382,4952.461-1782.392,4952.8Z" transform="translate(2077.306 -4947.306)"/>
    <path id="Path_14931" data-name="Path 14931" class="cls-1" d="M-1786.864,4951.837l1.192-.083c-.024.1-.24.253.086.364Z" transform="translate(2077.581 -4946.395)"/>
    <path id="Path_14932" data-name="Path 14932" class="cls-1" d="M-1787.5,4952.028l.583.127-.442.031Z" transform="translate(2077.636 -4946.714)"/>
    <path id="Path_14933" data-name="Path 14933" class="cls-1" d="M-1793.919,4951.737a6.388,6.388,0,0,0-1.714-.222,18.3,18.3,0,0,1,2.057-.1C-1793.482,4951.534-1793.188,4951.756-1793.919,4951.737Z" transform="translate(2078.332 -4945.699)"/>
    <path id="Path_14934" data-name="Path 14934" class="cls-1" d="M-1791,4951.559l-.114-.023C-1791.041,4951.5-1790.985,4951.493-1791,4951.559Z" transform="translate(2077.945 -4945.613)"/>
    <path id="Path_14935" data-name="Path 14935" class="cls-1" d="M-1802.482,4951.758l.1-.071.023.068Z" transform="translate(2078.918 -4945.974)"/>
    <path id="Path_14936" data-name="Path 14936" class="cls-1" d="M-1793.27,4951.71a1.9,1.9,0,0,1,1.11.147c-.383-.042-.789-.069-1.224-.075C-1793.427,4951.726-1793.435,4951.69-1793.27,4951.71Z" transform="translate(2078.141 -4946.071)"/>
    <path id="Path_14937" data-name="Path 14937" class="cls-1" d="M-1797.9,4951.415a8.9,8.9,0,0,1,.889-.21C-1797.277,4951.328-1797.81,4951.516-1797.9,4951.415Z" transform="translate(2078.526 -4945.217)"/>
    <path id="Path_14938" data-name="Path 14938" class="cls-1" d="M-1791.306,4951.349l.076.019C-1791.4,4951.451-1791.377,4951.409-1791.306,4951.349Z" transform="translate(2077.966 -4945.318)"/>
    <path id="Path_14939" data-name="Path 14939" class="cls-1" d="M-1791.365,4951.661a3.737,3.737,0,0,1-.678-.243,6.835,6.835,0,0,1,.851.136A.761.761,0,0,0-1791.365,4951.661Z" transform="translate(2078.024 -4945.631)"/>
    <path id="Path_14940" data-name="Path 14940" class="cls-1" d="M-1804.666,4951.766c.088.362,1.435.7,2.6.32,1.144.277.389,1.466-.615,2.127-.035-.158-.034-.3-1.211-.524.414-.2,2.617-.45,1.624-.782-1.559-.194-1.279.122-2.039.31.647-.448-1.981-.666-1.638-1.328l1.368.24C-1804.551,4952.025-1805.047,4951.857-1804.666,4951.766Z" transform="translate(2079.217 -4948.5)"/>
    <path id="Path_14941" data-name="Path 14941" class="cls-1" d="M-1800.125,4951.214l.485.047a6.257,6.257,0,0,0-1.679.484c-.806-.181-.972-.316-1.027-.437l2.387-.039Z" transform="translate(2078.906 -4945.526)"/>
    <path id="Path_14942" data-name="Path 14942" class="cls-1" d="M-1797.211,4952.46c-.376-.4-1.54-.57-.824-.993,1.422.036,1,.336,1.844.512-2.3-.113.658.224-1,.436a11.362,11.362,0,0,0,1.239.113c-.413.044-.813.1-1.188.171l.052-.024h.011l0-.006c.1-.048.132-.078.02-.05a.187.187,0,0,0-.048-.008.375.375,0,0,0-.1-.149c-.665.077-.105.1.1.149a.286.286,0,0,1,.027.058l-.009.005-2.3-.229A15.085,15.085,0,0,1-1797.211,4952.46Z" transform="translate(2078.653 -4946.713)"/>
    <path id="Path_14943" data-name="Path 14943" class="cls-1" d="M-1784.392,4953.709c-.071.035-.068.063-.074.092C-1784.615,4953.751-1784.67,4953.718-1784.392,4953.709Z" transform="translate(2077.386 -4949.863)"/>
    <path id="Path_14944" data-name="Path 14944" class="cls-1" d="M-1785.518,4952.657a1.39,1.39,0,0,0,.85.178c.472-.115,0-.188.025-.317.326.106,1.144.29.116.475l-.163-.055a4.407,4.407,0,0,0-1.958.668A3.163,3.163,0,0,1-1785.518,4952.657Z" transform="translate(2077.564 -4948.579)"/>
    <path id="Path_14945" data-name="Path 14945" class="cls-1" d="M-1791.459,4953.292l-1.914-.206.978-.334-.052.2C-1791.357,4952.883-1791.594,4953.134-1791.459,4953.292Z" transform="translate(2078.138 -4948.48)"/>
    <path id="Path_14946" data-name="Path 14946" class="cls-1" d="M-1802.8,4951.194l.252.417-1.1-.593Z" transform="translate(2079.018 -4945.214)"/>
    <path id="Path_14947" data-name="Path 14947" class="cls-1" d="M-1805.5,4951.146l.09.364-.656-.224Z" transform="translate(2079.224 -4945.229)"/>
    <path id="Path_14948" data-name="Path 14948" class="cls-1" d="M-1959.083,4956.658l-.563-.1A3.564,3.564,0,0,1-1959.083,4956.658Z" transform="translate(2092.369 -4955.327)"/>
    <path id="Path_14949" data-name="Path 14949" class="cls-1" d="M-1954.583,4956.4l.1.178C-1954.671,4956.479-1954.749,4956.407-1954.583,4956.4Z" transform="translate(2091.944 -4955.103)"/>
    <path id="Path_14950" data-name="Path 14950" class="cls-1" d="M-1872.433,4951.12c-.82.338-1.736.862-1.637.455l.251-.4A3.9,3.9,0,0,0-1872.433,4951.12Z" transform="translate(2085.045 -4945.417)"/>
    <path id="Path_14951" data-name="Path 14951" class="cls-1" d="M-1918.058,4954.2l.24-.122.554.38Z" transform="translate(2088.81 -4950.855)"/>
    <path id="Path_14952" data-name="Path 14952" class="cls-1" d="M-1918.794,4955.874l-1.08.257A6.078,6.078,0,0,1-1918.794,4955.874Z" transform="translate(2088.965 -4954.174)"/>
    <path id="Path_14953" data-name="Path 14953" class="cls-1" d="M-1983.429,4957.35l-.657-.4C-1983.058,4956.948-1983.51,4957.152-1983.429,4957.35Z" transform="translate(2094.461 -4956.377)"/>
    <path id="Path_14954" data-name="Path 14954" class="cls-1" d="M-1833.48,4951.7a10.024,10.024,0,0,1-1.765.234C-1834.393,4951.708-1833.7,4951.368-1833.48,4951.7Z" transform="translate(2081.722 -4946.032)"/>
    <path id="Path_14955" data-name="Path 14955" class="cls-1" d="M-1957.31,4952.2c-.345-.072-.492-.151-.482-.241C-1957.437,4952.023-1957.237,4952.1-1957.31,4952.2Z" transform="translate(2092.211 -4946.658)"/>
    <path id="Path_14956" data-name="Path 14956" class="cls-1" d="M-1837.479,4951.474c.124-.04.247-.06.374-.093a9.492,9.492,0,0,0,1.668.1A3.2,3.2,0,0,1-1837.479,4951.474Z" transform="translate(2081.913 -4945.581)"/>
    <path id="Path_14957" data-name="Path 14957" class="cls-1" d="M-2071.636,4956.242c-.059.017-.129.026-.182.048C-2071.836,4956.237-2071.755,4956.233-2071.636,4956.242Z" transform="translate(2101.97 -4954.668)"/>
    <path id="Path_14958" data-name="Path 14958" class="cls-1" d="M-2097.316,4951.782c.232.023.61.023.965.028A4.129,4.129,0,0,1-2097.316,4951.782Z" transform="translate(2104.152 -4946.129)"/>
    <path id="Path_14959" data-name="Path 14959" class="cls-1" d="M-1816.394,4951.375c.528.028.083.044,0,0Z" transform="translate(2080.108 -4945.332)"/>
    <path id="Path_14960" data-name="Path 14960" class="cls-1" d="M-1813.6,4953.3c-.112-.046-.2-.1-.21-.194A.368.368,0,0,0-1813.6,4953.3Z" transform="translate(2079.887 -4948.817)"/>
    <path id="Path_14961" data-name="Path 14961" class="cls-1" d="M-1843.225,4954.339h-.046C-1843.114,4954.262-1843.141,4954.276-1843.225,4954.339Z" transform="translate(2082.409 -4950.932)"/>
    <path id="Path_14962" data-name="Path 14962" class="cls-1" d="M-1815.588,4951.473a5.546,5.546,0,0,1-.676.114A5.541,5.541,0,0,1-1815.588,4951.473Z" transform="translate(2080.097 -4945.607)"/>
    <path id="Path_14963" data-name="Path 14963" class="cls-1" d="M-1815.642,4951.389l.461-.036C-1815.114,4951.419-1815.174,4951.461-1815.642,4951.389Z" transform="translate(2080.044 -4945.337)"/>
    <path id="Path_14964" data-name="Path 14964" class="cls-1" d="M-1817.2,4951.442a6.7,6.7,0,0,0,.855-.037c-.1.026-.147.048-.12.063Z" transform="translate(2080.177 -4945.425)"/>
    <path id="Path_14965" data-name="Path 14965" class="cls-1" d="M-2024.369,4955.332c-.035.014-.075.021-.114.038C-2025.014,4955.206-2024.781,4955.232-2024.369,4955.332Z" transform="translate(2097.945 -4952.843)"/>
    <path id="Path_14966" data-name="Path 14966" class="cls-1" d="M-1887.3,4956.257a.566.566,0,0,1,.061.02l-.079.014Z" transform="translate(2086.179 -4954.685)"/>
    <path id="Path_14967" data-name="Path 14967" class="cls-1" d="M-1889.375,4955.006a2.259,2.259,0,0,0,1.878.328l-.627,1.144Z" transform="translate(2086.355 -4953.729)"/>
    <path id="Path_14968" data-name="Path 14968" class="cls-2" d="M-1981.128,4952.148l1.331-.36c-1.609-.583-2.772-.378-1.523-.883.192,1.243,5.176.114,5.364,1.355l.877-.264c-.251.013-.292-.06-.541-.048,1.707-.6,1.271.9,3.47.712.766-.1,1.3-.278.777-.425l1.709.3c.5-.025.375-.24-.12-.216l2.605.094-.019-.037a13,13,0,0,0,1.626.62c.662-.179-.332-.131-.163-.286l1.443.3c.587-.323-.609-.633-1.606-.583,1.344-1.244,1.2.309,4.1-.421l-1.362-.155c.877-.706,1.941-.453,3.479-.9-.365.229-3.08,1.112-1.514,1.419a3.609,3.609,0,0,1,1.867.108c.008-.442.832-.334,1.864-.312l-.071-.585c1.116.167,1.029.466,1.685.727a1.9,1.9,0,0,0,1.792-.9c1.99-.1-1.374.73.983.835a14.187,14.187,0,0,1,4.8.356c1.159-.2-.2-.358.212-.526l1.029.465c.251-.012.169-.154.128-.227.866.179.072.584,1.434.741.367.643,2.793-.947,4.478-.217.415-.167-.2-.357-.074-.584a20.129,20.129,0,0,1,3.88.989l1.617-.386c-1.188.441.331.96,1.66,1.386-.422.211-.781.4-1.022.486l2.121.311c.256-.1.042-.3-.305-.541.145.048.282.1.389.14.758-.217.365-.554-.179-.881l-.764.362c-.525-.354-1.015-.748-.906-1.091a2.371,2.371,0,0,0,.695.158c-.137-.1-.224-.183-.161-.241s.293.067.64.216l.482-.652.117.26,2.775-.412c1.986.653,3.714,1.618,6.866,1.885-.783-.478-.169-.781-.212-1.348-.86.6-2.44-.254-4.074-.129.852-.064.665-.333.448-.428l2.913.542c-.066-.463.619-.348,1.38-.54-.574.917,2.172.61,3.358.89.073-.308-.211-.623-1.658-.547,1.6-.69,2.063,1.076,3.629.489-.353-.009-.543.04-.683-.116.825.273,2.841.055,2.366-.213l-.352-.006c2.345-.109,7.137-.008,7.487.77a3.544,3.544,0,0,0-.449-1.094l4.182,2.615c-.368-.667,1.047-2.259-.9-2.635a5.871,5.871,0,0,1,2.425.028c-.38.1-.949.967-.429,1.027a13.159,13.159,0,0,1,2.752-1.029c-.571.143.063,1.191.964,1.159-.141-.157.076-1.036-.254-1.145l2.245,1.03c-.56-.185-.1-.872.4-1.163-.233.2,1.941-.016,2.54.086l-.952.237c2.536-.152,2.5,1.449,5.017,1.4a.793.793,0,0,1,.529-1.438c.585.528,2.593,2.538,4.816,2.944l.427-.3,1.706.345a34.914,34.914,0,0,0-5.67-3.115c.948-.237.264-.354,1.685-.326.5-.282-.774-.428-1.192-.445l3.308-.18c-.148.613,2.528.619,2.4,1.131l-3.592-.64c-.146.613,2.075,1.746,4.418,1.642.6-.244-.443-1.1-.395-1.3a5.794,5.794,0,0,0,2.439.258l-.994-.331c1.3-.229,2.128.82,3.7.237.54-.04,1.617-.79,1.71-.426-.885.7-1.061,2.871-.473,3.4a25.6,25.6,0,0,0,3.46-1.011c.893-.548-1.335-1.315-.575-1.785.032.167.524.376.729.442.569-.142-.234-.519,1-.442.2.624,2.512-.047.582.529,1.208.18,1.285-.126,2.7-.1-.453.4,1.27,1.375,2.479,1.555-.071-.159.2-.365.334-.459,2.475-.052,3.806-.328,6.114-.326.214-.15,1.328-.33.855-.6a3.388,3.388,0,0,0,1.348.342c1.38-.536-1.587-.09-.535-.734.089.363,1.841.506,2.854.735-.315.56-2.344.1-3.359-.129-.007.772,1.759,1.586,4.17,1.951,1.917.2.833-.5,1.166-.385,3.6-.122,3.063,1.357,6.056.812,1.189-.489.058-.979.322-1.333-1.562-.191-2.4.305-3.458.282l1.3-.229a4.864,4.864,0,0,0-2.108-.152c1-.436,6.085-.067,8.866-.459.494.168,1.345.342.941.538l-.879-.073c-.81.392,1.653.556.539.736a10.58,10.58,0,0,0,4.16.513l.315-.56c-.037.164-1.087.329-1.552.155.691.251,2.549-.746,3.3-.007l-1.166.382a11.738,11.738,0,0,0,4.116.721c-.672.549-.339-.066-1.388.577.911-.8-3.764.016-2.3-.824-1.076.748-1.859.31-3.264.945.044-.185.5-.352-.738-.266a1.226,1.226,0,0,0-.27-.165l-.083.014.068-.021c-.053-.028-.058-.034.026-.008a1.542,1.542,0,0,0,.631-.278c-.612-.428-2.576-.425-3.24-.647-.733.085.306.214-.095.41l-.991-.335c-.1.411-1.95.677-.224.922l-1.554.014a7.4,7.4,0,0,1-2.95.14c-.733.087-1.85-.461-1.212-.138l-2.436-.262-.023.1c-2.4.043-4.949-.7-7.7.035a12.3,12.3,0,0,0-3-.123l-.265.354c-1.039-.128-3.123.348-3.568-.021-1.124.953-5.046.2-6.874.364l-.068-.464a28.417,28.417,0,0,1-4.026-.3l.1-.41c-1.347-.34-3.463.285-5.593.238.144.158.685.117,1.068.023-2.546.92-5.369-.679-7.678-.007a2.585,2.585,0,0,0-1.395,0,.482.482,0,0,1,.142.021c-.059,0-.146.005-.237,0-.253.071-.515.153-.8.218a3.55,3.55,0,0,1,.672-.218,14.206,14.206,0,0,1-1.776-.164l-.282.44-.152-.014c-.647.163-.521-.208-.175-.539a4.67,4.67,0,0,1-.872-.267c-.526.711-1.73-.241-2.448.517-.444-.371-3.315-.281-3.667-1.058-.022.1-.217.149.14.155a4.91,4.91,0,0,1-2.13-.043l-.312.56-1.606-.753c-.975.342-1.38.54-.411.971-2.338-.661-1.9-.249-3.885-.9l.1.362c-.71-.013-1.847-.5-2.276-.2-1.59.688-7.868.1-11.95.739.791-1.066-1.9.478-2.059-.347-.237.252-.805.4-.144.613-2.083-.245-3.129.4-4.568-.291-.238.253.446.37.234.52-.167-.055-.662-.219-.879-.067s.305.21.636.32c-2.128-.04-2.344-.816-2.5-1.546a2.426,2.426,0,0,1-2.395-.179c-.375.239-1,.49.321.573-.743.036-4.543.355-4.62-.229a2.39,2.39,0,0,1-1.235-.022c-1.67.037-1.816.09-3.456.037l.455-.1c-.649-.7-1.363-.154-2.684-.236l.038.072c-3.029.516-1.309-.241-4.3.345l.162-.439c-.281-.943-2.647.563-4.383.2l.625-.251c-.948-.322-2.645,1.288-3.6,1.407-.208.083.328.131.617.191-2.49.563-.324-.574-2.18-.7-.342.31.443.787-.806.848-.622.252-3.627-1-5.329-.4.375-.241.747-.48-.115-.658-1.322-.081-3.571.912-4.766.163-.168.066-.231.128-.238.188-1.01-.192-3.284-.313-3.894-.721-.929,1.518-6.282-.721-6.255.676l-3.108-.065.082.142a5.881,5.881,0,0,1-3.389-.568c-.459.1-.123.227-.085.3a10.635,10.635,0,0,1-5.625-.456l-.251.454c-.66-.263-4.194.724-7.042.2.028.051.088.14.313.2-3.2-.522-7.663,1.282-8.842-.365l-2.115-.4c2.734-.138-.409-.715.714-.993-1.075-.094-2.778.507-1.457.587l.207-.083c.489.859-3.4.316-3.321.9-5.379-.024-10.622.469-15.662.524l.579-.671-1.758.045c-.461.158-.618.526.637.494-.658.381-2.105-.312-2.141-.457-2.455.279.962.777.208.8l-1.022-.046.23-.079a4.491,4.491,0,0,0-2.411-.521c-.954.136-.488.414-.863.44,0,.048-.124.071-.576.022l-2.214.064.884-.531c-.983-.256-2.082.035-1.062-.566-1.5.927-8.261.358-9.181.648a14.486,14.486,0,0,0-4.414-.316c.417-.111.665-.706-.784-.627.534,1.223-2.654.541-3.822,1.427,1.045-.589-4.123-.13-2.483-.966-1.209.1-.071.459-.988.75-2.881-.464-6.346.331-9.906.182-.056-.161.539-.409-.225-.646l-1.877.811c-.7-.077-.65-.926-1.932-.364.18-.136.451-.341-.021-.391-6.971.808-14.251-.6-21.33.9.958-.315.319-.345-.413-.354.476-.075-.012-.4.082-.615l-2.964.614c-.541-.6-3.178-.032-3.489-.609l.939.1c-1.251-.678,1.743-1.522,1.557-2.4,1.4.772,3.683-1.16,5.98-.056.506-.18-.433-.28-.163-.486a3.625,3.625,0,0,0,2.586.279l-.147-.092a92.621,92.621,0,0,0,9.328-.554l-.3.434a5.087,5.087,0,0,0,1.481-.307c1.014.653-2.479.045-1.554.767,1.167-.885,6.222-.034,7.011-1.038,1.357-.011-.4.5.961.491l.358-.272.345.348c.889-.061,1.338-.4,1.369-.631a5.392,5.392,0,0,1-.845-.08c1.154-.324,3.255.1,3.651-.008l-1.3.172c3.706.241,8.229-.129,11.81.408l-.271.205c2.735.369,2.188-.231,5.19-.067l-.109-.048a6.634,6.634,0,0,0,2.225.276c-.759-.236,1.424-.471.429-.731,2.965.4,1.468.313,3.428,1.067l.45-.341a4.059,4.059,0,0,0,2.224.548c-1.23-.286.955-.52-.423-.9,3.142-.753,4.672.733,6.112-.358,1.448.934-2.719.532-1.91.73-.677.308,1.194.7,2.181.6,1-.025,1.7-1.207,4.232-1.2-.251.005-.269-.066-.519-.062.946-.241,1.854.317,3.014-.074.652.564,1.506-.039,1.7.685l-2.32-.16c1.315.186,2.551,1.028,4.714.61a4.534,4.534,0,0,0-1.257-.441c.633-.215,1.22.138,1.876-.083-.189-.725-2.818-.148-4.228-.7.678-.309,2.665.516,1.955-.267,1.02.995,2.49-.134,4.2.621l-.114-.434a4.941,4.941,0,0,0,1.331.259l-.9-.56c1.387.474,2.67-.43,4-.173-2.783,0-.623.525-1.8.846,3.434.57,1.97-1.142,5.815-.946-.521-.059-1.953.267-1.139.464a8.078,8.078,0,0,0,2.145-.491c2.547.083-.39.449.695.712.865-.532,1.251.21,2.367.376l.007-.441c2.9-.292.772.917,3.384.566l-1.106-.608,1.362.155-.283-.5a7.618,7.618,0,0,0,3.395.124c-.335.313.193.8,1.478.81.876-.265-.492-.417,1.33-.361a1.4,1.4,0,0,0-1.655-.21c-.081-.143-.407-.276-.491-.417a10.307,10.307,0,0,1,3.032-.075,2.9,2.9,0,0,0-.713.105l2.643.6c.415-.166.085-.3-.241-.428.535.046.905.248,1.691.284-.2-.359-.156-.729-1.271-.893l2.517.39c.168-.157,1.29-.432.963-.563,1.395-.216,3.425.686,5.273.4a1.615,1.615,0,0,0,.683.186c1.737-.087,3.276-.532,5.337-.046l1.167-.646c1.613.141-1.58.814,1.106,1.049,1.9.2.709-.551,1.375-.731a6.919,6.919,0,0,0,4.339.448A11.543,11.543,0,0,0-1981.128,4952.148Zm19.9.234c-.386-.092-1.155-.377-1.436-.115C-1962.225,4952.771-1961.886,4952.53-1961.229,4952.383Zm30.25,1.011a1.741,1.741,0,0,0-1.23.1A3.541,3.541,0,0,0-1930.979,4953.394Zm84.252,3.169a.336.336,0,0,1-.041-.021C-1847.628,4956.71-1847.324,4956.644-1846.727,4956.563Zm1.786-.185c.179.062.167.124.091.184a1.823,1.823,0,0,0-.982-.091C-1845.7,4956.355-1845.474,4956.277-1844.941,4956.378Zm-191.768,0,.346-.115C-2037.147,4956.141-2036.928,4956.255-2036.709,4956.381Z" transform="translate(2104.658 -4950.905)"/>
    <path id="Path_14969" data-name="Path 14969" class="cls-1" d="M-1918.632,4955.683a.39.39,0,0,0-.165.239C-1918.948,4955.849-1918.952,4955.764-1918.632,4955.683Z" transform="translate(2088.882 -4953.792)"/>
    <path id="Path_14970" data-name="Path 14970" class="cls-1" d="M-1983.244,4956.935l-.061.006a.185.185,0,0,1-.061-.08Z" transform="translate(2094.399 -4955.888)"/>
    <path id="Path_14971" data-name="Path 14971" class="cls-1" d="M-1851.072,4955.958a1.967,1.967,0,0,0-.709.227C-1851.8,4956.076-1851.634,4955.986-1851.072,4955.958Z" transform="translate(2083.137 -4954.307)"/>
    <path id="Path_14972" data-name="Path 14972" class="cls-1" d="M-1810.528,4951.418l-1.143-.121a2.72,2.72,0,0,0,1.031-.14C-1810.666,4951.261-1810.885,4951.41-1810.528,4951.418Z" transform="translate(2079.704 -4945.149)"/>
    <path id="Path_14973" data-name="Path 14973" class="cls-1" d="M-1799.582,4953.8c.167.055.354.008.518.063l-.047.205C-1799.823,4954.05-1800.319,4953.883-1799.582,4953.8Z" transform="translate(2078.701 -4950.214)"/>
    <path id="Path_14974" data-name="Path 14974" class="cls-1" d="M-1809.255,4952.814c.092-.371.809-.242,1.61-.168a.984.984,0,0,0-.142,0C-1807.554,4953.165-1808.407,4952.989-1809.255,4952.814Z" transform="translate(2079.497 -4948.008)"/>
    <path id="Path_14975" data-name="Path 14975" class="cls-1" d="M-1807.291,4952.8a5.219,5.219,0,0,0,.74.013C-1806.458,4953.022-1806.851,4952.854-1807.291,4952.8Z" transform="translate(2079.329 -4948.149)"/>
    <path id="Path_14976" data-name="Path 14976" class="cls-1" d="M-1818.359,4951.3c.38-.094.236.476.452.326C-1817.485,4952.1-1820.437,4951.038-1818.359,4951.3Z" transform="translate(2080.341 -4945.567)"/>
    <path id="Path_14977" data-name="Path 14977" class="cls-1" d="M-1808.608,4953.592l-.29.456-.447-.372Z" transform="translate(2079.505 -4950.004)"/>
    <path id="Path_14978" data-name="Path 14978" class="cls-1" d="M-1815.46,4953.795l1.281-.121c-.02.077.143.123.342.158C-1814.626,4953.843-1815.491,4953.93-1815.46,4953.795Z" transform="translate(2080.029 -4949.902)"/>
    <path id="Path_14979" data-name="Path 14979" class="cls-1" d="M-1813.685,4953.629a3.674,3.674,0,0,1,1.031.08A7.991,7.991,0,0,1-1813.685,4953.629Z" transform="translate(2079.877 -4949.699)"/>
    <path id="Path_14980" data-name="Path 14980" class="cls-1" d="M-1810.573,4954.117l-.379.093-.9.03Z" transform="translate(2079.72 -4950.676)"/>
    <path id="Path_14981" data-name="Path 14981" class="cls-1" d="M-1830.646,4954.061l-1.4-.137c-.142-.157.24-.252.759-.187C-1830.949,4953.847-1830.431,4953.91-1830.646,4954.061Z" transform="translate(2081.45 -4950.132)"/>
    <path id="Path_14982" data-name="Path 14982" class="cls-1" d="M-1825.948,4954.915a1.3,1.3,0,0,0-.617.347l-.041-.568Z" transform="translate(2080.982 -4952.226)"/>
    <path id="Path_14983" data-name="Path 14983" class="cls-1" d="M-1830.436,4955.655c-.139-.158-2.027-.458-.256-.418C-1830.551,4955.394-1829.152,4955.53-1830.436,4955.655Z" transform="translate(2081.397 -4953.111)"/>
    <path id="Path_14984" data-name="Path 14984" class="cls-1" d="M-1853.372,4953.481l.355.007-.053.932Z" transform="translate(2083.273 -4950.275)"/>
    <path id="Path_14985" data-name="Path 14985" class="cls-1" d="M-1873.681,4956.229c1.656-.221.393.575,1.889.3.388.22-1.223.226-.825.417C-1873.616,4956.712-1874.141,4956.842-1873.681,4956.229Z" transform="translate(2085.026 -4955.279)"/>
    <path id="Path_14986" data-name="Path 14986" class="cls-1" d="M-1872.5,4956.036a5.14,5.14,0,0,1,.51.142A2.457,2.457,0,0,1-1872.5,4956.036Z" transform="translate(2084.911 -4954.37)"/>
    <path id="Path_14987" data-name="Path 14987" class="cls-1" d="M-2101.68,4951.175l-1.065.2.687-.315Z" transform="translate(2104.617 -4945.011)"/>
    <path id="Path_14988" data-name="Path 14988" class="cls-1" d="M-2103.9,4951.372l-.25.593-.641-.535A1.67,1.67,0,0,0-2103.9,4951.372Z" transform="translate(2104.792 -4945.892)"/>
    <path id="Path_14989" data-name="Path 14989" class="cls-1" d="M-1944.783,4957.345l.081.142c-.165.155-.414.167-.913.192Z" transform="translate(2091.168 -4957.068)"/>
    <path id="Path_14990" data-name="Path 14990" class="cls-1" d="M-1960.519,4956.627l.249-.013-.463.538Z" transform="translate(2092.462 -4955.873)"/>
    <path id="Path_14991" data-name="Path 14991" class="cls-1" d="M-1973.759,4957.582c.494-.024,1.077.094,1.573.069C-1973.264,4957.558-1973.89,4958.252-1973.759,4957.582Z" transform="translate(2093.579 -4957.48)"/>
  </g>
</svg>
