<?xml version="1.0" encoding="UTF-8"?>
<svg width="489px" height="311px" viewBox="0 0 489 311" version="1.1" xmlns="http://www.w3.org/2000/svg" xmlns:xlink="http://www.w3.org/1999/xlink">
    <!-- Generator: Sketch 51.2 (57519) - http://www.bohemiancoding.com/sketch -->
    <title>Artboard</title>
    <desc>Created with Sketch.</desc>
    <defs></defs>
    <g id="Artboard" stroke="none" stroke-width="1" fill="none" fill-rule="evenodd">
        <g id="Group-3" transform="translate(52.000000, 89.000000)">
            <g id="Group" transform="translate(175.000000, 0.000000)" fill="#4C7EF3">
                <g id="Group-5">
                    <path d="M0,134 L134,134 L134,0 L0,0 L0,134 Z M18.376881,115.623119 L115.634576,115.623119 L115.634576,18.3654241 L18.376881,18.3654241 L18.376881,115.623119 Z" id="Fill-1"></path>
                    <polygon id="Fill-2" points="150 133 210 133 210 115 150 115"></polygon>
                    <path d="M55.8844117,66.5 C55.8844117,74.1146625 60.9039834,79.7230666 68.1685471,79.7230666 C73.3032466,79.7230666 77.1485149,76.8732678 78.967534,72.3135896 L92,76.3375056 C88.7994474,85.9698257 79.174764,92 68.0649321,92 C53.5358047,92 42,81.3075548 42,66.5 C42,51.6924452 53.5358047,41 68.0649321,41 C79.174764,41 88.7994474,47.1441663 92,56.7650872 L78.967534,60.6864104 C77.1485149,56.2407242 73.3032466,53.2769334 68.1685471,53.2769334 C60.9039834,53.2769334 55.8844117,58.8853375 55.8844117,66.5" id="Fill-3"></path>
                </g>
            </g>
            <g id="Group-2">
                <rect id="Rectangle-3" fill="#2A9F9B" x="0" y="0" width="139" height="134"></rect>
                <polyline id="Path-2" fill="#37C3BE" points="3.70703125 133.472656 139.296875 3.25 139.296875 133.472656"></polyline>
                <path d="M44.4,79.8 L44.4,32 L61.5,32 L61.5,79.8 C61.5,87.066703 59.3166885,92.733313 54.95,96.8 C50.5833115,100.866687 45.000034,102.9 38.2,102.9 C31.399966,102.9 25.833355,100.883353 21.5,96.85 C17.166645,92.8166465 15,87.13337 15,79.8 L32,79.8 C32.066667,82.46668 32.666661,84.433327 33.8,85.7 C34.933339,86.966673 36.399991,87.6 38.2,87.6 C40.000009,87.6 41.4833275,86.966673 42.65,85.7 C43.8166725,84.433327 44.4,82.46668 44.4,79.8 Z M95.8,44.5 C93.666656,44.5 91.9166735,45.066661 90.55,46.2 C89.1833265,47.333339 88.5,48.966656 88.5,51.1 C88.5,53.233344 89.133327,54.9499935 90.4,56.25 C91.666673,57.5500065 93.3166565,58.5499965 95.35,59.25 C97.3833435,59.9500035 99.6499875,60.6166635 102.15,61.25 C104.650013,61.8833365 107.133321,62.6499955 109.6,63.55 C112.066679,64.4500045 114.316656,65.56666 116.35,66.9 C118.383343,68.23334 120.033327,70.1166545 121.3,72.55 C122.566673,74.9833455 123.2,77.899983 123.2,81.3 C123.2,87.233363 120.783357,92.3166455 115.95,96.55 C111.116643,100.783354 104.750039,102.9 96.85,102.9 C88.9499605,102.9 82.5833575,101.000019 77.75,97.2 C72.9166425,93.399981 70.5,88.000035 70.5,81 L88.7,81 C89.166669,86.600028 92.033307,89.4 97.3,89.4 C99.766679,89.4 101.699993,88.7500065 103.1,87.45 C104.500007,86.1499935 105.2,84.50001 105.2,82.5 C105.2,80.49999 104.566673,78.866673 103.3,77.6 C102.033327,76.333327 100.383343,75.333337 98.35,74.6 C96.3166565,73.866663 94.0500125,73.1833365 91.55,72.55 C89.0499875,71.9166635 86.566679,71.133338 84.1,70.2 C81.633321,69.266662 79.3833435,68.1500065 77.35,66.85 C75.3166565,65.5499935 73.666673,63.6833455 72.4,61.25 C71.133327,58.8166545 70.5,55.93335 70.5,52.6 C70.5,46.066634 72.933309,40.833353 77.8,36.9 C82.666691,32.966647 88.8832955,31 96.45,31 C104.016705,31 110.13331,32.7166495 114.8,36.15 C119.46669,39.5833505 121.899999,44.999963 122.1,52.4 L103.5,52.4 C103.233332,49.866654 102.416674,47.9166735 101.05,46.55 C99.6833265,45.1833265 97.933344,44.5 95.8,44.5 Z" id="JS" fill="#0F1931"></path>
            </g>
        </g>
    </g>
</svg>