<svg width="28" height="27" viewBox="0 0 28 27" fill="none" xmlns="http://www.w3.org/2000/svg">
<path d="M20.1483 7.64257C19.3981 6.91331 18.5063 6.3348 17.5242 5.94037C16.542 5.54593 15.4889 5.34336 14.4255 5.34431V13.1793L8.70276 18.716C11.8611 21.7717 16.9899 21.7717 20.1618 18.716C20.9134 17.9886 21.5094 17.1249 21.9156 16.1744C22.3218 15.2239 22.5302 14.2052 22.529 13.1766C22.5277 12.148 22.3168 11.1298 21.9083 10.1802C21.4998 9.23059 20.9017 8.36826 20.1483 7.64257V7.64257ZM14.4255 0.120972C6.97514 0.120972 0.928467 5.97111 0.928467 13.1793C0.928467 20.3875 6.97514 26.2376 14.4255 26.2376C21.8759 26.2376 27.9226 20.3875 27.9226 13.1793C27.9226 5.97111 21.8759 0.120972 14.4255 0.120972V0.120972ZM14.4255 23.626C8.45982 23.626 3.62788 18.9511 3.62788 13.1793C3.62788 7.40752 8.45982 2.73264 14.4255 2.73264C20.3912 2.73264 25.2231 7.40752 25.2231 13.1793C25.2231 18.9511 20.3912 23.626 14.4255 23.626Z" fill="url(#paint0_linear)"/>
<defs>
<linearGradient id="paint0_linear" x1="-7.46356" y1="0.120972" x2="34.2511" y2="33.5415" gradientUnits="userSpaceOnUse">
<stop stop-color="#FFC000"/>
<stop offset="1" stop-color="#D77821"/>
</linearGradient>
</defs>
</svg>
