<svg width="31" height="27" viewBox="0 0 31 27" fill="none" xmlns="http://www.w3.org/2000/svg">
<path d="M13.7507 20.4867L19.1225 17.5094C20.0268 17.0132 20.0268 15.7465 19.1225 15.2372L13.7507 12.2599C12.8464 11.7637 11.7261 12.4036 11.7261 13.396V19.3376C11.7261 20.3431 12.8464 20.9829 13.7507 20.4867ZM27.9225 5.92665H17.6783L21.6464 2.08749C21.9164 1.82633 21.9164 1.42152 21.6464 1.16035C21.3765 0.899186 20.9581 0.899186 20.6881 1.16035L15.7752 5.91359L10.8623 1.16035C10.5923 0.899186 10.1739 0.899186 9.904 1.16035C9.63406 1.42152 9.63406 1.82633 9.904 2.08749L13.8721 5.92665H3.62788C2.91195 5.92665 2.22534 6.2018 1.71911 6.69159C1.21287 7.18137 0.928467 7.84566 0.928467 8.53831V24.2083C0.928467 25.6447 2.1432 26.82 3.62788 26.82H27.9225C29.4072 26.82 30.622 25.6447 30.622 24.2083V8.53831C30.622 7.84566 30.3376 7.18137 29.8313 6.69159C29.3251 6.2018 28.6385 5.92665 27.9225 5.92665V5.92665ZM26.5728 24.2083H4.97758C4.23524 24.2083 3.62788 23.6207 3.62788 22.9025V9.84415C3.62788 9.12594 4.23524 8.53831 4.97758 8.53831H26.5728C27.3152 8.53831 27.9225 9.12594 27.9225 9.84415V22.9025C27.9225 23.6207 27.3152 24.2083 26.5728 24.2083Z" fill="url(#paint0_linear)"/>
<defs>
<linearGradient id="paint0_linear" x1="-8.30276" y1="0.964478" x2="33.729" y2="38.3807" gradientUnits="userSpaceOnUse">
<stop stop-color="#FFC000"/>
<stop offset="1" stop-color="#D77821"/>
</linearGradient>
</defs>
</svg>
