<svg width="25" height="27" viewBox="0 0 25 27" fill="none" xmlns="http://www.w3.org/2000/svg">
<path d="M21.6697 2.7457H20.32V1.43987C20.32 0.721658 19.7127 0.134033 18.9703 0.134033C18.228 0.134033 17.6206 0.721658 17.6206 1.43987V2.7457H6.82298V1.43987C6.82298 0.721658 6.21562 0.134033 5.47328 0.134033C4.73094 0.134033 4.12357 0.721658 4.12357 1.43987V2.7457H2.77387C1.2757 2.7457 0.0879599 3.92095 0.0879599 5.35737L0.0744629 23.639C0.0744629 24.3317 0.358864 24.996 0.865101 25.4858C1.37134 25.9756 2.05794 26.2507 2.77387 26.2507H21.6697C23.1544 26.2507 24.3691 25.0755 24.3691 23.639V5.35737C24.3691 3.92095 23.1544 2.7457 21.6697 2.7457ZM21.6697 22.3332C21.6697 23.0514 21.0624 23.639 20.32 23.639H4.12357C3.38124 23.639 2.77387 23.0514 2.77387 22.3332V9.27487H21.6697V22.3332ZM5.47328 11.8865H8.17269V14.4982H5.47328V11.8865ZM10.8721 11.8865H13.5715V14.4982H10.8721V11.8865ZM16.2709 11.8865H18.9703V14.4982H16.2709V11.8865Z" fill="url(#paint0_linear)"/>
<defs>
<linearGradient id="paint0_linear" x1="-7.47836" y1="0.134033" x2="33.0773" y2="29.3768" gradientUnits="userSpaceOnUse">
<stop stop-color="#FFC000"/>
<stop offset="1" stop-color="#D77821"/>
</linearGradient>
</defs>
</svg>
