<svg width="33" height="22" viewBox="0 0 33 22" fill="none" xmlns="http://www.w3.org/2000/svg">
<path d="M27.2746 19.1582C28.7412 19.1582 29.9279 17.9582 29.9279 16.4916L29.9412 3.15824C29.9412 2.451 29.6603 1.77272 29.1602 1.27263C28.6601 0.772529 27.9818 0.491577 27.2746 0.491577H5.94124C4.46124 0.491577 3.27458 1.67824 3.27458 3.15824V16.4916C3.27458 17.1988 3.55553 17.8771 4.05563 18.3772C4.55572 18.8773 5.234 19.1582 5.94124 19.1582H0.60791V21.8249H32.6079V19.1582H27.2746ZM5.94124 16.4916V3.15824H27.2746V16.5049L5.94124 16.4916ZM17.9412 7.33158C12.7546 8.05158 10.6879 11.5982 9.94124 15.1582C11.7946 12.6649 14.2346 11.5316 17.9412 11.5316V14.4516L23.2746 9.46491L17.9412 4.49158V7.33158Z" fill="url(#paint0_linear)"/>
<defs>
<linearGradient id="paint0_linear" x1="0.60791" y1="2.33436" x2="35.3818" y2="3.86387" gradientUnits="userSpaceOnUse">
<stop offset="0.0001" stop-color="#FCBB03"/>
<stop offset="1" stop-color="#DF871B"/>
</linearGradient>
</defs>
</svg>
