<svg width="436" height="200" viewBox="0 0 436 200" fill="none" xmlns="http://www.w3.org/2000/svg">
<g clip-path="url(#clip0_1182_56541)">
<rect width="436" height="200" rx="8" fill="#FEFBF5"/>
<g opacity="0.5" clip-path="url(#clip1_1182_56541)">
<path opacity="0.15" d="M213.522 194.368L-15 343.076L-15 467L442.045 467L442.045 343.076L213.522 194.368Z" fill="#FFC031"/>
<path d="M222.522 -31L-6 117.708L-5.99999 466.424L451.045 466.424L451.045 117.708L222.522 -31Z" fill="#FBF0DA"/>
<path d="M222.522 37.0139L-6 185.722L-5.99999 467L451.045 467L451.045 185.722L222.522 37.0139Z" fill="#F9E7C3"/>
<path d="M222.522 116.554L-6 265.263L-5.99999 466.423L451.045 466.423L451.045 265.263L222.522 116.554Z" fill="#F7DFB0"/>
</g>
<rect x="60" y="90" width="317" height="191" rx="13" fill="white"/>
<rect x="78" y="167" width="20" height="9" rx="4.5" fill="#FBF0DA"/>
<rect x="336" y="167" width="20" height="9" rx="4.5" fill="#FBF0DA"/>
<rect x="78" y="194" width="20" height="9" rx="4.5" fill="#FBF0DA"/>
<rect x="336" y="194" width="20" height="9" rx="4.5" fill="#FBF0DA"/>
<rect x="106" y="167" width="144" height="9" rx="4.5" fill="#FBF0DA"/>
<rect x="265" y="167" width="59" height="9" rx="4.5" fill="#FBF0DA"/>
<rect x="265" y="194" width="59" height="9" rx="4.5" fill="#FBF0DA"/>
<rect x="106" y="194" width="144" height="9" rx="4.5" fill="#FBF0DA"/>
<rect x="74.715" y="95.6674" width="287.57" height="57.6652" rx="8.99929" fill="white" stroke="#F6C155" stroke-width="1.43"/>
<rect x="56.865" y="76.1367" width="323.27" height="64.7266" rx="10.0594" fill="white" stroke="#F6C155" stroke-width="1.73"/>
<circle cx="96.5121" cy="104.5" r="18.2073" fill="#FBF0DA" stroke="#F6C155" stroke-width="0.910364"/>
<path d="M100.189 102.597L100.216 102.592C100.401 102.717 100.621 102.784 100.846 102.782L100.847 102.782C101.143 102.78 101.429 102.661 101.637 102.449C101.638 102.449 101.638 102.449 101.638 102.448L105.26 98.798C105.261 98.7977 105.261 98.7974 105.261 98.7971C105.36 98.7007 105.51 98.6685 105.641 98.7178C105.77 98.7664 105.844 98.8797 105.846 98.9975L105.846 98.9982L105.951 107.843C105.951 107.843 105.951 107.843 105.951 107.844C105.952 107.99 105.84 108.135 105.663 108.166L89.1783 110.925C89.0023 110.951 88.8511 110.851 88.804 110.713C88.8039 110.713 88.8038 110.713 88.8037 110.712L86.0245 102.318C86.0244 102.318 86.0243 102.317 86.0242 102.317C85.9884 102.205 86.0229 102.075 86.1281 101.988C86.2358 101.899 86.389 101.881 86.5129 101.941L86.5298 101.949L91.1283 104.213L91.1295 104.214C91.395 104.343 91.7032 104.361 91.9829 104.265C92.2628 104.17 92.4951 103.967 92.6226 103.699L92.6237 103.696L95.2199 98.1389C95.2199 98.1388 95.2199 98.1387 95.22 98.1386C95.2653 98.0425 95.3608 97.9679 95.479 97.9481C95.5972 97.9283 95.7118 97.9678 95.786 98.0439C95.786 98.044 95.7861 98.044 95.7862 98.0441L100.05 102.453L100.189 102.597Z" fill="#F6C155" stroke="#F6C155" stroke-width="0.758638"/>
<rect x="129.74" y="100.403" width="128.589" height="9.67264" rx="4.83632" fill="#F6C155"/>
<rect x="269.936" y="100.403" width="55.5322" height="10.014" rx="5.007" fill="#F6C155"/>
<rect x="339.123" y="100.403" width="23.6695" height="10.014" rx="5.007" fill="#F6C155"/>
<rect x="41" y="52" width="355" height="71" rx="11" fill="white" stroke="#F6C155" stroke-width="2"/>
<circle cx="84.5" cy="87.5" r="20" fill="#FBF0DA" stroke="#F6C155"/>
<path d="M88.5409 85.4091L88.5709 85.4041C88.7734 85.5415 89.0151 85.6144 89.2626 85.613L89.2633 85.613C89.5892 85.6106 89.9031 85.4795 90.1318 85.2469C90.1321 85.2466 90.1324 85.2463 90.1327 85.246L94.1116 81.2364C94.112 81.236 94.1123 81.2357 94.1126 81.2354C94.2204 81.1294 94.3862 81.0941 94.5297 81.1483C94.6709 81.2016 94.753 81.3261 94.7543 81.4555L94.7543 81.4562L94.8704 91.1718C94.8704 91.1721 94.8704 91.1724 94.8705 91.1728C94.8709 91.3331 94.7482 91.4923 94.554 91.5268L76.4459 94.5574C76.2527 94.5861 76.0865 94.4761 76.0348 94.325C76.0347 94.3246 76.0346 94.3243 76.0344 94.3239L72.9816 85.1027C72.9815 85.1024 72.9814 85.1021 72.9813 85.1018C72.942 84.9792 72.9799 84.8358 73.0956 84.7403L72.8304 84.419L73.0954 84.7405C73.2137 84.6429 73.3821 84.623 73.5181 84.6884L73.5367 84.6973L78.588 87.1848L78.5893 87.1854C78.8809 87.3278 79.2194 87.3475 79.5266 87.2422C79.8341 87.1369 80.0894 86.9141 80.2294 86.6196L80.2294 86.6196L80.2306 86.6171L83.0824 80.5123C83.0824 80.5122 83.0825 80.5121 83.0825 80.512C83.1323 80.4065 83.2372 80.3245 83.367 80.3027C83.4969 80.281 83.6228 80.3244 83.7042 80.408C83.7043 80.4081 83.7044 80.4081 83.7045 80.4082L88.3886 85.2517L88.5409 85.4091Z" fill="#F6C155" stroke="#F6C155" stroke-width="0.833335"/>
<rect x="121" y="83" width="141.25" height="10.625" rx="5.31251" fill="#F6C155"/>
<rect x="275" y="83" width="61" height="11" rx="5.5" fill="#F6C155"/>
<rect x="351" y="83" width="26" height="11" rx="5.5" fill="#F6C155"/>
</g>
<defs>
<clipPath id="clip0_1182_56541">
<rect width="436" height="200" rx="8" fill="white"/>
</clipPath>
<clipPath id="clip1_1182_56541">
<rect width="498" height="466.045" fill="white" transform="translate(-15 467) rotate(-90)"/>
</clipPath>
</defs>
</svg>
