<?xml version="1.0" encoding="UTF-8"?>
<svg width="128px" height="64px" viewBox="0 0 128 64" version="1.1" xmlns="http://www.w3.org/2000/svg" xmlns:xlink="http://www.w3.org/1999/xlink">
    <title>maths_dweb</title>
    <g id="Page-1" stroke="none" stroke-width="1" fill="none" fill-rule="evenodd">
        <g id="maths_dweb">
            <g id="class" transform="translate(64.000000, 0.000000)">
                <g id="Group-107" transform="translate(2.000000, 3.000000)">
                    <path d="M29.4649724,16.3589744 L30.022207,16.3589744 C31.5553507,16.3589744 32.8418039,17.5149563 33.0051345,19.039375 L36.8238158,54.6804006 C37.0003257,56.327826 35.8079131,57.8064176 34.1604877,57.9829275 C34.0543343,57.994301 33.9476494,58 33.8408884,58 L25.6462911,58 C23.9894369,58 22.6462911,56.6568542 22.6462911,55 C22.6462911,54.893239 22.6519901,54.7865541 22.6633637,54.6804006 L26.482045,19.039375 C26.6453756,17.5149563 27.9318288,16.3589744 29.4649724,16.3589744 Z" id="Rectangle" fill="#F7F7F7"></path>
                    <path d="M22.8461538,52.0512821 L36.6410256,52.0512821 C39.4024494,52.0512821 41.6410256,54.2898583 41.6410256,57.0512821 L41.6410256,58 L41.6410256,58 L17.8461538,58 L17.8461538,57.0512821 C17.8461538,54.2898583 20.0847301,52.0512821 22.8461538,52.0512821 Z" id="Rectangle" fill="#CCCCCC"></path>
                    <path d="M3,0 L56.4871795,0 C58.1440337,-4.27501655e-15 59.4871795,1.34314575 59.4871795,3 L59.4871795,43.1025641 C59.4871795,44.7594184 58.1440337,46.1025641 56.4871795,46.1025641 L3,46.1025641 C1.34314575,46.1025641 6.46995335e-16,44.7594184 0,43.1025641 L0,3 C2.41183085e-16,1.34314575 1.34314575,7.48448398e-16 3,0 Z" id="Rectangle" fill="#CCCCCC"></path>
                    <path d="M3,0 L56.4871795,0 C58.1440337,-4.71910575e-15 59.4871795,1.34314575 59.4871795,3 L59.4871795,38.6410256 C59.4871795,40.2978799 58.1440337,41.6410256 56.4871795,41.6410256 L3,41.6410256 C1.34314575,41.6410256 6.46995335e-16,40.2978799 0,38.6410256 L0,3 C2.41183085e-16,1.34314575 1.34314575,3.04359188e-16 3,0 Z" id="Rectangle" fill="#E9E9E9"></path>
                    <path d="M4.97435897,2.97435897 L54.5128205,2.97435897 C55.61739,2.97435897 56.5128205,3.86978947 56.5128205,4.97435897 L56.5128205,33.6923077 C56.5128205,34.7968772 55.61739,35.6923077 54.5128205,35.6923077 L4.97435897,35.6923077 C3.86978947,35.6923077 2.97435897,34.7968772 2.97435897,33.6923077 L2.97435897,4.97435897 C2.97435897,3.86978947 3.86978947,2.97435897 4.97435897,2.97435897 Z" id="Rectangle" fill="#FFFFFF"></path>
                    <path d="M33.2179487,17.8461538 L38.1666667,17.8461538 C38.442809,17.8461538 38.6666667,18.0700115 38.6666667,18.3461538 L38.6666667,18.8333333 C38.6666667,19.1094757 38.442809,19.3333333 38.1666667,19.3333333 L33.2179487,19.3333333 C32.9418063,19.3333333 32.7179487,19.1094757 32.7179487,18.8333333 L32.7179487,18.3461538 C32.7179487,18.0700115 32.9418063,17.8461538 33.2179487,17.8461538 Z" id="Rectangle" fill="#333333"></path>
                    <path d="M40.6538462,17.8461538 L45.6025641,17.8461538 C45.8787065,17.8461538 46.1025641,18.0700115 46.1025641,18.3461538 L46.1025641,18.8333333 C46.1025641,19.1094757 45.8787065,19.3333333 45.6025641,19.3333333 L40.6538462,19.3333333 C40.3777038,19.3333333 40.1538462,19.1094757 40.1538462,18.8333333 L40.1538462,18.3461538 C40.1538462,18.0700115 40.3777038,17.8461538 40.6538462,17.8461538 Z" id="Rectangle" fill="#333333"></path>
                    <path d="M33.2179487,22.3076923 L44.1153846,22.3076923 C44.391527,22.3076923 44.6153846,22.5315499 44.6153846,22.8076923 L44.6153846,23.2948718 C44.6153846,23.5710142 44.391527,23.7948718 44.1153846,23.7948718 L33.2179487,23.7948718 C32.9418063,23.7948718 32.7179487,23.5710142 32.7179487,23.2948718 L32.7179487,22.8076923 C32.7179487,22.5315499 32.9418063,22.3076923 33.2179487,22.3076923 Z" id="Rectangle" fill="#333333"></path>
                    <circle id="Oval" fill="#FFA526" cx="17.8461538" cy="16.3589744" r="5.94871795"></circle>
                    <path d="M12.4542058,23.7948718 L23.2381019,23.7948718 C25.255395,23.7948718 26.956999,25.2970176 27.2072134,27.2987329 L28.2564103,35.6923077 L28.2564103,35.6923077 L7.43589744,35.6923077 L8.48509429,27.2987329 C8.7353087,25.2970176 10.4369127,23.7948718 12.4542058,23.7948718 Z" id="Rectangle" fill="#CCCCCC"></path>
                    <path d="M56.4871795,0 C58.1440337,-4.27501655e-15 59.4871795,1.34314575 59.4871795,3 L59.4871795,43.1025641 C59.4871795,44.7594184 58.1440337,46.1025641 56.4871795,46.1025641 L35.904,46.102 L36.541,52.051 L36.6410256,52.0512821 C39.4024494,52.0512821 41.6410256,54.2898583 41.6410256,57.0512821 L41.6410256,58 L17.8461538,58 L17.8461538,57.0512821 C17.8461538,54.2898583 20.0847301,52.0512821 22.8461538,52.0512821 L22.945,52.051 L23.582,46.102 L3,46.1025641 C1.34314575,46.1025641 6.46995335e-16,44.7594184 0,43.1025641 L0,3 C2.41183085e-16,1.34314575 1.34314575,7.48448398e-16 3,0 L56.4871795,0 Z" id="Combined-Shape" stroke="#333333" stroke-width="1.5" stroke-linejoin="round"></path>
                </g>
            </g>
        </g>
    </g>
</svg>