<svg width="280" height="260" viewBox="0 0 280 260" fill="none" xmlns="http://www.w3.org/2000/svg">
<path d="M22.528 31.9539C25.8252 26.6688 36.3359 19.4077 41.6567 27.0973C43.2042 29.3352 41.4544 32.1444 43.2637 34.3703C45.8229 37.5247 51.2628 36.6082 54.1315 34.7512C61.7854 29.8232 64.3328 21.7646 75.2839 24.2524C77.6884 24.8 82.4141 28.5734 84.7352 28.0734C89.5799 27.0259 86.0446 23.5025 85.8661 20.6338C85.0566 7.84951 103.959 7.30195 112.351 10.9563C118.196 13.4917 122.945 18.6102 128.885 20.9314C139.527 25.0976 148.18 8.02806 156.418 20.2172C158.513 23.3121 163.357 39.7626 169.238 34.9774C175.118 30.1922 174.796 22.0146 182.284 18.4555C189.485 15.0273 198.532 16.8247 203.198 23.5025C208.257 30.7398 202.698 40.1911 198.83 47.0594C196.961 50.3804 189.331 59.3794 192.318 63.6884C194.473 66.7952 199.532 64.7121 202.21 63.8313C217.494 58.8081 242.765 53.5229 257.668 62.3077C265.37 66.8429 268.096 74.6039 265.072 82.9006C262.453 90.0783 255.442 94.8516 256.787 102.434C258.073 109.695 257.835 112.885 252.514 118.908C250.443 121.253 245.348 123.539 244.193 126.241C242.444 130.348 245.765 130.824 248.264 132.943C253.68 137.549 256.073 144.382 253.43 151.548C251.097 157.88 241.813 161.154 240.622 167.153C239.206 174.247 249.264 175.295 251.395 180.913C253.907 187.532 247.348 196.745 241.408 199.161C238.539 200.328 235.742 199.59 232.754 200.542C226.529 202.542 221.97 209.243 214.709 208.815C206.579 208.339 203.996 197.245 200.877 209.458C199.139 216.29 201.139 227.42 193.044 229.515C184.165 231.812 174.189 224.658 166.774 220.73C161.738 218.076 151.025 212.791 148.573 219.719C147.561 222.599 148.871 227.206 148.621 230.253C148.038 237.538 144.788 243.43 138.634 247.62C130.813 252.929 108.566 256.036 108.173 241.026C107.983 233.776 115.696 228.372 119.886 223.468C121.672 221.385 123.921 218.564 123.993 215.612C124.183 207.648 115.803 209.47 110.078 210.779C96.7458 213.838 80.2476 223.099 66.4873 221.266C55.5361 219.814 61.5831 204.161 63.2972 197.221C65.1065 189.877 73.177 160.963 56.667 165.629C45.6206 168.748 33.9314 178.449 22.2304 171.105C8.10101 162.225 11.5173 139.977 23.5516 130.967C29.7533 126.324 53.1316 121.384 52.6198 111.385C52.2984 104.946 43.0495 99.1725 40.1569 93.5303C38.8714 91.0306 37.6929 88.3166 37.5858 85.5788C37.5025 83.6505 39.1451 81.2222 38.8833 79.5319C37.6096 71.3662 26.0395 70.3187 21.3257 64.8788C13.6599 56.0345 16.8857 40.9529 22.4803 31.9777L22.528 31.9539Z" fill="#A4FFA4"/>
<path d="M57.1907 144.822C57.1907 144.822 56.7146 145.048 56.6432 145.084C56.2622 145.263 55.8456 145.417 55.5004 145.667C54.7505 146.203 53.9768 146.465 53.1078 146.774C52.6793 146.929 52.3103 147.048 51.9294 147.298C51.6675 147.465 51.3818 147.619 51.0843 147.738C50.7272 147.881 50.3701 148.048 50.0249 148.227C49.9296 148.274 49.144 148.572 49.1202 148.655C49.1083 148.703 46.7276 155.511 46.7276 155.511C46.561 155.38 46.4062 155.238 46.2396 155.107C45.9539 154.869 45.5968 154.702 45.323 154.452C44.8826 154.071 44.4421 153.69 43.9898 153.321C43.5851 152.988 43.2518 152.619 42.8233 152.321C42.6923 152.226 42.5971 152.143 42.5257 152.012C42.371 151.738 42.0139 151.476 41.7282 151.286C41.7044 151.262 41.3711 151.369 41.3354 151.381C41.0854 151.44 40.8354 151.488 40.5854 151.571C40.4188 151.631 40.276 151.643 40.1093 151.69C39.7879 151.774 39.4665 151.857 39.1451 151.917C37.1692 152.262 35.217 152.857 33.2529 153.333C33.3601 153.309 33.7053 152.738 33.7648 152.667C33.9671 152.405 34.2171 152.143 34.3599 151.869C34.4552 151.69 34.5266 151.559 34.6813 151.381C35.0623 150.941 35.3479 150.464 35.6812 150C36.1574 149.334 36.6454 148.691 37.1453 148.036C37.3953 147.703 37.6572 147.369 37.9072 147.036C37.9905 146.917 38.1452 146.774 38.1452 146.655C38.1452 146.572 38.0262 146.477 37.9905 146.405C37.931 146.274 37.8715 146.143 37.8119 146.012C37.7524 145.882 37.6929 145.763 37.6215 145.643C37.431 145.322 37.2406 145.001 37.0263 144.679C36.5859 144.001 36.3835 143.239 36.0264 142.525L35.5622 141.62C35.5622 141.62 35.4432 141.275 35.3836 141.275C35.8717 141.311 36.3835 141.358 36.9073 141.275C37.2287 141.215 37.5263 141.263 37.8357 141.275C38.5619 141.311 39.3118 141.311 40.0379 141.346C40.3712 141.358 40.6926 141.418 41.0259 141.453C41.383 141.501 41.7282 141.477 42.0972 141.489C42.5495 141.489 43.0137 141.537 43.4661 141.549C43.5137 141.549 43.847 141.239 43.8946 141.203C44.1684 140.977 44.4302 140.727 44.7278 140.537C44.8945 140.43 45.0373 140.311 45.1683 140.168C45.442 139.894 45.7277 139.608 46.0372 139.358C46.1681 139.239 46.3348 139.156 46.4538 139.037C47.5251 138.037 48.775 137.204 49.9296 136.264C50.013 136.192 50.1082 136.121 50.1915 136.049C50.1201 136.168 50.1796 136.335 50.1915 136.442C50.2153 136.668 50.1915 136.906 50.2153 137.133C50.2391 137.287 50.2272 137.43 50.2153 137.585C50.2153 138.085 50.2391 138.549 50.2867 139.025C50.3462 139.561 50.382 140.12 50.3462 140.68C50.3462 140.906 50.3105 141.132 50.3105 141.346C50.3105 141.442 50.3462 141.525 50.3105 141.632C50.2867 141.703 50.2272 141.775 50.2034 141.858C50.1796 141.93 50.1201 142.62 50.2034 142.644L57.2026 144.846L57.1907 144.822Z" fill="#FEFEFE"/>
<path d="M56.9527 143.953C56.167 144.179 55.429 144.679 54.7386 145.096C53.7149 145.703 52.5365 145.941 51.489 146.512C50.382 147.119 48.6322 147.393 48.1679 148.679C47.3704 150.857 46.6324 153.059 45.8706 155.25L47.3585 154.857C46.2634 153.928 45.1207 153.083 44.0375 152.143C43.3114 151.512 42.5376 150.322 41.4901 150.381C40.4426 150.441 39.2523 150.929 38.2167 151.143C36.4669 151.5 34.7409 152 33.003 152.428L33.8719 153.916C34.6219 153.309 35.1456 152.214 35.7051 151.452C36.6811 150.131 37.7763 148.81 38.669 147.441C39.3475 146.393 38.5619 145.465 37.9786 144.525C37.2525 143.346 36.8835 141.965 36.1336 140.799L35.3599 142.144C36.9073 142.251 38.4548 142.096 40.0141 142.203C40.7045 142.251 41.3711 142.322 42.0615 142.346C42.7519 142.37 43.4899 142.56 44.097 142.132C45.1088 141.43 46.0015 140.513 46.9419 139.716C48.1918 138.656 49.513 137.692 50.7867 136.644L49.2988 135.776C49.0012 137.704 49.5964 139.716 49.3226 141.644C49.144 142.858 49.4892 143.334 50.5724 143.668C52.6912 144.334 54.822 145.001 56.9408 145.667C58.0359 146.012 58.512 144.286 57.4169 143.941C55.0838 143.203 52.7508 142.477 50.4177 141.739L51.0367 142.358C50.9534 142.144 51.1557 141.799 51.1795 141.584C51.2747 140.954 51.239 140.227 51.2033 139.597C51.1438 138.585 50.8938 136.978 51.0129 136.24C51.1557 135.347 50.2391 134.788 49.5249 135.371C48.3941 136.299 47.1919 137.133 46.0849 138.085C45.5968 138.501 45.1088 138.906 44.6445 139.347C44.2755 139.692 43.6923 140.311 43.228 140.513C42.8352 140.692 42.1805 140.549 41.7044 140.537C40.9902 140.513 40.2879 140.418 39.5737 140.382C38.1691 140.323 36.7526 140.43 35.3599 140.335C34.6933 140.287 34.2409 141.132 34.5861 141.68C35.1218 142.513 35.4313 143.489 35.8479 144.382C36.2645 145.274 36.8835 146.143 37.3477 147.048V146.143C37.0859 146.762 36.5145 147.31 36.1098 147.846C35.6098 148.5 35.1218 149.167 34.6576 149.833C34.0624 150.679 33.4196 151.976 32.6102 152.631C31.8841 153.226 32.6816 154.321 33.4791 154.119C36.0503 153.488 38.6333 152.928 41.1925 152.262C41.7758 152.107 41.6092 152.214 41.9425 152.655C42.2281 153.024 42.7043 153.321 43.0614 153.643C44.0375 154.5 45.1088 155.25 46.0968 156.095C46.6205 156.547 47.3585 156.368 47.5847 155.702C48.2989 153.654 49.0131 151.595 49.7392 149.548C49.7987 149.381 49.8701 149.214 49.9177 149.048C50.0368 148.607 49.8463 149.274 49.7987 149.25C50.0011 149.393 51.9175 148.31 52.1199 148.203C53.096 147.679 54.1554 147.381 55.1434 146.893C55.8933 146.512 56.6075 145.905 57.4288 145.667C58.5358 145.346 58.0597 143.62 56.9527 143.941V143.953Z" fill="#060606"/>
<path d="M148.228 36.7152C148.323 36.5961 151.942 31.9657 152.037 31.8467C154.561 36.0129 157.929 42.286 159.489 46.9521C161.393 52.6539 163.298 58.3437 165.25 64.0216C166.952 68.9735 168.678 73.9134 170.488 78.8176C171.321 81.0792 172.178 83.329 173.059 85.5668C173.451 86.5786 173.856 87.5904 174.273 88.5903C174.451 89.0188 175.07 91.2686 175.451 91.3995C185.343 94.9586 195.651 98.2559 205.936 100.101C207.971 100.47 209.674 101.744 211.638 102.196C212.257 102.339 212.864 102.232 213.483 102.291C214.518 102.386 215.554 102.743 216.566 102.993C217.911 103.327 236.909 109.624 236.849 109.671C230.755 114.825 228.052 116.778 225.112 118.992C211.328 129.395 200.746 140.846 188.033 152.333C187.724 152.607 188.128 155.368 188.14 155.857C188.188 157.166 188.14 158.535 188.295 159.832C188.402 160.725 188.676 161.475 188.64 162.391C188.545 165.058 188.343 167.617 188.712 170.272C188.962 172.057 189.378 173.771 189.39 175.58C189.45 180.854 189.747 186.103 189.985 191.364C190.211 196.138 190.39 200.923 190.331 205.708C190.319 206.648 190.259 207.553 190.509 208.47C190.735 209.279 190.89 209.981 190.926 210.838C191.033 213.076 191.116 215.397 190.533 217.588C190.438 217.969 190.295 218.469 189.819 218.54C189.069 218.647 187.747 217.623 187.188 217.266L187.069 217.195C183.272 214.743 179.713 211.838 176.034 209.208C174.844 208.351 173.594 207.732 172.261 207.136C168.642 205.506 165.405 202.923 162.203 200.625C153.93 194.709 145.609 188.841 137.206 183.127C129.076 186.829 120.862 190.353 112.637 193.852C110.113 194.924 107.566 195.959 105.007 196.947C100.567 198.673 96.0792 200.28 91.5678 201.839C90.0561 202.363 88.4491 202.423 86.9612 202.958C84.8305 203.72 82.7831 204.768 80.6643 205.565C79.7715 205.898 78.9145 206.196 77.9622 206.244C77.1885 206.279 76.5219 206.47 76.6528 205.494C76.9385 203.399 77.6646 201.316 77.9979 199.221C78.2598 197.566 78.6288 195.971 79.0335 194.352C79.8668 191.103 81.1285 188.02 81.7118 184.687C84.3067 170.105 89.4014 156.416 93.4724 141.965C94.5199 137.978 82.7712 127.3 80.2001 124.598C74.665 118.765 69.606 113.147 65.0827 106.505C60.9879 100.482 54.691 94.9229 52.6555 87.6618C55.0957 86.9952 58.393 87.3761 60.9522 87.15C63.8448 86.8881 66.7373 86.7095 69.6417 86.5786C75.6767 86.3048 81.7118 86.2453 87.7468 86.2334C93.0319 86.2215 98.3171 86.2572 103.602 86.2096C106.03 86.1858 108.447 86.1501 110.875 86.0787C111.994 86.043 113.113 85.9953 114.232 85.9477C114.625 85.9239 117.065 86.0549 117.243 85.7573C118.089 84.3527 119.16 83.0552 119.434 81.4601C119.553 80.7697 120.041 80.2222 120.35 79.6032C121.362 77.5915 122.302 75.6632 123.529 73.7705C126.004 69.9614 128.492 66.2 131.171 62.5337C133.385 59.5102 135.408 56.4868 137.384 53.3205C140.658 48.071 144.3 41.8575 148.169 36.739L148.228 36.7152Z" fill="#00CE22"/>
<path d="M149.002 37.1676C148.799 37.4414 149.145 36.9891 149.168 36.9534C149.347 36.7272 149.526 36.4891 149.704 36.263C150.121 35.7273 150.537 35.2036 150.954 34.6679C151.573 33.8704 152.204 33.0847 152.811 32.2872H151.263C153.739 36.4058 156.084 40.6791 157.882 45.1548C159.905 50.2138 161.417 55.5227 163.167 60.6769C166.583 70.7472 170.19 80.7341 174.035 90.6497C174.237 91.1615 174.439 91.7567 174.904 92.09C175.832 92.7685 177.38 93.0304 178.463 93.4113C181.189 94.3636 183.938 95.292 186.7 96.1491C192.116 97.8513 197.603 99.3511 203.174 100.47C204.388 100.72 205.662 100.863 206.841 101.256C208.019 101.648 209.126 102.267 210.304 102.708C211.316 103.077 212.209 103.101 213.268 103.172C214.328 103.244 215.411 103.589 216.447 103.886C218.244 104.386 220.006 105.005 221.779 105.588C224.886 106.6 227.993 107.624 231.1 108.66C232.361 109.076 233.623 109.505 234.885 109.933C235.266 110.064 235.647 110.183 236.016 110.326C236.385 110.469 236.754 110.778 236.23 110.326V109.064C232.576 112.159 228.826 115.123 224.993 118.004C219.541 122.11 214.34 126.55 209.305 131.157C204.246 135.787 199.329 140.585 194.342 145.298C193.14 146.441 191.926 147.572 190.711 148.703C190.033 149.334 189.343 149.964 188.652 150.595C188.212 151 187.474 151.464 187.212 152C186.867 152.69 187.033 153.631 187.105 154.357C187.212 155.535 187.259 156.69 187.283 157.88C187.319 159.594 187.771 161.285 187.724 162.987C187.676 164.689 187.545 166.534 187.64 168.32C187.724 169.962 188.045 171.557 188.283 173.176C188.581 175.14 188.521 177.14 188.581 179.116C188.783 186.46 189.331 193.793 189.438 201.149C189.462 202.863 189.438 204.589 189.438 206.303C189.438 208.017 189.997 209.648 190.081 211.386C190.164 213.124 190.2 214.719 189.926 216.362C189.878 216.624 189.842 217.516 189.521 217.635C189.414 217.671 188.807 217.278 188.759 217.243C188.343 217.005 187.962 216.719 187.569 216.445C184.617 214.481 181.796 212.35 178.951 210.231C177.57 209.208 176.213 208.148 174.701 207.327C173.19 206.506 171.678 205.911 170.226 205.065C167.262 203.327 164.548 201.185 161.75 199.185C158.727 197.019 155.692 194.876 152.656 192.733C149.621 190.591 146.574 188.46 143.514 186.353C142.062 185.353 140.622 184.353 139.158 183.365C138.634 183.008 137.932 182.306 137.253 182.258C136.575 182.211 135.789 182.842 135.206 183.104C121.517 189.293 107.721 195.293 93.5438 200.256C90.3418 201.375 87.0564 201.923 83.9258 203.268C82.3665 203.946 80.7952 204.744 79.1406 205.173C78.7359 205.28 78.2598 205.411 77.8432 205.375C77.2242 205.327 77.6408 205.553 77.6408 205.232C77.6408 204.387 78.0098 203.447 78.2122 202.625C79.0454 199.245 79.5454 195.816 80.5571 192.472C81.5689 189.127 82.4617 185.675 83.164 182.163C84.6043 174.95 86.6398 167.867 88.7824 160.832C89.8299 157.38 90.9131 153.94 91.9606 150.5C92.4606 148.857 92.9605 147.203 93.4486 145.56C93.8176 144.287 94.4603 142.87 94.508 141.537C94.6032 138.347 91.4012 135.073 89.4728 132.859C86.9374 129.943 84.1282 127.277 81.4142 124.527C76.9147 119.992 72.6176 115.147 68.7728 110.052C66.9277 107.6 65.2493 105.029 63.3448 102.625C61.4403 100.22 59.4524 97.9227 57.6788 95.4349C55.9052 92.9471 54.441 90.364 53.584 87.4596L52.965 88.5547C54.822 88.1024 56.7265 88.1738 58.6191 88.1619C60.7856 88.15 62.9282 87.9 65.0827 87.7572C69.5465 87.4596 74.0103 87.3167 78.474 87.2334C87.2469 87.0787 96.0197 87.2096 104.793 87.1144C108.447 87.0787 112.089 86.8882 115.732 86.8644C116.613 86.8644 117.458 86.8882 118.089 86.2216C119.208 85.0313 119.91 83.2339 120.374 81.7102C120.91 79.9723 122.088 78.2225 122.957 76.6156C124.028 74.6396 125.314 72.7827 126.552 70.9019C128.945 67.2952 131.492 63.8075 133.968 60.2603C139.217 52.7135 143.502 44.5358 149.026 37.1914C149.716 36.2749 148.169 35.3821 147.478 36.2868C142.622 42.7622 138.753 49.8805 134.289 56.6059C129.754 63.4385 124.409 69.8425 120.648 77.175C119.874 78.6749 119.053 80.1033 118.541 81.6983C118.267 82.5554 117.815 83.3053 117.339 84.0671C116.827 84.8646 116.934 85.0313 116.041 85.067C112.577 85.1741 109.102 85.2693 105.626 85.3051C96.9601 85.4122 88.2944 85.2812 79.6287 85.4122C74.7721 85.4836 69.9155 85.6265 65.0708 85.9598C62.9163 86.1026 60.7737 86.3526 58.6072 86.3645C56.548 86.3764 54.4887 86.3288 52.477 86.8287C52.0127 86.9358 51.7152 87.4715 51.858 87.9238C53.6435 93.9827 57.9406 98.6845 61.7855 103.517C63.9162 106.196 65.7731 109.076 67.8681 111.802C70.0821 114.671 72.4271 117.432 74.8554 120.123C77.9503 123.551 81.2237 126.788 84.4615 130.086C86.1041 131.764 87.7111 133.478 89.2109 135.288C90.437 136.775 91.794 138.442 92.4725 140.275C92.7582 141.037 92.7582 141.525 92.5439 142.311C92.032 144.156 91.4726 145.989 90.925 147.822C89.8061 151.548 88.6396 155.273 87.4968 158.987C85.259 166.284 83.1045 173.628 81.5808 181.116C81.1999 182.961 80.9262 184.83 80.4619 186.651C79.9977 188.472 79.343 190.377 78.7835 192.245C77.7122 195.828 77.1052 199.53 76.2719 203.173C76.0577 204.125 75.4268 205.72 76.0934 206.613C76.6885 207.41 77.9027 207.184 78.7478 207.053C82.3665 206.518 85.4733 204.077 89.0562 203.351C93.1748 202.518 97.1148 200.887 101.055 199.435C105.126 197.923 109.173 196.328 113.173 194.626C121.398 191.138 129.599 187.603 137.741 183.901H136.837C142.979 188.079 149.073 192.329 155.144 196.626C158.013 198.661 160.881 200.685 163.726 202.768C166.333 204.673 168.964 206.529 171.892 207.91C177.749 210.672 182.355 215.445 187.89 218.754C188.64 219.207 189.569 219.683 190.426 219.278C191.426 218.814 191.568 217.516 191.723 216.552C191.961 215.088 191.985 213.624 191.937 212.148C191.89 210.493 191.449 209.005 191.283 207.387C191.116 205.768 191.295 203.958 191.283 202.28C191.271 200.364 191.211 198.459 191.152 196.543C191.021 192.876 190.83 189.198 190.664 185.532C190.497 181.866 190.592 178.152 190.295 174.509C190.164 172.89 189.783 171.319 189.592 169.712C189.39 167.939 189.438 166.153 189.509 164.38C189.581 162.737 189.45 161.32 189.247 159.701C189.057 158.249 189.176 156.785 189.057 155.333C188.997 154.678 188.616 153.369 188.89 152.762C189.104 152.298 190.426 151.44 190.807 151.071C191.485 150.441 192.176 149.81 192.854 149.179C197.83 144.548 202.698 139.799 207.662 135.145C213.352 129.824 219.196 124.646 225.41 119.932C229.528 116.802 233.599 113.647 237.551 110.302C237.908 110.005 237.897 109.338 237.551 109.04C236.623 108.231 234.718 107.969 233.599 107.588C230.909 106.684 228.207 105.791 225.505 104.898C223.124 104.112 220.744 103.327 218.351 102.577C217.696 102.363 217.03 102.172 216.363 101.994C215.268 101.696 214.221 101.434 213.09 101.375C211.673 101.291 210.626 100.922 209.328 100.339C206.983 99.2797 204.531 98.9464 202.032 98.3988C199.306 97.8156 196.604 97.1371 193.913 96.399C188.331 94.8635 182.831 93.0542 177.38 91.1139C176.987 90.9711 176.296 90.8521 176.023 90.614C175.785 90.3997 175.701 89.8403 175.594 89.5427C175.308 88.7094 175.011 87.9 174.677 87.0906C173.642 84.5313 172.654 81.9483 171.702 79.3533C169.714 74.0087 167.833 68.6284 165.988 63.2242C163.953 57.2606 162.155 51.1779 159.905 45.2977C158.048 40.4411 155.537 35.8225 152.87 31.3826C152.49 30.7517 151.728 30.8707 151.323 31.3826C151.525 31.1088 151.18 31.5611 151.156 31.5968C150.978 31.823 150.799 32.0611 150.621 32.2872C150.204 32.8229 149.787 33.3466 149.371 33.8823C148.752 34.6798 148.133 35.4654 147.514 36.263C146.812 37.1676 148.359 38.0604 149.061 37.1676H149.002Z" fill="#060606"/>
<path d="M189.914 80.5558C194.532 78.2703 198.306 74.7112 202.484 71.7711C203.412 71.1164 202.52 69.5689 201.579 70.2236C197.401 73.1638 193.616 76.7229 189.009 79.0083C187.974 79.5202 188.878 81.0557 189.914 80.5558Z" fill="#060606"/>
<path d="M182.474 74.6159C181.689 72.0447 180.891 69.4736 180.236 66.8667C179.939 65.6883 179.725 64.4742 179.403 63.3076C179.117 62.2363 178.748 61.1531 178.844 60.0342C178.939 58.9153 177.165 58.8914 177.058 60.0342C176.951 61.1769 177.284 62.3434 177.594 63.4505C177.927 64.6527 178.153 65.8669 178.451 67.081C179.117 69.7831 179.939 72.4375 180.76 75.1039C181.093 76.199 182.819 75.7348 182.486 74.6278L182.474 74.6159Z" fill="#060606"/>
<path d="M191.116 89.8999C191.771 90.2094 192.461 90.4355 193.128 90.7212L192.914 90.626C193.187 90.745 193.461 90.864 193.735 90.995C193.949 91.1021 194.187 91.1497 194.425 91.0902C194.628 91.0307 194.854 90.8759 194.961 90.6855C195.175 90.2808 195.092 89.6856 194.64 89.4594C193.783 89.0428 192.89 88.7333 192.021 88.3643L192.235 88.4596C192.164 88.4357 192.092 88.4 192.021 88.3643C191.807 88.2572 191.58 88.2096 191.33 88.2691C191.128 88.3286 190.902 88.4834 190.795 88.6738C190.58 89.0666 190.664 89.6856 191.116 89.8999Z" fill="#060606"/>
<path d="M158.798 113.35C158.572 113.219 158.334 113.111 158.084 113.052C157.87 113.004 157.644 112.969 157.429 112.992C157.156 113.028 156.906 113.076 156.656 113.219C156.406 113.361 156.263 113.54 156.096 113.754C155.858 114.076 155.775 114.468 155.727 114.849C155.692 115.159 155.727 115.492 155.846 115.79C155.942 116.052 156.049 116.23 156.227 116.444C156.334 116.575 156.489 116.694 156.644 116.766C156.882 116.885 157.12 116.956 157.382 116.956C157.679 116.956 157.918 116.873 158.191 116.754C158.715 116.528 159.144 116.052 159.286 115.492C159.37 115.183 159.358 114.885 159.286 114.564C159.263 114.445 159.215 114.338 159.167 114.23C159.12 114.123 159.072 114.016 159.013 113.921C158.834 113.659 158.644 113.469 158.382 113.29C158.12 113.111 157.834 113.04 157.525 113.004C157.215 112.969 156.906 113.064 156.62 113.183C156.37 113.29 156.144 113.48 155.965 113.695C155.834 113.849 155.715 114.016 155.608 114.183C155.442 114.457 155.442 114.814 155.608 115.087C155.799 115.409 156.12 115.623 156.346 115.909L156.203 115.73C156.203 115.73 156.251 115.802 156.275 115.849L156.18 115.635C156.18 115.635 156.203 115.683 156.203 115.718L156.168 115.48C156.18 115.73 156.251 115.956 156.43 116.123C156.584 116.278 156.834 116.397 157.06 116.385C157.287 116.373 157.537 116.302 157.691 116.123C157.846 115.944 157.965 115.73 157.953 115.492C157.941 115.266 157.894 115.076 157.775 114.885C157.691 114.754 157.584 114.623 157.465 114.504C157.322 114.361 157.168 114.23 157.049 114.076L157.191 114.254C157.191 114.254 157.168 114.218 157.144 114.195V115.099C157.191 115.016 157.239 114.945 157.299 114.873L157.156 115.052C157.239 114.945 157.334 114.837 157.453 114.754L157.275 114.897C157.358 114.837 157.429 114.79 157.525 114.754L157.31 114.849C157.382 114.814 157.465 114.802 157.537 114.79L157.299 114.826C157.37 114.826 157.453 114.826 157.525 114.826L157.287 114.79C157.37 114.79 157.441 114.826 157.513 114.849L157.299 114.754C157.382 114.79 157.453 114.837 157.525 114.885L157.346 114.742C157.418 114.802 157.489 114.873 157.549 114.945L157.406 114.766C157.477 114.849 157.525 114.945 157.572 115.052L157.477 114.837C157.513 114.933 157.549 115.028 157.56 115.135L157.525 114.897C157.525 114.992 157.525 115.076 157.525 115.171L157.56 114.933C157.549 115.016 157.525 115.099 157.489 115.171L157.584 114.956C157.549 115.028 157.513 115.099 157.465 115.171L157.608 114.992C157.549 115.064 157.477 115.135 157.406 115.195L157.584 115.052C157.489 115.123 157.382 115.183 157.263 115.23L157.477 115.135C157.394 115.171 157.31 115.195 157.215 115.206L157.453 115.171C157.382 115.171 157.322 115.171 157.251 115.171L157.489 115.206C157.489 115.206 157.382 115.183 157.334 115.159L157.549 115.254C157.549 115.254 157.453 115.206 157.406 115.171L157.584 115.314C157.584 115.314 157.489 115.23 157.453 115.183L157.596 115.361C157.549 115.29 157.501 115.218 157.465 115.147L157.56 115.361C157.513 115.254 157.489 115.135 157.465 115.016L157.501 115.254C157.477 115.111 157.477 114.968 157.501 114.826L157.465 115.064C157.477 114.933 157.513 114.814 157.56 114.695L157.465 114.909C157.501 114.826 157.549 114.742 157.608 114.659L157.465 114.837C157.513 114.778 157.56 114.718 157.632 114.671L157.453 114.814C157.453 114.814 157.572 114.742 157.632 114.707L157.418 114.802C157.489 114.778 157.56 114.754 157.632 114.742L157.394 114.778C157.489 114.778 157.584 114.778 157.668 114.778L157.429 114.742C157.572 114.766 157.703 114.802 157.834 114.861L157.62 114.766C157.703 114.802 157.775 114.837 157.858 114.885C158.06 115.004 158.322 115.04 158.548 114.98C158.751 114.921 158.977 114.766 159.084 114.576C159.31 114.159 159.203 113.6 158.763 113.35H158.798Z" fill="#060606"/>
<path d="M134.087 109.398C133.861 109.267 133.623 109.16 133.373 109.1C133.158 109.052 132.932 109.017 132.718 109.041C132.444 109.076 132.194 109.124 131.944 109.267C131.694 109.41 131.551 109.588 131.385 109.802C131.147 110.124 131.063 110.517 131.016 110.897C130.98 111.207 131.016 111.54 131.135 111.838C131.23 112.1 131.337 112.278 131.516 112.493C131.623 112.623 131.778 112.742 131.932 112.814C132.17 112.933 132.408 113.004 132.67 113.004C132.968 113.004 133.206 112.921 133.48 112.802C134.004 112.576 134.432 112.1 134.575 111.54C134.658 111.231 134.646 110.933 134.575 110.612C134.551 110.493 134.503 110.386 134.456 110.278C134.408 110.171 134.361 110.064 134.301 109.969C134.123 109.707 133.932 109.517 133.67 109.338C133.408 109.16 133.123 109.088 132.813 109.052C132.504 109.017 132.194 109.112 131.909 109.231C131.659 109.338 131.432 109.529 131.254 109.743C131.123 109.898 131.004 110.064 130.897 110.231C130.73 110.505 130.73 110.862 130.897 111.136C131.087 111.457 131.409 111.671 131.635 111.957L131.492 111.778C131.492 111.778 131.54 111.85 131.563 111.897L131.468 111.683C131.468 111.683 131.492 111.731 131.492 111.766L131.456 111.528C131.468 111.778 131.54 112.004 131.718 112.171C131.873 112.326 132.123 112.445 132.349 112.433C132.575 112.421 132.825 112.35 132.98 112.171C133.135 111.993 133.254 111.778 133.242 111.54C133.23 111.314 133.182 111.124 133.063 110.933C132.98 110.802 132.873 110.671 132.754 110.552C132.611 110.409 132.456 110.278 132.337 110.124L132.48 110.302C132.48 110.302 132.456 110.267 132.432 110.243V111.147C132.48 111.064 132.528 110.993 132.587 110.921L132.444 111.1C132.528 110.993 132.623 110.886 132.742 110.802L132.563 110.945C132.647 110.886 132.718 110.838 132.813 110.802L132.599 110.897C132.67 110.862 132.754 110.85 132.825 110.838L132.587 110.874C132.658 110.874 132.742 110.874 132.813 110.874L132.575 110.838C132.658 110.838 132.73 110.874 132.801 110.897L132.587 110.802C132.67 110.838 132.742 110.886 132.813 110.933L132.635 110.79C132.706 110.85 132.777 110.921 132.837 110.993L132.694 110.814C132.766 110.897 132.813 110.993 132.861 111.1L132.766 110.886C132.801 110.981 132.837 111.076 132.849 111.183L132.813 110.945C132.813 111.04 132.813 111.124 132.813 111.219L132.849 110.981C132.837 111.064 132.813 111.147 132.777 111.219L132.873 111.005C132.837 111.076 132.801 111.147 132.754 111.219L132.897 111.04C132.837 111.112 132.766 111.183 132.694 111.243L132.873 111.1C132.777 111.171 132.67 111.231 132.551 111.278L132.766 111.183C132.682 111.219 132.599 111.243 132.504 111.255L132.742 111.219C132.67 111.219 132.611 111.219 132.539 111.219L132.777 111.255C132.777 111.255 132.67 111.231 132.623 111.207L132.837 111.302C132.837 111.302 132.742 111.255 132.694 111.219L132.873 111.362C132.873 111.362 132.777 111.278 132.742 111.231L132.885 111.409C132.837 111.338 132.789 111.266 132.754 111.195L132.849 111.409C132.801 111.302 132.777 111.183 132.754 111.064L132.789 111.302C132.766 111.159 132.766 111.017 132.789 110.874L132.754 111.112C132.766 110.981 132.801 110.862 132.849 110.743L132.754 110.957C132.789 110.874 132.837 110.79 132.897 110.707L132.754 110.886C132.801 110.826 132.849 110.767 132.92 110.719L132.742 110.862C132.742 110.862 132.861 110.79 132.92 110.755L132.706 110.85C132.777 110.826 132.849 110.802 132.92 110.79L132.682 110.826C132.777 110.826 132.873 110.826 132.956 110.826L132.718 110.79C132.861 110.814 132.992 110.85 133.123 110.909L132.908 110.814C132.992 110.85 133.063 110.886 133.146 110.933C133.349 111.052 133.611 111.088 133.837 111.028C134.039 110.969 134.265 110.814 134.373 110.624C134.599 110.207 134.492 109.648 134.051 109.398H134.087Z" fill="#060606"/>
<path d="M208.388 117.254C203.639 123.967 199.187 131.574 197.818 139.799C197.151 143.775 197.282 147.893 198.841 151.655C200.258 155.095 202.924 158.666 206.388 160.237C209.65 161.713 213.459 161.904 216.97 161.654C220.863 161.38 224.755 160.523 228.35 159.011C231.897 157.511 234.778 155.309 236.742 151.928C238.289 149.25 238.266 146.167 234.873 145.191C231.409 144.191 227.207 145.132 223.839 146.12C219.589 147.369 215.471 149.334 211.947 152.036C207.483 155.452 202.032 162.499 205.138 168.45C207.221 172.45 212.578 173.688 216.53 174.866C220.482 176.045 226.16 177.271 227.707 181.568C228.636 184.151 227.874 187.234 226.469 189.484C224.481 192.662 221.029 195.864 217.256 196.614C215.209 197.019 213.423 196.352 212.102 194.745C210.281 192.531 211.078 190.281 213.102 188.567C217.804 184.556 224.243 184.508 229.886 186.175C232.861 187.055 235.718 188.293 238.563 189.519C239.611 189.972 240.515 188.436 239.468 187.972C234.242 185.722 228.79 183.246 222.993 183.27C218.542 183.294 213.197 185.079 210.435 188.793C207.948 192.138 209.9 196.59 213.602 198.066C216.875 199.375 220.494 197.661 223.101 195.685C227.552 192.305 231.814 186.008 229.1 180.271C227.136 176.128 222.017 174.664 217.994 173.438C214.316 172.319 208.531 171.331 206.65 167.462C205.543 165.201 206.269 162.368 207.269 160.201C209.15 156.095 212.971 153.119 216.828 150.964C220.684 148.81 224.636 147.429 228.85 146.834C231.159 146.512 237.349 145.882 235.73 149.941C232.754 157.428 222.684 159.725 215.518 159.928C212.268 160.023 208.388 159.773 205.662 157.773C202.21 155.238 199.96 151.095 199.377 146.893C198.199 138.359 202.52 129.693 206.9 122.682C207.864 121.146 208.876 119.634 209.924 118.147C210.59 117.206 209.043 116.313 208.376 117.242L208.388 117.254Z" fill="#060606"/>
<path d="M128.278 232.134C131.837 229.682 135.932 228.968 137.634 234.265C135.587 234.431 132.825 235.157 130.992 236.193C129.052 237.288 127.837 238.824 127.254 240.954C125.933 240.026 124.29 238.228 123.6 236.752C124.743 235.145 126.433 233.407 128.266 232.134H128.278Z" fill="#00CE22"/>
<path d="M128.73 232.896C130.087 231.967 131.73 231.051 133.444 231.158C135.277 231.277 136.253 232.919 136.777 234.491L137.634 233.36C135.206 233.574 132.682 234.205 130.551 235.407C128.421 236.609 127.052 238.419 126.409 240.692L127.718 240.157C126.35 239.181 125.124 237.8 124.386 236.276V237.181C125.576 235.526 127.076 234.062 128.742 232.884C129.671 232.229 128.79 230.682 127.838 231.336C125.909 232.693 124.219 234.348 122.85 236.276C122.66 236.538 122.719 236.907 122.85 237.181C123.719 238.978 125.219 240.549 126.826 241.704C127.302 242.049 127.992 241.68 128.135 241.168C128.683 239.252 129.873 237.8 131.635 236.847C133.444 235.871 135.61 235.324 137.646 235.145C138.193 235.098 138.705 234.61 138.503 234.014C137.777 231.824 136.372 229.753 133.92 229.42C131.742 229.122 129.587 230.158 127.838 231.348C126.897 231.991 127.79 233.538 128.742 232.896H128.73Z" fill="#060606"/>
<path d="M192.211 33.0132C193.033 31.0491 193.64 28.847 193.794 28.1447C193.223 27.7519 192.711 27.2162 192.199 26.7163C192.056 26.5734 189.521 24.4427 189.426 24.6094C188.152 27.0615 187.236 29.6564 185.974 32.049C185.641 32.6799 185.033 33.5012 185.641 34.1321C185.867 34.3702 186.212 34.4654 186.474 34.6797C186.795 34.9416 187.033 35.1439 187.402 35.3225C188.069 35.6319 188.7 36.239 189.426 36.4176C190.402 36.6437 191.414 34.9416 192.223 33.0013L192.211 33.0132Z" fill="#00CE22"/>
<path d="M193.08 33.2514C193.723 31.6802 194.294 30.0494 194.663 28.3829C194.759 27.9663 194.592 27.6211 194.259 27.3711C193.628 26.9188 193.128 26.3236 192.545 25.8237C192.08 25.4309 191.604 25.0381 191.116 24.6571C190.711 24.3358 190.247 23.8834 189.735 23.7406C189.319 23.6215 188.902 23.8001 188.676 24.1572C188.319 24.7048 188.069 25.3714 187.795 25.9665C187.271 27.1093 186.795 28.2758 186.271 29.4185C185.807 30.4541 185.212 31.4421 184.748 32.4777C184.284 33.5133 184.522 34.5489 185.533 35.1441C186.438 35.6797 187.283 36.2987 188.2 36.8343C189.2 37.4176 190.176 37.4771 191.057 36.6677C191.937 35.8583 192.521 34.5727 192.997 33.4419C193.187 32.9895 193.128 32.4896 192.675 32.2158C192.306 31.9897 191.64 32.0968 191.449 32.5372C191.14 33.2752 190.795 34.0132 190.366 34.6917C190.211 34.9298 190.057 35.1679 189.842 35.3583C189.819 35.3821 189.509 35.5607 189.664 35.5488C189.402 35.5726 188.962 35.2155 188.759 35.0845C188.462 34.8941 188.164 34.7036 187.855 34.537C187.509 34.3584 187.247 34.1204 186.926 33.8942C186.795 33.799 186.307 33.5847 186.271 33.5133C186.152 33.2514 186.843 32.2872 186.998 31.9897C187.378 31.2397 187.724 30.466 188.069 29.6923C188.414 28.9186 188.712 28.1925 189.045 27.4545C189.223 27.0497 189.414 26.645 189.604 26.2403C189.7 26.0379 189.795 25.8356 189.89 25.6332C189.926 25.5618 190.081 25.1928 190.069 25.2047L189.438 25.4666C189.152 25.4904 188.997 25.2999 189.342 25.5261C189.497 25.6332 189.652 25.7404 189.807 25.8594C190.14 26.1213 190.497 26.4069 190.842 26.6926C191.699 27.4068 192.449 28.2401 193.354 28.8829L192.949 27.8711C192.592 29.5256 192.021 31.1683 191.366 32.7396C191.176 33.1919 191.568 33.7156 191.985 33.8347C192.497 33.9775 192.902 33.6561 193.08 33.2157V33.2514Z" fill="#060606"/>
<path d="M241.099 71.4733C240.23 71.4733 239.396 71.4376 238.551 71.6995C236.456 72.3542 234.242 73.6755 232.79 75.3776C232.219 76.0442 231.754 76.7346 231.314 77.5084C230.838 78.3654 230.255 79.1867 229.826 80.0795C229.517 80.7342 228.814 82.2578 229.064 83.0554C229.671 83.2458 230.54 82.7578 231.147 82.6268C232.028 82.4364 232.861 82.1507 233.742 81.9721C234.314 81.8531 234.814 81.746 235.385 81.6865C236.051 81.615 235.873 81.4008 235.932 80.8889C236.004 80.27 236.409 79.6867 236.718 79.1629C237.266 78.2464 237.801 77.3774 238.563 76.6632C239.492 75.7824 240.587 75.2467 241.658 74.5563C242.491 74.0207 243.229 73.5802 244.17 73.2588" fill="#FEFEFE"/>
<path d="M241.099 70.5804C240.206 70.5804 239.301 70.5685 238.444 70.8066C237.635 71.0328 236.825 71.378 236.075 71.7589C234.576 72.5207 233.159 73.5563 232.064 74.8538C230.933 76.1989 229.969 77.8296 229.171 79.4009C228.588 80.5555 227.886 81.9839 228.195 83.3052C228.267 83.5909 228.529 83.8766 228.814 83.9242C229.588 84.0789 230.243 83.8528 230.981 83.6147C231.826 83.3409 232.707 83.1386 233.564 82.9362C234.004 82.8291 234.457 82.7338 234.909 82.6624C235.278 82.6029 235.683 82.6029 236.028 82.4482C236.671 82.1625 236.694 81.6625 236.778 81.0674C236.885 80.3174 237.468 79.5913 237.861 78.9605C238.337 78.2105 238.861 77.5082 239.563 76.9488C240.301 76.3536 241.158 75.9251 241.956 75.4132C242.753 74.9014 243.491 74.4491 244.36 74.1396C245.431 73.7587 244.979 72.0327 243.884 72.4136C242.253 72.9849 240.777 73.9848 239.349 74.9133C237.885 75.8775 236.873 77.1154 235.98 78.6034C235.587 79.2461 235.159 79.9008 235.04 80.6507C235.028 80.746 234.968 81.0078 234.992 81.115C234.992 81.1745 234.992 81.2459 234.992 81.3054L235.314 80.7936C235.314 80.7936 234.147 80.9721 234.04 80.9959C233.147 81.1745 232.29 81.4245 231.421 81.6387C231.076 81.722 230.743 81.7935 230.409 81.9125C230.1 82.0196 229.636 82.2577 229.302 82.1863L229.921 82.8053C229.707 81.9125 230.552 80.5555 230.969 79.8056C231.719 78.4724 232.481 77.0559 233.492 75.9013C234.433 74.83 235.599 73.9967 236.861 73.3301C237.48 73.0087 238.123 72.735 238.789 72.5326C239.539 72.3064 240.325 72.3303 241.099 72.3422C242.253 72.3422 242.253 70.5566 241.099 70.5566V70.5804Z" fill="#060606"/>
<path d="M252.169 74.7349C252.419 75.5562 252.478 76.5204 252.335 77.6512C252.24 78.4726 248.598 84.5076 247.884 82.4364C246.931 79.6391 244.503 76.9727 241.944 75.5324C239.218 73.9969 236.421 75.0563 234.087 73.985C234.671 73.2827 235.433 72.7232 236.266 72.2947C236.73 72.0566 237.218 72.0328 237.694 71.8185C238.73 71.3305 240.087 71.2472 241.23 71.1043C242.384 70.9615 243.563 70.9972 244.717 71.0805C245.872 71.1639 247.157 71.1401 248.253 71.4495C250.359 72.0447 251.657 73.0803 252.169 74.723V74.7349Z" fill="#FEFEFE"/>
<path d="M251.312 74.9731C251.883 77.0324 251.276 78.1632 250.193 79.8178C249.776 80.4487 249.324 81.0795 248.788 81.6152C248.681 81.7223 248.3 82.0675 248.264 82.008C248.181 81.9009 248.848 82.1151 248.764 82.1866C248.788 82.1747 248.538 81.6033 248.491 81.4724C247.407 78.9131 245.443 76.7229 243.134 75.2112C241.837 74.3541 240.48 73.9256 238.944 73.7708C237.492 73.628 235.944 73.8066 234.564 73.2233L234.742 74.6279C235.873 73.3542 237.444 72.6995 239.075 72.3186C240.67 71.9496 242.408 71.8544 244.039 71.9377C246.598 72.0687 250.324 72.0091 251.324 74.9731C251.693 76.0563 253.419 75.5921 253.05 74.497C252.55 73.0209 251.55 71.902 250.157 71.2235C248.419 70.3784 246.634 70.3308 244.741 70.1998C242.706 70.0689 240.599 70.1284 238.611 70.5926C236.623 71.0569 234.814 71.8544 233.492 73.3542C233.159 73.7351 233.111 74.5208 233.671 74.7588C236.135 75.8063 238.98 74.9969 241.372 76.2348C243.765 77.4728 245.634 79.544 246.717 81.8533C247.038 82.5437 247.169 83.4364 247.979 83.6983C248.55 83.8888 249.122 83.6269 249.574 83.2817C250.728 82.4127 251.574 81.0557 252.3 79.8297C252.621 79.2821 252.978 78.6989 253.169 78.0918C253.514 76.9848 253.359 75.5921 253.05 74.497C252.74 73.4018 251.014 73.8661 251.324 74.9731H251.312Z" fill="#060606"/>
<path d="M99.9954 19.9672C104.912 21.1219 107.495 26.3237 108.768 30.7875C110.244 35.9416 110.613 41.81 109.113 46.9999C107.983 50.9399 105.257 54.4634 100.781 52.9516C97.2576 51.7613 94.5079 48.7854 91.9844 46.2024C88.6396 42.7742 85.1876 38.9532 80.5571 37.3105C77.9265 36.3821 74.2483 35.8107 72.189 38.1914C70.4511 40.2031 70.5464 43.3099 70.7963 45.7858C71.4034 51.7494 74.9268 59.558 71.1534 65.0931C68.368 69.176 62.9163 67.6404 59.4286 65.4859C55.9409 63.3314 51.9056 59.6294 50.87 55.3561C50.251 52.8207 50.013 47.238 53.8816 47.3808C56.2265 47.4761 57.2145 49.1782 56.6908 51.3447C56.2265 53.2492 55.0362 54.749 53.2507 55.5585C44.2279 59.6414 34.0743 51.7018 31.6817 43.0956C31.0984 41.0125 31.0151 38.7627 31.8126 36.7154C32.1935 35.7274 33.1815 33.5371 34.4314 34.1085C35.3837 34.5489 35.7527 36.2273 35.8241 37.1558C36.1217 41.3458 33.4553 45.6667 31.396 49.1187C30.4913 50.6424 29.5272 52.1184 28.6106 53.6301C28.0154 54.6181 29.5629 55.5109 30.1581 54.5348C32.5625 50.5471 35.2408 46.6785 36.7645 42.2385C37.4548 40.2269 37.931 37.9771 37.4429 35.8702C37.0382 34.049 35.4789 31.5136 33.2767 32.2516C31.146 32.9658 29.9795 35.9773 29.6343 37.989C29.2177 40.3578 29.5986 42.798 30.4675 45.0239C32.3007 49.7615 36.0264 53.9753 40.4664 56.4512C44.585 58.7486 50.0487 59.1295 54.3339 57.0226C57.4764 55.4751 60.3451 50.4043 57.7026 47.2261C56.4884 45.762 54.1553 45.262 52.3698 45.7739C50.5843 46.2857 49.632 47.7498 49.1559 49.3806C48.0013 53.3563 49.2868 57.6178 51.7032 60.8198C54.6553 64.7241 59.2381 68.4975 64.1899 69.3307C68.8085 70.1045 72.7128 67.6285 73.9984 63.1648C75.0578 59.4747 74.4388 55.7132 73.6889 52.047C73.0104 48.7378 72.0343 45.0716 72.6176 41.6791C72.8437 40.3816 73.3794 39.1199 74.6649 38.5842C76.4505 37.8581 78.8073 38.5247 80.4976 39.1913C86.0446 41.4053 89.6752 46.7738 93.9723 50.6424C97.9242 54.2015 104.233 57.5821 108.423 52.4636C112.066 48.0117 112.244 41.0482 111.577 35.6321C110.911 30.2161 108.911 23.3597 104.031 19.872C102.971 19.1221 101.769 18.5745 100.507 18.277C99.3884 18.0151 98.9122 19.7411 100.031 20.003L99.9954 19.9672Z" fill="#060606"/>
<path d="M149.145 112.588C147.454 112.076 145.716 111.552 143.967 111.314C142.836 111.171 141.705 111.064 140.574 110.957C140.158 110.921 139.848 111.267 139.717 111.612C139.253 112.826 138.777 114.064 138.479 115.338C138.134 116.837 137.598 118.278 137.396 119.813C137.336 120.278 137.503 120.777 138.015 120.908C139.17 121.194 140.3 121.563 141.443 121.873C143.217 122.349 145.05 122.444 146.823 122.872C147.942 123.146 148.419 121.42 147.3 121.146C145.526 120.718 143.681 120.623 141.919 120.147C140.777 119.837 139.646 119.468 138.491 119.182L139.11 120.278C139.324 118.742 139.86 117.302 140.193 115.802C140.491 114.528 140.967 113.29 141.431 112.076L140.574 112.731C141.681 112.838 142.776 112.933 143.883 113.076C143.705 113.052 143.967 113.088 144.026 113.1C144.181 113.124 144.336 113.159 144.49 113.195C144.907 113.278 145.324 113.385 145.728 113.481C146.716 113.731 147.704 113.993 148.669 114.29C149.776 114.623 150.24 112.909 149.145 112.564V112.588Z" fill="#060606"/>
<path d="M148.359 131.847C149.43 131.943 150.752 132.478 151.942 132.597L151.049 131.705C150.656 134.919 149.228 137.49 147.3 140.025C145.764 142.049 143.848 144.013 141.193 144.275C136.229 144.786 133.325 140.644 132.242 136.335C131.659 133.99 131.492 131.538 131.718 129.133L130.825 130.026C136.706 129.824 142.491 131.562 148.347 131.836C149.502 131.895 149.49 130.11 148.347 130.05C142.491 129.776 136.717 128.038 130.825 128.241C130.313 128.265 129.98 128.634 129.933 129.133C129.48 133.907 130.397 139.656 133.801 143.275C135.587 145.179 138.122 146.179 140.729 146.084C143.729 145.965 146.109 144.263 147.978 142.013C149.097 140.656 150.228 139.18 151.073 137.621C152.061 135.776 152.585 133.764 152.835 131.693C152.894 131.181 152.37 130.836 151.942 130.8C150.894 130.705 149.549 130.169 148.359 130.05C147.169 129.931 147.228 131.728 148.359 131.836V131.847Z" fill="#060606"/>
<path d="M183.034 84.9479C183.046 84.8527 183.081 84.7574 183.117 84.6622L183.022 84.8765C183.058 84.7812 183.117 84.6979 183.177 84.6146L183.034 84.7931C183.081 84.7217 183.153 84.6622 183.212 84.6146L183.034 84.7574C183.034 84.7574 183.141 84.686 183.2 84.6503L182.986 84.7455C182.986 84.7455 183.093 84.7098 183.141 84.6979L182.903 84.7336C182.903 84.7336 182.998 84.7336 183.034 84.7336L182.796 84.6979C182.796 84.6979 182.879 84.7098 182.915 84.7336L182.7 84.6384C182.7 84.6384 182.784 84.6741 182.819 84.6979L182.641 84.5551C182.641 84.5551 182.724 84.6265 182.76 84.6741L182.617 84.4956C182.665 84.5551 182.7 84.6265 182.736 84.7098L182.641 84.4956C182.689 84.6146 182.724 84.7336 182.736 84.8527L182.7 84.6146C182.7 84.686 182.7 84.7693 182.7 84.8408L182.736 84.6027C182.736 84.6622 182.712 84.7336 182.689 84.7931L182.784 84.5789C182.784 84.5789 182.724 84.686 182.689 84.7336L182.831 84.5551C182.831 84.5551 182.748 84.6503 182.7 84.686L182.879 84.5432C182.879 84.5432 182.772 84.6146 182.712 84.6384L182.927 84.5432C182.855 84.567 182.784 84.5908 182.712 84.6027L182.95 84.567C182.891 84.567 182.819 84.567 182.76 84.567L182.998 84.6027C182.939 84.6027 182.879 84.5789 182.819 84.5551L183.034 84.6503C183.034 84.6503 182.939 84.6027 182.891 84.567L183.069 84.7098C183.069 84.7098 182.986 84.6384 182.962 84.5908L183.105 84.7693C183.105 84.7693 183.034 84.6622 183.01 84.6027L183.105 84.8169C183.069 84.7455 183.058 84.6622 183.046 84.5789L183.081 84.8169C183.081 84.8169 183.081 84.7336 183.081 84.686C183.081 84.4479 182.986 84.2218 182.819 84.0551C182.665 83.9004 182.415 83.7814 182.189 83.7933C181.962 83.8052 181.712 83.8766 181.558 84.0551C181.403 84.2337 181.284 84.4479 181.296 84.686C181.308 85.0074 181.379 85.3645 181.57 85.6383C181.712 85.8406 181.831 85.9597 182.022 86.1025C182.141 86.1858 182.284 86.2454 182.415 86.293C182.689 86.3882 182.998 86.3763 183.284 86.3049C183.569 86.2334 183.819 86.0787 184.034 85.8883C184.522 85.4359 184.629 84.7098 184.438 84.1027C184.379 83.9361 184.319 83.7456 184.212 83.6028C184.069 83.3885 183.938 83.2576 183.724 83.1148C183.415 82.9005 182.998 82.8648 182.641 82.96C182.331 83.0314 182.01 83.2338 181.808 83.4838C181.57 83.7575 181.391 84.0908 181.32 84.4479C181.284 84.567 181.272 84.686 181.308 84.805C181.308 84.9241 181.343 85.0312 181.415 85.1383C181.522 85.3288 181.736 85.4954 181.951 85.5431C182.177 85.5907 182.439 85.5788 182.641 85.4478C182.819 85.3288 183.01 85.1383 183.046 84.9122L183.034 84.9479Z" fill="#060606"/>
</svg>
