<svg width="299" height="265" viewBox="0 0 299 265" fill="none" xmlns="http://www.w3.org/2000/svg">
  <g opacity="0.25" filter="url(#filter0_f_253_6760)">
    <circle cx="149.665" cy="115.061" r="59.0613" fill="#FFC5FA"/>
  </g>
  <path fill-rule="evenodd" clip-rule="evenodd" d="M85.0648 56.5327C85.0648 56.2387 84.8263 56 84.5324 56C84.2385 56 84 56.2387 84 56.5327C84 56.8268 84.2385 57.0654 84.5324 57.0654C84.8263 57.0654 85.0648 56.8268 85.0648 56.5327ZM84.5324 69.0227C84.8263 69.0227 85.0648 69.2613 85.0648 69.5554C85.0648 69.8494 84.8263 70.0881 84.5324 70.0881C84.2385 70.0881 84 69.8494 84 69.5554C84 69.2613 84.2385 69.0227 84.5324 69.0227ZM85.0648 82.5758C85.0648 82.2818 84.8263 82.0431 84.5324 82.0431C84.2385 82.0431 84 82.2818 84 82.5758C84 82.8699 84.2385 83.1085 84.5324 83.1085C84.8263 83.1085 85.0648 82.8699 85.0648 82.5758ZM84.5324 95.0638C84.8263 95.0638 85.0648 95.3025 85.0648 95.5965C85.0648 95.8906 84.8263 96.1292 84.5324 96.1292C84.2385 96.1292 84 95.8906 84 95.5965C84 95.3025 84.2385 95.0638 84.5324 95.0638ZM85.0648 108.619C85.0648 108.325 84.8263 108.086 84.5324 108.086C84.2385 108.086 84 108.325 84 108.619C84 108.913 84.2385 109.152 84.5324 109.152C84.8263 109.152 85.0648 108.913 85.0648 108.619ZM84.5324 121.109C84.8263 121.109 85.0648 121.348 85.0648 121.642C85.0648 121.936 84.8263 122.175 84.5324 122.175C84.2385 122.175 84 121.936 84 121.642C84 121.348 84.2385 121.109 84.5324 121.109ZM85.0648 134.662C85.0648 134.368 84.8263 134.13 84.5324 134.13C84.2385 134.13 84 134.368 84 134.662C84 134.956 84.2385 135.195 84.5324 135.195C84.8263 135.195 85.0648 134.956 85.0648 134.662ZM84.5324 147.15C84.8263 147.15 85.0648 147.389 85.0648 147.683C85.0648 147.977 84.8263 148.215 84.5324 148.215C84.2385 148.215 84 147.977 84 147.683C84 147.389 84.2385 147.15 84.5324 147.15ZM85.0648 160.705C85.0648 160.411 84.8263 160.173 84.5324 160.173C84.2385 160.173 84 160.411 84 160.705C84 161 84.2385 161.238 84.5324 161.238C84.8263 161.238 85.0648 161 85.0648 160.705ZM85.0648 173.728C85.0648 173.434 84.8263 173.195 84.5324 173.195C84.2385 173.195 84 173.434 84 173.728C84 174.022 84.2385 174.261 84.5324 174.261C84.8263 174.261 85.0648 174.022 85.0648 173.728ZM97.5446 173.195C97.8385 173.195 98.077 173.434 98.077 173.728C98.077 174.022 97.8385 174.261 97.5446 174.261C97.2507 174.261 97.0122 174.022 97.0122 173.728C97.0122 173.434 97.2507 173.195 97.5446 173.195ZM98.077 160.705C98.077 160.411 97.8385 160.173 97.5446 160.173C97.2507 160.173 97.0122 160.411 97.0122 160.705C97.0122 161 97.2507 161.238 97.5446 161.238C97.8385 161.238 98.077 161 98.077 160.705ZM97.5446 147.15C97.8385 147.15 98.077 147.389 98.077 147.683C98.077 147.977 97.8385 148.215 97.5446 148.215C97.2507 148.215 97.0122 147.977 97.0122 147.683C97.0122 147.389 97.2507 147.15 97.5446 147.15ZM98.077 134.662C98.077 134.368 97.8385 134.13 97.5446 134.13C97.2507 134.13 97.0122 134.368 97.0122 134.662C97.0122 134.956 97.2507 135.195 97.5446 135.195C97.8385 135.195 98.077 134.956 98.077 134.662ZM97.5446 121.109C97.8385 121.109 98.077 121.348 98.077 121.642C98.077 121.936 97.8385 122.175 97.5446 122.175C97.2507 122.175 97.0122 121.936 97.0122 121.642C97.0122 121.348 97.2507 121.109 97.5446 121.109ZM98.077 108.619C98.077 108.325 97.8385 108.086 97.5446 108.086C97.2507 108.086 97.0122 108.325 97.0122 108.619C97.0122 108.913 97.2507 109.152 97.5446 109.152C97.8385 109.152 98.077 108.913 98.077 108.619ZM97.5446 95.0638C97.8385 95.0638 98.077 95.3025 98.077 95.5965C98.077 95.8906 97.8385 96.1292 97.5446 96.1292C97.2507 96.1292 97.0122 95.8906 97.0122 95.5965C97.0122 95.3025 97.2507 95.0638 97.5446 95.0638ZM98.077 82.5758C98.077 82.2818 97.8385 82.0431 97.5446 82.0431C97.2507 82.0431 97.0122 82.2818 97.0122 82.5758C97.0122 82.8699 97.2507 83.1085 97.5446 83.1085C97.8385 83.1085 98.077 82.8699 98.077 82.5758ZM97.5446 69.0227C97.8385 69.0227 98.077 69.2613 98.077 69.5554C98.077 69.8494 97.8385 70.0881 97.5446 70.0881C97.2507 70.0881 97.0122 69.8494 97.0122 69.5554C97.0122 69.2613 97.2507 69.0227 97.5446 69.0227ZM98.077 56.5327C98.077 56.2387 97.8385 56 97.5446 56C97.2507 56 97.0122 56.2387 97.0122 56.5327C97.0122 56.8268 97.2507 57.0654 97.5446 57.0654C97.8385 57.0654 98.077 56.8268 98.077 56.5327ZM110.561 173.195C110.855 173.195 111.093 173.434 111.093 173.728C111.093 174.022 110.855 174.261 110.561 174.261C110.267 174.261 110.028 174.022 110.028 173.728C110.028 173.434 110.267 173.195 110.561 173.195ZM111.093 160.705C111.093 160.411 110.855 160.173 110.561 160.173C110.267 160.173 110.028 160.411 110.028 160.705C110.028 161 110.267 161.238 110.561 161.238C110.855 161.238 111.093 161 111.093 160.705ZM110.561 147.15C110.855 147.15 111.093 147.389 111.093 147.683C111.093 147.977 110.855 148.215 110.561 148.215C110.267 148.215 110.028 147.977 110.028 147.683C110.028 147.389 110.267 147.15 110.561 147.15ZM111.093 134.662C111.093 134.368 110.855 134.13 110.561 134.13C110.267 134.13 110.028 134.368 110.028 134.662C110.028 134.956 110.267 135.195 110.561 135.195C110.855 135.195 111.093 134.956 111.093 134.662ZM110.561 121.109C110.855 121.109 111.093 121.348 111.093 121.642C111.093 121.936 110.855 122.175 110.561 122.175C110.267 122.175 110.028 121.936 110.028 121.642C110.028 121.348 110.267 121.109 110.561 121.109ZM111.093 108.619C111.093 108.325 110.855 108.086 110.561 108.086C110.267 108.086 110.028 108.325 110.028 108.619C110.028 108.913 110.267 109.152 110.561 109.152C110.855 109.152 111.093 108.913 111.093 108.619ZM110.561 95.0638C110.855 95.0638 111.093 95.3025 111.093 95.5965C111.093 95.8906 110.855 96.1292 110.561 96.1292C110.267 96.1292 110.028 95.8906 110.028 95.5965C110.028 95.3025 110.267 95.0638 110.561 95.0638ZM111.093 82.5758C111.093 82.2818 110.855 82.0431 110.561 82.0431C110.267 82.0431 110.028 82.2818 110.028 82.5758C110.028 82.8699 110.267 83.1085 110.561 83.1085C110.855 83.1085 111.093 82.8699 111.093 82.5758ZM110.561 69.0227C110.855 69.0227 111.093 69.2613 111.093 69.5554C111.093 69.8494 110.855 70.0881 110.561 70.0881C110.267 70.0881 110.028 69.8494 110.028 69.5554C110.028 69.2613 110.267 69.0227 110.561 69.0227ZM111.093 56.5327C111.093 56.2387 110.855 56 110.561 56C110.267 56 110.028 56.2387 110.028 56.5327C110.028 56.8268 110.267 57.0654 110.561 57.0654C110.855 57.0654 111.093 56.8268 111.093 56.5327ZM123.575 173.195C123.869 173.195 124.107 173.434 124.107 173.728C124.107 174.022 123.869 174.261 123.575 174.261C123.281 174.261 123.043 174.022 123.043 173.728C123.043 173.434 123.281 173.195 123.575 173.195ZM124.107 160.705C124.107 160.411 123.869 160.173 123.575 160.173C123.281 160.173 123.043 160.411 123.043 160.705C123.043 161 123.281 161.238 123.575 161.238C123.869 161.238 124.107 161 124.107 160.705ZM123.575 147.15C123.869 147.15 124.107 147.389 124.107 147.683C124.107 147.977 123.869 148.215 123.575 148.215C123.281 148.215 123.043 147.977 123.043 147.683C123.043 147.389 123.281 147.15 123.575 147.15ZM124.107 134.662C124.107 134.368 123.869 134.13 123.575 134.13C123.281 134.13 123.043 134.368 123.043 134.662C123.043 134.956 123.281 135.195 123.575 135.195C123.869 135.195 124.107 134.956 124.107 134.662ZM123.575 121.109C123.869 121.109 124.107 121.348 124.107 121.642C124.107 121.936 123.869 122.175 123.575 122.175C123.281 122.175 123.043 121.936 123.043 121.642C123.043 121.348 123.281 121.109 123.575 121.109ZM124.107 108.619C124.107 108.325 123.869 108.086 123.575 108.086C123.281 108.086 123.043 108.325 123.043 108.619C123.043 108.913 123.281 109.152 123.575 109.152C123.869 109.152 124.107 108.913 124.107 108.619ZM123.575 95.0638C123.869 95.0638 124.107 95.3025 124.107 95.5965C124.107 95.8906 123.869 96.1292 123.575 96.1292C123.281 96.1292 123.043 95.8906 123.043 95.5965C123.043 95.3025 123.281 95.0638 123.575 95.0638ZM124.107 82.5758C124.107 82.2818 123.869 82.0431 123.575 82.0431C123.281 82.0431 123.043 82.2818 123.043 82.5758C123.043 82.8699 123.281 83.1085 123.575 83.1085C123.869 83.1085 124.107 82.8699 124.107 82.5758ZM123.575 69.0227C123.869 69.0227 124.107 69.2613 124.107 69.5554C124.107 69.8494 123.869 70.0881 123.575 70.0881C123.281 70.0881 123.043 69.8494 123.043 69.5554C123.043 69.2613 123.281 69.0227 123.575 69.0227ZM124.107 56.5327C124.107 56.2387 123.869 56 123.575 56C123.281 56 123.043 56.2387 123.043 56.5327C123.043 56.8268 123.281 57.0654 123.575 57.0654C123.869 57.0654 124.107 56.8268 124.107 56.5327ZM136.588 173.195C136.882 173.195 137.121 173.434 137.121 173.728C137.121 174.022 136.882 174.261 136.588 174.261C136.294 174.261 136.056 174.022 136.056 173.728C136.056 173.434 136.294 173.195 136.588 173.195ZM137.121 160.705C137.121 160.411 136.882 160.173 136.588 160.173C136.294 160.173 136.056 160.411 136.056 160.705C136.056 161 136.294 161.238 136.588 161.238C136.882 161.238 137.121 161 137.121 160.705ZM136.588 147.15C136.882 147.15 137.121 147.389 137.121 147.683C137.121 147.977 136.882 148.215 136.588 148.215C136.294 148.215 136.056 147.977 136.056 147.683C136.056 147.389 136.294 147.15 136.588 147.15ZM137.121 134.662C137.121 134.368 136.882 134.13 136.588 134.13C136.294 134.13 136.056 134.368 136.056 134.662C136.056 134.956 136.294 135.195 136.588 135.195C136.882 135.195 137.121 134.956 137.121 134.662ZM136.588 121.109C136.882 121.109 137.121 121.348 137.121 121.642C137.121 121.936 136.882 122.175 136.588 122.175C136.294 122.175 136.056 121.936 136.056 121.642C136.056 121.348 136.294 121.109 136.588 121.109ZM137.121 108.619C137.121 108.325 136.882 108.086 136.588 108.086C136.294 108.086 136.056 108.325 136.056 108.619C136.056 108.913 136.294 109.152 136.588 109.152C136.882 109.152 137.121 108.913 137.121 108.619ZM136.588 95.0638C136.882 95.0638 137.121 95.3025 137.121 95.5965C137.121 95.8906 136.882 96.1292 136.588 96.1292C136.294 96.1292 136.056 95.8906 136.056 95.5965C136.056 95.3025 136.294 95.0638 136.588 95.0638ZM137.121 82.5758C137.121 82.2818 136.882 82.0431 136.588 82.0431C136.294 82.0431 136.056 82.2818 136.056 82.5758C136.056 82.8699 136.294 83.1085 136.588 83.1085C136.882 83.1085 137.121 82.8699 137.121 82.5758ZM136.588 69.0227C136.882 69.0227 137.121 69.2613 137.121 69.5554C137.121 69.8494 136.882 70.0881 136.588 70.0881C136.294 70.0881 136.056 69.8494 136.056 69.5554C136.056 69.2613 136.294 69.0227 136.588 69.0227ZM137.121 56.5327C137.121 56.2387 136.882 56 136.588 56C136.294 56 136.056 56.2387 136.056 56.5327C136.056 56.8268 136.294 57.0654 136.588 57.0654C136.882 57.0654 137.121 56.8268 137.121 56.5327ZM149.601 173.195C149.895 173.195 150.134 173.434 150.134 173.728C150.134 174.022 149.895 174.261 149.601 174.261C149.308 174.261 149.069 174.022 149.069 173.728C149.069 173.434 149.308 173.195 149.601 173.195ZM150.134 160.705C150.134 160.411 149.895 160.173 149.601 160.173C149.308 160.173 149.069 160.411 149.069 160.705C149.069 161 149.308 161.238 149.601 161.238C149.895 161.238 150.134 161 150.134 160.705ZM149.601 147.15C149.895 147.15 150.134 147.389 150.134 147.683C150.134 147.977 149.895 148.215 149.601 148.215C149.308 148.215 149.069 147.977 149.069 147.683C149.069 147.389 149.308 147.15 149.601 147.15ZM150.134 134.662C150.134 134.368 149.895 134.13 149.601 134.13C149.308 134.13 149.069 134.368 149.069 134.662C149.069 134.956 149.308 135.195 149.601 135.195C149.895 135.195 150.134 134.956 150.134 134.662ZM149.601 121.109C149.895 121.109 150.134 121.348 150.134 121.642C150.134 121.936 149.895 122.175 149.601 122.175C149.308 122.175 149.069 121.936 149.069 121.642C149.069 121.348 149.308 121.109 149.601 121.109ZM150.134 108.619C150.134 108.325 149.895 108.086 149.601 108.086C149.308 108.086 149.069 108.325 149.069 108.619C149.069 108.913 149.308 109.152 149.601 109.152C149.895 109.152 150.134 108.913 150.134 108.619ZM149.601 95.0638C149.895 95.0638 150.134 95.3025 150.134 95.5965C150.134 95.8906 149.895 96.1292 149.601 96.1292C149.308 96.1292 149.069 95.8906 149.069 95.5965C149.069 95.3025 149.308 95.0638 149.601 95.0638ZM150.134 82.5758C150.134 82.2818 149.895 82.0431 149.601 82.0431C149.308 82.0431 149.069 82.2818 149.069 82.5758C149.069 82.8699 149.308 83.1085 149.601 83.1085C149.895 83.1085 150.134 82.8699 150.134 82.5758ZM149.601 69.0227C149.895 69.0227 150.134 69.2613 150.134 69.5554C150.134 69.8494 149.895 70.0881 149.601 70.0881C149.308 70.0881 149.069 69.8494 149.069 69.5554C149.069 69.2613 149.308 69.0227 149.601 69.0227ZM150.134 56.5327C150.134 56.2387 149.895 56 149.601 56C149.308 56 149.069 56.2387 149.069 56.5327C149.069 56.8268 149.308 57.0654 149.601 57.0654C149.895 57.0654 150.134 56.8268 150.134 56.5327ZM162.617 173.195C162.911 173.195 163.149 173.434 163.149 173.728C163.149 174.022 162.911 174.261 162.617 174.261C162.323 174.261 162.084 174.022 162.084 173.728C162.084 173.434 162.323 173.195 162.617 173.195ZM163.149 160.705C163.149 160.411 162.911 160.173 162.617 160.173C162.323 160.173 162.084 160.411 162.084 160.705C162.084 161 162.323 161.238 162.617 161.238C162.911 161.238 163.149 161 163.149 160.705ZM162.617 147.15C162.911 147.15 163.149 147.389 163.149 147.683C163.149 147.977 162.911 148.215 162.617 148.215C162.323 148.215 162.084 147.977 162.084 147.683C162.084 147.389 162.323 147.15 162.617 147.15ZM163.149 134.662C163.149 134.368 162.911 134.13 162.617 134.13C162.323 134.13 162.084 134.368 162.084 134.662C162.084 134.956 162.323 135.195 162.617 135.195C162.911 135.195 163.149 134.956 163.149 134.662ZM162.617 121.109C162.911 121.109 163.149 121.348 163.149 121.642C163.149 121.936 162.911 122.175 162.617 122.175C162.323 122.175 162.084 121.936 162.084 121.642C162.084 121.348 162.323 121.109 162.617 121.109ZM163.149 108.619C163.149 108.325 162.911 108.086 162.617 108.086C162.323 108.086 162.084 108.325 162.084 108.619C162.084 108.913 162.323 109.152 162.617 109.152C162.911 109.152 163.149 108.913 163.149 108.619ZM162.617 95.0638C162.911 95.0638 163.149 95.3025 163.149 95.5965C163.149 95.8906 162.911 96.1292 162.617 96.1292C162.323 96.1292 162.084 95.8906 162.084 95.5965C162.084 95.3025 162.323 95.0638 162.617 95.0638ZM163.149 82.5758C163.149 82.2818 162.911 82.0431 162.617 82.0431C162.323 82.0431 162.084 82.2818 162.084 82.5758C162.084 82.8699 162.323 83.1085 162.617 83.1085C162.911 83.1085 163.149 82.8699 163.149 82.5758ZM162.617 69.0227C162.911 69.0227 163.149 69.2613 163.149 69.5554C163.149 69.8494 162.911 70.0881 162.617 70.0881C162.323 70.0881 162.084 69.8494 162.084 69.5554C162.084 69.2613 162.323 69.0227 162.617 69.0227ZM163.149 56.5327C163.149 56.2387 162.911 56 162.617 56C162.323 56 162.084 56.2387 162.084 56.5327C162.084 56.8268 162.323 57.0654 162.617 57.0654C162.911 57.0654 163.149 56.8268 163.149 56.5327ZM175.633 173.195C175.927 173.195 176.166 173.434 176.166 173.728C176.166 174.022 175.927 174.261 175.633 174.261C175.339 174.261 175.101 174.022 175.101 173.728C175.101 173.434 175.339 173.195 175.633 173.195ZM176.166 160.705C176.166 160.411 175.927 160.173 175.633 160.173C175.339 160.173 175.101 160.411 175.101 160.705C175.101 161 175.339 161.238 175.633 161.238C175.927 161.238 176.166 161 176.166 160.705ZM175.633 147.15C175.927 147.15 176.166 147.389 176.166 147.683C176.166 147.977 175.927 148.215 175.633 148.215C175.339 148.215 175.101 147.977 175.101 147.683C175.101 147.389 175.339 147.15 175.633 147.15ZM176.166 134.662C176.166 134.368 175.927 134.13 175.633 134.13C175.339 134.13 175.101 134.368 175.101 134.662C175.101 134.956 175.339 135.195 175.633 135.195C175.927 135.195 176.166 134.956 176.166 134.662ZM175.633 121.109C175.927 121.109 176.166 121.348 176.166 121.642C176.166 121.936 175.927 122.175 175.633 122.175C175.339 122.175 175.101 121.936 175.101 121.642C175.101 121.348 175.339 121.109 175.633 121.109ZM176.166 108.619C176.166 108.325 175.927 108.086 175.633 108.086C175.339 108.086 175.101 108.325 175.101 108.619C175.101 108.913 175.339 109.152 175.633 109.152C175.927 109.152 176.166 108.913 176.166 108.619ZM175.633 95.0638C175.927 95.0638 176.166 95.3025 176.166 95.5965C176.166 95.8906 175.927 96.1292 175.633 96.1292C175.339 96.1292 175.101 95.8906 175.101 95.5965C175.101 95.3025 175.339 95.0638 175.633 95.0638ZM176.166 82.5758C176.166 82.2818 175.927 82.0431 175.633 82.0431C175.339 82.0431 175.101 82.2818 175.101 82.5758C175.101 82.8699 175.339 83.1085 175.633 83.1085C175.927 83.1085 176.166 82.8699 176.166 82.5758ZM175.633 69.0227C175.927 69.0227 176.166 69.2613 176.166 69.5554C176.166 69.8494 175.927 70.0881 175.633 70.0881C175.339 70.0881 175.101 69.8494 175.101 69.5554C175.101 69.2613 175.339 69.0227 175.633 69.0227ZM176.166 56.5327C176.166 56.2387 175.927 56 175.633 56C175.339 56 175.101 56.2387 175.101 56.5327C175.101 56.8268 175.339 57.0654 175.633 57.0654C175.927 57.0654 176.166 56.8268 176.166 56.5327ZM188.644 173.195C188.938 173.195 189.176 173.434 189.176 173.728C189.176 174.022 188.938 174.261 188.644 174.261C188.35 174.261 188.112 174.022 188.112 173.728C188.112 173.434 188.35 173.195 188.644 173.195ZM189.176 160.705C189.176 160.411 188.938 160.173 188.644 160.173C188.35 160.173 188.112 160.411 188.112 160.705C188.112 161 188.35 161.238 188.644 161.238C188.938 161.238 189.176 161 189.176 160.705ZM188.644 147.15C188.938 147.15 189.176 147.389 189.176 147.683C189.176 147.977 188.938 148.215 188.644 148.215C188.35 148.215 188.112 147.977 188.112 147.683C188.112 147.389 188.35 147.15 188.644 147.15ZM189.176 134.662C189.176 134.368 188.938 134.13 188.644 134.13C188.35 134.13 188.112 134.368 188.112 134.662C188.112 134.956 188.35 135.195 188.644 135.195C188.938 135.195 189.176 134.956 189.176 134.662ZM188.644 121.109C188.938 121.109 189.176 121.348 189.176 121.642C189.176 121.936 188.938 122.175 188.644 122.175C188.35 122.175 188.112 121.936 188.112 121.642C188.112 121.348 188.35 121.109 188.644 121.109ZM189.176 108.619C189.176 108.325 188.938 108.086 188.644 108.086C188.35 108.086 188.112 108.325 188.112 108.619C188.112 108.913 188.35 109.152 188.644 109.152C188.938 109.152 189.176 108.913 189.176 108.619ZM188.644 95.0638C188.938 95.0638 189.176 95.3025 189.176 95.5965C189.176 95.8906 188.938 96.1292 188.644 96.1292C188.35 96.1292 188.112 95.8906 188.112 95.5965C188.112 95.3025 188.35 95.0638 188.644 95.0638ZM189.176 82.5758C189.176 82.2818 188.938 82.0431 188.644 82.0431C188.35 82.0431 188.112 82.2818 188.112 82.5758C188.112 82.8699 188.35 83.1085 188.644 83.1085C188.938 83.1085 189.176 82.8699 189.176 82.5758ZM188.644 69.0227C188.938 69.0227 189.176 69.2613 189.176 69.5554C189.176 69.8494 188.938 70.0881 188.644 70.0881C188.35 70.0881 188.112 69.8494 188.112 69.5554C188.112 69.2613 188.35 69.0227 188.644 69.0227ZM189.176 56.5327C189.176 56.2387 188.938 56 188.644 56C188.35 56 188.112 56.2387 188.112 56.5327C188.112 56.8268 188.35 57.0654 188.644 57.0654C188.938 57.0654 189.176 56.8268 189.176 56.5327ZM201.659 173.195C201.953 173.195 202.192 173.434 202.192 173.728C202.192 174.022 201.953 174.261 201.659 174.261C201.365 174.261 201.127 174.022 201.127 173.728C201.127 173.434 201.365 173.195 201.659 173.195ZM202.192 160.705C202.192 160.411 201.953 160.173 201.659 160.173C201.365 160.173 201.127 160.411 201.127 160.705C201.127 161 201.365 161.238 201.659 161.238C201.953 161.238 202.192 161 202.192 160.705ZM201.659 147.15C201.953 147.15 202.192 147.389 202.192 147.683C202.192 147.977 201.953 148.215 201.659 148.215C201.365 148.215 201.127 147.977 201.127 147.683C201.127 147.389 201.365 147.15 201.659 147.15ZM202.192 134.662C202.192 134.368 201.953 134.13 201.659 134.13C201.365 134.13 201.127 134.368 201.127 134.662C201.127 134.956 201.365 135.195 201.659 135.195C201.953 135.195 202.192 134.956 202.192 134.662ZM201.659 121.109C201.953 121.109 202.192 121.348 202.192 121.642C202.192 121.936 201.953 122.175 201.659 122.175C201.365 122.175 201.127 121.936 201.127 121.642C201.127 121.348 201.365 121.109 201.659 121.109ZM202.192 108.619C202.192 108.325 201.953 108.086 201.659 108.086C201.365 108.086 201.127 108.325 201.127 108.619C201.127 108.913 201.365 109.152 201.659 109.152C201.953 109.152 202.192 108.913 202.192 108.619ZM201.659 95.0638C201.953 95.0638 202.192 95.3025 202.192 95.5965C202.192 95.8906 201.953 96.1292 201.659 96.1292C201.365 96.1292 201.127 95.8906 201.127 95.5965C201.127 95.3025 201.365 95.0638 201.659 95.0638ZM202.192 82.5758C202.192 82.2818 201.953 82.0431 201.659 82.0431C201.365 82.0431 201.127 82.2818 201.127 82.5758C201.127 82.8699 201.365 83.1085 201.659 83.1085C201.953 83.1085 202.192 82.8699 202.192 82.5758ZM201.659 69.0227C201.953 69.0227 202.192 69.2613 202.192 69.5554C202.192 69.8494 201.953 70.0881 201.659 70.0881C201.365 70.0881 201.127 69.8494 201.127 69.5554C201.127 69.2613 201.365 69.0227 201.659 69.0227ZM202.192 56.5327C202.192 56.2387 201.953 56 201.659 56C201.365 56 201.127 56.2387 201.127 56.5327C201.127 56.8268 201.365 57.0654 201.659 57.0654C201.953 57.0654 202.192 56.8268 202.192 56.5327ZM214.675 173.195C214.969 173.195 215.207 173.434 215.207 173.728C215.207 174.022 214.969 174.261 214.675 174.261C214.381 174.261 214.142 174.022 214.142 173.728C214.142 173.434 214.381 173.195 214.675 173.195ZM215.207 160.705C215.207 160.411 214.969 160.173 214.675 160.173C214.381 160.173 214.142 160.411 214.142 160.705C214.142 161 214.381 161.238 214.675 161.238C214.969 161.238 215.207 161 215.207 160.705ZM214.675 147.15C214.969 147.15 215.207 147.389 215.207 147.683C215.207 147.977 214.969 148.215 214.675 148.215C214.381 148.215 214.142 147.977 214.142 147.683C214.142 147.389 214.381 147.15 214.675 147.15ZM215.207 134.662C215.207 134.368 214.969 134.13 214.675 134.13C214.381 134.13 214.142 134.368 214.142 134.662C214.142 134.956 214.381 135.195 214.675 135.195C214.969 135.195 215.207 134.956 215.207 134.662ZM214.675 121.109C214.969 121.109 215.207 121.348 215.207 121.642C215.207 121.936 214.969 122.175 214.675 122.175C214.381 122.175 214.142 121.936 214.142 121.642C214.142 121.348 214.381 121.109 214.675 121.109ZM215.207 108.619C215.207 108.325 214.969 108.086 214.675 108.086C214.381 108.086 214.142 108.325 214.142 108.619C214.142 108.913 214.381 109.152 214.675 109.152C214.969 109.152 215.207 108.913 215.207 108.619ZM214.675 95.0638C214.969 95.0638 215.207 95.3025 215.207 95.5965C215.207 95.8906 214.969 96.1292 214.675 96.1292C214.381 96.1292 214.142 95.8906 214.142 95.5965C214.142 95.3025 214.381 95.0638 214.675 95.0638ZM215.207 82.5758C215.207 82.2818 214.969 82.0431 214.675 82.0431C214.381 82.0431 214.142 82.2818 214.142 82.5758C214.142 82.8699 214.381 83.1085 214.675 83.1085C214.969 83.1085 215.207 82.8699 215.207 82.5758ZM214.675 69.0227C214.969 69.0227 215.207 69.2613 215.207 69.5554C215.207 69.8494 214.969 70.0881 214.675 70.0881C214.381 70.0881 214.142 69.8494 214.142 69.5554C214.142 69.2613 214.381 69.0227 214.675 69.0227ZM215.207 56.5327C215.207 56.2387 214.969 56 214.675 56C214.381 56 214.142 56.2387 214.142 56.5327C214.142 56.8268 214.381 57.0654 214.675 57.0654C214.969 57.0654 215.207 56.8268 215.207 56.5327Z" fill="url(#paint0_radial_253_6760)"/>
  <path d="M109.505 143.548V84.846C109.505 83.9595 110.287 83.2412 111.252 83.2412H194.606C195.572 83.2412 196.354 83.9595 196.354 84.846V143.548C196.354 144.435 195.572 145.153 194.606 145.153H111.252C110.287 145.153 109.505 144.435 109.505 143.548Z" fill="url(#paint1_linear_253_6760)"/>
  <path d="M109.505 84.8922C109.505 83.9804 110.244 83.2412 111.156 83.2412H194.703C195.614 83.2412 196.354 83.9804 196.354 84.8922V93.5599H109.505V84.8922Z" fill="url(#paint2_linear_253_6760)"/>
  <circle cx="117.33" cy="88.4855" r="1.80577" fill="#C15ABA"/>
  <circle cx="124.553" cy="88.4855" r="1.80577" fill="#C15ABA"/>
  <circle cx="131.775" cy="88.4855" r="1.80577" fill="#C15ABA"/>
  <path d="M145.242 102.158H118.678C117.411 102.158 116.384 103.094 116.384 104.25V135.321C116.384 136.476 117.411 137.413 118.678 137.413H145.242C146.509 137.413 147.535 136.476 147.535 135.321V104.25C147.535 103.094 146.509 102.158 145.242 102.158Z" fill="url(#paint3_linear_253_6760)"/>
  <path d="M134.799 126.736H119.823V127.808H134.799V126.736Z" fill="#FFD4FC"/>
  <path d="M144.631 126.736H135.474V127.808H144.631V126.736Z" fill="#FFD4FC"/>
  <path d="M134.799 131.653H119.823V132.725H134.799V131.653Z" fill="#FFD4FC"/>
  <path d="M144.631 131.653H135.473V132.725H144.631V131.653Z" fill="#FFD4FC"/>
  <path d="M127.614 129.199H119.823V130.272H127.614V129.199Z" fill="#FFD4FC"/>
  <path d="M132.431 129.199H128.257V130.272H132.431V129.199Z" fill="#FFD4FC"/>
  <path d="M144.632 129.199H133.092V130.272H144.632V129.199Z" fill="#FFD4FC"/>
  <circle cx="131.861" cy="115.058" r="8.67054" fill="#FFD6FC"/>
  <path fill-rule="evenodd" clip-rule="evenodd" d="M126.525 121.892C126.475 121.681 126.451 121.454 126.451 121.214C126.451 120.963 126.459 120.72 126.477 120.477C126.494 120.234 126.529 119.966 126.572 119.679C126.624 119.393 126.694 119.116 126.772 118.873C126.858 118.596 126.98 118.335 127.127 118.075C127.283 117.807 127.465 117.564 127.673 117.364C127.899 117.148 128.176 116.966 128.497 116.844C128.809 116.714 129.156 116.653 129.529 116.653C129.78 116.653 129.988 116.757 130.248 116.931L130.734 117.234C130.812 117.286 130.968 117.373 131.246 117.46C131.653 117.59 132.069 117.59 132.477 117.46C132.754 117.373 132.91 117.286 132.988 117.234L133.474 116.931C133.734 116.757 133.942 116.653 134.194 116.653C134.558 116.653 134.905 116.714 135.225 116.844C135.546 116.966 135.815 117.148 136.049 117.364C136.257 117.564 136.439 117.807 136.595 118.075C136.743 118.335 136.864 118.596 136.951 118.873C137.029 119.116 137.098 119.393 137.15 119.679C137.194 119.966 137.228 120.234 137.246 120.477C137.263 120.72 137.272 120.963 137.272 121.214C137.272 121.454 137.247 121.681 137.198 121.892C139.227 120.305 140.532 117.834 140.532 115.058C140.532 110.269 136.65 106.387 131.861 106.387C127.073 106.387 123.191 110.269 123.191 115.058C123.191 117.834 124.495 120.305 126.525 121.892ZM135.191 113.177C135.191 114.087 134.861 114.885 134.211 115.526C133.569 116.177 132.772 116.506 131.861 116.506C130.951 116.506 130.153 116.177 129.512 115.526C128.861 114.885 128.532 114.087 128.532 113.177C128.532 112.266 128.861 111.468 129.512 110.827C130.153 110.177 130.951 109.847 131.861 109.847C132.772 109.847 133.569 110.177 134.211 110.827C134.861 111.468 135.191 112.266 135.191 113.177Z" fill="#7216B1"/>
  <path d="M184.796 102.158H158.231C156.965 102.158 155.938 103.094 155.938 104.25V135.321C155.938 136.476 156.965 137.413 158.231 137.413H184.796C186.063 137.413 187.089 136.476 187.089 135.321V104.25C187.089 103.094 186.063 102.158 184.796 102.158Z" fill="url(#paint4_linear_253_6760)"/>
  <path d="M174.354 126.736H159.378V127.808H174.354V126.736Z" fill="#FFD4FC"/>
  <path d="M184.186 126.736H175.029V127.808H184.186V126.736Z" fill="#FFD4FC"/>
  <path d="M174.354 131.653H159.378V132.725H174.354V131.653Z" fill="#FFD4FC"/>
  <path d="M184.186 131.653H175.028V132.725H184.186V131.653Z" fill="#FFD4FC"/>
  <path d="M167.169 129.199H159.378V130.272H167.169V129.199Z" fill="#FFD4FC"/>
  <path d="M171.986 129.199H167.812V130.272H171.986V129.199Z" fill="#FFD4FC"/>
  <path d="M184.187 129.199H172.647V130.272H184.187V129.199Z" fill="#FFD4FC"/>
  <circle cx="171.416" cy="115.058" r="8.67054" fill="#FFD6FC"/>
  <path fill-rule="evenodd" clip-rule="evenodd" d="M166.08 121.892C166.03 121.681 166.006 121.454 166.006 121.214C166.006 120.963 166.014 120.72 166.032 120.477C166.049 120.234 166.084 119.966 166.127 119.679C166.179 119.393 166.249 119.116 166.327 118.873C166.413 118.596 166.535 118.335 166.682 118.075C166.838 117.807 167.02 117.564 167.228 117.364C167.454 117.148 167.731 116.966 168.052 116.844C168.364 116.714 168.711 116.653 169.084 116.653C169.335 116.653 169.543 116.757 169.803 116.931L170.289 117.234C170.367 117.286 170.523 117.373 170.801 117.46C171.208 117.59 171.624 117.59 172.032 117.46C172.309 117.373 172.465 117.286 172.543 117.234L173.029 116.931C173.289 116.757 173.497 116.653 173.749 116.653C174.113 116.653 174.46 116.714 174.78 116.844C175.101 116.966 175.37 117.148 175.604 117.364C175.812 117.564 175.994 117.807 176.15 118.075C176.298 118.335 176.419 118.596 176.506 118.873C176.584 119.116 176.653 119.393 176.705 119.679C176.749 119.966 176.783 120.234 176.801 120.477C176.818 120.72 176.827 120.963 176.827 121.214C176.827 121.454 176.802 121.681 176.753 121.892C178.782 120.305 180.087 117.834 180.087 115.058C180.087 110.269 176.205 106.387 171.416 106.387C166.628 106.387 162.746 110.269 162.746 115.058C162.746 117.834 164.05 120.305 166.08 121.892ZM174.746 113.177C174.746 114.087 174.416 114.885 173.766 115.526C173.124 116.177 172.327 116.506 171.416 116.506C170.506 116.506 169.708 116.177 169.067 115.526C168.416 114.885 168.087 114.087 168.087 113.177C168.087 112.266 168.416 111.468 169.067 110.827C169.708 110.177 170.506 109.847 171.416 109.847C172.327 109.847 173.124 110.177 173.766 110.827C174.416 111.468 174.746 112.266 174.746 113.177Z" fill="#7216B1"/>
  <defs>
    <filter id="filter0_f_253_6760" x="0.369286" y="-34.2347" width="298.592" height="298.592" filterUnits="userSpaceOnUse" color-interpolation-filters="sRGB">
      <feFlood flood-opacity="0" result="BackgroundImageFix"/>
      <feBlend mode="normal" in="SourceGraphic" in2="BackgroundImageFix" result="shape"/>
      <feGaussianBlur stdDeviation="45.1173" result="effect1_foregroundBlur_253_6760"/>
    </filter>
    <radialGradient id="paint0_radial_253_6760" cx="0" cy="0" r="1" gradientUnits="userSpaceOnUse" gradientTransform="translate(149.604 115.13) rotate(90) scale(59.1304 65.6036)">
      <stop offset="0.354167" stop-color="#AE3FFF"/>
      <stop offset="1" stop-color="#F277FF" stop-opacity="0"/>
    </radialGradient>
    <linearGradient id="paint1_linear_253_6760" x1="152.929" y1="145.153" x2="152.929" y2="83.2412" gradientUnits="userSpaceOnUse">
      <stop stop-color="#FFBEF9"/>
      <stop offset="1" stop-color="#FFF1FF"/>
    </linearGradient>
    <linearGradient id="paint2_linear_253_6760" x1="152.929" y1="93.5599" x2="152.929" y2="83.2412" gradientUnits="userSpaceOnUse">
      <stop stop-color="#FFBEF9"/>
      <stop offset="1" stop-color="#FFF1FF"/>
    </linearGradient>
    <linearGradient id="paint3_linear_253_6760" x1="131.961" y1="137.414" x2="131.961" y2="102.159" gradientUnits="userSpaceOnUse">
      <stop stop-color="#FF81FF"/>
      <stop offset="1" stop-color="#A93AFF"/>
    </linearGradient>
    <linearGradient id="paint4_linear_253_6760" x1="171.515" y1="137.414" x2="171.515" y2="102.159" gradientUnits="userSpaceOnUse">
      <stop stop-color="#FF81FF"/>
      <stop offset="1" stop-color="#A93AFF"/>
    </linearGradient>
  </defs>
</svg>
