<?xml version="1.0" encoding="utf-8"?>
<!-- Generator: Adobe Illustrator 24.2.1, SVG Export Plug-In . SVG Version: 6.00 Build 0)  -->
<svg version="1.1" id="图层_1" xmlns="http://www.w3.org/2000/svg" xmlns:xlink="http://www.w3.org/1999/xlink" x="0px" y="0px"
	 viewBox="0 0 200 187.2" style="enable-background:new 0 0 200 187.2;" xml:space="preserve">
<style type="text/css">
	.st0{fill:#e1e1ef;}
	.st1{fill:#f8f9fb;}
	.st2{fill:#8f8fa6;}
	.st3{fill:#f1f2fb;}
</style>
<g>
	<path class="st0" d="M19.4,181.2c0,3.2,39.4,5.9,87.9,5.9c48.5,0,87.9-2.5,87.9-5.9c0-3.2-39.4-5.9-87.9-5.9
		C58.9,175.3,19.6,177.8,19.4,181.2L19.4,181.2z M19.4,181.2"/>
	<path class="st1" d="M57,71.4c0,0-13.6-2.3-17.2,14.4v27.7c0,0,1.1,11.9,13.6,12.5l-2.3,12.4l8.7-3.2c0,0-2.7,22.5,19.1,25.6h34.6
		l24,17l-0.8-16.4c0,0,19.1,0.2,20.4-20.1v-37.2c0,0,0-17.4-18.9-19.2h-26.6c0,0-2.5-12.5-14.4-13.6L57,71.4z"/>
	<path class="st2" d="M10,57c-0.1,0-0.3,0-0.4-0.1c-0.3-0.2-0.4-0.6-0.2-0.9c0.2-0.3,0.6-0.9,1.3-1.9c0.2-0.3,0.6-0.4,0.9-0.2
		c0.3,0.2,0.4,0.6,0.2,0.9c-0.7,1-1.1,1.6-1.2,1.9C10.5,56.9,10.3,57,10,57L10,57z M124.7,53.4c-0.4,0-0.6-0.3-0.6-0.6
		c0-0.4,0.3-0.6,0.6-0.6c0.8,0,1.4-0.2,1.9-0.4c0.4-0.2,0.7-0.1,0.9,0.3c0.2,0.4,0.1,0.7-0.3,0.9C126.6,53.3,125.8,53.4,124.7,53.4
		L124.7,53.4z M12.7,53.3c-0.2,0-0.3,0-0.4-0.2c-0.3-0.2-0.4-0.6-0.1-0.9c0.4-0.6,0.9-1.2,1.4-1.8c0.2-0.3,0.6-0.4,0.9-0.1
		c0.3,0.2,0.4,0.6,0.1,0.9c-0.4,0.6-1,1.2-1.4,1.8C13.1,53.3,12.9,53.3,12.7,53.3L12.7,53.3z M122.5,53.3L122.5,53.3
		c-0.8-0.1-1.6-0.3-2.4-0.4c-0.4-0.1-0.5-0.4-0.4-0.8c0.1-0.4,0.4-0.5,0.8-0.4c0.8,0.2,1.5,0.4,2.1,0.4c0.4,0.1,0.6,0.4,0.5,0.7
		C123,53.1,122.7,53.3,122.5,53.3L122.5,53.3z M118,52.2h-0.2c-0.7-0.2-1.4-0.4-2.1-0.7c-0.4-0.1-0.5-0.5-0.4-0.8
		c0.1-0.4,0.5-0.5,0.8-0.4c0.7,0.3,1.4,0.5,2.1,0.7c0.4,0.1,0.5,0.4,0.4,0.8C118.6,52,118.3,52.2,118,52.2L118,52.2z M127.9,51.1
		c-0.4,0-0.6-0.3-0.6-0.6c0-0.5-0.2-1.2-0.4-2c-0.1-0.4,0-0.7,0.4-0.8c0.4-0.1,0.7,0,0.8,0.4c0.4,0.9,0.5,1.7,0.5,2.4
		C128.5,50.9,128.2,51.1,127.9,51.1L127.9,51.1z M113.8,50.7h-0.3c-0.7-0.3-1.4-0.6-2.1-0.9c-0.4-0.2-0.4-0.5-0.4-0.8
		c0.2-0.4,0.5-0.4,0.9-0.4c0.7,0.4,1.3,0.6,2,0.9c0.4,0.2,0.5,0.5,0.4,0.8C114.3,50.5,114,50.7,113.8,50.7L113.8,50.7z M15.5,49.8
		c-0.2,0-0.3-0.1-0.4-0.2c-0.3-0.3-0.3-0.6-0.1-0.9c0.5-0.5,1-1.2,1.5-1.7c0.3-0.3,0.6-0.3,0.9-0.1c0.3,0.3,0.3,0.6,0.1,0.9
		c-0.5,0.5-1,1.2-1.5,1.7C15.9,49.7,15.7,49.8,15.5,49.8L15.5,49.8z M109.7,48.8c-0.1,0-0.2,0-0.3-0.1c-0.7-0.4-1.3-0.7-2-1.1
		c-0.4-0.2-0.4-0.5-0.3-0.9c0.2-0.4,0.5-0.4,0.9-0.3c0.6,0.4,1.3,0.7,2,1.1c0.4,0.2,0.4,0.5,0.3,0.9
		C110.1,48.6,109.9,48.8,109.7,48.8L109.7,48.8z M126.4,46.9c-0.2,0-0.4-0.1-0.5-0.4c-0.4-0.6-0.7-1.2-1.2-1.9
		c-0.2-0.3-0.1-0.7,0.2-0.9c0.3-0.2,0.7-0.1,0.9,0.2c0.4,0.7,0.8,1.3,1.2,2c0.2,0.4,0.1,0.7-0.3,0.9
		C126.6,46.9,126.5,46.9,126.4,46.9L126.4,46.9z M105.7,46.6c-0.1,0-0.3,0-0.4-0.1c-0.7-0.4-1.3-0.8-2-1.2c-0.3-0.2-0.4-0.6-0.2-0.9
		c0.2-0.3,0.6-0.4,0.9-0.2c0.5,0.4,1.2,0.8,1.9,1.2c0.3,0.2,0.4,0.5,0.2,0.9C106.1,46.5,106,46.6,105.7,46.6L105.7,46.6z M18.6,46.4
		c-0.2,0-0.4-0.1-0.4-0.2c-0.3-0.3-0.3-0.6,0-0.9c0.5-0.5,1.1-1.1,1.6-1.7c0.3-0.3,0.6-0.3,0.9,0c0.3,0.3,0.3,0.6,0,0.9
		c-0.5,0.5-1.1,1.1-1.5,1.6C18.9,46.3,18.7,46.4,18.6,46.4L18.6,46.4z M102,43.9c-0.2,0-0.3-0.1-0.4-0.2c-0.8-0.7-1.3-1.3-1.6-1.9
		c-0.2-0.4,0-0.7,0.3-0.9c0.4-0.2,0.7,0,0.9,0.3c0.3,0.4,0.7,1,1.3,1.5c0.3,0.3,0.3,0.6,0,0.9C102.4,43.9,102.2,43.9,102,43.9
		L102,43.9z M21.8,43.2c-0.2,0-0.4-0.1-0.4-0.2c-0.3-0.3-0.3-0.6,0-0.9c0.5-0.5,1.1-1.1,1.7-1.6c0.3-0.3,0.7-0.2,0.9,0
		c0.3,0.3,0.2,0.7,0,0.9c-0.5,0.5-1.1,1-1.6,1.5C22,43.1,21.8,43.2,21.8,43.2L21.8,43.2z M124,43c-0.2,0-0.4-0.1-0.5-0.3
		c-0.4-0.6-0.9-1.2-1.3-1.8c-0.2-0.3-0.2-0.7,0.1-0.9c0.3-0.2,0.7-0.2,0.9,0.1c0.4,0.6,1,1.2,1.3,1.9c0.2,0.3,0.2,0.7-0.2,0.9
		C124.2,43,124.1,43,124,43L124,43z M101.2,40.4c-0.3,0-0.4-0.2-0.6-0.4c-0.2-0.4,0-0.7,0.4-0.9c0.5-0.3,1.3-0.4,2.4-0.4
		c0.4,0,0.6,0.3,0.7,0.6c0,0.4-0.3,0.6-0.6,0.7c-0.9,0.1-1.6,0.2-2,0.4H101.2z M119.6,40.4h-0.5c-0.4,0-0.6-0.3-0.6-0.6
		c0-0.4,0.3-0.6,0.6-0.6h1.3c-0.2-0.2-0.3-0.3-0.3-0.4c-0.4-0.4-0.7-0.8-1-1.2c-0.3-0.3-0.3-0.7,0-0.9c0.3-0.3,0.7-0.3,0.9,0
		c0.4,0.4,0.7,0.8,1.1,1.2c0.1,0.1,0.2,0.3,0.4,0.5c0.2,0.2,0.2,0.4,0.1,0.7c0.2,0.1,0.4,0.4,0.4,0.5c0,0.4-0.3,0.6-0.6,0.6
		C120.8,40.4,120.2,40.4,119.6,40.4L119.6,40.4z M116.9,40.3c-0.7,0-1.5,0-2.3-0.1c-0.4,0-0.6-0.4-0.6-0.6c0-0.4,0.4-0.6,0.6-0.6
		c0.8,0,1.5,0,2.2,0.1c0.4,0,0.6,0.3,0.6,0.6C117.5,40,117.2,40.3,116.9,40.3L116.9,40.3z M123.6,40.3c-0.4,0-0.6-0.3-0.6-0.6
		c0-0.4,0.3-0.6,0.6-0.7c0.8,0,1.5-0.1,2.2-0.1c0.4,0,0.6,0.3,0.7,0.6c0,0.4-0.3,0.6-0.6,0.7C125.2,40.2,124.4,40.3,123.6,40.3
		L123.6,40.3z M112.3,40.2c-0.7,0-1.4-0.1-2-0.1h-0.2c-0.4,0-0.6-0.4-0.6-0.7c0-0.4,0.4-0.6,0.7-0.6h0.2c0.6,0,1.3,0.1,2,0.1
		c0.4,0,0.6,0.4,0.6,0.7C113,39.9,112.7,40.2,112.3,40.2L112.3,40.2z M25,40.1c-0.2,0-0.4-0.1-0.4-0.2c-0.3-0.3-0.2-0.7,0.1-0.9
		c0.5-0.5,1.2-1,1.7-1.5c0.3-0.3,0.7-0.2,0.9,0.1c0.2,0.3,0.2,0.7-0.1,0.9c-0.5,0.4-1.2,1-1.7,1.4C25.3,40,25.1,40.1,25,40.1
		L25,40.1z M128.2,40c-0.4,0-0.6-0.3-0.6-0.6c0-0.4,0.3-0.7,0.6-0.7c0.7-0.1,1.5-0.2,2.2-0.2c0.4,0,0.7,0.2,0.7,0.5
		c0,0.4-0.2,0.7-0.5,0.7L128.2,40z M107.9,40c-0.9,0-1.6-0.1-2.2-0.1c-0.4,0-0.6-0.3-0.6-0.6c0-0.4,0.3-0.6,0.6-0.6
		c0.6,0,1.3,0,2.3,0.1c0.4,0,0.6,0.4,0.6,0.7C108.5,39.7,108.2,40,107.9,40L107.9,40z M132.7,39.6c-0.4,0-0.6-0.3-0.6-0.5
		c0-0.4,0.2-0.7,0.5-0.7c0.7-0.1,1.5-0.2,2.2-0.4c0.4-0.1,0.7,0.2,0.7,0.5c0.1,0.4-0.2,0.7-0.5,0.7
		C134.3,39.3,133.5,39.5,132.7,39.6L132.7,39.6z M137.1,38.9c-0.3,0-0.5-0.2-0.6-0.5c-0.1-0.4,0.2-0.7,0.5-0.7
		c0.7-0.2,1.5-0.3,2.2-0.4c0.4-0.1,0.7,0.2,0.8,0.5c0.1,0.4-0.2,0.7-0.5,0.8l-2.2,0.4C137.2,38.9,137.1,38.9,137.1,38.9L137.1,38.9z
		 M141.6,37.8c-0.3,0-0.5-0.2-0.6-0.4c-0.1-0.4,0.1-0.7,0.4-0.8c0.7-0.2,1.4-0.4,2.1-0.6c0.4-0.1,0.7,0.1,0.8,0.4
		c0.1,0.4-0.1,0.7-0.4,0.8C143.2,37.4,142.5,37.6,141.6,37.8L141.6,37.8z M28.5,37.2c-0.2,0-0.4-0.1-0.5-0.3
		c-0.2-0.3-0.2-0.7,0.1-0.9c0.6-0.4,1.2-1,1.8-1.4c0.3-0.2,0.7-0.2,0.9,0.1c0.2,0.3,0.2,0.7-0.1,0.9c-0.6,0.4-1.2,0.9-1.8,1.3
		C28.8,37.2,28.6,37.2,28.5,37.2L28.5,37.2z M145.8,36.6c-0.3,0-0.5-0.2-0.6-0.4c-0.1-0.4,0.1-0.7,0.4-0.8l2.1-0.7
		c0.4-0.1,0.7,0.1,0.8,0.4c0.1,0.4-0.1,0.7-0.4,0.8c-0.7,0.3-1.4,0.5-2.1,0.7C146,36.6,145.9,36.6,145.8,36.6L145.8,36.6z
		 M118.1,36.2c-0.2,0-0.4-0.1-0.4-0.2c-0.5-0.5-1.1-1-1.7-1.5c-0.3-0.3-0.3-0.6-0.1-0.9c0.3-0.3,0.6-0.3,0.9-0.1
		c0.5,0.5,1.2,1,1.7,1.5c0.3,0.3,0.3,0.6,0,0.9C118.4,36.1,118.2,36.2,118.1,36.2L118.1,36.2z M150.1,35.1c-0.3,0-0.5-0.2-0.6-0.4
		c-0.1-0.4,0-0.7,0.4-0.8c0.7-0.3,1.4-0.5,2-0.9c0.4-0.2,0.7,0,0.8,0.4c0.1,0.4,0,0.7-0.4,0.8l-2.1,0.8
		C150.3,35,150.2,35.1,150.1,35.1L150.1,35.1z M32.1,34.5c-0.2,0-0.4-0.1-0.5-0.3c-0.2-0.3-0.2-0.7,0.2-0.9l1.9-1.3
		c0.3-0.2,0.7-0.1,0.9,0.2c0.2,0.3,0.1,0.7-0.2,0.9c-0.6,0.4-1.2,0.8-1.9,1.2C32.3,34.4,32.2,34.5,32.1,34.5L32.1,34.5z M154.3,33.4
		c-0.3,0-0.4-0.2-0.6-0.4c-0.2-0.4,0-0.7,0.4-0.8c0.7-0.3,1.3-0.6,2-1c0.4-0.2,0.7,0,0.9,0.3c0.2,0.4,0,0.7-0.3,0.9
		c-0.7,0.4-1.3,0.6-2,1H154.3z M114.7,33.3c-0.2,0-0.3,0-0.4-0.2c-0.5-0.4-1.2-0.9-1.8-1.3c-0.3-0.2-0.4-0.6-0.2-0.9
		c0.2-0.3,0.6-0.4,0.9-0.2l1.9,1.3c0.3,0.2,0.4,0.6,0.1,0.9C115,33.2,114.8,33.3,114.7,33.3L114.7,33.3z M35.9,31.9
		c-0.2,0-0.4-0.1-0.5-0.3c-0.2-0.3-0.1-0.7,0.2-0.9c0.6-0.4,1.3-0.8,2-1.2c0.3-0.2,0.7-0.1,0.9,0.2c0.2,0.3,0.1,0.7-0.2,0.9
		c-0.6,0.4-1.2,0.8-1.9,1.2C36.1,31.9,36,31.9,35.9,31.9L35.9,31.9z M158.3,31.4c-0.3,0-0.4-0.1-0.5-0.4c-0.2-0.4,0-0.7,0.3-0.9
		c0.7-0.4,1.3-0.7,2-1.1c0.4-0.2,0.7-0.1,0.9,0.3c0.2,0.4,0.1,0.7-0.3,0.9c-0.7,0.4-1.3,0.7-2,1.1C158.5,31.4,158.4,31.4,158.3,31.4
		L158.3,31.4z M111,30.6c-0.1,0-0.3,0-0.4-0.1c-0.6-0.4-1.2-0.8-1.9-1.2c-0.4-0.2-0.4-0.5-0.3-0.9c0.2-0.4,0.5-0.4,0.9-0.3
		c0.7,0.4,1.3,0.8,2,1.2c0.3,0.2,0.4,0.6,0.2,0.9C111.4,30.5,111.2,30.6,111,30.6L111,30.6z M39.8,29.7c-0.2,0-0.4-0.1-0.5-0.4
		c-0.2-0.4-0.1-0.7,0.3-0.9c0.7-0.4,1.3-0.7,2-1.1c0.4-0.2,0.7,0,0.9,0.3c0.2,0.4,0,0.7-0.3,0.9c-0.7,0.4-1.3,0.7-2,1.1
		C40,29.6,39.9,29.7,39.8,29.7L39.8,29.7z M162.3,29.2c-0.2,0-0.4-0.1-0.5-0.4c-0.2-0.3-0.1-0.7,0.3-0.9c0.6-0.4,1.3-0.8,2-1.2
		c0.3-0.2,0.7-0.1,0.9,0.2c0.2,0.3,0.1,0.7-0.2,0.9l-2,1.2C162.5,29.2,162.4,29.2,162.3,29.2L162.3,29.2z M107.1,28.4
		c-0.1,0-0.2,0-0.3-0.1c-0.6-0.4-1.3-0.7-2-1c-0.4-0.2-0.4-0.5-0.4-0.8c0.2-0.4,0.5-0.4,0.9-0.4c0.7,0.4,1.3,0.7,2,1
		c0.4,0.2,0.4,0.5,0.3,0.9C107.5,28.2,107.3,28.4,107.1,28.4L107.1,28.4z M43.8,27.6c-0.3,0-0.4-0.2-0.5-0.4c-0.2-0.4,0-0.7,0.3-0.8
		c0.7-0.4,1.3-0.6,2-1c0.4-0.2,0.7,0,0.8,0.4c0.2,0.4,0,0.7-0.4,0.8c-0.7,0.3-1.3,0.6-2,1H43.8z M166.2,26.8c-0.2,0-0.4-0.1-0.5-0.3
		c-0.2-0.3-0.1-0.7,0.2-0.9c0.6-0.4,1.2-0.8,1.9-1.2c0.3-0.2,0.7-0.1,0.9,0.2c0.2,0.3,0.1,0.7-0.2,0.9c-0.6,0.4-1.2,0.9-1.9,1.2
		C166.3,26.8,166.3,26.8,166.2,26.8L166.2,26.8z M103,26.4c-0.1,0-0.2,0-0.3-0.1c-0.7-0.3-1.3-0.5-2-0.8c-0.4-0.1-0.5-0.5-0.4-0.8
		c0.1-0.4,0.5-0.5,0.8-0.4l2.1,0.8c0.4,0.2,0.4,0.5,0.4,0.9C103.5,26.3,103.3,26.4,103,26.4L103,26.4z M47.9,25.8
		c-0.3,0-0.5-0.2-0.6-0.4c-0.2-0.4,0-0.7,0.4-0.8l2.1-0.8c0.4-0.1,0.7,0.1,0.8,0.4c0.1,0.4-0.1,0.7-0.4,0.8c-0.7,0.3-1.4,0.5-2,0.8
		H47.9z M98.8,24.8h-0.2c-0.7-0.3-1.4-0.4-2.1-0.7c-0.4-0.1-0.5-0.4-0.4-0.8s0.4-0.5,0.8-0.4c0.7,0.2,1.4,0.4,2.2,0.7
		c0.4,0.1,0.5,0.4,0.4,0.8C99.3,24.7,99,24.8,98.8,24.8L98.8,24.8z M169.8,24.3c-0.2,0-0.4-0.1-0.5-0.3c-0.2-0.3-0.2-0.7,0.2-0.9
		c0.6-0.4,1.2-0.9,1.8-1.3c0.3-0.2,0.7-0.2,0.9,0.1c0.2,0.3,0.2,0.7-0.1,0.9l-1.9,1.3C170.2,24.2,170,24.3,169.8,24.3L169.8,24.3z
		 M52.1,24.2c-0.3,0-0.5-0.2-0.6-0.4c-0.1-0.4,0.1-0.7,0.4-0.8c0.7-0.3,1.4-0.4,2.2-0.7c0.4-0.1,0.7,0.1,0.8,0.4
		c0.1,0.4-0.1,0.7-0.4,0.8c-0.7,0.2-1.4,0.4-2.1,0.7H52.1z M94.5,23.5h-0.2c-0.7-0.2-1.4-0.4-2.2-0.5c-0.4-0.1-0.5-0.4-0.4-0.8
		c0.1-0.4,0.4-0.5,0.8-0.4c0.7,0.2,1.5,0.4,2.2,0.5c0.4,0.1,0.5,0.4,0.4,0.8C95,23.3,94.8,23.5,94.5,23.5L94.5,23.5z M56.5,23
		c-0.3,0-0.5-0.2-0.6-0.4c-0.1-0.4,0.1-0.7,0.4-0.8c0.7-0.2,1.5-0.4,2.2-0.5c0.4-0.1,0.7,0.2,0.8,0.5c0.1,0.4-0.2,0.7-0.5,0.8
		C58.1,22.7,57.4,22.9,56.5,23C56.6,23,56.5,23,56.5,23L56.5,23z M90.1,22.5L90.1,22.5c-0.8-0.2-1.6-0.3-2.3-0.4
		c-0.4-0.1-0.6-0.4-0.5-0.7c0.1-0.4,0.4-0.6,0.7-0.5c0.7,0.2,1.5,0.3,2.2,0.4c0.4,0.1,0.5,0.4,0.5,0.7
		C90.6,22.3,90.3,22.5,90.1,22.5L90.1,22.5z M60.8,22c-0.3,0-0.5-0.2-0.6-0.5c-0.1-0.4,0.2-0.7,0.5-0.7c0.7-0.2,1.5-0.3,2.2-0.4
		c0.4-0.1,0.7,0.2,0.7,0.5c0.1,0.4-0.2,0.7-0.5,0.7C62.4,21.7,61.6,21.9,60.8,22L60.8,22z M85.6,21.7L85.6,21.7
		c-0.8-0.1-1.6-0.2-2.3-0.3c-0.4,0-0.6-0.4-0.5-0.7c0-0.4,0.4-0.6,0.7-0.5c0.7,0.1,1.5,0.2,2.2,0.3c0.4,0.1,0.6,0.4,0.5,0.7
		C86.1,21.5,86,21.7,85.6,21.7L85.6,21.7z M173.4,21.5c-0.2,0-0.4-0.1-0.5-0.3c-0.2-0.3-0.2-0.7,0.1-0.9c0.6-0.4,1.2-1,1.8-1.4
		c0.3-0.2,0.7-0.2,0.9,0.1s0.2,0.7-0.1,0.9c-0.6,0.4-1.2,1-1.8,1.4C173.7,21.5,173.6,21.5,173.4,21.5L173.4,21.5z M65.4,21.4
		c-0.4,0-0.6-0.3-0.6-0.5c0-0.4,0.2-0.7,0.5-0.7c0.7-0.1,1.5-0.2,2.2-0.3c0.4,0,0.7,0.3,0.7,0.6c0,0.4-0.3,0.7-0.6,0.7
		C66.9,21.2,66.1,21.3,65.4,21.4C65.4,21.3,65.4,21.4,65.4,21.4L65.4,21.4z M81.1,21.2L78.8,21c-0.4,0-0.6-0.4-0.6-0.7
		c0-0.4,0.4-0.6,0.7-0.6c0.8,0,1.5,0.1,2.3,0.2c0.4,0,0.6,0.4,0.5,0.7C81.7,20.9,81.4,21.2,81.1,21.2L81.1,21.2z M69.8,20.9
		c-0.4,0-0.6-0.3-0.6-0.6c0-0.4,0.3-0.6,0.6-0.7c0.7,0,1.5-0.1,2.3-0.1c0.4,0,0.6,0.3,0.6,0.6c0,0.4-0.3,0.6-0.6,0.6
		C71.3,20.9,70.6,20.9,69.8,20.9L69.8,20.9z M76.6,20.9h-2.2c-0.4,0-0.6-0.3-0.6-0.6c0-0.4,0.3-0.6,0.6-0.6c0.8,0,1.5,0,2.3,0.1
		c0.4,0,0.6,0.4,0.6,0.7C77.3,20.7,76.9,20.9,76.6,20.9L76.6,20.9z M176.9,18.6c-0.2,0-0.4-0.1-0.5-0.2c-0.3-0.3-0.2-0.7,0.1-0.9
		c0.5-0.5,1.2-1,1.7-1.5c0.3-0.3,0.7-0.2,0.9,0c0.3,0.3,0.2,0.7,0,0.9c-0.5,0.5-1.2,1-1.7,1.5C177.3,18.6,177.1,18.6,176.9,18.6
		L176.9,18.6z M180.3,15.6c-0.2,0-0.4-0.1-0.4-0.2c-0.3-0.3-0.3-0.7,0-0.9c0.5-0.5,1.1-1,1.6-1.5c0.3-0.3,0.6-0.3,0.9,0
		c0.3,0.3,0.3,0.6,0,0.9c-0.5,0.5-1.1,1.1-1.7,1.6C180.6,15.6,180.5,15.6,180.3,15.6L180.3,15.6z M183.6,12.5
		c-0.2,0-0.4-0.1-0.4-0.2c-0.3-0.3-0.3-0.6,0-0.9l1.6-1.6c0.3-0.3,0.6-0.3,0.9,0c0.3,0.3,0.3,0.6,0,0.9l-1.6,1.6
		C183.8,12.4,183.7,12.5,183.6,12.5L183.6,12.5z M186.7,9.2c-0.2,0-0.4-0.1-0.4-0.2c-0.3-0.3-0.3-0.6,0-0.9c0.5-0.5,1-1.1,1.5-1.7
		c0.3-0.3,0.6-0.3,0.9,0c0.3,0.3,0.3,0.6,0,0.9c-0.5,0.5-1,1.2-1.5,1.7C187,9.2,186.9,9.2,186.7,9.2L186.7,9.2z M186.7,9.2"/>
	<path class="st2" d="M193.5,0.1l-11.7,5.5c-0.2,0.1-0.3,0.4-0.1,0.5l7.8,6.8c0.2,0.2,0.4,0.1,0.5-0.2L194,0.4
		C194.1,0.1,193.8-0.1,193.5,0.1L193.5,0.1z M193.5,0.1"/>
	<path class="st3" d="M177.1,68.6c-2.9,8.3-1.7,18.1-1.7,18.1s10.8-5.4,16-13.6c5.2-8.2,3.1-13.9,3.1-13.9S180.4,59.6,177.1,68.6
		L177.1,68.6z M177.1,68.6"/>
	<path class="st2" d="M175.2,87.3l-0.1-0.5c0-0.1-1.2-10,1.7-18.3c1.3-3.8,4.9-6.7,10.1-8.3c4-1.2,7.5-1.2,7.6-1.2h0.3l0.1,0.3
		c0.1,0.3,2,6-3.2,14.1c-5.2,8.2-16.1,13.7-16.2,13.7L175.2,87.3z M177.1,68.6l0.4,0.1c-2.5,7-1.9,15.4-1.7,17.5
		c2.1-1.2,11-6.1,15.4-13.2c4.4-7,3.5-12.2,3.2-13.3c-2,0.1-14,1-16.9,9.1L177.1,68.6z M177.1,68.6"/>
	<path class="st3" d="M11.9,100.6c-5-3.4-11.6-4.3-11.6-4.3s1.7,8.1,6.1,12.9c4.4,4.8,8.5,4.4,8.5,4.4S17.3,104.3,11.9,100.6
		L11.9,100.6z M11.9,100.6"/>
	<path class="st2" d="M14.8,114c-0.9,0-4.5-0.3-8.5-4.5c-4.4-4.8-6.1-12.9-6.2-13L0,96.1h0.4c0.1,0,6.7,0.9,11.7,4.3
		c5.5,3.7,3.3,13,3.1,13.4v0.2H14.8z M0.6,96.7c0.4,1.6,2.1,8.3,5.9,12.4c3.8,4.1,7.4,4.4,8.2,4.4c0.3-1.3,1.8-9.4-3-12.7
		C7.5,97.9,2,96.9,0.6,96.7L0.6,96.7z M0.6,96.7"/>
	<path class="st2" d="M51.2,140.4c-0.4,0-0.8-0.2-1.2-0.4c-0.5-0.4-0.7-1.1-0.6-1.7l2.2-10.5c-8.1-0.9-13.3-6.8-13.3-15.4V86.5
		c0-9.3,7.5-16.9,16.9-16.9h41c8.4,0,15.7,6.3,16.7,14.7c0.1,1-0.5,1.9-1.5,2c-1,0.1-1.9-0.5-2-1.5c-0.8-6.7-6.5-11.6-13.2-11.6
		H55.2c-7.4,0-13.3,6-13.3,13.3v25.8c0,7.4,4.5,11.9,11.9,11.9c0.5,0,1.1,0.3,1.4,0.6c0.4,0.4,0.4,1,0.4,1.5l-2,9.3l5.1-2
		c0.9-0.4,2,0.1,2.3,1c0.4,0.9-0.1,2-1,2.3l-8.1,3.2C51.6,140.3,51.4,140.4,51.2,140.4L51.2,140.4z M51.2,140.4"/>
	<path class="st2" d="M91.2,86.6H80.7c-1,0-1.8-0.8-1.8-1.8c0-1,0.8-1.8,1.8-1.8h10.5c1,0,1.8,0.8,1.8,1.8
		C93,85.8,92.2,86.6,91.2,86.6L91.2,86.6z M91.2,86.6"/>
	<path class="st2" d="M137.6,179.6c-0.4,0-0.7-0.1-1.1-0.4l-22.8-16.5H80.7c-12.5,0-22.6-9.9-22.6-22.3v-35.3
		c0-7.8,4.1-14.9,10.8-18.9c0.8-0.5,2-0.3,2.4,0.6c0.5,0.8,0.3,2-0.6,2.4c-5.7,3.4-9.1,9.3-9.1,15.9v35.3c0,10.3,8.5,18.7,19.1,18.7
		h33.5c0.4,0,0.7,0.1,1.1,0.4l20.3,14.7l-0.7-13c0-0.4,0.2-1,0.4-1.3c0.4-0.4,0.8-0.5,1.2-0.5c10.4,0,18.8-8.4,18.8-18.8v-35.3
		c0-10.3-8.4-18.6-18.8-18.6h-25.2c-1,0-1.8-0.8-1.8-1.8c0-1,0.8-1.8,1.8-1.8h25.3c12.3,0,22.4,9.9,22.4,22.2v35.3
		c0,11.7-9.1,21.3-20.5,22.3l0.7,14.9c0,0.7-0.4,1.3-0.9,1.7C138.1,179.6,137.8,179.6,137.6,179.6L137.6,179.6z M137.6,179.6"/>
	<path class="st3" d="M85.3,127c0,2.9,2.4,5.3,5.3,5.3c2.9,0,5.3-2.4,5.3-5.3c0-2.9-2.4-5.3-5.3-5.3C87.7,121.5,85.3,123.9,85.3,127
		L85.3,127z M85.3,127"/>
	<path class="st2" d="M82.6,129.5c-4.4,0-8-3.6-8-8c0-4.4,3.6-8,8-8c4.4,0,8,3.6,8,8C90.5,126,86.9,129.5,82.6,129.5L82.6,129.5z
		 M82.6,117.5"/>
	<path class="st3" d="M119.6,127c0,2.9,2.4,5.3,5.3,5.3c2.9,0,5.3-2.4,5.3-5.3c0-2.9-2.4-5.3-5.3-5.3
		C122,121.5,119.6,123.9,119.6,127L119.6,127z M119.6,127"/>
	<path class="st2" d="M132.9,129.5c-4.4,0-8-3.6-8-8c0-4.4,3.6-8,8-8c4.4,0,8,3.6,8,8C140.9,126,137.3,129.5,132.9,129.5
		L132.9,129.5z M103.3,127.7c-0.4,0-0.6-0.1-0.9-0.4c-0.4-0.4-0.4-1.2,0-1.7l9.7-9.7c0.4-0.4,1.2-0.4,1.7,0c0.4,0.4,0.4,1.2,0,1.7
		l-9.6,9.7C103.9,127.5,103.6,127.7,103.3,127.7L103.3,127.7z M103.3,127.7"/>
	<path class="st2" d="M113,127.7c-0.4,0-0.6-0.1-0.9-0.4l-9.7-9.7c-0.4-0.4-0.4-1.2,0-1.7c0.4-0.4,1.2-0.4,1.7,0l9.7,9.7
		c0.4,0.4,0.4,1.2,0,1.7C113.6,127.5,113.3,127.7,113,127.7L113,127.7z M113,127.7"/>
	<path class="st2" d="M15.1,113l-0.1,0.7l-0.1,0c0.5,1.3,0.9,2.7,1.2,4.1l0.5-0.2C16.2,116.1,15.7,114.5,15.1,113z"/>
	<path class="st2" d="M194.6,59.3l0.1,0.3c1.7-1.2,3.5-2.3,5.3-3.3l-0.4-0.7c-2.1,1.1-4.1,2.3-5.9,3.7H194.6z"/>
</g>
</svg>
