<svg width="164" height="120" viewBox="0 0 164 120" fill="none" xmlns="http://www.w3.org/2000/svg">
<path d="M135.195 103.355C135.139 103.355 135.082 103.347 135.026 103.332C134.718 103.243 134.541 102.936 134.635 102.644L135.669 99.3938C135.763 99.1021 136.088 98.9354 136.397 99.0236C136.706 99.1119 136.882 99.4195 136.789 99.7112L135.754 102.961C135.679 103.2 135.446 103.355 135.195 103.355Z" fill="#FFC500"/>
<path d="M132.549 112.5C132.494 112.5 132.436 112.493 132.381 112.477C132.072 112.388 131.896 112.081 131.989 111.789L133.024 108.539C133.117 108.247 133.443 108.081 133.752 108.169C134.06 108.257 134.237 108.565 134.143 108.856L133.108 112.107C133.033 112.346 132.801 112.5 132.549 112.5Z" fill="#FFC500"/>
<path d="M137.349 104.661C137.158 104.661 136.974 104.56 136.878 104.382C136.738 104.123 136.835 103.8 137.096 103.661L139.993 102.112C140.253 101.973 140.577 102.07 140.718 102.33C140.858 102.588 140.76 102.912 140.499 103.05L137.602 104.599C137.521 104.64 137.435 104.661 137.349 104.661Z" fill="#FFC500"/>
<path d="M128.532 109.452C128.341 109.452 128.157 109.35 128.061 109.172C127.921 108.913 128.018 108.59 128.279 108.452L131.176 106.902C131.436 106.763 131.76 106.86 131.9 107.12C132.04 107.378 131.943 107.702 131.682 107.84L128.785 109.389C128.705 109.432 128.619 109.452 128.532 109.452Z" fill="#FFC500"/>
<path d="M140.664 108.145C140.61 108.145 140.556 108.137 140.503 108.121L137.212 107.098C136.917 107.006 136.748 106.684 136.838 106.379C136.927 106.074 137.238 105.9 137.534 105.992L140.824 107.015C141.119 107.107 141.288 107.429 141.199 107.734C141.127 107.984 140.904 108.145 140.664 108.145Z" fill="#FFC500"/>
<path d="M131.406 105.532C131.352 105.532 131.298 105.525 131.244 105.508L127.954 104.485C127.659 104.393 127.49 104.071 127.579 103.767C127.669 103.462 127.98 103.287 128.275 103.38L131.566 104.402C131.861 104.494 132.03 104.816 131.94 105.121C131.868 105.371 131.646 105.532 131.406 105.532Z" fill="#FFC500"/>
<path d="M137.597 112.065C137.405 112.065 137.22 111.964 137.123 111.786L135.555 108.924C135.414 108.667 135.512 108.346 135.775 108.208C136.037 108.07 136.363 108.166 136.504 108.424L138.071 111.287C138.212 111.544 138.114 111.865 137.852 112.002C137.77 112.043 137.683 112.065 137.597 112.065Z" fill="#FFC500"/>
<path d="M132.748 103.355C132.556 103.355 132.371 103.254 132.274 103.077L130.706 100.214C130.565 99.9574 130.663 99.636 130.926 99.4987C131.188 99.3603 131.514 99.4565 131.655 99.7146L133.223 102.577C133.364 102.834 133.266 103.155 133.003 103.293C132.921 103.335 132.834 103.355 132.748 103.355Z" fill="#FFC500"/>
<path d="M34.3028 6.33871C34.2408 6.33871 34.1774 6.33054 34.1155 6.31283C33.7725 6.21479 33.5765 5.87299 33.6803 5.54889L34.8302 1.93751C34.934 1.61341 35.2957 1.42821 35.6387 1.52626C35.9817 1.6243 36.1777 1.9661 36.0739 2.2902L34.9239 5.90158C34.8403 6.16713 34.5824 6.33871 34.3028 6.33871Z" fill="#FFC500"/>
<path d="M31.3635 16.5C31.3015 16.5 31.2381 16.4919 31.1761 16.4742C30.8332 16.3761 30.6372 16.0343 30.7409 15.7102L31.8909 12.0988C31.9947 11.7747 32.3564 11.5895 32.6994 11.6876C33.0423 11.7856 33.2383 12.1274 33.1346 12.4515L31.9846 16.0629C31.901 16.3284 31.643 16.5 31.3635 16.5Z" fill="#FFC500"/>
<path d="M36.6965 7.79055C36.4842 7.79055 36.2797 7.67773 36.1728 7.47962C36.0172 7.19231 36.1253 6.83284 36.4156 6.67934L39.6344 4.95808C39.9233 4.80327 40.2835 4.91085 40.4391 5.19947C40.5948 5.48679 40.4866 5.84626 40.1964 5.99976L36.9775 7.72102C36.8878 7.76694 36.7915 7.79055 36.6965 7.79055Z" fill="#FFC500"/>
<path d="M26.8996 13.1129C26.6872 13.1129 26.4827 13.0001 26.3758 12.802C26.2202 12.5147 26.3283 12.1552 26.6186 12.0017L29.8374 10.2805C30.1263 10.1257 30.4865 10.2332 30.6421 10.5219C30.7978 10.8092 30.6896 11.1686 30.3994 11.3221L27.1805 13.0434C27.0922 13.0906 26.9959 13.1129 26.8996 13.1129Z" fill="#FFC500"/>
<path d="M40.3794 11.6612C40.3202 11.6612 40.2595 11.6526 40.2002 11.6341L36.5446 10.498C36.2165 10.3955 36.029 10.0381 36.1283 9.69925C36.2275 9.36039 36.5735 9.16676 36.9016 9.26927L40.5573 10.4054C40.8853 10.5079 41.0728 10.8653 40.9735 11.2042C40.8936 11.4818 40.6468 11.6612 40.3794 11.6612Z" fill="#FFC500"/>
<path d="M30.0927 8.75804C30.0335 8.75804 29.9729 8.7495 29.9136 8.73099L26.2576 7.59483C25.9296 7.49232 25.7422 7.13496 25.8414 6.79611C25.9406 6.45726 26.2865 6.26363 26.6145 6.36614L30.2705 7.50229C30.5985 7.6048 30.7859 7.96216 30.6867 8.30101C30.6068 8.57864 30.3601 8.75804 30.0927 8.75804Z" fill="#FFC500"/>
<path d="M36.9721 16.0162C36.7584 16.0162 36.5526 15.9041 36.4451 15.7072L34.7033 12.5267C34.5467 12.2413 34.6555 11.8841 34.9476 11.7316C35.2383 11.5778 35.6008 11.6847 35.7574 11.9714L37.4992 15.1519C37.6558 15.4374 37.547 15.7946 37.2549 15.9471C37.1646 15.9927 37.0677 16.0162 36.9721 16.0162Z" fill="#FFC500"/>
<path d="M31.5846 6.33872C31.3708 6.33872 31.165 6.22662 31.0575 6.0298L29.3157 2.8493C29.1591 2.56384 29.2679 2.20669 29.56 2.05418C29.8507 1.90037 30.2132 2.00725 30.3698 2.29402L32.1116 5.47451C32.2683 5.75998 32.1594 6.11713 31.8673 6.26964C31.7771 6.31656 31.6801 6.33872 31.5846 6.33872Z" fill="#FFC500"/>
<path d="M52.6704 102.504V17.3645H95.1671L95.4664 37.1712L117.014 37.4668V61.4123V85.3577V96.887L110.131 102.504H52.6704Z" fill="#FFE9BC" stroke="#FFE9BC"/>
<path d="M42.7946 92.4532C44.0752 92.4532 96.2009 92.9425 96.2009 92.9425L98.3651 98.528L102.05 101.44L98.8936 102.504H51.3591L45.7669 100.228L42.7946 94.5251V92.4532Z" fill="#F6B170"/>
<path d="M117.274 93.6329C116.867 93.6329 116.476 93.4742 116.189 93.1918C115.901 92.9094 115.739 92.5264 115.739 92.1271V37.3132L96.0641 18.0089H53.6368V90.624H96.1868C96.5937 90.624 96.984 90.7826 97.2717 91.065C97.5595 91.3474 97.7211 91.7304 97.7211 92.1298C97.7211 92.5292 97.5595 92.9122 97.2717 93.1946C96.984 93.477 96.5937 93.6356 96.1868 93.6356H52.1108C51.7039 93.6356 51.3137 93.477 51.0259 93.1946C50.7382 92.9122 50.5765 92.5292 50.5765 92.1298V16.5058C50.5765 16.1064 50.7382 15.7234 51.0259 15.4411C51.3137 15.1587 51.7039 15 52.1108 15H96.6973C96.8998 14.9992 97.1004 15.0378 97.2876 15.1134C97.4748 15.1891 97.6449 15.3003 97.7881 15.4408L118.361 35.6322C118.504 35.7721 118.617 35.9381 118.694 36.1209C118.771 36.3036 118.811 36.4994 118.811 36.6972V92.1271C118.811 92.3251 118.771 92.5213 118.694 92.7044C118.617 92.8874 118.504 93.0537 118.361 93.1936C118.218 93.3335 118.049 93.4444 117.862 93.5198C117.675 93.5952 117.475 93.6336 117.274 93.6329Z" fill="#FFE9BC"/>
<path d="M96.3082 36.4345H116.659L96.3082 16.3322V36.4345Z" fill="#F6B170"/>
<path d="M117.342 38.0586H96.5085C96.0972 38.0586 95.7028 37.9012 95.412 37.6212C95.1212 37.3411 94.9579 36.9612 94.9579 36.5651V16.5033C94.9558 16.2062 95.0459 15.9152 95.2165 15.6676C95.387 15.42 95.6304 15.2271 95.9155 15.1135C96.2006 14.9999 96.5144 14.9707 96.8167 15.0298C97.1191 15.0889 97.3963 15.2335 97.6128 15.4451L118.443 35.507C118.661 35.7157 118.809 35.9819 118.869 36.2719C118.93 36.5619 118.899 36.8627 118.782 37.136C118.664 37.4093 118.465 37.6429 118.21 37.8071C117.955 37.9714 117.654 38.0589 117.347 38.0586H117.342ZM98.0619 35.0663H113.596L98.0619 20.1049V35.0663Z" fill="#F6B170"/>
<path d="M106.927 104.278C103.778 104.273 100.76 103 98.5336 100.739C96.3075 98.4767 95.0553 95.4103 95.0516 92.2119C95.0516 91.8053 95.2106 91.4154 95.4936 91.1279C95.7766 90.8405 96.1605 90.679 96.5607 90.679C96.961 90.679 97.3448 90.8405 97.6278 91.1279C97.9108 91.4154 98.0698 91.8053 98.0698 92.2119C98.0491 93.4073 98.263 94.5949 98.699 95.7054C99.135 96.8159 99.7844 97.827 100.609 98.6798C101.434 99.5326 102.418 100.21 103.503 100.672C104.589 101.135 105.754 101.373 106.931 101.373C108.108 101.373 109.273 101.135 110.358 100.672C111.444 100.21 112.428 99.5326 113.252 98.6798C114.077 97.827 114.727 96.8159 115.163 95.7054C115.599 94.5949 115.813 93.4073 115.792 92.2119C115.792 91.8053 115.951 91.4154 116.234 91.1279C116.517 90.8405 116.901 90.679 117.301 90.679C117.701 90.679 118.085 90.8405 118.368 91.1279C118.651 91.4154 118.81 91.8053 118.81 92.2119C118.806 95.4118 117.553 98.4794 115.325 100.742C113.097 103.004 110.077 104.275 106.927 104.278Z" fill="#F6B170"/>
<path d="M107.134 104.275H53.0466C49.8523 104.272 46.7899 103.111 44.5315 101.047C42.273 98.983 41.0029 96.1846 41 93.266C41 92.8951 41.1613 92.5393 41.4484 92.277C41.7355 92.0147 42.1249 91.8673 42.5309 91.8673C42.9369 91.8673 43.3263 92.0147 43.6134 92.277C43.9005 92.5393 44.0618 92.8951 44.0618 93.266C44.064 95.4436 45.0115 97.5314 46.6965 99.0714C48.3814 100.611 50.6662 101.478 53.0494 101.48H107.134C107.54 101.48 107.929 101.628 108.216 101.89C108.504 102.152 108.665 102.508 108.665 102.879C108.665 103.25 108.504 103.606 108.216 103.868C107.929 104.131 107.54 104.278 107.134 104.278V104.275Z" fill="#F6B170"/>
<path d="M96.3292 95.0021H42.5325C42.1261 95.0021 41.7363 94.7744 41.4489 94.3691C41.1615 93.9638 41 93.4141 41 92.841C41 92.2678 41.1615 91.7181 41.4489 91.3128C41.7363 90.9075 42.1261 90.6798 42.5325 90.6798H96.3292C96.7357 90.6798 97.1255 90.9075 97.4129 91.3128C97.7003 91.7181 97.8617 92.2678 97.8617 92.841C97.8617 93.4141 97.7003 93.9638 97.4129 94.3691C97.1255 94.7744 96.7357 95.0021 96.3292 95.0021Z" fill="#F6B170"/>
<path d="M96.3358 48.7014H60.481C60.0764 48.7014 59.6885 48.5457 59.4024 48.2685C59.1164 47.9913 58.9557 47.6153 58.9557 47.2233C58.9557 46.8313 59.1164 46.4553 59.4024 46.1781C59.6885 45.9009 60.0764 45.7452 60.481 45.7452H96.3358C96.7403 45.7452 97.1283 45.9009 97.4143 46.1781C97.7004 46.4553 97.8611 46.8313 97.8611 47.2233C97.8611 47.6153 97.7004 47.9913 97.4143 48.2685C97.1283 48.5457 96.7403 48.7014 96.3358 48.7014Z" fill="#F6B170"/>
<path d="M78.4099 59.3442H60.4505C60.054 59.3442 59.6738 59.1884 59.3935 58.9112C59.1132 58.634 58.9557 58.2581 58.9557 57.8661C58.9557 57.474 59.1132 57.0981 59.3935 56.8209C59.6738 56.5437 60.054 56.3879 60.4505 56.3879H78.4099C78.8064 56.3879 79.1866 56.5437 79.4669 56.8209C79.7473 57.0981 79.9047 57.474 79.9047 57.8661C79.9047 58.2581 79.7473 58.634 79.4669 58.9112C79.1866 59.1884 78.8064 59.3442 78.4099 59.3442Z" fill="#F6B170"/>
<path d="M78.4099 69.3945H60.4505C60.054 69.3945 59.6738 69.2388 59.3935 68.9616C59.1132 68.6844 58.9557 68.3084 58.9557 67.9164C58.9557 67.5244 59.1132 67.1484 59.3935 66.8712C59.6738 66.594 60.054 66.4383 60.4505 66.4383H78.4099C78.8064 66.4383 79.1866 66.594 79.4669 66.8712C79.7473 67.1484 79.9047 67.5244 79.9047 67.9164C79.9047 68.3084 79.7473 68.6844 79.4669 68.9616C79.1866 69.2388 78.8064 69.3945 78.4099 69.3945Z" fill="#F6B170"/>
<path d="M78.4099 78.8543H60.4505C60.054 78.8543 59.6738 78.6986 59.3935 78.4214C59.1132 78.1442 58.9557 77.7682 58.9557 77.3762C58.9557 76.9842 59.1132 76.6082 59.3935 76.331C59.6738 76.0538 60.054 75.8981 60.4505 75.8981H78.4099C78.8064 75.8981 79.1866 76.0538 79.4669 76.331C79.7473 76.6082 79.9047 76.9842 79.9047 77.3762C79.9047 77.7682 79.7473 78.1442 79.4669 78.4214C79.1866 78.6986 78.8064 78.8543 78.4099 78.8543Z" fill="#F6B170"/>
<path d="M123 70.5769C123 67.3027 122.035 64.102 120.226 61.3795C118.418 58.6571 115.847 56.5352 112.839 55.2822C109.832 54.0292 106.522 53.7014 103.329 54.3402C100.136 54.9789 97.2034 56.5556 94.9015 58.8709C92.5995 61.1861 91.0318 64.1359 90.3967 67.3472C89.7616 70.5586 90.0876 73.8872 91.3334 76.9122C92.5792 79.9372 94.6889 82.5227 97.3958 84.3418C100.103 86.1609 103.285 87.1318 106.54 87.1318C110.906 87.1318 115.093 85.3876 118.179 82.283C121.266 79.1784 123 74.9676 123 70.5769Z" fill="#D26E43"/>
<path d="M111.578 65.2695H109.129C109.488 65.832 109.723 66.4844 109.832 67.2266H112.188L111.566 69.5469H109.82C109.641 70.7109 109.176 71.6367 108.426 72.3242C107.676 73.0117 106.598 73.4922 105.191 73.7656L110.312 79.8359V80H106.434L100.762 73.3555L100.75 71.293H103.527C104.973 71.293 105.879 70.7109 106.246 69.5469H100.469L101.078 67.2266H106.176C105.793 66.2812 104.953 65.8008 103.656 65.7852H100.469L101.16 62.9375H112.188L111.578 65.2695Z" fill="white"/>
<path d="M142.966 30.8226C142.898 30.8226 142.828 30.8136 142.76 30.7941C142.383 30.6863 142.167 30.3103 142.282 29.9538L143.547 25.9813C143.661 25.6248 144.059 25.421 144.436 25.5289C144.813 25.6367 145.029 26.0127 144.915 26.3692L143.65 30.3417C143.558 30.6338 143.274 30.8226 142.966 30.8226Z" fill="#C6EFFF"/>
<path d="M139.733 42C139.665 42 139.595 41.991 139.527 41.9715C139.15 41.8637 138.934 41.4877 139.048 41.1312L140.313 37.1587C140.427 36.8021 140.825 36.5984 141.203 36.7063C141.58 36.8141 141.795 37.1901 141.681 37.5466L140.416 41.5191C140.324 41.8112 140.041 42 139.733 42Z" fill="#C6EFFF"/>
<path d="M145.599 32.4196C145.366 32.4196 145.141 32.2955 145.023 32.0775C144.852 31.7615 144.971 31.3661 145.29 31.1972L148.831 29.3038C149.149 29.1335 149.545 29.2519 149.716 29.5694C149.888 29.8854 149.769 30.2808 149.449 30.4497L145.909 32.3431C145.81 32.3936 145.704 32.4196 145.599 32.4196Z" fill="#C6EFFF"/>
<path d="M134.823 38.2742C134.589 38.2742 134.364 38.1501 134.247 37.9322C134.076 37.6161 134.195 37.2207 134.514 37.0519L138.055 35.1585C138.373 34.9882 138.769 35.1065 138.94 35.424C139.111 35.7401 138.992 36.1355 138.673 36.3043L135.132 38.1977C135.035 38.2497 134.929 38.2742 134.823 38.2742Z" fill="#C6EFFF"/>
<path d="M149.651 36.6773C149.585 36.6773 149.519 36.6679 149.453 36.6476L145.432 35.3978C145.071 35.2851 144.865 34.892 144.974 34.5192C145.083 34.1465 145.464 33.9335 145.825 34.0463L149.846 35.296C150.207 35.4088 150.413 35.8019 150.304 36.1746C150.216 36.48 149.945 36.6773 149.651 36.6773Z" fill="#C6EFFF"/>
<path d="M138.335 33.4839C138.27 33.4839 138.203 33.4745 138.138 33.4541L134.117 32.2044C133.756 32.0916 133.55 31.6985 133.659 31.3258C133.768 30.953 134.149 30.74 134.509 30.8528L138.531 32.1026C138.892 32.2153 139.098 32.6084 138.989 32.9812C138.901 33.2866 138.629 33.4839 138.335 33.4839Z" fill="#C6EFFF"/>
<path d="M145.903 41.4677C145.667 41.4677 145.441 41.3444 145.323 41.1279L143.407 37.6294C143.235 37.3153 143.354 36.9225 143.676 36.7547C143.995 36.5855 144.394 36.7031 144.566 37.0185L146.482 40.5171C146.655 40.8311 146.535 41.224 146.214 41.3917C146.114 41.4419 146.008 41.4677 145.903 41.4677Z" fill="#C6EFFF"/>
<path d="M139.976 30.8226C139.741 30.8226 139.515 30.6993 139.397 30.4828L137.481 26.9842C137.308 26.6702 137.428 26.2773 137.749 26.1096C138.069 25.9404 138.468 26.058 138.64 26.3734L140.556 29.872C140.728 30.186 140.609 30.5788 140.287 30.7466C140.188 30.7982 140.081 30.8226 139.976 30.8226Z" fill="#C6EFFF"/>
<path d="M25.2372 73C25.1475 73 25.0558 72.9882 24.9661 72.9626C24.47 72.8207 24.1864 72.3263 24.3365 71.8574L26.0002 66.6329C26.1503 66.1641 26.6736 65.8961 27.1697 66.038C27.6659 66.1798 27.9494 66.6743 27.7993 67.1432L26.1357 72.3676C26.0148 72.7518 25.6416 73 25.2372 73Z" fill="#C6EFFF"/>
<path d="M21.6939 87C21.6042 87 21.5125 86.9882 21.4229 86.9626C20.9267 86.8207 20.6431 86.3263 20.7932 85.8574L22.4569 80.6329C22.607 80.1641 23.1303 79.8961 23.6265 80.038C24.1226 80.1798 24.4062 80.6743 24.2561 81.1432L22.5924 86.3676C22.4715 86.7518 22.0983 87 21.6939 87Z" fill="#C6EFFF"/>
<path d="M28.6364 75.3333C28.3519 75.3333 28.078 75.152 27.9349 74.8335C27.7264 74.3717 27.8713 73.7939 28.26 73.5472L32.5717 70.7804C32.9587 70.5315 33.4411 70.7045 33.6497 71.1684C33.8582 71.6302 33.7133 72.2081 33.3245 72.4548L29.0128 75.2216C28.8927 75.2954 28.7637 75.3333 28.6364 75.3333Z" fill="#C6EFFF"/>
<path d="M15.6446 82.3333C15.3601 82.3333 15.0862 82.152 14.9431 81.8335C14.7346 81.3717 14.8795 80.7939 15.2682 80.5472L19.5799 77.7804C19.9669 77.5315 20.4493 77.7045 20.6578 78.1684C20.8664 78.6302 20.7214 79.2081 20.3327 79.4548L16.021 82.2216C15.9026 82.2975 15.7736 82.3333 15.6446 82.3333Z" fill="#C6EFFF"/>
<path d="M34.0281 80C33.9423 80 33.8546 79.9876 33.7688 79.9609L28.4803 78.3172C28.0057 78.1689 27.7345 77.6519 27.8781 77.1617C28.0216 76.6715 28.5222 76.3914 28.9968 76.5397L34.2853 78.1833C34.7599 78.3316 35.0311 78.8486 34.8876 79.3388C34.7719 79.7405 34.4149 80 34.0281 80Z" fill="#C6EFFF"/>
<path d="M19.8554 76.5C19.7696 76.5 19.6819 76.4876 19.5962 76.4608L14.3071 74.8172C13.8327 74.6689 13.5615 74.1519 13.7051 73.6617C13.8486 73.1715 14.349 72.8914 14.8235 73.0397L20.1125 74.6833C20.587 74.8316 20.8581 75.3486 20.7146 75.8388C20.599 76.2404 20.2421 76.5 19.8554 76.5Z" fill="#C6EFFF"/>
<path d="M29.2394 85.8333C28.8959 85.8333 28.5651 85.6832 28.3922 85.4195L25.5925 81.1592C25.3407 80.7769 25.5157 80.2984 25.9851 80.0942C26.4525 79.8881 27.0351 80.0313 27.2869 80.4154L30.0866 84.6757C30.3384 85.0581 30.1634 85.5365 29.694 85.7408C29.5488 85.8019 29.3931 85.8333 29.2394 85.8333Z" fill="#C6EFFF"/>
<path d="M22.1529 73C21.8093 73 21.4785 72.8498 21.3057 72.5862L18.5059 68.3259C18.2541 67.9435 18.4291 67.4651 18.8986 67.2608C19.3659 67.0548 19.9485 67.198 20.2003 67.5821L23.0001 71.8424C23.2519 72.2248 23.0769 72.7032 22.6074 72.9075C22.4623 72.9703 22.3065 73 22.1529 73Z" fill="#C6EFFF"/>
</svg>
