<svg id="Layer_1" data-name="Layer 1" xmlns="http://www.w3.org/2000/svg" xmlns:xlink="http://www.w3.org/1999/xlink" width="400" height="250" viewBox="0 0 400 250"><defs><style>.cls-1{fill:#aca29c;}.cls-2,.cls-21,.cls-9{fill:#fff;}.cls-14,.cls-15,.cls-16,.cls-19,.cls-22,.cls-3,.cls-6{fill:none;}.cls-15,.cls-3{stroke:#d8d4ce;}.cls-19,.cls-20,.cls-21,.cls-3{stroke-linecap:round;}.cls-14,.cls-15,.cls-16,.cls-22,.cls-3{stroke-miterlimit:10;}.cls-14,.cls-15,.cls-16,.cls-19,.cls-20,.cls-21,.cls-22,.cls-3{stroke-width:2px;}.cls-4{fill:#f3f3f2;}.cls-5{fill:#d8d4ce;}.cls-7{fill:#c2bbb5;}.cls-8{clip-path:url(#clip-path);}.cls-9{opacity:0.4;}.cls-10{fill:#93b7ff;}.cls-11{clip-path:url(#clip-path-2);}.cls-12{fill:#f8c4b9;}.cls-13{fill:#fa9;}.cls-14{stroke:#f3f3f2;}.cls-16{stroke:#c2bbb5;}.cls-17{fill:#7a7072;}.cls-18,.cls-20{fill:#504b4b;}.cls-19,.cls-22{stroke:#aca29c;}.cls-19,.cls-20,.cls-21{stroke-linejoin:round;}.cls-20{stroke:#504b4b;}.cls-21{stroke:#f38e7a;}</style><clipPath id="clip-path"><rect class="cls-1" x="196.65" y="142.16" width="46.32" height="34.56"/></clipPath><clipPath id="clip-path-2"><path class="cls-2" d="M196.65,129.35h45.71a13.5,13.5,0,0,1,13.5,13.5v0a0,0,0,0,1,0,0H196.65a0,0,0,0,1,0,0v-13.5A0,0,0,0,1,196.65,129.35Z"/></clipPath></defs><title>Connect Your Page - Large</title><line class="cls-3" x1="29.68" y1="210.85" x2="354.89" y2="210.85"/><polyline class="cls-3" points="134.94 65.02 196.65 33.12 248.76 65.02"/><line class="cls-3" x1="196.65" y1="33.11" x2="159.65" y2="65.02"/><rect class="cls-4" x="249.73" y="88.31" width="82.64" height="117.05"/><rect class="cls-5" x="133.96" y="71.22" width="115.77" height="117.72"/><rect class="cls-6" width="400" height="250"/><rect class="cls-4" x="39.37" y="88.31" width="94.59" height="117.05"/><rect class="cls-7" x="133.96" y="71.22" width="25.69" height="117.72"/><rect class="cls-2" x="159.65" y="71.22" width="90.08" height="39.51"/><rect class="cls-7" x="165.47" y="132" width="24.95" height="56.94"/><rect class="cls-5" x="45.12" y="148.42" width="24.95" height="56.94"/><rect class="cls-5" x="299.17" y="148.24" width="24.95" height="56.94"/><path class="cls-5" d="M185.48,136.94V184H170.41V136.94h15.07m2-2H168.41V186h19.07V134.94Z"/><rect class="cls-1" x="196.65" y="142.16" width="46.32" height="34.56"/><g class="cls-8"><rect class="cls-7" x="196.65" y="142.16" width="34.56" height="34.56"/><rect class="cls-9" x="233.79" y="155.87" width="1.92" height="26.32" transform="translate(188.28 -116.49) rotate(45)"/><rect class="cls-9" x="237.82" y="158.24" width="4.59" height="26.32" transform="translate(191.53 -119.58) rotate(45)"/></g><rect class="cls-4" x="138.29" y="75.67" width="17.03" height="17.03" rx="8.51"/><line class="cls-3" x1="19.94" y1="205.36" x2="357.92" y2="205.36"/><rect class="cls-10" x="133.96" y="64.04" width="115.77" height="7.18"/><path class="cls-2" d="M196.65,129.35h45.71a13.5,13.5,0,0,1,13.5,13.5v0a0,0,0,0,1,0,0H196.65a0,0,0,0,1,0,0v-13.5A0,0,0,0,1,196.65,129.35Z"/><g class="cls-11"><path class="cls-1" d="M196.65,129.35h1a13.5,13.5,0,0,1,13.5,13.5v0a0,0,0,0,1,0,0h-14.5a0,0,0,0,1,0,0v-13.5A0,0,0,0,1,196.65,129.35Z"/></g><path class="cls-12" d="M236,102.21H176.14A4.19,4.19,0,0,0,172,98V83.93a4.19,4.19,0,0,0,4.18-4.19H236a4.19,4.19,0,0,0,4.18,4.19V98A4.19,4.19,0,0,0,236,102.21Z"/><path class="cls-13" d="M232.22,85.21a9.78,9.78,0,0,0,2.48,2.49v6.56a9.74,9.74,0,0,0-2.48,2.48H179.91a9.74,9.74,0,0,0-2.48-2.48V87.7a9.78,9.78,0,0,0,2.48-2.49h52.31m1.13-2H178.78a7.71,7.71,0,0,1-3.35,3.36v8.81a7.71,7.71,0,0,1,3.35,3.36h54.57a7.71,7.71,0,0,1,3.35-3.36V86.57a7.71,7.71,0,0,1-3.35-3.36Z"/><line class="cls-14" x1="138.29" y1="99.1" x2="155.32" y2="99.1"/><line class="cls-14" x1="138.29" y1="104.72" x2="155.32" y2="104.72"/><line class="cls-14" x1="138.29" y1="110.35" x2="155.32" y2="110.35"/><line class="cls-15" x1="168.41" y1="165.33" x2="187.48" y2="165.33"/><rect class="cls-4" x="39.37" y="88.31" width="94.59" height="44.1"/><rect class="cls-5" x="35.84" y="83.21" width="98.12" height="5.1"/><rect class="cls-5" x="32.33" y="78.11" width="101.63" height="5.1"/><rect class="cls-5" x="39.37" y="132.86" width="94.59" height="5.1"/><line class="cls-16" x1="133.96" y1="84.18" x2="35.84" y2="84.18"/><rect class="cls-5" x="76.4" y="148.42" width="52.03" height="47.23"/><rect class="cls-5" x="255.86" y="148.42" width="38.3" height="47.23"/><path class="cls-5" d="M56.59,96.47h0a8.65,8.65,0,0,1,8.65,8.65v19.21a0,0,0,0,1,0,0H47.94a0,0,0,0,1,0,0V105.12A8.65,8.65,0,0,1,56.59,96.47Z"/><path class="cls-5" d="M86.66,96.47h0a8.65,8.65,0,0,1,8.65,8.65v19.21a0,0,0,0,1,0,0H78a0,0,0,0,1,0,0V105.12A8.65,8.65,0,0,1,86.66,96.47Z"/><path class="cls-5" d="M116.74,96.47h0a8.65,8.65,0,0,1,8.65,8.65v19.21a0,0,0,0,1,0,0H108.09a0,0,0,0,1,0,0V105.12A8.65,8.65,0,0,1,116.74,96.47Z"/><rect class="cls-2" x="76.4" y="190.85" width="52.03" height="4.79"/><line class="cls-3" x1="196.65" y1="33.11" x2="196.65" y2="10"/><rect class="cls-7" x="249.73" y="83.21" width="82.64" height="5.1"/><rect class="cls-7" x="249.73" y="80.66" width="87.44" height="2.55"/><rect class="cls-5" x="255.86" y="95.27" width="17.86" height="27.86"/><rect class="cls-5" x="281.06" y="95.27" width="17.86" height="27.86"/><rect class="cls-5" x="306.26" y="95.27" width="17.86" height="27.86"/><circle class="cls-4" cx="200" cy="123.36" r="3.35"/><rect class="cls-5" x="260.59" y="127.79" width="58.79" height="15.79" rx="7.9"/><polygon class="cls-5" points="353.61 236.52 366.62 236.52 363.94 220.2 350.94 220.2 353.61 236.52"/><path class="cls-1" d="M352.7,230.73a2.3,2.3,0,0,0,2.35-1.72,3.39,3.39,0,0,1,3.39-2.71,5.12,5.12,0,0,1,4.28,2.71,3.41,3.41,0,0,0,2.91,1.72h0l1.6,9.78h-13l-1.61-9.78Z"/><rect class="cls-5" x="315.8" y="218.07" width="14.62" height="18.66" transform="translate(595.44 513.66) rotate(-168.71)"/><path class="cls-1" d="M329.56,232.41s-1.32,7.33-1.58,8.1H301.43c-.74-3.83,2.18-6.34,3.89-7.15,2.29-1.09,2.84-.46,5.7-1.86a12.53,12.53,0,0,0,4.63-4,2.38,2.38,0,0,1,1.56,1.14,2.13,2.13,0,0,1,.09,1.46,3.32,3.32,0,0,0,2.92,4.14h.07a6.85,6.85,0,0,0,4-1.1c1.86-1.24,2.07-2.81,3.77-3.25a3.56,3.56,0,0,1,2,.11Z"/><g id="girl"><path class="cls-17" d="M321.68,135.49c-1.31,1.85-2.56,3.18-2.74,5.44l.57.9a19.78,19.78,0,0,0,4.38,4.71l1.36-9"/><rect class="cls-13" x="356.58" y="102.7" width="10.87" height="33.93" rx="5.44" transform="translate(669.2 -106.21) rotate(125.38)"/><path class="cls-13" d="M366.1,123.82,353,132.19l6,8.81,15.55-9.69a5.45,5.45,0,0,0,1.65-7.52h0"/><g id="head"><path id="head-2" data-name="head" class="cls-17" d="M337.66,98.15A9.61,9.61,0,0,1,338,94.9c-.34-.24-.75-.45-.75-.69,0-.67.77-.83,1.64-1.48.37-.87.73-1.72,1-2.27.84-1.64,2.16-3,4.1-3a4.24,4.24,0,0,1,4.23,4.23h0v15.91h-8v-6.18A3.61,3.61,0,0,1,337.66,98.15Z"/><g id="face"><path class="cls-18" d="M340.13,101.44a5.16,5.16,0,0,0,1.78.37,4.68,4.68,0,0,0,1.19-.16l-2.94,2.88Z"/></g></g><polygon class="cls-7" points="348.32 223.73 366.83 223.73 353.11 131.46 334.79 132.39 348.32 223.73"/><polyline class="cls-7" points="341.93 148.01 331.62 224.14 313.38 224.14 325.98 131.4 343.86 132.39"/><path class="cls-13" d="M352.79,107.56l-2.55-.1H326.86c-3.4,0-3,2.76-3,6.16v14.52a4.24,4.24,0,0,0,4.24,4.25H352A4.25,4.25,0,0,0,356.1,129l2-9.14"/><line class="cls-19" x1="339.6" y1="164.85" x2="341.93" y2="148.01"/><path class="cls-20" d="M345.54,95.55v3.54c0,1.12,0,2.27,0,3.4a.37.37,0,0,0,.56.31,2.18,2.18,0,0,1,1.18-.29,6.83,6.83,0,0,1,2,.53,3.7,3.7,0,0,0,2,.24c.68-.16,1.24-.66,1.92-.84a6.26,6.26,0,0,1,2,0,2.16,2.16,0,0,0,1.8-.61,55,55,0,0,1-3.85-7.67c-.79-1.93-1.51-4-3-5.44A7.05,7.05,0,0,0,341,88v.26a3.74,3.74,0,0,0,.71,3.29A18.09,18.09,0,0,0,344.14,94,12.72,12.72,0,0,1,345.54,95.55Z"/><path class="cls-17" d="M322.4,140.45a8.11,8.11,0,0,1,2.85-2.91,25.91,25.91,0,0,0,3.36-2.4c.28-.26.55-.69.31-1a.83.83,0,0,0-.67-.2c-1.71,0-5.31.3-7,.32"/><path class="cls-13" d="M303.06,123.11h0a5.43,5.43,0,0,1,7.6-1.16l14.23,10.87-6.43,8.77-14.23-10.88A5.43,5.43,0,0,1,303.06,123.11Z"/><path class="cls-13" d="M304.28,121.91l18.81-13.35a5.43,5.43,0,0,1,7.58,1.28h0a5.44,5.44,0,0,1-1.29,7.58L313.7,128.56"/><path class="cls-17" d="M354,137.45c-.07-.48-.17-1.11-.24-1.6-.16-1.1-.33-2.21-.49-3.31l4.33,6.31a11.9,11.9,0,0,1-2.26,8.62l-.94-7.24a6,6,0,0,0-1.77-1.67c-.15-.09-.54-.29-.55-.59a.63.63,0,0,1,.28-.47.88.88,0,0,1,.55-.15,16.69,16.69,0,0,1,2.27.31"/><line class="cls-21" x1="329.38" y1="117.42" x2="323.83" y2="121.37"/><line class="cls-21" x1="316.69" y1="126.43" x2="313.7" y2="128.56"/><line class="cls-21" x1="357.39" y1="123.04" x2="358.06" y2="119.89"/></g><rect class="cls-2" x="255.86" y="190.85" width="38.3" height="4.79"/><line class="cls-22" x1="249.73" y1="84.29" x2="332.37" y2="84.29"/><line class="cls-3" x1="282.65" y1="240.47" x2="374.52" y2="240.51"/><line class="cls-16" x1="206.83" y1="123.36" x2="242.27" y2="123.36"/><line class="cls-16" x1="196.65" y1="183.29" x2="242.27" y2="183.29"/></svg>