<svg width="120" height="120" viewBox="0 0 120 120" fill="none" xmlns="http://www.w3.org/2000/svg">
<path d="M103.948 83.75V43.5L99.7519 47.7374L94.9904 43.5732L90.8674 47.7374L86.1059 43.5732L81.9829 47.7374L77.2253 43.5771L73.0985 47.7374L68.3409 43.5732L64.2178 47.7374L59.4564 43.5732L55.3334 47.7374L50.4873 43.5L50.4873 75.0827C50.4873 79.8709 54.3603 83.75 59.141 83.75H103.948Z" fill="#FFE9BC"/>
<path d="M95.5266 82.1453H40.9121V92.1608H95.5266V82.1453Z" fill="#F6B170"/>
<path d="M78.0248 35.5345C82.8041 35.5345 86.6785 31.654 86.6785 26.8672C86.6785 22.0804 82.8041 18.2 78.0248 18.2C73.2455 18.2 69.3711 22.0804 69.3711 26.8672C69.3711 31.654 73.2455 35.5345 78.0248 35.5345Z" fill="#F6B170"/>
<rect x="71.6797" y="59.7917" width="20.7689" height="3.08169" fill="white"/>
<path d="M41.8724 92.1607C46.6518 92.1607 50.5261 88.2803 50.5261 83.4935C50.5261 78.7066 46.6518 74.8262 41.8724 74.8262C37.0931 74.8262 33.2188 78.7066 33.2188 83.4935C33.2188 88.2803 37.0931 92.1607 41.8724 92.1607Z" fill="#F6B170"/>
<rect x="71.6797" y="63.2698" width="13.4613" height="3.08169" fill="#F1F1F1"/>
<path d="M95.3324 92.1607C100.112 92.1607 103.986 88.2803 103.986 83.4935C103.986 78.7066 100.112 74.8262 95.3324 74.8262C90.5531 74.8262 86.6787 78.7066 86.6787 83.4935C86.6787 88.2803 90.5531 92.1607 95.3324 92.1607Z" fill="#FFE9BC"/>
<rect x="71.6797" y="67.4958" width="27.6919" height="3.08171" fill="white"/>
<path d="M86.6794 26.6747H33.2188V83.3009H86.6794V26.6747Z" fill="#F6B170"/>
<path d="M62.6367 74.8267L62.7218 74.7532L62.7953 74.8267H62.6367Z" fill="#DDDDDD"/>
<path d="M78.6591 81.5778V26.3777V18.2H62.2689L33.5859 36.5582V81.5778L37.6717 77.6001L41.1479 81.5091L45.1623 77.6001L48.6384 81.5091L52.6496 77.6001L56.129 81.5055L60.1402 77.6001L63.6164 81.5091L67.6308 77.6001L71.1069 81.5091L75.1214 77.6001L78.6591 81.5778Z" fill="#DE835C"/>
<path d="M53.7529 74.8267L53.838 74.7532L53.9115 74.8267H53.7529Z" fill="#DDDDDD"/>
<path d="M44.8691 74.8265L44.9581 74.7491L45.0316 74.8265H44.8691Z" fill="#DDDDDD"/>
<path d="M35.9854 74.8267L36.0704 74.7532L36.1439 74.8267H35.9854Z" fill="#DDDDDD"/>
<path d="M71.6794 18.2V74.8262L67.4833 70.5889L62.7218 74.753L58.5988 70.5889L53.8374 74.753L49.7144 70.5889L44.9568 74.7492L40.8299 70.5889L36.0723 74.753L31.9493 70.5889L27.1878 74.753L23.0648 70.5889L18.2188 74.8262V26.8672C18.2188 22.079 22.0918 18.2 26.8725 18.2H71.6794Z" fill="#FFE9BC"/>
<path d="M71.6802 26.2047C71.6802 26.2047 71.6802 18.2 78.9877 18.2C69.3725 18.2 69.461 18.2 69.461 18.2L71.6802 26.2047Z" fill="#FFE9BC"/>
<path d="M36.1439 74.8267H35.9854L36.0704 74.7532L36.1439 74.8267Z" fill="#4A4E54"/>
<path d="M36.1439 74.8267H35.9854L36.0704 74.7532L36.1439 74.8267Z" fill="#4A4E54"/>
<path d="M45.0316 74.8265H44.8691L44.9581 74.7491L45.0316 74.8265Z" fill="#4A4E54"/>
<path d="M45.0316 74.8265H44.8691L44.9581 74.7491L45.0316 74.8265Z" fill="#4A4E54"/>
<path d="M53.9115 74.8267H53.7529L53.838 74.7532L53.9115 74.8267Z" fill="#4A4E54"/>
<path d="M53.9115 74.8267H53.7529L53.838 74.7532L53.9115 74.8267Z" fill="#4A4E54"/>
<path d="M62.7953 74.8267H62.6367L62.7218 74.7532L62.7953 74.8267Z" fill="#4A4E54"/>
<path d="M62.7953 74.8267H62.6367L62.7218 74.7532L62.7953 74.8267Z" fill="#4A4E54"/>
<rect x="24.7578" y="29.7565" width="30.7687" height="3.0817" fill="white"/>
<rect x="24.7578" y="41.6979" width="30.7687" height="3.08171" fill="white"/>
<rect x="24.7578" y="47.4763" width="19.9997" height="3.0817" fill="white"/>
<rect x="24.7578" y="35.5345" width="41.1532" height="3.0817" fill="white"/>
<ellipse cx="70.4643" cy="105.69" rx="40.6284" ry="4.50981" fill="#FCF6F0"/>
<ellipse cx="22.8293" cy="22.8" rx="13.8293" ry="13.8" fill="#18C4AA"/>
<path d="M18 22.3L21.4573 25.75L27.2195 20" stroke="white" stroke-width="2" stroke-linecap="round" stroke-linejoin="round"/>
</svg>
