<svg width="91" height="90" viewBox="0 0 91 90" fill="none" xmlns="http://www.w3.org/2000/svg">
<path d="M84.3891 67V32L80.7481 35.6847L76.6164 32.0637L73.0388 35.6847L68.9072 32.0637L65.3295 35.6847L61.2012 32.067L57.6203 35.6847L53.492 32.0637L49.9143 35.6847L45.7827 32.0637L42.2051 35.6847L38 32L38 59.4632C38 63.6269 41.3607 67 45.509 67H84.3891Z" fill="#FFE9BC"/>
<path d="M77.0808 65.6045H29.6904V74.3137H77.0808V65.6045Z" fill="#F6B170"/>
<path d="M61.8948 25.0735C66.0419 25.0735 69.4038 21.6992 69.4038 17.5368C69.4038 13.3743 66.0419 10 61.8948 10C57.7477 10 54.3857 13.3743 54.3857 17.5368C54.3857 21.6992 57.7477 25.0735 61.8948 25.0735Z" fill="#F6B170"/>
<rect x="56.3887" y="46.167" width="18.0217" height="2.67973" fill="white"/>
<path d="M30.5247 74.3138C34.6718 74.3138 38.0337 70.9394 38.0337 66.777C38.0337 62.6146 34.6718 59.2402 30.5247 59.2402C26.3775 59.2402 23.0156 62.6146 23.0156 66.777C23.0156 70.9394 26.3775 74.3138 30.5247 74.3138Z" fill="#F6B170"/>
<rect x="56.3887" y="49.1909" width="11.6807" height="2.67973" fill="#F1F1F1"/>
<path d="M76.9133 74.3138C81.0604 74.3138 84.4224 70.9394 84.4224 66.777C84.4224 62.6146 81.0604 59.2402 76.9133 59.2402C72.7662 59.2402 69.4043 62.6146 69.4043 66.777C69.4043 70.9394 72.7662 74.3138 76.9133 74.3138Z" fill="#FFE9BC"/>
<rect x="56.3887" y="52.8662" width="24.0289" height="2.67975" fill="white"/>
<path d="M69.4047 17.3691H23.0156V66.6094H69.4047V17.3691Z" fill="#F6B170"/>
<path d="M48.542 59.2405L48.6158 59.1768L48.6796 59.2405H48.542Z" fill="#DDDDDD"/>
<path d="M62.4441 65.1111V17.1111V10H48.2219L23.333 25.9637V65.1111L26.8783 61.6523L29.8947 65.0514L33.3781 61.6523L36.3944 65.0514L39.875 61.6523L42.8942 65.0483L46.3748 61.6523L49.3912 65.0514L52.8746 61.6523L55.8909 65.0514L59.3743 61.6523L62.4441 65.1111Z" fill="#DE835C"/>
<path d="M40.833 59.2405L40.9068 59.1768L40.9706 59.2405H40.833Z" fill="#DDDDDD"/>
<path d="M33.124 59.2405L33.2012 59.1733L33.265 59.2405H33.124Z" fill="#DDDDDD"/>
<path d="M25.417 59.2405L25.4908 59.1768L25.5546 59.2405H25.417Z" fill="#DDDDDD"/>
<path d="M56.3891 10V59.2402L52.7481 55.5556L48.6164 59.1766L45.0388 55.5556L40.9072 59.1766L37.3295 55.5556L33.2012 59.1732L29.6203 55.5556L25.492 59.1766L21.9143 55.5556L17.7827 59.1766L14.2051 55.5556L10 59.2402V17.5368C10 13.3731 13.3607 10 17.509 10H56.3891Z" fill="#FFE9BC"/>
<path d="M56.3895 16.9606C56.3895 16.9606 56.3895 10 62.7305 10C54.3871 10 54.4639 10 54.4639 10L56.3895 16.9606Z" fill="#FFE9BC"/>
<path d="M25.5546 59.2405H25.417L25.4908 59.1768L25.5546 59.2405Z" fill="#4A4E54"/>
<path d="M25.5546 59.2405H25.417L25.4908 59.1768L25.5546 59.2405Z" fill="#4A4E54"/>
<path d="M33.265 59.2405H33.124L33.2012 59.1733L33.265 59.2405Z" fill="#4A4E54"/>
<path d="M33.265 59.2405H33.124L33.2012 59.1733L33.265 59.2405Z" fill="#4A4E54"/>
<path d="M40.9706 59.2405H40.833L40.9068 59.1768L40.9706 59.2405Z" fill="#4A4E54"/>
<path d="M40.9706 59.2405H40.833L40.9068 59.1768L40.9706 59.2405Z" fill="#4A4E54"/>
<path d="M48.6796 59.2405H48.542L48.6158 59.1768L48.6796 59.2405Z" fill="#4A4E54"/>
<path d="M48.6796 59.2405H48.542L48.6158 59.1768L48.6796 59.2405Z" fill="#4A4E54"/>
<rect x="15.6738" y="20.0488" width="26.6988" height="2.67974" fill="white"/>
<rect x="15.6738" y="30.4331" width="26.6988" height="2.67975" fill="white"/>
<rect x="15.6738" y="35.4575" width="17.3542" height="2.67974" fill="white"/>
<rect x="15.6738" y="25.0737" width="35.7096" height="2.67974" fill="white"/>
<ellipse cx="55.3334" cy="86.0783" rx="35.2543" ry="3.92157" fill="#FCF6F0"/>
<circle cx="14" cy="14" r="12" fill="#FFB400"/>
<path d="M10 11.4993C10.0001 10.8577 10.1766 10.2284 10.5102 9.68034C10.8438 9.13224 11.3216 8.68639 11.8915 8.39151C12.4614 8.09663 13.1013 7.96408 13.7414 8.00834C14.3815 8.05259 14.9971 8.27196 15.521 8.64246C16.0449 9.01295 16.4568 9.52033 16.7118 10.1091C16.9668 10.6979 17.055 11.3455 16.9668 11.981C16.8786 12.6166 16.6174 13.2156 16.2118 13.7128C15.8061 14.2099 15.2716 14.586 14.6667 14.7998C14.3253 14.9205 14.0298 15.1441 13.8209 15.4398C13.6119 15.7354 13.4998 16.0886 13.5 16.4507V16.7493" stroke="white" stroke-width="2" stroke-linecap="round" stroke-linejoin="round"/>
<path d="M13.499 19.8745C13.4001 19.8745 13.3035 19.9038 13.2212 19.9588C13.139 20.0137 13.0749 20.0918 13.0371 20.1832C12.9992 20.2745 12.9893 20.3751 13.0086 20.4721C13.0279 20.569 13.0755 20.6581 13.1455 20.7281C13.2154 20.798 13.3045 20.8456 13.4015 20.8649C13.4985 20.8842 13.599 20.8743 13.6904 20.8365C13.7817 20.7986 13.8598 20.7345 13.9148 20.6523C13.9697 20.5701 13.999 20.4734 13.999 20.3745C13.999 20.2419 13.9463 20.1147 13.8526 20.021C13.7588 19.9272 13.6316 19.8745 13.499 19.8745Z" fill="white" stroke="white" stroke-width="2" stroke-linecap="round" stroke-linejoin="round"/>
</svg>
