<svg id="Layer_1" data-name="Layer 1" xmlns="http://www.w3.org/2000/svg" xmlns:xlink="http://www.w3.org/1999/xlink" width="400" height="250" viewBox="0 0 400 250"><defs><style>.cls-1{fill:#f3f3f2;}.cls-2{fill:#98dccf;}.cls-3{fill:#fff;}.cls-13,.cls-14,.cls-15,.cls-16,.cls-27,.cls-28,.cls-30,.cls-4{fill:none;}.cls-5{clip-path:url(#clip-path);}.cls-17,.cls-6{fill:#d8d4ce;}.cls-11,.cls-6{opacity:0.4;}.cls-7{clip-path:url(#clip-path-2);}.cls-8{fill:#31a38c;opacity:0.5;}.cls-9{clip-path:url(#clip-path-3);}.cls-10,.cls-11,.cls-19,.cls-29{fill:#c2bbb5;}.cls-12,.cls-23{fill:#7a7072;}.cls-12{opacity:0.2;}.cls-13,.cls-16{stroke:#d8d4ce;}.cls-13,.cls-14,.cls-28,.cls-29,.cls-30{stroke-miterlimit:10;}.cls-13,.cls-14,.cls-15,.cls-16,.cls-19,.cls-22,.cls-27,.cls-28,.cls-29,.cls-30{stroke-width:2px;}.cls-14{stroke:#fff;}.cls-15,.cls-19,.cls-29{stroke:#c2bbb5;}.cls-15,.cls-16,.cls-19,.cls-22,.cls-27{stroke-linejoin:round;}.cls-16,.cls-19,.cls-22,.cls-27,.cls-30{stroke-linecap:round;}.cls-18{clip-path:url(#clip-path-4);}.cls-20{fill:#aca29c;}.cls-21{clip-path:url(#clip-path-5);}.cls-22,.cls-24{fill:#504b4b;}.cls-22{stroke:#504b4b;}.cls-25{fill:#5d93ff;}.cls-26{fill:#93b7ff;}.cls-27{stroke:#7a7072;}.cls-28{stroke:#aca29c;}.cls-30{stroke:#5d93ff;}</style><clipPath id="clip-path"><rect class="cls-1" x="67.68" y="16.84" width="263.05" height="217.93"/></clipPath><clipPath id="clip-path-2"><rect class="cls-2" x="246.06" y="81.04" width="70.7" height="76.26"/></clipPath><clipPath id="clip-path-3"><rect class="cls-3" x="163.85" y="168.85" width="70.7" height="76.26"/></clipPath><clipPath id="clip-path-4"><path class="cls-3" d="M344.09,207.92l-1.7-4.36h9.35l2.46,4C350.89,208.86,346.83,210.58,344.09,207.92Z"/></clipPath><clipPath id="clip-path-5"><path class="cls-3" d="M323.81,189.59l6.82-3.88,2.45,4C329.77,191,326.56,192.25,323.81,189.59Z"/></clipPath></defs><title>No Pixel Connected - Large</title><rect class="cls-4" width="400" height="250"/><rect class="cls-1" x="67.68" y="16.84" width="263.05" height="217.93"/><g class="cls-5"><rect class="cls-6" x="163.85" y="81.04" width="70.7" height="76.26"/><rect class="cls-2" x="246.06" y="81.04" width="70.7" height="76.26"/><g class="cls-7"><rect class="cls-8" x="298.1" y="81.04" width="18.66" height="76.26"/></g><rect class="cls-3" x="81.65" y="81.04" width="70.7" height="76.26"/><rect class="cls-3" x="163.85" y="168.85" width="70.7" height="76.26"/><g class="cls-9"><rect class="cls-1" x="209.37" y="180.01" width="2.91" height="27.17" transform="translate(198.64 -92.37) rotate(45)"/><polygon class="cls-1" points="220.88 187.96 216.46 183.54 222.31 180.34 224.08 182.11 220.88 187.96"/><polygon class="cls-1" points="216.65 189.85 214.57 187.77 216.46 183.54 220.88 187.96 216.65 189.85"/><path class="cls-1" d="M209.57,204.46,200,194.93a1,1,0,0,0-1.43,0l-.73.73a1,1,0,0,0,0,1.42l.16.16-.6.6a1,1,0,0,0,0,1.43l7.63,7.63a1,1,0,0,0,1.43,0l.6-.6.32.32a1,1,0,0,0,1.42,0l.73-.73A1,1,0,0,0,209.57,204.46Z"/><path class="cls-1" d="M203.26,206.83l3-3-5.75-5.75-3,3a3.42,3.42,0,0,1-3.14.94h0a3.44,3.44,0,0,0-3.15.93l-13.6,13.6a7.21,7.21,0,0,0,0,10.19h0a7.21,7.21,0,0,0,10.2,0l13.59-13.59a3.43,3.43,0,0,0,.93-3.16h0A3.42,3.42,0,0,1,203.26,206.83Z"/></g><rect class="cls-6" x="246.06" y="168.85" width="70.7" height="76.26"/><rect class="cls-6" x="81.65" y="168.85" width="70.7" height="76.26"/></g><rect class="cls-10" x="67.68" y="16.84" width="263.05" height="11.63"/><polygon class="cls-11" points="339.81 49.63 269.11 49.63 246.06 81.04 316.76 81.04 339.81 49.63"/><circle class="cls-12" cx="105.34" cy="48.68" r="6.6"/><rect class="cls-12" x="81.96" y="42.08" width="13.21" height="13.21"/><polygon class="cls-12" points="120.67 42.08 113.34 55.28 128.01 55.28 120.67 42.08"/><line class="cls-13" x1="149.76" y1="49.63" x2="190.66" y2="49.63"/><line class="cls-13" x1="205.16" y1="49.63" x2="246.06" y2="49.63"/><polyline class="cls-14" points="268.19 134.37 253.25 118.36 267.71 102.88"/><line class="cls-15" x1="357.16" y1="234.82" x2="332.7" y2="177.07"/><line class="cls-16" x1="307" y1="197.24" x2="307" y2="234.82"/><line class="cls-15" x1="340.92" y1="197.24" x2="340.92" y2="234.82"/><rect class="cls-10" x="307.51" y="194.96" width="41.66" height="5.35" transform="translate(656.68 395.26) rotate(-180)"/><rect class="cls-10" x="315.96" y="213.93" width="41.75" height="5.35" transform="translate(673.68 433.22) rotate(-180)"/><rect class="cls-17" x="315.14" y="213.93" width="11.68" height="5.35" transform="translate(641.95 433.22) rotate(-180)"/><rect class="cls-17" x="307" y="194.96" width="11.88" height="5.35" transform="translate(625.88 395.26) rotate(-180)"/><polyline class="cls-16" points="332.7 177.07 298.19 177.07 322.93 234.82"/><path class="cls-3" d="M344.09,207.92l-1.7-4.36h9.35l2.46,4C350.89,208.86,346.83,210.58,344.09,207.92Z"/><g class="cls-18"><circle class="cls-19" cx="354.2" cy="207.53" r="2.84"/></g><polygon class="cls-20" points="337.94 154.91 353.4 203.5 341.57 203.61 325.89 153.42 337.94 154.91"/><path class="cls-3" d="M323.81,189.59l6.82-3.88,2.45,4C329.77,191,326.56,192.25,323.81,189.59Z"/><g class="cls-21"><circle class="cls-19" cx="333.08" cy="189.68" r="2.84"/></g><polygon class="cls-20" points="338.22 155.77 336.45 150.18 319.16 150.18 320.31 155.77 338.22 155.77"/><path class="cls-20" d="M318.66,194.46a1.77,1.77,0,0,1,1.7-1.28h.41a1.77,1.77,0,0,0,1.5-2.71l.7-.4,1.25-.71.57.85a12.28,12.28,0,0,0,8.29-.53l.78,1.25a9.05,9.05,0,0,1,1.36,4.78v.6H319.3a.86.86,0,0,1-.83-1.05Z"/><path class="cls-20" d="M339.77,212.3a1.79,1.79,0,0,1,1.71-1.27h.4a1.78,1.78,0,0,0,1.51-2.72l.7-.39,1.25-.72.57.85a12,12,0,0,0,3.63.49,12.45,12.45,0,0,0,4.66-1l.78,1.25a9.05,9.05,0,0,1,1.36,4.78v.59H340.42a.85.85,0,0,1-.83-1.05Z"/><g id="guy"><path class="cls-22" d="M326.73,126.53a5.67,5.67,0,0,0-3.93.32,5.41,5.41,0,0,0-2.75,2.56c-1.13,2.41.16,5.21,1.62,6.74s4.22,2.85,5.74,1.93c.54-.32.5-.65,1.81-3.43,1.23-2.6,1.42-2.63,1.44-3.25C330.74,129.41,329,127.21,326.73,126.53Z"/><g id="head"><path id="hair" class="cls-22" d="M330,120.94c1.63-.4,3.32,1,4.13,2.23a5.46,5.46,0,0,1,.87,3.24c-.24,3.64-4.47,6.73-6.17,5.94-.37-.17-.76-.6-1-1.61a11.14,11.14,0,0,0,1.45-4.1,11.29,11.29,0,0,0-.47-5.1A2.8,2.8,0,0,1,330,120.94Z"/><path id="head-2" data-name="head" class="cls-23" d="M324.8,131.58l3.85,1.49,1.37-4.92a1.16,1.16,0,0,0,.55.15,1.12,1.12,0,0,0,1.13-1.12,1.1,1.1,0,0,0-.74-1.06s-.65-.12-.25-1.31c.25-.74.67-1.26.3-1.66s-1.61-.71-2.15-1.61a2.53,2.53,0,0,0-1,.75l-1,1.26-.85.28c-.29.1-.06.53.06.71a5.09,5.09,0,0,0-.32,2.6,5.56,5.56,0,0,0,.15.67Zm4.91-3.69Z"/><g id="face"><path class="cls-24" d="M325.88,127.81a3.42,3.42,0,0,0,1.56,1.1l-2.14.91Z"/></g></g><g id="arms"><path class="cls-23" d="M291.58,134.64a2.9,2.9,0,0,0,1.07.27,10.05,10.05,0,0,1-1.36-.89c-.33-.32-.94-.78-.91-1s.48-.14.66,0a5.54,5.54,0,0,1,.51.31c-.13-.19-.55-.47-.49-.74s.94.26,1.26.49a4.72,4.72,0,0,0,1.19.42,8.53,8.53,0,0,1-.68-.53c-.31-.31-.6-.47-.53-.64.19-.42,1.06.64,2.42.67.78,0,1.84-1.28,3.79-1.18,1.65.09,4,1.92,4.74,2.48l6,4.68,4.51-1.93,2.44,5.68-4.33,1.85a6.5,6.5,0,0,1-6.66-.84L296.79,137c-.39-.29-.75-.54-1-.67a4.69,4.69,0,0,0-1.65-.58,6.57,6.57,0,0,1-2.12-.19,4.39,4.39,0,0,1-1.71-1.11C290.4,134.16,291.09,134.4,291.58,134.64Z"/><g id="sleeve_b" data-name="sleeve b"><path class="cls-25" d="M323.8,132.49c2.31-.87,5.59,0,6.25,1.55s-1,3.5-3.39,4.39L315,143.23l-2.18-5.79Z"/></g><polygon class="cls-26" points="331.46 135.46 336.41 150.24 319.02 153.44 315.33 134.37 331.46 135.46"/><polyline class="cls-14" points="294.89 134.37 309.83 118.36 295.38 102.88"/><path class="cls-23" d="M306.54,137.1a5.73,5.73,0,0,0,5.45,2l4.21-.76-.92-6.12-3.55.65s2.84-8.11,3.09-9.19a16.9,16.9,0,0,0,.74-4.6,9.25,9.25,0,0,0-.84-3.59c-.87-1.25-1.17-1.29-1.17-1.29a3.51,3.51,0,0,1-.2-.53c-.1-.3-.22-.6-.38-.62-.4,0-.42.67-.37.84,0,0-.12-.41-.31-.38s-.39.4-.36,1c0,.39,0,.92,0,.92s-.13-.33-.27-.62-.18-.47-.33-.44c-.36.08-.28.72-.15,1.33a2.59,2.59,0,0,1,0,1.27,19,19,0,0,1-1,1.92,3.06,3.06,0,0,0-.17,1.72h0l-4.36,10.77A5.71,5.71,0,0,0,306.54,137.1Z"/><path id="sleeve_f" data-name="sleeve f" class="cls-26" d="M319.94,137.67l-3.74.68-.92-6.12,8.44-1.52c.7-.24,3.73-1.2,5.6.29,1,.78,1.62,2.21,2.41,4,.27.6.93,4.1,1.06,4.44"/></g></g><path class="cls-20" d="M321.64,190.86l11.08-6.31-15.36-19.11H333.6V153.13H304.78a6.15,6.15,0,0,0-4.86,9.93Z"/><line class="cls-27" x1="330.17" y1="165.44" x2="335.13" y2="165.44"/><line class="cls-14" x1="274.64" y1="143.9" x2="288.33" y2="93.34"/><rect class="cls-28" x="291.55" y="217.62" width="10.46" height="6.03" rx="1.84"/><rect class="cls-10" x="282.08" y="220.64" width="29.41" height="14.18" rx="2.29"/><line class="cls-28" x1="282.08" y1="227.73" x2="311.48" y2="227.73"/><line class="cls-28" x1="56.2" y1="183.41" x2="67.21" y2="222.29"/><line class="cls-28" x1="70.98" y1="177.26" x2="69.1" y2="208.6"/><circle class="cls-29" cx="80.9" cy="200" r="6.48"/><line class="cls-13" x1="63.05" y1="190.95" x2="66.44" y2="203.55"/><rect class="cls-17" x="51.09" y="200" width="30.71" height="34.77"/><rect class="cls-1" x="81.8" y="200" width="30.71" height="34.77"/><line class="cls-13" x1="22.27" y1="234.77" x2="378.53" y2="234.77"/><polygon class="cls-1" points="76.33 212.96 45.62 212.96 51.09 200 81.8 200 76.33 212.96"/><polygon class="cls-3" points="87.27 212.96 117.98 212.96 112.51 200 81.8 200 87.27 212.96"/><line class="cls-30" x1="315.79" y1="138.98" x2="324.03" y2="137.42"/><path class="cls-1" d="M112.35,130.87l16.44-16.44a2.32,2.32,0,0,1,2-.66,7.28,7.28,0,0,0,7.65-10.15l-5.16,5.16-3.66-3.65,5.17-5.17a7.29,7.29,0,0,0-10.16,7.66,2.3,2.3,0,0,1-.66,2L107.5,126a2.3,2.3,0,0,1-2,.66,7.29,7.29,0,0,0-7.66,10.15l5-5,3.66,3.65-5,5a7.29,7.29,0,0,0,10.15-7.66A2.3,2.3,0,0,1,112.35,130.87Z"/></svg>