<svg xmlns="http://www.w3.org/2000/svg" width="74" height="74" viewBox="0 0 74 74">
    <g fill="none" fill-rule="evenodd">
        <g>
            <g>
                <g>
                    <g transform="translate(-837 -1348) translate(0 1100) translate(837 248) translate(3 3)">
                        <circle cx="34" cy="34" r="33.6" fill="#EAEAFF"/>
                        <g fill-rule="nonzero">
                            <g>
                                <path fill="#2296F3" d="M18.872 42.581H33.208V50.708000000000006H18.872z" transform="translate(7 8) translate(.84 .84)"/>
                                <path fill="#1B74D6" d="M3.64 8.121h44.8c1.98 0 3.585 1.605 3.585 3.584v29.568c0 1.98-1.605 3.584-3.584 3.584H3.64c-1.98 0-3.584-1.605-3.584-3.584V11.705c0-1.98 1.604-3.584 3.584-3.584z" transform="translate(7 8) translate(.84 .84)"/>
                                <g fill="#1E8AFF">
                                    <path d="M3.64.036h42.113c1.979 0 3.584 1.605 3.584 3.584v29.568c0 1.98-1.605 3.584-3.584 3.584H3.64c-1.98 0-3.584-1.605-3.584-3.584V3.62C.057 1.64 1.66.036 3.64.036zM12.6 40.356h26.88c.495 0 .896.401.896.896v1.792c0 .495-.4.896-.895.896H12.6c-.495 0-.896-.401-.896-.896v-1.792c0-.495.4-.896.896-.896z" transform="translate(7 8) translate(.84 .84) translate(0 8.085)"/>
                                </g>
                                <path fill="#607D8B" d="M52.025 11.705V37.69H.056V11.705c0-.95.378-1.862 1.05-2.535.672-.672 1.584-1.049 2.535-1.049h44.8c.95 0 1.862.377 2.534 1.05.672.672 1.05 1.583 1.05 2.534z" transform="translate(7 8) translate(.84 .84)"/>
                                <path fill="#CFD8DC" d="M49.337 11.705V37.69H.057V11.705c0-.95.377-1.862 1.049-2.535.672-.672 1.584-1.049 2.535-1.049h42.112c.95 0 1.862.377 2.534 1.05.672.672 1.05 1.583 1.05 2.534z" transform="translate(7 8) translate(.84 .84)"/>
                                <path fill="#FFF" d="M52.025 36.345c.001.455-.062.907-.189 1.344H.056V21.848l19.865-2.375 6.28 6.165c.617-2.482 2.897-4.185 5.45-4.072 2.555.113 4.676 2.012 5.07 4.538 1.79-1.177 4.08-1.278 5.967-.262 1.886 1.016 3.063 2.985 3.064 5.127.002.216-.01.431-.035.645.448-.13.913-.196 1.38-.197 1.307 0 2.56.518 3.485 1.443.924.924 1.443 2.178 1.443 3.485z" transform="translate(7 8) translate(.84 .84)"/>
                                <path fill="#607D8B" d="M35.198 11.284l-8.11-7.92c.09-.09.182-.173.279-.252C29.983.792 34.284.227 36.72.092 37.85.03 38.576.067 38.576.067s.349 7.571-3.378 11.218z" transform="translate(7 8) translate(.84 .84)"/>
                                <path fill="#CFD8DC" d="M37.187.057c-.197 2.527-.896 6.559-3.315 8.924l-6.04-5.905C30.45.756 34.75.191 37.188.057z" transform="translate(7 8) translate(.84 .84)"/>
                                <path fill="#0377BC" d="M35.278 11.203L27.089 19.205 19.652 26.471 17.251 24.124 11.543 18.55 18.98 11.284 27.044 3.408 27.169 3.283z" transform="translate(7 8) translate(.84 .84)"/>
                                <path fill="#02A9F4" d="M33.209 9.214L25.019 17.215 17.708 24.357 12 18.783 19.437 11.517 27.501 3.641z" transform="translate(7 8) translate(.84 .84)"/>
                                <path fill="#00BCD4" d="M26.412 15.907c-1.13 1.094-2.925 1.094-4.055 0-.537-.519-.84-1.233-.84-1.98 0-.747.303-1.461.84-1.98 1.13-1.094 2.924-1.094 4.055 0 .536.519.84 1.233.84 1.98 0 .747-.304 1.461-.84 1.98z" transform="translate(7 8) translate(.84 .84)"/>
                                <path fill="#FFE859" d="M18.98 11.284L11.543 18.55 8.165 21.848 0.056 21.848 9.518 12.61z" transform="translate(7 8) translate(.84 .84)"/>
                                <path fill="#37474F" d="M16.274 29.768L10.871 31.086 10.746 30.969 6.938 27.251 6.812 27.125 6.884 26.839 8.165 21.848 14.16 27.708z" transform="translate(7 8) translate(.84 .84)"/>
                                <path fill="#FFE859" d="M27.089 19.205L25.736 28.451 16.274 37.689 16.274 29.768 19.652 26.471z" transform="translate(7 8) translate(.84 .84)"/>
                                <path fill="#37474F" d="M19.652 26.471L16.274 29.768 14.16 27.708 8.165 21.848 8.345 21.669 11.543 18.55 17.654 24.518z" transform="translate(7 8) translate(.84 .84)"/>
                                <g fill="#607D8B">
                                    <path d="M7.63 9.156L7.335 9.228 2.227 10.473 2.102 10.357 0.059 8.359 1.34 3.368 1.52 3.189z" transform="translate(7 8) translate(.84 .84) translate(6.825 18.48)"/>
                                    <path d="M10.829 6.038L7.63 9.156 1.52 3.189 4.718 0.07z" transform="translate(7 8) translate(.84 .84) translate(6.825 18.48)"/>
                                </g>
                                <path fill="#FF5722" d="M10.746 30.969c-.132.294-.321.559-.556.78-1.12 1.093-6.075 1.98-6.075 1.98s.905-4.848 2.025-5.94c.229-.23.5-.412.798-.538l3.808 3.718z" transform="translate(7 8) translate(.84 .84)"/>
                            </g>
                            <g fill="#000">
                                <path d="M49.28 8.065h-9.92c.694-2.335 1.014-4.765.95-7.2C40.29.4 39.919.03 39.457.01c-.331-.014-8.19-.318-12.155 3.554l-4.607 4.5H4.481C2.007 8.068.003 10.072 0 12.545v29.568c.002 2.473 2.006 4.477 4.48 4.48h14.336v1.792h-6.272c-.495 0-.896.401-.896.896v3.584c0 .495.4.896.896.896h28.672c.494 0 .896-.401.896-.896v-3.584c0-.495-.402-.896-.896-.896h-6.272v-1.792H49.28c2.473-.003 4.477-2.007 4.48-4.48V12.545c-.003-2.473-2.007-4.477-4.48-4.48zm0 1.792c1.484.002 2.687 1.204 2.688 2.688v20.447c-1.081-1.046-2.527-1.63-4.032-1.63-.155 0-.312.02-.469.033-.123-2.18-1.303-4.162-3.161-5.31-1.858-1.146-4.159-1.314-6.163-.448-.68-1.88-2.218-3.324-4.139-3.883-1.92-.558-3.992-.166-5.575 1.056l.34-2.333 7.893-7.71c.835-.842 1.512-1.828 1.999-2.91h10.62zm2.658 27.776H19.315l7.887-7.704c.14-.137.232-.317.26-.511l.376-2.57c.03-.049.054-.1.073-.154.486-1.975 2.246-3.372 4.28-3.397 2.035-.024 3.828 1.33 4.362 3.293-.742.6-1.351 1.348-1.789 2.196-.146.285-.129.627.045.896.175.27.48.425.8.408.32-.017.607-.204.752-.49.392-.768.973-1.424 1.688-1.905 1.514-.998 3.454-1.085 5.051-.225 1.598.86 2.594 2.525 2.596 4.339v.019c-.973.403-1.818 1.06-2.449 1.904-.192.257-.232.597-.104.892.127.295.403.499.722.534.32.036.633-.102.823-.361.525-.71 1.267-1.23 2.114-1.481.37-.107.75-.162 1.134-.163 1.152-.014 2.253.47 3.02 1.33.767.859 1.125 2.007.982 3.15zm-50.145 0v-14.05H7.85l-1.028 4.019c-.167.115-.325.244-.47.385-1.26 1.232-2.123 5.562-2.282 6.417-.05.262.021.532.191.737.17.205.423.324.69.324.052 0 .105-.005.157-.014.873-.156 5.295-.995 6.55-2.22.145-.144.278-.3.398-.465l4.162-1.016v5.883H1.793zM27.927 5.46l6.827 6.668-14.26 13.929-6.827-6.669L27.927 5.46zm-1.823 20.866l-.37 2.534-7.723 7.543v-5.416l8.647-8.446-.554 3.785zM7.605 29.268c.017-.016.036-.028.053-.043l2.767 2.702c-.007.006-.011.014-.018.02-.463.453-2.385 1.05-4.299 1.475.433-1.852 1.039-3.706 1.497-4.154zm4.374 1.672L8.65 27.69l.839-3.278 5.845 5.709-3.355.82zm.406-10.3l6.827 6.668-2.097 2.048-6.827-6.668 2.097-2.048zM8.64 21.792H3.096l7.677-7.499 6.469-.902-8.601 8.4zm28.628-13.2c-.007.014-.013.027-.018.041-.318.787-.742 1.526-1.26 2.197L29.26 4.255c2.831-2.11 7.384-2.424 9.264-2.458-.021 2.32-.446 4.62-1.255 6.795zM4.48 9.857H20.86l-1.457 1.423-9.17 1.28c-.189.026-.365.112-.501.246l-7.94 7.754v-8.015c.002-1.484 1.205-2.686 2.689-2.688zM40.32 51.97H13.44v-1.792h26.88v1.792zm-7.168-3.584H20.609v-1.792h12.544v1.792zm16.127-3.584H4.48c-1.483-.001-2.686-1.204-2.687-2.688v-2.688h50.176v2.688c-.002 1.484-1.205 2.686-2.689 2.688z" transform="translate(7 8)"/>
                                <path d="M22.571 17.388c1.48 1.43 3.826 1.43 5.306 0 .71-.687 1.11-1.633 1.11-2.62 0-.989-.4-1.934-1.11-2.622-1.48-1.43-3.826-1.43-5.306 0-.71.687-1.11 1.633-1.11 2.62 0 .989.4 1.935 1.11 2.622zm1.252-3.96c.782-.755 2.021-.755 2.802 0 .365.35.57.834.57 1.34 0 .505-.205.988-.57 1.338-.781.755-2.02.755-2.802 0-.364-.35-.57-.834-.57-1.339s.206-.989.57-1.34z" transform="translate(7 8)"/>
                            </g>
                        </g>
                    </g>
                </g>
            </g>
        </g>
    </g>
</svg>
