<svg xmlns="http://www.w3.org/2000/svg" width="50" height="50" viewBox="0 0 50 50">
    <defs>
        <style>
            .cls-4{fill:#0268b4}.cls-5{fill:#8ac9fe}.cls-7{fill:#ffbfb1}.cls-8{fill:#ffcebf}.cls-9{fill:#b3dafe}.cls-10{fill:#fd544d}.cls-11{fill:#015a9a}.cls-14{fill:#ffb09e}
        </style>
    </defs>
    <g id="Group_138" transform="translate(-1064 -907)">
        <circle id="Ellipse_45" cx="25" cy="25" r="25" fill="#c3e1ff" transform="translate(1064 907)"/>
        <g id="presentation" transform="translate(1072.169 916)">
            <g id="Group_135" transform="translate(1.33 .499)">
                <path id="Path_389" fill="#fee2ca" d="M28.762 26.1h30.215v22.928H28.762z" transform="translate(-27.404 -24.867)"/>
                <path id="Path_390" fill="#fed5b0" d="M443.54 26.1h2.639v22.928h-2.639z" transform="translate(-414.606 -24.867)"/>
                <path id="Path_391" d="M40.731 9.62H8.863a.532.532 0 0 1-.532-.532V8.032a.532.532 0 0 1 .532-.532h31.868a.532.532 0 0 1 .532.532v1.056a.532.532 0 0 1-.532.532z" class="cls-4" transform="translate(-8.331 -7.5)"/>
                <path id="Path_392" d="M40.731 357.087H8.863a.532.532 0 0 1-.532-.532V355.5a.532.532 0 0 1 .532-.532h31.868a.532.532 0 0 1 .532.532v1.057a.532.532 0 0 1-.532.53z" class="cls-4" transform="translate(-8.331 -331.866)"/>
                <path id="Path_393" d="M269.285 80.256h10.355a.665.665 0 0 1 .665.665v5.6a.665.665 0 0 1-.665.665h-10.355a.665.665 0 0 1-.665-.665v-5.6a.665.665 0 0 1 .665-.665z" class="cls-5" transform="translate(-251.315 -75.419)"/>
                <path id="Path_394" d="M339.969 216.923h5.6a.665.665 0 0 1 .665.665v5.6a.665.665 0 0 1-.665.665h-5.6a.665.665 0 0 1-.665-.665v-5.6a.665.665 0 0 1 .665-.665z" class="cls-5" transform="translate(-317.3 -203)"/>
                <path id="Path_395" fill="#c4e2ff" d="M31.95 251.911l-2.589-1.883-7.716 7.92H14.3a1.985 1.985 0 0 0-1.985 1.985v7.013h11.909v-4.724z" transform="translate(-12.053 -233.904)"/>
                <path id="Path_396" d="M74.2 311.659v2.981l1.832 1.221 1.832-1.221v-2.981z" class="cls-7" transform="translate(-69.817 -291.438)"/>
                <path id="Path_397" d="M23 194.743h-.061a4.422 4.422 0 0 0-8.722 0h-.061a1.5 1.5 0 1 0 0 3h.061a4.422 4.422 0 0 0 8.722 0H23a1.5 1.5 0 1 0 0-3z" class="cls-8" transform="translate(-12.368 -178.854)"/>
                <path id="Path_398" d="M52.449 356.5l-1.549.841 2.185 1.629 1.2-1.249z" class="cls-9" transform="translate(-48.07 -333.295)"/>
                <path id="Path_399" d="M103.586 356.5l1.549.841-2.185 1.629-1.2-1.249z" class="cls-9" transform="translate(-95.543 -333.295)"/>
                <path id="Path_400" d="M88.568 374.87l-.939.98.34 1.334h1.2l.34-1.334z" class="cls-10" transform="translate(-82.357 -350.446)"/>
                <path id="Path_401" d="M85.316 409.682l-.529 6.3h2.256l-.529-6.3z" class="cls-10" transform="translate(-79.704 -382.944)"/>
                <path id="Path_402" d="M463.914 7.5h-2.261a.532.532 0 0 1 .532.532v1.056a.532.532 0 0 1-.532.532h2.261a.532.532 0 0 0 .532-.532V8.032a.532.532 0 0 0-.532-.532z" class="cls-11" transform="translate(-431.515 -7.5)"/>
                <path id="Path_403" d="M463.914 354.967h-2.261a.532.532 0 0 1 .532.532v1.057a.532.532 0 0 1-.532.532h2.261a.532.532 0 0 0 .532-.532V355.5a.532.532 0 0 0-.532-.533z" class="cls-11" transform="translate(-431.515 -331.866)"/>
                <path id="Path_404" d="M170.071 250.028l-.782.8 1.486 1.081-7.727 10.311v4.724h1.885v-4.724l7.727-10.311z" class="cls-9" transform="translate(-152.763 -233.904)"/>
                <path id="Path_405" d="M263.951 207.361l-2.626-2.207a.512.512 0 0 1-.063-.722l2.1-2.5a.512.512 0 0 1 .722-.063l2.626 2.206a.512.512 0 0 1 .063.722l-2.1 2.5a.512.512 0 0 1-.722.064z" class="cls-8" transform="translate(-244.335 -188.833)"/>
                <path id="Path_406" d="M96.916 194.743h-.061a4.42 4.42 0 0 0-5.02-3.638 4.425 4.425 0 0 1 3.7 3.638h.061a1.5 1.5 0 1 1 0 3h-.061a4.425 4.425 0 0 1-3.7 3.638 4.42 4.42 0 0 0 5.02-3.638h.061a1.5 1.5 0 0 0 0-3z" class="cls-7" transform="translate(-86.282 -178.854)"/>
                <path id="Path_407" d="M293.807 204.073l-2.626-2.207a.512.512 0 0 0-.722.063l-.294.35 2.134 1.794a.512.512 0 0 1 .063.722l-1.809 2.153.491.413a.512.512 0 0 0 .722-.063l2.1-2.5a.512.512 0 0 0-.059-.725z" class="cls-7" transform="translate(-271.428 -188.833)"/>
                <path id="Path_408" fill="#c4573a" d="M27.889 156.711a1.87 1.87 0 0 0-1.589-.883h-3.6a3.318 3.318 0 0 0-3.318 3.318v2.711h6.281a2.5 2.5 0 0 0 1.672-.64 1.689 1.689 0 0 0 1.325.64h1.674v-2.664a2.483 2.483 0 0 0-2.445-2.482z" transform="translate(-18.649 -145.967)"/>
                <g id="Group_132" transform="translate(6.142 9.861)">
                    <path id="Path_409" fill="#a74b30" d="M103.82 156.711a1.87 1.87 0 0 0-1.589-.883h-1.508a1.87 1.87 0 0 1 1.589.883 2.483 2.483 0 0 1 2.448 2.482v2.664h1.508v-2.664a2.483 2.483 0 0 0-2.448-2.482z" transform="translate(-100.723 -155.828)"/>
                </g>
                <path id="Path_410" d="M111.561 356.5l-.677.451.718.39-1.305.973.628.656 2.185-1.629z" class="cls-5" transform="translate(-103.518 -333.295)"/>
                <g id="Group_133" transform="translate(8.577 19.164)">
                    <path id="Path_411" d="M138.185 296.433h-.511a.337.337 0 1 1 0-.674h.511a.337.337 0 1 1 0 .674z" class="cls-14" transform="translate(-137.337 -295.759)"/>
                </g>
                <g id="Group_134" transform="translate(2.66 19.164)">
                    <path id="Path_412" d="M49.2 296.433h-.511a.337.337 0 1 1 0-.674h.511a.337.337 0 1 1 0 .674z" class="cls-14" transform="translate(-48.348 -295.759)"/>
                </g>
                <path id="Path_413" d="M84.258 297.917c0 .994-.6 1.8-1.335 1.8s-1.335-.806-1.335-1.8z" class="cls-14" transform="translate(-76.718 -278.609)"/>
            </g>
            <g id="Group_137" transform="translate(.831)">
                <path id="Path_414" d="M33.8 3.118a.965.965 0 0 0 .964-.964V.964A.965.965 0 0 0 33.8 0h-3.328a.5.5 0 1 0 0 1h3.291v1.12H1.828V1h26.317a.5.5 0 0 0 0-1H1.795a.965.965 0 0 0-.964.964v1.19a.965.965 0 0 0 .964.964h.394v8.474a3.793 3.793 0 0 0-.623 2.087v2.711a.5.5 0 0 0 .038.191 2 2 0 0 0 .585 3.08V23.1h-.327a1.032 1.032 0 0 0-1.03 1.03v1.057a1.027 1.027 0 0 0 .334.759 2.48 2.48 0 0 0-.069.581v1.889a.5.5 0 0 0 1 0v-1.889a1.488 1.488 0 0 1 1.164-1.451 3.174 3.174 0 0 1 .737-.036l2.052 1.53a.5.5 0 0 0 .235.094l.157.614-.484 5.763H2.093v-2.3a.5.5 0 1 0-1 0v2.8a.5.5 0 0 0 .5.5H13.5a.5.5 0 0 0 .5-.5v-4.558l2.071-2.764H33.8a.965.965 0 0 0 .964-.964v-1.19a.965.965 0 0 0-.964-.965h-.4V3.118zm-30.609 0H32.4V23.1h-14l2.529-3.375.084-.112a1.018 1.018 0 0 0 1.029-.328l.786-.935v2.336A1.165 1.165 0 0 0 24 21.85h5.6a1.165 1.165 0 0 0 1.163-1.163v-5.6a1.165 1.165 0 0 0-1.163-1.164H24a1.158 1.158 0 0 0-.281.036l1.013-1.195h4.924a1.165 1.165 0 0 0 1.161-1.164V6a1.165 1.165 0 0 0-1.163-1.163H19.3A1.165 1.165 0 0 0 18.136 6v5.6a1.165 1.165 0 0 0 1.164 1.164h4.123l-1.031 1.217-.99-.832a1.011 1.011 0 0 0-1.422.125l-2.1 2.5a1.012 1.012 0 0 0-.149 1.065l-1.9 1.951-4.201 4.31H9.872v-.108a4.893 4.893 0 0 0 2.37-2.882v-.005c.025-.081.048-.163.069-.247a2 2 0 0 0 1.164-3.279 14.921 14.921 0 0 0 .038-2.855 3 3 0 0 0-2.678-2.966 2.352 2.352 0 0 0-1.586-.883 2.411 2.411 0 0 0-.272-.015c-3.912 0-3.75-.012-4.09.033a3.8 3.8 0 0 0-1.683.651l-.02.014v-7.44zm15.45 13.321a.016.016 0 0 1 0-.019l2.1-2.5a.015.015 0 0 1 .019 0l2.626 2.207a.014.014 0 0 1 0 .009.014.014 0 0 1 0 .01l-2.1 2.5a.015.015 0 0 1-.018 0l-.03-.025-2.6-2.182zm5.389-1.081l-.2-.166v-.105a.166.166 0 0 1 .17-.167h5.6a.166.166 0 0 1 .166.166v5.6a.166.166 0 0 1-.166.166H24a.166.166 0 0 1-.166-.166v-3.522l.321-.382a1.011 1.011 0 0 0-.126-1.424zm4.756-8.149a.5.5 0 0 0-.7.058l-3.815 4.5H19.3a.166.166 0 0 1-.166-.166V6a.166.166 0 0 1 .166-.166h10.354A.166.166 0 0 1 29.82 6v5.6a.166.166 0 0 1-.166.166h-4.079l3.268-3.856a.5.5 0 0 0-.058-.7zM2.563 13.678a2.817 2.817 0 0 1 1.107-2.237l.008-.007a2.833 2.833 0 0 1 1.2-.529h.013a32.341 32.341 0 0 1 4.092-.044 1.367 1.367 0 0 1 1.166.648.5.5 0 0 0 .416.235 1.994 1.994 0 0 1 1.935 1.684 1.967 1.967 0 0 1 .023.3v2.165h-1.181a1.189 1.189 0 0 1-.935-.452.5.5 0 0 0-.723-.061 2 2 0 0 1-1.339.512H2.563zm-.735 11.09v-.636a.033.033 0 0 1 .033-.033h1.2a2.5 2.5 0 0 0-1.233.669zm1.085-5.9a1 1 0 0 1 .156-1.983h5.276a3 3 0 0 0 1.628-.48 2.179 2.179 0 0 0 1.369.48h.666a1 1 0 0 1-.046 2h-.04a.5.5 0 0 0-.513.416 3.924 3.924 0 0 1-7.738 0 .5.5 0 0 0-.477-.416 1.257 1.257 0 0 1-.282-.021zm4.628 5.452l-1.334-.889v-.041a4.975 4.975 0 0 0 .946.167c.1.008.252.016.387.016a5.014 5.014 0 0 0 1.334-.182v.041zm.388 1.725l-.176.69h-.424l-.176-.69.388-.4zM3.187 23.1v-2.146a4.9 4.9 0 0 0 2.023 2.039v.107zm3.1 2.407l-1.207-.9.6-.326 1.087.725zm.665 7.534l.448-5.306h.28l.446 5.307zM9.4 24.283l.6.326-1.207.9-.48-.5zm3.7 4.235a.5.5 0 0 0-.1.3v4.226H9.127l-.484-5.763.157-.614a.5.5 0 0 0 .235-.094c1.447-1.078 2.2-1.637 2.244-1.68l7.144-7.332 1.223 1.028.551.463-1.546 2.062zM33.763 24.1v1.123H16.818l.842-1.123z" transform="translate(-.831)"/>
                <path id="Path_415" d="M62.288 262.1a.5.5 0 0 0 .5-.5v-.814a.5.5 0 1 0-1 0v.814a.5.5 0 0 0 .5.5z" transform="translate(-57.736 -242.982)"/>
                <path id="Path_416" d="M127.219 262.1a.5.5 0 0 0 .5-.5v-.814a.5.5 0 0 0-1 0v.814a.5.5 0 0 0 .5.5z" transform="translate(-118.351 -242.982)"/>
                <path id="Path_417" d="M61.459 87.587h10.734a.5.5 0 0 0 0-1H61.459a.5.5 0 1 0 0 1z" transform="translate(-56.962 -80.833)"/>
                <path id="Path_418" d="M61.459 121.489h10.734a.5.5 0 0 0 0-1H61.459a.5.5 0 1 0 0 1z" transform="translate(-56.962 -112.481)"/>
                <g id="Group_136" transform="translate(4.87 19.308)">
                    <path id="Path_419" d="M75.922 293.215a2.083 2.083 0 0 1-1.834-2.3.5.5 0 0 1 .5-.5h2.67a.5.5 0 0 1 .5.5 2.084 2.084 0 0 1-1.836 2.3zm-.77-1.8c.129.467.43.8.77.8s.642-.337.77-.8z" transform="translate(-74.088 -290.417)"/>
                </g>
            </g>
        </g>
    </g>
</svg>
