<svg width="120" height="123" viewBox="0 0 120 123" fill="none" xmlns="http://www.w3.org/2000/svg">
<ellipse cx="60" cy="108" rx="53" ry="15" fill="#FBF5FF"/>
<path fill-rule="evenodd" clip-rule="evenodd" d="M18 53.7729V46C18.4572 49.8865 19.1431 52.8476 25.3157 53.7729H18ZM98.7026 53.7729H18V102.012C18 106.431 21.5817 110.012 26 110.012H98.7026C103.121 110.012 106.703 106.431 106.703 102.012V61.7729C106.703 57.3547 103.121 53.7729 98.7026 53.7729Z" fill="#7554F6"/>
<path d="M14 41.9173C14 36.6143 18.2989 32.3154 23.6018 32.3154H93.9801C96.7772 32.3154 99.0448 34.583 99.0448 37.3801V51.5191H23.6018C18.2989 51.5191 14 47.2202 14 41.9173Z" fill="#7554F6"/>
<path d="M91.8441 24.9998C89.7866 29.1148 83.7511 37.1621 76.0697 36.4305C66.4678 35.5161 66.6965 22.0278 52.0651 24.9998C37.4337 27.9718 36.5193 46.7182 39.7199 49.6902" stroke="#FFC500" stroke-width="1.5" stroke-dasharray="4 4"/>
<path fill-rule="evenodd" clip-rule="evenodd" d="M14 49.2329V41.46C14.4572 45.3465 15.1431 48.3076 21.3157 49.2329H14ZM94.7026 49.233H14V97.4723C14 101.891 17.5817 105.472 22 105.472H94.7026C99.1209 105.472 102.703 101.891 102.703 97.4723V57.233C102.703 52.8147 99.1209 49.233 94.7026 49.233Z" fill="#DAD0FF"/>
<path d="M23.1874 62.7197C23.1874 58.5775 26.5452 55.2197 30.6874 55.2197H86.0153C90.1574 55.2197 93.5153 58.5775 93.5153 62.7197V91.9854C93.5153 96.1276 90.1574 99.4854 86.0153 99.4854H30.6874C26.5452 99.4854 23.1874 96.1276 23.1874 91.9854V62.7197Z" stroke="white"/>
<path d="M80.7555 77.5812C80.7555 73.0358 84.4403 69.351 88.9856 69.351H101.788C103.303 69.351 104.531 70.5793 104.531 72.0944V83.0679C104.531 84.583 103.303 85.8113 101.788 85.8113H88.9856C84.4403 85.8113 80.7555 82.1265 80.7555 77.5812Z" fill="#7554F6"/>
<rect x="85.785" y="75.7522" width="6.85845" height="3.65784" rx="1.82892" fill="#E3D6FF"/>
<path fill-rule="evenodd" clip-rule="evenodd" d="M98.9547 13.4109C98.9597 13.4024 98.9646 13.3938 98.9696 13.3852C100.358 10.9796 99.5342 7.90363 97.1286 6.51476C94.7231 5.1259 91.6471 5.95011 90.2582 8.3557C89.3494 9.92975 89.3882 11.7908 90.1975 13.2785C89.5703 13.6282 89.0265 14.1467 88.6414 14.8138C87.505 16.782 88.1794 19.2987 90.1476 20.435C92.1158 21.5714 94.6326 20.897 95.7689 18.9288C95.7703 18.9264 95.7717 18.9239 95.7731 18.9215L98.9547 13.4109Z" fill="#FFC500"/>
<path fill-rule="evenodd" clip-rule="evenodd" d="M98.1036 12.8853C99.4924 10.4797 102.568 9.65551 104.974 11.0444C107.38 12.4332 108.204 15.5093 106.815 17.9148C105.906 19.4889 104.275 20.3859 102.582 20.4288C102.593 21.1468 102.416 21.8769 102.03 22.544C100.894 24.5122 98.3774 25.1866 96.4092 24.0502C94.441 22.9139 93.7666 20.3971 94.903 18.4289L94.9029 18.4289L98.1035 12.8853L98.1036 12.8853Z" fill="#FFC500"/>
<path fill-rule="evenodd" clip-rule="evenodd" d="M98.9697 13.3851L98.9605 13.4009L95.769 18.9288L95.769 18.9287C94.6326 20.897 92.1159 21.5713 90.1477 20.435C90.0138 20.3577 89.886 20.274 89.7642 20.1846C91.6598 21.0164 93.918 20.3059 94.9771 18.4715L94.9926 18.4444L98.1709 12.9394L98.1776 12.9279C99.4895 10.6557 98.8268 7.78531 96.722 6.3036C96.8594 6.3672 96.9951 6.43752 97.1287 6.51468C99.5343 7.90354 100.359 10.9796 98.9697 13.3851Z" fill="#FFA800"/>
<path fill-rule="evenodd" clip-rule="evenodd" d="M105.84 11.5443C103.435 10.1554 100.359 10.9797 98.9698 13.3852L98.9697 13.3852L95.7691 18.9288L95.7692 18.9288C94.6328 20.897 95.3072 23.4138 97.2754 24.5501C97.4092 24.6274 97.5455 24.6962 97.6837 24.7569C96.0157 23.5311 95.502 21.2204 96.561 19.3861L96.561 19.3861L99.7616 13.8424L99.7616 13.8424C101.074 11.5702 103.891 10.7089 106.226 11.7909C106.103 11.7038 105.974 11.6214 105.84 11.5443Z" fill="#FFC500"/>
</svg>
