<svg id="Layer_1" data-name="Layer 1" xmlns="http://www.w3.org/2000/svg" xmlns:xlink="http://www.w3.org/1999/xlink" width="400" height="250" viewBox="0 0 400 250"><defs><style>.cls-1,.cls-15{fill:#d8d4ce;}.cls-11,.cls-2{opacity:0.1;}.cls-3{fill:#aca29c;}.cls-4{fill:#f3f3f2;}.cls-5{fill:#c2bbb5;}.cls-6{clip-path:url(#clip-path);}.cls-7{clip-path:url(#clip-path-2);}.cls-8{fill:#fff;}.cls-9{fill:#7a7072;}.cls-10{clip-path:url(#clip-path-3);}.cls-12{clip-path:url(#clip-path-4);}.cls-13{clip-path:url(#clip-path-5);}.cls-14{clip-path:url(#clip-path-6);}.cls-15{stroke:#aca29c;stroke-linecap:round;stroke-miterlimit:10;stroke-width:2px;}.cls-16{fill:none;}</style><clipPath id="clip-path"><path class="cls-1" d="M160,23.53h0A63.5,63.5,0,0,1,223.48,87V227.2a0,0,0,0,1,0,0h-127a0,0,0,0,1,0,0V87A63.5,63.5,0,0,1,160,23.53Z"/></clipPath><clipPath id="clip-path-2"><polygon class="cls-2" points="103.3 23.94 223.48 220.81 223.48 23.94 103.3 23.94"/></clipPath><clipPath id="clip-path-3"><rect class="cls-3" x="91.76" y="93.75" width="6.91" height="9.67" rx="3.45" transform="translate(-31.53 46.43) rotate(-23.63)"/></clipPath><clipPath id="clip-path-4"><path class="cls-4" d="M114.56,141.35l-8.58.32L101.45,140l-2.32-12.33,12.16-2.09,1,.7Q113.42,133.79,114.56,141.35Z"/></clipPath><clipPath id="clip-path-5"><path class="cls-5" d="M113.22,126.74l-23.52,4-1.17-17c-.51-3.43.25-5.87,3.65-6.52l11.19-2.37c3.52-.68,6.09,1.55,6.74,5.07Z"/></clipPath><clipPath id="clip-path-6"><path class="cls-5" d="M89,136l-14.48-6.68A4.43,4.43,0,0,1,73,122.46l10.29-12.34a4.43,4.43,0,1,1,6.8,5.67l-6.59,7.91L92.72,128Z"/></clipPath></defs><title>No Messages - Large</title><path class="cls-1" d="M160,23.53H313.67A63.5,63.5,0,0,1,377.17,87V227.2a0,0,0,0,1,0,0H160a0,0,0,0,1,0,0V23.53A0,0,0,0,1,160,23.53Z"/><path class="cls-1" d="M160,23.53h0A63.5,63.5,0,0,1,223.48,87V227.2a0,0,0,0,1,0,0h-127a0,0,0,0,1,0,0V87A63.5,63.5,0,0,1,160,23.53Z"/><g class="cls-6"><polygon class="cls-2" points="103.3 23.94 223.48 220.81 223.48 23.94 103.3 23.94"/><g class="cls-7"><polygon class="cls-8" points="152.31 104.01 214.73 26.85 232.59 106.4 155.92 110.05 152.31 104.01"/></g></g><rect class="cls-3" x="298.14" y="23.94" width="6.06" height="196.87"/><rect class="cls-3" x="298.14" y="23.94" width="42.28" height="27.33"/><rect class="cls-5" x="25.45" y="220.81" width="198.03" height="6.39"/><path class="cls-3" d="M87.5,134.94l3.63,2,2,7.38a.33.33,0,0,0,.45.21l2.27-1,1.33-8.22-6.27-7.69Z"/><polygon class="cls-3" points="90.19 205.16 89.38 220.81 96.31 220.81 100 220.81 108.78 220.81 100.6 212.98 100.6 205.16 90.19 205.16"/><polygon class="cls-3" points="112.6 205.09 114.7 220.81 121.63 220.81 125.32 220.81 134.1 220.81 124.47 212.95 122.88 204.36 112.6 205.09"/><rect class="cls-9" x="140.01" y="110.02" width="12.66" height="3.34" transform="translate(-36.6 91.14) rotate(-30.94)"/><path class="cls-9" d="M155.92,110.05a3.52,3.52,0,0,1-3.61-6Z"/><path class="cls-3" d="M138.55,112.55a31.59,31.59,0,0,0,3.82,6.55l4.26-2.14a2.5,2.5,0,0,0,.6-.57c.14-.18.27-.51.13-.7a1.55,1.55,0,0,0,1.48-.6,3.8,3.8,0,0,0,.13-.51,3.12,3.12,0,0,0,.95-.31,1.13,1.13,0,0,0,.57-.78.73.73,0,0,0-.55-.78,1.71,1.71,0,0,0,1.31-.76,1.23,1.23,0,0,0,.06-1.26c-2.11.52-4.25,1-6.4,1.29a.6.6,0,0,1-.46,0,.46.46,0,0,1-.12-.51,1.65,1.65,0,0,1,.3-.46c.52-.65,1.14-1.7.94-2.28,0-.1-.53-.1-.68,0-2.72,1.52-3.88,2.45-6.34,3.88Z"/><rect class="cls-3" x="94.17" y="101.3" width="4.51" height="6.52" transform="translate(-18.51 20.78) rotate(-11.23)"/><rect class="cls-3" x="91.76" y="93.75" width="6.91" height="9.67" rx="3.45" transform="translate(-31.53 46.43) rotate(-23.63)"/><g class="cls-10"><circle class="cls-9" cx="94.15" cy="96.05" r="3.61"/><circle class="cls-9" cx="93.08" cy="100.53" r="3.01"/></g><path class="cls-4" d="M105.42,213.14l-15.72-.55q1.24-41.11,2.48-82.22c3.38-.59,7.47-1.34,10.84-1.93C104.06,156.62,104.38,185,105.42,213.14Z"/><g class="cls-11"><path d="M105.42,213.14l-15.72-.55q1.24-41.11,2.48-82.22l11.2-1.93S104.38,185,105.42,213.14Z"/></g><path class="cls-4" d="M114.56,141.35l-8.58.32L101.45,140l-2.32-12.33,12.16-2.09,1,.7Q113.42,133.79,114.56,141.35Z"/><g class="cls-12"><polygon class="cls-2" points="116.42 129.45 88.86 134.51 88.86 124.73 116.42 124.73 116.42 129.45"/></g><polygon class="cls-5" points="85.79 108.62 108.39 103.67 111.01 108.98 85.86 114.41 85.79 108.62"/><path class="cls-5" d="M113.22,126.74l-23.52,4-1.17-17c-.51-3.43.25-5.87,3.65-6.52l11.19-2.37c3.52-.68,6.09,1.55,6.74,5.07Z"/><g class="cls-13"><rect class="cls-2" x="107.32" y="107.3" width="10.39" height="20.84" transform="matrix(0.98, -0.19, 0.19, 0.98, -20.77, 24.16)"/></g><path class="cls-5" d="M89,136l-14.48-6.68A4.43,4.43,0,0,1,73,122.46l10.29-12.34a4.43,4.43,0,1,1,6.8,5.67l-6.59,7.91L92.72,128Z"/><g class="cls-14"><line class="cls-15" x1="83.87" y1="123.3" x2="81.18" y2="121.87"/><line class="cls-15" x1="87.42" y1="112.67" x2="88.29" y2="118.52"/></g><polygon class="cls-4" points="110.71 212.98 100.8 135.47 113.43 133.61 128.16 213.14 110.71 212.98"/><path class="cls-5" d="M143.91,119.5l-14.64,8.38a4.73,4.73,0,0,1-.8.35,4.4,4.4,0,0,1-4.4-.94l-17.44-16.1a4.43,4.43,0,0,1,6-6.54l15.05,13.89,11.86-6.73Z"/><path class="cls-3" d="M95.25,100.09a1.23,1.23,0,0,0,1.23,1.23,1.34,1.34,0,0,0,.45-.09,1.23,1.23,0,0,0-.45-2.37h0A1.21,1.21,0,0,0,95.25,100.09Z"/><circle class="cls-9" cx="88.97" cy="105.1" r="6.24"/><rect class="cls-16" width="400" height="250" transform="translate(400 250) rotate(-180)"/></svg>