<svg xmlns="http://www.w3.org/2000/svg" xmlns:xlink="http://www.w3.org/1999/xlink" width="368" height="104" viewBox="0 0 368 104">
  <defs>
    <style>
      .cls-1 {
        fill: none;
        stroke: #707070;
      }

      .cls-2 {
        clip-path: url(#clip-path);
      }

      .cls-3, .cls-4 {
        fill: #0f8cff;
      }

      .cls-3 {
        stroke: #0f8cff;
        stroke-linecap: round;
      }
    </style>
    <clipPath id="clip-path">
      <rect id="Rectangle_3299" data-name="Rectangle 3299" class="cls-1" width="368" height="104" transform="translate(776 6104)"/>
    </clipPath>
  </defs>
  <g id="Arrow2" class="cls-2" transform="translate(-776 -6104)">
    <g id="Group_17516" data-name="Group 17516" transform="translate(1350.824 3769.875)">
      <path id="Path_14998" data-name="Path 14998" class="cls-3" d="M-216.824,2334.125a49.47,49.47,0,0,1,2,12.17,45.931,45.931,0,0,1-1.088,12.3,38.853,38.853,0,0,1-4.615,11.458,38.3,38.3,0,0,1-8.074,9.371,51.194,51.194,0,0,1-10.424,6.694c-.937.438-1.894.832-2.84,1.25l-1.425.614-1.461.52-2.923,1.038-2.981.852a86.743,86.743,0,0,1-24.494,3.3c-4.131-.016-8.257-.228-12.368-.565-4.114-.317-8.216-.758-12.309-1.257-8.186-1-16.339-2.238-24.472-3.579-16.265-2.683-32.466-5.707-48.692-8.565-16.215-2.91-32.454-5.7-48.775-7.9a392.645,392.645,0,0,0-49.2-3.923,172.812,172.812,0,0,0-24.606,1.484,83.6,83.6,0,0,0-23.646,6.577,47.71,47.71,0,0,0-10.365,6.554,34.951,34.951,0,0,0-7.893,9.361,40.831,40.831,0,0,0-4.425,11.45,59.476,59.476,0,0,0-1.188,12.269,59.617,59.617,0,0,1,1.068-12.3,41.06,41.06,0,0,1,4.333-11.547,35.274,35.274,0,0,1,7.866-9.516,48.147,48.147,0,0,1,10.393-6.718,83.78,83.78,0,0,1,23.775-6.71,173.4,173.4,0,0,1,24.69-1.574,393.287,393.287,0,0,1,49.3,3.762c16.35,2.148,32.612,4.876,48.841,7.741,16.222,2.914,32.41,5.992,48.653,8.728,8.122,1.368,16.261,2.626,24.427,3.657,4.084.512,8.175.966,12.275,1.3,4.1.35,8.206.575,12.315.6a86.144,86.144,0,0,0,24.336-3.2l2.963-.836,2.9-1.02,1.452-.511,1.414-.6c.939-.411,1.889-.8,2.819-1.229a51.365,51.365,0,0,0,10.343-6.582,37.862,37.862,0,0,0,8.078-9.191,38.5,38.5,0,0,0,4.688-11.322,45.711,45.711,0,0,0,1.2-12.236A49.358,49.358,0,0,0-216.824,2334.125Z"/>
      <g id="Path_15" data-name="Path 15">
        <path id="Path_15002" data-name="Path 15002" class="cls-4" d="M-543.824,2427.836l-5.382-10.764h10.764Z"/>
        <path id="Path_15003" data-name="Path 15003" class="cls-4" d="M-547.588,2418.072l3.764,7.528,3.764-7.528h-7.528m-3.236-2h14l-7,14Z"/>
      </g>
    </g>
  </g>
</svg>
