<svg width="288" height="128" viewBox="0 0 288 128" fill="none" xmlns="http://www.w3.org/2000/svg">
<path d="M0 16C0 7.16345 7.16344 0 16 0H272C280.837 0 288 7.16344 288 16V107C288 107 224.5 128 144 128C63.5 128 0 107 0 107V16Z" fill="#FDECEA"/>
<mask id="mask0" mask-type="alpha" maskUnits="userSpaceOnUse" x="0" y="0" width="288" height="128">
<path d="M0 16C0 7.16345 7.16344 0 16 0H272C280.837 0 288 7.16344 288 16V107C288 107 224.5 128 144 128C63.5 128 0 107 0 107V16Z" fill="#C4B6FF"/>
</mask>
<g mask="url(#mask0)">
<path d="M38.5095 25.8515C38.4471 25.8753 38.3932 25.917 38.3545 25.9715C38.3159 26.0259 38.2942 26.0905 38.2923 26.1573C38.2904 26.224 38.3083 26.2898 38.3438 26.3463C38.3793 26.4028 38.4307 26.4476 38.4917 26.4749C38.5526 26.5022 38.6202 26.5108 38.686 26.4997C38.7518 26.4885 38.8129 26.4581 38.8614 26.4123C38.9099 26.3664 38.9438 26.3072 38.9587 26.2422C38.9735 26.1771 38.9688 26.1091 38.945 26.0467C38.9132 25.9631 38.8494 25.8955 38.7677 25.8589C38.686 25.8223 38.5931 25.8196 38.5095 25.8515Z" stroke="#EAB2AB" stroke-width="1.5" stroke-linecap="round" stroke-linejoin="round"/>
<path d="M37.5478 23.3286L34.9034 16.3904" stroke="#EAB2AB" stroke-width="1.5" stroke-miterlimit="10" stroke-linecap="round"/>
<path d="M40.6731 31.5282C45.8983 29.5367 48.5197 23.6863 46.5282 18.4611C44.5367 13.2359 38.6863 10.6144 33.4611 12.606C28.2359 14.5975 25.6144 20.4478 27.606 25.6731C29.5975 30.8983 35.4478 33.5197 40.6731 31.5282Z" stroke="#EAB2AB" stroke-width="1.5" stroke-miterlimit="10"/>
<path d="M113.695 -0.743506C113.758 -0.766117 113.813 -0.806842 113.852 -0.860535C113.892 -0.914227 113.915 -0.978475 113.918 -1.04515C113.921 -1.11183 113.905 -1.17794 113.87 -1.23513C113.836 -1.29232 113.785 -1.33801 113.725 -1.36643C113.664 -1.39485 113.597 -1.40473 113.531 -1.3948C113.465 -1.38488 113.403 -1.35561 113.354 -1.31068C113.304 -1.26576 113.269 -1.2072 113.253 -1.14242C113.237 -1.07764 113.241 -1.00954 113.263 -0.946735C113.294 -0.862516 113.356 -0.79379 113.437 -0.755677C113.518 -0.717565 113.611 -0.713187 113.695 -0.743506Z" stroke="#EAB2AB" stroke-width="1.5" stroke-linecap="round" stroke-linejoin="round"/>
<path d="M114.61 1.79689L117.125 8.78296" stroke="#EAB2AB" stroke-width="1.5" stroke-miterlimit="10" stroke-linecap="round"/>
<path d="M111.638 -6.45938C106.376 -4.56526 103.647 1.23536 105.541 6.49668C107.435 11.758 113.235 14.4877 118.497 12.5935C123.758 10.6994 126.488 4.8988 124.594 -0.36252C122.699 -5.62384 116.899 -8.3535 111.638 -6.45938Z" stroke="#EAB2AB" stroke-width="1.5" stroke-miterlimit="10"/>
<path d="M81.285 68.1867C81.2202 68.1708 81.1521 68.1743 81.0893 68.1971C81.0265 68.2198 80.9719 68.2606 80.9323 68.3144C80.8928 68.3681 80.87 68.4324 80.867 68.4991C80.864 68.5658 80.8808 68.6319 80.9153 68.689C80.9498 68.7461 81.0005 68.7917 81.061 68.82C81.1214 68.8484 81.1889 68.8581 81.2549 68.8481C81.3209 68.838 81.3824 68.8087 81.4317 68.7637C81.481 68.7186 81.5159 68.66 81.5318 68.5952C81.5533 68.5083 81.5393 68.4164 81.493 68.3398C81.4467 68.2632 81.3719 68.2082 81.285 68.1867Z" stroke="#EAB2AB" stroke-width="1.5" stroke-linecap="round" stroke-linejoin="round"/>
<path d="M81.9313 65.5652L83.7089 58.3562" stroke="#EAB2AB" stroke-width="1.5" stroke-miterlimit="10" stroke-linecap="round"/>
<path d="M79.8306 74.0851C85.2599 75.4238 90.7464 72.1077 92.0851 66.6784C93.4238 61.2492 90.1078 55.7626 84.6785 54.4239C79.2492 53.0852 73.7627 56.4013 72.424 61.8306C71.0853 67.2599 74.4013 72.7464 79.8306 74.0851Z" stroke="#EAB2AB" stroke-width="1.5" stroke-miterlimit="10"/>
<path d="M220.513 35.8574C220.567 35.8965 220.631 35.9187 220.698 35.9212C220.765 35.9237 220.831 35.9064 220.888 35.8714C220.944 35.8364 220.99 35.7854 221.017 35.7247C221.045 35.664 221.055 35.5965 221.044 35.5306C221.033 35.4646 221.004 35.4033 220.958 35.3544C220.913 35.3055 220.854 35.2711 220.789 35.2557C220.724 35.2402 220.656 35.2443 220.593 35.2676C220.531 35.2908 220.476 35.332 220.437 35.3861C220.385 35.4586 220.363 35.549 220.377 35.6374C220.392 35.7258 220.44 35.8049 220.513 35.8574Z" stroke="#EAB2AB" stroke-width="1.5" stroke-linecap="round" stroke-linejoin="round"/>
<path d="M218.93 38.0447L214.577 44.0599" stroke="#EAB2AB" stroke-width="1.5" stroke-miterlimit="10" stroke-linecap="round"/>
<path d="M224.074 30.9359C219.544 27.6576 213.214 28.6724 209.936 33.2025C206.658 37.7326 207.672 44.0626 212.203 47.3409C216.733 50.6192 223.063 49.6044 226.341 45.0743C229.619 40.5442 228.604 34.2142 224.074 30.9359Z" stroke="#EAB2AB" stroke-width="1.5" stroke-miterlimit="10"/>
<path d="M171.739 127.038C171.689 127.083 171.654 127.142 171.638 127.206C171.621 127.271 171.624 127.339 171.647 127.402C171.669 127.465 171.709 127.52 171.763 127.56C171.816 127.6 171.88 127.623 171.947 127.626C172.014 127.63 172.08 127.613 172.137 127.579C172.195 127.545 172.241 127.495 172.269 127.435C172.298 127.374 172.308 127.307 172.299 127.241C172.289 127.175 172.26 127.113 172.216 127.063C172.156 126.997 172.072 126.957 171.982 126.952C171.893 126.948 171.805 126.979 171.739 127.038Z" stroke="#EAB2AB" stroke-width="1.5" stroke-linecap="round" stroke-linejoin="round"/>
<path d="M169.932 125.032L164.964 119.514" stroke="#EAB2AB" stroke-width="1.5" stroke-miterlimit="10" stroke-linecap="round"/>
<path d="M175.804 131.553C179.96 127.811 180.295 121.409 176.553 117.254C172.811 113.098 166.409 112.763 162.254 116.505C158.098 120.247 157.763 126.649 161.505 130.804C165.247 134.96 171.649 135.295 175.804 131.553Z" stroke="#EAB2AB" stroke-width="1.5" stroke-miterlimit="10"/>
<path d="M243.49 96.9296C243.431 96.8996 243.364 96.8879 243.297 96.8961C243.231 96.9042 243.169 96.9318 243.118 96.9754C243.068 97.019 243.031 97.0766 243.013 97.1409C242.995 97.2052 242.997 97.2734 243.018 97.3368C243.039 97.4002 243.078 97.4559 243.131 97.497C243.183 97.5381 243.247 97.5627 243.314 97.5676C243.38 97.5726 243.447 97.5576 243.505 97.5248C243.563 97.4919 243.61 97.4425 243.64 97.3829C243.68 97.303 243.687 97.2103 243.659 97.1253C243.631 97.0403 243.57 96.9699 243.49 96.9296Z" stroke="#EAB2AB" stroke-width="1.5" stroke-linecap="round" stroke-linejoin="round"/>
<path d="M244.705 94.5185L248.047 87.8878" stroke="#EAB2AB" stroke-width="1.5" stroke-miterlimit="10" stroke-linecap="round"/>
<path d="M240.756 102.355C245.75 104.871 251.838 102.863 254.355 97.8693C256.871 92.8756 254.863 86.7875 249.869 84.2711C244.876 81.7546 238.787 83.7628 236.271 88.7565C233.755 93.7502 235.763 99.8383 240.756 102.355Z" stroke="#EAB2AB" stroke-width="1.5" stroke-miterlimit="10"/>
<path d="M25.3756 93.5952C25.309 93.5923 25.2429 93.6093 25.1859 93.644C25.1288 93.6787 25.0834 93.7295 25.0552 93.79C25.027 93.8505 25.0175 93.918 25.0277 93.984C25.0379 94.05 25.0674 94.1114 25.1126 94.1606C25.1577 94.2098 25.2164 94.2445 25.2813 94.2603C25.3461 94.2761 25.4142 94.2723 25.4769 94.2494C25.5396 94.2266 25.5941 94.1856 25.6335 94.1317C25.673 94.0779 25.6955 94.0135 25.6984 93.9468C25.7022 93.8574 25.6704 93.7701 25.6098 93.7042C25.5493 93.6382 25.4651 93.599 25.3756 93.5952Z" stroke="#EAB2AB" stroke-width="1.5" stroke-linecap="round" stroke-linejoin="round"/>
<path d="M25.4912 90.8977L25.8088 83.4795" stroke="#EAB2AB" stroke-width="1.5" stroke-miterlimit="10" stroke-linecap="round"/>
<path d="M25.1157 99.6646C30.7025 99.9039 35.4254 95.5688 35.6646 89.9821C35.9039 84.3953 31.5688 79.6724 25.9821 79.4332C20.3953 79.1939 15.6724 83.529 15.4332 89.1157C15.1939 94.7025 19.5289 99.4254 25.1157 99.6646Z" stroke="#EAB2AB" stroke-width="1.5" stroke-miterlimit="10"/>
</g>
<path d="M140.106 35.1567H147.894V45.2359H140.106V35.1567Z" fill="#555A66"/>
<path d="M120.04 44.9093L125.547 39.4029L132.673 46.5289L127.166 52.0353L120.04 44.9093Z" fill="#555A66"/>
<path d="M160.832 52.0435L155.326 46.5371L162.452 39.4111L167.958 44.9175L160.832 52.0435Z" fill="#333940"/>
<path d="M144 94.3503C158.631 94.3503 170.492 82.4895 170.492 67.8584C170.492 53.2274 158.631 41.3666 144 41.3666C129.369 41.3666 117.508 53.2274 117.508 67.8584C117.508 82.4895 129.369 94.3503 144 94.3503Z" fill="#707789"/>
<path d="M144 87.9936C155.12 87.9936 164.135 78.9788 164.135 67.8584C164.135 56.7381 155.12 47.7233 144 47.7233C132.88 47.7233 123.865 56.7381 123.865 67.8584C123.865 78.9788 132.88 87.9936 144 87.9936Z" fill="white"/>
<path d="M137.586 34.219C137.586 33.1145 138.481 32.219 139.586 32.219H148.414C149.518 32.219 150.414 33.1145 150.414 34.219V36.5165C150.414 37.6211 149.518 38.5165 148.414 38.5165H139.586C138.481 38.5165 137.586 37.6211 137.586 36.5165V34.219Z" fill="#707789"/>
<path d="M145.027 66.2007L133.981 55.1538L130.667 58.4678L141.713 69.5147L145.027 66.2007Z" fill="#333940"/>
<path d="M144 71.9637C146.267 71.9637 148.105 70.1257 148.105 67.8584C148.105 65.5911 146.267 63.7531 144 63.7531C141.733 63.7531 139.895 65.5911 139.895 67.8584C139.895 70.1257 141.733 71.9637 144 71.9637Z" fill="#555A66"/>
<path d="M167.324 98.1681C174.682 95.9205 177.378 87.409 174.531 80.8144C172.286 75.6136 166.006 66.6157 168.987 60.5535C169.139 60.2456 168.846 59.9085 168.522 60.0228C165.931 60.9387 159.018 64.1975 161.162 72.3848C161.162 72.3848 159.176 70.032 157.409 69.2913C157.147 69.1815 156.864 69.3898 156.885 69.6728C157.26 74.6228 153.739 77.274 151.703 81.4545C149.877 85.2021 150.659 88.8601 152.533 92.1218C154.37 95.3182 157.418 97.5145 160.841 98.323L163.155 98.0676L164.954 98.6138C165.666 98.5484 166.379 98.4224 167.088 98.2328C167.166 98.212 167.245 98.1904 167.324 98.1681Z" fill="#F3D652"/>
<path d="M168.247 89.1448C167.602 90.2867 166.333 90.4338 166.333 90.4338C168.725 83.4577 165.494 79.8508 163.818 78.5283C163.544 78.3118 163.151 78.5444 163.207 78.8894C163.886 83.1277 157.414 87.3533 156.934 91.5297C156.589 94.5314 158.249 97.2425 160.841 98.3225C162.203 98.6444 163.625 98.7462 165.053 98.6037C168.914 97.5737 170.237 93.0175 168.936 89.2058C168.831 88.8972 168.407 88.8608 168.247 89.1448Z" fill="#EDBE2C"/>
<path d="M168.936 89.2059C168.831 88.8972 168.407 88.8609 168.247 89.1449C167.602 90.2868 166.333 90.4339 166.333 90.4339C168.724 83.4578 165.493 79.8509 163.818 78.5284C163.544 78.3119 163.151 78.5445 163.207 78.8895C163.291 79.4141 163.265 79.9385 163.155 80.4627V98.6507C163.783 98.682 164.417 98.6673 165.053 98.6038C168.914 97.5738 170.236 93.0176 168.936 89.2059Z" fill="#EDBE2C"/>
</svg>
