<svg width="246" height="246" viewBox="0 0 246 246" fill="none" xmlns="http://www.w3.org/2000/svg">
<path d="M192.526 133.524L194.366 133.506H195.242L196.005 133.524C196.259 133.524 196.522 133.541 196.732 133.55C206.512 134.075 213.137 140.151 216.397 151.602C220.121 164.69 220.051 179.074 219.981 191.751C219.981 193.406 219.963 195.043 219.963 196.663C219.963 207.711 215.643 214.426 207.125 216.615C206.354 216.816 205.548 216.982 204.663 217.114C204.417 217.149 204.146 217.184 203.874 217.21C203.322 217.28 202.831 217.341 202.332 217.376C202.069 217.394 201.815 217.411 201.552 217.42L201.192 217.438C200.824 217.455 200.456 217.473 200.088 217.481C199.834 217.481 199.571 217.481 199.308 217.481H197.985C197.713 217.481 196.758 217.446 196.758 217.446C196.495 217.446 196.232 217.429 195.97 217.42L192.657 217.28L191.676 217.254C191.676 217.254 189.713 217.359 189.713 217.368C170.118 217.7 150.558 218.996 130.972 219.688C116.11 220.213 98.4605 222.901 87.0069 210.95C84.9475 208.806 83.9047 206.275 80.2154 207.098C75.4131 208.166 76.8065 214.172 74.9662 217.42C72.0129 222.62 63.9858 220.686 58.9469 220.476C56.6246 220.379 54.057 220.817 51.8399 220.616C46.8098 220.169 48.5449 214.759 48.4134 211.563C47.4758 190.412 47.7387 169.112 47.9928 148.512C48.133 137.026 48.282 125.154 48.2206 113.388V113.23L48.3871 107.82C48.5975 101.595 49.3774 97.4366 49.9996 94.1011L50.1047 93.5145C50.797 89.8025 51.8399 86.1518 53.2332 82.6411C54.3988 79.6996 57.4046 76.1276 57.9128 73.1072C58.8505 67.548 51.9888 67.1978 48.4222 66.4887C41.7972 65.1755 32.9725 62.0413 28.5383 54.5997C26.6367 51.4043 24.8139 46.1252 26.9872 39.1039C28.5909 33.9211 33.5246 25.2276 48.5186 25.2276C53.9518 25.2276 59.4114 26.322 63.793 27.2062C65.0199 27.4513 66.1591 27.6789 67.1669 27.854C70.1902 28.3706 72.4248 28.6069 74.4141 28.6069C76.6049 28.6069 78.5766 28.318 80.601 27.7052C86.4285 25.9368 92.7732 25 98.9337 25C101.992 25 104.998 25.2276 107.855 25.6829C116.136 27.0048 125.373 30.5155 132.541 35.0767C134.837 36.5387 136.888 38.1496 138.877 39.7167C141.146 41.5027 143.293 43.1923 145.414 44.3304C147.193 45.276 149.962 45.74 152.898 46.239C155.448 46.668 158.086 47.1057 160.785 47.9461C161.547 48.1825 162.389 48.3926 163.291 48.6115C167.13 49.5483 172.396 50.844 176.533 55.9392C177.111 56.6483 177.646 57.3925 178.136 58.1542C181.773 63.836 182.623 70.5509 180.467 76.5829C177.172 85.7841 167.673 86.7121 163.107 87.1673L162.503 87.2286C161.714 87.3074 160.899 87.3512 160.084 87.3512C151.829 87.3512 143.39 83.8143 136.581 79.5945C129.772 75.3747 123.734 82.431 118.432 86.2831C116.005 88.0428 110.747 88.6907 110.826 92.534C110.896 96.0972 117.941 100.562 120.439 102.751C126.442 108.021 129.965 101.385 134.355 98.3909C146.992 89.7762 167.401 105.438 152.337 116.093C148.481 118.816 143.101 118.859 139.131 121.503C133.268 125.408 136.826 130.652 142.224 133.366C146.65 135.599 154.87 134.53 159.751 134.539L159.97 134.513L186.838 133.655L188.968 133.594L192.491 133.524H192.526Z" fill="#FFCD97"/>
<path d="M132.735 111.751C133.234 111.725 133.734 111.664 134.233 111.637C134.461 111.629 134.697 111.629 134.925 111.637C135.118 111.655 135.337 111.699 135.574 111.786L135.179 110.823C135.074 111.025 134.96 111.217 134.829 111.41C134.794 111.462 134.75 111.515 134.715 111.567C134.759 111.515 134.715 111.567 134.697 111.594C134.627 111.681 134.557 111.76 134.487 111.848C134.189 112.18 133.865 112.478 133.532 112.767C132.866 113.345 132.165 113.879 131.569 114.535C131.236 114.903 131.367 115.49 131.858 115.63C132.568 115.84 133.313 115.954 134.049 116.015C134.785 116.076 135.495 116.102 136.214 116.041C136.555 116.015 136.888 115.761 136.871 115.385C136.853 115.052 136.582 114.693 136.214 114.728C135.521 114.789 134.82 114.772 134.119 114.71C133.725 114.675 133.558 114.658 133.19 114.588C132.857 114.527 132.533 114.457 132.209 114.36L132.498 115.455C133.111 114.789 133.83 114.238 134.505 113.642C135.179 113.047 135.872 112.32 136.31 111.48C136.52 111.086 136.327 110.657 135.916 110.517C134.882 110.158 133.795 110.377 132.726 110.429C132.384 110.447 132.051 110.718 132.069 111.086C132.086 111.427 132.358 111.76 132.726 111.743L132.735 111.751Z" fill="#060606"/>
<path d="M138.265 104.59C141.438 104.59 144.812 104.152 147.87 105.22L147.581 104.126C146.31 105.115 144.794 105.798 143.41 106.603C142.095 107.365 140.693 108.214 139.843 109.51C139.554 109.948 139.939 110.473 140.412 110.499C143.523 110.683 146.634 110.989 149.728 111.348C150.569 111.445 150.56 110.131 149.728 110.035C146.626 109.676 143.523 109.37 140.412 109.186L140.982 110.175C141.78 108.958 143.269 108.197 144.505 107.496C145.863 106.726 147.283 106.026 148.519 105.062C148.939 104.73 148.641 104.108 148.229 103.968C145.057 102.865 141.569 103.294 138.274 103.294C137.424 103.294 137.424 104.607 138.274 104.607L138.265 104.59Z" fill="#060606"/>
<path d="M160.355 143.302C155.018 143.302 149.673 143.232 144.38 142.488C140.611 141.954 135.187 141.936 134.591 146.821C134.775 145.788 135.108 145.14 135.327 144.151C135.581 142.987 136.458 141.735 135.353 140.456C132.304 136.946 129.578 142.741 128.772 145.018C129.964 143.337 130.7 141.078 130.726 139.012C130.753 136.709 129.193 135.265 129.053 133.076L127.396 125.355L125.249 118.683L61.6016 135.834L63.2666 142.741L67.7972 159.174L71.8458 172.271L75.8945 180.842L79.0317 185.666C87.2429 201.284 102.36 211.659 124.662 210.214L132.672 210.389C136.361 210.372 140.05 210.31 143.74 210.24C154.378 210.048 165.464 209.925 176.076 208.743L180.844 208.857C184.813 208.953 188.038 208.481 190.956 208.498C203.015 208.586 207.501 194.324 208.991 184.388C209.99 177.752 210.227 170.879 209.929 164.182C209.762 160.426 209.771 155.847 208.483 152.293C204.539 141.42 194.786 142.172 185.453 142.453C177.216 142.698 168.952 143.249 160.706 143.249" fill="#FF8D40"/>
<path d="M160.354 142.646C157.041 142.646 153.72 142.619 150.407 142.418C147.673 142.252 144.957 141.753 142.222 141.613C138.577 141.437 134.555 142.488 133.959 146.638C133.845 147.452 135.054 147.828 135.229 146.988C135.44 145.946 135.781 144.896 136.088 143.871C136.351 143.013 136.71 142.138 136.491 141.219C136.158 139.809 134.59 138.548 133.117 138.706C130.436 138.977 128.929 142.672 128.149 144.834C127.886 145.57 128.955 145.92 129.349 145.342C131.014 142.908 132.013 139.52 130.944 136.657C130.462 135.37 129.936 134.241 129.691 132.875C129.603 132.385 129.481 131.886 129.375 131.396C128.788 128.682 128.298 125.959 127.448 123.315C126.931 121.713 126.413 120.102 125.896 118.5C125.791 118.159 125.441 117.948 125.09 118.045C117.878 119.988 110.666 121.932 103.454 123.875C92.0527 126.948 80.6604 130.013 69.2594 133.085C66.6479 133.786 64.0452 134.486 61.4338 135.195C61.0832 135.292 60.8904 135.659 60.9781 136.001C62.3013 141.464 63.7385 146.865 65.2283 152.276C66.7268 157.695 68.3305 163.062 69.9867 168.437C70.6615 170.626 71.31 172.639 72.2827 174.697C73.4745 177.209 74.4998 179.871 76.0159 182.208C76.8571 183.504 77.7685 184.782 78.5397 186.122C79.8542 188.398 81.1424 190.639 82.711 192.749C85.7782 196.872 89.4763 200.488 93.7527 203.351C98.2483 206.371 103.322 208.49 108.589 209.698C111.437 210.346 114.346 210.74 117.265 210.906C119.867 211.055 122.435 210.845 125.029 210.871C128.718 210.906 132.399 211.046 136.088 211.011C144.036 210.924 151.985 210.81 159.924 210.521C163.859 210.372 167.794 210.162 171.72 209.829C173.227 209.698 174.769 209.435 176.277 209.409C177.109 209.392 177.959 209.444 178.792 209.47C181.184 209.523 183.559 209.532 185.942 209.392C188.703 209.225 191.63 209.418 194.338 208.805C204.109 206.573 207.842 194.868 209.367 186.235C210.664 178.916 210.909 171.431 210.594 164.016C210.331 157.905 210.261 151.348 205.896 146.541C202.584 142.891 197.659 141.875 192.927 141.7C186.188 141.455 179.388 142.033 172.666 142.304C168.688 142.462 164.709 142.584 160.73 142.593C159.88 142.593 159.88 143.906 160.73 143.906C168.696 143.898 176.645 143.39 184.61 143.136C189.535 142.978 194.802 142.488 199.561 144.038C205.046 145.824 207.991 150.796 208.78 156.294C209.288 159.779 209.305 163.394 209.384 166.905C209.472 170.783 209.367 174.662 209.042 178.522C208.578 183.968 207.702 189.44 205.826 194.596C204.231 199 201.751 203.561 197.624 206.056C195.538 207.317 193.242 207.825 190.824 207.833C187.502 207.851 184.199 208.254 180.868 208.192C179.396 208.166 177.924 208.087 176.452 208.087C175.225 208.087 173.998 208.306 172.771 208.411C170.887 208.586 169.003 208.726 167.11 208.84C159.407 209.322 151.678 209.427 143.958 209.567C138.822 209.663 133.705 209.733 128.569 209.628C124.091 209.532 119.604 209.856 115.144 209.418C109.614 208.884 104.137 207.439 99.1597 204.962C94.594 202.694 90.4928 199.595 87.0225 195.866C85.2699 193.983 83.6837 191.943 82.2641 189.799C81.1687 188.144 80.3011 186.358 79.2232 184.703C78.3381 183.346 77.3742 182.007 76.5592 180.606C76.0684 179.766 75.7004 178.829 75.2797 177.945L72.9137 172.946C72.7997 172.709 72.6946 172.473 72.5807 172.245C72.5544 172.193 72.3966 171.834 72.4667 172.009C72.5368 172.184 72.4404 171.886 72.4229 171.851C72.3616 171.65 72.3002 171.449 72.2389 171.247C70.6965 166.275 69.0929 161.319 67.7083 156.303C66.1747 150.752 64.5622 145.228 63.2127 139.634C62.8885 138.303 62.573 136.981 62.2487 135.651L61.793 136.456C69.0052 134.512 76.2174 132.569 83.4296 130.625C94.8306 127.552 106.223 124.488 117.624 121.415C120.235 120.715 122.838 120.015 125.45 119.305L124.643 118.85C125.371 121.118 126.265 123.385 126.825 125.696C127.202 127.228 127.491 128.778 127.816 130.319C128.105 131.676 128.28 133.147 128.674 134.477C129.148 136.071 130.129 137.445 130.085 139.17C130.033 141.131 129.323 143.057 128.227 144.668L129.428 145.176C130.033 143.504 131.023 140.991 132.732 140.168C134.011 139.555 135.405 140.956 135.203 142.243C134.975 143.731 134.274 145.158 133.976 146.638L135.247 146.988C135.834 142.908 140.137 142.672 143.467 143.022C146.078 143.293 148.663 143.644 151.292 143.775C154.316 143.933 157.348 143.95 160.371 143.95C161.221 143.95 161.221 142.637 160.371 142.637L160.354 142.646Z" fill="#050505"/>
<path d="M73.6063 41.4148C79.986 34.3148 97.977 32.9928 106.504 34.3498C113.593 35.4791 121.752 38.5958 127.869 42.4829C133.556 46.0986 137.429 51.4215 138.516 59.1519C120.884 55.4749 102.341 53.9341 84.8759 49.154C81.6159 48.261 77.7163 47.3943 74.6228 45.9936C73.3609 45.4245 72.3006 44.2601 70.8984 43.8837" fill="white"/>
<path d="M74.0713 41.8787C76.9544 38.727 81.2835 37.1949 85.3321 36.1881C89.8715 35.05 94.5861 34.5598 99.2657 34.5335C103.945 34.5072 108.529 35.1901 113.059 36.5471C118.72 38.2455 124.548 40.6706 129.28 44.26C134.17 47.9632 137 53.3124 137.877 59.3269L138.683 58.5214C129.508 56.6129 120.227 55.291 110.982 53.8026C101.833 52.3319 92.7984 50.5634 83.8423 48.1996C81.5376 47.5955 79.2241 47.0177 76.9807 46.2298C75.8765 45.8446 74.8074 45.4244 73.8259 44.7765C72.9321 44.1812 72.0995 43.5859 71.0655 43.262C70.2593 43.0081 69.9087 44.2775 70.7149 44.5314C71.6351 44.8203 72.3712 45.3894 73.1599 45.9146C73.9486 46.4399 74.8512 46.8339 75.7626 47.1841C77.7519 47.9457 79.82 48.506 81.8794 49.0488C86.2785 50.2045 90.6689 51.3513 95.1207 52.2793C104.261 54.1879 113.506 55.5011 122.716 56.9806C127.939 57.8211 133.145 58.7141 138.324 59.7909C138.849 59.9047 139.209 59.4845 139.13 58.9854C138.341 53.6013 136.019 48.6023 132.005 44.8641C127.65 40.8019 121.822 38.193 116.275 36.2232C111.315 34.4722 106.206 33.3604 100.94 33.2378C96.0584 33.124 91.1246 33.553 86.3574 34.5948C81.5902 35.6366 76.4724 37.3 73.1248 40.9507C72.5552 41.5723 73.4841 42.5003 74.0538 41.8787H74.0713Z" fill="#050505"/>
<path d="M82.2304 59.8359C79.952 61.5431 76.1575 64.2483 74.2033 66.3845C66.5267 74.7715 60.8218 83.8939 58.7449 95.1263C58.1402 98.4005 57.369 102.218 57.1675 108.11L57.001 113.362C57.1675 146.385 55.7478 178.603 57.185 211.196L63.1002 210.768C62.96 203.414 62.4693 199.229 62.6182 193.109C63.2579 167.475 61.1548 141.771 62.3027 116.181L62.1538 111.13C62.1538 111.13 62.9249 99.2322 63.7224 96.2644C65.0632 91.2829 66.1936 87.5359 68.1303 83.6225C70.1196 79.5954 73.6074 75.3581 76.5694 71.935C79.8644 68.1267 81.9588 67.6627 85.4641 64.0207" fill="#050505"/>
<path d="M81.9063 59.2666C80.0573 60.6499 78.1907 61.9981 76.4118 63.4689C74.5364 65.0097 72.9328 66.7694 71.3641 68.6254C68.2356 72.3199 65.4139 76.2858 63.1529 80.5757C58.78 88.8751 56.8959 98.374 56.5279 107.689C56.1861 116.383 56.3701 125.093 56.2913 133.787C56.1774 145.921 55.9758 158.046 55.9057 170.18C55.8268 183.855 55.932 197.539 56.5366 211.205C56.5542 211.538 56.8258 211.888 57.1939 211.862C59.1656 211.722 61.1374 211.573 63.1091 211.433C63.4596 211.406 63.7751 211.152 63.7664 210.776C63.6612 205.637 63.2493 200.515 63.2581 195.376C63.2581 189.117 63.4421 182.866 63.3808 176.606C63.2493 163.851 62.7586 151.095 62.6447 138.339C62.5921 131.966 62.6271 125.601 62.8462 119.228C62.9076 117.538 62.9601 115.892 62.9076 114.203C62.8813 113.178 62.7936 112.145 62.8199 111.121C62.8725 108.573 63.188 105.999 63.4246 103.461C63.5823 101.753 63.7488 100.046 64.003 98.3565C64.2922 96.413 64.8705 94.5395 65.4226 92.6572C66.2376 89.9082 67.1665 87.1942 68.3934 84.6028C69.7867 81.6788 71.6445 79.0086 73.6513 76.4784C75.5354 74.0972 77.4721 71.6458 79.7944 69.676C81.8538 67.9338 84.0446 66.4368 85.9287 64.502C86.5158 63.8979 85.5869 62.9699 84.9998 63.574C83.2471 65.3687 81.2579 66.7957 79.3212 68.3716C77.2793 70.0262 75.5968 72.031 73.9318 74.0534C70.4265 78.2994 67.4995 82.7381 65.5804 87.9209C64.1432 91.8255 62.9514 95.8439 62.4606 99.9761C62.075 103.242 61.8121 106.525 61.5843 109.808C61.4441 111.769 61.5668 113.721 61.6281 115.682C61.6982 118.09 61.4704 120.523 61.409 122.931C61.3302 126.188 61.2951 129.445 61.2951 132.701C61.2776 145.606 61.7683 158.502 61.9786 171.397C62.1013 178.646 62.1189 185.886 61.9524 193.135C61.8209 199.027 62.3117 204.902 62.4343 210.794L63.0916 210.137C61.1198 210.277 59.1481 210.426 57.1764 210.566L57.8336 211.223C56.782 187.305 57.264 163.36 57.5269 139.425C57.6321 129.558 57.448 119.674 57.7547 109.816C58.0089 101.587 59.1043 93.1387 62.2766 85.4783C64.4148 80.3218 67.4294 75.5592 70.9172 71.2168C72.5472 69.1858 74.2209 67.1284 76.1664 65.395C78.1118 63.6615 80.3903 62.0331 82.5461 60.4135C83.2121 59.9145 82.5636 58.7764 81.8801 59.2754L81.9063 59.2666Z" fill="#050505"/>
<path d="M170.784 62.8896C170.469 62.3994 170.127 61.9266 169.759 61.4713C166.771 57.7944 162.529 57.663 158.226 56.3236C146.045 52.5503 133.137 52.7166 120.658 50.5367C103.912 47.6126 87.6031 42.7187 71.207 38.3063C62.9607 36.0914 39.1509 29.5428 35.3915 41.7032C32.2893 51.7273 41.9376 56.2886 50.1664 57.9257C61.2519 60.1319 74.204 60.0531 82.8797 51.7098C81.0219 58.6173 82.6869 64.6055 87.2087 70.0597C92.493 76.4332 100.704 79.5324 109.003 79.76C119.598 80.0576 122.148 66.9518 121.99 58.8099C121.99 58.8624 125.881 61.1912 126.381 61.5677C128.379 63.0822 130.254 64.7544 132.156 66.3915C135.845 69.5782 139.701 72.87 144.433 74.3758C149.857 76.1005 155.808 79.1209 161.644 78.5343C165.57 78.1316 170.74 77.8514 172.248 73.6579C173.58 69.9284 172.844 66.1114 170.784 62.8984V62.8896Z" fill="#FF8D40"/>
<path d="M171.354 62.5575C169.338 59.4934 166.613 57.865 163.108 56.9282C159.173 55.8689 155.247 54.7045 151.251 53.8991C142.68 52.1832 133.926 51.7717 125.268 50.5898C107.172 48.1297 89.5749 42.5792 71.987 37.8429C67.6492 36.6698 63.2938 35.5492 58.8596 34.7963C53.9171 33.9646 48.6942 33.4043 43.7342 34.4023C39.4139 35.269 35.7333 37.7116 34.5765 42.1503C33.8667 44.8642 33.9982 47.7445 35.3828 50.2309C36.6797 52.5596 38.8618 54.2931 41.1841 55.545C46.6436 58.4953 53.2686 59.4671 59.3942 59.756C66.2383 60.08 73.3979 59.0381 79.2956 55.3436C80.7503 54.4332 82.0998 53.3651 83.353 52.1832L82.2576 51.5441C80.8029 57.1121 81.5565 62.7326 84.6324 67.6265C87.6294 72.3891 92.09 75.9348 97.2866 78.0534C99.8893 79.1127 102.623 79.7868 105.401 80.1458C107.803 80.461 110.335 80.6798 112.684 79.9619C116.417 78.8238 118.906 75.6721 120.369 72.1965C122.139 68.0205 122.735 63.3367 122.656 58.828L121.535 59.292C122.341 60.1062 123.673 60.649 124.637 61.2443C126.495 62.4 128.142 63.8007 129.798 65.2277C133.742 68.6333 137.659 72.3366 142.523 74.3764C145.099 75.4533 147.824 76.2937 150.453 77.213C153.03 78.1147 155.668 78.9201 158.402 79.1828C160.61 79.4016 162.871 79.1302 165.062 78.8151C166.963 78.5349 168.953 78.0797 170.539 76.9416C175.061 73.6936 173.895 66.646 171.354 62.5663C170.907 61.8484 169.768 62.505 170.215 63.2317C171.608 65.4641 172.44 68.0117 172.23 70.6732C172.055 72.8093 171.345 74.9192 169.443 76.0924C167.84 77.0816 165.894 77.4056 164.054 77.6332C161.837 77.9046 159.646 78.0884 157.429 77.747C154.896 77.3618 152.46 76.5388 150.059 75.6809C147.658 74.8229 145.257 74.1138 142.952 73.1333C138.281 71.1547 134.513 67.5565 130.727 64.291C129.132 62.9077 127.537 61.4982 125.741 60.3776C125.057 59.9486 124.365 59.5284 123.682 59.1082C123.392 58.9331 123.103 58.7492 122.814 58.5741C122.718 58.5129 122.288 58.1802 122.463 58.364C122.069 57.9613 121.333 58.259 121.342 58.828C121.403 62.47 121 66.1645 119.905 69.6489C118.844 73.0369 116.969 76.4951 113.674 78.1585C111.886 79.0602 109.941 79.1828 107.969 79.069C105.279 78.9114 102.606 78.4474 100.029 77.6419C95.0081 76.0748 90.46 73.177 87.2088 69.0273C83.2916 64.0283 81.907 58.0576 83.5107 51.8943C83.6772 51.2552 82.8885 50.8087 82.4153 51.2552C77.3764 56.0265 70.6725 58.1276 63.8371 58.4516C57.6415 58.7405 50.9902 57.9876 45.1363 55.8777C40.185 54.0917 35.0848 50.5548 35.4704 44.6716C35.6281 42.3779 36.4431 40.0579 38.1257 38.447C39.5891 37.055 41.5083 36.2758 43.4538 35.8118C48.1421 34.7087 53.2073 35.2165 57.9044 35.9694C62.1195 36.6435 66.2646 37.6678 70.3921 38.7709C86.5866 43.122 102.694 47.9634 119.221 50.9488C127.362 52.4196 135.617 52.9186 143.811 54.0042C148.008 54.5645 152.189 55.2999 156.272 56.438C158.007 56.9195 159.734 57.436 161.486 57.865C163.143 58.2765 164.825 58.6967 166.35 59.5109C167.989 60.3864 169.207 61.6821 170.223 63.2229C170.688 63.9233 171.827 63.2667 171.363 62.5575H171.354Z" fill="#060606"/>
<path d="M81.872 83.4385C80.3735 87.9034 78.2791 92.3683 76.5089 96.7807C74.432 101.946 73.0036 107.251 70.9092 112.425C69.1478 116.776 67.3162 121.066 65.4234 125.356C64.8012 126.766 62.3212 134.461 61.6113 135.836L125.259 118.685C120.352 113.502 109.362 105.929 103.92 101.316C96.6557 95.1611 89.4435 88.7351 82.1086 82.7206" fill="white"/>
<path d="M81.2305 83.2628C79.8021 87.4738 77.9531 91.5185 76.2618 95.6332C74.6055 99.6691 73.3085 103.836 71.8714 107.96C69.4527 114.867 66.0438 121.39 63.6514 128.297C62.8277 130.678 62.1616 133.244 61.0399 135.511C60.7946 136.01 61.1977 136.632 61.7848 136.474C68.997 134.53 76.2092 132.587 83.4214 130.643C94.8224 127.57 106.215 124.506 117.616 121.433C120.227 120.733 122.83 120.033 125.441 119.324C125.932 119.192 126.072 118.579 125.73 118.229C121.401 113.703 116.17 110.017 111.201 106.226C105.268 101.691 99.651 96.8151 93.9986 91.9387C90.2217 88.6819 86.4359 85.4339 82.5801 82.2735C81.9316 81.7395 80.9939 82.6674 81.6512 83.2015C88.4865 88.8133 95.1116 94.6702 101.842 100.413C106.802 104.642 112.095 108.45 117.195 112.504C119.833 114.596 122.471 116.723 124.802 119.166L125.091 118.072C117.879 120.015 110.666 121.959 103.454 123.902C92.0532 126.975 80.6609 130.039 69.2599 133.112C66.6484 133.813 64.0458 134.513 61.4343 135.222L62.1792 136.185C63.1344 134.25 63.7303 132.105 64.4313 130.074C65.3164 127.518 66.2716 125.067 67.3495 122.589C69.1109 118.527 70.8986 114.447 72.441 110.289C73.9745 106.139 75.2277 101.884 76.8314 97.7519C78.6717 93.0243 80.8713 88.4456 82.5012 83.6392C82.7729 82.8338 81.5022 82.4924 81.2305 83.289V83.2628Z" fill="#050505"/>
<path d="M94.0171 139.546C95.3316 141.683 98.3812 142.313 100.677 142.637C103.552 143.039 106.373 142.707 109.134 141.823C112.078 140.877 114.322 139.363 115.917 136.701C117.511 134.04 118.694 131.028 118.545 128.034C118.502 127.193 117.187 127.185 117.231 128.034C117.362 130.713 116.25 133.497 114.935 135.782C114.374 136.754 113.734 137.743 112.876 138.478C111.728 139.468 110.229 140.098 108.792 140.553C106.382 141.324 103.893 141.691 101.378 141.411C99.4065 141.192 96.3043 140.737 95.1563 138.881C94.7094 138.163 93.5789 138.82 94.0171 139.546Z" fill="#060606"/>
<path d="M99.5102 98.2066C95.7683 100.028 90.9046 100.868 86.8911 101.962C82.7548 103.092 78.0402 104.93 73.7637 105.114L74.1493 102.873L80.4413 87.4033L82.3517 82.9033L94.8131 93.5666L99.3174 97.5763L100.185 98.0052L99.5102 98.2066Z" fill="#060606"/>
<path d="M99.1783 97.637C95.2962 99.4843 91.0022 100.167 86.8835 101.279C82.5544 102.452 78.2955 104.203 73.7648 104.448L74.3958 105.28C74.5798 104.212 74.7113 103.223 75.1144 102.224C75.7979 100.552 76.4727 98.8802 77.1562 97.208C78.462 94.0038 79.7502 90.7996 81.0647 87.6041C80.9507 87.8843 81.161 87.3765 81.2224 87.2364L81.8446 85.7744C82.2039 84.9252 82.5632 84.0759 82.9225 83.2267L81.8884 83.3581C86.4365 87.2452 91.046 91.0797 95.5153 95.0544C96.8911 96.28 98.1881 97.7246 99.8444 98.5563L100.002 97.3569L99.3273 97.5582C98.5211 97.7946 98.8629 99.064 99.6779 98.8277L100.353 98.6263C100.861 98.4775 101.036 97.6896 100.51 97.4269C99.7918 97.068 99.7567 97.0767 99.1345 96.5252C98.3634 95.8335 97.5922 95.1507 96.8123 94.4591C96.1024 93.8287 95.3926 93.1896 94.674 92.5768C91.6945 90.0292 88.715 87.4728 85.7355 84.9252C84.7628 84.0935 83.79 83.2618 82.8173 82.4301C82.5369 82.1849 81.9673 82.1411 81.7832 82.5614C79.128 88.8035 76.5954 95.0981 74.0453 101.384C73.5633 102.575 73.353 103.634 73.1251 104.921C73.055 105.315 73.3004 105.779 73.7561 105.753C78.4094 105.499 82.7647 103.739 87.2252 102.531C91.4667 101.384 95.8483 100.649 99.8356 98.7489C100.598 98.3899 99.932 97.2518 99.1696 97.6108L99.1783 97.637Z" fill="#060606"/>
<path d="M189.143 142.357C179.521 142.603 163.931 143.259 160.715 143.259L189.143 142.357Z" fill="#FF8D40"/>
<path d="M189.144 141.7C179.671 141.946 170.189 142.585 160.716 142.602C159.866 142.602 159.866 143.915 160.716 143.915C170.189 143.898 179.671 143.259 189.144 143.014C189.985 142.996 189.994 141.683 189.144 141.7Z" fill="#050505"/>
<path d="M193.14 207.616C187.829 205.996 185.262 197.478 184.473 192.067C183.193 183.295 183.894 174.155 185.288 165.435C185.84 161.96 191.291 143.006 198.468 143.102C199.327 143.111 202.911 144.188 204.9 146.07C207.187 148.232 209.729 152.653 210.141 161.671C210.474 169.033 210.325 176.536 209.361 183.846C208.405 191.122 206.407 202.704 199.318 206.626C196.934 207.948 194.892 208.158 193.14 207.624V207.616Z" fill="#FF8D40"/>
<path d="M193.314 206.985C188.853 205.532 186.925 199.842 185.882 195.762C184.366 189.844 184.261 183.549 184.594 177.482C184.866 172.693 185.251 167.756 186.487 163.098C187.433 159.552 188.652 156.042 190.203 152.706C191.587 149.73 193.401 146.026 196.381 144.337C197.809 143.522 199.062 143.768 200.552 144.31C202.48 145.011 204.224 146.07 205.495 147.698C208.351 151.34 209.158 156.366 209.438 160.848C209.867 167.782 209.719 174.821 208.956 181.728C208.369 187.016 207.536 192.418 205.6 197.399C204.653 199.842 203.365 202.249 201.507 204.123C199.422 206.233 196.311 207.826 193.305 206.985C192.49 206.758 192.139 208.027 192.954 208.255C198.168 209.717 202.874 205.462 205.24 201.251C207.72 196.821 208.833 191.7 209.605 186.736C210.674 179.855 211.059 172.895 210.928 165.935C210.823 160.235 210.63 154.133 207.878 148.994C207.072 147.497 206.029 146.079 204.671 145.037C203.041 143.785 200.613 142.559 198.51 142.454C195.119 142.297 192.569 145.816 191.018 148.364C188.827 151.953 187.285 155.963 186.031 159.955C184.761 163.991 184.147 168.053 183.7 172.255C182.947 179.312 182.754 186.587 184.051 193.599C184.892 198.178 186.496 203.659 190.238 206.749C191.053 207.423 191.955 207.931 192.963 208.255C193.769 208.518 194.111 207.248 193.314 206.985Z" fill="#050505"/>
<path d="M197.82 182.551C199.502 182.253 200.3 179.487 200.782 177.99C201.719 175.039 203.542 167.484 199.257 166.136C195.471 164.945 194.428 173.008 194.288 175.162C194.157 177.158 194.376 181.247 196.497 182.306C196.996 182.551 197.434 182.621 197.829 182.551H197.82Z" fill="#060606"/>
<path d="M197.995 183.181C199.651 182.805 200.431 181.001 200.948 179.557C201.404 178.287 201.79 176.992 202.079 175.67C202.675 173.008 203.271 169.401 201.544 167.011C200.817 166.004 199.555 165.251 198.276 165.356C196.996 165.462 196.164 166.39 195.576 167.388C194.288 169.585 193.841 172.378 193.64 174.882C193.508 176.519 193.596 178.235 194.043 179.819C194.534 181.526 195.778 183.426 197.82 183.19C198.652 183.094 198.661 181.78 197.82 181.877C194.867 182.218 194.814 177.009 194.937 175.144C195.068 173.157 195.436 171.1 196.146 169.244C196.47 168.394 196.944 167.344 197.767 166.871C198.635 166.372 199.722 166.871 200.326 167.571C201.851 169.357 201.378 172.448 200.975 174.549C200.738 175.757 200.414 176.948 200.046 178.121C199.651 179.364 199.126 181.57 197.645 181.912C196.821 182.104 197.171 183.365 197.995 183.181Z" fill="#060606"/>
</svg>
