<svg xmlns="http://www.w3.org/2000/svg" width="72" height="72" viewBox="0 0 72 72">
    <g fill="none" fill-rule="evenodd">
        <g>
            <g>
                <g transform="translate(-1151 -2849) translate(1151 2849) translate(2 2)">
                    <circle cx="34" cy="34" r="33.6" fill="#D0F1D0"/>
                    <g fill-rule="nonzero" transform="translate(8 8)">
                        <circle cx="25.6" cy="25.6" r="24.85" fill="#EAB14D"/>
                        <path fill="#E49542" d="M25.6.75c-.444 0-.884.012-1.322.035 13.11.688 23.528 11.534 23.528 24.815 0 13.28-10.419 24.128-23.528 24.815.438.023.878.035 1.322.035 13.724 0 24.85-11.126 24.85-24.85C50.45 11.876 39.324.75 25.6.75z"/>
                        <circle cx="25.6" cy="25.6" r="19.364" fill="#F4FBFF"/>
                        <path fill="#DAF1F4" d="M25.6 6.236c-.536 0-1.067.023-1.592.065 9.95.81 17.772 9.14 17.772 19.299 0 10.158-7.823 18.489-17.772 19.299.525.043 1.056.065 1.592.065 10.695 0 19.364-8.67 19.364-19.364 0-10.695-8.67-19.364-19.364-19.364z"/>
                        <circle cx="25.6" cy="25.6" r="2.002" fill="#365E7D"/>
                        <g fill="#000">
                            <path d="M25.6 12.196c.414 0 .75-.336.75-.75v-1.101c0-.414-.336-.75-.75-.75s-.75.336-.75.75v1.1c0 .415.336.75.75.75zM36.877 14.3c-.293-.293-.768-.293-1.06 0l-.78.778c-.292.293-.292.768 0 1.06.147.147.339.22.531.22s.384-.073.53-.22l.779-.778c.293-.293.293-.767 0-1.06zM39.673 24.85c-.414 0-.75.336-.75.75s.336.75.75.75h1.1c.415 0 .75-.336.75-.75s-.335-.75-.75-.75h-1.1zM36.04 35.038c-.292-.293-.767-.293-1.06 0-.293.293-.293.767 0 1.06l.778.779c.147.146.339.22.53.22.192 0 .384-.074.53-.22.294-.293.294-.768 0-1.061l-.777-.778zM24.768 39.673v1.1c0 .415.336.75.75.75.415 0 .75-.335.75-.75v-1.1c0-.414-.335-.75-.75-.75-.414 0-.75.336-.75.75zM15.02 34.98l-.778.778c-.293.293-.293.768 0 1.06.146.147.338.22.53.22s.384-.073.53-.22l.779-.777c.293-.293.293-.768 0-1.061-.293-.293-.768-.293-1.06 0zM10.345 24.768c-.414 0-.75.336-.75.75 0 .415.336.75.75.75h1.1c.415 0 .75-.335.75-.75 0-.414-.335-.75-.75-.75h-1.1zM16.139 15.02l-.779-.778c-.293-.293-.767-.293-1.06 0-.293.293-.293.768 0 1.06l.778.779c.146.146.338.22.53.22s.384-.074.53-.22c.294-.293.293-.768 0-1.06zM27.61 27.477l5.342 2.747c.37.19.822.042 1.01-.324.19-.369.044-.82-.324-1.01l-5.34-2.746c.035-.176.054-.358.054-.544 0-1.257-.848-2.32-2.002-2.647v-7.645c0-.414-.336-.75-.75-.75s-.75.336-.75.75v7.645c-.915.26-1.637.982-1.897 1.897H19.23c-.414 0-.75.336-.75.75s.336.75.75.75h3.723c.328 1.154 1.39 2.002 2.647 2.002.793 0 1.507-.337 2.01-.875zm-2.01-.625c-.69 0-1.252-.562-1.252-1.252s.562-1.252 1.252-1.252 1.252.562 1.252 1.252-.562 1.252-1.252 1.252z"/>
                            <path d="M44.964 24.849c.413-.032.723-.392.69-.805-.385-5.04-2.642-9.718-6.355-13.173C35.566 7.398 30.7 5.486 25.6 5.486c-11.091 0-20.114 9.023-20.114 20.114 0 11.091 9.023 20.114 20.114 20.114 10.49 0 19.252-8.08 20.055-18.557.031-.413-.278-.774-.69-.805-.412-.031-.774.277-.806.69-.74 9.674-8.832 17.172-18.559 17.172-10.264 0-18.614-8.35-18.614-18.614 0-10.264 8.35-18.614 18.614-18.614 4.72 0 9.223 1.77 12.677 4.984 3.436 3.197 5.525 7.526 5.882 12.188.032.413.39.723.805.69z"/>
                            <path d="M43.702 7.498C38.867 2.663 32.438 0 25.6 0c-4.914 0-9.688 1.396-13.806 4.038-.349.224-.45.688-.226 1.037.223.348.687.45 1.036.226C16.48 2.814 20.974 1.5 25.6 1.5c6.437 0 12.49 2.507 17.041 7.059C47.193 13.11 49.7 19.163 49.7 25.6c0 13.32-10.779 24.1-24.1 24.1-2.38 0-4.734-.348-6.997-1.033-.397-.12-.815.104-.935.5-.12.397.104.816.5.936 2.404.728 4.904 1.097 7.432 1.097 14.148 0 25.6-11.45 25.6-25.6 0-6.838-2.663-13.267-7.498-18.102zM15.876 47.656C7.143 43.8 1.5 35.142 1.5 25.6c0-7.21 3.191-13.984 8.755-18.584.32-.264.364-.736.1-1.056-.264-.319-.736-.364-1.056-.1C3.39 10.746 0 17.94 0 25.6c0 10.136 5.994 19.332 15.27 23.428.098.044.201.064.302.064.288 0 .563-.166.687-.447.167-.379-.004-.822-.383-.99z"/>
                        </g>
                    </g>
                </g>
            </g>
        </g>
    </g>
</svg>
