<svg width="196" height="204" viewBox="0 0 196 204" fill="none" xmlns="http://www.w3.org/2000/svg">
<g clip-path="url(#clip0_1160_73841)">
<circle opacity="0.3" cx="100.452" cy="116.338" r="86.7408" fill="#FFA1A1"/>
<circle cx="75.0253" cy="129.39" r="27.189" transform="rotate(-28.0235 75.0253 129.39)" fill="#3F2121"/>
<path d="M43.5835 181.837C56.5305 155.184 83.6283 136.839 114.96 136.839C138.177 136.839 159.069 146.911 173.601 162.973C158.195 187.088 131.19 203.078 100.451 203.078C78.6952 203.078 58.8101 195.068 43.5835 181.837Z" fill="#FFA1A1"/>
<path d="M13.664 159.138C13.9304 158.348 15.0901 158.348 15.3564 159.138L15.9085 160.776C16.0276 161.129 16.3693 161.368 16.7547 161.368H18.5414C19.4033 161.368 19.7617 162.431 19.0644 162.919L17.6189 163.931C17.3071 164.15 17.1766 164.537 17.2957 164.89L17.8478 166.528C18.1142 167.318 17.176 167.975 16.4787 167.486L15.0332 166.474C14.7213 166.256 14.2991 166.256 13.9872 166.474L12.5417 167.486C11.8444 167.975 10.9062 167.318 11.1726 166.528L11.7247 164.89C11.8438 164.537 11.7133 164.15 11.4015 163.931L9.956 162.919C9.25869 162.431 9.61706 161.368 10.479 161.368H12.2657C12.6511 161.368 12.9928 161.129 13.1119 160.776L13.664 159.138Z" fill="#FFA1A1"/>
<path d="M46.7335 72.4294C46.9998 71.6394 48.1595 71.6394 48.4259 72.4294L48.978 74.0671C49.0971 74.4204 49.4387 74.6596 49.8242 74.6596H51.6109C52.4728 74.6596 52.8312 75.7225 52.1339 76.2108L50.6884 77.2229C50.3765 77.4412 50.2461 77.8283 50.3652 78.1816L50.9173 79.8192C51.1836 80.6092 50.2454 81.2661 49.5481 80.7779L48.1026 79.7658C47.7908 79.5474 47.3685 79.5474 47.0567 79.7658L45.6112 80.7779C44.9139 81.2661 43.9757 80.6092 44.242 79.8192L44.7941 78.1816C44.9133 77.8283 44.7828 77.4412 44.4709 77.2229L43.0255 76.2108C42.3281 75.7225 42.6865 74.6596 43.5484 74.6596H45.3351C45.7206 74.6596 46.0622 74.4204 46.1813 74.0671L46.7335 72.4294Z" fill="#FFD8D8"/>
<path d="M181.09 110.409C181.356 109.619 182.516 109.619 182.782 110.409L183.334 112.047C183.454 112.4 183.795 112.639 184.181 112.639H185.967C186.829 112.639 187.188 113.702 186.49 114.19L185.045 115.202C184.733 115.421 184.602 115.808 184.722 116.161L185.274 117.799C185.54 118.589 184.602 119.246 183.905 118.757L182.459 117.745C182.147 117.527 181.725 117.527 181.413 117.745L179.968 118.757C179.27 119.246 178.332 118.589 178.598 117.799L179.151 116.161C179.27 115.808 179.139 115.421 178.827 115.202L177.382 114.19C176.685 113.702 177.043 112.639 177.905 112.639H179.692C180.077 112.639 180.419 112.4 180.538 112.047L181.09 110.409Z" fill="#FFA1A1"/>
<circle cx="72.6037" cy="97.423" r="36.6473" transform="rotate(-28.0235 72.6037 97.423)" fill="#3F2121"/>
<circle cx="102.038" cy="65.7926" r="52.2966" transform="rotate(-28.0235 102.038 65.7926)" fill="#3F2121"/>
<path fill-rule="evenodd" clip-rule="evenodd" d="M84.5033 58.8648C85.6903 62.6449 85.9521 67.6777 84.9511 73.0501C83.9501 78.4224 81.8934 83.0233 79.4247 86.1223C76.9263 89.2586 74.1882 90.6588 71.7885 90.2117C69.3888 89.7646 67.3387 87.4723 66.1374 83.6466C64.9504 79.8665 64.6886 74.8337 65.6896 69.4613C66.6905 64.0889 68.7472 59.4881 71.2159 56.3891C73.7144 53.2528 76.4525 51.8526 78.8522 52.2997C81.2518 52.7468 83.302 55.0391 84.5033 58.8648ZM86.3381 58.2886C85.0536 54.1982 82.6458 51.0502 79.2044 50.409C75.7631 49.7678 72.3831 51.8374 69.7117 55.1908C67.0106 58.5815 64.8458 63.4902 63.7989 69.1091C62.752 74.7279 63.0038 80.0868 64.3026 84.2228C65.587 88.3132 67.9949 91.4612 71.4362 92.1024C74.8776 92.7435 78.2575 90.674 80.9289 87.3206C83.63 83.9299 85.7948 79.0212 86.8417 73.4023C87.8886 67.7835 87.6369 62.4246 86.3381 58.2886Z" fill="white"/>
<path d="M69.8527 66.3609L69.3271 66.5187C67.9711 66.9259 66.5018 66.5153 65.5533 65.4641L64.6886 71.0205C65.8555 70.3994 67.2954 70.6522 68.181 71.6337L68.2274 71.6851L69.8527 66.3609Z" fill="white"/>
<path d="M79.2202 58.8268L60.5931 83.0735C59.5882 84.3816 60.1912 86.2907 61.7653 86.7841L77.9611 91.8612L90.8123 118.907L90.8123 145.624C90.8123 149.609 94.4617 152.596 98.3682 151.808L120.934 147.256C123.878 146.662 125.995 144.075 125.995 141.072L125.995 79.9963L79.2202 58.8268Z" fill="#F9B8A4"/>
<mask id="mask0_1160_73841" style="mask-type:alpha" maskUnits="userSpaceOnUse" x="90" y="102" width="43" height="49">
<path d="M125.326 102.448L90.8113 118.907L90.8113 150.178L132.9 116.68L125.326 102.448Z" fill="#F9B8A4"/>
</mask>
<g mask="url(#mask0_1160_73841)">
<path d="M87.6682 129.807C87.5986 128.277 88.5739 122.327 85.8841 120.352L110.2 120.131C111.834 120.116 112.733 121.782 111.472 122.822C104.517 128.56 87.7357 131.289 87.6682 129.807Z" fill="#DB8C74"/>
</g>
<circle r="8.9002" transform="matrix(-0.943581 0.331142 0.331142 0.943581 91.016 88.6954)" fill="#F49D82"/>
<path d="M134.558 88.9562C129.397 118.846 102.111 121.739 81.3437 119.355C67.3273 117.746 59.8137 103.468 63.6739 89.8984C66.5701 79.7172 70.0727 67.7028 73.484 56.7518C81.4864 31.0621 97.0653 31.6216 111.975 36.2659C126.884 40.9101 142.56 63.2665 134.558 88.9562Z" fill="#F9B8A4"/>
<path opacity="0.4" d="M102.118 121.672L109.914 128.954L126.946 121.069L131.505 110.888C132.432 108.171 132.599 105.252 131.99 102.447L128.839 87.9492L124.266 94.0468C124.163 94.1837 124.108 94.3501 124.108 94.5212V97.8862C124.108 98.587 123.262 98.9396 122.764 98.4464L114.304 90.0647C113.663 89.4299 112.865 89.0621 112.042 88.9538C110.503 87.8716 103.632 88.0155 102.252 89.3888C101.387 90.2498 101.004 91.4117 101.103 92.5393C99.8403 92.4388 98.5512 92.9462 97.6999 94.0101C96.6717 95.295 96.5755 97.0247 97.3205 98.3828L97.1141 98.6408C96.1111 98.6537 95.1077 99.0122 94.2968 99.7283C92.8028 101.048 92.4323 103.165 93.2603 104.876C93.1831 105.095 93.1109 105.317 93.0438 105.539C92.0684 105.73 91.1542 106.258 90.4917 107.101C89.0239 108.968 94.0788 111.671 95.9457 113.139L97.7305 114.542C98.4997 117.189 99.9695 119.665 102.118 121.672Z" fill="#F49D82"/>
<circle r="9.13909" transform="matrix(-0.774957 0.632013 0.632013 0.774957 88.5025 84.4195)" fill="#F49D82"/>
<path d="M95.339 69.7858C98.2371 67.1204 94.1656 60.26 88.9003 56.217C86.9575 54.7253 84.2868 55.4036 82.7764 57.3319C82.3312 57.9002 82.5643 58.748 83.1939 59.1012C88.3785 62.0087 94.5502 70.5113 95.339 69.7858Z" fill="#522C2C"/>
<path fill-rule="evenodd" clip-rule="evenodd" d="M136.807 67.5133C150.947 65.7652 165.342 72.7084 172.435 86.0362C181.628 103.308 175.079 124.761 157.807 133.954C157.677 134.023 157.547 134.091 157.417 134.158C157.308 143.776 152.088 153.037 142.999 157.874C129.743 164.929 113.278 159.903 106.223 146.647C101.014 136.859 102.392 125.32 108.807 117.113C102.627 103.297 106.022 87.3312 116.562 77.1758L111.421 69.0967C111.072 69.478 110.656 69.8054 110.18 70.0585C107.927 71.2576 105.129 70.4033 103.93 68.1504L92.9563 47.5329C85.3201 53.5308 75.1525 55.507 65.7049 52.6228L61.1989 51.2472C60.8086 51.128 60.6497 50.6615 60.8862 50.3289L67.5124 41.0087C70.0203 37.4813 73.3732 34.6395 77.2639 32.7437L90.5635 26.2634C103.409 20.0043 118.896 25.3464 125.151 38.1939L134.878 58.1722C136.328 61.1504 136.953 64.3611 136.807 67.5133Z" fill="#3F2121"/>
<path d="M87.1875 89.357C87.301 90.2823 84.7128 97.6432 73.4755 100.9" stroke="#DB8C74" stroke-width="3.37397" stroke-linecap="round" stroke-linejoin="round"/>
<ellipse cx="77.109" cy="69.1455" rx="2.53597" ry="3.9363" transform="rotate(10.9757 77.109 69.1455)" fill="#3F2121"/>
<path fill-rule="evenodd" clip-rule="evenodd" d="M75.1842 56.823C72.8875 59.4962 70.9991 63.4932 70.1246 68.1867C69.2501 72.8803 69.5724 77.2892 70.7522 80.6101C71.9416 83.9578 73.9182 86.0133 76.241 86.4461C78.5638 86.8789 81.148 85.6731 83.4632 82.9784C85.7599 80.3052 87.6483 76.3082 88.5228 71.6147C89.3973 66.9211 89.075 62.5122 87.8951 59.1913C86.7058 55.8436 84.7292 53.788 82.4064 53.3553C80.0836 52.9225 77.4994 54.1283 75.1842 56.823ZM73.7255 55.5698C76.2613 52.6182 80.4716 50.3252 83.7515 50.9362C87.0313 51.5473 89.3974 54.3523 90.7001 58.0191C92.0124 61.7126 92.86 67.465 91.9346 72.4313C91.0093 77.3976 88.9975 81.7229 86.4431 84.696C83.9073 87.6476 79.697 89.9406 76.4171 89.3295C73.1373 88.7185 70.2428 84.9207 68.9401 81.2539C67.6278 77.5604 67.3086 72.8008 68.2339 67.8345C69.1593 62.8682 71.1711 58.5429 73.7255 55.5698Z" fill="white"/>
<path fill-rule="evenodd" clip-rule="evenodd" d="M117.263 66.6987C117.463 68.3713 115.375 66.8556 113.934 66.8812L90.8289 67.2916C89.3886 67.3172 89.8585 65.3078 89.6584 63.6352C89.4582 61.9627 88.1638 61.6068 89.604 61.5812L114.293 63.7166C115.733 63.691 117.063 65.0262 117.263 66.6987Z" fill="white"/>
<path d="M108.555 67.6372C109.564 74.2313 109.828 80.0552 114.283 79.3734C115.821 79.1381 125.699 71.7622 124.689 65.1681C123.68 58.5741 119.251 53.7812 114.795 54.463C110.34 55.1449 107.546 61.0431 108.555 67.6372Z" fill="#F9B8A4"/>
<path d="M117.884 66.533C118.291 66.8526 118.88 66.7818 119.2 66.3749C119.519 65.9679 119.449 65.3789 119.042 65.0593C118.448 64.5932 117.453 64.0091 116.347 63.7695C115.22 63.5253 113.843 63.6228 112.773 64.7475C112.416 65.1223 112.431 65.7153 112.806 66.0721C113.18 66.4289 113.773 66.4142 114.13 66.0394C114.251 65.9122 114.382 65.8108 114.522 65.7331C114.301 66.0917 114.136 66.4745 114.08 66.8909C113.978 67.6621 114.275 68.3326 114.73 68.9495C115.037 69.366 115.623 69.4547 116.04 69.1476C116.456 68.8405 116.545 68.2539 116.238 67.8374C115.928 67.418 115.925 67.2332 115.938 67.1372C115.958 66.9822 116.071 66.7171 116.501 66.196C116.591 66.0875 116.652 65.9648 116.686 65.837C117.164 66.0374 117.593 66.304 117.884 66.533Z" fill="#DB8C74"/>
<path d="M90.9899 124.273C79.7744 130.238 60.4281 148.194 72.7678 172.292C78.3963 183.284 93.1572 202.439 86.6653 214.203C80.1734 225.966 52.9957 236.854 51.1375 245.542" stroke="#4390FD" stroke-width="2.91774"/>
<path d="M92.417 124.578C81.1999 130.543 61.8512 148.499 74.1936 172.597C79.6681 183.286 94.7642 201.917 88.2717 213.681C81.7792 225.445 53.5849 236.547 51.6382 245.649" stroke="#0264ED" stroke-width="2.91774"/>
<circle cx="119.41" cy="79.3247" r="16.1804" transform="rotate(35.554 119.41 79.3247)" fill="#0264ED"/>
<circle cx="86.119" cy="125.904" r="16.1804" transform="rotate(35.554 86.119 125.904)" fill="#0264ED"/>
<rect x="119.156" y="74.5527" width="14.9357" height="59.7429" transform="rotate(35.554 119.156 74.5527)" fill="#0264ED"/>
<path d="M122.604 76.4111L134.358 86.3728L102.658 132.109L89.0191 123.402L122.604 76.4111Z" fill="#4390FD"/>
<circle cx="90.8963" cy="126.532" r="13.0005" transform="rotate(35.554 90.8963 126.532)" fill="#4390FD"/>
<ellipse cx="123.732" cy="78.5532" rx="13.1744" ry="13.0005" transform="rotate(35.554 123.732 78.5532)" fill="#4390FD"/>
<path d="M105.273 123.249L113.068 130.531L129.154 191.723L151.865 176.583L130.101 122.646L134.659 112.465C135.586 109.748 135.753 106.829 135.144 104.024L131.993 89.5264L127.42 95.624C127.317 95.7608 127.262 95.9273 127.262 96.0983V99.4634C127.262 100.164 126.416 100.517 125.918 100.024L117.458 91.6418C116.817 91.007 116.02 90.6393 115.197 90.531C113.658 89.4487 106.787 89.5926 105.407 90.9659C104.542 91.8269 104.158 92.9888 104.258 94.1165C102.995 94.0159 101.706 94.5233 100.854 95.5873C99.826 96.8721 99.7298 98.6019 100.475 99.9599L100.268 100.218C99.2654 100.231 98.262 100.589 97.4511 101.305C95.9571 102.625 95.5866 104.743 96.4146 106.453C96.3374 106.673 95.7868 106.231 95.7197 106.453C94.7443 106.644 94.3085 107.835 93.646 108.678C92.1782 110.545 97.2331 113.248 99.1 114.716L100.885 116.119C101.654 118.766 103.124 121.242 105.273 123.249Z" fill="#F9B8A4"/>
<path d="M121.676 200.463L119.813 176.88C119.743 175.987 120.309 175.169 121.163 174.899C130.576 171.919 139.287 167.045 146.756 160.572L147.62 159.823C148.4 159.147 149.579 159.221 150.269 159.99L164.028 175.347C152.806 187.432 138.18 196.312 121.676 200.463Z" fill="#FF8383"/>
</g>
<defs>
<clipPath id="clip0_1160_73841">
<rect width="196" height="204" fill="white"/>
</clipPath>
</defs>
</svg>
