<svg data-v-8b91cdda="" viewBox="0 0 23 24" fill="currentColor" xmlns="http://www.w3.org/2000/svg"><path d="M22.2176 2.89062L22.9659 2.84101C22.946 2.54015 22.7478 2.28049 22.4629 2.18187C22.178 2.08326 21.8617 2.16486 21.66 2.38902L22.2176 2.89062ZM21.4699 7.32898C21.4699 6.91477 21.1341 6.57898 20.7199 6.57898C20.3057 6.57898 19.9699 6.91477 19.9699 7.32898H21.4699ZM11.7338 7.45227H10.9838H11.7338ZM11.7338 8.89062V9.64062H12.4838V8.89062L11.7338 8.89062ZM1.25 19.3906V18.6406C0.919598 18.6406 0.628116 18.8568 0.532259 19.173C0.436401 19.4892 0.55875 19.8309 0.83353 20.0144L1.25 19.3906ZM2.74769 2.89062L3.45007 2.62764C3.34541 2.34813 3.085 2.15728 2.78695 2.14165C2.48891 2.12603 2.20997 2.2886 2.07666 2.55563L2.74769 2.89062ZM8.73843 16.3906L9.26917 16.9205C9.45271 16.7367 9.52806 16.471 9.46833 16.2182C9.40861 15.9654 9.22232 15.7615 8.97593 15.6792L8.73843 16.3906ZM19.5741 4.3507L19.0178 4.85371L19.288 5.15258L19.6864 5.09224L19.5741 4.3507ZM21.4692 2.94024C21.5466 4.10694 21.475 4.8153 21.2859 5.34846C21.1023 5.86594 20.7819 6.29246 20.201 6.84911L21.2388 7.93214C21.8955 7.30287 22.4038 6.68379 22.6996 5.84995C22.9898 5.03178 23.0483 4.08309 22.9659 2.84101L21.4692 2.94024ZM21.4699 8.42186V7.32898H19.9699V8.42186H21.4699ZM10.9838 7.45227L10.9838 8.89063L12.4838 8.89062L12.4838 7.45227L10.9838 7.45227ZM16.2884 2.14062C13.3577 2.14062 10.9838 4.51982 10.9838 7.45227H12.4838C12.4838 5.34606 14.1883 3.64062 16.2884 3.64062V2.14062ZM19.9699 8.42186C19.9699 14.895 14.7308 20.1406 8.27039 20.1406V21.6406C15.5614 21.6406 21.4699 15.7213 21.4699 8.42186H19.9699ZM2.0453 3.15361C2.86036 5.33046 5.9214 9.64062 11.7338 9.64062V8.14062C6.76286 8.14062 4.13269 4.45079 3.45007 2.62764L2.0453 3.15361ZM2.07666 2.55563C0.506569 5.70066 0.264655 8.75104 1.40579 11.3485C2.54432 13.9401 4.99396 15.9312 8.50092 17.102L8.97593 15.6792C5.7433 14.6 3.69989 12.8411 2.77911 10.7452C1.86092 8.65521 1.99343 6.08059 3.41871 3.22562L2.07666 2.55563ZM8.20768 15.8607C7.30452 16.7653 4.58915 18.6406 1.25 18.6406V20.1406C5.09974 20.1406 8.17545 18.016 9.26917 16.9205L8.20768 15.8607ZM20.1304 3.84768C19.1835 2.80046 17.8125 2.14062 16.2884 2.14062V3.64062C17.3705 3.64062 18.343 4.10742 19.0178 4.85371L20.1304 3.84768ZM19.6864 5.09224C20.8272 4.91947 21.9402 4.32038 22.7752 3.39223L21.66 2.38902C21.0482 3.06908 20.2458 3.49041 19.4618 3.60915L19.6864 5.09224ZM0.83353 20.0144C3.29456 21.6576 5.87506 21.6406 8.27039 21.6406V20.1406C5.82549 20.1406 3.6985 20.1237 1.66647 18.7669L0.83353 20.0144Z" fill="currentColor"/></svg>