<svg width="1040" height="1080" viewBox="0 0 1040 1080" fill="none" xmlns="http://www.w3.org/2000/svg">
<g clip-path="url(#clip0_1082_102617)">
<rect width="1040" height="1080" fill="#0048AC"/>
<circle cx="42" cy="-382" r="962" fill="url(#paint0_linear_1082_102617)"/>
<path d="M614 186.5V-42L937 186.5H614Z" stroke="#2168CC" stroke-width="6" stroke-linecap="round" stroke-linejoin="round"/>
<path d="M614 161.5H639V186.5" stroke="#2168CC" stroke-width="6" stroke-linecap="round" stroke-linejoin="round"/>
<path d="M614.5 19.5C626.333 22.5 652.7 21.4 663.5 -7" stroke="#2168CC" stroke-width="6" stroke-linecap="round" stroke-linejoin="round"/>
<path d="M837.121 183.396C838.592 171.23 849.536 147.214 881.543 148.476" stroke="#2168CC" stroke-width="6" stroke-linecap="round" stroke-linejoin="round"/>
<path d="M812 27L841.5 -5C832 9.16667 818.1 37.8 838.5 39C858.9 40.2 870.667 10.1667 874 -5C869.167 13.1667 864.7 47.9 885.5 41.5" stroke="#2168CC" stroke-width="6" stroke-linecap="round" stroke-linejoin="round"/>
<path d="M553 113.5L569.467 72.5L585.934 113.5" stroke="#2168CC" stroke-width="6" stroke-linecap="round" stroke-linejoin="round"/>
<path d="M577.197 96.6973L561.065 96.6973" stroke="#2168CC" stroke-width="6" stroke-linecap="round" stroke-linejoin="round"/>
<path d="M734 207.5V243H742.395C747.297 243 751.27 239.027 751.27 234.125V234.125C751.27 229.223 747.297 225.25 742.395 225.25H734.64H740.125C745.027 225.25 749 221.277 749 216.375V216.375C749 211.473 745.027 207.5 740.125 207.5H734Z" stroke="#2168CC" stroke-width="6" stroke-linecap="round" stroke-linejoin="round"/>
<circle cx="988.338" cy="741.255" r="84" transform="rotate(75.0687 988.338 741.255)" stroke="#2168CC" stroke-width="6" stroke-linecap="round" stroke-linejoin="round"/>
<circle cx="864.659" cy="774.235" r="84" transform="rotate(75.0687 864.659 774.235)" stroke="#2168CC" stroke-width="6" stroke-linecap="round" stroke-linejoin="round"/>
<path d="M860.923 767.987L863.436 758.003L871.681 788.922" stroke="#2168CC" stroke-width="6" stroke-linecap="round" stroke-linejoin="round"/>
<path d="M976.485 727.855L992.428 723.604L980.737 743.798L989.191 741.544C993.327 740.441 997.574 742.9 998.677 747.035V747.035C999.779 751.171 997.321 755.418 993.185 756.52L984.731 758.775" stroke="#2168CC" stroke-width="6" stroke-linecap="round" stroke-linejoin="round"/>
<path d="M914.969 656.29L896.61 661.186L908.482 643.923L909.085 642.88C910.097 641.132 910.373 639.054 909.852 637.102V637.102C908.551 632.224 903.542 629.324 898.664 630.625L890.627 632.768L891.985 637.862" stroke="#2168CC" stroke-width="6" stroke-linecap="round" stroke-linejoin="round"/>
<path d="M908.398 755.845L936.515 731.271" stroke="#2168CC" stroke-width="6" stroke-linecap="round" stroke-linejoin="round"/>
<path d="M912.521 771.304L940.638 746.73" stroke="#2168CC" stroke-width="6" stroke-linecap="round" stroke-linejoin="round"/>
<path d="M917.094 784.574L945.212 759.999" stroke="#2168CC" stroke-width="6" stroke-linecap="round" stroke-linejoin="round"/>
<path d="M905.499 741.093L927.143 721.35" stroke="#2168CC" stroke-width="6" stroke-linecap="round" stroke-linejoin="round"/>
<path d="M925.983 794.622L947.627 774.879" stroke="#2168CC" stroke-width="6" stroke-linecap="round" stroke-linejoin="round"/>
<path d="M882.568 655.097C871.145 679.532 860.821 734.998 910.911 761.383" stroke="#2168CC" stroke-width="6" stroke-linecap="round" stroke-linejoin="round"/>
<path d="M894.355 765.281L910.781 760.9L906.916 746.407" stroke="#2168CC" stroke-width="6" stroke-linecap="round" stroke-linejoin="round"/>
<path opacity="0.4" d="M780.776 959.153C786.077 949.75 797.997 946.424 807.4 951.725L918.221 1014.2C927.624 1019.5 930.95 1031.42 925.649 1040.82L843.211 1187.06C837.91 1196.46 825.99 1199.79 816.587 1194.49L705.766 1132.01C696.362 1126.71 693.037 1114.79 698.338 1105.39L780.776 959.153Z" fill="#033E8F"/>
<path d="M920.37 1005.66C920.9 1004.72 920.568 1003.53 919.627 1003L893.237 988.122C892.297 987.592 891.105 987.924 890.575 988.865L867.535 1029.73C866.669 1031.27 868.119 1033.08 869.806 1032.56L886.877 1027.37C887.943 1027.05 889.065 1027.68 889.34 1028.76L893.734 1046.05C894.168 1047.76 896.465 1048.07 897.331 1046.53L920.37 1005.66Z" fill="#2168CC"/>
<path d="M601.255 1045.23C593.723 1033.66 596.989 1018.18 608.551 1010.65L744.811 921.875C756.373 914.342 771.852 917.609 779.385 929.17L898.832 1112.51C906.365 1124.07 903.099 1139.55 891.537 1147.08L755.277 1235.86C743.715 1243.39 728.236 1240.12 720.703 1228.56L601.255 1045.23Z" fill="#033E8F"/>
<path opacity="0.9" d="M588.461 1049.83C582.97 1037.17 588.78 1022.46 601.439 1016.97L750.634 952.245C763.293 946.753 778.007 952.563 783.499 965.222L868.906 1162.09C874.398 1174.75 868.587 1189.47 855.928 1194.96L706.733 1259.68C694.074 1265.17 679.36 1259.36 673.868 1246.7L588.461 1049.83Z" fill="#2168CC"/>
<path d="M588.461 1049.83C582.97 1037.17 588.78 1022.46 601.439 1016.97L603.335 1016.15L708.63 1258.86L706.733 1259.68C694.074 1265.17 679.36 1259.36 673.868 1246.7L588.461 1049.83Z" fill="#033E8F"/>
<rect x="656.114" y="1039.59" width="113.387" height="66.1423" rx="12.4928" transform="rotate(-23.4522 656.114 1039.59)" fill="#033E8F"/>
<path d="M925.59 331.642C934.25 316.928 953.198 312.02 967.912 320.679L1047.84 367.718C1050.78 369.449 1051.76 373.239 1050.03 376.182L1040 393.233C1038.18 396.323 1034.2 397.353 1031.11 395.535L926.138 333.758C925.403 333.325 925.157 332.378 925.59 331.642V331.642Z" fill="#043375"/>
<path d="M1014.32 385.659L986.349 369.196L970.08 420.847C964.372 438.969 971.928 458.633 988.303 468.27V468.27L1014.32 385.659Z" fill="#2168CC"/>
<path d="M975.159 362.609L947.185 346.146L888.49 399.779C885.265 402.725 885.812 407.951 889.576 410.166L905.843 419.74C908.299 421.185 911.411 420.86 913.515 418.937L975.159 362.609Z" fill="#2168CC"/>
<path d="M488.901 1051.93C505.576 1046.47 515.792 1029.85 513.178 1012.46V1012.46C510.681 995.845 497.121 982.945 480.357 981.235L461.159 979.275C432.217 976.321 403.073 980.325 376.18 990.949L358.796 997.817C343.193 1003.98 333.975 1020.03 336.476 1036.67V1036.67C339.09 1054.05 353.747 1067.28 371.35 1068.12L406.522 1069.82C422.571 1070.59 438.589 1068.43 453.784 1063.45L488.901 1051.93Z" stroke="#2168CC" stroke-width="5"/>
<path d="M357.904 999.45C349.618 983.98 353.698 964.91 367.599 954.133V954.133C380.876 943.839 399.592 943.87 412.9 954.208L428.14 966.046C451.115 983.893 469.432 1006.91 481.55 1033.17L489.383 1050.14C496.414 1065.37 492.004 1083.34 478.704 1093.65V1093.65C464.808 1104.42 445.078 1103.87 431.758 1092.33L405.146 1069.27C393.003 1058.75 382.906 1046.12 375.355 1032.03L357.904 999.45Z" stroke="#2168CC" stroke-width="5"/>
<path d="M410.709 954.838C420.261 939.794 439.178 933.692 455.721 940.32V940.32C471.503 946.643 480.948 962.905 478.62 979.746L476.183 997.375C472.197 1026.22 461.192 1053.64 444.133 1077.23L433.991 1091.26C424.012 1105.06 405.92 1110.3 390.111 1103.96V1103.96C373.575 1097.34 364.079 1079.9 367.483 1062.42L373.902 1029.46C376.993 1013.59 383.028 998.433 391.695 984.784L410.709 954.838Z" stroke="#2168CC" stroke-width="5"/>
<circle cx="405.406" cy="952.968" r="14.5854" transform="rotate(21.8334 405.406 952.968)" fill="#033E8F"/>
<circle cx="424.32" cy="1023.4" r="21.8782" transform="rotate(21.8334 424.32 1023.4)" fill="#033E8F"/>
<circle cx="471.049" cy="1014.62" r="10.9391" transform="rotate(21.8334 471.049 1014.62)" fill="#033E8F"/>
<circle cx="343.731" cy="1057.89" r="10.9391" transform="rotate(21.8334 343.731 1057.89)" fill="#033E8F"/>
</g>
<defs>
<linearGradient id="paint0_linear_1082_102617" x1="42" y1="580" x2="42" y2="-1314.46" gradientUnits="userSpaceOnUse">
<stop stop-color="#0048AC"/>
<stop offset="1" stop-color="#050037"/>
</linearGradient>
<clipPath id="clip0_1082_102617">
<rect width="1040" height="1080" fill="white"/>
</clipPath>
</defs>
</svg>
