<svg width="1040" height="1080" viewBox="0 0 1040 1080" fill="none" xmlns="http://www.w3.org/2000/svg">
<g clip-path="url(#clip0_1082_102615)">
<rect width="1040" height="1080" fill="#15637B"/>
<circle r="962.338" transform="matrix(-1 0 0 1 115.662 -382.662)" fill="url(#paint0_linear_1082_102615)"/>
<path d="M1220 1294C1220 1349.23 1175.23 1394 1120 1394H885C829.772 1394 785 1349.23 785 1294V533C785 477.771 829.772 433 885 433H1120C1175.23 433 1220 477.771 1220 533V1294Z" stroke="#1B7794" stroke-width="20" stroke-linejoin="round"/>
<path d="M1220 1294C1220 1349.23 1175.23 1394 1120 1394H95.0001C39.7716 1394 -4.99997 1349.23 -4.99997 1294V897C-4.99997 841.772 39.7716 797 95 797H1120C1175.23 797 1220 841.772 1220 897V1294Z" stroke="#1B7794" stroke-width="20" stroke-linejoin="round"/>
<path d="M1220 -3.99999C1220 -59.2285 1175.23 -104 1120 -104H574C518.772 -104 474 -59.2285 474 -4V184C474 239.228 518.772 284 574 284H1120C1175.23 284 1220 239.228 1220 184V-3.99999Z" stroke="#1B7794" stroke-width="20" stroke-linejoin="round"/>
<path d="M-156 -213C-156 -262.706 -115.706 -303 -66 -303H534C583.706 -303 624 -262.706 624 -213V54C624 103.706 583.706 144 534 144H-66C-115.706 144 -156 103.706 -156 54V-213Z" stroke="#1B7794" stroke-width="20" stroke-linejoin="round"/>
<path d="M334.141 996.267L338.013 986.466L330.045 983.317L199.574 983.535C195.814 983.541 193.996 988.142 196.737 990.717L291.822 1080.05L299.791 1083.2L305.907 1067.72L309.346 1059.02L313.788 1057.95C323.165 1055.7 326.903 1044.38 320.709 1036.99L318.902 1034.83L323.313 1023.67L328.458 1010.65L334.141 996.267Z" fill="#25809D"/>
<path d="M784.973 1160.54L330.044 983.319V983.319C333.684 991.269 330.956 1000.68 323.63 1005.46L320.489 1007.5L320.981 1008.86C324.264 1017.93 319.84 1027.98 310.933 1031.69V1031.69L312.221 1032.62C322.893 1040.37 316.557 1057.25 303.424 1056.06L301.378 1055.87V1055.87C305.887 1063.21 303.595 1072.82 296.257 1077.33L291.822 1080.06L746.75 1257.28L784.973 1160.54Z" fill="#0E5166"/>
<path fill-rule="evenodd" clip-rule="evenodd" d="M226.065 1018.27L239.817 983.466L196.432 983.538C193.801 983.543 192.529 986.762 194.446 988.563L226.065 1018.27Z" fill="#0E5166"/>
<path d="M986.306 928.613C990.905 913.299 982.219 897.156 966.905 892.557L831.446 851.874C816.132 847.275 799.989 855.961 795.389 871.275L741.327 1051.28C736.728 1066.6 745.414 1082.74 760.728 1087.34L920.734 1135.39C922.492 1135.92 924.344 1134.92 924.872 1133.17L986.306 928.613Z" fill="#25809D"/>
<path d="M926.475 873.721C927.04 871.84 929.023 870.773 930.905 871.338L968.639 882.67C970.52 883.235 971.587 885.219 971.022 887.1L953.575 945.194C952.652 948.267 948.452 948.643 946.998 945.783L937.444 926.994C936.525 925.185 934.28 924.511 932.516 925.514L914.192 935.93C911.402 937.516 908.104 934.888 909.027 931.815L926.475 873.721Z" fill="#0E5166"/>
<path d="M999.034 932.437C1003.63 917.123 1019.78 908.437 1035.09 913.037L1170.55 953.72C1185.86 958.319 1194.55 974.462 1189.95 989.776L1135.89 1169.78C1131.29 1185.1 1115.15 1193.78 1099.83 1189.18L939.826 1141.13C938.068 1140.6 937.072 1138.75 937.599 1136.99L999.034 932.437Z" fill="#25809D"/>
<rect width="139.539" height="9.96705" rx="4.98353" transform="matrix(-0.957738 -0.287641 -0.287641 0.957738 1156.58 1008.5)" fill="#0E5166"/>
<rect width="139.539" height="93.0258" rx="6.6447" transform="matrix(-0.957738 -0.287641 -0.287641 0.957738 945.287 972.787)" fill="#0E5166"/>
<rect width="109.638" height="9.96705" rx="4.98353" transform="matrix(-0.957738 -0.287641 -0.287641 0.957738 913.751 1077.79)" fill="#0E5166"/>
<rect width="139.539" height="9.96705" rx="4.98353" transform="matrix(-0.957738 -0.287641 -0.287641 0.957738 1147.02 1040.32)" fill="#0E5166"/>
<path d="M1012.92 1056.55C1012.11 1054.12 1009.14 1053.23 1007.12 1054.8L995.729 1063.7C995.086 1064.2 994.296 1064.48 993.48 1064.48L979.031 1064.63C976.47 1064.66 974.703 1067.21 975.578 1069.61L980.518 1083.19C980.797 1083.96 980.815 1084.8 980.571 1085.57L976.245 1099.36C975.478 1101.81 977.357 1104.27 979.917 1104.19L994.358 1103.68C995.173 1103.66 995.975 1103.9 996.64 1104.37L1008.41 1112.74C1010.5 1114.23 1013.43 1113.2 1014.14 1110.74L1018.12 1096.85C1018.35 1096.07 1018.82 1095.38 1019.48 1094.89L1031.08 1086.28C1033.14 1084.76 1033.07 1081.66 1030.95 1080.22L1018.97 1072.14C1018.29 1071.68 1017.79 1071.02 1017.53 1070.24L1012.92 1056.55Z" fill="#0E5166"/>
<path d="M897.901 133.149L781.591 190.556L889.97 330.665L975.885 219.493L897.901 133.149Z" fill="#25809D"/>
<path d="M889.973 330.667C876.279 341.426 838.841 321.575 808.808 283.351C778.776 245.126 767.9 201.317 781.594 190.557C795.288 179.798 827.228 201.06 858.399 244.387C896.531 297.389 895.161 326.59 889.973 330.667Z" fill="#0E5166"/>
<mask id="mask0_1082_102615" style="mask-type:alpha" maskUnits="userSpaceOnUse" x="781" y="185" width="115" height="145">
<path d="M894.065 327.455C882.848 336.268 847.854 314.497 817.822 276.272C787.789 238.048 774.279 196.308 785.496 187.495C796.712 178.683 826.947 201.283 858.44 244.359C896.965 297.052 898.315 324.116 894.065 327.455Z" fill="#912F67"/>
</mask>
<g mask="url(#mask0_1082_102615)">
<circle r="46.2339" transform="matrix(-0.859496 0.511144 0.511144 0.859496 875.194 229.511)" fill="#38A9CD"/>
</g>
<path d="M974.163 221.259C964.301 229.007 935.25 220.497 915.197 194.974C895.144 169.451 888.04 140.895 897.902 133.146C907.765 125.397 930.858 141.391 950.911 166.914C970.964 192.437 981.06 214.182 974.163 221.259Z" fill="#25809D"/>
<path d="M890.195 218.382L1002.93 117.141L1100.92 291.934" stroke="#25809D" stroke-width="10.1813"/>
<circle r="20.3627" transform="matrix(-0.999917 0.0129155 0.0129155 0.999917 1004.96 117.108)" fill="#25809D"/>
<g style="mix-blend-mode:soft-light">
<rect width="129.82" height="237.258" rx="20.0871" transform="matrix(-0.823114 0.567877 0.567877 0.823114 997.267 485)" fill="#25809D"/>
</g>
<path d="M967.786 505.342L914.358 542.203V542.203C917.166 546.273 922.741 547.296 926.811 544.488L965.501 517.796C969.571 514.988 970.594 509.412 967.786 505.342V505.342Z" fill="#0E5166"/>
<path d="M1025.3 581.423C1032.2 595.876 1027.62 613.728 1013.81 623.254C1000.14 632.684 982.057 630.763 970.962 619.491C969.843 618.486 969.061 617.606 968.529 616.757C967.878 615.813 968.059 614.607 969.011 613.95L970.556 612.884L1019.21 579.317L1020.99 578.088C1021.94 577.432 1023.13 577.69 1023.79 578.632C1023.79 578.63 1023.79 578.629 1023.79 578.627C1023.8 578.649 1023.82 578.671 1023.83 578.693C1024.35 579.394 1024.83 580.279 1025.3 581.423L1025.3 581.423Z" fill="#0E5166"/>
<path d="M1012.05 649.765C1008.6 642.539 1010.89 633.613 1017.79 628.85C1024.63 624.135 1033.67 625.095 1039.21 630.731C1039.77 631.234 1040.16 631.673 1040.43 632.098C1040.76 632.57 1040.67 633.173 1040.19 633.502L1039.42 634.035L1015.09 650.818L1014.2 651.432C1013.72 651.761 1013.13 651.632 1012.8 651.161C1012.8 651.161 1012.8 651.162 1012.8 651.163C1012.79 651.152 1012.79 651.141 1012.78 651.13C1012.52 650.78 1012.28 650.337 1012.05 649.765Z" fill="#0E5166"/>
</g>
<defs>
<linearGradient id="paint0_linear_1082_102615" x1="962" y1="1196" x2="962.338" y2="1924.68" gradientUnits="userSpaceOnUse">
<stop stop-color="#0F5267"/>
<stop offset="1" stop-color="#15637B"/>
</linearGradient>
<clipPath id="clip0_1082_102615">
<rect width="1040" height="1080" fill="white"/>
</clipPath>
</defs>
</svg>
