<svg width="1040" height="1080" viewBox="0 0 1040 1080" fill="none" xmlns="http://www.w3.org/2000/svg">
<g clip-path="url(#clip0_1082_102616)">
<rect width="1040" height="1080" fill="#0C9567"/>
<path d="M841.267 533.996L1121.4 505V1599.12H-655V1266.6L-567.684 1100.77C-551.913 1070.81 -520.848 1052.06 -486.998 1052.06C-471.748 1052.06 -456.742 1048.24 -443.353 1040.94L-337.027 982.978C-271.582 947.302 -195.183 937.319 -122.768 954.982C-58.2462 970.719 9.76979 950.83 55.6469 902.808L105.451 850.677C187.674 764.612 305.703 722.418 423.853 736.853C498.667 745.993 573.305 718.548 624.376 663.118L659.285 625.23C706.801 573.659 771.515 541.215 841.267 533.996Z" fill="url(#paint0_linear_1082_102616)"/>
<circle cx="99.3376" cy="-382.662" r="962.338" fill="url(#paint1_linear_1082_102616)"/>
<path d="M954.021 954.79C953.604 943.002 952.203 927.224 947.836 920.689C939.432 908.112 939.872 940.898 940.297 953.003C940.397 955.848 940.056 961.531 937.768 959.836C937.418 959.577 937.049 959.07 936.669 958.214C935.104 954.684 933.301 949.769 931.333 944.405C925.471 928.425 918.144 908.454 911.278 909.211C903.343 910.084 910.447 930.477 916.667 948.332C919.135 955.417 921.464 962.102 922.659 967.009C922.729 968.422 922.365 969.026 921.836 969.194C919.813 969.835 918.47 967.154 917.487 965.193C917.447 965.113 917.407 965.034 917.368 964.956C912.79 955.855 898.849 929.169 893.786 931.246C885.866 934.494 899.979 963.087 905.649 973.873C906.997 976.435 906.118 981.218 904.169 979.077C904.119 979.022 904.068 978.963 904.018 978.9C902.397 977.748 899.359 974.636 895.923 971.115C889.008 964.031 880.477 955.291 878.627 957.541C874.632 962.395 885.682 976.442 892.401 984.153L913.789 1018.32C917.923 1024.92 923.819 1030.24 930.814 1033.67L1065.71 1220.25L1091.31 1176.16L969.319 1016.44C969.319 1016.44 989.707 961.758 975.002 970.57C966.52 975.652 962.911 982.733 961.375 987.817C961.189 988.433 959.324 988.409 959.224 987.773L954.021 954.79Z" fill="#08BD80"/>
<mask id="mask0_1082_102616" style="mask-type:alpha" maskUnits="userSpaceOnUse" x="877" y="909" width="214" height="312">
<path d="M953.585 954.637C953.168 942.849 951.767 927.072 947.4 920.537C938.996 907.959 939.437 940.746 939.862 952.85C939.962 955.696 939.621 961.378 937.332 959.684C936.982 959.425 936.613 958.917 936.234 958.062C934.668 954.532 932.865 949.617 930.897 944.252C925.035 928.273 917.709 908.302 910.842 909.058C902.908 909.932 910.012 930.325 916.231 948.18C918.699 955.264 921.028 961.949 922.223 966.857C922.294 968.27 921.929 968.874 921.4 969.041C919.377 969.682 918.034 967.002 917.052 965.041C917.011 964.96 916.972 964.881 916.933 964.804C912.355 955.702 898.414 929.017 893.35 931.094C885.43 934.342 899.544 962.935 905.214 973.72C906.561 976.283 905.683 981.065 903.733 978.925C903.683 978.869 903.633 978.81 903.582 978.748C901.961 977.595 898.924 974.483 895.487 970.963C888.572 963.878 880.042 955.139 878.191 957.388C874.197 962.243 885.247 976.29 891.966 984.001L913.353 1018.17C917.487 1024.77 923.384 1030.09 930.378 1033.52L1065.28 1220.1L1090.88 1176.01L968.884 1016.29C968.884 1016.29 989.272 961.606 974.566 970.417C966.085 975.5 962.476 982.581 960.94 987.664C960.754 988.281 958.889 988.256 958.788 987.621L953.585 954.637Z" fill="#FFC4B2"/>
</mask>
<g mask="url(#mask0_1082_102616)">
<path d="M945.937 1032.35L919.723 1033.81L932.29 1045.05L946.511 1033.87C947.165 1033.36 946.769 1032.31 945.937 1032.35Z" fill="#0C9567"/>
</g>
<path d="M1033.77 598.511C1037.84 590.881 1047.33 587.997 1054.96 592.071L1144.88 640.076C1152.51 644.15 1155.4 653.637 1151.32 661.267L1087.98 779.926C1083.9 787.556 1074.42 790.439 1066.79 786.366L976.862 738.36C969.232 734.287 966.349 724.799 970.422 717.169L1033.77 598.511Z" fill="#0E6A4B"/>
<path d="M891.552 670.763C885.305 661.64 887.637 649.18 896.76 642.933L1004.28 569.311C1013.4 563.064 1025.86 565.395 1032.11 574.518L1131.17 719.182C1137.41 728.305 1135.08 740.765 1125.96 747.012L1018.44 820.634C1009.32 826.881 996.857 824.55 990.61 815.427L891.552 670.763Z" fill="#09AD76"/>
<path d="M881.387 674.688C876.755 664.649 881.139 652.755 891.178 648.122L1009.5 593.53C1019.54 588.897 1031.43 593.281 1036.07 603.321L1108.1 759.453C1112.74 769.493 1108.35 781.387 1098.31 786.019L979.991 840.612C969.952 845.244 958.058 840.86 953.426 830.821L881.387 674.688Z" fill="#07D892"/>
<path d="M881.387 674.688C876.755 664.649 881.139 652.755 891.178 648.122L892.682 647.429L981.495 839.918L979.991 840.612C969.952 845.244 958.058 840.86 953.426 830.82L881.387 674.688Z" fill="#09AD76"/>
<rect x="935.395" y="665.24" width="90.8529" height="52.9976" rx="10.0101" transform="rotate(-24.7682 935.395 665.24)" fill="#09AD76"/>
<path d="M875.791 453.636C874.489 454.929 872.573 455.384 870.828 454.815L855.803 449.912C852.326 448.777 851.278 444.366 853.875 441.789L881.179 414.696L897.975 431.623L875.791 453.636Z" fill="#08BD80"/>
<path d="M966.984 432.059C964.44 434.583 960.333 434.567 957.809 432.023V432.023C947.684 421.82 932.053 419.497 919.398 426.314L886.849 443.849L878.074 435.006L868.652 425.511L886.134 392.544C892.866 379.848 890.556 364.249 880.434 354.048V354.048C877.88 351.475 877.896 347.319 880.47 344.765L920.515 305.028C922.912 302.649 926.784 302.664 929.162 305.061L1007.12 383.62C1009.5 386.017 1009.48 389.889 1007.08 392.267L966.984 432.059Z" fill="#0E6A4B"/>
<path d="M1028.78 370.732L942.216 283.493L1183.91 76.3625C1191.21 70.1079 1202.1 70.5476 1208.87 77.3704L1241.05 109.798C1247.91 116.713 1248.17 127.783 1241.64 135.013L1028.78 370.732Z" fill="#0E6A4B"/>
<rect x="996.637" y="410.387" width="133.908" height="69.0941" rx="3.05726" transform="rotate(-134.779 996.637 410.387)" fill="#07D792"/>
<path d="M806.355 236.599C807.825 237.508 809.752 237.053 810.661 235.584L879.433 124.388C880.341 122.919 879.887 120.991 878.418 120.083L747.754 39.2703C746.66 38.5938 745.263 38.6559 744.234 39.4268L741.108 41.7669C706.349 67.7934 682.718 106.002 674.957 148.726L674.259 152.567C674.029 153.833 674.597 155.11 675.691 155.787L806.355 236.599Z" fill="#07D792"/>
<path d="M678.516 118.576C677.649 118.025 677.387 116.879 677.927 116.005L695.214 88.0535L712.502 60.102C713.042 59.2282 714.185 58.9513 715.065 59.481L822.04 123.83C833.986 131.016 837.756 146.578 830.423 158.435L818.576 177.591C811.243 189.448 795.635 193.025 783.87 185.547L678.516 118.576Z" fill="#09AD76"/>
</g>
<defs>
<linearGradient id="paint0_linear_1082_102616" x1="1149.83" y1="936.581" x2="58.7859" y2="936.072" gradientUnits="userSpaceOnUse">
<stop stop-color="#09855C"/>
<stop offset="1" stop-color="#077D56" stop-opacity="0"/>
</linearGradient>
<linearGradient id="paint1_linear_1082_102616" x1="99" y1="-149" x2="99.3376" y2="579.675" gradientUnits="userSpaceOnUse">
<stop stop-color="#077D56"/>
<stop offset="1" stop-color="#0C9567"/>
</linearGradient>
<clipPath id="clip0_1082_102616">
<rect width="1040" height="1080" fill="white"/>
</clipPath>
</defs>
</svg>
