<svg class="css-a1vwta" fill="none" xmlns="http://www.w3.org/2000/svg" viewBox="0 0 32 32"><path opacity="0.3" d="M25.2002 11.9998C25.2002 10.2325 23.7675 8.7998 22.0002 8.7998H5.20019C3.43288 8.7998 2.00019 10.2325 2.00019 11.9998V24.7998C2.00019 26.5671 3.43288 27.9998 5.20019 27.9998H22.0002C23.7675 27.9998 25.2002 26.5671 25.2002 24.7998V11.9998Z" fill="#5873FF"/><path d="M30 7.2C30 5.43269 28.5673 4 26.8 4H10C8.23269 4 6.8 5.43269 6.8 7.2V20C6.8 21.7673 8.23269 23.2 10 23.2H26.8C28.5673 23.2 30 21.7673 30 20V7.2Z" fill="#5873FF"/><path d="M21.6279 14.3495C22.1238 13.9701 22.1238 13.2299 21.6279 12.8506C20.1294 11.7041 18.4561 10.8005 16.6707 10.1735L16.3445 10.0589C15.7205 9.83977 15.0613 10.2572 14.9768 10.8941C14.7408 12.6737 14.7408 14.5263 14.9768 16.3059C15.0613 16.9428 15.7205 17.3602 16.3445 17.1411L16.6707 17.0265C18.4561 16.3996 20.1294 15.4959 21.6279 14.3495Z" fill="white"/></svg>