<svg xmlns="http://www.w3.org/2000/svg" width="72" height="72" viewBox="0 0 72 72">
    <g fill="none" fill-rule="evenodd">
        <g>
            <g>
                <g transform="translate(-528 -2850) translate(528 2850) translate(1.4 1.4)">
                    <circle cx="33.6" cy="33.6" r="33.6" fill="#D3E7FA"/>
                    <g fill-rule="nonzero">
                        <g>
                            <g>
                                <path fill="#F2DFA6" d="M45.012 43.823H13.866c-.85 0-1.538-.689-1.538-1.538V2.28c0-.849.689-1.537 1.538-1.537h31.146c.85 0 1.538.688 1.538 1.537v40.005c0 .85-.689 1.538-1.538 1.538z" transform="translate(6.6 7.6)"/>
                                <path fill="#000" d="M39.345 4.285H12.328v38c0 .85.689 1.538 1.538 1.538h27.017v-38c0-.85-.688-1.538-1.538-1.538z" opacity=".15" transform="translate(6.6 7.6)"/>
                                <path fill="#76C9D2" d="M36.17 49.946H5.023c-.85 0-1.538-.689-1.538-1.538V8.403c0-.85.688-1.538 1.538-1.538h31.145c.85 0 1.538.689 1.538 1.538v40.005c0 .849-.688 1.538-1.538 1.538z" transform="translate(6.6 7.6)"/>
                                <path fill="#507CDD" d="M3.377 36.413H37.707V44.515H3.377z" transform="translate(6.6 7.6)"/>
                                <path fill="#F6D83E" d="M33.139 6.866H35.483000000000004V49.946H33.139z" transform="translate(6.6 7.6)"/>
                                <path fill="#FFF" d="M27.413 22.283H13.345c-.562 0-1.017.455-1.017 1.016v4.09c0 .561.455 1.016 1.017 1.016h14.068c.56 0 1.016-.455 1.016-1.016V23.3c0-.561-.455-1.016-1.016-1.016z" transform="translate(6.6 7.6)"/>
                                <g fill="#394049">
                                    <path d="M3.871 2.93H1.496C.714 2.93.08 2.294.08 1.512.08.73.714.096 1.496.096h2.375c.783 0 1.417.634 1.417 1.417 0 .782-.634 1.416-1.417 1.416zM3.871 11.032H1.496c-.782 0-1.417-.634-1.417-1.417 0-.782.635-1.417 1.417-1.417h2.375c.783 0 1.417.635 1.417 1.417 0 .783-.634 1.417-1.417 1.417zM3.871 19.135H1.496C.714 19.135.08 18.5.08 17.718c0-.783.635-1.417 1.417-1.417h2.375c.783 0 1.417.634 1.417 1.417 0 .782-.634 1.417-1.417 1.417zM3.871 27.237H1.496c-.782 0-1.417-.634-1.417-1.416 0-.783.635-1.417 1.417-1.417h2.375c.783 0 1.417.634 1.417 1.417 0 .782-.634 1.416-1.417 1.416zM3.871 35.34H1.496c-.782 0-1.417-.634-1.417-1.417 0-.782.635-1.417 1.417-1.417h2.375c.783 0 1.417.635 1.417 1.417 0 .783-.634 1.417-1.417 1.417z" transform="translate(6.6 7.6) translate(.693 10.593)"/>
                                </g>
                                <path fill="#000" d="M36.17 6.865h-2.798c.85 0 1.538.689 1.538 1.538v40.005c0 .849-.689 1.538-1.538 1.538h2.797c.85 0 1.538-.689 1.538-1.538V8.403c0-.85-.688-1.538-1.538-1.538z" opacity=".15" transform="translate(6.6 7.6)"/>
                                <path fill="#000" d="M11.586 23.299v4.09c0 .97.789 1.759 1.759 1.759h14.068c.97 0 1.758-.79 1.758-1.759V23.3c0-.97-.788-1.759-1.758-1.759H13.345c-.97 0-1.76.79-1.76 1.759zm1.485 0c0-.151.123-.274.274-.274h14.068c.15 0 .273.123.273.274v4.09c0 .151-.122.274-.273.274H13.345c-.151 0-.274-.123-.274-.274V23.3zm3.032 2.788h8.551c.41 0 .743-.333.743-.743s-.332-.742-.743-.742h-8.551c-.41 0-.743.332-.743.742s.333.743.743.743zM46.55 5.944c.41 0 .743-.332.743-.742V2.28c0-1.257-1.024-2.28-2.281-2.28H13.866c-1.257 0-2.28 1.023-2.28 2.28v3.843H5.024c-1.258 0-2.28 1.023-2.28 2.28v1.543h-.555c-1.19 0-2.16.969-2.16 2.16 0 1.19.97 2.159 2.16 2.159h.554v3.784H2.19c-1.19 0-2.16.969-2.16 2.16 0 1.19.97 2.159 2.16 2.159h.554v3.784H2.19C1 26.152.03 27.12.03 28.31c0 1.19.97 2.16 2.16 2.16h.554v3.783H2.19c-1.19 0-2.16.97-2.16 2.16 0 1.19.97 2.159 2.16 2.159h.554v3.784H2.19c-1.19 0-2.16.969-2.16 2.16 0 1.19.97 2.159 2.16 2.159h.554v1.732c0 1.257 1.023 2.28 2.28 2.28h3.721c.41 0 .743-.332.743-.742s-.333-.743-.743-.743h-3.72c-.439 0-.796-.357-.796-.795v-1.732h.336c1.191 0 2.16-.97 2.16-2.16 0-1.19-.969-2.159-2.16-2.159h-.336v-3.784h.336c1.191 0 2.16-.969 2.16-2.16 0-1.19-.969-2.159-2.16-2.159h-.336V30.47h.336c1.191 0 2.16-.968 2.16-2.16 0-1.19-.969-2.158-2.16-2.158h-.336v-3.784h.336c1.191 0 2.16-.97 2.16-2.16 0-1.19-.969-2.16-2.16-2.16h-.336v-3.783h.336c1.191 0 2.16-.969 2.16-2.16 0-1.19-.969-2.159-2.16-2.159h-.336V8.403c0-.438.357-.795.796-.795h27.373v21.157c0 .41.332.743.742.743s.743-.333.743-.743V7.608h.859v41.595h-.86V31.866c0-.41-.332-.743-.742-.743s-.742.333-.742.743v17.337H12.328c-.41 0-.742.332-.742.743 0 .41.332.742.742.742H36.17c1.258 0 2.28-1.023 2.28-2.28v-3.843h6.563c1.257 0 2.28-1.023 2.28-2.28V8.512c0-.41-.332-.742-.742-.742s-.742.332-.742.742v33.773c0 .438-.357.795-.796.795H38.45V31.753h3.347c.41 0 .742-.332.742-.743 0-.41-.332-.742-.742-.742H38.45v-3.543h3.347c.41 0 .742-.333.742-.743s-.332-.742-.742-.742H38.45v-3.543h3.347c.41 0 .742-.333.742-.743s-.332-.742-.742-.742H38.45v-3.543h3.347c.41 0 .742-.333.742-.743s-.332-.742-.742-.742H38.45v-6.78c0-1.258-1.023-2.281-2.28-2.281h-23.1V2.28c0-.438.358-.795.796-.795h31.146c.439 0 .796.357.796.795v2.922c0 .41.332.742.742.742zM4.564 43.842c.372 0 .675.302.675.674 0 .372-.303.674-.675.674H2.19c-.372 0-.674-.302-.674-.674 0-.372.302-.674.674-.674h2.375zm0-8.103c.372 0 .675.303.675.674 0 .372-.303.675-.675.675H2.19c-.372 0-.674-.303-.674-.675 0-.371.302-.674.674-.674h2.375zm0-8.102c.372 0 .675.302.675.674 0 .372-.303.674-.675.674H2.19c-.372 0-.674-.302-.674-.674 0-.372.302-.674.674-.674h2.375zm0-8.103c.372 0 .675.302.675.674 0 .372-.303.675-.675.675H2.19c-.372 0-.674-.303-.674-.675 0-.372.302-.674.674-.674h2.375zm0-8.103c.372 0 .675.303.675.675 0 .371-.303.674-.675.674H2.19c-.372 0-.674-.303-.674-.674 0-.372.302-.675.674-.675h2.375zm31.662-3.82c.412.029.739.373.739.792v40.005c0 .42-.327.763-.739.792V7.61z" transform="translate(6.6 7.6)"/>
                            </g>
                            <g transform="translate(6.6 7.6) matrix(-1 0 0 1 58 20)">
                                <path fill="#A4BDE0" d="M9.423 21.05L12.436 21.05 12.436 25.067 9.423 25.067z" transform="rotate(45 10.93 23.058)"/>
                                <path fill="#B0D0FF" d="M8.86 19.984L10.869 19.984 10.869 24.002 8.86 24.002z" transform="rotate(45 9.864 21.993)"/>
                                <path fill="#8D6ED1" d="M5.408 32.095l4.455-5.837-1.42-2.841-7.56 8.98c1.176 1.177 3.084 1.177 4.261 0 .096-.096.184-.197.264-.302z"/>
                                <path fill="#A381E6" d="M3.724 30.977c.096-.096.183-.198.264-.303l4.455-5.837v-1.42h-1.42L1.184 27.87c-.105.081-.206.169-.302.265-1.177 1.177-1.177 3.085 0 4.262.392.392 1.664-.244 2.84-1.421z"/>
                                <circle cx="21.227" cy="12.053" r="12.053" fill="#202124"/>
                                <path fill="#B0D0FF" d="M14.125 21.996l-1.42-1.42-1.421 1.42 1.42 1.42c.392.393 1.028.393 1.42 0 .393-.391.393-1.027 0-1.42z"/>
                                <path fill="#C4E3FA" d="M12.704 21.996c.392-.392.392-1.028 0-1.42l-1.42-1.42c-.393-.393-1.029-.393-1.42 0-.393.392-.393 1.028 0 1.42l1.42 1.42c.392.393 1.028.393 1.42 0z"/>
                                <path fill="#B0D0FF" d="M11.284 24.837l-1.42-1.42-1.421 1.42 1.42 1.42c.392.393 1.028.393 1.42 0 .393-.391.393-1.027 0-1.42z"/>
                                <path fill="#C4E3FA" d="M9.863 24.837c.392-.392.392-1.028 0-1.42l-1.42-1.42c-.393-.393-1.029-.393-1.42 0-.393.392-.393 1.028 0 1.42l1.42 1.42c.392.393 1.028.393 1.42 0z"/>
                                <path fill="#E3F5FF" d="M28.33 4.95L14.124 19.156c3.922 3.923 10.282 3.923 14.204 0 3.923-3.922 3.923-10.282 0-14.204z"/>
                                <path fill="#FFF" d="M26.909 17.735c3.922-3.923 4.558-9.646 1.42-12.784-3.922-3.923-10.282-3.923-14.204 0-3.923 3.922-3.923 10.282 0 14.204 3.138 3.139 8.861 2.503 12.784-1.42z"/>
                            </g>
                        </g>
                    </g>
                </g>
            </g>
        </g>
    </g>
</svg>
