<svg width="28" height="28" viewBox="0 0 28 28" fill="none" xmlns="http://www.w3.org/2000/svg">
<path d="M12.4196 1.30339C13.0846 0.896265 13.9154 0.896264 14.5804 1.30339L22.9804 6.44583C23.613 6.83306 24 7.53052 24 8.28317V18.7129C24 19.4656 23.613 20.163 22.9804 20.5503L14.5804 25.6927C13.9154 26.0998 13.0846 26.0998 12.4196 25.6927L4.01956 20.5503C3.38703 20.163 3 19.4656 3 18.7129V8.28317C3 7.53052 3.38703 6.83306 4.01956 6.44583L12.4196 1.30339Z" fill="#FBC431"/>
<path fill-rule="evenodd" clip-rule="evenodd" d="M16.9433 1.37366L24.3843 5.8381C25.7851 6.67855 26.6422 8.19231 26.6422 9.82584V18.8805C26.6422 20.514 25.7851 22.0278 24.3843 22.8683L16.9433 27.3327C15.4705 28.2163 13.6306 28.2163 12.1579 27.3327L4.71688 22.8683C3.31609 22.0278 2.45898 20.514 2.45898 18.8805V9.82584C2.45898 8.19231 3.31609 6.67855 4.71688 5.8381L12.1579 1.37366C13.6306 0.49003 15.4705 0.490029 16.9433 1.37366ZM15.5077 3.7663C14.9186 3.41285 14.1826 3.41285 13.5935 3.7663L6.15251 8.23075C5.5922 8.56693 5.24936 9.17243 5.24936 9.82584V18.8805C5.24936 19.5339 5.5922 20.1394 6.15251 20.4756L13.5935 24.9401C14.1826 25.2935 14.9186 25.2935 15.5077 24.9401L22.9487 20.4756C23.509 20.1394 23.8518 19.5339 23.8518 18.8805V9.82584C23.8518 9.17243 23.509 8.56693 22.9487 8.23075L15.5077 3.7663Z" fill="#D0850B"/>
<path fill-rule="evenodd" clip-rule="evenodd" d="M15.8427 0.668583L23.2837 5.13303C24.6845 5.97347 25.5416 7.48723 25.5416 9.12076V18.1754C25.5416 19.809 24.6845 21.3227 23.2837 22.1632L15.8427 26.6276C14.37 27.5112 12.5301 27.5112 11.0573 26.6276L3.61629 22.1632C2.2155 21.3227 1.3584 19.809 1.3584 18.1754V9.12076C1.3584 7.48723 2.2155 5.97347 3.61629 5.13303L11.0573 0.668583C12.53 -0.215048 14.37 -0.215049 15.8427 0.668583ZM14.4071 3.06123C13.818 2.70777 13.082 2.70777 12.4929 3.06123L5.05193 7.52567C4.49161 7.86185 4.14877 8.46735 4.14877 9.12076V18.1754C4.14877 18.8288 4.49161 19.4344 5.05193 19.7705L12.4929 24.235C13.082 24.5884 13.818 24.5884 14.4071 24.235L21.8481 19.7705C22.4084 19.4344 22.7512 18.8288 22.7512 18.1754V9.12076C22.7512 8.46735 22.4084 7.86185 21.8481 7.52567L14.4071 3.06123Z" fill="#EF9D1A"/>
<path d="M17.7382 8.52735L12.9369 8.52734C12.5189 8.52734 12.1462 8.79081 12.0068 9.18493L10.1497 14.4346C10.0362 14.7556 10.2743 15.0924 10.6148 15.0924H12.8154C13.1182 15.0924 13.3495 15.3627 13.3028 15.6618L12.4661 21.0213C12.3931 21.4887 12.9561 21.7809 13.2963 21.4522L19.0007 15.9405C19.3197 15.6323 19.1015 15.0924 18.6579 15.0924H16.7587C16.3885 15.0924 16.1502 14.6997 16.3212 14.3713L18.6133 9.96965C18.9553 9.31283 18.4787 8.52735 17.7382 8.52735Z" fill="#EF9D1A"/>
<path d="M16.6376 7.82032L11.8363 7.82031C11.4183 7.82031 11.0456 8.08378 10.9062 8.4779L9.04916 13.7276C8.9356 14.0486 9.17372 14.3854 9.51423 14.3854H11.7148C12.0176 14.3854 12.2489 14.6556 12.2022 14.9548L11.3655 20.3143C11.2925 20.7817 11.8555 21.0738 12.1957 20.7451L17.9001 15.2335C18.2191 14.9252 18.001 14.3854 17.5574 14.3854H15.6581C15.2879 14.3854 15.0496 13.9926 15.2206 13.6642L17.5127 9.26262C17.8547 8.6058 17.3781 7.82032 16.6376 7.82032Z" fill="white"/>
<path opacity="0.25" fill-rule="evenodd" clip-rule="evenodd" d="M15.8422 0.667606L23.2832 5.13205C23.4566 5.23607 23.6216 5.3504 23.7778 5.47399L24.3838 5.83762C25.7846 6.67806 26.6417 8.19182 26.6417 9.82535V9.82569C26.6417 8.19215 25.7846 6.6784 24.3838 5.83795L23.7778 5.47433C23.6216 5.35073 23.4566 5.2364 23.2832 5.13239L15.8422 0.667943C15.6756 0.567967 15.5043 0.479302 15.3293 0.40195L24.3452 22.8909L18.2659 26.5384L8.50754 2.19744L6.3623 3.48454L16.0843 27.7347C15.6038 27.9027 15.1021 27.9893 14.5998 27.9947L5.08166 4.2529L3.6158 5.13239C2.21501 5.97283 1.35791 7.48659 1.35791 9.12012V9.11979C1.35791 7.48625 2.21501 5.9725 3.6158 5.13205L11.0568 0.667607C12.5296 -0.216025 14.3695 -0.216026 15.8422 0.667606Z" fill="#FEF5E7"/>
</svg>
