<svg width="20" height="20" viewBox="0 0 20 20" fill="none" xmlns="http://www.w3.org/2000/svg">
<g id="Learning">
<g clip-path="url(#clip0_5046_151176)">
<g id="Group 48096314">
<g id="Subtract">
<mask id="path-2-inside-1_5046_151176" fill="white">
<path fill-rule="evenodd" clip-rule="evenodd" d="M13.3902 1.40278C11.5179 -0.469545 8.48228 -0.469549 6.60995 1.40278L1.40425 6.60848C-0.46808 8.48081 -0.468084 11.5164 1.40425 13.3888L6.60994 18.5945C8.48227 20.4668 11.5179 20.4668 13.3902 18.5945L18.5959 13.3888C20.4683 11.5165 20.4683 8.48081 18.5959 6.60848L13.3902 1.40278ZM10.8475 12.7474C10.3794 13.2155 9.62054 13.2155 9.15246 12.7474L7.25173 10.8467C6.78365 10.3786 6.78365 9.61968 7.25173 9.1516L9.15246 7.25088C9.62054 6.7828 10.3794 6.7828 10.8475 7.25088L12.7483 9.1516C13.2163 9.61968 13.2163 10.3786 12.7483 10.8467L10.8475 12.7474Z"/>
</mask>
<path fill-rule="evenodd" clip-rule="evenodd" d="M13.3902 1.40278C11.5179 -0.469545 8.48228 -0.469549 6.60995 1.40278L1.40425 6.60848C-0.46808 8.48081 -0.468084 11.5164 1.40425 13.3888L6.60994 18.5945C8.48227 20.4668 11.5179 20.4668 13.3902 18.5945L18.5959 13.3888C20.4683 11.5165 20.4683 8.48081 18.5959 6.60848L13.3902 1.40278ZM10.8475 12.7474C10.3794 13.2155 9.62054 13.2155 9.15246 12.7474L7.25173 10.8467C6.78365 10.3786 6.78365 9.61968 7.25173 9.1516L9.15246 7.25088C9.62054 6.7828 10.3794 6.7828 10.8475 7.25088L12.7483 9.1516C13.2163 9.61968 13.2163 10.3786 12.7483 10.8467L10.8475 12.7474Z" fill="url(#paint0_linear_5046_151176)"/>
<path d="M6.60995 1.40278L6.77945 1.57229L6.60995 1.40278ZM13.3902 1.40278L13.5598 1.23328V1.23328L13.3902 1.40278ZM1.40425 6.60848L1.57376 6.77799L1.40425 6.60848ZM1.40425 13.3888L1.23474 13.5583L1.40425 13.3888ZM6.60994 18.5945L6.77945 18.425L6.60994 18.5945ZM13.3902 18.5945L13.5598 18.764L13.3902 18.5945ZM18.5959 13.3888L18.7654 13.5583L18.5959 13.3888ZM18.5959 6.60848L18.7655 6.43897L18.5959 6.60848ZM9.15246 12.7474L9.32196 12.5779V12.5779L9.15246 12.7474ZM10.8475 12.7474L10.678 12.5779L10.8475 12.7474ZM7.25173 10.8467L7.08222 11.0162L7.25173 10.8467ZM7.25173 9.1516L7.42124 9.32111L7.25173 9.1516ZM9.15246 7.25088L8.98295 7.08137H8.98295L9.15246 7.25088ZM10.8475 7.25088L11.017 7.08137L10.8475 7.25088ZM12.7483 9.1516L12.5787 9.32111L12.7483 9.1516ZM12.7483 10.8467L12.9178 11.0162L12.7483 10.8467ZM6.77945 1.57229C8.55817 -0.206425 11.442 -0.206421 13.2207 1.57229L13.5598 1.23328C11.5938 -0.732669 8.40639 -0.732673 6.44044 1.23327L6.77945 1.57229ZM1.57376 6.77799L6.77945 1.57229L6.44044 1.23327L1.23474 6.43897L1.57376 6.77799ZM1.57375 13.2193C-0.20496 11.4406 -0.204957 8.5567 1.57376 6.77799L1.23474 6.43897C-0.731204 8.40492 -0.731209 11.5923 1.23474 13.5583L1.57375 13.2193ZM6.77945 18.425L1.57375 13.2193L1.23474 13.5583L6.44044 18.764L6.77945 18.425ZM13.2207 18.425C11.442 20.2037 8.55816 20.2037 6.77945 18.425L6.44044 18.764C8.40638 20.7299 11.5938 20.7299 13.5598 18.764L13.2207 18.425ZM18.4264 13.2193L13.2207 18.425L13.5598 18.764L18.7654 13.5583L18.4264 13.2193ZM18.4264 6.77799C20.2051 8.5567 20.2051 11.4406 18.4264 13.2193L18.7654 13.5583C20.7314 11.5923 20.7314 8.40492 18.7655 6.43897L18.4264 6.77799ZM13.2207 1.57229L18.4264 6.77799L18.7655 6.43897L13.5598 1.23328L13.2207 1.57229ZM8.98295 12.9169C9.54465 13.4786 10.4553 13.4786 11.017 12.9169L10.678 12.5779C10.3036 12.9524 9.69643 12.9524 9.32196 12.5779L8.98295 12.9169ZM7.08222 11.0162L8.98295 12.9169L9.32196 12.5779L7.42124 10.6772L7.08222 11.0162ZM7.08222 8.98209C6.52053 9.54379 6.52053 10.4545 7.08222 11.0162L7.42124 10.6772C7.04677 10.3027 7.04677 9.69557 7.42124 9.32111L7.08222 8.98209ZM8.98295 7.08137L7.08222 8.98209L7.42124 9.32111L9.32196 7.42038L8.98295 7.08137ZM11.017 7.08137C10.4553 6.51967 9.54465 6.51967 8.98295 7.08137L9.32196 7.42039C9.69643 7.04592 10.3036 7.04592 10.678 7.42039L11.017 7.08137ZM12.9178 8.98209L11.017 7.08137L10.678 7.42039L12.5787 9.32111L12.9178 8.98209ZM12.9178 11.0162C13.4795 10.4545 13.4795 9.54379 12.9178 8.98209L12.5787 9.32111C12.9532 9.69557 12.9532 10.3027 12.5787 10.6772L12.9178 11.0162ZM11.017 12.9169L12.9178 11.0162L12.5787 10.6772L10.678 12.5779L11.017 12.9169Z" fill="url(#paint1_angular_5046_151176)" mask="url(#path-2-inside-1_5046_151176)"/>
</g>
<g id="Subtract_2">
<mask id="path-4-inside-2_5046_151176" fill="white">
<path fill-rule="evenodd" clip-rule="evenodd" d="M11.6947 16.295C10.7586 17.2312 9.24076 17.2312 8.30459 16.295L3.70408 11.6945C2.76791 10.7583 2.76791 9.24051 3.70408 8.30435L8.30459 3.70383C9.24075 2.76767 10.7586 2.76767 11.6947 3.70383L16.2953 8.30435C17.2314 9.24051 17.2314 10.7583 16.2953 11.6945L11.6947 16.295ZM10.8469 12.7474C10.3788 13.2155 9.61991 13.2155 9.15182 12.7474L7.2511 10.8467C6.78302 10.3786 6.78302 9.61966 7.2511 9.15158L9.15182 7.25086C9.61991 6.78277 10.3788 6.78277 10.8469 7.25086L12.7476 9.15158C13.2157 9.61966 13.2157 10.3786 12.7476 10.8467L10.8469 12.7474Z"/>
</mask>
<path fill-rule="evenodd" clip-rule="evenodd" d="M11.6947 16.295C10.7586 17.2312 9.24076 17.2312 8.30459 16.295L3.70408 11.6945C2.76791 10.7583 2.76791 9.24051 3.70408 8.30435L8.30459 3.70383C9.24075 2.76767 10.7586 2.76767 11.6947 3.70383L16.2953 8.30435C17.2314 9.24051 17.2314 10.7583 16.2953 11.6945L11.6947 16.295ZM10.8469 12.7474C10.3788 13.2155 9.61991 13.2155 9.15182 12.7474L7.2511 10.8467C6.78302 10.3786 6.78302 9.61966 7.2511 9.15158L9.15182 7.25086C9.61991 6.78277 10.3788 6.78277 10.8469 7.25086L12.7476 9.15158C13.2157 9.61966 13.2157 10.3786 12.7476 10.8467L10.8469 12.7474Z" fill="url(#paint2_linear_5046_151176)"/>
<path d="M8.30459 16.295L8.13508 16.4645L8.30459 16.295ZM11.6947 16.295L11.5252 16.1255L11.6947 16.295ZM3.70408 11.6945L3.87358 11.525L3.70408 11.6945ZM3.70408 8.30435L3.87358 8.47385L3.70408 8.30435ZM8.30459 3.70383L8.13508 3.53433L8.30459 3.70383ZM11.6947 3.70383L11.8642 3.53432L11.6947 3.70383ZM16.2953 8.30435L16.1257 8.47385L16.2953 8.30435ZM16.2953 11.6945L16.4648 11.864L16.2953 11.6945ZM9.15182 12.7474L9.32133 12.5779L9.15182 12.7474ZM10.8469 12.7474L10.6774 12.5779L10.8469 12.7474ZM7.2511 9.15158L7.42061 9.32109L7.2511 9.15158ZM12.7476 9.15158L12.9171 8.98207L12.7476 9.15158ZM12.7476 10.8467L12.9171 11.0162V11.0162L12.7476 10.8467ZM8.13508 16.4645C9.16486 17.4943 10.8345 17.4943 11.8643 16.4645L11.5252 16.1255C10.6827 16.9681 9.31665 16.9681 8.4741 16.1255L8.13508 16.4645ZM3.53457 11.864L8.13508 16.4645L8.4741 16.1255L3.87358 11.525L3.53457 11.864ZM3.53457 8.13484C2.50479 9.16462 2.50479 10.8342 3.53457 11.864L3.87358 11.525C3.03104 10.6824 3.03104 9.3164 3.87358 8.47385L3.53457 8.13484ZM8.13508 3.53433L3.53457 8.13484L3.87358 8.47385L8.4741 3.87334L8.13508 3.53433ZM11.8642 3.53432C10.8345 2.50454 9.16486 2.50454 8.13508 3.53433L8.4741 3.87334C9.31665 3.03079 10.6827 3.03079 11.5252 3.87334L11.8642 3.53432ZM16.4648 8.13484L11.8642 3.53432L11.5252 3.87334L16.1257 8.47385L16.4648 8.13484ZM16.4648 11.864C17.4945 10.8342 17.4945 9.16462 16.4648 8.13484L16.1257 8.47385C16.9683 9.3164 16.9683 10.6824 16.1257 11.525L16.4648 11.864ZM11.8643 16.4645L16.4648 11.864L16.1257 11.525L11.5252 16.1255L11.8643 16.4645ZM8.98232 12.9169C9.54402 13.4786 10.4547 13.4786 11.0164 12.9169L10.6774 12.5779C10.3029 12.9523 9.6958 12.9523 9.32133 12.5779L8.98232 12.9169ZM7.08159 11.0162L8.98232 12.9169L9.32133 12.5779L7.42061 10.6771L7.08159 11.0162ZM7.08159 8.98207C6.5199 9.54377 6.51989 10.4545 7.08159 11.0162L7.42061 10.6771C7.04614 10.3027 7.04614 9.69555 7.42061 9.32109L7.08159 8.98207ZM8.98232 7.08135L7.08159 8.98207L7.42061 9.32109L9.32133 7.42036L8.98232 7.08135ZM11.0164 7.08135C10.4547 6.51965 9.54402 6.51965 8.98232 7.08135L9.32133 7.42036C9.6958 7.0459 10.3029 7.0459 10.6774 7.42036L11.0164 7.08135ZM12.9171 8.98207L11.0164 7.08135L10.6774 7.42036L12.5781 9.32109L12.9171 8.98207ZM12.9171 11.0162C13.4788 10.4545 13.4788 9.54377 12.9171 8.98207L12.5781 9.32109C12.9526 9.69555 12.9526 10.3027 12.5781 10.6771L12.9171 11.0162ZM11.0164 12.9169L12.9171 11.0162L12.5781 10.6771L10.6774 12.5779L11.0164 12.9169Z" fill="url(#paint3_angular_5046_151176)" mask="url(#path-4-inside-2_5046_151176)"/>
</g>
</g>
<g id="Subtract_3" style="mix-blend-mode:soft-light">
<path fill-rule="evenodd" clip-rule="evenodd" d="M8.61584 0.201641C7.88174 0.422303 7.19011 0.822632 6.61012 1.40263L6.24555 1.76719L2.7666 14.7508L4.30515 16.2894L8.61584 0.201641ZM6.45664 18.4409L6.61011 18.5943C7.9351 19.9193 9.84267 20.3067 11.5083 19.7563L15.7846 3.79682L13.3904 1.40263C12.8005 0.812672 12.095 0.408604 11.3468 0.19043L9.52267 6.99828C9.96086 6.80818 10.4894 6.89225 10.8477 7.25049L12.7484 9.15121C13.2165 9.61929 13.2165 10.3782 12.7484 10.8463L10.8477 12.747C10.3796 13.2151 9.62067 13.2151 9.15259 12.747L8.22961 11.824L6.45664 18.4409Z" fill="white"/>
</g>
</g>
</g>
<defs>
<linearGradient id="paint0_linear_5046_151176" x1="10.0002" y1="-1.98665" x2="10.0002" y2="21.9854" gradientUnits="userSpaceOnUse">
<stop stop-color="#2989FF"/>
<stop offset="1" stop-color="#002E66"/>
</linearGradient>
<radialGradient id="paint1_angular_5046_151176" cx="0" cy="0" r="1" gradientUnits="userSpaceOnUse" gradientTransform="translate(10.0002 9.99935) rotate(90) scale(11.986)">
<stop stop-color="#0560D1"/>
<stop offset="0.5" stop-color="white" stop-opacity="0"/>
</radialGradient>
<linearGradient id="paint2_linear_5046_151176" x1="9.99944" y1="17.9912" x2="9.99944" y2="2.0099" gradientUnits="userSpaceOnUse">
<stop stop-color="#2989FF"/>
<stop offset="1" stop-color="#002E66"/>
</linearGradient>
<radialGradient id="paint3_angular_5046_151176" cx="0" cy="0" r="1" gradientUnits="userSpaceOnUse" gradientTransform="translate(9.99944 10.0006) rotate(-90) scale(7.99067)">
<stop stop-color="#4F9BF8"/>
<stop offset="0.5" stop-color="white" stop-opacity="0"/>
</radialGradient>
<clipPath id="clip0_5046_151176">
<rect width="20" height="20" rx="3.33333" fill="white"/>
</clipPath>
</defs>
</svg>
