<svg width="20" height="20" viewBox="0 0 20 20" fill="none" xmlns="http://www.w3.org/2000/svg">
<g id="Skill">
<g clip-path="url(#clip0_5046_151285)">
<g id="Subtract">
<mask id="path-2-inside-1_5046_151285" fill="white">
<path fill-rule="evenodd" clip-rule="evenodd" d="M11.9629 0.963189C10.7926 0.112857 9.20775 0.112856 8.03737 0.963189L1.37674 5.80242C0.206354 6.65275 -0.283382 8.16 0.163665 9.53587L2.7078 17.3659C3.15484 18.7418 4.43699 19.6733 5.88366 19.6733H14.1167C15.5633 19.6733 16.8455 18.7418 17.2925 17.3659L19.8366 9.53587C20.2837 8.16 19.794 6.65275 18.6236 5.80242L11.9629 0.963189ZM9.3461 7.80365C9.73623 7.5202 10.2645 7.5202 10.6546 7.80365L12.522 9.16035C12.9121 9.44379 13.0753 9.94621 12.9263 10.4048L12.2131 12.6C12.0641 13.0586 11.6367 13.3691 11.1544 13.3691H8.84629C8.36407 13.3691 7.93669 13.0586 7.78767 12.6L7.07441 10.4048C6.9254 9.94621 7.08864 9.44379 7.47877 9.16035L9.3461 7.80365Z"/>
</mask>
<path fill-rule="evenodd" clip-rule="evenodd" d="M11.9629 0.963189C10.7926 0.112857 9.20775 0.112856 8.03737 0.963189L1.37674 5.80242C0.206354 6.65275 -0.283382 8.16 0.163665 9.53587L2.7078 17.3659C3.15484 18.7418 4.43699 19.6733 5.88366 19.6733H14.1167C15.5633 19.6733 16.8455 18.7418 17.2925 17.3659L19.8366 9.53587C20.2837 8.16 19.794 6.65275 18.6236 5.80242L11.9629 0.963189ZM9.3461 7.80365C9.73623 7.5202 10.2645 7.5202 10.6546 7.80365L12.522 9.16035C12.9121 9.44379 13.0753 9.94621 12.9263 10.4048L12.2131 12.6C12.0641 13.0586 11.6367 13.3691 11.1544 13.3691H8.84629C8.36407 13.3691 7.93669 13.0586 7.78767 12.6L7.07441 10.4048C6.9254 9.94621 7.08864 9.44379 7.47877 9.16035L9.3461 7.80365Z" fill="url(#paint0_linear_5046_151285)"/>
<path d="M8.03737 0.963189L8.16822 1.14329L8.03737 0.963189ZM11.9629 0.963189L11.8321 1.14329L11.9629 0.963189ZM1.37674 5.80242L1.24588 5.62232L1.37674 5.80242ZM0.163665 9.53587L0.375389 9.46708L0.163665 9.53587ZM2.7078 17.3659L2.49607 17.4347L2.7078 17.3659ZM17.2925 17.3659L17.0808 17.2971L17.2925 17.3659ZM19.8366 9.53587L20.0484 9.60466L19.8366 9.53587ZM18.6236 5.80242L18.4927 5.98252L18.6236 5.80242ZM10.6546 7.80365L10.7855 7.62354L10.6546 7.80365ZM9.3461 7.80365L9.21525 7.62354V7.62354L9.3461 7.80365ZM12.522 9.16035L12.3911 9.34045L12.522 9.16035ZM12.9263 10.4048L12.7146 10.336L12.9263 10.4048ZM12.2131 12.6L12.4248 12.6688L12.2131 12.6ZM7.78767 12.6L7.57595 12.6688L7.78767 12.6ZM7.07441 10.4048L7.28614 10.336L7.07441 10.4048ZM7.47877 9.16035L7.60962 9.34045L7.47877 9.16035ZM8.16822 1.14329C9.26058 0.349648 10.7397 0.349649 11.8321 1.14329L12.0938 0.783086C10.8454 -0.123936 9.15492 -0.123936 7.90651 0.783085L8.16822 1.14329ZM1.50759 5.98252L8.16822 1.14329L7.90651 0.783085L1.24588 5.62232L1.50759 5.98252ZM0.375389 9.46708C-0.0418543 8.18293 0.415232 6.77617 1.50759 5.98252L1.24588 5.62232C-0.00252404 6.52934 -0.524909 8.13707 -0.0480595 9.60466L0.375389 9.46708ZM2.91952 17.2971L0.375389 9.46708L-0.0480595 9.60466L2.49607 17.4347L2.91952 17.2971ZM5.88366 19.4507C4.53343 19.4507 3.33677 18.5813 2.91952 17.2971L2.49607 17.4347C2.97292 18.9023 4.34054 19.8959 5.88366 19.8959V19.4507ZM14.1167 19.4507H5.88366V19.8959H14.1167V19.4507ZM17.0808 17.2971C16.6635 18.5813 15.4669 19.4507 14.1167 19.4507V19.8959C15.6598 19.8959 17.0274 18.9023 17.5042 17.4347L17.0808 17.2971ZM19.6249 9.46708L17.0808 17.2971L17.5042 17.4347L20.0484 9.60466L19.6249 9.46708ZM18.4927 5.98252C19.5851 6.77617 20.0422 8.18293 19.6249 9.46708L20.0484 9.60466C20.5252 8.13707 20.0028 6.52934 18.7544 5.62232L18.4927 5.98252ZM11.8321 1.14329L18.4927 5.98252L18.7544 5.62232L12.0938 0.783086L11.8321 1.14329ZM10.7855 7.62354C10.3173 7.28341 9.68341 7.28341 9.21525 7.62354L9.47696 7.98375C9.78906 7.757 10.2117 7.757 10.5238 7.98375L10.7855 7.62354ZM12.6528 8.98024L10.7855 7.62354L10.5238 7.98375L12.3911 9.34045L12.6528 8.98024ZM13.1381 10.4736C13.3169 9.92328 13.121 9.32038 12.6528 8.98024L12.3911 9.34045C12.7032 9.56721 12.8338 9.96914 12.7146 10.336L13.1381 10.4736ZM12.4248 12.6688L13.1381 10.4736L12.7146 10.336L12.0013 12.5312L12.4248 12.6688ZM11.1544 13.5918C11.7331 13.5918 12.246 13.2192 12.4248 12.6688L12.0013 12.5312C11.8821 12.8981 11.5402 13.1465 11.1544 13.1465V13.5918ZM8.84629 13.5918H11.1544V13.1465H8.84629V13.5918ZM7.57595 12.6688C7.75476 13.2192 8.26762 13.5918 8.84629 13.5918V13.1465C8.46051 13.1465 8.11861 12.8981 7.99939 12.5312L7.57595 12.6688ZM6.86269 10.4736L7.57595 12.6688L7.99939 12.5312L7.28614 10.336L6.86269 10.4736ZM7.34792 8.98024C6.87976 9.32038 6.68387 9.92328 6.86269 10.4736L7.28614 10.336C7.16692 9.96914 7.29752 9.56721 7.60962 9.34045L7.34792 8.98024ZM9.21525 7.62354L7.34792 8.98024L7.60962 9.34045L9.47696 7.98375L9.21525 7.62354Z" fill="url(#paint1_angular_5046_151285)" mask="url(#path-2-inside-1_5046_151285)"/>
</g>
<g id="Subtract_2">
<mask id="path-4-inside-2_5046_151285" fill="white">
<path fill-rule="evenodd" clip-rule="evenodd" d="M8.69125 4.19787C9.47151 3.63098 10.5281 3.63098 11.3083 4.19787L15.7487 7.42403C16.529 7.99091 16.8555 8.99575 16.5574 9.91299L14.8614 15.133C14.5633 16.0503 13.7086 16.6713 12.7441 16.6713H7.25545C6.291 16.6713 5.43624 16.0503 5.13821 15.133L3.44212 9.91299C3.14409 8.99575 3.47058 7.99091 4.25083 7.42402L8.69125 4.19787ZM9.34578 7.80365C9.73591 7.5202 10.2642 7.5202 10.6543 7.80365L12.5216 9.16035C12.9118 9.44379 13.075 9.94621 12.926 10.4048L12.2127 12.6C12.0637 13.0586 11.6363 13.3691 11.1541 13.3691L8.84597 13.3691C8.36374 13.3691 7.93636 13.0586 7.78734 12.6L7.07409 10.4048C6.92507 9.94621 7.08832 9.44379 7.47844 9.16035L9.34578 7.80365Z"/>
</mask>
<path fill-rule="evenodd" clip-rule="evenodd" d="M8.69125 4.19787C9.47151 3.63098 10.5281 3.63098 11.3083 4.19787L15.7487 7.42403C16.529 7.99091 16.8555 8.99575 16.5574 9.91299L14.8614 15.133C14.5633 16.0503 13.7086 16.6713 12.7441 16.6713H7.25545C6.291 16.6713 5.43624 16.0503 5.13821 15.133L3.44212 9.91299C3.14409 8.99575 3.47058 7.99091 4.25083 7.42402L8.69125 4.19787ZM9.34578 7.80365C9.73591 7.5202 10.2642 7.5202 10.6543 7.80365L12.5216 9.16035C12.9118 9.44379 13.075 9.94621 12.926 10.4048L12.2127 12.6C12.0637 13.0586 11.6363 13.3691 11.1541 13.3691L8.84597 13.3691C8.36374 13.3691 7.93636 13.0586 7.78734 12.6L7.07409 10.4048C6.92507 9.94621 7.08832 9.44379 7.47844 9.16035L9.34578 7.80365Z" fill="url(#paint2_linear_5046_151285)"/>
<path d="M11.3083 4.19787L11.4392 4.01777V4.01777L11.3083 4.19787ZM8.69125 4.19787L8.5604 4.01777L8.69125 4.19787ZM15.7487 7.42403L15.6179 7.60413L15.7487 7.42403ZM16.5574 9.91299L16.3457 9.8442L16.5574 9.91299ZM14.8614 15.133L14.6496 15.0642L14.8614 15.133ZM5.13821 15.133L4.92648 15.2018L5.13821 15.133ZM3.44212 9.91299L3.65384 9.8442H3.65384L3.44212 9.91299ZM4.25083 7.42402L4.11998 7.24392L4.25083 7.42402ZM10.6543 7.80365L10.7852 7.62354L10.6543 7.80365ZM9.34578 7.80365L9.47663 7.98375L9.34578 7.80365ZM12.5216 9.16035L12.3908 9.34045L12.5216 9.16035ZM12.926 10.4048L12.7143 10.336V10.336L12.926 10.4048ZM12.2127 12.6L12.4245 12.6688V12.6688L12.2127 12.6ZM11.1541 13.3691V13.5918V13.3691ZM8.84597 13.3691V13.1465V13.3691ZM7.78734 12.6L7.99907 12.5312L7.78734 12.6ZM7.07409 10.4048L7.28581 10.336L7.07409 10.4048ZM7.47844 9.16035L7.6093 9.34045V9.34045L7.47844 9.16035ZM11.4392 4.01777C10.5809 3.39419 9.41868 3.39419 8.5604 4.01777L8.8221 4.37798C9.52433 3.86778 10.4752 3.86777 11.1775 4.37797L11.4392 4.01777ZM15.8796 7.24392L11.4392 4.01777L11.1775 4.37797L15.6179 7.60413L15.8796 7.24392ZM16.7692 9.98179C17.097 8.97282 16.7379 7.8675 15.8796 7.24392L15.6179 7.60413C16.3201 8.11433 16.6139 9.01868 16.3457 9.8442L16.7692 9.98179ZM15.0731 15.2018L16.7692 9.98178L16.3457 9.8442L14.6496 15.0642L15.0731 15.2018ZM12.7441 16.8939C13.805 16.8939 14.7452 16.2108 15.0731 15.2018L14.6496 15.0642C14.3814 15.8897 13.6121 16.4487 12.7441 16.4487V16.8939ZM7.25545 16.8939H12.7441V16.4487H7.25545V16.8939ZM4.92648 15.2018C5.25432 16.2108 6.19456 16.8939 7.25545 16.8939V16.4487C6.38744 16.4487 5.61816 15.8897 5.34993 15.0642L4.92648 15.2018ZM3.23039 9.98179L4.92648 15.2018L5.34993 15.0642L3.65384 9.8442L3.23039 9.98179ZM4.11998 7.24392C3.2617 7.8675 2.90256 8.97282 3.23039 9.98179L3.65384 9.8442C3.38561 9.01868 3.67945 8.11433 4.38168 7.60413L4.11998 7.24392ZM8.5604 4.01777L4.11998 7.24392L4.38168 7.60413L8.8221 4.37798L8.5604 4.01777ZM10.7852 7.62354C10.317 7.28341 9.68308 7.28341 9.21493 7.62354L9.47663 7.98375C9.78873 7.757 10.2114 7.757 10.5235 7.98375L10.7852 7.62354ZM12.6525 8.98024L10.7852 7.62354L10.5235 7.98375L12.3908 9.34045L12.6525 8.98024ZM13.1377 10.4736C13.3165 9.92328 13.1206 9.32038 12.6525 8.98024L12.3908 9.34045C12.7029 9.56721 12.8335 9.96914 12.7143 10.336L13.1377 10.4736ZM12.4245 12.6688L13.1377 10.4736L12.7143 10.336L12.001 12.5312L12.4245 12.6688ZM11.1541 13.5918C11.7328 13.5918 12.2456 13.2192 12.4245 12.6688L12.001 12.5312C11.8818 12.8981 11.5399 13.1465 11.1541 13.1465V13.5918ZM8.84597 13.5918L11.1541 13.5918V13.1465L8.84597 13.1465V13.5918ZM7.57562 12.6688C7.75444 13.2192 8.2673 13.5918 8.84597 13.5918V13.1465C8.46019 13.1465 8.11828 12.8981 7.99907 12.5312L7.57562 12.6688ZM6.86236 10.4736L7.57562 12.6688L7.99907 12.5312L7.28581 10.336L6.86236 10.4736ZM7.34759 8.98024C6.87944 9.32038 6.68354 9.92328 6.86236 10.4736L7.28581 10.336C7.1666 9.96914 7.29719 9.5672 7.6093 9.34045L7.34759 8.98024ZM9.21493 7.62354L7.34759 8.98024L7.6093 9.34045L9.47663 7.98375L9.21493 7.62354Z" fill="url(#paint3_angular_5046_151285)" mask="url(#path-4-inside-2_5046_151285)"/>
</g>
<g id="Subtract_3" style="mix-blend-mode:soft-light">
<path fill-rule="evenodd" clip-rule="evenodd" d="M8.94698 0.518799C8.6521 0.623968 8.36871 0.771924 8.10617 0.962667L6.58018 2.07137L2.61523 16.8687L2.77661 17.3654C2.99967 18.0519 3.43065 18.6278 3.98624 19.0325L8.94698 0.518799ZM6.54267 19.6728H11.9471L16.1573 3.96004L12.0318 0.962667C11.9007 0.867418 11.7644 0.782838 11.624 0.708927L9.76909 7.63163C10.09 7.54193 10.4424 7.5991 10.7232 7.80312L12.5906 9.15982C12.9807 9.44327 13.1439 9.94569 12.9949 10.4043L12.2817 12.5995C12.1327 13.0581 11.7053 13.3686 11.223 13.3686H8.9149C8.68395 13.3686 8.46558 13.2974 8.28434 13.1728L6.54267 19.6728Z" fill="white"/>
</g>
</g>
</g>
<defs>
<linearGradient id="paint0_linear_5046_151285" x1="10.0002" y1="-0.463731" x2="10.0002" y2="21.7983" gradientUnits="userSpaceOnUse">
<stop stop-color="#967CFD"/>
<stop offset="1" stop-color="#46279B"/>
</linearGradient>
<radialGradient id="paint1_angular_5046_151285" cx="0" cy="0" r="1" gradientUnits="userSpaceOnUse" gradientTransform="translate(10.0002 10.6673) rotate(90) scale(11.131)">
<stop stop-color="#E1D1FF"/>
<stop offset="0.5" stop-color="white" stop-opacity="0"/>
</radialGradient>
<linearGradient id="paint2_linear_5046_151285" x1="9.99974" y1="3.24659" x2="9.99974" y2="18.0879" gradientUnits="userSpaceOnUse">
<stop stop-color="#46279B"/>
<stop offset="1" stop-color="#967CFD"/>
</linearGradient>
<radialGradient id="paint3_angular_5046_151285" cx="0" cy="0" r="1" gradientUnits="userSpaceOnUse" gradientTransform="translate(9.99979 9.32053) rotate(90.0003) scale(7.98394)">
<stop offset="0.000682215" stop-color="white" stop-opacity="0"/>
<stop offset="0.499227" stop-color="#E1D1FF"/>
</radialGradient>
<clipPath id="clip0_5046_151285">
<rect width="20" height="20" rx="3.33333" fill="white"/>
</clipPath>
</defs>
</svg>
