<svg data-v-8b91cdda="" viewBox="0 0 25 25" fill="currentColor" xmlns="http://www.w3.org/2000/svg"><g clip-path="url(#clip0)"><path d="M23.279 7.1155C23.1575 6.63015 22.9101 6.18545 22.5617 5.82632C22.2134 5.46719 21.7764 5.20635 21.295 5.07015C19.536 4.64063 12.5 4.64062 12.5 4.64062C12.5 4.64062 5.464 4.64063 3.705 5.11106C3.22358 5.24726 2.78662 5.5081 2.43826 5.86723C2.08991 6.22635 1.8425 6.67105 1.72101 7.1564C1.39909 8.94154 1.24162 10.7524 1.25058 12.5664C1.23911 14.3939 1.39659 16.2186 1.72101 18.0172C1.85494 18.4875 2.1079 18.9153 2.45544 19.2592C2.80298 19.6032 3.23337 19.8517 3.705 19.9807C5.464 20.4512 12.5 20.4512 12.5 20.4512C12.5 20.4512 19.536 20.4512 21.295 19.9807C21.7764 19.8445 22.2134 19.5837 22.5617 19.2246C22.9101 18.8654 23.1575 18.4207 23.279 17.9354C23.5984 16.1637 23.7559 14.3666 23.7494 12.5664C23.7609 10.7388 23.6034 8.91407 23.279 7.1155V7.1155Z" stroke="black" stroke-width="1.5" stroke-linecap="round" stroke-linejoin="round"/><path d="M10.1992 15.9109L16.0796 12.5668L10.1992 9.22266V15.9109Z" stroke="black" stroke-width="1.5" stroke-linecap="round" stroke-linejoin="round"/></g><defs><clipPath id="clip0"><rect width="24" height="24" fill="currentColor" transform="translate(0.5 0.890625)"/></clipPath></defs></svg>