<svg xmlns="http://www.w3.org/2000/svg" viewBox="0 0 236 90" fill="none"><mask id="mask0_4609_118504" style="mask-type:alpha" maskUnits="userSpaceOnUse" x="0" y="0" width="236" height="87"><rect width="236" height="87" rx="12" fill="white"/></mask><g mask="url(#mask0_4609_118504)"><ellipse cx="201.5" cy="45.5" rx="51.5" ry="52.5" fill="#FFF0CB"/><path d="M186.999 32.8892L180.878 44.9948L209.968 47.7678L215.598 36.3984L186.999 32.8892Z" fill="#FC9577"/><path d="M200.93 66.6824C200.208 68.1267 198.561 69.7037 196.338 68.7392L176.734 59.0105C174.6 57.9474 175.366 55.7872 176.08 54.3503L194.153 18.1083C194.504 17.4147 195.113 16.8866 195.849 16.6384C196.586 16.3902 197.389 16.4421 198.085 16.7827L217.689 26.5113C218.381 26.86 218.908 27.468 219.154 28.2036C219.399 28.9392 219.345 29.7429 219.003 30.4405L204.836 58.8624" stroke="black" stroke-width="1.4" stroke-linecap="round" stroke-linejoin="round"/><path d="M194.752 68.4021C194.031 69.8464 192.383 71.4233 190.16 70.4588L170.556 60.7302C168.422 59.667 169.188 57.5069 169.903 56.0699L187.975 19.828C188.326 19.1344 188.936 18.6062 189.672 18.3581C190.408 18.1099 191.211 18.1617 191.908 18.5023" stroke="black" stroke-width="1.4" stroke-linecap="round" stroke-linejoin="round"/><path d="M204.753 59.0734L203.203 62.1834C202.845 62.8517 202.238 63.352 201.514 63.5756C200.79 63.7991 200.008 63.7277 199.338 63.3768L181.079 54.3112C180.905 54.2217 180.715 54.1679 180.519 54.1528C180.324 54.1378 180.128 54.1618 179.942 54.2235C179.756 54.2852 179.583 54.3834 179.436 54.5122C179.288 54.6411 179.167 54.7981 179.08 54.9741C178.987 55.1491 178.93 55.3409 178.913 55.538C178.896 55.7352 178.918 55.9337 178.979 56.1217C179.04 56.3098 179.138 56.4835 179.268 56.6326C179.398 56.7816 179.556 56.9029 179.734 56.9893L196.424 65.2988" stroke="black" stroke-width="1.4" stroke-linecap="round" stroke-linejoin="round"/><path d="M219.5 46.0278L221.399 48.653" stroke="black" stroke-width="1.4" stroke-miterlimit="10" stroke-linecap="round"/><path d="M221.088 39.2564L223.496 38.0361" stroke="black" stroke-width="1.4" stroke-miterlimit="10" stroke-linecap="round"/><path d="M222.024 43.11L226.412 44.2152" stroke="black" stroke-width="1.4" stroke-miterlimit="10" stroke-linecap="round"/></g></svg>