<svg xmlns="http://www.w3.org/2000/svg" xmlns:xlink="http://www.w3.org/1999/xlink" fill="none" viewBox="0 0 238 94"><filter id="a" color-interpolation-filters="sRGB" filterUnits="userSpaceOnUse" height="93" width="237" x=".5" y=".5"><feFlood flood-opacity="0" result="BackgroundImageFix"/><feColorMatrix in="SourceAlpha" result="hardAlpha" type="matrix" values="0 0 0 0 0 0 0 0 0 0 0 0 0 0 0 0 0 0 127 0"/><feOffset dy="2"/><feColorMatrix type="matrix" values="0 0 0 0 0.92549 0 0 0 0 0.917647 0 0 0 0 0.917647 0 0 0 1 0"/><feBlend in2="BackgroundImageFix" mode="normal" result="effect1_dropShadow_4940_124638"/><feBlend in="SourceGraphic" in2="effect1_dropShadow_4940_124638" mode="normal" result="shape"/></filter><mask id="b" height="87" maskUnits="userSpaceOnUse" width="236" x="1" y="1"><rect fill="#fff" height="87" rx="12" width="236" x="1" y="1"/></mask><g filter="url(#a)"><rect fill="#fff" height="90" rx="12" width="236" x="1" y="1"/><rect height="90" rx="12" stroke="#eceaea" width="236" x="1" y="1"/></g><g mask="url(#b)"><ellipse cx="207.5" cy="46.5" fill="#e8dfff" rx="51.5" ry="52.5"/><path d="m174.932 35.23-3.082 26.9823c-.045.3894-.01.784.101 1.1611.111.3772.297.7295.546 1.0369.25.3074.559.5638.909.7547.351.1908.735.3122 1.133.3574l44.92 5.1316c.397.0456.799.0141 1.184-.0928.384-.107.742-.2872 1.055-.5304.312-.2432.573-.5446.766-.887s.315-.719.359-1.1084l3.082-26.9823" fill="#c1a1ff"/><path d="m211.645 34.0431 6.89.0705c.671.0069 1.333.1546 1.943.4335s1.154.6828 1.598 1.1856.777 1.0932.979 1.733c.201.6398.266 1.3148.189 1.9811l-2.62 22.935c-.138 1.2084-.73 2.3191-1.657 3.1067-.927.7875-2.119 1.193-3.333 1.134l-18.295-.8892-18.024-3.2597c-1.196-.2166-2.266-.8804-2.991-1.8567-.726-.9763-1.052-2.192-.914-3.4004l2.615-22.8945c.077-.6695.293-1.3153.636-1.8953.344-.58.805-1.081 1.355-1.4704s1.176-.6584 1.837-.7893c.661-.131 1.342-.121 1.999.0294l7.008 1.603" fill="#fff"/><path d="m211.645 34.0431 6.89.0705c.671.0069 1.333.1546 1.943.4335s1.154.6828 1.598 1.1856.777 1.0932.979 1.733c.201.6398.266 1.3148.189 1.9811l-2.62 22.935c-.138 1.2084-.73 2.3191-1.657 3.1067-.927.7875-2.119 1.193-3.333 1.134l-18.295-.8892-18.024-3.2597c-1.196-.2166-2.266-.8804-2.991-1.8567-.726-.9763-1.052-2.192-.914-3.4004l2.615-22.8945c.077-.6695.293-1.3153.636-1.8953.344-.58.805-1.081 1.355-1.4704s1.176-.6584 1.837-.7893c.661-.131 1.342-.121 1.999.0294l7.008 1.603" stroke="#000" stroke-linecap="round" stroke-miterlimit="10" stroke-width="1.5"/><path d="m210.55 31.9752c.532-4.6583-3.114-8.9056-8.161-9.5231-4.974-.621-9.58 2.5742-10.268 7.1307-.175 1.1995-.08 2.4228.276 3.5813.357 1.1584.967 2.2231 1.786 3.1169.669.7439 1.174 1.6213 1.479 2.5743.306.953.406 1.9601.294 2.9547-.124 1.0851.739 2.0759 1.913 2.21l3.662.4183c1.284.1467 2.436-.6979 2.571-1.8735.22-1.9273 1.333-3.6531 2.991-4.8382.949-.6606 1.748-1.5146 2.344-2.5059.595-.9912.975-2.0973 1.113-3.2455z" fill="#ffda49"/><g stroke="#000" stroke-width="1.5"><g stroke-miterlimit="10"><g stroke-linecap="round"><path d="m181.969 36.4946 11.535 2.1202"/><path d="m181.417 41.3302 11.535 2.1183"/><path d="m180.881 46.0193 11.535 2.1203"/><path d="m180.31 51.013 11.535 2.1202"/><path d="m179.785 55.6116 11.535 2.1202"/><path d="m219.077 40.7338-11.716-.5359"/><path d="m218.525 45.5694-11.716-.5379"/><path d="m217.989 50.2586-11.716-.536"/><path d="m217.419 55.2522-11.716-.5359"/><path d="m216.893 59.8508-11.716-.536"/></g><path d="m202.787 16.0134-.562 4.9146"/><path d="m202.787 16.0134-.562 4.9146" stroke-linecap="round"/><path d="m194.554 17.2851 1.973 4.5384" stroke-linecap="round"/><path d="m188.064 22.5045 3.974 2.9434" stroke-linecap="round"/><path d="m216.133 25.5606-4.539 1.971" stroke-linecap="round"/><path d="m210.551 19.0266-2.944 3.9767" stroke-linecap="round"/></g><path d="m198.427 42.0281-1.11-7.5925c-.116-.7907.803-1.3084 1.419-.7997.34.28.834.264 1.155-.0374l.138-.1304c.471-.4424 1.22-.3808 1.612.1324l.277.3623c.216.2828.614.3501.911.1538.534-.3535 1.215.1655 1.016.7748l-2.447 7.4762" stroke-linecap="round"/><path d="m195.696 43.1792c.063-.5487.559-.9427 1.107-.88l6.328.7228c.548.0627.942.5583.88 1.107l-.434 3.7997c-.095.826-.513 1.5807-1.164 2.0981s-1.481.755-2.307.6606l-2.095-.2393c-.824-.0967-1.576-.5162-2.091-1.1665s-.752-1.4784-.658-2.3027z" fill="#fff" stroke-miterlimit="10"/></g></g></svg>