<svg xmlns="http://www.w3.org/2000/svg" viewBox="0 0 236 90" fill="none"><mask id="mask0_4609_118451" style="mask-type:alpha" maskUnits="userSpaceOnUse" x="0" y="0" width="236" height="87"><rect width="236" height="87" rx="12" fill="white"/></mask><g mask="url(#mask0_4609_118451)"><ellipse cx="206.5" cy="45.5" rx="51.5" ry="52.5" fill="#FFF0E9"/><path d="M188.999 35.8892L182.878 47.9948L211.968 50.7678L217.598 39.3984L188.999 35.8892Z" fill="#FC9577"/><path d="M202.93 69.6824C202.208 71.1267 200.561 72.7037 198.338 71.7392L178.734 62.0105C176.6 60.9474 177.366 58.7872 178.08 57.3503L196.153 21.1083C196.504 20.4147 197.113 19.8866 197.85 19.6384C198.586 19.3902 199.389 19.4421 200.085 19.7827L219.689 29.5113C220.382 29.86 220.908 30.468 221.154 31.2036C221.399 31.9392 221.345 32.7429 221.003 33.4405L206.837 61.8624" stroke="black" stroke-width="1.4" stroke-linecap="round" stroke-linejoin="round"/><path d="M196.752 71.4021C196.031 72.8464 194.384 74.4233 192.16 73.4588L172.557 63.7302C170.423 62.667 171.188 60.5069 171.903 59.0699L189.976 22.828C190.326 22.1344 190.936 21.6062 191.672 21.3581C192.408 21.1099 193.211 21.1617 193.908 21.5023" stroke="black" stroke-width="1.4" stroke-linecap="round" stroke-linejoin="round"/><path d="M206.753 62.0734L205.204 65.1834C204.845 65.8517 204.238 66.352 203.514 66.5756C202.79 66.7991 202.008 66.7277 201.338 66.3768L183.079 57.3112C182.905 57.2217 182.715 57.1679 182.52 57.1528C182.324 57.1378 182.128 57.1618 181.942 57.2235C181.756 57.2852 181.584 57.3834 181.436 57.5122C181.288 57.6411 181.167 57.7981 181.08 57.9741C180.987 58.1491 180.93 58.3409 180.913 58.538C180.896 58.7352 180.918 58.9337 180.979 59.1217C181.04 59.3098 181.139 59.4835 181.268 59.6326C181.398 59.7816 181.556 59.9029 181.734 59.9893L198.424 68.2988" stroke="black" stroke-width="1.4" stroke-linecap="round" stroke-linejoin="round"/><path d="M221.5 49.0278L223.399 51.653" stroke="black" stroke-width="1.4" stroke-miterlimit="10" stroke-linecap="round"/><path d="M223.088 42.2564L225.496 41.0361" stroke="black" stroke-width="1.4" stroke-miterlimit="10" stroke-linecap="round"/><path d="M224.024 46.11L228.412 47.2152" stroke="black" stroke-width="1.4" stroke-miterlimit="10" stroke-linecap="round"/></g></svg>