<svg xmlns="http://www.w3.org/2000/svg" xmlns:xlink="http://www.w3.org/1999/xlink" fill="none" viewBox="0 0 236 90"><mask id="a" height="87" maskUnits="userSpaceOnUse" width="236" x="0" y="0"><rect fill="#fff" height="87" rx="12" width="236"/></mask><g mask="url(#a)"><ellipse cx="207.5" cy="45.5" fill="#f0eaff" rx="51.5" ry="52.5"/><path d="m221.897 39.7807-14.325 30.7205c-.212.4544-.515.8611-.891 1.1969s-.818.5941-1.301.7602c-.483.166-.997.2366-1.513.2076s-1.025-.157-1.496-.3766l-22.974-10.7131c-.471-.2197-.895-.5266-1.25-.9035-.354-.3768-.63-.8161-.813-1.2927s-.27-.9813-.254-1.4852c.015-.5039.132-.9972.344-1.4516l16.963-36.3777c.428-.9178 1.217-1.6218 2.192-1.9571.975-.3354 2.057-.2745 3.009.169l14.472 6.7484" stroke="#231f20" stroke-linecap="round" stroke-miterlimit="10" stroke-width="1.5"/><path d="m181.78 47.1016 4.548-9.752" stroke="#231f20" stroke-linecap="round" stroke-miterlimit="10" stroke-width="1.5"/><path d="m221.409 33.2678-6.482-.2577c-.376-.0159-.524-.4937-.232-.7664l3.623-3.5403c.066-.0648.112-.1463.134-.2359.022-.0895.019-.1839-.009-.2733l-1.616-4.6602c-.029-.0846-.033-.1745-.012-.2599.02-.0854.065-.1631.128-.2244.063-.0614.143-.1041.23-.1235.088-.0194.18-.0148.266.0133l4.761 2.2202c.068.0301.141.0429.214.0371.073-.0059.143-.0301.202-.0704l4.57-3.0243c.061-.0438.133-.0694.208-.0739.076-.0045.152.0123.219.0485.068.0362.124.0902.161.1556.038.0655.056.1396.052.2136l.032 5.4598c-.003.0712.014.1424.048.2062.034.0639.085.1182.147.1574l4.525 2.6776c.071.0553.125.1284.157.2111.032.0826.041.1718.025.2575-.017.0857-.057.1648-.117.2284-.06.0637-.137.1095-.223.1324l-4.814 1.2755c-.081.0245-.153.0678-.213.1262-.059.0585-.102.1304-.126.2097l-1.321 4.8403c-.009.0849-.044.1647-.1.2291s-.13.1105-.215.1322c-.084.0218-.173.0183-.257-.0099-.083-.0283-.157-.0801-.211-.1488l-3.428-5.0049c-.038-.049-.088-.0887-.145-.1161-.056-.0275-.118-.0418-.181-.0418z" fill="#ffda49"/><path d="m195.517 51.2022c-.093-.1285-.17-.2674-.228-.4135-.071-.1643-.125-.3341-.164-.5072-.022-.1445-.032-.2901-.031-.4354.008-.1543.045-.305.109-.4446.078-.1668.19-.4068.345-.7404.282-.5976.644-1.1548 1.075-1.6583.634-.7125 1.309-1.3898 2.022-2.0288.454-.4329.933-.8414 1.433-1.2236.535-.3865 1.098-.7344 1.686-1.0414.681-.3663 1.648-.8465 2.902-1.4404.584-.2753 1.135-.6114 1.642-1.0025.362-.2519.662-.5785.878-.9576l.03-.0651c.077-.1238.11-.2695.095-.4161-.056-.128-.154-.2361-.277-.3077-.113-.0788-.232-.1477-.356-.2058-.633-.2603-1.301-.4197-1.979-.4718-1.119-.1245-2.245-.1172-3.352.0218-.591.086-1.172.2154-1.74.3873-.354.0754-.687.2179-.98.4195-.104.2238-.396.37-.873.4348-.237.0172-.477-.0248-.697-.1218-.273-.1337-.49-.3583-.61-.6312-.098-.1956-.149-.4084-.15-.6226-.001-.2141.048-.4238.144-.6133.061-.1245.13-.2443.209-.3584.783-.8102 2.117-1.39 4.002-1.7394 1.802-.3437 3.668-.3414 5.496.007.695.1622 1.374.3957 2.024.6963l.265.1234c.599.2741 1.138.6652 1.58 1.1479.918 1.2108 1.231 2.1821.938 2.914-.292.7258-.454 1.1303-.49 1.2076-.595 1.2747-1.762 2.436-3.501 3.4838-.223.1437-.64.3701-1.252.6791-.614.3131-1.283.6449-2.025.9975-.962.4592-1.71.8437-2.242 1.1534-.495.2893-.968.6114-1.416.9641-1.104.8521-1.755 1.5342-1.992 2.0428-.052.1022-.083.2139-.091.329-.012.1127-.042.2224-.09.3249-.068.1375-.161.2616-.275.367-.202.1896-.463.312-.745.3507-.246.034-.5-.0049-.728-.1115-.234-.1167-.437-.2862-.591-.4935zm-2.246 5.6536c-.146-.2015-.239-.4335-.27-.6747s.001-.4839.092-.7057c.02-.0584.046-.1143.078-.1668.178-.2336.413-.4201.685-.544.272-.124.574-.1816.879-.1681.344-.0386.696.0471.989.2411s.506.4827.599.8115c.092.1804.144.3765.152.575.008.1986-.029.3948-.107.5755-.111.2267-.277.4225-.484.5713-.153.1307-.333.2288-.528.2883-.196.0594-.404.0791-.611.0576-.245-.0413-.485-.1086-.717-.2007-.301-.153-.557-.3787-.745-.6544z" fill="#c1a1ff"/><path d="m200.632 75.2503-.774 1.6603-27.146-12.6582c-1.216-.5938-2.155-1.6271-2.613-2.8745s-.397-2.6078.169-3.7843l18.672-40.0434 3.49 1.6271" stroke="#000" stroke-linecap="round" stroke-linejoin="round" stroke-width="1.5"/></g></svg>