<svg xmlns="http://www.w3.org/2000/svg" viewBox="0 0 236 90" fill="none"><mask id="mask0_4610_151940" style="mask-type:alpha" maskUnits="userSpaceOnUse" x="0" y="0" width="236" height="87"><rect width="236" height="87" rx="12" fill="white"/></mask><g mask="url(#mask0_4610_151940)"><ellipse cx="201.5" cy="45.5" rx="51.5" ry="52.5" fill="#FFF0E9"/><path d="M177.884 38.8254L171.502 57.3143C170.946 58.9259 171.052 60.6922 171.798 62.2253C172.544 63.7584 173.867 64.9328 175.478 65.4904L201.638 74.5227C202.74 74.901 203.946 74.8285 204.995 74.3211C206.044 73.8137 206.849 72.9125 207.237 71.8138L217.53 41.9979C217.896 40.9432 217.843 39.788 217.381 38.7715C216.174 36.1246 213.742 30.7704 212.411 27.8339C212.167 27.2966 211.816 26.8145 211.379 26.4171C210.943 26.0197 210.43 25.7153 209.872 25.5223L206.278 24.2831L189.238 19.0008C188.145 18.66 186.962 18.7586 185.941 19.2755C184.92 19.7925 184.14 20.6871 183.767 21.7695L177.884 38.8254Z" stroke="#231F20" stroke-width="1.5" stroke-miterlimit="10" stroke-linecap="round"/><path d="M217.443 40.9406L211.063 38.7599C210.03 38.4381 209.166 37.7206 208.661 36.764C208.155 35.8075 208.048 34.6896 208.364 33.6546L210.778 26.6428" stroke="#231F20" stroke-width="1.5" stroke-miterlimit="10" stroke-linecap="round"/><path d="M180.548 25.1157L184.649 26.4916" stroke="#231F20" stroke-width="1.5" stroke-miterlimit="10" stroke-linecap="round"/><path d="M175.93 38.5266L180.026 39.8967" stroke="#231F20" stroke-width="1.5" stroke-miterlimit="10" stroke-linecap="round"/><path d="M171.344 51.635L175.445 53.0109" stroke="#231F20" stroke-width="1.5" stroke-miterlimit="10" stroke-linecap="round"/><path d="M220.974 34.4363L224.385 35.3217" stroke="#231F20" stroke-width="1.5" stroke-miterlimit="10" stroke-linecap="round"/><path d="M217.635 27.6777L218.808 24.9987" stroke="#231F20" stroke-width="1.5" stroke-miterlimit="10" stroke-linecap="round"/><path d="M221.077 30.258L225.528 28.1633" stroke="#231F20" stroke-width="1.5" stroke-miterlimit="10" stroke-linecap="round"/><path d="M190.677 55.9772C188.608 55.1806 186.918 53.6289 185.948 51.6353C184.974 49.6354 184.656 47.3793 185.04 45.1882C185.424 42.9381 186.549 40.8808 188.236 39.3425C189.099 38.5537 190.109 37.9425 191.208 37.5441C192.328 37.1351 193.537 37.0352 194.708 37.255C195.018 37.3193 195.289 37.5041 195.463 37.7686C195.636 38.033 195.698 38.3556 195.633 38.6652C195.586 38.918 195.458 39.1485 195.268 39.3221C195.078 39.4957 194.837 39.6029 194.581 39.6278L194.522 39.6225C193.695 39.6723 192.876 39.8177 192.083 40.0556C191.282 40.3085 190.534 40.7076 189.878 41.2328C188.509 42.3513 187.551 43.8931 187.153 45.6158C186.71 47.3839 186.835 49.2468 187.51 50.9398C188.189 52.6634 189.476 54.0785 191.128 54.9174C191.264 54.9851 191.368 55.1038 191.416 55.2477C191.465 55.3916 191.455 55.5489 191.388 55.6852C191.326 55.8132 191.22 55.9138 191.088 55.9677C190.957 56.0216 190.81 56.025 190.677 55.9772Z" fill="#FC9577"/><path d="M192.899 36.5632L195.23 37.8142C195.279 37.845 195.322 37.8862 195.354 37.935C195.386 37.9837 195.407 38.0389 195.416 38.0966C195.424 38.1543 195.42 38.2133 195.404 38.2693C195.388 38.3253 195.359 38.3771 195.321 38.4211L193.517 40.4866" stroke="#FC9577" stroke-width="1.5" stroke-miterlimit="10" stroke-linecap="round"/><path d="M199.805 38.4038C201.901 39.1212 203.633 40.633 204.626 42.6138C205.644 44.6131 206.006 46.8824 205.661 49.0992C205.315 51.3863 204.197 53.4861 202.493 55.0499C201.614 55.8469 200.585 56.4604 199.466 56.8543C198.897 57.0505 198.31 57.1875 197.713 57.263C197.41 57.2842 197.104 57.2567 196.809 57.1816C196.497 57.0873 196.208 56.9291 195.961 56.7168C195.766 56.537 195.651 56.2875 195.639 56.0228C195.628 55.758 195.721 55.4995 195.899 55.3034L195.964 55.2391L196.105 55.1115C196.301 54.9334 196.527 54.7929 196.774 54.697C196.964 54.6014 197.168 54.5378 197.379 54.5087C197.581 54.4837 197.779 54.4368 197.981 54.4065C198.184 54.3762 198.375 54.2909 198.574 54.2386C199.367 53.9739 200.104 53.5648 200.748 53.0319C202.104 51.9079 203.061 50.3766 203.477 48.6653C203.928 46.8921 203.802 45.0212 203.116 43.3248C202.403 41.5984 201.098 40.1824 199.436 39.3307C199.319 39.2645 199.231 39.1571 199.19 39.0296C199.149 38.9021 199.156 38.7638 199.212 38.6417C199.272 38.5437 199.362 38.4678 199.469 38.4249C199.576 38.3821 199.694 38.3747 199.805 38.4038Z" fill="#FC9577"/><path d="M197.922 57.7027L195.591 56.4517C195.542 56.4209 195.499 56.3797 195.467 56.3309C195.435 56.2822 195.414 56.227 195.405 56.1693C195.397 56.1116 195.401 56.0526 195.417 55.9966C195.433 55.9406 195.462 55.8888 195.5 55.8448L197.304 53.7793" stroke="#FC9577" stroke-width="1.5" stroke-miterlimit="10" stroke-linecap="round"/></g></svg>