<svg xmlns="http://www.w3.org/2000/svg" viewBox="0 0 236 90" fill="none"><mask id="mask0_4609_118485" style="mask-type:alpha" maskUnits="userSpaceOnUse" x="0" y="0" width="236" height="87"><rect width="236" height="87" rx="12" fill="white"/></mask><g mask="url(#mask0_4609_118485)"><ellipse cx="201.5" cy="45.5" rx="51.5" ry="52.5" fill="#D6FFE1" fill-opacity="0.6"/><path d="M170.35 59.2004C169.842 58.6558 169.508 57.9715 169.392 57.2357C169.276 56.4999 169.382 55.7461 169.698 55.0713L186.282 19.5054C186.701 18.608 187.459 17.9136 188.389 17.575C189.32 17.2363 190.346 17.2812 191.244 17.6996L212.918 27.8064C213.583 28.1167 214.143 28.6164 214.526 29.243C214.909 29.8696 215.098 30.5952 215.071 31.329" stroke="#231F20" stroke-width="1.5" stroke-miterlimit="10" stroke-linecap="round"/><path d="M215.415 34.6791L193.746 24.5746C191.878 23.7032 189.656 24.5117 188.785 26.3804L172.2 61.9463C171.329 63.815 172.137 66.0363 174.006 66.9076L195.675 77.0122C197.544 77.8835 199.765 77.0751 200.637 75.2064L217.221 39.6404C218.093 37.7718 217.284 35.5505 215.415 34.6791Z" stroke="#231F20" stroke-width="1.5" stroke-miterlimit="10" stroke-linecap="round"/><path d="M197.26 31.8036L193.77 30.1762C192.588 29.6248 191.182 30.1364 190.63 31.319L189.003 34.8089C188.452 35.9915 188.963 37.3973 190.146 37.9487L193.636 39.5761C194.818 40.1275 196.224 39.6159 196.776 38.4333L198.403 34.9434C198.954 33.7608 198.443 32.3551 197.26 31.8036Z" fill="#2CE7A4"/><path d="M191.47 44.2213L187.98 42.594C186.797 42.0425 185.391 42.5542 184.84 43.7368L183.213 47.2267C182.661 48.4093 183.173 49.815 184.355 50.3665L187.845 51.9938C189.028 52.5453 190.434 52.0336 190.985 50.851L192.612 47.3611C193.164 46.1785 192.652 44.7728 191.47 44.2213Z" fill="#FFDA49"/><path d="M185.756 56.4745L182.266 54.8471C181.083 54.2957 179.678 54.8073 179.126 55.9899L177.499 59.4798C176.947 60.6624 177.459 62.0682 178.642 62.6196L182.131 64.247C183.314 64.7984 184.72 64.2868 185.271 63.1042L186.899 59.6143C187.45 58.4317 186.938 57.026 185.756 56.4745Z" fill="#C1A1FF"/><path d="M200.727 37.8984L209.804 42.1314" stroke="#231F20" stroke-width="1.5" stroke-miterlimit="10" stroke-linecap="round"/><path d="M194.938 50.3113L204.016 54.5442" stroke="#231F20" stroke-width="1.5" stroke-miterlimit="10" stroke-linecap="round"/><path d="M189.195 62.6272L198.273 66.8601" stroke="#231F20" stroke-width="1.5" stroke-miterlimit="10" stroke-linecap="round"/><path d="M221.142 36.985L223.346 38.0009" stroke="#231F20" stroke-width="1.5" stroke-miterlimit="10" stroke-linecap="round"/><path d="M219.102 28.666L220.595 26.8142" stroke="#231F20" stroke-width="1.5" stroke-miterlimit="10" stroke-linecap="round"/><path d="M221.676 32.4847L227.16 31.3757" stroke="#231F20" stroke-width="1.5" stroke-miterlimit="10" stroke-linecap="round"/></g></svg>