<svg width="238" height="120" xmlns="http://www.w3.org/2000/svg" fill="none">
 <filter y="0.5" x="0.5" width="237" height="93" filterUnits="userSpaceOnUse" color-interpolation-filters="sRGB" id="a"/>

 <mask y="1" x="1" width="236" maskUnits="userSpaceOnUse" height="87" id="b">
  <rect id="svg_1" y="1" x="1" width="236" rx="12" height="87" fill="#fff"/>
 </mask>
 <g>
  <title>Layer 1</title>
  <ellipse id="svg_6" ry="52.5" rx="51.5" fill="#e8dfff" cy="57.5" cx="122.5"/>
  <path id="svg_7" fill="#c1a1ff" d="m89.932,46.23l-3.082,26.9823c-0.045,0.3894 -0.01,0.784 0.101,1.1611c0.111,0.3772 0.297,0.7295 0.546,1.0369c0.25,0.3074 0.559,0.5638 0.909,0.7547c0.351,0.1908 0.735,0.3122 1.133,0.3574l44.92,5.1316c0.397,0.0456 0.799,0.0141 1.184,-0.0928c0.384,-0.107 0.742,-0.2872 1.055,-0.5304c0.312,-0.2432 0.573,-0.5446 0.766,-0.887s0.315,-0.719 0.359,-1.1084l3.082,-26.9823"/>
  <path id="svg_8" fill="#fff" d="m126.645,45.0431l6.89,0.0705c0.671,0.0069 1.333,0.1546 1.943,0.4335s1.154,0.6828 1.598,1.1856s0.777,1.0932 0.979,1.733c0.201,0.6398 0.266,1.3148 0.189,1.9811l-2.62,22.935c-0.138,1.2084 -0.73,2.3191 -1.657,3.1067c-0.927,0.7875 -2.119,1.193 -3.333,1.134l-18.295,-0.8892l-18.024,-3.2597c-1.196,-0.2166 -2.266,-0.8804 -2.991,-1.8567c-0.726,-0.9763 -1.052,-2.192 -0.914,-3.4004l2.615,-22.8945c0.077,-0.6695 0.293,-1.3153 0.636,-1.8953c0.344,-0.58 0.805,-1.081 1.355,-1.4704s1.176,-0.6584 1.837,-0.7893c0.661,-0.131 1.342,-0.121 1.999,0.0294l7.008,1.603"/>
  <path id="svg_9" stroke-width="1.5" stroke-miterlimit="10" stroke-linecap="round" stroke="#000" d="m126.645,45.0431l6.89,0.0705c0.671,0.0069 1.333,0.1546 1.943,0.4335s1.154,0.6828 1.598,1.1856s0.777,1.0932 0.979,1.733c0.201,0.6398 0.266,1.3148 0.189,1.9811l-2.62,22.935c-0.138,1.2084 -0.73,2.3191 -1.657,3.1067c-0.927,0.7875 -2.119,1.193 -3.333,1.134l-18.295,-0.8892l-18.024,-3.2597c-1.196,-0.2166 -2.266,-0.8804 -2.991,-1.8567c-0.726,-0.9763 -1.052,-2.192 -0.914,-3.4004l2.615,-22.8945c0.077,-0.6695 0.293,-1.3153 0.636,-1.8953c0.344,-0.58 0.805,-1.081 1.355,-1.4704s1.176,-0.6584 1.837,-0.7893c0.661,-0.131 1.342,-0.121 1.999,0.0294l7.008,1.603"/>
  <path id="svg_10" fill="#ffda49" d="m125.55,42.9752c0.532,-4.6583 -3.114,-8.9056 -8.161,-9.5231c-4.974,-0.621 -9.58,2.5742 -10.268,7.1307c-0.175,1.1995 -0.08,2.4228 0.276,3.5813c0.357,1.1584 0.967,2.2231 1.786,3.1169c0.669,0.7439 1.174,1.6213 1.479,2.5743c0.306,0.953 0.406,1.9601 0.294,2.9547c-0.124,1.0851 0.739,2.0759 1.913,2.21l3.662,0.4183c1.284,0.1467 2.436,-0.6979 2.571,-1.8735c0.22,-1.9273 1.333,-3.6531 2.991,-4.8382c0.949,-0.6606 1.748,-1.5146 2.344,-2.5059c0.595,-0.9912 0.975,-2.0973 1.113,-3.2455z"/>
  <g id="svg_11" stroke-width="1.5" stroke="#000">
   <g id="svg_12" stroke-miterlimit="10">
    <g id="svg_13" stroke-linecap="round">
     <path id="svg_14" d="m96.969,47.4946l11.535,2.1202"/>
     <path id="svg_15" d="m96.417,52.3302l11.535,2.1183"/>
     <path id="svg_16" d="m95.881,57.0193l11.535,2.1203"/>
     <path id="svg_17" d="m95.31,62.013l11.535,2.1202"/>
     <path id="svg_18" d="m94.785,66.6116l11.535,2.1202"/>
     <path id="svg_19" d="m134.077,51.7338l-11.716,-0.5359"/>
     <path id="svg_20" d="m133.525,56.5694l-11.716,-0.5379"/>
     <path id="svg_21" d="m132.989,61.2586l-11.716,-0.536"/>
     <path id="svg_22" d="m132.419,66.2522l-11.716,-0.5359"/>
     <path id="svg_23" d="m131.893,70.8508l-11.716,-0.536"/>
    </g>
    <path id="svg_24" d="m117.787,27.0134l-0.562,4.9146"/>
    <path id="svg_25" stroke-linecap="round" d="m117.787,27.0134l-0.562,4.9146"/>
    <path id="svg_26" stroke-linecap="round" d="m109.554,28.2851l1.973,4.5384"/>
    <path id="svg_27" stroke-linecap="round" d="m103.064,33.5045l3.974,2.9434"/>
    <path id="svg_28" stroke-linecap="round" d="m131.133,36.5606l-4.539,1.971"/>
    <path id="svg_29" stroke-linecap="round" d="m125.551,30.0266l-2.944,3.9767"/>
   </g>
   <path id="svg_30" stroke-linecap="round" d="m113.427,53.0281l-1.11,-7.5925c-0.116,-0.7907 0.803,-1.3084 1.419,-0.7997c0.34,0.28 0.834,0.264 1.155,-0.0374l0.138,-0.1304c0.471,-0.4424 1.22,-0.3808 1.612,0.1324l0.277,0.3623c0.216,0.2828 0.614,0.3501 0.911,0.1538c0.534,-0.3535 1.215,0.1655 1.016,0.7748l-2.447,7.4762"/>
   <path id="svg_31" stroke-miterlimit="10" fill="#fff" d="m110.696,54.1792c0.063,-0.5487 0.559,-0.9427 1.107,-0.88l6.328,0.7228c0.548,0.0627 0.942,0.5583 0.88,1.107l-0.434,3.7997c-0.095,0.826 -0.513,1.5807 -1.164,2.0981s-1.481,0.755 -2.307,0.6606l-2.095,-0.2393c-0.824,-0.0967 -1.576,-0.5162 -2.091,-1.1665s-0.752,-1.4784 -0.658,-2.3027l0.434,-3.7997z"/>
  </g>
 </g>
</svg>