<svg width="236" height="120" xmlns="http://www.w3.org/2000/svg" fill="none">
 <mask height="87" width="236" y="0" x="0" maskUnits="userSpaceOnUse" id="mask0_4609_118485">
  <rect id="svg_1" fill="white" rx="12" height="87" width="236"/>
 </mask>

 <g>
  <title>Layer 1</title>
  <ellipse id="svg_3" fill-opacity="0.6" fill="#D6FFE1" ry="52.5" rx="51.5" cy="54.5" cx="121.5"/>
  <path id="svg_4" stroke-linecap="round" stroke-miterlimit="10" stroke-width="1.5" stroke="#231F20" d="m90.35,68.2004c-0.508,-0.5446 -0.842,-1.2289 -0.958,-1.9647c-0.116,-0.7358 -0.01,-1.4896 0.306,-2.1644l16.584,-35.5659c0.419,-0.8974 1.177,-1.5918 2.107,-1.9304c0.931,-0.3387 1.957,-0.2938 2.855,0.1246l21.674,10.1068c0.665,0.3103 1.225,0.81 1.608,1.4366c0.383,0.6266 0.572,1.3522 0.545,2.086"/>
  <path id="svg_5" stroke-linecap="round" stroke-miterlimit="10" stroke-width="1.5" stroke="#231F20" d="m135.415,43.6791l-21.669,-10.1045c-1.868,-0.8714 -4.09,-0.0629 -4.961,1.8058l-16.585,35.5659c-0.871,1.8687 -0.063,4.09 1.806,4.9613l21.669,10.1046c1.869,0.8713 4.09,0.0629 4.962,-1.8058l16.584,-35.566c0.872,-1.8686 0.063,-4.0899 -1.806,-4.9613z"/>
  <path id="svg_6" fill="#2CE7A4" d="m117.26,40.8036l-3.49,-1.6274c-1.182,-0.5514 -2.588,-0.0398 -3.14,1.1428l-1.627,3.4899c-0.551,1.1826 -0.04,2.5884 1.143,3.1398l3.49,1.6274c1.182,0.5514 2.588,0.0398 3.14,-1.1428l1.627,-3.4899c0.551,-1.1826 0.04,-2.5883 -1.143,-3.1398z"/>
  <path id="svg_7" fill="#FFDA49" d="m111.47,53.2213l-3.49,-1.6273c-1.183,-0.5515 -2.589,-0.0398 -3.14,1.1428l-1.627,3.4899c-0.552,1.1826 -0.04,2.5883 1.142,3.1398l3.49,1.6273c1.183,0.5515 2.589,0.0398 3.14,-1.1428l1.627,-3.4899c0.552,-1.1826 0.04,-2.5883 -1.142,-3.1398z"/>
  <path id="svg_8" fill="#C1A1FF" d="m105.756,65.4745l-3.49,-1.6274c-1.183,-0.5514 -2.588,-0.0398 -3.14,1.1428l-1.627,3.4899c-0.552,1.1826 -0.04,2.5884 1.143,3.1398l3.489,1.6274c1.183,0.5514 2.589,0.0398 3.14,-1.1428l1.628,-3.4899c0.551,-1.1826 0.039,-2.5883 -1.143,-3.1398z"/>
  <path id="svg_9" stroke-linecap="round" stroke-miterlimit="10" stroke-width="1.5" stroke="#231F20" d="m120.727,46.8984l9.077,4.233"/>
  <path id="svg_10" stroke-linecap="round" stroke-miterlimit="10" stroke-width="1.5" stroke="#231F20" d="m114.938,59.3113l9.078,4.2329"/>
  <path id="svg_11" stroke-linecap="round" stroke-miterlimit="10" stroke-width="1.5" stroke="#231F20" d="m109.195,71.6272l9.078,4.2329"/>
  <path id="svg_12" stroke-linecap="round" stroke-miterlimit="10" stroke-width="1.5" stroke="#231F20" d="m141.142,45.985l2.204,1.0159"/>
  <path id="svg_13" stroke-linecap="round" stroke-miterlimit="10" stroke-width="1.5" stroke="#231F20" d="m139.102,37.666l1.493,-1.8518"/>
  <path id="svg_14" stroke-linecap="round" stroke-miterlimit="10" stroke-width="1.5" stroke="#231F20" d="m141.676,41.4847l5.484,-1.109"/>
 </g>
</svg>