<svg width="236" height="120" xmlns="http://www.w3.org/2000/svg" fill="none">
 <mask y="0" x="0" width="236" maskUnits="userSpaceOnUse" height="87" id="a">
  <rect id="svg_1" width="236" rx="12" height="87" fill="#fff"/>
 </mask>

 <g>
  <title>Layer 1</title>
  <ellipse id="svg_3" ry="52.5" rx="51.5" fill="#f0eaff" cy="60.5" cx="119.5"/>
  <path id="svg_4" stroke-width="1.5" stroke-miterlimit="10" stroke-linecap="round" stroke="#231f20" d="m143.897,53.7807l-14.325,30.7205c-0.212,0.4544 -0.515,0.8611 -0.891,1.1969s-0.818,0.5941 -1.301,0.7602c-0.483,0.166 -0.997,0.2366 -1.513,0.2076s-1.025,-0.157 -1.496,-0.3766l-22.974,-10.7131c-0.471,-0.2197 -0.895,-0.5266 -1.25,-0.9035c-0.354,-0.3768 -0.63,-0.8161 -0.813,-1.2927s-0.27,-0.9813 -0.254,-1.4852c0.015,-0.5039 0.132,-0.9972 0.344,-1.4516l16.963,-36.3777c0.428,-0.9178 1.217,-1.6218 2.192,-1.9571c0.975,-0.3354 2.057,-0.2745 3.009,0.169l14.472,6.7484"/>
  <path id="svg_5" stroke-width="1.5" stroke-miterlimit="10" stroke-linecap="round" stroke="#231f20" d="m103.78,61.1016l4.548,-9.752"/>
  <path id="svg_6" fill="#ffda49" d="m143.409,47.2678l-6.482,-0.2577c-0.376,-0.0159 -0.524,-0.4937 -0.232,-0.7664l3.623,-3.5403c0.066,-0.0648 0.112,-0.1463 0.134,-0.2359c0.022,-0.0895 0.019,-0.1839 -0.009,-0.2733l-1.616,-4.6602c-0.029,-0.0846 -0.033,-0.1745 -0.012,-0.2599c0.02,-0.0854 0.065,-0.1631 0.128,-0.2244c0.063,-0.0614 0.143,-0.1041 0.23,-0.1235c0.088,-0.0194 0.18,-0.0148 0.266,0.0133l4.761,2.2202c0.068,0.0301 0.141,0.0429 0.214,0.0371c0.073,-0.0059 0.143,-0.0301 0.202,-0.0704l4.57,-3.0243c0.061,-0.0438 0.133,-0.0694 0.208,-0.0739c0.076,-0.0045 0.152,0.0123 0.219,0.0485c0.068,0.0362 0.124,0.0902 0.161,0.1556c0.038,0.0655 0.056,0.1396 0.052,0.2136l0.032,5.4598c-0.003,0.0712 0.014,0.1424 0.048,0.2062c0.034,0.0639 0.085,0.1182 0.147,0.1574l4.525,2.6776c0.071,0.0553 0.125,0.1284 0.157,0.2111c0.032,0.0826 0.041,0.1718 0.025,0.2575c-0.017,0.0857 -0.057,0.1648 -0.117,0.2284c-0.06,0.0637 -0.137,0.1095 -0.223,0.1324l-4.814,1.2755c-0.081,0.0245 -0.153,0.0678 -0.213,0.1262c-0.059,0.0585 -0.102,0.1304 -0.126,0.2097l-1.321,4.8403c-0.009,0.0849 -0.044,0.1647 -0.1,0.2291s-0.13,0.1105 -0.215,0.1322c-0.084,0.0218 -0.173,0.0183 -0.257,-0.0099c-0.083,-0.0283 -0.157,-0.0801 -0.211,-0.1488l-3.428,-5.0049c-0.038,-0.049 -0.088,-0.0887 -0.145,-0.1161c-0.056,-0.0275 -0.118,-0.0418 -0.181,-0.0418z"/>
  <path id="svg_7" fill="#c1a1ff" d="m117.517,65.2022c-0.093,-0.1285 -0.17,-0.2674 -0.228,-0.4135c-0.071,-0.1643 -0.125,-0.3341 -0.164,-0.5072c-0.022,-0.1445 -0.032,-0.2901 -0.031,-0.4354c0.008,-0.1543 0.045,-0.305 0.109,-0.4446c0.078,-0.1668 0.19,-0.4068 0.345,-0.7404c0.282,-0.5976 0.644,-1.1548 1.075,-1.6583c0.634,-0.7125 1.309,-1.3898 2.022,-2.0288c0.454,-0.4329 0.933,-0.8414 1.433,-1.2236c0.535,-0.3865 1.098,-0.7344 1.686,-1.0414c0.681,-0.3663 1.648,-0.8465 2.902,-1.4404c0.584,-0.2753 1.135,-0.6114 1.642,-1.0025c0.362,-0.2519 0.662,-0.5785 0.878,-0.9576l0.03,-0.0651c0.077,-0.1238 0.11,-0.2695 0.095,-0.4161c-0.056,-0.128 -0.154,-0.2361 -0.277,-0.3077c-0.113,-0.0788 -0.232,-0.1477 -0.356,-0.2058c-0.633,-0.2603 -1.301,-0.4197 -1.979,-0.4718c-1.119,-0.1245 -2.245,-0.1172 -3.352,0.0218c-0.591,0.086 -1.172,0.2154 -1.74,0.3873c-0.354,0.0754 -0.687,0.2179 -0.98,0.4195c-0.104,0.2238 -0.396,0.37 -0.873,0.4348c-0.237,0.0172 -0.477,-0.0248 -0.697,-0.1218c-0.273,-0.1337 -0.49,-0.3583 -0.61,-0.6312c-0.098,-0.1956 -0.149,-0.4084 -0.15,-0.6226c-0.001,-0.2141 0.048,-0.4238 0.144,-0.6133c0.061,-0.1245 0.13,-0.2443 0.209,-0.3584c0.783,-0.8102 2.117,-1.39 4.002,-1.7394c1.802,-0.3437 3.668,-0.3414 5.496,0.007c0.695,0.1622 1.374,0.3957 2.024,0.6963l0.265,0.1234c0.599,0.2741 1.138,0.6652 1.58,1.1479c0.918,1.2108 1.231,2.1821 0.938,2.914c-0.292,0.7258 -0.454,1.1303 -0.49,1.2076c-0.595,1.2747 -1.762,2.436 -3.501,3.4838c-0.223,0.1437 -0.64,0.3701 -1.252,0.6791c-0.614,0.3131 -1.283,0.6449 -2.025,0.9975c-0.962,0.4592 -1.71,0.8437 -2.242,1.1534c-0.495,0.2893 -0.968,0.6114 -1.416,0.9641c-1.104,0.8521 -1.755,1.5342 -1.992,2.0428c-0.052,0.1022 -0.083,0.2139 -0.091,0.329c-0.012,0.1127 -0.042,0.2224 -0.09,0.3249c-0.068,0.1375 -0.161,0.2616 -0.275,0.367c-0.202,0.1896 -0.463,0.312 -0.745,0.3507c-0.246,0.034 -0.5,-0.0049 -0.728,-0.1115c-0.234,-0.1167 -0.437,-0.2862 -0.591,-0.4935zm-2.246,5.6536c-0.146,-0.2015 -0.239,-0.4335 -0.27,-0.6747s0.001,-0.4839 0.092,-0.7057c0.02,-0.0584 0.046,-0.1143 0.078,-0.1668c0.178,-0.2336 0.413,-0.4201 0.685,-0.544c0.272,-0.124 0.574,-0.1816 0.879,-0.1681c0.344,-0.0386 0.696,0.0471 0.989,0.2411s0.506,0.4827 0.599,0.8115c0.092,0.1804 0.144,0.3765 0.152,0.575c0.008,0.1986 -0.029,0.3948 -0.107,0.5755c-0.111,0.2267 -0.277,0.4225 -0.484,0.5713c-0.153,0.1307 -0.333,0.2288 -0.528,0.2883c-0.196,0.0594 -0.404,0.0791 -0.611,0.0576c-0.245,-0.0413 -0.485,-0.1086 -0.717,-0.2007c-0.301,-0.153 -0.557,-0.3787 -0.745,-0.6544l-0.012,-0.0059z"/>
  <path id="svg_8" stroke-width="1.5" stroke-linejoin="round" stroke-linecap="round" stroke="#000" d="m122.632,89.2503l-0.774,1.6603l-27.146,-12.6582c-1.216,-0.5938 -2.155,-1.6271 -2.613,-2.8745s-0.397,-2.6078 0.169,-3.7843l18.672,-40.0434l3.49,1.6271"/>
 </g>
</svg>