<svg width="436" height="200" viewBox="0 0 436 200" fill="none" xmlns="http://www.w3.org/2000/svg">
<g clip-path="url(#clip0_184_21978)">
<rect width="436" height="200" rx="8" fill="#EAFBF5"/>
<mask id="mask0_184_21978" style="mask-type:alpha" maskUnits="userSpaceOnUse" x="0" y="0" width="436" height="200">
<rect width="436" height="200" fill="url(#paint0_linear_184_21978)"/>
</mask>
<g mask="url(#mask0_184_21978)">
<circle cx="218" cy="-97" r="218" fill="#2DD29B" fill-opacity="0.2"/>
<circle cx="218" cy="203.979" r="218" fill="#2DD29B" fill-opacity="0.2"/>
<path d="M206.146 50.733L195.413 39.9996L206.146 29.2663L202.879 25.9996L188.879 39.9996L202.879 53.9996L206.146 50.733ZM218.279 50.733L229.013 39.9996L218.279 29.2663L221.546 25.9996L235.546 39.9996L221.546 53.9996L218.279 50.733Z" fill="#28BD8C"/>
</g>
<rect x="79.9734" y="112.632" width="277.053" height="166.583" rx="10.9594" fill="white" stroke="#7DE3C1" stroke-width="0.876751"/>
<rect x="95.7549" y="180.142" width="16.6583" height="7.01401" rx="3.507" fill="#DDF8EF" stroke="#7DE3C1" stroke-width="0.876751"/>
<rect x="321.957" y="180.142" width="16.6583" height="7.01401" rx="3.507" fill="#DDF8EF" stroke="#7DE3C1" stroke-width="0.876751"/>
<rect x="120.304" y="180.142" width="125.375" height="7.01401" rx="3.507" fill="#DDF8EF" stroke="#7DE3C1" stroke-width="0.876751"/>
<rect x="259.707" y="180.142" width="50.8515" height="7.01401" rx="3.507" fill="#DDF8EF" stroke="#7DE3C1" stroke-width="0.876751"/>
<rect x="92.4364" y="117.162" width="252.127" height="50.558" rx="7.89013" fill="white" stroke="#28BD8C" stroke-width="1.25375"/>
<rect x="76.7863" y="100.039" width="283.427" height="56.7491" rx="8.81956" fill="white" stroke="#28BD8C" stroke-width="1.51678"/>
<circle cx="111.546" cy="124.906" r="15.9632" fill="#DDF8EF" stroke="#7DE3C1" stroke-width="0.798162"/>
<path d="M114.771 123.238L114.795 123.234C114.957 123.343 115.15 123.401 115.348 123.4L115.348 123.4C115.608 123.398 115.859 123.294 116.041 123.108C116.041 123.108 116.042 123.108 116.042 123.107L119.218 119.907C119.218 119.907 119.218 119.907 119.219 119.906C119.305 119.822 119.437 119.793 119.552 119.837C119.664 119.879 119.73 119.979 119.731 120.082L119.731 120.083L119.823 127.837C119.823 127.837 119.823 127.838 119.823 127.838C119.824 127.966 119.726 128.093 119.571 128.121L105.118 130.539C104.963 130.562 104.831 130.474 104.79 130.354C104.789 130.354 104.789 130.353 104.789 130.353L102.353 122.993C102.353 122.993 102.352 122.993 102.352 122.992C102.321 122.894 102.351 122.78 102.443 122.704C102.538 122.626 102.672 122.61 102.781 122.662L102.796 122.669L106.827 124.655L106.828 124.655C107.061 124.769 107.331 124.785 107.577 124.701C107.822 124.617 108.026 124.439 108.138 124.204L108.138 124.202L110.415 119.329C110.415 119.329 110.415 119.329 110.415 119.329C110.455 119.245 110.538 119.179 110.642 119.162C110.746 119.145 110.846 119.179 110.911 119.246C110.911 119.246 110.911 119.246 110.911 119.246L114.65 123.112L114.771 123.238Z" fill="#BDD7FF" stroke="#7DE3C1" stroke-width="0.665137"/>
<rect x="140.929" y="121.564" width="112.242" height="7.98164" rx="3.99082" fill="#BDD7FF"/>
<rect x="140.929" y="121.564" width="112.242" height="7.98164" rx="3.99082" stroke="#7DE3C1" stroke-width="0.498853"/>
<rect x="263.846" y="121.564" width="48.1891" height="8.28093" rx="4.14047" fill="#BDD7FF"/>
<rect x="263.846" y="121.564" width="48.1891" height="8.28093" rx="4.14047" stroke="#7DE3C1" stroke-width="0.498853"/>
<rect x="324.506" y="121.564" width="20.2534" height="8.28093" rx="4.14047" fill="#BDD7FF"/>
<rect x="324.506" y="121.564" width="20.2534" height="8.28093" rx="4.14047" stroke="#7DE3C1" stroke-width="0.498853"/>
<rect x="62.8768" y="78.8768" width="311.246" height="62.2493" rx="9.64426" fill="white" stroke="#28BD8C" stroke-width="1.7535"/>
<circle cx="101.015" cy="110.001" r="17.4734" fill="#DDF8EF" stroke="#7DE3C1"/>
<g clip-path="url(#clip1_184_21978)">
<path d="M105.041 103L103.464 103.423L103.041 101.845L95.1547 103.959L95.5774 105.536L94 105.959C93.1325 106.191 92.6128 107.091 92.8453 107.959L93.0566 108.747C93.5955 110.758 95.5493 111.993 97.5629 111.716C98.3767 112.765 99.6802 113.371 101.035 113.287L101.691 115.732L98.5359 116.577L98.9585 118.155L106.845 116.041L106.423 114.464L103.268 115.309L102.613 112.864C103.829 112.26 104.655 111.083 104.834 109.767C106.717 109.001 107.792 106.954 107.253 104.943L107.041 104.155C106.809 103.287 105.909 102.768 105.041 103ZM94.634 108.325L94.4226 107.536L96 107.113L96.8073 110.126C95.8036 110.04 94.9087 109.35 94.634 108.325ZM105.675 105.366C105.95 106.391 105.52 107.436 104.694 108.013L103.887 105L105.464 104.577L105.675 105.366Z" fill="#28BD8C"/>
</g>
<rect x="133.017" y="106.056" width="123.841" height="9.3155" rx="4.65775" fill="#C0F2E1"/>
<rect x="133.017" y="106.056" width="123.841" height="9.3155" rx="4.65775" stroke="#7DE3C1"/>
<rect x="268.036" y="106.056" width="53.4818" height="9.64426" rx="4.82213" fill="#C0F2E1"/>
<rect x="268.036" y="106.056" width="53.4818" height="9.64426" rx="4.82213" stroke="#7DE3C1"/>
<rect x="334.669" y="106.056" width="22.7955" height="9.64426" rx="4.82213" fill="#C0F2E1"/>
<rect x="334.669" y="106.056" width="22.7955" height="9.64426" rx="4.82213" stroke="#7DE3C1"/>
</g>
<defs>
<linearGradient id="paint0_linear_184_21978" x1="218" y1="0" x2="218" y2="200" gradientUnits="userSpaceOnUse">
<stop stop-color="white"/>
<stop offset="1" stop-color="#FDFDFD" stop-opacity="0"/>
</linearGradient>
<clipPath id="clip0_184_21978">
<rect width="436" height="200" rx="8" fill="white"/>
</clipPath>
<clipPath id="clip1_184_21978">
<rect width="19.5959" height="19.5959" fill="white" transform="translate(89 103.072) rotate(-15)"/>
</clipPath>
</defs>
</svg>
