<svg width="64" height="64" viewBox="0 0 64 64" fill="none" xmlns="http://www.w3.org/2000/svg">
<g id="check-badge">
<path id="vector" fill-rule="evenodd" clip-rule="evenodd" d="M33.0854 6.7939C32.3763 6.5687 31.6149 6.5687 30.9059 6.7939C30.3842 6.95959 29.9891 7.23818 29.6929 7.48184C29.4284 7.69946 29.1427 7.97593 28.8662 8.24351L25.5713 11.431C25.4906 11.5092 25.4284 11.5692 25.3743 11.6206C25.3004 11.6108 25.2148 11.5987 25.1035 11.583L20.5644 10.941C20.1834 10.887 19.7898 10.8313 19.4478 10.8107C19.065 10.7876 18.5816 10.7945 18.0622 10.9671C17.3562 11.2017 16.7402 11.6492 16.2989 12.2482C15.9743 12.6888 15.8184 13.1464 15.722 13.5177C15.6359 13.8492 15.5673 14.2408 15.5009 14.6198L14.7088 19.1352C14.6894 19.2459 14.6744 19.3311 14.6609 19.4044C14.5953 19.4399 14.519 19.4805 14.4197 19.5331L10.3701 21.6818C10.0301 21.862 9.67889 22.0483 9.39016 22.2327C9.0669 22.439 8.67987 22.7287 8.36107 23.1737C7.92778 23.7784 7.6925 24.5026 7.68757 25.2465C7.68394 25.7939 7.8268 26.2557 7.96701 26.6127C8.09225 26.9315 8.26691 27.2886 8.43595 27.6343L10.4492 31.7529C10.4986 31.8539 10.5366 31.9315 10.5687 31.9988C10.5366 32.0661 10.4986 32.1438 10.4492 32.2448L8.43595 36.3634C8.26691 36.709 8.09225 37.0662 7.96701 37.385C7.8268 37.742 7.68394 38.2038 7.68757 38.7512C7.6925 39.4951 7.92778 40.2192 8.36107 40.824C8.67987 41.269 9.0669 41.5586 9.39016 41.765C9.67889 41.9493 10.0301 42.1356 10.3701 42.3159L14.4197 44.4645C14.519 44.5172 14.5953 44.5577 14.6609 44.5933C14.6744 44.6666 14.6894 44.7517 14.7088 44.8624L15.5008 49.3778C15.5673 49.7568 15.6359 50.1485 15.722 50.48C15.8184 50.8512 15.9743 51.3088 16.2989 51.7495C16.7402 52.3485 17.3562 52.796 18.0622 53.0306C18.5816 53.2032 19.065 53.21 19.4478 53.187C19.7897 53.1664 20.1833 53.1107 20.5642 53.0567L25.1035 52.4147C25.2148 52.3989 25.3004 52.3868 25.3743 52.3771C25.4284 52.4284 25.4906 52.4885 25.5713 52.5667L28.8662 55.7541C29.1427 56.0217 29.4284 56.2982 29.6929 56.5158C29.9891 56.7595 30.3842 57.0381 30.9059 57.2038C31.6149 57.429 32.3763 57.429 33.0854 57.2038C33.6071 57.0381 34.0022 56.7595 34.2983 56.5158C34.5628 56.2982 34.8485 56.0218 35.125 55.7542L38.4199 52.5667C38.5007 52.4885 38.5629 52.4284 38.6169 52.3771C38.6909 52.3868 38.7764 52.3989 38.8877 52.4147L43.4271 53.0567C43.808 53.1107 44.2016 53.1664 44.5434 53.187C44.9263 53.21 45.4096 53.2032 45.9291 53.0306C46.6351 52.796 47.2511 52.3485 47.6923 51.7495C48.017 51.3088 48.1729 50.8512 48.2693 50.48C48.3554 50.1484 48.424 49.7568 48.4904 49.3778L49.2825 44.8624C49.3019 44.7517 49.3168 44.6666 49.3304 44.5933C49.396 44.5577 49.4723 44.5172 49.5716 44.4645L53.6213 42.3158C53.9612 42.1356 54.3124 41.9493 54.6011 41.765C54.9244 41.5586 55.3114 41.269 55.6302 40.824C56.0635 40.2192 56.2988 39.4951 56.3037 38.7512C56.3073 38.2038 56.1645 37.742 56.0243 37.385C55.899 37.0661 55.7243 36.7089 55.5552 36.3632L53.542 32.2448C53.4927 32.1438 53.4547 32.0661 53.4226 31.9988C53.4547 31.9315 53.4927 31.8539 53.542 31.7529L55.5554 27.6342C55.7243 27.2887 55.8991 26.9313 56.0243 26.6127C56.1645 26.2557 56.3073 25.7939 56.3037 25.2465C56.2988 24.5026 56.0635 23.7784 55.6302 23.1737C55.3114 22.7287 54.9244 22.439 54.6011 22.2327C54.3124 22.0483 53.9611 21.862 53.6212 21.6817L49.5716 19.5332C49.4723 19.4805 49.396 19.4399 49.3304 19.4044C49.3168 19.3311 49.3019 19.2459 49.2825 19.1352L48.4904 14.6199C48.424 14.2409 48.3554 13.8492 48.2693 13.5177C48.1729 13.1465 48.017 12.6888 47.6923 12.2482C47.2511 11.6492 46.6351 11.2017 45.9291 10.9671C45.4096 10.7945 44.9263 10.7876 44.5434 10.8107C44.2015 10.8313 43.8079 10.887 43.4269 10.941L38.8877 11.583C38.7764 11.5987 38.6909 11.6108 38.6169 11.6206C38.5629 11.5692 38.5007 11.5092 38.4199 11.431L35.1251 8.24356C34.8486 7.97597 34.5629 7.69948 34.2983 7.48184C34.0022 7.23818 33.6071 6.95959 33.0854 6.7939ZM41.169 28.0809C41.95 27.2998 41.95 26.0335 41.169 25.2525C40.3879 24.4714 39.1216 24.4714 38.3405 25.2525L29.0881 34.5049L25.6538 31.0706C24.8727 30.2896 23.6064 30.2896 22.8254 31.0706C22.0443 31.8517 22.0443 33.118 22.8254 33.8991L27.6739 38.7475C28.4549 39.5286 29.7212 39.5286 30.5023 38.7475L41.169 28.0809Z" fill="#007A51"/>
</g>
</svg>
