<svg width="72" height="44" viewBox="0 0 72 44" fill="none" xmlns="http://www.w3.org/2000/svg">
<g filter="url(#filter0_dddd_1588_38420)">
<rect x="17" y="2" width="38" height="50" rx="4" fill="white"/>
<rect x="17" y="2" width="38" height="50" rx="4" fill="url(#paint0_linear_1588_38420)"/>
<rect x="17.25" y="2.25" width="37.5" height="49.5" rx="3.75" stroke="#61A8FF" stroke-width="0.5"/>
<rect x="21.952" y="7.45605" width="27" height="3" rx="1.5" fill="#C2DDFF"/>
<rect x="22.245" y="15.697" width="19.1019" height="3" rx="1.5" fill="#E5F1FF"/>
</g>
<circle cx="12" cy="30" r="11" fill="#E5F1FF"/>
<path d="M16.7084 23.0721C16.6468 22.8872 16.4938 22.7473 16.304 22.7026C16.1143 22.6578 15.9149 22.7144 15.777 22.8523L13.8456 24.7837C13.7439 24.8854 13.6851 25.0221 13.6811 25.1658L13.6154 27.5207L11.7133 29.3473C11.4892 29.5625 11.482 29.9186 11.6972 30.1426C11.9124 30.3667 12.2684 30.3739 12.4925 30.1588L14.3985 28.3285L16.8208 28.3193C16.9692 28.3187 17.1114 28.2595 17.2164 28.1545L19.1478 26.223C19.2857 26.0852 19.3423 25.8858 19.2975 25.6961C19.2527 25.5063 19.1129 25.3533 18.928 25.2917L17.2633 24.7368L16.7084 23.0721ZM16.5847 27.1951L14.7497 27.2021L14.7994 25.4209L15.929 24.2913L16.285 25.3594C16.341 25.5273 16.4728 25.6591 16.6407 25.7151L17.7088 26.0711L16.5847 27.1951Z" fill="#61A8FF"/>
<path d="M12.1561 23.8145C10.8933 23.7826 9.65092 24.138 8.59601 24.833C7.5411 25.528 6.72418 26.5292 6.25503 27.7021C5.78588 28.875 5.68698 30.1634 5.97162 31.3942C6.25626 32.625 6.9108 33.7391 7.84728 34.5869C8.78377 35.4348 9.95732 35.9757 11.2102 36.1369C12.4632 36.2981 13.7354 36.072 14.8561 35.4889C15.9767 34.9058 16.892 33.9937 17.479 32.8751C18.066 31.7565 18.2965 30.485 18.1396 29.2315C18.101 28.9232 18.3196 28.6421 18.6279 28.6035C18.9361 28.5649 19.2173 28.7835 19.2559 29.0918C19.4413 30.5732 19.1689 32.0758 18.4752 33.3978C17.7815 34.7198 16.6997 35.7978 15.3753 36.4869C14.051 37.176 12.5474 37.4432 11.0667 37.2527C9.58593 37.0621 8.199 36.4229 7.09224 35.4209C5.98549 34.419 5.21194 33.1022 4.87555 31.6477C4.53916 30.1931 4.65604 28.6705 5.21049 27.2843C5.76494 25.8981 6.73038 24.7149 7.9771 23.8935C9.22381 23.0722 10.6921 22.6522 12.1845 22.6898C12.4951 22.6977 12.7405 22.9558 12.7326 23.2663C12.7248 23.5769 12.4667 23.8223 12.1561 23.8145Z" fill="#61A8FF"/>
<path d="M12 26.625C11.3326 26.625 10.6801 26.8229 10.1252 27.1937C9.5702 27.5645 9.13766 28.0916 8.88225 28.7082C8.62683 29.3249 8.56 30.0034 8.69021 30.658C8.82042 31.3126 9.14182 31.9139 9.61377 32.3859C10.0857 32.8578 10.687 33.1792 11.3416 33.3094C11.9963 33.4396 12.6748 33.3728 13.2914 33.1174C13.9081 32.862 14.4351 32.4294 14.8059 31.8745C15.1767 31.3195 15.3746 30.6671 15.3746 29.9996C15.3746 29.689 15.6265 29.4371 15.9371 29.4371C16.2478 29.4371 16.4996 29.689 16.4996 29.9996C16.4996 30.8896 16.2357 31.7595 15.7413 32.4995C15.2469 33.2395 14.5441 33.8162 13.7219 34.1568C12.8997 34.4973 11.995 34.5864 11.1222 34.4128C10.2493 34.2392 9.44757 33.8106 8.81828 33.1814C8.189 32.5521 7.76045 31.7503 7.58683 30.8775C7.41321 30.0046 7.50232 29.0999 7.84288 28.2777C8.18345 27.4555 8.76018 26.7528 9.50014 26.2583C10.2401 25.7639 11.1101 25.5 12 25.5C12.3107 25.5 12.5625 25.7518 12.5625 26.0625C12.5625 26.3732 12.3107 26.625 12 26.625Z" fill="#61A8FF"/>
<defs>
<filter id="filter0_dddd_1588_38420" x="14" y="0" width="58" height="77" filterUnits="userSpaceOnUse" color-interpolation-filters="sRGB">
<feFlood flood-opacity="0" result="BackgroundImageFix"/>
<feColorMatrix in="SourceAlpha" type="matrix" values="0 0 0 0 0 0 0 0 0 0 0 0 0 0 0 0 0 0 127 0" result="hardAlpha"/>
<feOffset dx="1" dy="1"/>
<feGaussianBlur stdDeviation="1.5"/>
<feColorMatrix type="matrix" values="0 0 0 0 0 0 0 0 0 0 0 0 0 0 0 0 0 0 0.04 0"/>
<feBlend mode="normal" in2="BackgroundImageFix" result="effect1_dropShadow_1588_38420"/>
<feColorMatrix in="SourceAlpha" type="matrix" values="0 0 0 0 0 0 0 0 0 0 0 0 0 0 0 0 0 0 127 0" result="hardAlpha"/>
<feOffset dx="2" dy="4"/>
<feGaussianBlur stdDeviation="2.5"/>
<feColorMatrix type="matrix" values="0 0 0 0 0 0 0 0 0 0 0 0 0 0 0 0 0 0 0.03 0"/>
<feBlend mode="normal" in2="effect1_dropShadow_1588_38420" result="effect2_dropShadow_1588_38420"/>
<feColorMatrix in="SourceAlpha" type="matrix" values="0 0 0 0 0 0 0 0 0 0 0 0 0 0 0 0 0 0 127 0" result="hardAlpha"/>
<feOffset dx="5" dy="9"/>
<feGaussianBlur stdDeviation="3"/>
<feColorMatrix type="matrix" values="0 0 0 0 0 0 0 0 0 0 0 0 0 0 0 0 0 0 0.02 0"/>
<feBlend mode="normal" in2="effect2_dropShadow_1588_38420" result="effect3_dropShadow_1588_38420"/>
<feColorMatrix in="SourceAlpha" type="matrix" values="0 0 0 0 0 0 0 0 0 0 0 0 0 0 0 0 0 0 127 0" result="hardAlpha"/>
<feOffset dx="9" dy="17"/>
<feGaussianBlur stdDeviation="4"/>
<feColorMatrix type="matrix" values="0 0 0 0 0 0 0 0 0 0 0 0 0 0 0 0 0 0 0.01 0"/>
<feBlend mode="normal" in2="effect3_dropShadow_1588_38420" result="effect4_dropShadow_1588_38420"/>
<feBlend mode="normal" in="SourceGraphic" in2="effect4_dropShadow_1588_38420" result="shape"/>
</filter>
<linearGradient id="paint0_linear_1588_38420" x1="37.6612" y1="2" x2="41.6434" y2="51.4113" gradientUnits="userSpaceOnUse">
<stop stop-color="#E5F1FF"/>
<stop offset="1" stop-color="white"/>
</linearGradient>
</defs>
</svg>
