<svg width="280" height="32" viewBox="0 0 280 32" fill="none" xmlns="http://www.w3.org/2000/svg">
<g opacity="0.7">
<path fill-rule="evenodd" clip-rule="evenodd" d="M20.941 2.09735V1.10645C12.6483 1.10613 5.92578 7.7844 5.92578 16.0222C5.92578 24.26 12.6483 30.9379 20.941 30.9379V29.947C15.5576 29.9423 10.426 26.8387 8.11859 21.6292C5.00175 14.5917 8.21749 6.37622 15.302 3.27979C17.0798 2.5002 18.9999 2.09759 20.941 2.09735Z" fill="#FEFEFE"/>
<path fill-rule="evenodd" clip-rule="evenodd" d="M15.7021 4.19084L15.2996 3.28125C8.21475 6.37768 4.99901 14.5929 8.11616 21.6303C11.2333 28.6678 19.5034 31.8628 26.588 28.766L26.1848 27.8568C22.5214 29.4543 18.1678 29.3585 14.4371 27.2188C8.21287 23.6492 6.08034 15.7433 9.67411 9.56014C11.0588 7.17265 13.171 5.29107 15.7021 4.19084Z" fill="#FEFEFE"/>
<path fill-rule="evenodd" clip-rule="evenodd" d="M26.9503 5.68238L27.448 4.82585C21.2237 1.25595 13.2651 3.37497 9.67129 9.55747C6.07784 15.7403 8.21068 23.6465 14.4346 27.2161L14.9338 26.3574C13.9364 25.7831 13.0268 25.0683 12.233 24.2349C7.66624 19.4546 7.86562 11.9019 12.6776 7.36529C16.6287 3.64059 22.4614 3.10809 26.9503 5.68269" fill="#FEFEFE"/>
<path fill-rule="evenodd" clip-rule="evenodd" d="M13.3605 8.0872L12.6744 7.36914C7.86213 11.9058 7.66087 19.456 12.2276 24.2362C16.7944 29.0168 24.3974 29.2143 29.2093 24.678L28.5211 23.9574C25.9553 26.3719 22.2677 27.5185 18.5577 26.7013C12.6204 25.3939 8.8747 19.5527 10.1909 13.6549C10.6641 11.5228 11.7686 9.58256 13.3605 8.0872Z" fill="#FEFEFE"/>
<path fill-rule="evenodd" clip-rule="evenodd" d="M23.11 6.31506L23.3266 5.34362C17.3893 4.03622 11.5095 7.75715 10.193 13.6552C8.87683 19.5529 12.6232 25.3941 18.5602 26.7015L18.7768 25.7313L18.7752 25.731C13.377 24.5417 9.97166 19.2317 11.1682 13.8703C12.3648 8.50881 17.7105 5.12603 23.1078 6.31443L23.11 6.31506Z" fill="#FEFEFE"/>
<path fill-rule="evenodd" clip-rule="evenodd" d="M28.2933 17.5372H30.828C30.882 17.1865 30.9172 16.8298 30.9335 16.4681L28.293 16.481L28.2933 17.5372ZM28.2933 14.4766V15.497L30.9288 15.4838C30.9106 15.1465 30.8753 14.8103 30.823 14.4766H28.2933Z" fill="#FEFEFE"/>
<path fill-rule="evenodd" clip-rule="evenodd" d="M27.19 18.521V13.4924H30.6193C29.4921 9.22608 25.5847 6.0791 20.9363 6.0791C15.4078 6.0791 10.9258 10.5313 10.9258 16.0227C10.9258 21.5145 15.4078 25.9666 20.936 25.9666C25.596 25.9666 29.5119 22.8037 30.6275 18.521H27.1894H27.19ZM32.2416 17.8337L32.7895 17.1964C33.193 17.5684 33.6184 17.7976 34.0865 17.7976C34.6919 17.7976 35.0881 17.4541 35.0881 16.9314V16.9172C35.0881 16.4089 34.6558 16.0868 34.0432 16.0868C33.6828 16.0868 33.3732 16.1872 33.1138 16.3088L32.5801 15.9577L32.7245 13.5024H35.7368V14.2827H33.4884L33.409 15.4569C33.647 15.3709 33.8705 15.3134 34.209 15.3134C35.1889 15.3134 35.96 15.829 35.96 16.8883V16.9028C35.96 17.9264 35.2106 18.5995 34.0937 18.5995C33.3226 18.5995 32.7173 18.2918 32.2413 17.8334" fill="#FEFEFE"/>
<path fill-rule="evenodd" clip-rule="evenodd" d="M25.845 14.4775H23.0967V15.4979H25.845V16.4819H23.0967V17.5381H25.845V18.5221H21.99V13.4935H25.8447L25.845 14.4775ZM20.8261 14.334L18.0414 17.5522H20.8261V18.5224H16.6094V17.6816L19.3937 14.4633H16.6967V13.4935H20.8261V14.334ZM30.9282 15.4847H30.8915L28.2918 15.4976V14.4775H30.8227C30.7705 14.146 30.7014 13.8175 30.6155 13.4932H27.186V18.5221H30.6243C30.7085 18.2003 30.7763 17.8722 30.8278 17.5381H28.2924V16.4819L30.8975 16.4693L30.9326 16.469C30.9473 16.1412 30.9461 15.8128 30.9286 15.485" fill="#020303"/>
<g clip-path="url(#clip0_229_12180)">
<path d="M79.9727 16.2476C79.9727 17.7707 80.5522 18.8484 82.2759 18.8484C83.5093 18.8484 84.2077 18.0869 84.2077 18.0869L84.3118 18.4605C84.3563 18.6042 84.4158 18.7047 84.5792 18.7047H84.8616C85.0102 18.7047 85.1439 18.5754 85.1439 18.4317V13.23C85.1439 13.0864 85.0102 12.957 84.8616 12.957H84.4009C84.2523 12.957 84.1186 13.0864 84.1186 13.23V17.0666C84.1186 17.0666 83.4796 17.8857 82.3502 17.8857C81.5181 17.8857 81.0129 17.354 81.0129 16.262V13.23C81.0129 13.0864 80.8791 12.957 80.7305 12.957H80.255C80.1064 12.957 79.9727 13.0864 79.9727 13.23V16.2476Z" fill="white"/>
<path fill-rule="evenodd" clip-rule="evenodd" d="M95.6081 15.0551C94.0775 15.0551 93.2305 15.8741 93.2305 16.9662C93.2305 18.1157 94.018 18.8486 95.0582 18.8486C95.9796 18.8486 96.5888 18.4031 96.9009 18.1014L97.0198 18.4893C97.0643 18.6187 97.1089 18.7049 97.2724 18.7049H97.5547C97.7033 18.7049 97.837 18.5756 97.837 18.4319V15.2419C97.837 13.5607 97.4656 12.8135 95.9498 12.8135C94.8353 12.8135 93.9735 13.144 93.8843 13.1871C93.7506 13.2446 93.6614 13.3308 93.7208 13.5032L93.8397 13.8624C93.8843 13.9918 93.9735 14.0636 94.1221 14.0061C94.3895 13.9055 95.088 13.69 95.9053 13.69C96.7523 13.69 96.886 14.1786 96.8712 15.2419C96.8712 15.2419 96.247 15.0551 95.6081 15.0551ZM95.2215 17.9864C94.5825 17.9864 94.1813 17.541 94.1813 16.9662C94.1813 16.219 94.7757 15.8167 95.6078 15.8167C96.2617 15.8167 96.6778 15.946 96.8561 16.0466V17.1817C96.6035 17.541 95.9645 17.9864 95.2215 17.9864Z" fill="white"/>
<path d="M99.2207 15.8454C99.2207 17.5697 100.618 18.8486 102.267 18.8486C103.277 18.8486 104.095 18.3313 104.541 17.6416C104.63 17.4979 104.585 17.3398 104.437 17.2392L104.273 17.1243C104.11 17.0093 104.006 16.9806 103.827 17.153C103.486 17.4691 103.144 17.9002 102.252 17.9002C101.138 17.9002 100.291 16.9806 100.291 15.831C100.291 14.6815 101.152 13.7906 102.267 13.7906C102.847 13.7906 103.337 14.0636 103.634 14.3941C103.768 14.509 103.842 14.6527 104.065 14.4516L104.347 14.2217C104.481 14.1211 104.511 13.9486 104.407 13.8193C103.872 13.1583 103.173 12.8135 102.282 12.8135C100.662 12.8135 99.2207 14.1498 99.2207 15.8454Z" fill="white"/>
<path fill-rule="evenodd" clip-rule="evenodd" d="M108.346 15.0551C106.816 15.0551 105.969 15.8741 105.969 16.9662C105.969 18.1157 106.756 18.8486 107.796 18.8486C108.718 18.8486 109.327 18.4031 109.639 18.1014L109.758 18.4893C109.803 18.6187 109.847 18.7049 110.011 18.7049H110.293C110.442 18.7049 110.575 18.5756 110.575 18.4319V15.2419C110.575 13.5607 110.204 12.8135 108.688 12.8135C107.574 12.8135 106.712 13.144 106.623 13.1871C106.489 13.2446 106.4 13.3308 106.459 13.5032L106.578 13.8624C106.623 13.9918 106.712 14.0636 106.86 14.0061C107.128 13.9055 107.826 13.69 108.644 13.69C109.491 13.69 109.624 14.1786 109.609 15.2419C109.609 15.2419 108.985 15.0551 108.346 15.0551ZM107.959 17.9864C107.32 17.9864 106.919 17.541 106.919 16.9662C106.919 16.219 107.514 15.8167 108.346 15.8167C109 15.8167 109.416 15.946 109.594 16.0466V17.1817C109.341 17.541 108.702 17.9864 107.959 17.9864Z" fill="white"/>
<path fill-rule="evenodd" clip-rule="evenodd" d="M114.814 12.8132C113.031 12.8132 111.961 14.1352 111.961 15.8164C111.961 17.4689 113.15 18.8483 114.665 18.8483C115.78 18.8483 116.493 18.0868 116.493 18.0868L116.582 18.4747C116.612 18.604 116.701 18.7046 116.835 18.7046H117.147C117.296 18.7046 117.429 18.5753 117.429 18.4316V10.273C117.429 10.1293 117.296 10 117.147 10H116.686C116.538 10 116.404 10.1293 116.404 10.273V13.1868C116.404 13.1868 115.795 12.8132 114.814 12.8132ZM114.769 17.9429C113.684 17.9429 113.001 16.9515 113.001 15.8307C113.001 14.6811 113.654 13.7759 114.947 13.7759C115.765 13.7759 116.389 14.1207 116.389 14.1207V16.9946C116.389 16.9946 115.839 17.9429 114.769 17.9429Z" fill="white"/>
<path fill-rule="evenodd" clip-rule="evenodd" d="M121.725 12.8135C119.927 12.8135 118.812 14.2073 118.812 15.831C118.812 17.4835 119.927 18.8486 121.725 18.8486C122.751 18.8486 123.553 18.4606 123.91 18.1876C124.133 18.0295 124.073 17.9433 123.969 17.814C123.925 17.7565 123.884 17.7026 123.843 17.6487C123.802 17.5949 123.761 17.541 123.717 17.4835C123.608 17.3393 123.524 17.3864 123.353 17.483C123.336 17.4923 123.319 17.5021 123.301 17.5122C122.959 17.7134 122.454 17.9433 121.829 17.9433C120.774 17.9433 119.898 17.038 119.838 16.0753H124.118C124.252 16.0753 124.37 15.9747 124.385 15.831C124.4 15.7304 124.415 15.5436 124.415 15.4431C124.415 13.9343 123.286 12.8135 121.725 12.8135ZM123.389 15.2706H119.852C119.956 14.3797 120.729 13.69 121.725 13.69C122.631 13.69 123.344 14.4372 123.389 15.2706Z" fill="white"/>
<path d="M125.797 18.4319C125.797 18.5756 125.93 18.7049 126.079 18.7049H126.54C126.688 18.7049 126.822 18.5756 126.822 18.4319V14.5953C126.822 14.5953 127.461 13.7762 128.516 13.7762C129.422 13.7762 129.928 14.3079 129.928 15.4V18.4319C129.928 18.5756 130.061 18.7049 130.21 18.7049H130.686C130.834 18.7049 130.968 18.5756 130.968 18.4319V15.4C130.968 15.0982 130.938 14.8252 130.894 14.5809C131.102 14.3941 131.741 13.7762 132.707 13.7762C133.568 13.7762 134.044 14.3222 134.044 15.4V18.4319C134.044 18.5756 134.178 18.7049 134.326 18.7049H134.802C134.95 18.7049 135.084 18.5756 135.084 18.4319V15.4C135.084 13.9055 134.505 12.8135 132.781 12.8135C131.592 12.8135 130.641 13.69 130.567 13.7475C130.18 13.144 129.541 12.8135 128.665 12.8135C127.431 12.8135 126.733 13.575 126.733 13.575L126.599 13.1296C126.569 13.0146 126.495 12.9572 126.361 12.9572H126.079C125.93 12.9572 125.797 13.0865 125.797 13.2302V18.4319Z" fill="white"/>
<path d="M139.267 18.6904L138.063 21.6409C137.959 21.8421 138.078 22.0001 138.301 22.0001H138.851C138.955 22.0001 139.059 21.9139 139.103 21.8277L142.967 13.2875C143.071 13.1007 142.967 12.957 142.744 12.957H142.179C142.075 12.957 141.971 13.0289 141.927 13.1151L139.846 17.5121L137.632 13.1151C137.588 13.0289 137.498 12.957 137.379 12.957H136.726C136.503 12.957 136.414 13.0864 136.503 13.2732L139.267 18.6904Z" fill="white"/>
<path d="M86.5273 18.4319C86.5273 18.5756 86.6611 18.7049 86.8097 18.7049H87.2703C87.4189 18.7049 87.5527 18.5756 87.5527 18.4319V14.5953C87.5527 14.5953 88.3551 13.7762 89.4696 13.7762C90.3017 13.7762 90.807 14.3079 90.807 15.4V18.4319C90.807 18.5756 90.9407 18.7049 91.0893 18.7049H91.5648C91.7134 18.7049 91.8472 18.5756 91.8472 18.4319V15.4C91.8472 13.9055 91.2676 12.8135 89.5439 12.8135C88.3105 12.8135 87.4635 13.575 87.4635 13.575L87.3298 13.1296C87.3 13.0146 87.2257 12.9572 87.092 12.9572H86.8097C86.6611 12.9572 86.5273 13.0865 86.5273 13.2302V18.4319Z" fill="white"/>
<path d="M62.6835 11.1156C63.2357 14.5032 66.2709 17.0939 69.9325 17.0939C73.5571 17.0939 76.5679 14.5553 77.164 11.2182C77.2404 10.9048 77.2719 10.6546 77.2623 10.4402C77.2623 10.1946 77.0801 10.0039 76.8276 10.0039H76.4179H63.516H63.0438C62.7914 10.0039 62.6094 10.1943 62.6091 10.4397L62.6074 10.4396C62.6078 10.4451 62.6081 10.4506 62.6085 10.4561C62.6019 10.6428 62.6261 10.8568 62.6835 11.1156Z" fill="white"/>
<path d="M73.5363 21.4335C73.2602 19.7397 71.7426 18.4443 69.9118 18.4443C68.0995 18.4443 66.5941 19.7136 66.2961 21.3822C66.2579 21.5389 66.2421 21.664 66.2469 21.7712C66.2469 21.894 66.338 21.9893 66.4643 21.9893H66.6691H73.1201H73.3562C73.4823 21.9893 73.5734 21.8941 73.5735 21.7715H73.5743C73.5742 21.7687 73.574 21.766 73.5738 21.7633C73.5771 21.6699 73.565 21.5629 73.5363 21.4335Z" fill="white"/>
</g>
<g clip-path="url(#clip1_229_12180)">
<path d="M175.532 19.2871H173.87V25.8718H175.532V19.2871Z" fill="#FEFEFE"/>
<path d="M188.931 21.1736C188.864 21.1389 188.33 20.822 187.535 20.822C186.459 20.822 185.714 21.5699 185.714 22.5783C185.714 23.5568 186.428 24.3362 187.535 24.3362C188.316 24.3362 188.86 24.0262 188.931 23.9868V25.7541C188.725 25.8126 188.158 25.9883 187.416 25.9883C185.548 25.9883 183.91 24.6999 183.91 22.5783C183.91 20.612 185.394 19.1699 187.416 19.1699C188.198 19.1699 188.775 19.3599 188.931 19.4062V21.1736Z" fill="#FEFEFE"/>
<path d="M171.587 21.1736C171.521 21.1389 170.986 20.822 170.192 20.822C169.115 20.822 168.371 21.5699 168.371 22.5783C168.371 23.5568 169.084 24.3362 170.192 24.3362C170.973 24.3362 171.516 24.0262 171.587 23.9868V25.7541C171.381 25.8126 170.814 25.9883 170.072 25.9883C168.204 25.9883 166.566 24.6999 166.566 22.5783C166.566 20.612 168.05 19.1699 170.072 19.1699C170.854 19.1699 171.431 19.3599 171.587 19.4062V21.1736Z" fill="#FEFEFE"/>
<path d="M194.158 20.8468C193.173 20.8468 192.441 21.6226 192.441 22.5783C192.441 23.5362 193.173 24.3115 194.158 24.3115C195.143 24.3115 195.877 23.5362 195.877 22.5783C195.877 21.6226 195.143 20.8468 194.158 20.8468ZM197.638 22.5783C197.638 24.462 196.184 25.9883 194.158 25.9883C192.133 25.9883 190.681 24.462 190.681 22.5783C190.681 20.6978 192.133 19.1699 194.158 19.1699C196.184 19.1699 197.638 20.6978 197.638 22.5783Z" fill="#FEFEFE"/>
<path d="M181.834 20.7832C181.81 20.7753 181.11 20.5822 180.535 20.5822C179.87 20.5822 179.507 20.8053 179.507 21.1217C179.507 21.5227 179.996 21.6627 180.269 21.749L180.727 21.8948C181.806 22.238 182.297 22.9764 182.297 23.7785C182.297 25.4327 180.843 25.9885 179.571 25.9885C178.687 25.9885 177.86 25.8259 177.778 25.8085V24.2932C177.924 24.3301 178.621 24.538 179.347 24.538C180.174 24.538 180.554 24.2964 180.554 23.9232C180.554 23.5895 180.225 23.3969 179.813 23.2674C179.712 23.2338 179.561 23.1864 179.458 23.1527C178.533 22.8601 177.761 22.3164 177.761 21.2264C177.761 19.9948 178.683 19.168 180.215 19.168C181.024 19.168 181.785 19.3643 181.834 19.3774V20.7832Z" fill="#FEFEFE"/>
<path d="M164.804 12.2103C164.804 11.7566 164.433 11.3887 163.979 11.3887C163.525 11.3887 163.154 11.7566 163.154 12.2103V13.9387C163.154 14.395 163.525 14.7634 163.979 14.7634C164.433 14.7634 164.804 14.395 164.804 13.9387V12.2103Z" fill="#FEFEFE"/>
<path d="M169.335 9.94177C169.335 9.48809 168.964 9.11914 168.51 9.11914C168.055 9.11914 167.685 9.48809 167.685 9.94177V13.9391C167.685 14.3955 168.055 14.7634 168.51 14.7634C168.964 14.7634 169.335 14.3955 169.335 13.9391V9.94177Z" fill="#FEFEFE"/>
<path d="M173.866 6.83773C173.866 6.38405 173.496 6.01562 173.041 6.01562C172.587 6.01562 172.216 6.38405 172.216 6.83773V15.5814C172.216 16.0377 172.587 16.4062 173.041 16.4062C173.496 16.4062 173.866 16.0377 173.866 15.5814V6.83773Z" fill="#FEFEFE"/>
<path d="M178.397 9.94177C178.397 9.48809 178.027 9.11914 177.573 9.11914C177.118 9.11914 176.747 9.48809 176.747 9.94177V13.9391C176.747 14.3955 177.118 14.7634 177.573 14.7634C178.027 14.7634 178.397 14.3955 178.397 13.9391V9.94177Z" fill="#FEFEFE"/>
<path d="M182.924 12.2103C182.924 11.7566 182.556 11.3887 182.104 11.3887C181.649 11.3887 181.279 11.7566 181.279 12.2103V13.9387C181.279 14.395 181.649 14.7634 182.104 14.7634C182.556 14.7634 182.924 14.395 182.924 13.9387V12.2103Z" fill="#FEFEFE"/>
<path d="M182.927 12.2103C182.927 11.7566 182.556 11.3887 182.102 11.3887C181.648 11.3887 181.277 11.7566 181.277 12.2103V13.9387C181.277 14.395 181.648 14.7634 182.102 14.7634C182.556 14.7634 182.927 14.395 182.927 13.9387V12.2103Z" fill="#FEFEFE"/>
<path d="M187.458 9.94177C187.458 9.48809 187.087 9.11914 186.633 9.11914C186.178 9.11914 185.808 9.48809 185.808 9.94177V13.9391C185.808 14.3955 186.178 14.7634 186.633 14.7634C187.087 14.7634 187.458 14.3955 187.458 13.9391V9.94177Z" fill="#FEFEFE"/>
<path d="M191.989 6.83773C191.989 6.38405 191.619 6.01562 191.164 6.01562C190.71 6.01562 190.339 6.38405 190.339 6.83773V15.5814C190.339 16.0377 190.71 16.4062 191.164 16.4062C191.619 16.4062 191.989 16.0377 191.989 15.5814V6.83773Z" fill="#FEFEFE"/>
<path d="M196.52 9.94177C196.52 9.48809 196.15 9.11914 195.696 9.11914C195.241 9.11914 194.87 9.48809 194.87 9.94177V13.9391C194.87 14.3955 195.241 14.7634 195.696 14.7634C196.15 14.7634 196.52 14.3955 196.52 13.9391V9.94177Z" fill="#FEFEFE"/>
<path d="M201.047 12.2103C201.047 11.7566 200.679 11.3887 200.227 11.3887C199.772 11.3887 199.402 11.7566 199.402 12.2103V13.9387C199.402 14.395 199.772 14.7634 200.227 14.7634C200.679 14.7634 201.047 14.395 201.047 13.9387V12.2103Z" fill="#FEFEFE"/>
<path d="M200.098 25.0039V25.1071H199.804V25.8707H199.683V25.1071H199.388V25.0039H200.098Z" fill="#FEFEFE"/>
<path d="M200.16 25.0039H200.348L200.608 25.715H200.612L200.863 25.0039H201.048V25.8707H200.925V25.1602H200.921L200.657 25.8707H200.543L200.286 25.1602H200.281V25.8707H200.16V25.0039Z" fill="#FEFEFE"/>
</g>
<path d="M259.868 20.4991C256.791 22.7671 252.331 23.9771 248.491 23.9771C243.108 23.9771 238.261 21.9857 234.594 18.6738C234.306 18.4133 234.564 18.0584 234.909 18.2612C238.867 20.5637 243.76 21.9489 248.814 21.9489C252.223 21.9489 255.973 21.2436 259.421 19.7801C259.942 19.5588 260.377 20.1212 259.868 20.4991Z" fill="white"/>
<path d="M261.148 19.0363C260.756 18.5339 258.548 18.7989 257.557 18.9165C257.255 18.9533 257.209 18.6906 257.481 18.5016C259.24 17.2639 262.125 17.6212 262.462 18.036C262.798 18.4532 262.374 21.3457 260.722 22.7262C260.468 22.9383 260.226 22.8254 260.339 22.5442C260.71 21.6176 261.542 19.541 261.148 19.0363Z" fill="white"/>
<path d="M257.624 9.76416V8.56107C257.624 8.37899 257.762 8.25684 257.928 8.25684H263.314C263.487 8.25684 263.625 8.38129 263.625 8.56107V9.5913C263.623 9.76416 263.478 9.99003 263.22 10.3473L260.429 14.3322C261.466 14.3069 262.561 14.4613 263.501 14.9914C263.713 15.1112 263.771 15.2864 263.787 15.4593V16.743C263.787 16.9182 263.593 17.1233 263.39 17.0173C261.733 16.1484 259.532 16.0539 257.7 17.0265C257.513 17.1279 257.317 16.9251 257.317 16.7499V15.5307C257.317 15.3348 257.319 15.0006 257.515 14.7033L260.749 10.0661H257.935C257.762 10.0661 257.624 9.94393 257.624 9.76416Z" fill="white"/>
<path d="M237.979 17.27H236.34C236.184 17.2584 236.059 17.1409 236.048 16.9911V8.58096C236.048 8.41271 236.188 8.27903 236.363 8.27903H237.891C238.05 8.28594 238.177 8.4081 238.189 8.56021V9.65959H238.219C238.617 8.59709 239.366 8.10156 240.376 8.10156C241.402 8.10156 242.042 8.59709 242.503 9.65959C242.9 8.59709 243.801 8.10156 244.767 8.10156C245.453 8.10156 246.205 8.38505 246.663 9.02117C247.182 9.72874 247.076 10.7567 247.076 11.6578L247.074 16.9657C247.074 17.134 246.933 17.27 246.758 17.27H245.122C244.958 17.2584 244.827 17.1271 244.827 16.9657V12.5083C244.827 12.1534 244.859 11.2683 244.78 10.9318C244.658 10.3672 244.292 10.2081 243.817 10.2081C243.421 10.2081 243.006 10.4732 242.837 10.8973C242.669 11.3213 242.685 12.0312 242.685 12.5083V16.9657C242.685 17.134 242.545 17.27 242.37 17.27H240.733C240.567 17.2584 240.438 17.1271 240.438 16.9657L240.436 12.5083C240.436 11.5703 240.59 10.1897 239.426 10.1897C238.249 10.1897 238.295 11.5357 238.295 12.5083V16.9657C238.295 17.134 238.154 17.27 237.979 17.27Z" fill="white"/>
<path d="M268.263 8.10156C270.694 8.10156 272.01 10.1897 272.01 12.8448C272.01 15.41 270.556 17.4451 268.263 17.4451C265.875 17.4451 264.575 15.357 264.575 12.7549C264.575 10.1367 265.891 8.10156 268.263 8.10156ZM268.276 9.81862C267.069 9.81862 266.993 11.4642 266.993 12.4899C266.993 13.5178 266.977 15.7119 268.263 15.7119C269.533 15.7119 269.592 13.9419 269.592 12.8632C269.592 12.1534 269.562 11.3052 269.348 10.6322C269.164 10.0468 268.797 9.81862 268.276 9.81862Z" fill="white"/>
<path d="M275.164 17.27H273.532C273.369 17.2584 273.237 17.1271 273.237 16.9657L273.235 8.5533C273.249 8.39888 273.385 8.27903 273.551 8.27903H275.07C275.213 8.28594 275.33 8.38275 275.362 8.51412V9.80018H275.392C275.851 8.6501 276.494 8.10156 277.626 8.10156C278.361 8.10156 279.078 8.36661 279.539 9.09262C279.967 9.76561 279.967 10.8973 279.967 11.7108V17.0049C279.949 17.1524 279.813 17.27 279.652 17.27H278.008C277.858 17.2584 277.734 17.1478 277.718 17.0049V12.4369C277.718 11.5172 277.824 10.1713 276.692 10.1713C276.294 10.1713 275.927 10.4386 275.745 10.8442C275.515 11.3582 275.485 11.8699 275.485 12.4369V16.9657C275.482 17.134 275.339 17.27 275.164 17.27Z" fill="white"/>
<path d="M253.333 13.2533V12.8984C252.148 12.8984 250.897 13.1519 250.897 14.5486C250.897 15.2562 251.263 15.7356 251.893 15.7356C252.354 15.7356 252.766 15.4521 253.027 14.9911C253.349 14.4242 253.333 13.8918 253.333 13.2533ZM254.986 17.2475C254.877 17.3443 254.721 17.3512 254.598 17.2867C254.055 16.835 253.958 16.6252 253.658 16.1942C252.759 17.1115 252.123 17.3858 250.957 17.3858C249.579 17.3858 248.505 16.5353 248.505 14.8321C248.505 13.5022 249.226 12.5965 250.252 12.154C251.141 11.7621 252.384 11.693 253.333 11.5847V11.3726C253.333 10.9831 253.363 10.5222 253.135 10.1857C252.934 9.88374 252.552 9.75929 252.215 9.75929C251.591 9.75929 251.033 10.0797 250.897 10.7434C250.869 10.8909 250.761 11.0361 250.614 11.043L249.023 10.8725C248.89 10.8425 248.742 10.7342 248.779 10.5291C249.145 8.60229 250.885 8.02148 252.444 8.02148C253.241 8.02148 254.283 8.23352 254.912 8.83738C255.709 9.58182 255.633 10.5752 255.633 11.6561V14.2098C255.633 14.9773 255.951 15.3138 256.251 15.7287C256.357 15.8762 256.38 16.0536 256.246 16.1643C255.912 16.4431 255.318 16.9617 254.99 17.2521L254.986 17.2475Z" fill="white"/>
<path d="M231.849 13.2533V12.8984C230.664 12.8984 229.413 13.1519 229.413 14.5486C229.413 15.2562 229.779 15.7356 230.408 15.7356C230.869 15.7356 231.282 15.4521 231.542 14.9911C231.865 14.4242 231.849 13.8918 231.849 13.2533ZM233.501 17.2475C233.393 17.3443 233.236 17.3512 233.114 17.2867C232.57 16.835 232.473 16.6252 232.174 16.1942C231.275 17.1115 230.639 17.3858 229.473 17.3858C228.094 17.3858 227.02 16.5353 227.02 14.8321C227.02 13.5022 227.742 12.5965 228.767 12.154C229.657 11.7621 230.899 11.693 231.849 11.5847V11.3726C231.849 10.9831 231.879 10.5222 231.651 10.1857C231.45 9.88374 231.067 9.75929 230.731 9.75929C230.106 9.75929 229.549 10.0797 229.413 10.7434C229.385 10.8909 229.277 11.0361 229.129 11.043L227.539 10.8725C227.405 10.8425 227.258 10.7342 227.295 10.5291C227.661 8.60229 229.401 8.02148 230.959 8.02148C231.757 8.02148 232.798 8.23352 233.428 8.83738C234.225 9.58182 234.149 10.5752 234.149 11.6561V14.2098C234.149 14.9773 234.467 15.3138 234.767 15.7287C234.873 15.8762 234.896 16.0536 234.762 16.1643C234.428 16.4431 233.833 16.9617 233.506 17.2521L233.501 17.2475Z" fill="white"/>
</g>
<defs>
<clipPath id="clip0_229_12180">
<rect width="80.5" height="12" fill="white" transform="translate(62.6074 10)"/>
</clipPath>
<clipPath id="clip1_229_12180">
<rect width="44" height="20" fill="white" transform="translate(163.048 6)"/>
</clipPath>
</defs>
</svg>
