<svg width="71" height="44" viewBox="0 0 71 44" fill="none" xmlns="http://www.w3.org/2000/svg">
<g filter="url(#filter0_dddd_1588_38407)">
<rect x="3" y="2" width="51" height="50" rx="4" fill="white"/>
<rect x="3" y="2" width="51" height="50" rx="4" fill="url(#paint0_linear_1588_38407)"/>
<rect x="3.25" y="2.25" width="50.5" height="49.5" rx="3.75" stroke="#FFD2BA" stroke-width="0.5"/>
<rect x="24" y="5.45703" width="27" height="3" rx="1.5" fill="#FFD2BA"/>
<rect x="6" y="5" width="3" height="3" rx="1.5" fill="#FFD2BA"/>
<rect x="11" y="5" width="3" height="3" rx="1.5" fill="#FFD2BA"/>
<path d="M6.5 17C6.5 15.067 8.067 13.5 10 13.5H47C48.933 13.5 50.5 15.067 50.5 17V47.5H6.5V17Z" stroke="url(#paint1_linear_1588_38407)"/>
<path d="M34.8762 27.9595C35.6262 28.3925 35.6262 29.475 34.8762 29.908L25.6587 35.2298C24.9087 35.6628 23.9712 35.1215 23.9712 34.2555L23.9712 23.612C23.9712 22.746 24.9087 22.2047 25.6587 22.6378L34.8762 27.9595ZM34.3137 28.9338L25.0962 23.612L25.0962 34.2555L34.3137 28.9338Z" fill="#DE5A02"/>
</g>
<defs>
<filter id="filter0_dddd_1588_38407" x="0" y="0" width="71" height="77" filterUnits="userSpaceOnUse" color-interpolation-filters="sRGB">
<feFlood flood-opacity="0" result="BackgroundImageFix"/>
<feColorMatrix in="SourceAlpha" type="matrix" values="0 0 0 0 0 0 0 0 0 0 0 0 0 0 0 0 0 0 127 0" result="hardAlpha"/>
<feOffset dx="1" dy="1"/>
<feGaussianBlur stdDeviation="1.5"/>
<feColorMatrix type="matrix" values="0 0 0 0 0 0 0 0 0 0 0 0 0 0 0 0 0 0 0.04 0"/>
<feBlend mode="normal" in2="BackgroundImageFix" result="effect1_dropShadow_1588_38407"/>
<feColorMatrix in="SourceAlpha" type="matrix" values="0 0 0 0 0 0 0 0 0 0 0 0 0 0 0 0 0 0 127 0" result="hardAlpha"/>
<feOffset dx="2" dy="4"/>
<feGaussianBlur stdDeviation="2.5"/>
<feColorMatrix type="matrix" values="0 0 0 0 0 0 0 0 0 0 0 0 0 0 0 0 0 0 0.03 0"/>
<feBlend mode="normal" in2="effect1_dropShadow_1588_38407" result="effect2_dropShadow_1588_38407"/>
<feColorMatrix in="SourceAlpha" type="matrix" values="0 0 0 0 0 0 0 0 0 0 0 0 0 0 0 0 0 0 127 0" result="hardAlpha"/>
<feOffset dx="5" dy="9"/>
<feGaussianBlur stdDeviation="3"/>
<feColorMatrix type="matrix" values="0 0 0 0 0 0 0 0 0 0 0 0 0 0 0 0 0 0 0.02 0"/>
<feBlend mode="normal" in2="effect2_dropShadow_1588_38407" result="effect3_dropShadow_1588_38407"/>
<feColorMatrix in="SourceAlpha" type="matrix" values="0 0 0 0 0 0 0 0 0 0 0 0 0 0 0 0 0 0 127 0" result="hardAlpha"/>
<feOffset dx="9" dy="17"/>
<feGaussianBlur stdDeviation="4"/>
<feColorMatrix type="matrix" values="0 0 0 0 0 0 0 0 0 0 0 0 0 0 0 0 0 0 0.01 0"/>
<feBlend mode="normal" in2="effect3_dropShadow_1588_38407" result="effect4_dropShadow_1588_38407"/>
<feBlend mode="normal" in="SourceGraphic" in2="effect4_dropShadow_1588_38407" result="shape"/>
</filter>
<linearGradient id="paint0_linear_1588_38407" x1="30.7295" y1="2" x2="33.7051" y2="51.5535" gradientUnits="userSpaceOnUse">
<stop stop-color="#FFF1E5"/>
<stop offset="1" stop-color="white"/>
</linearGradient>
<linearGradient id="paint1_linear_1588_38407" x1="28.5" y1="13" x2="28.5" y2="48" gradientUnits="userSpaceOnUse">
<stop stop-color="#FFD2BA"/>
<stop offset="1" stop-color="#FFD2BA" stop-opacity="0"/>
</linearGradient>
</defs>
</svg>
