<svg width="100" height="100" viewBox="0 0 100 100" fill="none" xmlns="http://www.w3.org/2000/svg">
<rect width="100" height="100" rx="50" fill="#FFB286"/>
<rect x="15" y="15" width="70" height="70" rx="35" fill="#FFF1E5"/>
<path d="M49.9999 68.6191C57.7852 68.6191 64.0965 62.3078 64.0965 54.5225C64.0965 44.8171 55.366 35.4976 51.4295 31.7888C50.5786 30.9871 49.2198 31.4368 48.8073 32.5308C47.8855 34.976 46.5469 37.0366 45.077 38.9122C44.3849 38.2437 43.7467 37.5631 43.1868 36.8653C42.3413 35.8115 40.5062 35.8149 39.9871 37.0622C38.4607 40.7299 36.2154 47.1396 35.9329 53.6571C35.9134 53.9402 35.9033 54.2286 35.9033 54.5225C35.9033 54.588 35.9038 54.6533 35.9047 54.7186C35.9038 54.813 35.9033 54.9074 35.9033 55.0019C35.9033 56.7073 36.2668 58.3278 36.9205 59.7902C39.0071 64.9661 44.0769 68.6191 49.9999 68.6191Z" fill="#F37216"/>
<path d="M50 47.8357C50 47.8357 44.5595 51.8396 44.5595 57.3741C44.5595 60.691 46.9953 63.3799 50 63.3799C53.0047 63.3799 55.4404 60.691 55.4404 57.3741C55.4404 51.8396 50 47.8357 50 47.8357Z" fill="white"/>
<rect x="15" y="15" width="70" height="70" rx="35" stroke="#FFD2BA" stroke-width="10"/>
</svg>
