<svg width="16" height="16" viewBox="0 0 16 16" fill="none" xmlns="http://www.w3.org/2000/svg">
<path d="M8.50037 4.9999V7.71677L10.7579 9.07115C10.8716 9.13944 10.9535 9.25011 10.9856 9.37881C11.0177 9.5075 10.9974 9.64369 10.9291 9.7574C10.8608 9.87111 10.7502 9.95304 10.6215 9.98515C10.4928 10.0173 10.3566 9.99694 10.2429 9.92865L7.74287 8.42865C7.66888 8.38419 7.60766 8.32134 7.56516 8.24621C7.52267 8.17107 7.50035 8.08622 7.50037 7.9999V4.9999C7.50037 4.86729 7.55305 4.74011 7.64682 4.64635C7.74059 4.55258 7.86777 4.4999 8.00037 4.4999C8.13298 4.4999 8.26016 4.55258 8.35393 4.64635C8.4477 4.74011 8.50037 4.86729 8.50037 4.9999ZM14.0004 3.4999C13.8678 3.4999 13.7406 3.55258 13.6468 3.64635C13.5531 3.74011 13.5004 3.86729 13.5004 3.9999V5.1249C13.1035 4.6649 12.6985 4.22177 12.2429 3.76052C11.409 2.92659 10.3479 2.35687 9.19214 2.12256C8.03636 1.88824 6.83715 1.99972 5.74437 2.44307C4.65158 2.88641 3.71367 3.64196 3.04783 4.6153C2.382 5.58865 2.01776 6.73662 2.00063 7.91579C1.98351 9.09497 2.31425 10.253 2.95154 11.2453C3.58882 12.2376 4.50439 13.02 5.58384 13.4949C6.6633 13.9698 7.85876 14.1161 9.02086 13.9154C10.183 13.7148 11.2602 13.1761 12.1179 12.3668C12.1656 12.3216 12.2041 12.2675 12.2309 12.2075C12.2578 12.1476 12.2725 12.0829 12.2744 12.0172C12.2763 11.9515 12.2652 11.886 12.2417 11.8246C12.2183 11.7632 12.183 11.707 12.1379 11.6593C12.0927 11.6115 12.0386 11.5731 11.9786 11.5462C11.9187 11.5194 11.854 11.5046 11.7883 11.5027C11.7226 11.5009 11.6571 11.512 11.5957 11.5354C11.5343 11.5588 11.4781 11.5941 11.4304 11.6393C10.7154 12.3131 9.81777 12.7613 8.84958 12.928C7.88138 13.0947 6.88553 12.9725 5.98638 12.5766C5.08723 12.1807 4.32464 11.5287 3.79382 10.702C3.263 9.87533 2.98749 8.91058 3.00169 7.92824C3.0159 6.9459 3.31918 5.98951 3.87367 5.17851C4.42816 4.3675 5.20928 3.73782 6.1195 3.36809C7.02972 2.99837 8.02868 2.90498 8.99166 3.0996C9.95463 3.29422 10.8389 3.76822 11.5341 4.4624C12.0429 4.9774 12.4885 5.47365 12.9379 5.9999H11.5004C11.3678 5.9999 11.2406 6.05258 11.1468 6.14635C11.0531 6.24011 11.0004 6.36729 11.0004 6.4999C11.0004 6.63251 11.0531 6.75968 11.1468 6.85345C11.2406 6.94722 11.3678 6.9999 11.5004 6.9999H14.0004C14.133 6.9999 14.2602 6.94722 14.3539 6.85345C14.4477 6.75968 14.5004 6.63251 14.5004 6.4999V3.9999C14.5004 3.86729 14.4477 3.74011 14.3539 3.64635C14.2602 3.55258 14.133 3.4999 14.0004 3.4999Z" fill="#002726"/>
</svg>
