<svg width="16" height="16" viewBox="0 0 16 16" fill="none" xmlns="http://www.w3.org/2000/svg">
<path d="M3.64664 6.35403L1.64664 4.35403C1.60016 4.30759 1.56328 4.25245 1.53811 4.19175C1.51295 4.13105 1.5 4.06599 1.5 4.00028C1.5 3.93457 1.51295 3.86951 1.53811 3.80881C1.56328 3.74811 1.60016 3.69296 1.64664 3.64653L3.64664 1.64653C3.74046 1.55271 3.86771 1.5 4.00039 1.5C4.13308 1.5 4.26032 1.55271 4.35414 1.64653C4.44796 1.74035 4.50067 1.8676 4.50067 2.00028C4.50067 2.13296 4.44796 2.26021 4.35414 2.35403L2.70727 4.00028L4.35414 5.64653C4.44796 5.74035 4.50067 5.8676 4.50067 6.00028C4.50067 6.13296 4.44796 6.26021 4.35414 6.35403C4.26032 6.44785 4.13308 6.50056 4.00039 6.50056C3.86771 6.50056 3.74046 6.44785 3.64664 6.35403ZM6.14664 6.35403C6.19308 6.40052 6.24822 6.4374 6.30892 6.46256C6.36962 6.48772 6.43469 6.50067 6.50039 6.50067C6.5661 6.50067 6.63116 6.48772 6.69186 6.46256C6.75256 6.4374 6.80771 6.40052 6.85414 6.35403L8.85414 4.35403C8.90063 4.30759 8.93751 4.25245 8.96267 4.19175C8.98784 4.13105 9.00079 4.06599 9.00079 4.00028C9.00079 3.93457 8.98784 3.86951 8.96267 3.80881C8.93751 3.74811 8.90063 3.69296 8.85414 3.64653L6.85414 1.64653C6.76032 1.55271 6.63308 1.5 6.50039 1.5C6.36771 1.5 6.24046 1.55271 6.14664 1.64653C6.05282 1.74035 6.00012 1.8676 6.00012 2.00028C6.00012 2.13296 6.05282 2.26021 6.14664 2.35403L7.79352 4.00028L6.14664 5.64653C6.10015 5.69296 6.06328 5.74811 6.03811 5.80881C6.01295 5.86951 6 5.93457 6 6.00028C6 6.06599 6.01295 6.13105 6.03811 6.19175C6.06328 6.25245 6.10015 6.30759 6.14664 6.35403ZM12.5004 2.50028H11.0004C10.8678 2.50028 10.7406 2.55296 10.6468 2.64672C10.5531 2.74049 10.5004 2.86767 10.5004 3.00028C10.5004 3.13289 10.5531 3.26006 10.6468 3.35383C10.7406 3.4476 10.8678 3.50028 11.0004 3.50028H12.5004V12.5003H3.50039V8.50028C3.50039 8.36767 3.44771 8.24049 3.35395 8.14672C3.26018 8.05296 3.133 8.00028 3.00039 8.00028C2.86778 8.00028 2.74061 8.05296 2.64684 8.14672C2.55307 8.24049 2.50039 8.36767 2.50039 8.50028V12.5003C2.50039 12.7655 2.60575 13.0198 2.79329 13.2074C2.98082 13.3949 3.23518 13.5003 3.50039 13.5003H12.5004C12.7656 13.5003 13.02 13.3949 13.2075 13.2074C13.395 13.0198 13.5004 12.7655 13.5004 12.5003V3.50028C13.5004 3.23506 13.395 2.98071 13.2075 2.79317C13.02 2.60563 12.7656 2.50028 12.5004 2.50028Z" fill="#002726"/>
</svg>
