<svg xmlns="http://www.w3.org/2000/svg" width="16" height="16" viewBox="0 0 16 16" fill="none">
<path d="M15.5005 7.75025C15.4998 7.08795 15.3116 6.43938 14.9577 5.8796C14.6037 5.31981 14.0985 4.8717 13.5005 4.58712V4.50024C13.4999 3.85601 13.2919 3.22907 12.9074 2.71219C12.5228 2.19531 11.9821 1.81596 11.3652 1.63026C10.7483 1.44456 10.088 1.46238 9.48205 1.68108C8.87607 1.89979 8.35659 2.30775 8.00047 2.84462C7.64435 2.30775 7.12487 1.89979 6.51889 1.68108C5.91291 1.46238 5.25262 1.44456 4.63573 1.63026C4.01884 1.81596 3.47811 2.19531 3.09355 2.71219C2.709 3.22907 2.50105 3.85601 2.50047 4.50024V4.58712C1.90193 4.87092 1.39622 5.31875 1.0421 5.87857C0.687981 6.43839 0.5 7.0872 0.5 7.74962C0.5 8.41204 0.687981 9.06085 1.0421 9.62067C1.39622 10.1805 1.90193 10.6283 2.50047 10.9121V11.0002C2.50105 11.6445 2.709 12.2714 3.09355 12.7883C3.47811 13.3052 4.01884 13.6845 4.63573 13.8702C5.25262 14.0559 5.91291 14.0381 6.51889 13.8194C7.12487 13.6007 7.64435 13.1927 8.00047 12.6559C8.35659 13.1927 8.87607 13.6007 9.48205 13.8194C10.088 14.0381 10.7483 14.0559 11.3652 13.8702C11.9821 13.6845 12.5228 13.3052 12.9074 12.7883C13.2919 12.2714 13.4999 11.6445 13.5005 11.0002V10.9121C14.0984 10.6278 14.6036 10.1799 14.9575 9.62029C15.3115 9.06072 15.4997 8.41236 15.5005 7.75025ZM5.50047 13.0002C5.00731 13.0002 4.53157 12.8179 4.16461 12.4884C3.79765 12.159 3.56536 11.7055 3.51234 11.2152C3.67403 11.2383 3.83714 11.25 4.00047 11.2502H4.50047C4.63308 11.2502 4.76025 11.1976 4.85402 11.1038C4.94779 11.01 5.00047 10.8829 5.00047 10.7502C5.00047 10.6176 4.94779 10.4905 4.85402 10.3967C4.76025 10.3029 4.63308 10.2502 4.50047 10.2502H4.00047C3.41019 10.2509 2.83871 10.0427 2.38721 9.66252C1.9357 9.2823 1.63329 8.75459 1.53352 8.17281C1.43375 7.59102 1.54305 6.9927 1.84208 6.48377C2.14111 5.97485 2.61057 5.58814 3.16734 5.39212C3.26476 5.35763 3.3491 5.2938 3.40876 5.20941C3.46841 5.12502 3.50045 5.02422 3.50047 4.92087V4.50024C3.50047 3.96981 3.71118 3.4611 4.08626 3.08603C4.46133 2.71096 4.97004 2.50024 5.50047 2.50024C6.0309 2.50024 6.53961 2.71096 6.91468 3.08603C7.28976 3.4611 7.50047 3.96981 7.50047 4.50024V8.76649C6.95142 8.27267 6.23893 7.9997 5.50047 8.00025C5.36786 8.00025 5.24068 8.05292 5.14692 8.14669C5.05315 8.24046 5.00047 8.36764 5.00047 8.50025C5.00047 8.63285 5.05315 8.76003 5.14692 8.8538C5.24068 8.94757 5.36786 9.00025 5.50047 9.00025C6.0309 9.00025 6.53961 9.21096 6.91468 9.58603C7.28976 9.9611 7.50047 10.4698 7.50047 11.0002C7.50047 11.5307 7.28976 12.0394 6.91468 12.4145C6.53961 12.7895 6.0309 13.0002 5.50047 13.0002ZM12.0005 10.2502H11.5005C11.3679 10.2502 11.2407 10.3029 11.1469 10.3967C11.0532 10.4905 11.0005 10.6176 11.0005 10.7502C11.0005 10.8829 11.0532 11.01 11.1469 11.1038C11.2407 11.1976 11.3679 11.2502 11.5005 11.2502H12.0005C12.1638 11.25 12.3269 11.2383 12.4886 11.2152C12.4471 11.5994 12.2951 11.9633 12.0512 12.263C11.8072 12.5626 11.4817 12.7852 11.1139 12.9038C10.7461 13.0223 10.3519 13.0318 9.97884 12.9311C9.60579 12.8304 9.26991 12.6237 9.0118 12.3362C8.7537 12.0486 8.58442 11.6924 8.52443 11.3107C8.46445 10.929 8.51632 10.5381 8.67379 10.1852C8.83126 9.83235 9.08757 9.53265 9.41174 9.32236C9.73592 9.11207 10.1141 9.00019 10.5005 9.00025C10.6331 9.00025 10.7603 8.94757 10.854 8.8538C10.9478 8.76003 11.0005 8.63285 11.0005 8.50025C11.0005 8.36764 10.9478 8.24046 10.854 8.14669C10.7603 8.05292 10.6331 8.00025 10.5005 8.00025C9.76202 7.9997 9.04952 8.27267 8.50047 8.76649V4.50024C8.50047 3.96981 8.71119 3.4611 9.08626 3.08603C9.46133 2.71096 9.97004 2.50024 10.5005 2.50024C11.0309 2.50024 11.5396 2.71096 11.9147 3.08603C12.2898 3.4611 12.5005 3.96981 12.5005 4.50024V4.92087C12.5005 5.02422 12.5325 5.12502 12.5922 5.20941C12.6518 5.2938 12.7362 5.35763 12.8336 5.39212C13.3904 5.58814 13.8598 5.97485 14.1589 6.48377C14.4579 6.9927 14.5672 7.59102 14.4674 8.17281C14.3677 8.75459 14.0652 9.2823 13.6137 9.66252C13.1622 10.0427 12.5907 10.2509 12.0005 10.2502ZM13.0005 7.00024C13.0005 7.13285 12.9478 7.26003 12.854 7.3538C12.7603 7.44757 12.6331 7.50024 12.5005 7.50024H12.2505C11.6537 7.50024 11.0814 7.26319 10.6595 6.84123C10.2375 6.41928 10.0005 5.84698 10.0005 5.25024V5.00024C10.0005 4.86764 10.0531 4.74046 10.1469 4.64669C10.2407 4.55292 10.3679 4.50024 10.5005 4.50024C10.6331 4.50024 10.7603 4.55292 10.854 4.64669C10.9478 4.74046 11.0005 4.86764 11.0005 5.00024V5.25024C11.0005 5.58177 11.1322 5.89971 11.3666 6.13413C11.601 6.36855 11.919 6.50024 12.2505 6.50024H12.5005C12.6331 6.50024 12.7603 6.55292 12.854 6.64669C12.9478 6.74046 13.0005 6.86764 13.0005 7.00024ZM3.75047 7.50024H3.50047C3.36786 7.50024 3.24068 7.44757 3.14692 7.3538C3.05315 7.26003 3.00047 7.13285 3.00047 7.00024C3.00047 6.86764 3.05315 6.74046 3.14692 6.64669C3.24068 6.55292 3.36786 6.50024 3.50047 6.50024H3.75047C4.08199 6.50024 4.39993 6.36855 4.63435 6.13413C4.86877 5.89971 5.00047 5.58177 5.00047 5.25024V5.00024C5.00047 4.86764 5.05315 4.74046 5.14692 4.64669C5.24068 4.55292 5.36786 4.50024 5.50047 4.50024C5.63308 4.50024 5.76025 4.55292 5.85402 4.64669C5.94779 4.74046 6.00047 4.86764 6.00047 5.00024V5.25024C6.00047 5.84698 5.76342 6.41928 5.34146 6.84123C4.9195 7.26319 4.34721 7.50024 3.75047 7.50024Z" fill="#002726"/>
</svg>