<svg width="16" height="16" viewBox="0 0 16 16" fill="none" xmlns="http://www.w3.org/2000/svg">
<path d="M15.0004 5.51423C14.9753 6.38463 14.6174 7.21228 14.0004 7.82673L11.8285 9.99985C11.5122 10.3179 11.1359 10.5701 10.7215 10.7417C10.307 10.9134 9.86267 11.0011 9.41411 10.9999H9.41098C8.95475 10.9995 8.50322 10.9078 8.08304 10.73C7.66287 10.5523 7.28259 10.2921 6.96465 9.96489C6.64671 9.63769 6.39757 9.25009 6.23195 8.82499C6.06633 8.39988 5.98758 7.9459 6.00036 7.48985C6.00409 7.35724 6.06034 7.23155 6.15675 7.14042C6.25315 7.04928 6.38181 7.00018 6.51442 7.00391C6.64703 7.00764 6.77272 7.0639 6.86385 7.1603C6.95498 7.25671 7.00409 7.38537 7.00036 7.51798C6.99125 7.84043 7.04687 8.16144 7.16394 8.46203C7.281 8.76262 7.45713 9.0367 7.68191 9.26807C7.9067 9.49944 8.17558 9.6834 8.47267 9.80909C8.76975 9.93478 9.08902 9.99964 9.41161 9.99985C9.72871 10.0007 10.0428 9.93861 10.3358 9.81728C10.6288 9.69595 10.8948 9.51775 11.1185 9.29298L13.2904 7.1211C13.7385 6.66736 13.9888 6.05475 13.9868 5.41704C13.9849 4.77933 13.7306 4.16831 13.2797 3.71738C12.8288 3.26644 12.2177 3.01223 11.58 3.01023C10.9423 3.00824 10.3297 3.25862 9.87598 3.70673L9.18848 4.39423C9.09395 4.48404 8.96807 4.53336 8.83769 4.53169C8.70731 4.53003 8.58274 4.47749 8.49054 4.38529C8.39834 4.29309 8.34581 4.16852 8.34414 4.03814C8.34247 3.90776 8.3918 3.78188 8.48161 3.68735L9.16911 2.99985C9.48629 2.68256 9.86288 2.43086 10.2774 2.25913C10.6918 2.08741 11.1361 1.99902 11.5847 1.99902C12.0334 1.99902 12.4776 2.08741 12.8921 2.25913C13.3066 2.43086 13.6832 2.68256 14.0004 2.99985C14.3289 3.3292 14.587 3.72196 14.7589 4.15422C14.9308 4.58648 15.013 5.0492 15.0004 5.51423ZM6.81286 11.6036L6.12536 12.2911C5.90112 12.5168 5.63425 12.6957 5.34026 12.8174C5.04627 12.9391 4.73103 13.0011 4.41286 12.9999C3.93554 12.9995 3.46906 12.8576 3.07233 12.5922C2.67561 12.3268 2.36645 11.9498 2.18393 11.5087C2.0014 11.0677 1.9537 10.5825 2.04684 10.1143C2.13998 9.6462 2.36979 9.21618 2.70723 8.8786L4.87536 6.70673C5.21685 6.36343 5.65367 6.13075 6.1291 6.0389C6.60453 5.94706 7.09659 6.00029 7.54138 6.19168C7.98616 6.38307 8.36312 6.70379 8.6233 7.11217C8.88348 7.52055 9.01485 7.99773 9.00036 8.48173C8.99663 8.61433 9.04573 8.74299 9.13686 8.8394C9.22799 8.9358 9.35368 8.99206 9.48629 8.99579C9.6189 8.99952 9.74756 8.95042 9.84397 8.85928C9.94037 8.76815 9.99663 8.64246 10.0004 8.50985C10.0124 8.04556 9.92991 7.58366 9.75801 7.1522C9.58611 6.72073 9.32835 6.32869 9.00036 5.99985C8.35984 5.35962 7.49129 4.99996 6.58567 4.99996C5.68005 4.99996 4.81149 5.35962 4.17098 5.99985L2.00036 8.17173C1.523 8.64889 1.1978 9.25684 1.06586 9.91877C0.933922 10.5807 1.00116 11.2669 1.25908 11.8906C1.51699 12.5143 1.95401 13.0476 2.51491 13.423C3.07581 13.7984 3.73541 13.9992 4.41036 13.9999C4.85903 14.0011 5.30349 13.9134 5.71803 13.7418C6.13257 13.5701 6.50894 13.3179 6.82536 12.9999L7.51286 12.3124C7.59377 12.217 7.63604 12.0949 7.63134 11.9699C7.62663 11.845 7.57529 11.7264 7.48744 11.6374C7.39958 11.5484 7.28159 11.4956 7.15672 11.4894C7.03185 11.4831 6.90916 11.5239 6.81286 11.6036Z" fill="#002726"/>
</svg>
