<svg width="16" height="16" viewBox="0 0 16 16" fill="none" xmlns="http://www.w3.org/2000/svg">
<path d="M4.32 5.88439L1.78125 8.00002L4.32 10.1156C4.3719 10.1572 4.415 10.2087 4.44676 10.2671C4.47853 10.3255 4.49833 10.3896 4.505 10.4558C4.51167 10.5219 4.50509 10.5888 4.48563 10.6523C4.46617 10.7159 4.43422 10.775 4.39166 10.826C4.3491 10.8771 4.29679 10.9192 4.23777 10.9498C4.17875 10.9804 4.11422 10.999 4.04795 11.0043C3.98169 11.0097 3.91501 11.0018 3.85183 10.9811C3.78865 10.9604 3.73023 10.9273 3.68 10.8838L0.679999 8.38377C0.623706 8.33684 0.578418 8.27812 0.547338 8.21175C0.516259 8.14538 0.500149 8.07299 0.500149 7.9997C0.500149 7.92642 0.516259 7.85403 0.547338 7.78766C0.578418 7.72129 0.623706 7.66257 0.679999 7.61564L3.68 5.11564C3.78194 5.03077 3.91342 4.98988 4.04552 5.00195C4.17761 5.01402 4.2995 5.07807 4.38437 5.18002C4.46924 5.28196 4.51014 5.41344 4.49807 5.54554C4.486 5.67763 4.42194 5.79952 4.32 5.88439ZM15.32 7.61564L12.32 5.11564C12.2695 5.07362 12.2113 5.04195 12.1485 5.02244C12.0858 5.00293 12.0199 4.99597 11.9545 5.00195C11.8891 5.00793 11.8255 5.02673 11.7673 5.05728C11.7092 5.08783 11.6576 5.12954 11.6156 5.18002C11.5308 5.28196 11.4899 5.41344 11.5019 5.54554C11.514 5.67763 11.5781 5.79952 11.68 5.88439L14.2188 8.00002L11.68 10.1156C11.6281 10.1572 11.585 10.2087 11.5532 10.2671C11.5215 10.3255 11.5017 10.3896 11.495 10.4558C11.4883 10.5219 11.4949 10.5888 11.5144 10.6523C11.5338 10.7159 11.5658 10.775 11.6083 10.826C11.6509 10.8771 11.7032 10.9192 11.7622 10.9498C11.8212 10.9804 11.8858 10.999 11.952 11.0043C12.0183 11.0097 12.085 11.0018 12.1482 10.9811C12.2113 10.9604 12.2698 10.9273 12.32 10.8838L15.32 8.38377C15.3763 8.33684 15.4216 8.27812 15.4527 8.21175C15.4837 8.14538 15.4999 8.07299 15.4999 7.9997C15.4999 7.92642 15.4837 7.85403 15.4527 7.78766C15.4216 7.72129 15.3763 7.66257 15.32 7.61564ZM10.1706 2.03002C10.1089 2.00761 10.0434 1.99758 9.97777 2.00049C9.91218 2.00341 9.8478 2.01922 9.78831 2.04702C9.72882 2.07482 9.67539 2.11407 9.63107 2.16252C9.58675 2.21096 9.55241 2.26767 9.53 2.32939L5.53 13.3294C5.5075 13.3911 5.49739 13.4567 5.50026 13.5224C5.50313 13.5881 5.51892 13.6525 5.54672 13.7121C5.57453 13.7717 5.61381 13.8251 5.66231 13.8695C5.71081 13.9139 5.76758 13.9482 5.82937 13.9706C5.88415 13.9901 5.94186 14 6 14C6.10268 14 6.20287 13.9684 6.28696 13.9095C6.37105 13.8505 6.43496 13.7672 6.47 13.6706L10.47 2.67064C10.4924 2.60892 10.5024 2.54339 10.4995 2.47779C10.4966 2.41219 10.4808 2.34781 10.453 2.28832C10.4252 2.22884 10.386 2.17541 10.3375 2.13109C10.2891 2.08677 10.2323 2.05242 10.1706 2.03002Z" fill="#002726"/>
</svg>
