<svg width="16" height="16" viewBox="0 0 16 16" fill="none" xmlns="http://www.w3.org/2000/svg">
<g clip-path="url(#clip0_128_815)">
<path d="M12.3484 8.06625L9.12461 6.875L7.93711 3.64875C7.86679 3.45771 7.73956 3.29283 7.57259 3.17637C7.40562 3.0599 7.20694 2.99746 7.00336 2.99746C6.79979 2.99746 6.60111 3.0599 6.43414 3.17637C6.26717 3.29283 6.13993 3.45771 6.06961 3.64875L4.87461 6.875L1.64836 8.0625C1.45732 8.13282 1.29244 8.26005 1.17598 8.42703C1.05951 8.594 0.99707 8.79268 0.99707 8.99625C0.99707 9.19983 1.05951 9.3985 1.17598 9.56548C1.29244 9.73245 1.45732 9.85968 1.64836 9.93L4.87461 11.125L6.06211 14.3513C6.13243 14.5423 6.25967 14.7072 6.42664 14.8236C6.59361 14.9401 6.79229 15.0025 6.99586 15.0025C7.19944 15.0025 7.39812 14.9401 7.56509 14.8236C7.73206 14.7072 7.85929 14.5423 7.92961 14.3513L9.12461 11.125L12.3509 9.9375C12.5419 9.86718 12.7068 9.73995 12.8232 9.57298C12.9397 9.406 13.0022 9.20733 13.0022 9.00375C13.0022 8.80017 12.9397 8.6015 12.8232 8.43453C12.7068 8.26755 12.5419 8.14032 12.3509 8.07L12.3484 8.06625ZM8.56211 10.2638C8.49424 10.2888 8.43261 10.3282 8.38146 10.3794C8.33032 10.4305 8.29087 10.4921 8.26586 10.56L6.99961 13.9906L5.73586 10.5625C5.71089 10.4939 5.6712 10.4316 5.61959 10.38C5.56798 10.3284 5.5057 10.2887 5.43711 10.2638L2.00899 9L5.43711 7.73625C5.5057 7.71128 5.56798 7.67159 5.61959 7.61998C5.6712 7.56837 5.71089 7.50608 5.73586 7.4375L6.99961 4.00938L8.26336 7.4375C8.28837 7.50537 8.32782 7.567 8.37896 7.61815C8.43011 7.6693 8.49174 7.70874 8.55961 7.73375L11.9902 9L8.56211 10.2638ZM8.99961 2.5C8.99961 2.36739 9.05229 2.24022 9.14606 2.14645C9.23983 2.05268 9.367 2 9.49961 2H10.4996V1C10.4996 0.867392 10.5523 0.740215 10.6461 0.646447C10.7398 0.552678 10.867 0.5 10.9996 0.5C11.1322 0.5 11.2594 0.552678 11.3532 0.646447C11.4469 0.740215 11.4996 0.867392 11.4996 1V2H12.4996C12.6322 2 12.7594 2.05268 12.8532 2.14645C12.9469 2.24022 12.9996 2.36739 12.9996 2.5C12.9996 2.63261 12.9469 2.75979 12.8532 2.85355C12.7594 2.94732 12.6322 3 12.4996 3H11.4996V4C11.4996 4.13261 11.4469 4.25979 11.3532 4.35355C11.2594 4.44732 11.1322 4.5 10.9996 4.5C10.867 4.5 10.7398 4.44732 10.6461 4.35355C10.5523 4.25979 10.4996 4.13261 10.4996 4V3H9.49961C9.367 3 9.23983 2.94732 9.14606 2.85355C9.05229 2.75979 8.99961 2.63261 8.99961 2.5ZM15.4996 5.5C15.4996 5.63261 15.4469 5.75979 15.3532 5.85355C15.2594 5.94732 15.1322 6 14.9996 6H14.4996V6.5C14.4996 6.63261 14.4469 6.75979 14.3532 6.85355C14.2594 6.94732 14.1322 7 13.9996 7C13.867 7 13.7398 6.94732 13.6461 6.85355C13.5523 6.75979 13.4996 6.63261 13.4996 6.5V6H12.9996C12.867 6 12.7398 5.94732 12.6461 5.85355C12.5523 5.75979 12.4996 5.63261 12.4996 5.5C12.4996 5.36739 12.5523 5.24022 12.6461 5.14645C12.7398 5.05268 12.867 5 12.9996 5H13.4996V4.5C13.4996 4.36739 13.5523 4.24022 13.6461 4.14645C13.7398 4.05268 13.867 4 13.9996 4C14.1322 4 14.2594 4.05268 14.3532 4.14645C14.4469 4.24022 14.4996 4.36739 14.4996 4.5V5H14.9996C15.1322 5 15.2594 5.05268 15.3532 5.14645C15.4469 5.24022 15.4996 5.36739 15.4996 5.5Z" fill="#002726"/>
</g>
<defs>
<clipPath id="clip0_128_815">
<rect width="16" height="16" fill="white"/>
</clipPath>
</defs>
</svg>
