<svg width="16" height="16" viewBox="0 0 16 16" fill="none" xmlns="http://www.w3.org/2000/svg">
<path d="M13.8846 11.078C13.9693 11.1796 14.0103 11.3107 13.9986 11.4425C13.9869 11.5743 13.9234 11.6961 13.8221 11.7811C12.7371 12.6805 11.7683 12.9999 10.8846 12.9999C9.72335 12.9999 8.70835 12.4486 7.76397 11.9374C6.1796 11.0774 4.81147 10.3349 2.8221 11.9836C2.77166 12.0262 2.71329 12.0583 2.65037 12.0782C2.58745 12.0981 2.52121 12.1053 2.45548 12.0995C2.38975 12.0936 2.32583 12.0748 2.2674 12.0442C2.20897 12.0135 2.15718 11.9716 2.11503 11.9208C2.07288 11.87 2.0412 11.8114 2.0218 11.7484C2.00241 11.6853 1.9957 11.619 2.00205 11.5533C2.0084 11.4876 2.02769 11.4239 2.05881 11.3657C2.08992 11.3075 2.13225 11.256 2.18335 11.2143C4.69397 9.13426 6.57835 10.1568 8.24147 11.0593C9.82585 11.9186 11.194 12.6611 13.1833 11.013C13.2852 10.9291 13.416 10.8889 13.5474 10.9011C13.6787 10.9133 13.7999 10.9769 13.8846 11.078ZM13.1802 7.51551C11.1908 9.16426 9.82272 8.42176 8.23835 7.56176C6.57522 6.65988 4.69085 5.63738 2.18022 7.71738C2.07937 7.80244 2.01623 7.92392 2.00455 8.05534C1.99288 8.18675 2.03362 8.31746 2.11789 8.41897C2.20217 8.52048 2.32315 8.58457 2.45447 8.59726C2.58579 8.60996 2.71681 8.57024 2.81897 8.48676C4.80835 6.83801 6.17647 7.58051 7.76085 8.44051C8.70522 8.95238 9.72022 9.50301 10.8815 9.50301C11.7652 9.50301 12.734 9.18363 13.819 8.28426C13.8701 8.2425 13.9124 8.19104 13.9435 8.13285C13.9746 8.07466 13.9939 8.01089 14.0003 7.94521C14.0066 7.87952 13.9999 7.81323 13.9805 7.75016C13.9611 7.68708 13.9294 7.62847 13.8873 7.5777C13.8451 7.52693 13.7934 7.485 13.7349 7.45434C13.6765 7.42368 13.6126 7.40488 13.5468 7.39905C13.4811 7.39321 13.4149 7.40044 13.352 7.42032C13.289 7.4402 13.2307 7.47234 13.1802 7.51488V7.51551ZM2.81897 4.98738C4.80835 3.33926 6.17647 4.08176 7.76085 4.94113C8.70522 5.45363 9.72022 6.00363 10.8815 6.00363C11.7652 6.00363 12.734 5.68363 13.819 4.78488C13.8701 4.74313 13.9124 4.69167 13.9435 4.63348C13.9746 4.57529 13.9939 4.51151 14.0003 4.44583C14.0066 4.38015 13.9999 4.31386 13.9805 4.25078C13.9611 4.18771 13.9294 4.1291 13.8873 4.07832C13.8451 4.02755 13.7934 3.98563 13.7349 3.95497C13.6765 3.9243 13.6126 3.90551 13.5468 3.89967C13.4811 3.89383 13.4149 3.90106 13.352 3.92094C13.289 3.94082 13.2307 3.97296 13.1802 4.01551C11.1908 5.66426 9.82272 4.92176 8.23835 4.06176C6.57522 3.16113 4.69085 2.13863 2.18022 4.21863C2.12734 4.25978 2.08327 4.31115 2.05063 4.36967C2.018 4.42819 1.99745 4.49267 1.99022 4.55928C1.98299 4.6259 1.98923 4.69329 2.00856 4.75745C2.02788 4.8216 2.05991 4.88122 2.10273 4.93276C2.14556 4.9843 2.1983 5.0267 2.25783 5.05745C2.31737 5.08821 2.38247 5.10668 2.44928 5.11177C2.5161 5.11687 2.58325 5.10848 2.64676 5.08711C2.71027 5.06575 2.76883 5.03183 2.81897 4.98738Z" fill="#002726"/>
</svg>
