<svg width="124" height="119" viewBox="0 0 124 119" fill="none" xmlns="http://www.w3.org/2000/svg">
<g filter="url(#filter0_ddf_1078_64141)">
<path d="M76 55.25C76 64 63.0262 71.0825 62.4737 71.375C62.3281 71.4533 62.1654 71.4943 62 71.4943C61.8346 71.4943 61.6719 71.4533 61.5262 71.375C60.9738 71.0825 48 64 48 55.25C48.0023 53.1953 48.8196 51.2254 50.2725 49.7725C51.7254 48.3196 53.6953 47.5023 55.75 47.5C58.3313 47.5 60.5912 48.61 62 50.4862C63.4088 48.61 65.6688 47.5 68.25 47.5C70.3047 47.5023 72.2746 48.3196 73.7275 49.7725C75.1804 51.2254 75.9977 53.1953 76 55.25Z" fill="#FF5252"/>
</g>
<path d="M76 55.25C76 64 63.0262 71.0825 62.4737 71.375C62.3281 71.4533 62.1654 71.4943 62 71.4943C61.8346 71.4943 61.6719 71.4533 61.5262 71.375C60.9738 71.0825 48 64 48 55.25C48.0023 53.1953 48.8196 51.2254 50.2725 49.7725C51.7254 48.3196 53.6953 47.5023 55.75 47.5C58.3313 47.5 60.5912 48.61 62 50.4862C63.4088 48.61 65.6688 47.5 68.25 47.5C70.3047 47.5023 72.2746 48.3196 73.7275 49.7725C75.1804 51.2254 75.9977 53.1953 76 55.25Z" fill="#FF5252"/>
<defs>
<filter id="filter0_ddf_1078_64141" x="0.959999" y="0.459999" width="122.08" height="118.074" filterUnits="userSpaceOnUse" color-interpolation-filters="sRGB">
<feFlood flood-opacity="0" result="BackgroundImageFix"/>
<feColorMatrix in="SourceAlpha" type="matrix" values="0 0 0 0 0 0 0 0 0 0 0 0 0 0 0 0 0 0 127 0" result="hardAlpha"/>
<feOffset/>
<feGaussianBlur stdDeviation="11.76"/>
<feColorMatrix type="matrix" values="0 0 0 0 1 0 0 0 0 0.321569 0 0 0 0 0.321569 0 0 0 1 0"/>
<feBlend mode="normal" in2="BackgroundImageFix" result="effect1_dropShadow_1078_64141"/>
<feColorMatrix in="SourceAlpha" type="matrix" values="0 0 0 0 0 0 0 0 0 0 0 0 0 0 0 0 0 0 127 0" result="hardAlpha"/>
<feOffset/>
<feGaussianBlur stdDeviation="23.52"/>
<feColorMatrix type="matrix" values="0 0 0 0 1 0 0 0 0 0.321569 0 0 0 0 0.321569 0 0 0 1 0"/>
<feBlend mode="normal" in2="effect1_dropShadow_1078_64141" result="effect2_dropShadow_1078_64141"/>
<feBlend mode="normal" in="SourceGraphic" in2="effect2_dropShadow_1078_64141" result="shape"/>
<feGaussianBlur stdDeviation="22.5" result="effect3_foregroundBlur_1078_64141"/>
</filter>
</defs>
</svg>
