<svg xmlns="http://www.w3.org/2000/svg" width="24" height="24" viewBox="0 0 24 24" fill="none">
<path d="M18.4698 16.83L18.8598 19.99C18.9598 20.82 18.0698 21.4 17.3598 20.97L13.1698 18.48C12.7098 18.48 12.2599 18.45 11.8199 18.39C12.5599 17.52 12.9998 16.42 12.9998 15.23C12.9998 12.39 10.5398 10.09 7.49985 10.09C6.33985 10.09 5.26985 10.42 4.37985 11C4.34985 10.75 4.33984 10.5 4.33984 10.24C4.33984 5.68999 8.28984 2 13.1698 2C18.0498 2 21.9998 5.68999 21.9998 10.24C21.9998 12.94 20.6098 15.33 18.4698 16.83Z" stroke="#002726" stroke-width="1.75" stroke-linecap="round" stroke-linejoin="round"/>
<path d="M13 15.2337C13 16.4237 12.56 17.5237 11.82 18.3937C10.83 19.5937 9.26 20.3637 7.5 20.3637L4.89 21.9137C4.45 22.1837 3.89 21.8137 3.95 21.3037L4.2 19.3337C2.86 18.4037 2 16.9137 2 15.2337C2 13.4737 2.94 11.9237 4.38001 11.0037C5.27001 10.4237 6.34 10.0938 7.5 10.0938C10.54 10.0938 13 12.3937 13 15.2337Z" stroke="#002726" stroke-width="1.75" stroke-linecap="round" stroke-linejoin="round"/>
</svg>