<svg width="139" height="104" viewBox="0 0 139 104" fill="none" xmlns="http://www.w3.org/2000/svg">
<g filter="url(#filter0_b_1078_63400)">
<rect x="0.5" y="0.5" width="137.833" height="103" stroke="#051E01" stroke-opacity="0.3"/>
<g clip-path="url(#clip0_1078_63400)">
<path d="M39.2619 54.3767V41H36V54.5449C36 59.6348 39.6008 63 44.2606 63C46.5481 63 48.5392 62.1166 50.0218 60.6023V62.6214H53.2413V41H49.9795V54.3767C49.9795 57.826 47.6496 60.1396 44.6418 60.1396C41.5918 60.0975 39.2619 57.8681 39.2619 54.3767ZM56.4608 62.6635H59.5533V60.6864C60.9936 62.1587 63.027 63.0421 65.2298 63.0421C69.8896 63.0421 73.5751 59.3824 73.5751 54.7973C73.5751 50.2122 69.8896 46.5526 65.2298 46.5526C63.027 46.5526 61.0359 47.4359 59.5956 48.9082V41H56.4608V62.6635ZM59.5533 54.7973C59.5533 51.7266 62.0103 49.3289 65.018 49.3289C68.0257 49.3289 70.4827 51.7266 70.4827 54.7973C70.4827 57.826 68.0257 60.2658 65.018 60.2658C61.9679 60.2658 59.5533 57.826 59.5533 54.7973ZM75.439 54.7553C75.439 59.4665 79.1245 63 83.8691 63C86.7497 63 89.1219 61.7381 90.7317 59.6348L88.4442 57.9522C87.258 59.5086 85.6906 60.2658 83.8691 60.2658C81.2003 60.2658 79.0398 58.3308 78.6162 55.7648H91.5366V54.7553C91.5366 50.044 88.19 46.5526 83.6149 46.5526C78.9551 46.5526 75.439 50.2964 75.439 54.7553ZM83.5302 49.2868C85.8601 49.2868 87.8087 50.8853 88.3594 53.325H78.6585C79.2516 50.8853 81.2003 49.2868 83.5302 49.2868ZM102 49.6654V46.7629H100.899C99.1617 46.7629 97.8909 47.5621 97.086 48.8241V46.8891H94.0359V62.6635H97.1707V53.6616C97.1707 51.2218 98.6534 49.6233 100.729 49.6233H102V49.6654Z" fill="#002726"/>
</g>
</g>
<defs>
<filter id="filter0_b_1078_63400" x="-4" y="-4" width="146.834" height="112" filterUnits="userSpaceOnUse" color-interpolation-filters="sRGB">
<feFlood flood-opacity="0" result="BackgroundImageFix"/>
<feGaussianBlur in="BackgroundImageFix" stdDeviation="2"/>
<feComposite in2="SourceAlpha" operator="in" result="effect1_backgroundBlur_1078_63400"/>
<feBlend mode="normal" in="SourceGraphic" in2="effect1_backgroundBlur_1078_63400" result="shape"/>
</filter>
<clipPath id="clip0_1078_63400">
<rect width="66" height="22" fill="white" transform="translate(36 41)"/>
</clipPath>
</defs>
</svg>
