<svg width="140" height="104" viewBox="0 0 140 104" fill="none" xmlns="http://www.w3.org/2000/svg">
<g filter="url(#filter0_b_1078_63406)">
<rect x="1.16602" y="0.5" width="137.833" height="103" stroke="#052101" stroke-opacity="0.3"/>
<g clip-path="url(#clip0_1078_63406)">
<path d="M44.7377 49.1055H38.6628C38.4611 49.1055 38.2988 49.2735 38.2988 49.4846V63.6914C38.2988 63.8987 38.4611 64.0673 38.6628 64.0673H44.7576C49.5465 64.0673 52.6417 61.1276 52.6417 56.576C52.6412 52.037 49.5386 49.1055 44.7377 49.1055ZM44.7377 60.1223H42.6623V53.0538H44.7571C46.9207 53.0538 48.2131 54.3689 48.2131 56.576C48.2131 58.3374 47.02 60.1223 44.7377 60.1223Z" fill="#006491"/>
<path d="M79.5716 52.9639C77.8954 52.9639 76.5321 53.9207 75.9234 54.8709C75.4771 53.6054 74.4656 52.9639 72.9217 52.9639C71.2123 52.9639 69.9173 53.8623 69.4662 54.4656V53.6108C69.4662 53.4008 69.3029 53.2339 69.1028 53.2339H65.9419C65.7413 53.2339 65.5801 53.4014 65.5801 53.6108V63.691C65.5801 63.8977 65.7413 64.0668 65.9419 64.0668H69.1028C69.3034 64.0668 69.4662 63.8972 69.4662 63.691V57.3824L69.4667 57.3791C69.6957 57.1053 70.1704 56.5303 71.0427 56.5303C71.8084 56.5303 72.2316 56.9618 72.2316 57.7418V63.691C72.2316 63.8977 72.3944 64.0668 72.594 64.0668H75.7549C75.9549 64.0668 76.1188 63.8972 76.1188 63.691V57.3824C76.3462 57.1058 76.822 56.5303 77.7147 56.5303C78.4709 56.5303 78.9037 56.9722 78.9037 57.7418V63.691C78.9037 63.8977 79.0654 64.0668 79.2665 64.0668H82.4285C82.6285 64.0668 82.7913 63.8972 82.7913 63.691V56.2172C82.7913 54.1187 81.6486 52.9639 79.5716 52.9639Z" fill="#006491"/>
<path d="M87.9018 53.2334H84.7409C84.5398 53.2334 84.377 53.402 84.377 53.6103V63.6905C84.377 63.8973 84.5403 64.0664 84.7409 64.0664H87.9018C88.1013 64.0664 88.2652 63.8967 88.2652 63.6905V53.6109C88.2652 53.402 88.1013 53.2334 87.9018 53.2334Z" fill="#006491"/>
<path d="M86.4139 47.916C85.2118 47.916 84.2324 48.9328 84.2324 50.1815C84.2324 51.4323 85.2118 52.4469 86.4139 52.4469C87.6154 52.4469 88.5959 51.4323 88.5959 50.1815C88.5959 48.9323 87.6154 47.916 86.4139 47.916Z" fill="#006491"/>
<path d="M97.379 52.9639C95.3645 52.9639 94.2685 53.9054 93.7964 54.4656V53.6108C93.7964 53.4008 93.6326 53.2339 93.433 53.2339H90.2711C90.072 53.2339 89.9082 53.4014 89.9082 53.6108V63.691C89.9082 63.8977 90.072 64.0668 90.2711 64.0668H93.433C93.6326 64.0668 93.7964 63.8972 93.7964 63.691V57.3824C94.048 57.0856 94.5185 56.5303 95.458 56.5303C96.4621 56.5303 96.9704 57.0513 96.9704 58.0757V63.691C96.9704 63.8977 97.1332 64.0668 97.3343 64.0668H100.494C100.695 64.0668 100.857 63.8972 100.857 63.691V56.3748C100.857 54.2387 99.5578 52.9639 97.379 52.9639Z" fill="#006491"/>
<path d="M58.9066 52.916C55.8654 52.916 53.4004 55.4782 53.4004 58.6322C53.4004 61.795 55.8654 64.3545 58.9066 64.3545C61.9482 64.3545 64.4128 61.795 64.4128 58.6322C64.4133 55.4782 61.9482 52.916 58.9066 52.916ZM58.9066 60.5066C57.8684 60.5066 57.0292 59.6327 57.0292 58.5515C57.0292 57.4747 57.8684 56.6036 58.9066 56.6036C59.9448 56.6036 60.7861 57.4753 60.7861 58.5515C60.7861 59.6332 59.9448 60.5066 58.9066 60.5066Z" fill="#006491"/>
<path d="M107.513 52.9326C104.474 52.9326 102.01 55.4932 102.01 58.6499C102.01 61.8116 104.474 64.3705 107.513 64.3705C110.556 64.3705 113.023 61.8116 113.023 58.6499C113.023 55.4937 110.556 52.9326 107.513 52.9326ZM107.513 60.5226C106.477 60.5226 105.636 59.6471 105.636 58.5676C105.636 57.4924 106.477 56.6196 107.513 56.6196C108.553 56.6196 109.393 57.4929 109.393 58.5676C109.393 59.6471 108.554 60.5226 107.513 60.5226Z" fill="#006491"/>
<path d="M116.062 49.7374C116.062 49.7352 116.062 49.733 116.061 49.7308C116.061 49.7281 116.059 49.7259 116.059 49.7232C116.058 49.7155 116.055 49.7068 116.053 49.7003H116.052C115.809 48.5733 114.629 47.7583 113.464 48.0082C112.289 48.2613 111.517 49.3975 111.745 50.542C111.934 51.4862 112.743 52.143 113.681 52.2025C113.621 52.5887 113.293 52.934 113.019 53.0943C112.836 53.2007 112.945 53.4058 112.945 53.4058L113.187 53.7773C113.257 53.9033 113.363 53.9677 113.488 53.9137C115.896 52.8881 116.31 50.7574 116.062 49.7374Z" fill="#006491"/>
<path d="M118.863 56.4578C118.853 56.0536 119.359 55.8747 119.991 55.8747C121.249 55.8747 121.966 56.2478 122.768 56.7966C122.851 56.8544 122.954 56.8746 123.052 56.8495C123.15 56.8255 123.234 56.7595 123.282 56.6684L124.349 54.7406C124.447 54.5628 124.389 54.3375 124.221 54.2322C123.344 53.6884 122.059 52.9863 119.828 52.9863C116.612 52.9863 114.89 54.559 115.178 56.8201C115.684 60.7934 121.632 59.4313 121.539 60.7874C121.518 61.1011 120.992 61.3351 120.081 61.3351C118.904 61.3351 117.566 60.722 116.722 60.1798C116.639 60.1257 116.536 60.1094 116.442 60.1361C116.345 60.1618 116.265 60.225 116.217 60.315L114.983 62.4496C114.89 62.6219 114.937 62.8396 115.096 62.9503C116.279 63.78 118.191 64.3375 119.85 64.3375C123.07 64.3375 124.926 62.9007 124.927 60.5398C124.928 56.1829 118.89 57.5336 118.863 56.4578Z" fill="#006491"/>
<path d="M34.9756 45.562L27.883 38.1946C27.5836 37.8836 27.1861 37.7129 26.7623 37.7129C26.339 37.7129 25.941 37.8842 25.6416 38.1951L19.6932 44.3728L9.79365 54.6565C9.17555 55.2991 9.17555 56.3437 9.79365 56.9852L16.8863 64.3537C17.1857 64.6641 17.5837 64.8359 18.007 64.8359C18.4303 64.8359 18.8283 64.6646 19.1277 64.3537L28.0011 55.1354L34.9751 47.8913C35.5932 47.2487 35.5932 46.204 34.9756 45.562Z" fill="white"/>
<path d="M34.4733 46.0844L27.3811 38.7175C27.0393 38.3624 26.4847 38.3624 26.1434 38.7175L18.4746 46.6828L26.8045 55.3365L34.4733 47.3707C34.8152 47.0156 34.8152 46.4395 34.4733 46.0844ZM28.2361 48.214C27.8344 48.6308 27.3071 48.8386 26.783 48.8386C26.2579 48.8386 25.7322 48.6308 25.3299 48.214C24.9292 47.7978 24.7276 47.2507 24.7276 46.7057C24.7276 46.1597 24.9297 45.612 25.3299 45.1963C25.7322 44.7801 26.2573 44.5701 26.783 44.5707C27.3071 44.5707 27.8344 44.7785 28.2361 45.1963C28.6363 45.6115 28.8384 46.1597 28.8379 46.7057C28.8384 47.2501 28.6363 47.7983 28.2361 48.214Z" fill="#E31837"/>
<path d="M10.2974 55.1769C9.95555 55.5331 9.95555 56.1086 10.2974 56.4631L17.3901 63.8311C17.5613 64.0084 17.785 64.0979 18.0092 64.0979C18.2335 64.0979 18.4577 64.0084 18.6284 63.8311L26.2935 55.8691L17.962 47.2148L10.2974 55.1769ZM16.4396 57.2994C16.0378 57.7134 15.5111 57.9223 14.986 57.9223C14.4598 57.9218 13.9341 57.714 13.5329 57.2994C13.1311 56.8826 12.9321 56.3355 12.9321 55.7905C12.9321 55.2445 13.1322 54.6974 13.5334 54.2795C13.9346 53.8633 14.4603 53.6555 14.9865 53.6555C15.5116 53.6555 16.0384 53.8633 16.4401 54.2801C16.8413 54.6974 17.0409 55.2445 17.0403 55.7895C17.0398 56.336 16.8403 56.8837 16.4396 57.2994ZM19.5632 54.3668C19.9638 53.9495 20.4906 53.7417 21.0157 53.7417C21.5409 53.7417 22.0676 53.9501 22.4683 54.3668C22.8711 54.7836 23.0717 55.3285 23.0717 55.8767C23.0717 56.4211 22.8711 56.9688 22.4683 57.3839C22.0676 57.7991 21.5414 58.0085 21.0157 58.0091C20.4906 58.0091 19.9644 57.7996 19.5632 57.3839C19.1614 56.9666 18.9613 56.42 18.9613 55.8767C18.9613 55.3302 19.1614 54.7836 19.5632 54.3668Z" fill="#006491"/>
<path d="M127.327 53.6094C127.327 53.8195 127.277 54.0153 127.177 54.1969C127.077 54.3786 126.941 54.5215 126.767 54.6262C126.594 54.7304 126.407 54.7828 126.208 54.7828C126.007 54.7828 125.821 54.7304 125.648 54.6262C125.475 54.5215 125.338 54.3786 125.238 54.1969C125.138 54.0153 125.088 53.8195 125.088 53.6094C125.088 53.4 125.138 53.2047 125.238 53.0225C125.338 52.8403 125.475 52.6963 125.648 52.5926C125.821 52.4879 126.008 52.4355 126.208 52.4355C126.407 52.4355 126.594 52.4879 126.767 52.5926C126.941 52.6963 127.077 52.8403 127.177 53.0225C127.277 53.2041 127.327 53.4 127.327 53.6094ZM127.11 53.6094C127.11 53.3482 127.022 53.124 126.845 52.939C126.669 52.7541 126.456 52.6614 126.207 52.6614C125.956 52.6614 125.744 52.7541 125.567 52.939C125.391 53.124 125.302 53.3476 125.302 53.6094C125.302 53.8713 125.391 54.0944 125.567 54.2799C125.744 54.4648 125.956 54.557 126.207 54.557C126.456 54.557 126.669 54.4648 126.845 54.2799C127.022 54.0938 127.11 53.8707 127.11 53.6094ZM125.699 52.981H126.234C126.387 52.981 126.496 53.0138 126.564 53.077C126.632 53.142 126.665 53.2276 126.665 53.3356C126.665 53.4196 126.639 53.4922 126.588 53.5538C126.536 53.6154 126.455 53.6596 126.344 53.6875C126.389 53.706 126.422 53.7256 126.444 53.7453C126.475 53.7747 126.506 53.8173 126.539 53.8735C126.542 53.8773 126.606 53.9984 126.733 54.2362H126.38C126.266 53.9973 126.19 53.8549 126.15 53.808C126.111 53.7616 126.072 53.7376 126.033 53.7376C126.024 53.7376 126.012 53.7393 125.997 53.742V54.2362H125.699V52.981ZM125.997 53.514H126.126C126.212 53.514 126.273 53.4993 126.308 53.4703C126.344 53.4409 126.361 53.4027 126.361 53.3569C126.361 53.3105 126.344 53.2729 126.31 53.244C126.277 53.2145 126.219 53.1998 126.138 53.1998H125.997V53.514Z" fill="#006491"/>
<path d="M23.8042 62.8692C23.8042 63.0792 23.7543 63.2751 23.654 63.4562C23.5537 63.6378 23.4167 63.7813 23.2439 63.886C23.0706 63.9897 22.8836 64.042 22.6835 64.042C22.4845 64.042 22.2981 63.9897 22.1248 63.886C21.952 63.7813 21.8149 63.6378 21.7146 63.4562C21.6143 63.2751 21.5645 63.0792 21.5645 62.8692C21.5645 62.6603 21.6143 62.4645 21.7146 62.2823C21.8149 62.1006 21.952 61.9566 22.1248 61.8524C22.2981 61.7482 22.4845 61.6953 22.6835 61.6953C22.8842 61.6953 23.0711 61.7482 23.2439 61.8524C23.4167 61.9566 23.5537 62.1006 23.654 62.2823C23.7543 62.4645 23.8042 62.6603 23.8042 62.8692ZM23.5873 62.8692C23.5873 62.6074 23.4991 62.3843 23.3227 62.1988C23.1462 62.0133 22.933 61.9211 22.6835 61.9211C22.4341 61.9211 22.2214 62.0133 22.045 62.1988C21.868 62.3843 21.7803 62.6068 21.7803 62.8692C21.7803 63.1305 21.868 63.3536 22.045 63.5391C22.2214 63.7245 22.4346 63.8173 22.6835 63.8173C22.933 63.8173 23.1462 63.7245 23.3227 63.5391C23.4991 63.3536 23.5873 63.1311 23.5873 62.8692ZM22.1757 62.2414H22.7114C22.8631 62.2414 22.9729 62.2741 23.0406 62.3379C23.1084 62.4017 23.1425 62.4879 23.1425 62.5954C23.1425 62.6794 23.1168 62.7525 23.0648 62.8141C23.0133 62.8752 22.9314 62.9194 22.8201 62.9478C22.8658 62.9658 22.8999 62.9854 22.9214 63.0061C22.9519 63.035 22.9834 63.077 23.017 63.1332C23.0186 63.1381 23.0832 63.2582 23.2103 63.4965H22.8584C22.7439 63.2576 22.6673 63.1147 22.6284 63.0683C22.589 63.0214 22.5502 62.9985 22.5108 62.9985C22.5018 62.9985 22.4898 62.9996 22.474 63.0029V63.4965H22.1763V62.2414H22.1757ZM22.4735 62.7738H22.6027C22.6888 62.7738 22.7492 62.7596 22.7849 62.7301C22.8201 62.7007 22.8379 62.663 22.8379 62.6167C22.8379 62.5708 22.8211 62.5326 22.7875 62.5032C22.7539 62.4743 22.6962 62.4595 22.6148 62.4595H22.474L22.4735 62.7738Z" fill="#006491"/>
</g>
</g>
<defs>
<filter id="filter0_b_1078_63406" x="-4.33398" y="-5" width="148.834" height="114" filterUnits="userSpaceOnUse" color-interpolation-filters="sRGB">
<feFlood flood-opacity="0" result="BackgroundImageFix"/>
<feGaussianBlur in="BackgroundImageFix" stdDeviation="2.5"/>
<feComposite in2="SourceAlpha" operator="in" result="effect1_backgroundBlur_1078_63406"/>
<feBlend mode="normal" in="SourceGraphic" in2="effect1_backgroundBlur_1078_63406" result="shape"/>
</filter>
<clipPath id="clip0_1078_63406">
<rect width="118.159" height="28.9112" fill="white" transform="translate(9.16602 37.7129)"/>
</clipPath>
</defs>
</svg>
