<svg width="1134" height="775" viewBox="0 0 1134 775" fill="none" xmlns="http://www.w3.org/2000/svg">
<g clip-path="url(#clip0_1078_61804)">
<rect width="1134" height="775" fill="#041B01"/>
<g filter="url(#filter0_f_1078_61804)">
<path d="M919.075 -258.73L841.438 -118.626C836.22 -109.21 836.447 -97.7199 842.033 -88.5176L910.863 24.8722C912.082 26.8811 913.518 28.7424 915.21 30.3732C943.844 57.9685 1017.04 108.296 1103.98 110.042C1107.05 110.104 1110.09 109.6 1113.05 108.785C1155.9 96.9718 1259.06 89.3292 1309.73 86.7601C1311.83 86.6536 1313.9 86.7757 1315.97 87.1142L1813.73 168.255C1827.25 170.459 1840.54 163.227 1846.03 150.681L1929.4 -39.6822C1931.75 -45.0385 1932.48 -50.9636 1931.5 -56.7288L1886.59 -321.786C1884.15 -336.215 1871.65 -346.775 1857.01 -346.775H1795.04C1793.48 -346.775 1791.92 -346.896 1790.38 -347.138L1586.29 -379.211C1575.37 -380.928 1564.38 -376.494 1557.71 -367.673L1522.97 -321.745C1515.02 -311.243 1501.16 -307.149 1488.79 -311.651L1307.52 -377.597C1299.79 -380.408 1291.25 -379.941 1283.92 -376.217C1242.07 -354.955 1173.47 -318.072 1162.58 -304.077C1147.64 -284.863 1045.53 -274.189 1032.25 -274.189H945.303C934.396 -274.189 924.361 -268.27 919.075 -258.73Z" fill="#EEFE05"/>
</g>
</g>
<rect x="0.5" y="0.5" width="1133" height="774" stroke="#97A7A6"/>
<defs>
<filter id="filter0_f_1078_61804" x="557.678" y="-659.576" width="1654.25" height="1108.22" filterUnits="userSpaceOnUse" color-interpolation-filters="sRGB">
<feFlood flood-opacity="0" result="BackgroundImageFix"/>
<feBlend mode="normal" in="SourceGraphic" in2="BackgroundImageFix" result="shape"/>
<feGaussianBlur stdDeviation="140" result="effect1_foregroundBlur_1078_61804"/>
</filter>
<clipPath id="clip0_1078_61804">
<rect width="1134" height="775" fill="white"/>
</clipPath>
</defs>
</svg>
